<svg width="24" height="24" viewBox="0 0 24 24" fill="none" xmlns="http://www.w3.org/2000/svg">
<path fill-rule="evenodd" clip-rule="evenodd" d="M12.0002 10C11.6047 10 11.218 10.1173 10.8891 10.3371C10.5602 10.5568 10.3039 10.8692 10.1525 11.2346C10.0011 11.6001 9.9615 12.0022 10.0387 12.3902C10.1158 12.7781 10.3063 13.1345 10.586 13.4142C10.8657 13.6939 11.2221 13.8844 11.6101 13.9616C11.998 14.0387 12.4002 13.9991 12.7656 13.8478C13.1311 13.6964 13.4434 13.44 13.6632 13.1111C13.8829 12.7822 14.0002 12.3956 14.0002 12C14.0002 11.4696 13.7895 10.9609 13.4145 10.5858C13.0394 10.2107 12.5307 10 12.0002 10ZM11.4447 11.1685C11.6091 11.0586 11.8025 11 12.0002 11C12.2655 11 12.5198 11.1054 12.7074 11.2929C12.8949 11.4804 13.0002 11.7348 13.0002 12C13.0002 12.1978 12.9416 12.3911 12.8317 12.5556C12.7218 12.72 12.5657 12.8482 12.3829 12.9239C12.2002 12.9996 11.9991 13.0194 11.8052 12.9808C11.6112 12.9422 11.433 12.847 11.2931 12.7071C11.1533 12.5673 11.058 12.3891 11.0195 12.1951C10.9809 12.0011 11.0007 11.8 11.0764 11.6173C11.1521 11.4346 11.2802 11.2784 11.4447 11.1685Z" fill="#00164E"/>
<path fill-rule="evenodd" clip-rule="evenodd" d="M14.5497 5.4791C13.6933 5.14437 12.7794 4.98164 11.8601 5.00021C10.476 5.02817 9.13133 5.46588 7.99601 6.25802C6.86069 7.05016 5.98574 8.16114 5.48178 9.4505C4.97782 10.7399 4.86749 12.1497 5.16473 13.5018C5.46196 14.8538 6.15342 16.0874 7.15168 17.0465C8.14995 18.0056 9.41018 18.6472 10.773 18.8902C12.1359 19.1331 13.5402 18.9665 14.8084 18.4114C16.0766 17.8562 17.1517 16.9376 17.8978 15.7715C18.6439 14.6054 19.0275 13.2443 19.0001 11.8602C18.9819 10.9409 18.7828 10.0342 18.414 9.19185C18.0453 8.34953 17.5143 7.58809 16.8512 6.95105C16.1882 6.314 15.4061 5.81383 14.5497 5.4791ZM17.4629 9.51418C15.6546 9.10736 13.8012 8.93431 11.9479 8.99965L11.9362 9.00006C10.0796 9.02191 8.23338 9.27334 6.43941 9.74854C6.43054 9.77048 6.42179 9.79248 6.41317 9.81454C6.1595 10.4635 6.02218 11.1482 6.00364 11.8374C7.30372 12.3507 8.46244 13.1719 9.37869 14.2332L9.38294 14.2382L9.39182 14.2491C10.264 15.3477 10.9091 16.6079 11.2903 17.9565C11.8419 18.0223 12.3981 18.011 12.943 17.9244C13.2645 16.5608 13.8574 15.275 14.6871 14.1442L14.6936 14.1356L14.6976 14.1304C15.5693 13.0248 16.7006 12.1548 17.9879 11.596C17.9415 10.9057 17.776 10.2279 17.498 9.59284C17.4864 9.56653 17.4747 9.5403 17.4629 9.51418ZM16.7662 8.35222C15.1688 8.06152 13.5436 7.94319 11.9185 8.00007C10.2904 8.01963 8.66991 8.20833 7.08297 8.56245C7.48487 7.98721 7.98669 7.48387 8.56822 7.07813C9.54135 6.39916 10.6939 6.02397 11.8803 6C12.6683 5.98409 13.4517 6.12357 14.1857 6.41048C14.9198 6.69739 15.5901 7.12611 16.1584 7.67215C16.3785 7.88358 16.5816 8.11099 16.7662 8.35222ZM17.9585 12.7152C17.002 13.2042 16.1585 13.8947 15.4882 14.7428C14.8463 15.6194 14.3616 16.5987 14.0538 17.6369C14.1729 17.5935 14.2908 17.5463 14.4074 17.4953C15.4944 17.0195 16.4159 16.232 17.0555 15.2325C17.544 14.469 17.8512 13.608 17.9585 12.7152ZM10.1658 17.7111C9.81308 16.6879 9.28924 15.73 8.61505 14.8789C7.91125 14.0659 7.04637 13.4127 6.07871 12.9585C6.09652 13.0683 6.11741 13.1779 6.1414 13.2871C6.39618 14.446 6.98886 15.5033 7.84451 16.3254C8.50533 16.9603 9.30008 17.4329 10.1658 17.7111Z" fill="#00164E"/>
<path fill-rule="evenodd" clip-rule="evenodd" d="M18.2345 5.51126C19.9555 7.16473 20.9501 9.43344 21.0002 11.8195C21.0354 13.599 20.5422 15.3496 19.5829 16.8489C18.6237 18.3481 17.2414 19.5293 15.6109 20.243C13.9803 20.9567 12.1748 21.1709 10.4226 20.8586C8.6703 20.5462 7.05 19.7213 5.76652 18.4882C4.48304 17.255 3.59402 15.669 3.21186 13.9306C2.8297 12.1923 2.97156 10.3796 3.61951 8.72186C4.26745 7.06411 5.39239 5.63571 6.85208 4.61725C8.31178 3.59878 10.0413 3.03599 11.8208 3.00005C14.2069 2.95465 16.5136 3.85779 18.2345 5.51126ZM11.84 3.99986C13.9612 3.95957 16.0118 4.76247 17.5417 6.23237C19.0715 7.70218 19.9557 9.71886 20.0004 11.8399C20.0317 13.4217 19.5933 14.9772 18.7406 16.3099C17.8879 17.6426 16.6592 18.6925 15.2099 19.3269C13.7605 19.9613 12.1556 20.1517 10.598 19.8741C9.04048 19.5964 7.60022 18.8632 6.45935 17.7671C5.31848 16.6709 4.52824 15.2611 4.18854 13.7159C3.84884 12.1707 3.97494 10.5595 4.55089 9.0859C5.12684 7.61235 6.12679 6.34265 7.42429 5.43735C8.7217 4.53212 10.2584 4.03188 11.84 3.99986Z" fill="#00164E"/>
</svg>
