<svg width="24" height="24" viewBox="0 0 24 24" fill="none" xmlns="http://www.w3.org/2000/svg">
<path d="M8.85355 8.85355C8.80561 8.90149 8.75036 8.93766 8.69139 8.96206C8.63244 8.98651 8.56779 9 8.5 9L4.5 9C4.22386 9 4 8.77614 4 8.5C4 8.22386 4.22386 8 4.5 8L7.29289 8L4.14645 4.85355C3.95118 4.65829 3.95118 4.34171 4.14645 4.14645C4.34171 3.95118 4.65829 3.95118 4.85355 4.14645L8 7.29289L8 4.5C8 4.22386 8.22386 4 8.5 4C8.77614 4 9 4.22386 9 4.5L9 8.5C9 8.56779 8.98651 8.63244 8.96206 8.69139C8.93766 8.75036 8.90149 8.80561 8.85355 8.85355Z" fill="#00164E"/>
<path d="M8.96206 15.3086C8.93802 15.2505 8.90256 15.196 8.85567 15.1486L8.85143 15.1443C8.76112 15.0551 8.63699 15 8.5 15H4.5C4.22386 15 4 15.2239 4 15.5C4 15.7761 4.22386 16 4.5 16H7.29289L4.14645 19.1464C3.95118 19.3417 3.95118 19.6583 4.14645 19.8535C4.34171 20.0488 4.65829 20.0488 4.85355 19.8535L8 16.7071V19.5C8 19.7761 8.22386 20 8.5 20C8.77614 20 9 19.7761 9 19.5V15.5003L8.99999 15.497C8.99961 15.4329 8.98697 15.3688 8.96206 15.3086Z" fill="#00164E"/>
<path d="M15.1464 15.1464C15.1944 15.0985 15.2496 15.0623 15.3086 15.0379C15.3676 15.0135 15.4322 15 15.5 15H19.5C19.7761 15 20 15.2239 20 15.5C20 15.7761 19.7761 16 19.5 16H16.7071L19.8536 19.1464C20.0488 19.3417 20.0488 19.6583 19.8536 19.8535C19.6583 20.0488 19.3417 20.0488 19.1464 19.8535L16 16.7071V19.5C16 19.7761 15.7761 20 15.5 20C15.2239 20 15 19.7761 15 19.5V15.5C15 15.4322 15.0135 15.3676 15.0379 15.3086C15.0623 15.2496 15.0985 15.1944 15.1464 15.1464Z" fill="#00164E"/>
<path d="M15.0379 8.69139C15.062 8.74949 15.0974 8.80398 15.1443 8.85142L15.1486 8.85567C15.2389 8.9449 15.363 9 15.5 9L19.5 9C19.7761 9 20 8.77614 20 8.5C20 8.22386 19.7761 8 19.5 8L16.7071 8L19.8536 4.85355C20.0488 4.65829 20.0488 4.34171 19.8536 4.14645C19.6583 3.95118 19.3417 3.95118 19.1464 4.14645L16 7.29289V4.5C16 4.22386 15.7761 4 15.5 4C15.2239 4 15 4.22386 15 4.5V8.49965L15 8.503C15.0004 8.56713 15.013 8.6312 15.0379 8.69139Z" fill="#00164E"/>
</svg>
