<svg width="24" height="24" viewBox="0 0 24 24" fill="none" xmlns="http://www.w3.org/2000/svg">
<path fill-rule="evenodd" clip-rule="evenodd" d="M7 3.5C7 3.22386 6.77614 3 6.5 3C6.22386 3 6 3.22386 6 3.5V4H3.49988C3.10205 4 2.72052 4.15804 2.43922 4.43934C2.15791 4.72064 1.99988 5.10218 1.99988 5.5V9.32812C1.98026 9.38172 1.96955 9.43961 1.96955 9.5V17.8962C1.96379 18.2977 2.03709 18.6964 2.1853 19.0696C2.334 19.444 2.55519 19.7854 2.83617 20.0742C3.11715 20.3629 3.45239 20.5934 3.82264 20.7522C4.1929 20.9111 4.59088 20.9953 4.99376 21L4.99955 21L7.02002 21V22.53C7.02002 22.8061 7.24388 23.03 7.52002 23.03H11.05C11.1825 23.03 11.3096 22.9774 11.4033 22.8838L13.2895 21L17.0112 21C17.8186 20.9812 18.5859 20.6438 19.1456 20.0616C19.7044 19.4804 20.0113 18.7023 19.9996 17.8962L19.9996 14.2575L22.1636 12.0935L22.1748 12.0819C22.705 11.5163 22.993 10.7657 22.9773 9.9906C22.9615 9.21547 22.6434 8.47722 22.0907 7.93354C22.0847 7.92763 22.0785 7.92188 22.0722 7.91628L21.9932 7.84606C21.727 7.58125 21.4117 7.37082 21.0649 7.22658C20.727 7.08601 20.3655 7.01096 19.9998 7.00529L19.9999 5.5C19.9999 5.10218 19.8418 4.72064 19.5605 4.43934C19.2792 4.15803 18.8977 4 18.4999 4H16V3.5C16 3.22386 15.7761 3 15.5 3C15.2239 3 15 3.22386 15 3.5V4H11.5V3.5C11.5 3.22386 11.2761 3 11 3C10.7239 3 10.5 3.22386 10.5 3.5V4H7V3.5ZM15.5 7C15.2239 7 15 6.77614 15 6.5V5H11.5V6.5C11.5 6.77614 11.2761 7 11 7C10.7239 7 10.5 6.77614 10.5 6.5V5H7V6.5C7 6.77614 6.77614 7 6.5 7C6.22386 7 6 6.77614 6 6.5V5H3.49988C3.36727 5 3.24009 5.05268 3.14633 5.14645C3.05256 5.24021 2.99988 5.36739 2.99988 5.5V9H16.759L17.9054 7.85749L17.9062 7.85668C18.1746 7.58688 18.4937 7.37275 18.8451 7.22658C18.8962 7.20533 18.9478 7.18558 18.9999 7.16734V5.5C18.9999 5.36739 18.9472 5.24021 18.8534 5.14645C18.7597 5.05268 18.6325 5 18.4999 5H16V6.5C16 6.77614 15.7761 7 15.5 7ZM14.2908 20L18.9996 15.2973V17.9079C19.0082 18.4516 18.8016 18.9766 18.4248 19.3685C18.0492 19.7591 17.5349 19.9859 16.9934 20H14.2908ZM4.21696 19.8333C4.46538 19.9399 4.73235 19.9965 5.00263 20H7.02002V19C7.02002 18.868 7.07218 18.7414 7.16512 18.6478L7.52246 18.2877C7.54457 18.2478 7.57256 18.2103 7.60641 18.1765C7.63931 18.1436 7.67566 18.1162 7.7143 18.0944L14.9871 10.7658L15.7555 10H2.96955L2.96961 17.9L2.96949 17.9078C2.96524 18.179 3.01458 18.4484 3.11469 18.7005C3.2148 18.9526 3.3637 19.1824 3.55286 19.3768C3.74201 19.5712 3.9677 19.7263 4.21696 19.8333ZM8.02002 19.2972L10.7528 22.03H8.02002V19.2972ZM18.4294 14.4534L11.5055 21.3684L10.427 20.29L19.1468 11.58L20.2034 12.6396L18.5265 14.3164C18.4862 14.3567 18.4535 14.4031 18.4294 14.4534ZM8.67899 18.542L9.71989 19.5829L18.4407 10.8719L17.3723 9.80052L15.6949 11.4722L15.693 11.4741L8.67899 18.542ZM20.9105 11.9324L21.4504 11.3925C21.7988 11.0179 21.9879 10.5225 21.9775 10.0109C21.9671 9.50071 21.7592 9.01463 21.3979 8.65482L21.3178 8.58369L21.3135 8.57982C21.3074 8.5742 21.3013 8.56842 21.2954 8.56249C21.1198 8.3858 20.9109 8.24557 20.6809 8.14989C20.4508 8.0542 20.2042 8.00494 19.955 8.00494C19.7059 8.00494 19.4592 8.0542 19.2292 8.14989C18.9991 8.24557 18.7903 8.3858 18.6146 8.56249L18.613 8.56415L18.0807 9.09463L20.9105 11.9324Z" fill="#00164E"/>
</svg>
