<svg width="24" height="24" viewBox="0 0 24 24" fill="none" xmlns="http://www.w3.org/2000/svg">
<path d="M12 2.5C11.7239 2.5 11.5 2.72386 11.5 3V5C11.5 5.27614 11.7239 5.5 12 5.5C12.2761 5.5 12.5 5.27614 12.5 5V3C12.5 2.72386 12.2761 2.5 12 2.5Z" fill="#00164E"/>
<path fill-rule="evenodd" clip-rule="evenodd" d="M7.19226 12C7.19226 9.34478 9.34474 7.19231 12 7.19231C14.6552 7.19231 16.8076 9.34478 16.8076 12C16.8076 14.6552 14.6552 16.8077 12 16.8077C9.34474 16.8077 7.19226 14.6552 7.19226 12ZM12 8.19231C9.89702 8.19231 8.19226 9.89707 8.19226 12C8.19226 14.1029 9.89702 15.8077 12 15.8077C14.1029 15.8077 15.8076 14.1029 15.8076 12C15.8076 9.89707 14.1029 8.19231 12 8.19231Z" fill="#00164E"/>
<path d="M11.5 19C11.5 18.7239 11.7239 18.5 12 18.5C12.2761 18.5 12.5 18.7239 12.5 19V21C12.5 21.2761 12.2761 21.5 12 21.5C11.7239 21.5 11.5 21.2761 11.5 21V19Z" fill="#00164E"/>
<path d="M21.5 12C21.5 11.7239 21.2761 11.5 21 11.5H19C18.7239 11.5 18.5 11.7239 18.5 12C18.5 12.2761 18.7239 12.5 19 12.5H21C21.2761 12.5 21.5 12.2761 21.5 12Z" fill="#00164E"/>
<path d="M5 11.5C5.27614 11.5 5.5 11.7239 5.5 12C5.5 12.2761 5.27614 12.5 5 12.5H3C2.72386 12.5 2.5 12.2761 2.5 12C2.5 11.7239 2.72386 11.5 3 11.5H5Z" fill="#00164E"/>
<path d="M5.2695 5.29541C5.07461 5.49105 5.07522 5.80763 5.27086 6.00252L6.74229 7.46829C6.93793 7.66318 7.25451 7.66257 7.44939 7.46693C7.64428 7.2713 7.64367 6.95471 7.44803 6.75983L5.9766 5.29405C5.78097 5.09916 5.46438 5.09977 5.2695 5.29541Z" fill="#00164E"/>
<path d="M16.5519 17.2402C16.3562 17.0453 16.3556 16.7287 16.5505 16.5331C16.7454 16.3374 17.062 16.3368 17.2576 16.5317L18.729 17.9975C18.9247 18.1924 18.9253 18.5089 18.7304 18.7046C18.5355 18.9002 18.2189 18.9008 18.0233 18.7059L16.5519 17.2402Z" fill="#00164E"/>
<path d="M18.7047 5.26955C18.5091 5.07466 18.1925 5.07527 17.9976 5.27091L16.5318 6.74234C16.3369 6.93797 16.3375 7.25456 16.5332 7.44944C16.7288 7.64433 17.0454 7.64372 17.2403 7.44808L18.7061 5.97665C18.9009 5.78101 18.9003 5.46443 18.7047 5.26955Z" fill="#00164E"/>
<path d="M6.75968 16.5519C6.95456 16.3563 7.27114 16.3557 7.46678 16.5506C7.66242 16.7454 7.66303 17.062 7.46814 17.2577L6.00237 18.7291C5.80748 18.9247 5.4909 18.9253 5.29526 18.7304C5.09962 18.5356 5.09901 18.219 5.2939 18.0233L6.75968 16.5519Z" fill="#00164E"/>
</svg>
