<svg width="24" height="24" viewBox="0 0 24 24" fill="none" xmlns="http://www.w3.org/2000/svg">
<path d="M6.96265 15.5798C6.28916 15.2862 5.68767 14.8495 5.2 14.3C6.1 16.3 7.1 17.4 8.3 17.7H20.5C22.3735 17.7 23.545 18.1388 23.9323 18.8519C23.9549 18.9006 23.9775 18.95 24 19C23.981 18.9494 23.9585 18.9 23.9323 18.8519C23.0499 16.9506 22.07 16 20.9 16H9.1C8.36549 16.0168 7.63615 15.8734 6.96265 15.5798Z" fill="#00164E"/>
<path d="M1.76265 6.2798C1.08916 5.98622 0.487671 5.54951 0 5C0.9 7 1.9 8.1 3.1 8.4H15.3C17.1735 8.4 18.345 8.83876 18.7323 9.55186C18.7549 9.60062 18.7775 9.65 18.8 9.7C18.781 9.6494 18.7585 9.60001 18.7323 9.55186C17.8499 7.65062 16.87 6.7 15.7 6.7H3.9C3.16549 6.71676 2.43615 6.57337 1.76265 6.2798Z" fill="#00164E"/>
<path d="M4.36265 10.9798C3.68916 10.6862 3.08767 10.2495 2.6 9.7C3.5 11.6 4.5 12.8 5.7 13.1H17.9C19.7735 13.1 20.945 13.5388 21.3323 14.2519C21.3549 14.3006 21.3775 14.35 21.4 14.4C21.381 14.3494 21.3585 14.3 21.3323 14.2519C20.4499 12.3506 19.47 11.4 18.3 11.4H6.5C5.76549 11.4168 5.03615 11.2734 4.36265 10.9798Z" fill="#00164E"/>
</svg>
