<svg width="24" height="24" viewBox="0 0 24 24" fill="none" xmlns="http://www.w3.org/2000/svg">
<path fill-rule="evenodd" clip-rule="evenodd" d="M15.8663 2.47876L15.9145 2.94896C16.033 4.10588 15.571 5.20851 14.9065 6.01104L14.8994 6.01951C14.22 6.80416 13.0991 7.46893 11.9158 7.37268L11.5118 7.33983L11.4604 6.93785C11.3143 5.79768 11.8757 4.64847 12.4948 3.95364C13.1945 3.12667 14.3895 2.54659 15.3941 2.50045L15.8663 2.47876ZM14.919 3.58427C14.3099 3.7469 13.6582 4.12459 13.2548 4.60353L13.25 4.60924L13.2451 4.6148C12.843 5.06434 12.5102 5.71991 12.4477 6.35762C13.077 6.25944 13.7025 5.87216 14.1398 5.36897C14.5595 4.86064 14.8533 4.23187 14.919 3.58427Z" fill="#00164E"/>
<path fill-rule="evenodd" clip-rule="evenodd" d="M19.2262 15.8258L19.6062 16.0187L19.4705 16.4417C19.4133 16.6222 19.0523 17.7616 18.2286 18.933C17.8718 19.443 17.4754 20.0009 17.0039 20.4292C16.5215 20.8676 15.9292 21.1997 15.1811 21.2123C14.5198 21.2238 14.0638 21.0314 13.6728 20.8664L13.6587 20.8605C13.2597 20.6922 12.9104 20.5468 12.343 20.5468C11.7499 20.5468 11.3803 20.6979 10.9607 20.8717L10.9447 20.8783C10.5746 21.0316 10.1437 21.2101 9.55207 21.2319C8.7991 21.2581 8.17496 20.8933 7.67733 20.442C7.18218 19.9929 6.7571 19.409 6.39681 18.894L6.39758 18.8951L6.80576 18.6063L6.39605 18.8929L6.39681 18.894C5.6172 17.7916 4.93729 16.2536 4.64821 14.6518C4.35985 13.0539 4.45031 11.3298 5.29575 9.9087L5.29426 9.91126L5.72681 10.1621L5.29725 9.90617L5.29575 9.9087C6.12487 8.48075 7.63682 7.57867 9.27145 7.55603L9.27033 7.55605L9.2792 8.05591L9.27145 7.55603C10.0049 7.5433 10.688 7.8083 11.1987 8.00644L11.2302 8.01867C11.4366 8.09869 11.6099 8.16564 11.7668 8.21382C11.9253 8.26248 12.034 8.28118 12.1089 8.28118C12.1651 8.28118 12.2605 8.26555 12.4152 8.21769C12.5666 8.17086 12.7386 8.10519 12.9471 8.02531L12.9754 8.01444C13.5963 7.77638 14.4665 7.44275 15.4349 7.49715L15.4429 7.4976C16.0152 7.53898 17.816 7.70906 18.9733 9.38074L19.2505 9.78111L18.8576 10.0688C18.8376 10.0834 18.8106 10.1004 18.8019 10.1059L18.7998 10.1072C18.5532 10.2637 17.1831 11.1466 17.1995 12.8594C17.216 14.9163 18.9243 15.6896 19.176 15.8021C19.1893 15.808 19.2006 15.8133 19.209 15.8174L19.2197 15.8226L19.2235 15.8245L19.225 15.8252L19.2262 15.8258ZM15.3749 8.49536C14.6378 8.455 13.9501 8.71183 13.3049 8.95908L13.2952 8.96281C13.0984 9.03822 12.8969 9.11544 12.7107 9.17304C12.5247 9.23055 12.3157 9.28118 12.1089 9.28118C11.8886 9.28118 11.6697 9.23009 11.4733 9.16976C11.2785 9.10996 11.0733 9.0304 10.8784 8.9548L10.8687 8.95104C10.3236 8.73968 9.80901 8.54665 9.28807 8.55589L9.28602 8.55592C8.01086 8.57333 6.81651 9.27949 6.15936 10.4129L6.1564 10.418C5.47642 11.5594 5.36865 13.0132 5.63231 14.4742C5.89534 15.9316 6.51796 17.3337 7.21394 18.3175L7.21548 18.3197C7.57773 18.8376 7.94633 19.336 8.3491 19.7012C8.74972 20.0645 9.12914 20.246 9.51615 20.2325C9.91859 20.2176 10.2052 20.1022 10.578 19.9478L10.5858 19.9446C11.0243 19.763 11.5463 19.5468 12.343 19.5468C13.1173 19.5468 13.6207 19.7591 14.0401 19.936L14.0473 19.9391C14.4326 20.1016 14.7222 20.2201 15.164 20.2124C15.5966 20.2052 15.9665 20.0207 16.3315 19.6891C16.7073 19.3477 17.0436 18.8824 17.4095 18.3594L17.4102 18.3584C17.9115 17.6456 18.2218 16.9429 18.3835 16.5206C17.6564 16.107 16.2168 15.0268 16.1995 12.8682C16.1833 11.1384 17.2187 10.0604 17.8395 9.5647C16.9781 8.65199 15.8454 8.52961 15.3749 8.49536Z" fill="#00164E"/>
</svg>
