<svg width="24" height="24" viewBox="0 0 24 24" fill="none" xmlns="http://www.w3.org/2000/svg">
<path fill-rule="evenodd" clip-rule="evenodd" d="M14.7893 4.0209C14.616 3.89798 14.384 3.89798 14.2107 4.0209L14.209 4.02208L14.2057 4.02444L14.1943 4.03264L14.1531 4.06274C14.1177 4.08881 14.0667 4.1268 14.0025 4.17602C13.8741 4.27444 13.6922 4.41798 13.4747 4.60118C13.0405 4.96697 12.4604 5.49405 11.8788 6.13872C11.0813 7.02267 10.2397 8.17266 9.80307 9.46214C9.74227 9.39131 9.68155 9.32243 9.62124 9.25558C9.16459 8.74945 8.70949 8.33598 8.369 8.04917C8.19839 7.90545 8.0556 7.79273 7.95453 7.71527C7.90397 7.67653 7.86378 7.64655 7.83568 7.62587L7.80279 7.60187L7.79353 7.59521L7.79078 7.59324L7.78929 7.59219C7.61601 7.46927 7.38399 7.46927 7.21071 7.59218L7.20922 7.59324L7.20647 7.59521L7.19721 7.60187L7.16432 7.62587C7.13622 7.64655 7.09603 7.67653 7.04547 7.71527C6.9444 7.79273 6.80161 7.90545 6.631 8.04917C6.29051 8.33598 5.83541 8.74945 5.37876 9.25558C4.48466 10.2466 3.5 11.6854 3.5 13.2759C3.5 15.4046 5.00514 17.2067 7 17.4676V20H3.5C3.22386 20 3 20.2239 3 20.5C3 20.7761 3.22386 21 3.5 21H20.5C20.7761 21 21 20.7761 21 20.5C21 20.2239 20.7761 20 20.5 20H15V16.4742C17.5497 16.2081 19.5 13.9278 19.5 11.212C19.5 9.22245 18.2653 7.40682 17.1212 6.13872C16.5396 5.49405 15.9595 4.96697 15.5253 4.60118C15.3078 4.41798 15.1259 4.27444 14.9975 4.17602C14.9333 4.1268 14.8823 4.08881 14.8469 4.06274L14.8057 4.03264L14.7943 4.02444L14.791 4.02208L14.7893 4.0209ZM7.21071 7.59218L7.24692 7.64312L7.49923 7.99891L7.21071 7.59218ZM18.5 11.212C18.5 13.424 16.9516 15.204 15 15.4667V12.377L18.219 9.69454C18.3963 10.1907 18.5 10.7 18.5 11.212ZM17.7902 8.75015L15 11.0753V5.46727C15.393 5.80507 15.8865 6.26299 16.3788 6.8086C16.9022 7.38879 17.4054 8.04744 17.7902 8.75015ZM10.9828 9.20499L14 12.0033V5.46727C13.607 5.80507 13.1135 6.26299 12.6212 6.8086C11.9865 7.51208 11.3817 8.33092 10.9815 9.20376L10.9828 9.20499ZM13.9716 13.3408C13.9808 13.3494 13.9903 13.3575 14 13.3653V15.4667C12.0484 15.204 10.5 13.424 10.5 11.212C10.5 10.8835 10.5427 10.5561 10.6202 10.2325L13.9716 13.3408ZM11.1086 15.0984C10.5361 16.3607 9.3863 17.2863 8 17.4676V20H14V16.4742C12.8834 16.3577 11.8818 15.8549 11.1086 15.0984ZM10.3754 14.2009C10.0976 13.7723 9.87806 13.2988 9.72834 12.7939L8 14.2342V16.455C9.12075 16.2513 10.0498 15.3748 10.3754 14.2009ZM9.52445 10.7235C9.5084 10.885 9.5 11.0479 9.5 11.212C9.5 11.3652 9.50621 11.517 9.51838 11.6672L8 12.9325V9.05301C8.26621 9.29121 8.5729 9.58644 8.87876 9.92546C9.10441 10.1756 9.32376 10.4431 9.52445 10.7235ZM4.5 13.2759C4.5 14.8973 5.60056 16.2006 7 16.455V15.0006L4.55062 12.7289C4.51766 12.9106 4.5 13.0932 4.5 13.2759ZM4.89838 11.6876C5.20219 11.0514 5.64786 10.4501 6.12124 9.92546C6.4271 9.58644 6.73379 9.29121 7 9.05301V13.6367L4.89838 11.6876Z" fill="#00164E"/>
</svg>
