<svg width="24" height="24" viewBox="0 0 24 24" fill="none" xmlns="http://www.w3.org/2000/svg">
<path d="M8.73604 14.954C7.9538 14.1105 7.52265 13.0004 7.53045 11.85V4H3.00045V11.85C2.98858 13.0423 3.21217 14.2252 3.65841 15.3309C4.10465 16.4366 4.76476 17.4433 5.60089 18.2934C6.43701 19.1435 7.43271 19.8201 8.53089 20.2846C9.62907 20.749 10.8081 20.9922 12.0005 21C13.1924 20.9908 14.3709 20.7468 15.4684 20.2819C16.566 19.817 17.5612 19.1403 18.397 18.2905C19.2329 17.4407 19.8931 16.4345 20.3398 15.3294C20.7865 14.2243 21.011 13.0419 21.0005 11.85V11H16.4605V12C16.4682 13.1504 16.0371 14.1105 15.2549 14.954C14.4726 15.7976 13.3982 16.3111 12.2505 16.39H11.7404C10.5927 16.3111 9.51828 15.7976 8.73604 14.954Z" fill="#00164E"/>
<path d="M16.5204 4H21V8.72H16.5204V4Z" fill="#00164E"/>
</svg>
