<svg width="24" height="24" viewBox="0 0 24 24" fill="none" xmlns="http://www.w3.org/2000/svg">
<path d="M15.53 4.00854C15.3163 4.00854 15.1083 4.0777 14.9371 4.20568C14.7679 4.33223 14.6436 4.50957 14.5824 4.7117L13.5751 7.84334C13.5432 7.9369 13.4841 8.01891 13.4055 8.07897C13.3294 8.13713 13.2383 8.17214 13.143 8.17998H10.0195C9.79002 8.16454 9.56163 8.22638 9.371 8.35608C9.17285 8.4909 9.02792 8.6906 8.96117 8.92078C8.89442 9.15095 8.91002 9.39721 9.0053 9.61713C9.09362 9.82099 9.24529 9.99039 9.43712 10.1006L11.9555 12.0166C12.0365 12.0795 12.0962 12.1658 12.1265 12.2638C12.1569 12.3622 12.1561 12.4677 12.1244 12.5657L11.1263 15.7094C11.0565 15.9066 11.0502 16.1209 11.1085 16.322C11.1681 16.5276 11.2921 16.7085 11.4623 16.8384C11.6324 16.9682 11.8397 17.04 12.0536 17.0433C12.2676 17.0466 12.477 16.9811 12.651 16.8565C12.8756 16.6958 12.9273 16.3835 12.7665 16.1589C12.6058 15.9344 12.2935 15.8827 12.0689 16.0434C12.0716 16.0361 12.0742 16.0287 12.0765 16.0213L13.0756 12.8742L13.0761 12.8726C13.171 12.579 13.173 12.2633 13.0819 11.9685C12.9906 11.6731 12.8103 11.4132 12.5656 11.2242L10.0127 9.28205C9.98888 9.26392 9.96348 9.24798 9.9368 9.23439C9.93058 9.23123 9.92566 9.22599 9.92288 9.21958C9.92011 9.21319 9.91965 9.20601 9.9216 9.1993C9.92354 9.1926 9.92776 9.18678 9.93353 9.18286C9.93931 9.17893 9.94627 9.17714 9.95322 9.17779C9.96876 9.17925 9.98436 9.17998 9.99997 9.17998H13.16C13.1624 9.17998 13.1648 9.17996 13.1672 9.17993C13.1745 9.17982 13.1817 9.17956 13.189 9.17914C13.4879 9.16178 13.7747 9.05536 14.0127 8.87358C14.2506 8.6918 14.4287 8.44299 14.524 8.15915L15.5299 5.03178L16.5234 8.15176L16.5277 8.16423C16.6218 8.43487 16.7946 8.67127 17.0238 8.8432C17.253 9.01512 17.5284 9.11475 17.8145 9.12933C17.823 9.12977 17.8315 9.12998 17.84 9.12998H21C21.0156 9.12998 21.0312 9.12925 21.0467 9.12779C21.0537 9.12714 21.0606 9.12893 21.0664 9.13286C21.0722 9.13678 21.0764 9.1426 21.0783 9.1493C21.0803 9.15601 21.0798 9.16319 21.0771 9.16958C21.0743 9.17599 21.0694 9.18123 21.0631 9.18439C21.0369 9.19776 21.0119 9.21342 20.9884 9.23119L19.7984 10.1312C19.5781 10.2978 19.5346 10.6113 19.7012 10.8316C19.8677 11.0518 20.1813 11.0953 20.4016 10.9288L21.5621 10.0511C21.7543 9.94082 21.9062 9.77125 21.9946 9.56712C22.0899 9.34721 22.1055 9.10095 22.0388 8.87078C21.972 8.6406 21.8271 8.4409 21.6289 8.30608C21.4383 8.17638 21.2099 8.11454 20.9804 8.12998H17.8551C17.7714 8.12374 17.6911 8.09366 17.6238 8.0432C17.5552 7.99174 17.5031 7.92137 17.474 7.84079L16.4778 4.71252C16.4167 4.51005 16.2923 4.3324 16.1228 4.20568C15.9517 4.0777 15.7437 4.00854 15.53 4.00854Z" fill="#00164E"/>
<path d="M2.5 6C2.22386 6 2 6.22386 2 6.5C2 6.77614 2.22386 7 2.5 7H9.5C9.77614 7 10 6.77614 10 6.5C10 6.22386 9.77614 6 9.5 6H2.5Z" fill="#00164E"/>
<path fill-rule="evenodd" clip-rule="evenodd" d="M15.7777 12.6741C16.4355 12.2346 17.2089 12 18 12C19.0609 12 20.0783 12.4214 20.8284 13.1716C21.5786 13.9217 22 14.9391 22 16C22 16.7911 21.7654 17.5645 21.3259 18.2223C20.8864 18.8801 20.2616 19.3928 19.5307 19.6955C18.7998 19.9983 17.9956 20.0775 17.2196 19.9231C16.4437 19.7688 15.731 19.3878 15.1716 18.8284C14.6122 18.269 14.2312 17.5563 14.0769 16.7804C13.9225 16.0044 14.0017 15.2002 14.3045 14.4693C14.6072 13.7384 15.1199 13.1136 15.7777 12.6741ZM18 13C18.5342 13 19.0577 13.1426 19.5168 13.4117L15.7505 17.9849C15.6622 17.8848 15.5803 17.7786 15.5056 17.6667C15.176 17.1734 15 16.5933 15 16C15 15.2044 15.3161 14.4413 15.8787 13.8787C16.4413 13.3161 17.2044 13 18 13ZM16.852 18.7716C16.7405 18.7255 16.6323 18.6728 16.5279 18.614L20.2832 14.054C20.4857 14.2915 20.6509 14.5605 20.7716 14.8519C20.9987 15.4001 21.0581 16.0033 20.9424 16.5853C20.8266 17.1672 20.5409 17.7018 20.1213 18.1213C19.7018 18.5409 19.1672 18.8266 18.5853 18.9424C18.0033 19.0581 17.4001 18.9987 16.852 18.7716Z" fill="#00164E"/>
<path d="M6 12.5C6 12.2239 6.22386 12 6.5 12H9.5C9.77614 12 10 12.2239 10 12.5C10 12.7761 9.77614 13 9.5 13H6.5C6.22386 13 6 12.7761 6 12.5Z" fill="#00164E"/>
<path d="M4.40002 9C4.12388 9 3.90002 9.22386 3.90002 9.5C3.90002 9.77614 4.12388 10 4.40002 10H7.40002C7.67617 10 7.90002 9.77614 7.90002 9.5C7.90002 9.22386 7.67617 9 7.40002 9H4.40002Z" fill="#00164E"/>
</svg>
