<svg width="24" height="24" viewBox="0 0 24 24" fill="none" xmlns="http://www.w3.org/2000/svg">
<path fill-rule="evenodd" clip-rule="evenodd" d="M15.1938 4C17.8433 4 20 6.15601 20 8.80571V15.1943C20 17.844 17.8433 20 15.1938 20H8.80548C6.15591 20 4 17.844 4 15.1943V8.80571C4 6.15601 6.15591 4 8.80548 4H15.1938ZM15.1938 5.50497H8.80548C6.98588 5.50497 5.50566 6.98525 5.50566 8.80571V15.1943C5.50566 17.014 6.98588 18.495 8.80548 18.495H15.1938C17.0141 18.495 18.4951 17.014 18.4951 15.1943V8.80571C18.4951 6.98525 17.0141 5.50497 15.1938 5.50497ZM12.066 8.05978C14.2381 8.05978 16.006 9.82702 16.006 12C16.006 14.173 14.2381 15.9402 12.066 15.9402C9.89307 15.9402 8.12515 14.173 8.12515 12C8.12515 9.82702 9.89307 8.05978 12.066 8.05978ZM12.066 9.47604C10.6737 9.47604 9.54134 10.6084 9.54134 12C9.54134 13.3916 10.6737 14.524 12.066 14.524C13.4575 14.524 14.589 13.3916 14.589 12C14.589 10.6084 13.4575 9.47604 12.066 9.47604ZM16.2358 6.85643C16.7542 6.85643 17.1738 7.27683 17.1738 7.79443C17.1738 8.3128 16.7542 8.73243 16.2358 8.73243C15.7175 8.73243 15.2979 8.3128 15.2979 7.79443C15.2979 7.27683 15.7175 6.85643 16.2358 6.85643Z" fill="#00164E"/>
</svg>
