<svg width="24" height="24" viewBox="0 0 24 24" fill="none" xmlns="http://www.w3.org/2000/svg">
<path fill-rule="evenodd" clip-rule="evenodd" d="M4.5 20C3.67157 20 3 19.3284 3 18.5V7H6V7.5C6 7.77614 6.22386 8 6.5 8C6.77614 8 7 7.77614 7 7.5V7H12V7.5C12 7.77614 12.2239 8 12.5 8C12.7761 8 13 7.77614 13 7.5V7H16V11C16 11.2761 16.2239 11.5 16.5 11.5C16.7761 11.5 17 11.2761 17 11V6.5C17 6.22386 16.7761 6 16.5 6H13V4.5C13 3.67157 12.3284 3 11.5 3H7.5C6.67157 3 6 3.67157 6 4.5V6H2.5C2.22386 6 2 6.22386 2 6.5V18.5C2 19.8807 3.11929 21 4.5 21H13C13.2761 21 13.5 20.7761 13.5 20.5C13.5 20.2239 13.2761 20 13 20H4.5ZM7 4.5C7 4.22386 7.22386 4 7.5 4H11.5C11.7761 4 12 4.22386 12 4.5V6H7V4.5Z" fill="#00164E"/>
<path fill-rule="evenodd" clip-rule="evenodd" d="M15 13.5C15 13.2239 15.2239 13 15.5 13H21.5C21.7761 13 22 13.2239 22 13.5V18.5C22 19.8807 20.8807 21 19.5 21H17.5C16.4748 21 15.5938 20.383 15.208 19.5H14.5C13.6716 19.5 13 18.8284 13 18V16C13 15.1716 13.6716 14.5 14.5 14.5H15V13.5ZM14 16C14 15.7239 14.2239 15.5 14.5 15.5H15V18.5H14.5C14.2239 18.5 14 18.2761 14 18V16ZM17.5 20C16.6716 20 16 19.3284 16 18.5V14H21V18.5C21 19.3284 20.3284 20 19.5 20H17.5Z" fill="#00164E"/>
<path fill-rule="evenodd" clip-rule="evenodd" d="M7.55418 11.6789C8.84061 11.4404 10.1594 11.4404 11.4458 11.6789C11.6649 11.7195 11.8307 11.9002 11.8523 12.122L11.9812 13.4436C12.0633 14.214 11.8752 14.9895 11.4489 15.6353C11.0222 16.2818 10.3834 16.7578 9.64321 16.9791C9.54978 17.007 9.45022 17.007 9.35679 16.9791C8.6166 16.7578 7.97783 16.2818 7.55107 15.6353C7.12483 14.9895 6.93675 14.214 7.01881 13.4436L7.14771 12.122C7.16933 11.9002 7.3351 11.7195 7.55418 11.6789ZM10.9861 13.543L10.8943 12.601C9.96956 12.4663 9.03044 12.4663 8.10573 12.601L8.01389 13.543L8.01337 13.5478C7.95536 14.0886 8.08735 14.6324 8.38566 15.0844C8.65585 15.4937 9.0467 15.8039 9.5 15.9729C9.9533 15.8039 10.3442 15.4937 10.6143 15.0844C10.9127 14.6324 11.0446 14.0886 10.9866 13.5478L10.9861 13.543Z" fill="#00164E"/>
</svg>
