<svg width="24" height="24" viewBox="0 0 24 24" fill="none" xmlns="http://www.w3.org/2000/svg">
<path d="M11.5 3C13.433 3 15 4.567 15 6.5V6.87868L14 7.87868V6.5C14 5.11929 12.8807 4 11.5 4C10.1193 4 9 5.11929 9 6.5V12.8787L8.01832 13.8604C8.00621 13.7419 8 13.6217 8 13.5V6.5C8 4.567 9.567 3 11.5 3Z" fill="#00164E"/>
<path d="M7 13.5C7 13.9204 7.05764 14.3273 7.16544 14.7132L6.37599 15.5027C6.13325 14.8821 6 14.2066 6 13.5V13C6 12.7239 6.22386 12.5 6.5 12.5C6.77614 12.5 7 12.7239 7 13V13.5Z" fill="#00164E"/>
<path d="M8.21196 17.9094C9.00374 18.5007 9.96014 18.8839 11 18.9776V20H10.5C10.2239 20 10 20.2239 10 20.5C10 20.7761 10.2239 21 10.5 21H12.5C12.7761 21 13 20.7761 13 20.5C13 20.2239 12.7761 20 12.5 20H12V18.9776C14.8032 18.725 17 16.369 17 13.5V13C17 12.7239 16.7761 12.5 16.5 12.5C16.2239 12.5 16 12.7239 16 13V13.5C16 15.9853 13.9853 18 11.5 18C10.5437 18 9.65715 17.7017 8.92818 17.1931L8.21196 17.9094Z" fill="#00164E"/>
<path d="M14 12.1213L15 11.1213V13.5C15 15.433 13.433 17 11.5 17C10.8207 17 10.1866 16.8065 9.64979 16.4715L10.3837 15.7376C10.7197 15.9055 11.0988 16 11.5 16C12.8807 16 14 14.8807 14 13.5V12.1213Z" fill="#00164E"/>
<path d="M19.6464 3.64645C19.8417 3.45118 20.1583 3.45118 20.3536 3.64645C20.5488 3.84171 20.5488 4.15829 20.3536 4.35355L4.35355 20.3536C4.15829 20.5488 3.84171 20.5488 3.64645 20.3536C3.45118 20.1583 3.45118 19.8417 3.64645 19.6464L19.6464 3.64645Z" fill="#00164E"/>
</svg>
