<svg width="24" height="24" viewBox="0 0 24 24" fill="none" xmlns="http://www.w3.org/2000/svg">
<path fill-rule="evenodd" clip-rule="evenodd" d="M10.5 2.99902C10.9059 2.99902 11.3075 3.08262 11.6798 3.2446C12.0519 3.40653 12.3869 3.6436 12.6635 3.94053L18.2071 9.87893C18.7169 10.4264 19.0003 11.147 19 11.8951V12.8521C19 13.1283 18.7761 13.3521 18.5 13.3521C18.2239 13.3521 18 13.1283 18 12.8521V11.8946C18.0002 11.3997 17.8126 10.9228 17.4753 10.5605L11.9318 4.62208C11.7487 4.4255 11.5271 4.26873 11.2807 4.16154C11.0344 4.05434 10.7686 3.99902 10.5 3.99902C10.2314 3.99902 9.96559 4.05434 9.71926 4.16154C9.47293 4.26873 9.25093 4.42592 9.06785 4.6225L7.17949 6.64537C7.13695 6.72826 7.07193 6.79772 6.99248 6.84569L3.52445 10.5607C3.18717 10.923 2.99977 11.3999 3 11.8949V18.2662C3 18.4605 3.07721 18.6469 3.21466 18.7844C3.35211 18.9218 3.53854 18.999 3.73294 18.999H7.64763V13.8521C7.64763 13.4964 7.76461 13.1409 7.99325 12.8666C8.22411 12.5896 8.55886 12.411 8.93195 12.411H12.0692C12.4423 12.411 12.777 12.5896 13.0079 12.8666C13.2365 13.1409 13.3535 13.4964 13.3535 13.8521V18.999H14C14.2761 18.999 14.5 19.2229 14.5 19.499C14.5 19.7752 14.2761 19.999 14 19.999H3.73294C3.27335 19.999 2.83257 19.8165 2.50758 19.4915C2.18259 19.1665 2 18.7258 2 18.2662V11.8949C1.9997 11.1468 2.28345 10.426 2.79333 9.87851L3.41514 9.21241C3.41231 9.19087 3.41085 9.1689 3.41085 9.14659V4.64272C3.41085 4.37862 3.48305 4.10352 3.63907 3.88064C3.79629 3.65606 4.05483 3.4705 4.38143 3.4705H6.26379C6.59039 3.4705 6.84893 3.65606 7.00615 3.88064C7.16218 4.10352 7.23438 4.37862 7.23438 4.64272V5.12113L8.33671 3.94027C8.61333 3.64334 8.94812 3.40653 9.32023 3.2446C9.69246 3.08262 10.0941 2.99902 10.5 2.99902ZM6.19685 4.4705C6.21516 4.50484 6.23438 4.56466 6.23438 4.64272V6.19236L4.41085 8.14577V4.64272C4.41085 4.56466 4.43006 4.50484 4.44837 4.4705H6.19685ZM12.2397 13.5068C12.1764 13.4308 12.1121 13.411 12.0692 13.411H8.93195C8.88901 13.411 8.82477 13.4308 8.76145 13.5068C8.69592 13.5854 8.64763 13.7087 8.64763 13.8521V18.9988H12.3535V13.8521C12.3535 13.7087 12.3052 13.5854 12.2397 13.5068Z" fill="#00164E"/>
<path fill-rule="evenodd" clip-rule="evenodd" d="M15.0181 16.6996C15.0063 16.7422 15 16.787 15 16.8333V19.9448C15 20.6563 15.546 21.1762 16.1485 21.4886C16.776 21.814 17.6082 22.0004 18.5 22.0004C19.3918 22.0004 20.224 21.814 20.8515 21.4886C21.454 21.1762 22 20.6563 22 19.9448V16.833C22 16.7867 21.9937 16.7419 21.982 16.6994C21.9938 16.6163 22 16.5313 22 16.4444C22 15.6817 21.5235 15.0584 20.8933 14.6499C20.2581 14.2383 19.4106 14 18.5 14C17.5894 14 16.7419 14.2383 16.1067 14.6499C15.4765 15.0584 15 15.6817 15 16.4444C15 16.5314 15.0062 16.6164 15.0181 16.6996ZM21 18.1667C20.965 18.1914 20.9294 18.2156 20.8933 18.239C20.2581 18.6506 19.4106 18.8889 18.5 18.8889C17.5894 18.8889 16.7419 18.6506 16.1067 18.239C16.0706 18.2156 16.035 18.1914 16 18.1667V18.3885C16 18.5362 16.1256 18.794 16.6088 19.0446C17.0671 19.2822 17.7349 19.4441 18.5 19.4441C19.2651 19.4441 19.9329 19.2822 20.3912 19.0446C20.8744 18.794 21 18.5362 21 18.3885V18.1667ZM21 19.8503C20.9511 19.8791 20.9015 19.9064 20.8515 19.9323C20.224 20.2577 19.3918 20.4441 18.5 20.4441C17.6082 20.4441 16.776 20.2577 16.1485 19.9323C16.0985 19.9064 16.0489 19.8791 16 19.8503V19.9448C16 20.0925 16.1256 20.3503 16.6088 20.6009C17.0671 20.8385 17.7349 21.0004 18.5 21.0004C19.2651 21.0004 19.9329 20.8385 20.3912 20.6009C20.8744 20.3503 21 20.0925 21 19.9448V19.8503ZM16 16.4444C16 16.1333 16.1951 15.7844 16.6506 15.4891C17.1013 15.197 17.7537 15 18.5 15C19.2463 15 19.8987 15.197 20.3494 15.4891C20.8049 15.7844 21 16.1333 21 16.4444C21 16.7555 20.8049 17.1045 20.3494 17.3998C19.8987 17.6919 19.2463 17.8889 18.5 17.8889C17.7537 17.8889 17.1013 17.6919 16.6506 17.3998C16.1951 17.1045 16 16.7555 16 16.4444Z" fill="#00164E"/>
</svg>
