<svg width="24" height="24" viewBox="0 0 24 24" fill="none" xmlns="http://www.w3.org/2000/svg">
<path d="M7.68383 7.03504C7.78536 6.77824 8.07585 6.65238 8.33265 6.75392L10.1925 7.48931C10.4493 7.59085 10.5752 7.88133 10.4737 8.13813C10.3721 8.39493 10.0816 8.52079 9.82484 8.41926L7.96495 7.68386C7.70815 7.58233 7.58229 7.29184 7.68383 7.03504Z" fill="#00164E"/>
<path d="M16.3162 7.03504C16.2146 6.77824 15.9241 6.65238 15.6674 6.75392L13.8075 7.48931C13.5507 7.59085 13.4248 7.88133 13.5263 8.13813C13.6279 8.39493 13.9184 8.52079 14.1752 8.41926L16.035 7.68386C16.2918 7.58233 16.4177 7.29184 16.3162 7.03504Z" fill="#00164E"/>
<path d="M8 10C8 9.44772 8.44772 9 9 9C9.55228 9 10 9.44772 10 10V11C10 11.5523 9.55228 12 9 12C8.44772 12 8 11.5523 8 11V10Z" fill="#00164E"/>
<path d="M14 10C14 9.44772 14.4477 9 15 9C15.5523 9 16 9.44772 16 10V11C16 11.5523 15.5523 12 15 12C14.4477 12 14 11.5523 14 11V10Z" fill="#00164E"/>
<path d="M8.5 15C8.22386 15 8 15.2239 8 15.5C8 15.7761 8.22386 16 8.5 16H15.5C15.7761 16 16 15.7761 16 15.5C16 15.2239 15.7761 15 15.5 15H8.5Z" fill="#00164E"/>
<path fill-rule="evenodd" clip-rule="evenodd" d="M12 2C6.47715 2 2 6.47715 2 12C2 17.5228 6.47715 22 12 22C17.5228 22 22 17.5228 22 12C22 6.47715 17.5228 2 12 2ZM3 12C3 7.02944 7.02944 3 12 3C16.9706 3 21 7.02944 21 12C21 16.9706 16.9706 21 12 21C7.02944 21 3 16.9706 3 12Z" fill="#00164E"/>
</svg>
