<svg width="24" height="24" viewBox="0 0 24 24" fill="none" xmlns="http://www.w3.org/2000/svg">
<path d="M10.8389 12.2531L10.4853 11.8995C10.2901 11.7043 9.97349 11.7043 9.77823 11.8995C9.58297 12.0948 9.58297 12.4114 9.77823 12.6066L10.1318 12.9602C11.4986 14.327 13.7147 14.327 15.0815 12.9602L19.3242 8.71755C20.691 7.35071 20.691 5.13464 19.3242 3.7678C17.9573 2.40097 15.7413 2.40097 14.3744 3.7678L11.546 6.59623C11.3507 6.79149 11.3507 7.10807 11.546 7.30334C11.7413 7.4986 12.0578 7.4986 12.2531 7.30334L15.0815 4.47491C16.0578 3.4986 17.6408 3.4986 18.6171 4.47491C19.5934 5.45122 19.5934 7.03413 18.6171 8.01044L14.3744 12.2531C13.3981 13.2294 11.8152 13.2294 10.8389 12.2531Z" fill="#00164E"/>
<path d="M8.71755 10.8388C9.69386 9.86251 11.2768 9.86251 12.2531 10.8388L12.6066 11.1924C12.8019 11.3876 13.1185 11.3876 13.3137 11.1924C13.509 10.9971 13.509 10.6805 13.3137 10.4853L12.9602 10.1317C11.5934 8.76488 9.37728 8.76488 8.01044 10.1317L3.7678 14.3744C2.40097 15.7412 2.40097 17.9573 3.7678 19.3241C5.13464 20.6909 7.35071 20.6909 8.71755 19.3241L11.546 16.4957C11.7412 16.3004 11.7412 15.9838 11.546 15.7886C11.3507 15.5933 11.0341 15.5933 10.8389 15.7886L8.01044 18.617C7.03413 19.5933 5.45122 19.5933 4.47491 18.617C3.4986 17.6407 3.4986 16.0578 4.47491 15.0815L8.71755 10.8388Z" fill="#00164E"/>
</svg>
