<svg width="24" height="24" viewBox="0 0 24 24" fill="none" xmlns="http://www.w3.org/2000/svg">
<path fill-rule="evenodd" clip-rule="evenodd" d="M15 9C15 9.92237 14.5837 10.7475 13.9288 11.2978C14.5729 11.548 15.1622 11.9496 15.6508 12.4789C15.7877 12.6272 15.915 12.7837 16.0323 12.9471C16.2698 12.7086 16.5382 12.5106 16.8277 12.3584C16.3195 11.9008 16 11.2377 16 10.5C16 9.11929 17.1193 8 18.5 8C19.8807 8 21 9.11929 21 10.5C21 11.2377 20.6805 11.9008 20.1723 12.3584C20.4984 12.5299 20.7977 12.7594 21.0563 13.0395C21.6645 13.6984 22 14.5841 22 15.5V15.65C22 15.9957 21.8736 16.3345 21.6376 16.5902C21.4003 16.8472 21.0696 17 20.7154 17H16.8319C16.7543 17.1696 16.6506 17.3271 16.5227 17.4657C16.2119 17.8024 15.7813 18 15.3231 18H8.67692C8.21867 18 7.78814 17.8024 7.47731 17.4657C7.34942 17.3271 7.24573 17.1696 7.16808 17H3.28462C2.93041 17 2.59966 16.8472 2.36241 16.5902C2.1264 16.3345 2 15.9957 2 15.65V15.5C2 14.5841 2.33549 13.6984 2.94369 13.0395C3.20227 12.7594 3.50156 12.5299 3.82772 12.3584C3.31952 11.9008 3 11.2377 3 10.5C3 9.11929 4.11929 8 5.5 8C6.88071 8 8 9.11929 8 10.5C8 11.2377 7.68048 11.9008 7.17228 12.3584C7.46184 12.5106 7.73022 12.7086 7.96773 12.9471C8.08503 12.7837 8.21232 12.6272 8.34923 12.4789C8.83783 11.9496 9.42712 11.548 10.0712 11.2978C9.41626 10.7475 9 9.92237 9 9C9 7.34315 10.3431 6 12 6C13.6569 6 15 7.34315 15 9ZM12 7C10.8954 7 10 7.89543 10 9C10 10.1046 10.8954 11 12 11C13.1046 11 14 10.1046 14 9C14 7.89543 13.1046 7 12 7ZM14.916 13.1572C14.2271 12.4109 13.3017 12 12.3462 12H11.6538C10.6983 12 9.77292 12.4109 9.08403 13.1572C8.74316 13.5264 8.47455 13.9627 8.28998 14.4389C8.12424 14.8666 8.02626 15.3266 8.00459 15.7994C8.00154 15.866 8 15.9329 8 16V16.225C8 16.2475 8.00085 16.2698 8.00253 16.2919C8.00532 16.3285 8.01039 16.3647 8.01762 16.4001L8.01833 16.4036C8.04911 16.5514 8.11726 16.6847 8.21211 16.7874C8.34272 16.9289 8.51089 17 8.67692 17H15.3231C15.4891 17 15.6573 16.9289 15.7879 16.7874C15.8828 16.6846 15.9509 16.5514 15.9817 16.4036L15.9824 16.4001C15.9895 16.3651 15.9945 16.3295 15.9974 16.2934C15.9991 16.2708 16 16.248 16 16.225V16C16 15.9329 15.9985 15.866 15.9954 15.7994C15.9496 14.8001 15.563 13.8581 14.916 13.1572ZM5.5 9C4.67157 9 4 9.67157 4 10.5C4 11.3284 4.67157 12 5.5 12C6.32843 12 7 11.3284 7 10.5C7 9.67157 6.32843 9 5.5 9ZM16.9944 15.7543L17 16H20.7154C20.7774 16 20.8458 15.9737 20.9028 15.9119C20.9611 15.8488 21 15.7552 21 15.65V15.5C21 14.8246 20.752 14.1842 20.3215 13.7178C19.8923 13.2528 19.3191 13 18.7308 13H18.2692C17.6809 13 17.1077 13.2528 16.6785 13.7178C16.6352 13.7648 16.5937 13.8134 16.5541 13.8638C16.8135 14.4538 16.9643 15.0959 16.9944 15.7543ZM18.5 12C19.3284 12 20 11.3284 20 10.5C20 9.67157 19.3284 9 18.5 9C17.6716 9 17 9.67157 17 10.5C17 11.3284 17.6716 12 18.5 12ZM7.32151 13.7178C7.36483 13.7648 7.40631 13.8134 7.44589 13.8638C7.18655 14.4538 7.03575 15.0959 7.00562 15.7543C7.00188 15.836 7 15.9179 7 16H3.28462C3.22263 16 3.15424 15.9737 3.09721 15.9119C3.03893 15.8488 3 15.7552 3 15.65V15.5C3 14.8246 3.24803 14.1842 3.67849 13.7178C4.10771 13.2528 4.68089 13 5.26923 13H5.73077C6.31911 13 6.89229 13.2528 7.32151 13.7178Z" fill="#00164E"/>
</svg>
