<svg width="24" height="24" viewBox="0 0 24 24" fill="none" xmlns="http://www.w3.org/2000/svg">
<path fill-rule="evenodd" clip-rule="evenodd" d="M2 2.5C2 2.22386 2.22386 2 2.5 2H3.56292C4.2421 2.00396 4.90012 2.23676 5.4307 2.66079C5.95754 3.08183 6.32817 3.667 6.48376 4.32293L6.64501 4.87724L6.67153 5H21.5C21.7761 5 22 5.22386 22 5.5V10.5C22 10.5093 21.9997 10.5186 21.9992 10.5279C21.9601 11.2289 21.66 11.8898 21.1579 12.3806C20.664 12.8635 20.0098 13.1472 19.3206 13.1784L8.43034 14.9688L8.15137 15.7208L8.125 15.7634C8.04935 15.8855 8.00751 16.0255 8.00378 16.169C8.00005 16.3126 8.03456 16.4546 8.10378 16.5804C8.17299 16.7063 8.27442 16.8114 8.39766 16.8852C8.52026 16.9585 8.66006 16.9981 8.80288 17H20.5C20.7761 17 21 17.2239 21 17.5C21 17.7761 20.7761 18 20.5 18H8.79484C8.47393 17.9967 8.15967 17.9081 7.88427 17.7433C7.60887 17.5786 7.38222 17.3435 7.22756 17.0623C7.0729 16.7811 6.99578 16.4639 7.00412 16.1431C7.01199 15.8403 7.0957 15.5446 7.24721 15.283L7.6341 14.2401L7.19813 12.1749L5.67499 5.12276L5.51606 4.57647L5.51296 4.56309C5.41021 4.12056 5.16128 3.72559 4.8064 3.44197C4.45187 3.15864 4.01226 3.00296 3.55846 3H2.5C2.22386 3 2 2.77614 2 2.5ZM8.17607 11.966L8.59973 13.9276L19.1889 12.1866C19.2103 12.1831 19.2318 12.181 19.2535 12.1803C19.7055 12.1653 20.1355 11.9817 20.4589 11.6656C20.7791 11.3525 20.9718 10.9319 21 10.4852V6H6.91658L7.3388 8H18.5C18.7761 8 19 8.22386 19 8.5C19 8.77614 18.7761 9 18.5 9H7.54991L8.17607 11.966Z" fill="#00164E"/>
<path d="M8.5 22C9.32843 22 10 21.3284 10 20.5C10 19.6716 9.32843 19 8.5 19C7.67157 19 7 19.6716 7 20.5C7 21.3284 7.67157 22 8.5 22Z" fill="#00164E"/>
<path d="M19.5 22C20.3284 22 21 21.3284 21 20.5C21 19.6716 20.3284 19 19.5 19C18.6716 19 18 19.6716 18 20.5C18 21.3284 18.6716 22 19.5 22Z" fill="#00164E"/>
</svg>
