<svg width="24" height="24" viewBox="0 0 24 24" fill="none" xmlns="http://www.w3.org/2000/svg">
<path d="M8 9C8 8.44772 8.44772 8 9 8C9.55228 8 10 8.44772 10 9V10C10 10.5523 9.55228 11 9 11C8.44772 11 8 10.5523 8 10V9Z" fill="#00164E"/>
<path d="M15 8C14.4477 8 14 8.44772 14 9V10C14 10.5523 14.4477 11 15 11C15.5523 11 16 10.5523 16 10V9C16 8.44772 15.5523 8 15 8Z" fill="#00164E"/>
<path d="M17.5 14C17.5 13.7239 17.2761 13.5 17 13.5C16.7239 13.5 16.5 13.7239 16.5 14C16.5 15.8346 14.5952 17.5 12 17.5C11.5183 17.5 11.0553 17.4409 10.6218 17.332C10.354 17.2647 10.0824 17.4272 10.0151 17.695C9.94778 17.9629 10.1103 18.2345 10.3782 18.3018C10.8917 18.4308 11.4365 18.5 12 18.5C14.9277 18.5 17.5 16.5836 17.5 14Z" fill="#00164E"/>
<path fill-rule="evenodd" clip-rule="evenodd" d="M12 2C6.47715 2 2 6.47715 2 12C2 17.5228 6.47715 22 12 22C17.5228 22 22 17.5228 22 12C22 6.47715 17.5228 2 12 2ZM3 12C3 7.02944 7.02944 3 12 3C16.9706 3 21 7.02944 21 12C21 16.9706 16.9706 21 12 21C7.02944 21 3 16.9706 3 12Z" fill="#00164E"/>
</svg>
