<svg width="24" height="24" viewBox="0 0 24 24" fill="none" xmlns="http://www.w3.org/2000/svg">
<path fill-rule="evenodd" clip-rule="evenodd" d="M14.8951 8.32576C15.5695 7.77564 16 6.93811 16 6C16 4.34315 14.6569 3 13 3C11.3432 3 10 4.34315 10 6C10 6.90729 10.4028 7.7205 11.0393 8.27062C10.3672 8.51838 9.75215 8.92993 9.24543 9.47888C8.62393 10.1522 8.20099 10.993 8.01076 11.897C7.9539 12.1673 8.12687 12.4324 8.39709 12.4893C8.66732 12.5461 8.93247 12.3732 8.98933 12.103C9.14409 11.3674 9.48655 10.692 9.98023 10.1572C10.6691 9.41086 11.5945 9 12.55 9H13.2424C14.1979 9 15.1233 9.41086 15.8122 10.1572C16.2036 10.5813 16.5001 11.0938 16.6833 11.6551C16.769 11.9176 17.0513 12.061 17.3138 11.9753C17.5763 11.8896 17.7196 11.6074 17.634 11.3449C17.408 10.6525 17.04 10.013 16.547 9.47888C16.0762 8.96884 15.5118 8.57741 14.8951 8.32576ZM11 6C11 4.89543 11.8955 4 13 4C14.1046 4 15 4.89543 15 6C15 7.10457 14.1046 8 13 8C11.8955 8 11 7.10457 11 6Z" fill="#00164E"/>
<path d="M7.6061 18.4324C6.75215 18.4839 5.94662 18.8463 5.3417 19.4512L4.14649 20.6464C3.95123 20.8417 3.95123 21.1583 4.14649 21.3536C4.34175 21.5488 4.65834 21.5488 4.8536 21.3536L6.04881 20.1583C6.4809 19.7262 7.05628 19.4674 7.66624 19.4306L13.5653 19.0752C14.493 19.0193 15.3806 18.6776 16.1062 18.097L21.387 13.8714C22.2632 13.1702 22.2422 11.8307 21.3444 11.1574C20.7251 10.6929 19.8714 10.7003 19.2603 11.1757L15.7892 13.8754C15.5523 13.3588 15.0306 13 14.425 13H8.42876C7.91716 13 7.41788 13.157 6.9983 13.4497L3.21395 16.0899C2.98748 16.2479 2.93198 16.5596 3.08998 16.7861C3.24798 17.0126 3.55966 17.0681 3.78613 16.9101L7.57049 14.2698C7.82223 14.0942 8.1218 14 8.42876 14H14.425C14.7012 14 14.925 14.2239 14.925 14.5C14.925 14.7761 14.7012 15 14.425 15H10.8C10.5239 15 10.3 15.2239 10.3 15.5C10.3 15.7761 10.5239 16 10.8 16H14.425C15.0788 16 15.6349 15.5818 15.8403 14.9982C15.9345 14.9909 16.0277 14.9568 16.1079 14.8944L19.8742 11.965C20.1294 11.7665 20.4858 11.7634 20.7444 11.9574C21.1193 12.2385 21.1281 12.7978 20.7622 13.0906L15.4814 17.3162C14.917 17.7678 14.2267 18.0335 13.5052 18.077L7.6061 18.4324Z" fill="#00164E"/>
</svg>
