<svg width="24" height="24" viewBox="0 0 24 24" fill="none" xmlns="http://www.w3.org/2000/svg">
<path fill-rule="evenodd" clip-rule="evenodd" d="M6.81872 5.0003C6.67399 4.99633 6.53089 5.03189 6.40479 5.10319C6.27869 5.17449 6.17433 5.27885 6.10296 5.4051C6.03158 5.53136 5.99591 5.67471 5.9998 5.81977L6.00016 5.83316L5.99998 18.1975L5.99998 18.1991C5.99953 18.3395 6.03608 18.4776 6.10592 18.5993C6.17577 18.721 6.27642 18.8221 6.3977 18.8925C6.51898 18.9628 6.65661 18.9999 6.79673 19C6.93585 19.0001 7.07257 18.9638 7.19333 18.8946L17.5792 12.7044L17.8352 13.1339L17.5911 12.6975C17.7122 12.6298 17.8137 12.5315 17.8853 12.4124C17.9569 12.2933 17.9962 12.1575 17.9993 12.0184C18.0024 11.8794 17.9692 11.742 17.903 11.6198C17.8373 11.4987 17.7415 11.3968 17.625 11.3238L7.23998 5.13409L7.22642 5.12571C7.1044 5.04761 6.96345 5.00426 6.81872 5.0003ZM18.0858 13.5666L7.69623 19.759C7.42256 19.9171 7.112 20.0003 6.79593 20C6.47986 19.9997 6.16947 19.9161 5.89604 19.7575C5.62261 19.599 5.39584 19.3711 5.23854 19.0969C5.08139 18.823 4.99912 18.5125 4.99998 18.1967C4.99998 18.197 4.99998 18.1965 4.99998 18.1967V5.83932C5.00003 5.84173 5.00009 5.84414 5.00016 5.84656L5.49998 5.83316H4.99998V5.83932C4.9926 5.51528 5.07289 5.1952 5.23243 4.91298C5.39317 4.62865 5.6283 4.39346 5.91261 4.23271C6.19691 4.07195 6.51964 3.99173 6.84611 4.00067C7.16972 4.00954 7.48485 4.10568 7.75825 4.27885L18.1485 10.4717C18.4146 10.6365 18.6329 10.8681 18.7821 11.1433C18.9313 11.4184 19.006 11.7278 18.9991 12.0407C18.9921 12.3537 18.9036 12.6594 18.7423 12.9277C18.5823 13.1938 18.3561 13.4139 18.0858 13.5666Z" fill="#00164E"/>
</svg>
