<svg width="24" height="24" viewBox="0 0 24 24" fill="none" xmlns="http://www.w3.org/2000/svg">
<path fill-rule="evenodd" clip-rule="evenodd" d="M12 6.5C11.1716 6.5 10.5 7.17157 10.5 8C10.5 8.82843 11.1716 9.5 12 9.5C12.8284 9.5 13.5 8.82843 13.5 8C13.5 7.17157 12.8284 6.5 12 6.5ZM11.5 8C11.5 7.72386 11.7239 7.5 12 7.5C12.2761 7.5 12.5 7.72386 12.5 8C12.5 8.27614 12.2761 8.5 12 8.5C11.7239 8.5 11.5 8.27614 11.5 8Z" fill="#00164E"/>
<path fill-rule="evenodd" clip-rule="evenodd" d="M5.5 11C5.5 10.1716 6.17157 9.5 7 9.5C7.82843 9.5 8.5 10.1716 8.5 11C8.5 11.8284 7.82843 12.5 7 12.5C6.17157 12.5 5.5 11.8284 5.5 11ZM7 10.5C6.72386 10.5 6.5 10.7239 6.5 11C6.5 11.2761 6.72386 11.5 7 11.5C7.27614 11.5 7.5 11.2761 7.5 11C7.5 10.7239 7.27614 10.5 7 10.5Z" fill="#00164E"/>
<path fill-rule="evenodd" clip-rule="evenodd" d="M11.5 13.5C10.3954 13.5 9.5 14.3954 9.5 15.5C9.5 16.6046 10.3954 17.5 11.5 17.5C12.6046 17.5 13.5 16.6046 13.5 15.5C13.5 14.3954 12.6046 13.5 11.5 13.5ZM10.5 15.5C10.5 14.9477 10.9477 14.5 11.5 14.5C12.0523 14.5 12.5 14.9477 12.5 15.5C12.5 16.0523 12.0523 16.5 11.5 16.5C10.9477 16.5 10.5 16.0523 10.5 15.5Z" fill="#00164E"/>
<path fill-rule="evenodd" clip-rule="evenodd" d="M3 12C3 7.02944 7.02944 3 12 3C13.3395 3 14.6119 3.29294 15.7555 3.81872C15.8905 3.88078 15.9909 3.99965 16.0295 4.14311C16.0681 4.28657 16.0409 4.43976 15.9552 4.56117C15.6684 4.96792 15.5 5.46355 15.5 6C15.5 7.15218 16.2799 8.1235 17.3414 8.41248C17.4787 8.44985 17.5936 8.54397 17.6573 8.67125C17.7209 8.79852 17.7273 8.94689 17.6749 9.07919C17.5622 9.36349 17.5 9.67388 17.5 10C17.5 11.3807 18.6193 12.5 20 12.5C20.1267 12.5 20.2509 12.4906 20.3719 12.4726C20.5256 12.4497 20.6811 12.4995 20.7929 12.6074C20.9046 12.7153 20.9599 12.8691 20.9424 13.0234C20.434 17.5123 16.6247 21 12 21C7.02944 21 3 16.9706 3 12ZM12 4C7.58172 4 4 7.58172 4 12C4 16.4183 7.58172 20 12 20C15.9064 20 19.1594 17.1997 19.8602 13.4973C17.992 13.4239 16.5 11.8862 16.5 10C16.5 9.72677 16.5314 9.46044 16.5909 9.20461C15.3599 8.66252 14.5 7.43218 14.5 6C14.5 5.46951 14.6183 4.9659 14.83 4.51481C13.9507 4.18219 12.9971 4 12 4Z" fill="#00164E"/>
<path d="M20 5C20 5.55228 19.5523 6 19 6C18.4477 6 18 5.55228 18 5C18 4.44772 18.4477 4 19 4C19.5523 4 20 4.44772 20 5Z" fill="#00164E"/>
<path d="M20 8.5C20 8.77614 19.7761 9 19.5 9C19.2239 9 19 8.77614 19 8.5C19 8.22386 19.2239 8 19.5 8C19.7761 8 20 8.22386 20 8.5Z" fill="#00164E"/>
</svg>
