<svg width="24" height="24" viewBox="0 0 24 24" fill="none" xmlns="http://www.w3.org/2000/svg">
<path fill-rule="evenodd" clip-rule="evenodd" d="M12.0002 5C9.23882 5 7.00024 7.23858 7.00024 10C7.00024 12.7614 9.23882 15 12.0002 15C14.7617 15 17.0002 12.7614 17.0002 10C17.0002 7.23858 14.7617 5 12.0002 5ZM8.00024 10C8.00024 7.79086 9.79111 6 12.0002 6C14.2094 6 16.0002 7.79086 16.0002 10C16.0002 12.2091 14.2094 14 12.0002 14C9.79111 14 8.00024 12.2091 8.00024 10Z" fill="#00164E"/>
<path fill-rule="evenodd" clip-rule="evenodd" d="M12.0002 1.97925C10.9578 1.97925 9.92679 2.19656 8.97304 2.61731C8.02083 3.03738 7.1665 3.65103 6.46436 4.41919L6.27771 4.61563L6.27478 4.61877C4.80487 6.19289 3.9873 8.26631 3.9873 10.42C3.9873 12.5737 4.80486 14.6472 6.27477 16.2213L11.5735 21.8205L11.5802 21.8271C11.6924 21.937 11.8431 21.9986 12.0002 21.9986C12.1573 21.9986 12.3081 21.937 12.4202 21.8271L12.4269 21.8205L17.7234 16.2237L17.7257 16.2213C19.1956 14.6472 20.0131 12.5737 20.0131 10.42C20.0131 8.26631 19.1956 6.19288 17.7257 4.61876L17.5361 4.41919C16.8339 3.65103 15.9796 3.03738 15.0274 2.61731C14.0737 2.19656 13.0427 1.97925 12.0002 1.97925ZM9.37666 3.53224C10.2032 3.16758 11.0968 2.97925 12.0002 2.97925C12.9037 2.97925 13.7972 3.16758 14.6238 3.53224C15.4504 3.89689 16.1918 4.42992 16.8009 5.09718L16.9962 5.3028C18.2923 6.69154 19.0131 8.52038 19.0131 10.42C19.0131 12.3199 18.2921 14.1489 16.9958 15.5377L16.9948 15.5388L12.0002 20.8166L7.00566 15.5388L7.0046 15.5376C5.70829 14.1488 4.9873 12.3198 4.9873 10.42C4.9873 8.52039 5.70815 6.69156 7.00421 5.30282L7.19279 5.10447L7.19951 5.09711C7.80859 4.42985 8.55008 3.89689 9.37666 3.53224Z" fill="#00164E"/>
</svg>
