<svg width="24" height="24" viewBox="0 0 24 24" fill="none" xmlns="http://www.w3.org/2000/svg">
<path d="M12.5 7.5C12.5 7.22386 12.2761 7 12 7C11.7239 7 11.5 7.22386 11.5 7.5V12C11.5 12.1326 11.5527 12.2598 11.6464 12.3536L16.1464 16.8536C16.3417 17.0488 16.6583 17.0488 16.8536 16.8536C17.0488 16.6583 17.0488 16.3417 16.8536 16.1464L12.5 11.7929V7.5Z" fill="#00164E"/>
<path fill-rule="evenodd" clip-rule="evenodd" d="M12 2C6.47715 2 2 6.47715 2 12C2 17.5228 6.47715 22 12 22C17.5228 22 22 17.5228 22 12C22 6.47715 17.5228 2 12 2ZM3.01365 11.5C3.26403 6.92752 6.92752 3.26403 11.5 3.01365V3.99997C11.5 4.27611 11.7239 4.49997 12 4.49997C12.2761 4.49997 12.5 4.27611 12.5 3.99997V3.01365C17.0725 3.26403 20.736 6.92752 20.9863 11.5H20C19.7239 11.5 19.5 11.7239 19.5 12C19.5 12.2761 19.7239 12.5 20 12.5H20.9863C20.736 17.0725 17.0725 20.736 12.5 20.9863V20C12.5 19.7239 12.2761 19.5 12 19.5C11.7239 19.5 11.5 19.7239 11.5 20V20.9863C6.92752 20.736 3.26403 17.0725 3.01365 12.5H4C4.27614 12.5 4.5 12.2761 4.5 12C4.5 11.7239 4.27614 11.5 4 11.5H3.01365Z" fill="#00164E"/>
</svg>
