<svg width="24" height="24" viewBox="0 0 24 24" fill="none" xmlns="http://www.w3.org/2000/svg">
<path fill-rule="evenodd" clip-rule="evenodd" d="M6.66571 6.59897L9.24222 5.95484C9.31432 6.0873 9.40096 6.21071 9.5 6.32291V7.64494C8.94727 7.80944 8.45176 8.10681 8.05051 8.5L5.25009 8.5C5.02204 8.19639 4.65896 8 4.25 8C3.55964 8 3 8.55964 3 9.25V13.25C3 13.9404 3.55964 14.5 4.25 14.5C4.81975 14.5 5.30047 14.1188 5.45105 13.5976H7.69791C8.33634 14.4491 9.35383 15 10.5 15H11C12.1462 15 13.1637 14.4491 13.8021 13.5976H14.8403C15.1375 13.5976 15.3722 13.8358 15.3722 14.122V14.36C15.1424 14.5867 15 14.9017 15 15.25C15 15.9404 15.5596 16.5 16.25 16.5H20.25C20.9404 16.5 21.5 15.9404 21.5 15.25C21.5 14.645 21.0701 14.1403 20.4992 14.0248C20.447 10.9614 17.93 8.5 14.8403 8.5H13.4495C13.1736 8.22961 12.853 8.00453 12.5 7.83682V6.32291C12.599 6.21071 12.6857 6.0873 12.7578 5.95484L15.3343 6.59897C16.4344 6.87399 17.5 6.04196 17.5 4.90803C17.5 3.85963 16.5811 3.04847 15.5408 3.17851L12.3995 3.57118C12.0388 3.21785 11.5448 3 11 3C10.4552 3 9.96124 3.21785 9.60054 3.57118L6.45917 3.17851C5.41887 3.04847 4.5 3.85963 4.5 4.90803C4.5 6.04196 5.56564 6.87399 6.66571 6.59897ZM10 5C10 4.44772 10.4477 4 11 4C11.5523 4 12 4.44772 12 5C12 5.55228 11.5523 6 11 6C10.4477 6 10 5.55228 10 5ZM11 7.5C11.1698 7.5 11.3367 7.51209 11.5 7.53545V6.93699C11.3402 6.97812 11.1726 7 11 7C10.8274 7 10.6598 6.97812 10.5 6.93699V7.5H11ZM14.8403 9.5C17.376 9.5 19.4332 11.507 19.4984 14H16.3674C16.3049 13.2122 15.642 12.5976 14.8403 12.5976H13.2468C13.2313 12.6293 13.2151 12.6607 13.1983 12.6917C12.9987 13.0589 12.7098 13.3706 12.3608 13.5976C11.9692 13.8521 11.5019 14 11 14H10.5C9.99814 14 9.53081 13.8521 9.13923 13.5976C8.79015 13.3706 8.50126 13.0589 8.30174 12.6917C8.28491 12.6607 8.26872 12.6293 8.25318 12.5976H5.5V9.5H8.49982C8.95592 8.89278 9.68209 8.5 10.5 8.5H11C11.8179 8.5 12.5441 8.89278 13.0002 9.5H14.8403ZM20.251 15C20.3886 15.0005 20.5 15.1123 20.5 15.25C20.5 15.3881 20.3881 15.5 20.25 15.5H16.25C16.1119 15.5 16 15.3881 16 15.25C16 15.1123 16.1114 15.0005 16.249 15H20.251ZM4.25 9C4.38807 9 4.5 9.11193 4.5 9.25L4.5 13.25C4.5 13.3881 4.38807 13.5 4.25 13.5C4.11193 13.5 4 13.3881 4 13.25V9.25C4 9.11193 4.11193 9 4.25 9ZM15.5768 5.62882L12.9999 4.9846C12.9987 4.82149 12.978 4.66301 12.9399 4.51141L15.6649 4.17079C16.1083 4.11536 16.5 4.46113 16.5 4.90803C16.5 5.39139 16.0458 5.74606 15.5768 5.62882ZM6.33513 4.17079L9.06011 4.51141C9.02205 4.66301 9.00129 4.82149 9.00006 4.9846L6.42318 5.62882C5.95425 5.74606 5.5 5.39139 5.5 4.90803C5.5 4.46113 5.89168 4.11536 6.33513 4.17079Z" fill="#00164E"/>
<path fill-rule="evenodd" clip-rule="evenodd" d="M18.2963 17.0972C18.12 16.9676 17.88 16.9676 17.7037 17.0972L17.7026 17.0981L17.7009 17.0993L17.696 17.103L17.6798 17.1152C17.6664 17.1255 17.6477 17.14 17.6245 17.1584C17.5781 17.1952 17.5135 17.2482 17.4367 17.3153C17.2838 17.4488 17.079 17.6417 16.8728 17.8787C16.4776 18.3329 16 19.0367 16 19.8448C16 20.9876 16.8503 22 18 22C19.1497 22 20 20.9876 20 19.8448C20 19.0367 19.5224 18.3329 19.1272 17.8787C18.921 17.6417 18.7162 17.4488 18.5633 17.3153C18.4865 17.2482 18.4219 17.1952 18.3755 17.1584C18.3523 17.14 18.3336 17.1255 18.3202 17.1152L18.304 17.103L18.2991 17.0993L18.2974 17.0981L18.2963 17.0972ZM17.6272 18.5351C17.7572 18.3856 17.8881 18.256 18 18.1531C18.1119 18.256 18.2428 18.3856 18.3728 18.5351C18.7276 18.9429 19 19.4115 19 19.8448C19 20.5303 18.5071 21 18 21C17.4929 21 17 20.5303 17 19.8448C17 19.4115 17.2724 18.9429 17.6272 18.5351Z" fill="#00164E"/>
</svg>
