<svg width="24" height="24" viewBox="0 0 24 24" fill="none" xmlns="http://www.w3.org/2000/svg">
<path fill-rule="evenodd" clip-rule="evenodd" d="M2 6.5C2 5.11929 3.11929 4 4.5 4H18.5C19.8807 4 21 5.11929 21 6.5V12C21 12.2761 20.7761 12.5 20.5 12.5C20.2239 12.5 20 12.2761 20 12V11H3V14.5C3 15.3284 3.67157 16 4.5 16H12C12.2761 16 12.5 16.2239 12.5 16.5C12.5 16.7761 12.2761 17 12 17H4.5C3.11929 17 2 15.8807 2 14.5V6.5ZM4.5 5C3.67157 5 3 5.67157 3 6.5V8H20V6.5C20 5.67157 19.3284 5 18.5 5H4.5Z" fill="#00164E"/>
<path d="M4.5 13C4.5 12.7239 4.72386 12.5 5 12.5H9C9.27614 12.5 9.5 12.7239 9.5 13C9.5 13.2761 9.27614 13.5 9 13.5H5C4.72386 13.5 4.5 13.2761 4.5 13Z" fill="#00164E"/>
<path fill-rule="evenodd" clip-rule="evenodd" d="M17.7495 15C16.3551 15 15.2062 16.1092 15.2062 17.5C15.2062 18.8908 16.3551 20 17.7495 20C19.144 20 20.2929 18.8908 20.2929 17.5C20.2929 16.1092 19.144 15 17.7495 15ZM16.2062 17.5C16.2062 16.6816 16.887 16 17.7495 16C18.612 16 19.2929 16.6816 19.2929 17.5C19.2929 18.3184 18.612 19 17.7495 19C16.887 19 16.2062 18.3184 16.2062 17.5Z" fill="#00164E"/>
<path fill-rule="evenodd" clip-rule="evenodd" d="M16.232 13C16.232 12.4477 16.6797 12 17.232 12H18.2753C18.8276 12 19.2753 12.4477 19.2753 13V13.2091C19.2753 13.5587 19.4958 13.8668 19.7995 14.04C20.0966 14.2095 20.4603 14.2416 20.7581 14.0732L20.9774 13.9493C21.4582 13.6776 22.0754 13.843 22.356 14.3187L22.8696 15.1894C23.1502 15.6651 22.9879 16.271 22.5071 16.5427L22.2736 16.6746C21.9824 16.8392 21.8295 17.1655 21.8295 17.5C21.8295 17.8345 21.9824 18.1608 22.2736 18.3253L22.5071 18.4573C22.9879 18.729 23.1502 19.3349 22.8696 19.8106L22.356 20.6813C22.0755 21.157 21.4582 21.3224 20.9774 21.0507L20.7581 20.9267C20.4603 20.7584 20.0966 20.7905 19.7995 20.96C19.4958 21.1332 19.2753 21.4413 19.2753 21.7909V22C19.2753 22.5523 18.8276 23 18.2753 23H17.232C16.6797 23 16.232 22.5523 16.232 22V21.7909C16.232 21.4413 16.0115 21.1332 15.7078 20.96C15.4107 20.7905 15.0471 20.7584 14.7492 20.9268L14.5299 21.0507C14.0491 21.3224 13.4318 21.1571 13.1512 20.6814L12.6376 19.8106C12.357 19.335 12.5194 18.7291 13.0002 18.4573L13.2337 18.3254C13.5249 18.1608 13.6779 17.8345 13.6779 17.5C13.6779 17.1655 13.5249 16.8392 13.2337 16.6746L13.0002 16.5426C12.5194 16.2709 12.3571 15.665 12.6376 15.1893L13.1512 14.3186C13.4318 13.8429 14.0491 13.6776 14.5299 13.9493L14.7493 14.0732C15.0471 14.2415 15.4107 14.2095 15.7078 14.04C16.0115 13.8668 16.232 13.5588 16.232 13.2091V13ZM16.2034 14.9086C16.7449 14.5997 17.232 13.9957 17.232 13.2091V13H18.2753V13.2091C18.2753 13.9957 18.7624 14.5997 19.304 14.9086C19.8414 15.2152 20.5852 15.3196 21.2501 14.9439L21.4694 14.8199L21.473 14.8187C21.473 14.8187 21.4785 14.8184 21.483 14.8197C21.4875 14.8209 21.4922 14.8238 21.4922 14.8238L21.4947 14.8267L21.9988 15.6813L21.7817 15.804C21.1124 16.1822 20.8295 16.8852 20.8295 17.5C20.8295 18.1148 21.1124 18.8178 21.7816 19.1959L21.9988 19.3187L21.4947 20.1733L21.4922 20.1762C21.4922 20.1762 21.4906 20.1772 21.4883 20.1783L21.483 20.1803C21.4811 20.1809 21.4772 20.1812 21.4772 20.1812C21.4748 20.1814 21.473 20.1813 21.473 20.1813L21.4714 20.181L21.4694 20.1801L21.2501 20.0561C20.5852 19.6804 19.8414 19.7848 19.304 20.0914C18.7625 20.4003 18.2753 21.0043 18.2753 21.7909V22H17.232V21.7909C17.232 21.0043 16.7449 20.4003 16.2034 20.0914C15.6659 19.7848 14.9221 19.6804 14.2573 20.0561L14.0379 20.1801L14.0343 20.1814C14.0343 20.1814 14.0321 20.1815 14.0295 20.1812L14.0242 20.1804L14.0225 20.1799L14.0197 20.1787C14.0171 20.1775 14.0151 20.1762 14.0151 20.1762L14.0126 20.1733L13.5085 19.3187L13.7257 19.196C14.3949 18.8178 14.6779 18.1148 14.6779 17.5C14.6779 16.8852 14.3949 16.1822 13.7256 15.804L13.5085 15.6813L14.0126 14.8267L14.0151 14.8238C14.0151 14.8238 14.0187 14.8215 14.0226 14.8201L14.0243 14.8196C14.0288 14.8184 14.0343 14.8186 14.0343 14.8186L14.0379 14.8199L14.2573 14.9438C14.9221 15.3196 15.6659 15.2152 16.2034 14.9086Z" fill="#00164E"/>
</svg>
