<svg width="24" height="24" viewBox="0 0 24 24" fill="none" xmlns="http://www.w3.org/2000/svg">
<path d="M7.5 6C7.22386 6 7 6.22386 7 6.5C7 6.77614 7.22386 7 7.5 7H11.57C11.8461 7 12.07 6.77614 12.07 6.5C12.07 6.22386 11.8461 6 11.57 6H7.5Z" fill="#00164E"/>
<path d="M7.5 8C7.22386 8 7 8.22386 7 8.5C7 8.77614 7.22386 9 7.5 9H11.57C11.8461 9 12.07 8.77614 12.07 8.5C12.07 8.22386 11.8461 8 11.57 8H7.5Z" fill="#00164E"/>
<path d="M7.5 10C7.22386 10 7 10.2239 7 10.5C7 10.7761 7.22386 11 7.5 11H16.5C16.7761 11 17 10.7761 17 10.5C17 10.2239 16.7761 10 16.5 10H7.5Z" fill="#00164E"/>
<path fill-rule="evenodd" clip-rule="evenodd" d="M7.5 13C7.22386 13 7 13.2239 7 13.5V18.5C7 18.7761 7.22386 19 7.5 19H16.5C16.7761 19 17 18.7761 17 18.5V13.5C17 13.2239 16.7761 13 16.5 13H7.5ZM8 18V14H16V18H8Z" fill="#00164E"/>
<path fill-rule="evenodd" clip-rule="evenodd" d="M19 6.91421C19 6.51639 18.842 6.13486 18.5607 5.85355L15.1464 2.43934C14.8651 2.15804 14.4836 2 14.0858 2H6.5C5.67157 2 5 2.67157 5 3.5V20.5C5 21.3284 5.67157 22 6.5 22H17.5C18.3284 22 19 21.3284 19 20.5V6.91421ZM6.5 3C6.22386 3 6 3.22386 6 3.5V20.5C6 20.7761 6.22386 21 6.5 21H17.5C17.7761 21 18 20.7761 18 20.5V7H14.7C14.3134 7 14 6.6866 14 6.3V3H6.5ZM15 3.70711L17.2929 6H15V3.70711Z" fill="#00164E"/>
</svg>
