<svg width="24" height="24" viewBox="0 0 24 24" fill="none" xmlns="http://www.w3.org/2000/svg">
<path fill-rule="evenodd" clip-rule="evenodd" d="M6.5 3C6.77614 3 7 3.22386 7 3.5V4H10.5V3.5C10.5 3.22386 10.7239 3 11 3C11.2761 3 11.5 3.22386 11.5 3.5V4H15V3.5C15 3.22386 15.2239 3 15.5 3C15.7761 3 16 3.22386 16 3.5V4H18.5C18.8978 4 19.2794 4.15803 19.5607 4.43934C19.842 4.72065 20 5.10218 20 5.5V9.32812C20.0196 9.38172 20.0303 9.43961 20.0303 9.5V12C20.0303 12.2761 19.8065 12.5 19.5303 12.5C19.2542 12.5 19.0303 12.2761 19.0303 12V10H3.00032V17.9079C2.99168 18.4516 3.19824 18.9766 3.57508 19.3685C3.95066 19.7591 4.46495 19.9859 5.00649 20H11C11.2761 20 11.5 20.2239 11.5 20.5C11.5 20.7761 11.2761 21 11 21H4.98867C4.18125 20.9812 3.41403 20.6438 2.85425 20.0616C2.29543 19.4804 1.9886 18.7023 2.00032 17.8962L2 5.5C2 5.10218 2.15804 4.72064 2.43934 4.43934C2.72064 4.15804 3.10218 4 3.5 4H6V3.5C6 3.22386 6.22386 3 6.5 3ZM3.14645 5.14645C3.05268 5.24021 3 5.36739 3 5.5V9H19V5.5C19 5.36739 18.9473 5.24021 18.8536 5.14645C18.7598 5.05268 18.6326 5 18.5 5H16V6.5C16 6.77614 15.7761 7 15.5 7C15.2239 7 15 6.77614 15 6.5V5H11.5V6.5C11.5 6.77614 11.2761 7 11 7C10.7239 7 10.5 6.77614 10.5 6.5V5H7V6.5C7 6.77614 6.77614 7 6.5 7C6.22386 7 6 6.77614 6 6.5V5H3.5C3.36739 5 3.24021 5.05268 3.14645 5.14645Z" fill="#00164E"/>
<path d="M13.3184 21.7367C13.3198 22.0128 13.5448 22.2355 13.8209 22.2342C14.0539 22.233 14.2489 22.0726 14.3033 21.8567C14.7468 22.1652 15.2425 22.3969 15.7698 22.5386C16.6759 22.7822 17.6341 22.7494 18.5214 22.4445C19.4088 22.1395 20.1848 21.5763 20.7502 20.8271C21.3155 20.0778 21.6444 19.1768 21.6948 18.2393L21.6949 18.2364C21.7125 17.8678 21.6885 17.4984 21.6234 17.1351C21.5746 16.8633 21.3148 16.6825 21.043 16.7313C20.7712 16.78 20.5903 17.0399 20.6391 17.3117C20.6909 17.6005 20.71 17.8942 20.6961 18.1872C20.6562 18.9254 20.3971 19.6349 19.952 20.2247C19.5066 20.815 18.8952 21.2586 18.1964 21.4988C17.4976 21.7389 16.743 21.7648 16.0295 21.5729C15.6898 21.4816 15.3668 21.343 15.0693 21.1625C15.2097 21.0734 15.3026 20.9162 15.3017 20.7376C15.3003 20.4615 15.0753 20.2387 14.7992 20.2401L13.811 20.2451C13.5354 20.2464 13.313 20.4705 13.3135 20.7459L13.3184 21.7367Z" fill="#00164E"/>
<path d="M20.6825 14.2632C20.6811 13.9871 20.4561 13.7644 20.18 13.7658C19.947 13.7669 19.752 13.9273 19.6976 14.1433C19.254 13.8347 18.7583 13.603 18.231 13.4613C17.3249 13.2177 16.3667 13.2504 15.4794 13.5554C14.592 13.8604 13.816 14.4236 13.2506 15.1728C12.6853 15.922 12.3564 16.8231 12.306 17.7606L12.3059 17.7635C12.2883 18.1321 12.3123 18.5015 12.3774 18.8647C12.4262 19.1365 12.686 19.3174 12.9578 19.2686C13.2296 19.2199 13.4105 18.96 13.3617 18.6882C13.3099 18.3994 13.2908 18.1057 13.3047 17.8127C13.3446 17.0745 13.6037 16.365 14.0488 15.7752C14.4942 15.1849 15.1056 14.7413 15.8044 14.5011C16.5032 14.2609 17.2578 14.2351 17.9713 14.427C18.311 14.5183 18.634 14.6569 18.9315 14.8374C18.7912 14.9266 18.6983 15.0837 18.6992 15.2623C18.7006 15.5384 18.9256 15.7612 19.2017 15.7598L20.1899 15.7548C20.4661 15.7535 20.6888 15.5285 20.6874 15.2524L20.6825 14.2632Z" fill="#00164E"/>
</svg>
