<svg width="24" height="24" viewBox="0 0 24 24" fill="none" xmlns="http://www.w3.org/2000/svg">
<path d="M11.4598 1.5C11.736 1.5 11.9598 1.72386 11.9598 2V6C11.9598 6.27614 11.736 6.5 11.4598 6.5C11.1837 6.5 10.9598 6.27614 10.9598 6V2C10.9598 1.72386 11.1837 1.5 11.4598 1.5Z" fill="#00164E"/>
<path d="M6.81339 3.64645C6.61813 3.45118 6.30155 3.45118 6.10629 3.64645C5.91102 3.84171 5.91102 4.15829 6.10629 4.35355L9.10629 7.35355C9.30155 7.54882 9.61813 7.54882 9.81339 7.35355C10.0087 7.15829 10.0087 6.84171 9.81339 6.64645L6.81339 3.64645Z" fill="#00164E"/>
<path d="M16.0532 6.77614C16.9305 6.42312 17.9118 6.43155 18.7829 6.79959C19.654 7.16763 20.3441 7.86537 20.7026 8.74048L20.7037 8.74333C21.0567 9.62062 21.0483 10.602 20.6803 11.4731C20.3122 12.3442 19.6145 13.0343 18.7394 13.3927L18.7379 13.3933L13.0486 15.703C12.1726 16.0601 11.1908 16.0548 10.3187 15.6885C9.44654 15.3223 8.75544 14.6248 8.39712 13.7494C8.29252 13.4938 8.4149 13.2018 8.67046 13.0972C8.92603 12.9926 9.218 13.115 9.3226 13.3706C9.58055 14.0008 10.0781 14.5029 10.7059 14.7666C11.3337 15.0303 12.0406 15.034 12.6711 14.777L18.3604 12.4673C18.9907 12.2089 19.494 11.7114 19.7591 11.0839C20.0241 10.4566 20.0304 9.74995 19.7766 9.11807C19.5181 8.48807 19.0211 7.98578 18.3938 7.72075C17.766 7.45552 17.0588 7.44944 16.4266 7.70381L13.9468 8.70372C13.6907 8.80698 13.3994 8.68308 13.2961 8.42698C13.1929 8.17087 13.3168 7.87954 13.5729 7.77627L16.0532 6.77614Z" fill="#00164E"/>
<path d="M8.51886 10.6891C9.4418 10.4715 10.4134 10.6278 11.2215 11.124C11.4568 11.2685 11.5304 11.5764 11.3859 11.8117C11.2414 12.047 10.9335 12.1206 10.6982 11.9762C10.1152 11.6182 9.41426 11.5054 8.74841 11.6624C8.08255 11.8195 7.50588 12.2336 7.14429 12.8143L7.1437 12.8153L3.88494 18.0233L3.88436 18.0242C3.70675 18.3113 3.58745 18.6306 3.53329 18.9639C3.47906 19.2975 3.49118 19.6385 3.56894 19.9675C3.6467 20.2964 3.78858 20.6068 3.98645 20.8808C4.18433 21.1548 4.4343 21.3871 4.72207 21.5644L4.72444 21.5658C5.01131 21.7447 5.33077 21.8651 5.66439 21.9199C5.99801 21.9747 6.33918 21.9628 6.6682 21.885C6.99722 21.8072 7.30757 21.6651 7.58135 21.4667C7.85512 21.2683 8.08689 21.0177 8.26326 20.7292L8.26642 20.7241L10.4464 17.2541C10.5933 17.0203 10.902 16.9498 11.1358 17.0967C11.3696 17.2436 11.4401 17.5522 11.2932 17.7861L9.11476 21.2536C8.86968 21.6536 8.54797 22.0012 8.16811 22.2764C7.7874 22.5523 7.35582 22.75 6.89827 22.8582C6.44072 22.9664 5.96629 22.9828 5.50234 22.9066C5.03881 22.8305 4.59493 22.6634 4.19628 22.415C3.79708 22.1688 3.4503 21.8464 3.17573 21.4662C2.90087 21.0856 2.70378 20.6545 2.59576 20.1975C2.48775 19.7406 2.47092 19.2669 2.54624 18.8035C2.62156 18.34 2.78756 17.896 3.03472 17.4968L3.03597 17.4948L6.29538 12.2858C6.7966 11.4811 7.5961 10.9068 8.51886 10.6891Z" fill="#00164E"/>
<path d="M4.45984 8.5C4.1837 8.5 3.95984 8.72386 3.95984 9C3.95984 9.27614 4.1837 9.5 4.45984 9.5H8.45984C8.73598 9.5 8.95984 9.27614 8.95984 9C8.95984 8.72386 8.73598 8.5 8.45984 8.5H4.45984Z" fill="#00164E"/>
</svg>
