<svg width="24" height="24" viewBox="0 0 24 24" fill="none" xmlns="http://www.w3.org/2000/svg">
<path d="M11.5 9L11.6469 12.354L13.6464 14.3536C13.8417 14.5488 14.1583 14.5488 14.3536 14.3536C14.5488 14.1583 14.5488 13.8417 14.3536 13.6464L12.5 11.7929V9C12.5 8.72386 12.2761 8.5 12 8.5C11.7239 8.5 11.5 8.72386 11.5 9Z" fill="#00164E"/>
<path d="M11.5 12C11.5 12.0678 11.5135 12.1324 11.5379 12.1914C11.562 12.2495 11.5974 12.304 11.6443 12.3514L11.5 9V12Z" fill="#00164E"/>
<path fill-rule="evenodd" clip-rule="evenodd" d="M8.5068 2.9178C8.54699 2.67671 8.75558 2.5 9 2.5H15C15.2444 2.5 15.453 2.67671 15.4932 2.9178L16.1768 7.01941C17.5971 8.21176 18.5 10.0004 18.5 12C18.5 13.9996 17.5971 15.7882 16.1768 16.9806L15.4932 21.0822C15.453 21.3233 15.2444 21.5 15 21.5H9C8.75558 21.5 8.54699 21.3233 8.5068 21.0822L7.8232 16.9806C6.40288 15.7882 5.5 13.9996 5.5 12C5.5 10.0004 6.40288 8.21176 7.8232 7.0194L8.5068 2.9178ZM12 6.5C12.0586 6.5 12.1169 6.50091 12.175 6.50273C15.1316 6.59515 17.5 9.02099 17.5 12C17.5 15.0376 15.0376 17.5 12 17.5C8.96243 17.5 6.5 15.0376 6.5 12C6.5 9.01268 8.88165 6.58162 11.8497 6.50201C11.8997 6.50067 11.9498 6.5 12 6.5ZM14.5764 3.5L15.0349 6.25051C14.1855 5.80128 13.2247 5.53472 12.2047 5.50317C12.1367 5.50106 12.0685 5.5 12 5.5C11.9304 5.5 11.861 5.5011 11.792 5.50327C10.7732 5.5353 9.81353 5.80176 8.96515 6.25051L9.42357 3.5H14.5764ZM8.96515 17.7495C9.87106 18.2287 10.9038 18.5 12 18.5C13.0962 18.5 14.1289 18.2287 15.0349 17.7495L14.5764 20.5H9.42356L8.96515 17.7495Z" fill="#00164E"/>
</svg>
