<svg width="24" height="24" viewBox="0 0 24 24" fill="none" xmlns="http://www.w3.org/2000/svg">
<path d="M3.99327 11.5822C4.47611 8.68521 5.67233 6.80251 7.12493 5.64043C8.58346 4.47361 10.3423 4 12.0001 4C14.6665 4 17.7408 5.69245 18.8493 8.20201C18.9608 8.45462 19.256 8.56894 19.5086 8.45737C19.7612 8.3458 19.8756 8.05059 19.764 7.79799C18.4695 4.86723 14.9938 3 12.0001 3C10.1578 3 8.1667 3.52639 6.50023 4.85957C4.82783 6.19749 3.52405 8.31479 3.00688 11.4178C2.96148 11.6902 3.14549 11.9478 3.41788 11.9932C3.69026 12.0386 3.94788 11.8546 3.99327 11.5822Z" fill="#00164E"/>
<path d="M8.00008 13.75C8.00008 11.6972 8.48356 10.2568 9.20532 9.34069C9.91778 8.43641 10.8946 8 12.0001 8C14.1053 8 16.0001 10.1903 16.0001 13.5C16.0001 13.7761 16.2239 14 16.5001 14C16.7762 14 17.0001 13.7761 17.0001 13.5C17.0001 9.90973 14.8948 7 12.0001 7C10.6055 7 9.33238 7.56359 8.41983 8.72181C7.51659 9.86823 7.00008 11.5528 7.00008 13.75C7.00008 15.7047 7.51999 17.758 8.72814 19.3353C9.95023 20.9308 11.8486 22 14.5001 22C14.7762 22 15.0001 21.7761 15.0001 21.5C15.0001 21.2239 14.7762 21 14.5001 21C12.1516 21 10.5499 20.0692 9.52202 18.7272C8.48016 17.367 8.00008 15.5453 8.00008 13.75Z" fill="#00164E"/>
<path d="M11.4898 12.1642C11.7659 12.1585 11.9943 12.3777 12 12.6538C12.0092 13.1052 12.106 14.4213 12.8228 15.5021C13.1741 16.0319 13.6724 16.5028 14.3904 16.796C15.1111 17.0904 16.0891 17.2204 17.4207 17.0063C17.6934 16.9625 17.9499 17.1479 17.9937 17.4206C18.0376 17.6932 17.8521 17.9498 17.5794 17.9936C16.1092 18.23 14.9388 18.1002 14.0123 17.7218C13.0829 17.3422 12.4352 16.7271 11.9894 16.0548C11.1119 14.7316 11.0106 13.1792 11.0002 12.6743C10.9945 12.3982 11.2137 12.1698 11.4898 12.1642Z" fill="#00164E"/>
<path d="M6.00008 13.5C6.00008 11.0964 6.70113 9.21864 7.78735 7.95022C8.87073 6.68514 10.3574 6 12.0001 6C14.0851 6 15.5604 6.8842 16.5312 8.23877C17.516 9.61286 18.0001 11.5013 18.0001 13.5C18.0001 13.5071 18.0002 13.5142 18.0005 13.5213C18.0089 13.7178 17.9764 13.9138 17.905 14.0971C17.8336 14.2803 17.725 14.4468 17.5859 14.5858C17.4469 14.7249 17.2804 14.8335 17.0972 14.9049C16.9156 14.9756 16.7214 15.0082 16.5267 15.0007C16.0976 14.9717 15.697 14.7754 15.4113 14.4539C15.0993 14.103 15.0001 13.8518 15.0001 13.5C15.0001 12.1789 14.6969 11.0753 14.1713 10.2855C13.6427 9.4911 12.8729 9 11.9901 9C11.9769 9 11.9637 9.00052 11.9506 9.00156C11.5215 9.03558 11.1035 9.15503 10.7212 9.35287C10.3389 9.55072 10 9.82299 9.72448 10.1537C9.44891 10.4843 9.24222 10.8668 9.11655 11.2785C8.99348 11.6817 8.95054 12.105 8.99008 12.5245C8.99018 13.065 9.00052 14.8954 9.92484 16.612C10.399 17.4926 11.1152 18.3468 12.19 18.978C13.264 19.6088 14.6673 20 16.4901 20C16.7662 20 16.9901 19.7761 16.9901 19.5C16.9901 19.2239 16.7662 19 16.4901 19C14.8128 19 13.5911 18.6412 12.6964 18.1157C11.8024 17.5907 11.2062 16.8824 10.8053 16.1379C9.99416 14.6315 9.99008 12.9926 9.99008 12.5C9.99008 12.483 9.98921 12.4659 9.98747 12.449C9.95715 12.1534 9.98622 11.8546 10.073 11.5704C10.1597 11.2862 10.3024 11.0222 10.4927 10.7938C10.683 10.5655 10.9169 10.3776 11.1808 10.241C11.4387 10.1075 11.7202 10.0257 12.0093 10.0001C12.4803 10.007 12.9576 10.2667 13.3388 10.8395C13.7283 11.4247 14.0001 12.3211 14.0001 13.5C14.0001 14.1482 14.2269 14.6267 14.6639 15.1183C15.1258 15.638 15.7742 15.9545 16.4681 15.999L16.4788 15.9995C16.8136 16.0138 17.1478 15.9584 17.4601 15.8367C17.7724 15.7151 18.056 15.5299 18.293 15.2929C18.53 15.0559 18.7152 14.7723 18.8368 14.46C18.9571 14.1512 19.0127 13.821 19.0001 13.4899C18.9984 11.352 18.4824 9.24463 17.344 7.65623C16.1898 6.0458 14.415 5 12.0001 5C10.0627 5 8.29943 5.81486 7.02781 7.29978C5.7614 8.77859 5.00292 10.8957 5.00009 13.4855C4.89719 15.291 5.25881 17.0928 6.05053 18.7189C6.17142 18.9672 6.47068 19.0704 6.71896 18.9495C6.96724 18.8287 7.07051 18.5294 6.94963 18.2811C6.23081 16.8048 5.90354 15.1684 5.99923 13.5291C5.99969 13.5213 5.99996 13.5134 6.00005 13.5055L6.00008 13.5Z" fill="#00164E"/>
</svg>
