<svg width="24" height="24" viewBox="0 0 24 24" fill="none" xmlns="http://www.w3.org/2000/svg">
<path fill-rule="evenodd" clip-rule="evenodd" d="M16.563 5C16.6102 4.8165 16.6829 4.64319 16.7769 4.48404L16.0251 3.73225C15.8298 3.53698 15.8298 3.2204 16.0251 3.02514C16.2204 2.82988 16.537 2.82988 16.7322 3.02514L17.484 3.77692C17.6432 3.68287 17.8165 3.61024 18 3.56301V2.5C18 2.22386 18.2239 2 18.5 2C18.7761 2 19 2.22386 19 2.5V3.56301C19.1835 3.61024 19.3568 3.68287 19.516 3.77692L20.2678 3.02514C20.463 2.82988 20.7796 2.82988 20.9749 3.02514C21.1702 3.2204 21.1702 3.53698 20.9749 3.73225L20.2231 4.48404C20.3171 4.64319 20.3898 4.8165 20.437 5H21.5C21.7761 5 22 5.22386 22 5.5C22 5.77614 21.7761 6 21.5 6H20.437C20.3898 6.18352 20.3171 6.35684 20.2231 6.516L20.9749 7.26778C21.1701 7.46304 21.1701 7.77962 20.9749 7.97489C20.7796 8.17015 20.463 8.17015 20.2677 7.97489L19.516 7.2231C19.3568 7.31714 19.1835 7.38976 19 7.43699V8.5C19 8.77614 18.7761 9 18.5 9C18.2239 9 18 8.77614 18 8.5V7.43699C17.8165 7.38976 17.6432 7.31714 17.484 7.2231L16.7323 7.97489C16.537 8.17015 16.2204 8.17015 16.0251 7.97489C15.8299 7.77963 15.8299 7.46304 16.0251 7.26778L16.7769 6.516C16.6829 6.35684 16.6102 6.18352 16.563 6L15.5 6C15.2239 6 15 5.77614 15 5.5C15 5.22386 15.2239 5 15.5 5H16.563ZM18.5 4.5C19.0523 4.5 19.5 4.94772 19.5 5.5C19.5 6.05228 19.0523 6.5 18.5 6.5C17.9477 6.5 17.5 6.05228 17.5 5.5C17.5 4.94772 17.9477 4.5 18.5 4.5Z" fill="#00164E"/>
<path fill-rule="evenodd" clip-rule="evenodd" d="M7.44498 5.13735C7.17946 5.21321 7.02572 5.48995 7.10158 5.75547L7.23933 6.23761C4.27505 7.27858 2.43589 10.1003 2.90263 12.9938C2.92509 13.1331 3.00537 13.2564 3.12366 13.3333C3.24195 13.4103 3.38723 13.4336 3.52367 13.3977L8.88163 11.9856L10.7533 18.5365C7.54637 18.7255 4.70713 19.6364 2.83453 21H2.5C2.22386 21 2 21.2239 2 21.5C2 21.7761 2.22386 22 2.5 22H21.5C21.7761 22 22 21.7761 22 21.5C22 21.2239 21.7761 21 21.5 21H21.1655C19.0535 19.462 15.7119 18.5 12 18.5C11.9276 18.5 11.8553 18.5004 11.7832 18.5011L9.84882 11.7307L15.1275 10.3396C15.2639 10.3036 15.3788 10.2117 15.4438 10.0865C15.5088 9.96125 15.5179 9.81438 15.4688 9.68211C14.431 6.88639 11.3528 5.33187 8.20341 5.97183L8.0631 5.48075C7.98724 5.21523 7.7105 5.06149 7.44498 5.13735ZM12 19.5C9.18348 19.5 6.65077 20.0791 4.77797 21H19.2221C17.3493 20.0791 14.8166 19.5 12 19.5ZM14.3067 9.52176L3.83477 12.2815C3.74521 9.9697 5.40632 7.7308 8.05136 7.03372C10.6964 6.33664 13.2452 7.46606 14.3067 9.52176Z" fill="#00164E"/>
</svg>
