<svg width="24" height="24" viewBox="0 0 24 24" fill="none" xmlns="http://www.w3.org/2000/svg">
<path d="M11.6284 10.8345C11.7232 10.9398 11.8583 11 12 11C12.1418 11 12.2768 10.9398 12.3717 10.8345L16.8717 5.83448C17.0037 5.68772 17.0371 5.47696 16.9568 5.29658C16.8764 5.11621 16.6975 5 16.5 5H7.50001C7.30255 5 7.12359 5.11621 7.04326 5.29658C6.96293 5.47696 6.99627 5.68772 7.12836 5.83448L11.6284 10.8345Z" fill="#00164E"/>
<path d="M11.6284 18.8345C11.7232 18.9398 11.8583 19 12 19C12.1418 19 12.2768 18.9398 12.3717 18.8345L16.8717 13.8345C17.0037 13.6877 17.0371 13.477 16.9568 13.2966C16.8764 13.1162 16.6975 13 16.5 13L7.50001 13C7.30255 13 7.12359 13.1162 7.04326 13.2966C6.96293 13.477 6.99627 13.6877 7.12836 13.8345L11.6284 18.8345Z" fill="#00164E"/>
</svg>
