<svg width="24" height="24" viewBox="0 0 24 24" fill="none" xmlns="http://www.w3.org/2000/svg">
<path fill-rule="evenodd" clip-rule="evenodd" d="M4.98092 11.6615C4.98092 11.6615 12.0573 8.80777 14.5116 7.80292C15.4524 7.40098 18.6429 6.11477 18.6429 6.11477C18.6429 6.11477 20.1154 5.55205 19.9927 6.91865C19.9518 7.48136 19.6246 9.45087 19.2974 11.5812C18.8065 14.5957 18.2748 17.8916 18.2748 17.8916C18.2748 17.8916 18.193 18.8161 17.4976 18.9768C16.8022 19.1376 15.6569 18.4141 15.4524 18.2534C15.2888 18.1328 12.3846 16.324 11.3211 15.4398C11.0347 15.1986 10.7075 14.7163 11.362 14.1536C12.8345 12.8272 14.5934 11.1792 15.6569 10.1342C16.1477 9.65184 16.6386 8.52641 14.5934 9.893C11.6892 11.8625 8.82591 13.7114 8.82591 13.7114C8.82591 13.7114 8.17144 14.1134 6.94432 13.7516C5.71719 13.3899 4.28555 12.9076 4.28555 12.9076C4.28555 12.9076 3.30385 12.3046 4.98092 11.6615Z" fill="#00164E"/>
</svg>
