<svg width="24" height="24" viewBox="0 0 24 24" fill="none" xmlns="http://www.w3.org/2000/svg">
<path fill-rule="evenodd" clip-rule="evenodd" d="M5.5 3C5.22386 3 5 3.22386 5 3.5V19.5C5 19.7761 5.22386 20 5.5 20H11.5C11.7761 20 12 20.2239 12 20.5C12 20.7761 11.7761 21 11.5 21H5.5C4.67157 21 4 20.3284 4 19.5V3.5C4 2.67157 4.67157 2 5.5 2H13.1015C13.4853 2 13.8545 2.14712 14.1331 2.41107L17.5316 5.63068C17.8306 5.91395 18 6.30772 18 6.71961V11.5C18 11.7761 17.7761 12 17.5 12C17.2239 12 17 11.7761 17 11.5V7.00005H13.7C13.3134 7.00005 13 6.68665 13 6.30005V3H5.5ZM14 3.70716L16.2929 6.00005H14V3.70716Z" fill="#00164E"/>
<path d="M7 7C6.72386 7 6.5 7.22386 6.5 7.5C6.5 7.77614 6.72386 8 7 8H10.57C10.8461 8 11.07 7.77614 11.07 7.5C11.07 7.22386 10.8461 7 10.57 7H7Z" fill="#00164E"/>
<path d="M6.5 12.5C6.5 12.2239 6.72386 12 7 12H13C13.2761 12 13.5 12.2239 13.5 12.5C13.5 12.7761 13.2761 13 13 13H7C6.72386 13 6.5 12.7761 6.5 12.5Z" fill="#00164E"/>
<path d="M7 9.5C6.72386 9.5 6.5 9.72386 6.5 10C6.5 10.2761 6.72386 10.5 7 10.5H14.5C14.7761 10.5 15 10.2761 15 10C15 9.72386 14.7761 9.5 14.5 9.5H7Z" fill="#00164E"/>
<path d="M15.1464 16.1464C15.3417 15.9512 15.6583 15.9512 15.8536 16.1464L17 17.2929L18.1464 16.1464C18.3417 15.9512 18.6583 15.9512 18.8536 16.1464C19.0488 16.3417 19.0488 16.6583 18.8536 16.8536L17.7071 18L18.8536 19.1464C19.0488 19.3417 19.0488 19.6583 18.8536 19.8536C18.6583 20.0488 18.3417 20.0488 18.1464 19.8536L17 18.7071L15.8536 19.8536C15.6583 20.0488 15.3417 20.0488 15.1464 19.8536C14.9512 19.6583 14.9512 19.3417 15.1464 19.1464L16.2929 18L15.1464 16.8536C14.9512 16.6583 14.9512 16.3417 15.1464 16.1464Z" fill="#00164E"/>
<path fill-rule="evenodd" clip-rule="evenodd" d="M17 13C14.2386 13 12 15.2386 12 18C12 20.7614 14.2386 23 17 23C19.7614 23 22 20.7614 22 18C22 15.2386 19.7614 13 17 13ZM13 18C13 15.7909 14.7909 14 17 14C19.2091 14 21 15.7909 21 18C21 20.2091 19.2091 22 17 22C14.7909 22 13 20.2091 13 18Z" fill="#00164E"/>
</svg>
