<svg width="24" height="24" viewBox="0 0 24 24" fill="none" xmlns="http://www.w3.org/2000/svg">
<path fill-rule="evenodd" clip-rule="evenodd" d="M5 4.5C5 2.84315 6.34315 1.5 8 1.5C9.65685 1.5 11 2.84315 11 4.5V5.5C11.2761 5.5 11.5 5.72386 11.5 6C11.5 6.27614 11.2761 6.5 11 6.5V19.6923C11 19.8319 10.9417 19.9651 10.8391 20.0597L8.33914 22.3674C8.14761 22.5442 7.85239 22.5442 7.66086 22.3674L5.16086 20.0597C5.05832 19.9651 5 19.8319 5 19.6923V6.5C4.72386 6.5 4.5 6.27614 4.5 6C4.5 5.72386 4.72386 5.5 5 5.5V4.5ZM6 4.5C6 3.39543 6.89543 2.5 8 2.5C9.10457 2.5 10 3.39543 10 4.5V5.5H6V4.5ZM9.42951 20L8 21.3195L6.57049 20H9.42951ZM6 6.5H7.5V19H6V6.5ZM8.5 6.5V19H10V6.5H8.5Z" fill="#00164E"/>
<path fill-rule="evenodd" clip-rule="evenodd" d="M12.5 2C12.5 1.72386 12.7239 1.5 13 1.5H18C18.2761 1.5 18.5 1.72386 18.5 2V22C18.5 22.2761 18.2761 22.5 18 22.5H13C12.7239 22.5 12.5 22.2761 12.5 22V2ZM14 19C14.2761 19 14.5 19.2239 14.5 19.5C14.5 19.7761 14.2761 20 14 20H13.5V21.5H17.5V2.5H13.5V4H14C14.2761 4 14.5 4.22386 14.5 4.5C14.5 4.77614 14.2761 5 14 5H13.5V6.5H15C15.2761 6.5 15.5 6.72386 15.5 7C15.5 7.27614 15.2761 7.5 15 7.5H13.5V9H14C14.2761 9 14.5 9.22386 14.5 9.5C14.5 9.77614 14.2761 10 14 10H13.5V11.5H15C15.2761 11.5 15.5 11.7239 15.5 12C15.5 12.2761 15.2761 12.5 15 12.5H13.5V14H14C14.2761 14 14.5 14.2239 14.5 14.5C14.5 14.7761 14.2761 15 14 15H13.5V16.5H15C15.2761 16.5 15.5 16.7239 15.5 17C15.5 17.2761 15.2761 17.5 15 17.5H13.5V19H14Z" fill="#00164E"/>
</svg>
