<svg width="24" height="24" viewBox="0 0 24 24" fill="none" xmlns="http://www.w3.org/2000/svg">
<path d="M7.5 2C6.11929 2 5 3.11929 5 4.5V19.5C5 20.8807 6.11929 22 7.5 22H14.5C15.8807 22 17 20.8807 17 19.5V19C17 18.7239 16.7761 18.5 16.5 18.5C16.2239 18.5 16 18.7239 16 19V19.5C16 20.3284 15.3284 21 14.5 21H7.5C6.67157 21 6 20.3284 6 19.5V4.5C6 3.67157 6.67157 3 7.5 3H14.5C15.3284 3 16 3.67157 16 4.5V6C16 6.27614 16.2239 6.5 16.5 6.5C16.7761 6.5 17 6.27614 17 6V4.5C17 3.11929 15.8807 2 14.5 2H7.5Z" fill="#00164E"/>
<path d="M12 18.5C12 19.0523 11.5523 19.5 11 19.5C10.4477 19.5 10 19.0523 10 18.5C10 17.9477 10.4477 17.5 11 17.5C11.5523 17.5 12 17.9477 12 18.5Z" fill="#00164E"/>
<path d="M17 11C17 10.7239 16.7761 10.5 16.5 10.5C16.2239 10.5 16 10.7239 16 11V12.5C16 12.7761 16.2239 13 16.5 13C16.7761 13 17 12.7761 17 12.5V11Z" fill="#00164E"/>
<path d="M17 14C17 14.2761 16.7761 14.5 16.5 14.5C16.2239 14.5 16 14.2761 16 14C16 13.7239 16.2239 13.5 16.5 13.5C16.7761 13.5 17 13.7239 17 14Z" fill="#00164E"/>
<path fill-rule="evenodd" clip-rule="evenodd" d="M16.5 7.5C13.7386 7.5 11.5 9.73858 11.5 12.5C11.5 15.2614 13.7386 17.5 16.5 17.5C19.2614 17.5 21.5 15.2614 21.5 12.5C21.5 9.73858 19.2614 7.5 16.5 7.5ZM12.5 12.5C12.5 10.2909 14.2909 8.5 16.5 8.5C18.7091 8.5 20.5 10.2909 20.5 12.5C20.5 14.7091 18.7091 16.5 16.5 16.5C14.2909 16.5 12.5 14.7091 12.5 12.5Z" fill="#00164E"/>
</svg>
