<svg width="24" height="24" viewBox="0 0 24 24" fill="none" xmlns="http://www.w3.org/2000/svg">
<path fill-rule="evenodd" clip-rule="evenodd" d="M3 5.5C2.44772 5.5 2 5.94772 2 6.5V15.5C2 16.0523 2.44772 16.5 3 16.5H11C11.2761 16.5 11.5 16.2761 11.5 16C11.5 15.7239 11.2761 15.5 11 15.5H6C6 14.7044 5.68393 13.9413 5.12132 13.3787C4.55871 12.8161 3.79565 12.5 3 12.5V9.5C3.79565 9.5 4.55871 9.18393 5.12132 8.62132C5.68393 8.05871 6 7.29565 6 6.5H15C15 7.29565 15.3161 8.05871 15.8787 8.62132C16.4413 9.18393 17.2044 9.5 18 9.5V11C18 11.2761 18.2239 11.5 18.5 11.5C18.7761 11.5 19 11.2761 19 11V6.5C19 5.94772 18.5523 5.5 18 5.5H3ZM16.5858 7.91421C16.9609 8.28929 17.4696 8.5 18 8.5V6.5H16C16 7.03043 16.2107 7.53914 16.5858 7.91421ZM5 6.5L3 6.5V8.5C3.53043 8.5 4.03914 8.28929 4.41422 7.91421C4.78929 7.53914 5 7.03043 5 6.5ZM4.41422 14.0858C4.03914 13.7107 3.53043 13.5 3 13.5V15.5H5C5 14.9696 4.78929 14.4609 4.41422 14.0858Z" fill="#00164E"/>
<path d="M6 10C6 9.72386 5.77614 9.5 5.5 9.5C5.22386 9.5 5 9.72386 5 10V12C5 12.2761 5.22386 12.5 5.5 12.5C5.77614 12.5 6 12.2761 6 12V10Z" fill="#00164E"/>
<path d="M15.5 9.5C15.7761 9.5 16 9.72386 16 10V11C16 11.2761 15.7761 11.5 15.5 11.5C15.2239 11.5 15 11.2761 15 11V10C15 9.72386 15.2239 9.5 15.5 9.5Z" fill="#00164E"/>
<path fill-rule="evenodd" clip-rule="evenodd" d="M8 11C8 9.61929 9.11929 8.5 10.5 8.5C11.8807 8.5 13 9.61929 13 11C13 12.3807 11.8807 13.5 10.5 13.5C9.11929 13.5 8 12.3807 8 11ZM10.5 9.5C9.67157 9.5 9 10.1716 9 11C9 11.8284 9.67157 12.5 10.5 12.5C11.3284 12.5 12 11.8284 12 11C12 10.1716 11.3284 9.5 10.5 9.5Z" fill="#00164E"/>
<path fill-rule="evenodd" clip-rule="evenodd" d="M12.0909 17C12.0909 14.2888 14.2888 12.0909 17 12.0909C19.7112 12.0909 21.9091 14.2888 21.9091 17C21.9091 19.7112 19.7112 21.9091 17 21.9091C14.2888 21.9091 12.0909 19.7112 12.0909 17ZM13.1196 15.7011C13.2914 15.6117 13.4791 15.5309 13.6782 15.4585C14.0911 15.3084 14.5727 15.1872 15.1014 15.1013C15.1872 14.5727 15.3084 14.0911 15.4585 13.6782C15.5309 13.4792 15.6117 13.2914 15.7011 13.1196C14.4866 13.526 13.526 14.4866 13.1196 15.7011ZM13.9578 16.2274C14.2586 16.118 14.6091 16.024 14.9979 15.9502C14.9695 16.289 14.9546 16.6404 14.9546 17C14.9546 17.3596 14.9695 17.7111 14.9979 18.0499C14.6091 17.9761 14.2586 17.882 13.9578 17.7727C13.5767 17.6341 13.297 17.4787 13.1203 17.3268C12.9423 17.1737 12.9091 17.0619 12.9091 17C12.9091 16.9382 12.9423 16.8264 13.1203 16.6733C13.297 16.5214 13.5767 16.366 13.9578 16.2274ZM15.7728 17C15.7728 17.4072 15.7931 17.7994 15.8306 18.1695C16.2007 18.207 16.5928 18.2273 17 18.2273C17.4072 18.2273 17.7994 18.207 18.1695 18.1695C18.207 17.7994 18.2273 17.4072 18.2273 17C18.2273 16.5928 18.207 16.2007 18.1695 15.8306C17.7994 15.7931 17.4072 15.7728 17 15.7728C16.5928 15.7728 16.2007 15.7931 15.8306 15.8306C15.7931 16.2007 15.7728 16.5928 15.7728 17ZM13.6782 18.5416C14.0911 18.6917 14.5727 18.8129 15.1014 18.8987C15.1872 19.4274 15.3084 19.9089 15.4585 20.3218C15.5309 20.5209 15.6117 20.7086 15.7011 20.8804C14.4866 20.4741 13.526 19.5135 13.1196 18.299C13.2914 18.3884 13.4791 18.4692 13.6782 18.5416ZM16.6733 20.8797C16.8264 21.0578 16.9382 21.0909 17 21.0909C17.0618 21.0909 17.1737 21.0578 17.3268 20.8797C17.4787 20.703 17.6341 20.4233 17.7727 20.0422C17.8821 19.7414 17.9761 19.391 18.0499 19.0022C17.7111 19.0306 17.3596 19.0455 17 19.0455C16.6404 19.0455 16.289 19.0306 15.9502 19.0022C16.024 19.391 16.1181 19.7415 16.2274 20.0422C16.366 20.4233 16.5214 20.703 16.6733 20.8797ZM18.5416 20.3218C18.4692 20.5209 18.3884 20.7086 18.299 20.8804C19.5135 20.474 20.474 19.5135 20.8804 18.299C20.7086 18.3884 20.5209 18.4692 20.3218 18.5416C19.9089 18.6917 19.4274 18.8129 18.8987 18.8987C18.8129 19.4274 18.6917 19.9089 18.5416 20.3218ZM20.0422 17.7727C19.7414 17.882 19.391 17.9761 19.0022 18.0499C19.0306 17.7111 19.0455 17.3596 19.0455 17C19.0455 16.6404 19.0306 16.289 19.0022 15.9502C19.391 16.024 19.7414 16.1181 20.0422 16.2274C20.4233 16.366 20.703 16.5214 20.8797 16.6733C21.0577 16.8264 21.0909 16.9382 21.0909 17C21.0909 17.0619 21.0577 17.1737 20.8797 17.3268C20.703 17.4787 20.4233 17.6341 20.0422 17.7727ZM20.3218 15.4585C19.9089 15.3084 19.4274 15.1872 18.8987 15.1014C18.8129 14.5727 18.6917 14.0911 18.5416 13.6782C18.4692 13.4792 18.3884 13.2915 18.299 13.1197C19.5135 13.5261 20.474 14.4866 20.8804 15.7011C20.7086 15.6117 20.5209 15.5309 20.3218 15.4585ZM17 14.9546C17.3596 14.9546 17.7111 14.9695 18.0499 14.9979C17.9761 14.6091 17.8821 14.2586 17.7727 13.9579C17.6341 13.5767 17.4787 13.2971 17.3268 13.1204C17.1737 12.9423 17.0618 12.9091 17 12.9091C16.9382 12.9091 16.8264 12.9423 16.6733 13.1204C16.5214 13.2971 16.366 13.5767 16.2274 13.9579C16.1181 14.2586 16.024 14.6091 15.9502 14.9979C16.289 14.9695 16.6404 14.9546 17 14.9546Z" fill="#00164E"/>
</svg>
