<svg width="24" height="24" viewBox="0 0 24 24" fill="none" xmlns="http://www.w3.org/2000/svg">
<path fill-rule="evenodd" clip-rule="evenodd" d="M13.0401 5.49C13.0455 5.21781 13.2678 5 13.54 5H15.32C15.4969 5 15.6607 5.09353 15.7506 5.24593L16.7855 7H17.5C17.6753 7 17.8378 7.09182 17.9283 7.24199L18.9283 8.90199C18.9752 8.97988 19 9.06908 19 9.16V11.0219C20.147 11.0822 21.0145 11.3074 21.8536 12.1465C22.0488 12.3417 22.0488 12.6583 21.8536 12.8536C21.6583 13.0488 21.3417 13.0488 21.1464 12.8536C20.3158 12.023 19.5405 12 17.5 12L17.4942 12H17.0948L17.579 13.1234C17.8775 13.0419 18.1872 13 18.5 13C19.4283 13 20.3185 13.3687 20.9749 14.0251C21.6313 14.6815 22 15.5717 22 16.5C22 17.1922 21.7947 17.8689 21.4101 18.4445C21.0256 19.0201 20.4789 19.4687 19.8394 19.7336C19.1999 19.9985 18.4961 20.0678 17.8172 19.9327C17.1383 19.7977 16.5146 19.4644 16.0251 18.9749C15.5356 18.4854 15.2023 17.8618 15.0673 17.1828C14.9322 16.5039 15.0015 15.8001 15.2664 15.1606C15.5313 14.5211 15.9799 13.9744 16.5555 13.5899C16.5905 13.5665 16.6259 13.5437 16.6617 13.5216L16.0308 12.058C16.0226 12.0389 16.0156 12.0195 16.0099 12H15.809L13.9472 15.7236C13.8625 15.893 13.6894 16 13.5 16H10.5C10.2239 16 10 15.7761 10 15.5V14.383L8.72767 15.1464C8.90573 15.571 9 16.0306 9 16.5C9 17.1922 8.79473 17.8689 8.41014 18.4445C8.02556 19.0201 7.47894 19.4687 6.83939 19.7336C6.19985 19.9985 5.49612 20.0678 4.81719 19.9327C4.13825 19.7977 3.51461 19.4644 3.02513 18.9749C2.53564 18.4854 2.2023 17.8618 2.06725 17.1828C1.9322 16.5039 2.00152 15.8001 2.26642 15.1606C2.53133 14.5211 2.97993 13.9744 3.55551 13.5899C4.13108 13.2053 4.80777 13 5.5 13C6.42826 13 7.3185 13.3687 7.97487 14.0251C8.0591 14.1093 8.13858 14.1974 8.21316 14.2889L9.46165 13.5398L4.38197 11H2.5C2.22386 11 2 10.7761 2 10.5V8.5C2 8.22386 2.22386 8 2.5 8H6.5C6.53293 8 6.56577 8.00325 6.59806 8.00971L11.2236 8.93481L12.0528 7.27639C12.1375 7.107 12.3106 7 12.5 7H13.0099L13.0401 5.49ZM15.0528 11.2764L13.191 15H11V13.5049C11.0008 13.4273 10.9836 13.3487 10.9468 13.2756C10.9372 13.2564 10.9263 13.2379 10.9143 13.2201C10.863 13.1439 10.7938 13.0861 10.7158 13.0489L4.72361 10.0528C4.65418 10.0181 4.57762 10 4.5 10H3V9H6.45049L11.4019 9.99029C11.623 10.0345 11.8464 9.92528 11.9472 9.72361L12.809 8H13.5C13.7722 8 13.9945 7.78219 13.9999 7.51L14.0301 6H15.0345L16.0694 7.75407C16.1593 7.90647 16.3231 8 16.5 8H17.2175L18 9.29897V11H15.5C15.3106 11 15.1375 11.107 15.0528 11.2764ZM17.0635 14.4539L18.0308 16.698C18.1401 16.9516 18.4343 17.0686 18.6879 16.9593C18.9415 16.85 19.0585 16.5558 18.9492 16.3022L17.9804 14.0546C18.1504 14.0185 18.3245 14 18.5 14C19.163 14 19.7989 14.2634 20.2678 14.7322C20.7366 15.2011 21 15.837 21 16.5C21 16.9945 20.8534 17.4778 20.5787 17.8889C20.304 18.3 19.9135 18.6205 19.4567 18.8097C18.9999 18.9989 18.4972 19.0484 18.0123 18.952C17.5273 18.8555 17.0819 18.6174 16.7322 18.2678C16.3826 17.9181 16.1445 17.4727 16.048 16.9877C15.9516 16.5028 16.0011 16.0001 16.1903 15.5433C16.3722 15.1042 16.6752 14.7265 17.0635 14.4539ZM5.24271 16.0712L7.34313 14.811C7.31864 14.7842 7.29351 14.758 7.26777 14.7322C6.79893 14.2634 6.16304 14 5.5 14C5.00555 14 4.5222 14.1466 4.11108 14.4213C3.69995 14.696 3.37952 15.0865 3.1903 15.5433C3.00108 16.0001 2.95158 16.5028 3.04804 16.9877C3.1445 17.4727 3.3826 17.9181 3.73223 18.2678C4.08187 18.6174 4.52732 18.8555 5.01228 18.952C5.49723 19.0484 5.9999 18.9989 6.45671 18.8097C6.91352 18.6205 7.30397 18.3 7.57868 17.8889C7.85338 17.4778 8 16.9945 8 16.5C8 16.214 7.951 15.9331 7.85765 15.6684L5.7572 16.9287C5.52041 17.0708 5.21328 16.994 5.07121 16.7572C4.92913 16.5204 5.00592 16.2133 5.24271 16.0712Z" fill="#00164E"/>
</svg>
