<svg width="24" height="24" viewBox="0 0 24 24" fill="none" xmlns="http://www.w3.org/2000/svg">
<path d="M15.8998 7.47C15.8998 7.74614 16.1237 7.97 16.3998 7.97C16.676 7.97 16.8998 7.74614 16.8998 7.47L16.8998 5C16.8998 4.72386 16.676 4.5 16.3998 4.5H13.9998C13.7237 4.5 13.4998 4.72386 13.4998 5C13.4998 5.27614 13.7237 5.5 13.9998 5.5L15.1927 5.5L12.0226 8.67013L9.37474 5.66919C9.19204 5.46213 8.87608 5.44238 8.66901 5.62508C8.46195 5.80778 8.4422 6.12375 8.6249 6.33081L11.6249 9.73084C11.7162 9.83433 11.8463 9.89547 11.9842 9.89978C12.1222 9.90409 12.2558 9.85118 12.3534 9.75358L15.8998 6.20711L15.8998 7.47Z" fill="#00164E"/>
<path fill-rule="evenodd" clip-rule="evenodd" d="M21.1527 19.9583C21.4113 19.8055 21.6351 19.6003 21.8097 19.3557C21.9777 19.1203 22.0969 18.8534 22.1595 18.5705L22.6261 17.1814C22.6329 17.1611 22.6384 17.1404 22.6426 17.1194C22.7339 16.6584 22.7025 16.1815 22.5517 15.7366C22.4014 15.2932 22.1378 14.8971 21.7868 14.5873C21.2897 14.1327 20.7537 13.7229 20.1846 13.3624C20.1734 13.3553 20.1619 13.3486 20.1502 13.3424C17.6902 12.0457 14.9501 11.3699 12.1686 11.3741C9.38713 11.3783 6.64864 12.0623 4.1911 13.3663C4.17949 13.3725 4.16813 13.3791 4.15704 13.3862C3.5892 13.7475 3.05337 14.157 2.55571 14.6103C2.54997 14.6156 2.54436 14.6209 2.53887 14.6264L2.43937 14.7259L2.4384 14.7269C2.12617 15.0408 1.89629 15.4274 1.77029 15.8525C1.64436 16.2774 1.62617 16.727 1.71703 17.1604C1.72157 17.1821 1.72753 17.2034 1.73488 17.2242L2.2267 18.6183C2.2937 18.8936 2.41436 19.153 2.5822 19.3817C2.75603 19.6186 2.97642 19.8172 3.23003 19.9656C3.48343 20.1138 3.76501 20.2089 4.05695 20.2444C4.3488 20.2798 4.64457 20.2549 4.92622 20.1717C4.97954 20.1559 5.02899 20.1317 5.07308 20.1005L8.32312 19.0583L8.32569 19.0574C8.79978 18.9026 9.20615 18.5884 9.47485 18.1675C9.74355 17.7466 9.85749 17.2448 9.79834 16.7496L9.68546 15.8167C10.4893 15.6261 11.3146 15.5372 12.1416 15.5518L12.1551 15.5517C13.0017 15.5439 13.8452 15.6414 14.6665 15.8417L14.5527 16.7769L14.552 16.7828C14.4979 17.2762 14.6141 17.7733 14.8809 18.1915C15.1479 18.6099 15.5496 18.9244 16.0198 19.083L19.4174 20.1603L19.4205 20.1613C19.7071 20.2501 20.0096 20.2783 20.3083 20.2433C20.6069 20.2083 20.8944 20.111 21.1527 19.9583ZM4.61345 19.1977C4.57765 19.2092 4.5437 19.2245 4.51205 19.2432C4.40167 19.2623 4.28897 19.2652 4.17747 19.2517C4.02163 19.2327 3.8708 19.1818 3.73491 19.1024C3.59923 19.023 3.48141 18.9168 3.38845 18.7901C3.29553 18.6635 3.22961 18.5192 3.19458 18.3659C3.19032 18.3472 3.185 18.3289 3.17865 18.3108L2.68968 16.9249C2.63982 16.6629 2.65323 16.3926 2.72907 16.1367C2.80773 15.8713 2.95136 15.6294 3.14699 15.4325L3.23764 15.3418C3.68551 14.9347 4.16717 14.5663 4.6773 14.2404C6.98652 13.0188 9.55824 12.378 12.1701 12.3741C14.7819 12.3701 17.355 13.0031 19.6662 14.2177C20.1806 14.545 20.6654 14.9166 21.1152 15.3283L21.1226 15.3349C21.3439 15.5294 21.51 15.7785 21.6046 16.0576C21.696 16.3272 21.7175 16.6156 21.6672 16.8955L21.2026 18.2789C21.1961 18.2981 21.1909 18.3176 21.1868 18.3374C21.1545 18.4945 21.0894 18.6434 20.9957 18.7747C20.9023 18.9056 20.7825 19.0155 20.6439 19.0974C20.5052 19.1794 20.3512 19.2314 20.1918 19.2501C20.0329 19.2688 19.8713 19.2539 19.718 19.2066L16.3356 18.1341C16.0831 18.0479 15.8675 17.8785 15.724 17.6536C15.5801 17.4282 15.5172 17.1603 15.5458 16.8945L15.7117 15.5309C15.7413 15.2873 15.5897 15.0582 15.354 14.9901C14.3136 14.6899 13.2354 14.5423 12.1526 14.5516C11.0877 14.5335 10.0254 14.6715 9.00033 14.9619C8.76342 15.029 8.61062 15.2586 8.6402 15.503L8.80556 16.8696C8.83718 17.1354 8.77585 17.404 8.63198 17.6294C8.48823 17.8545 8.27067 18.0231 8.01637 18.1065L8.01519 18.1069L4.61345 19.1977Z" fill="#00164E"/>
</svg>
