<svg width="24" height="24" viewBox="0 0 24 24" fill="none" xmlns="http://www.w3.org/2000/svg">
<path d="M17.5 14.5C17.7761 14.5 18 14.7239 18 15V16.5C18 16.7761 17.7761 17 17.5 17C17.2239 17 17 16.7761 17 16.5V15C17 14.7239 17.2239 14.5 17.5 14.5Z" fill="#00164E"/>
<path d="M17.5 18.5C17.7761 18.5 18 18.2761 18 18C18 17.7239 17.7761 17.5 17.5 17.5C17.2239 17.5 17 17.7239 17 18C17 18.2761 17.2239 18.5 17.5 18.5Z" fill="#00164E"/>
<path fill-rule="evenodd" clip-rule="evenodd" d="M4.5 4C3.11929 4 2 5.11929 2 6.5V15.5C2 16.8807 3.11929 18 4.5 18H13.3006C13.4706 18.5251 13.7114 19.0284 14.0194 19.4951C14.8087 20.6909 15.9895 21.5703 17.3568 21.9791C17.4502 22.007 17.5498 22.007 17.6432 21.9791C19.0105 21.5703 20.1913 20.6909 20.9806 19.4951C21.7693 18.3001 22.1174 16.8645 21.965 15.4381L21.7069 12.7925C21.6853 12.5708 21.5196 12.3901 21.3005 12.3494C20.8686 12.2694 20.4349 12.203 20 12.1505V6.5C20 5.11929 18.8807 4 17.5 4H4.5ZM13.6995 12.3494C15.4499 12.0249 17.231 11.9264 19 12.0541V7.96432C18.9906 7.97133 18.981 7.97828 18.9713 7.98517L11.8649 13.0014C11.3463 13.3675 10.6535 13.3675 10.1349 13.0014L3.02851 7.98517C3.01884 7.97834 3.00933 7.97145 3 7.96449V15.5C3 16.3284 3.67157 17 4.5 17H13.0665C12.9906 16.4864 12.9791 15.9616 13.035 15.4381L13.2931 12.7925C13.3147 12.5708 13.4804 12.3901 13.6995 12.3494ZM3.6052 7.1682C3.29377 6.94837 3.08591 6.61565 3.0213 6.24667C3.14169 5.53888 3.75792 5 4.5 5H17.5C18.2419 5 18.8579 5.53854 18.9786 6.246C18.9141 6.61526 18.7062 6.94824 18.3946 7.1682L11.2882 12.1844C11.1154 12.3065 10.8844 12.3065 10.7115 12.1844L3.6052 7.1682ZM14.0301 15.5375L14.2514 13.2677C16.4027 12.9108 18.5973 12.9108 20.7486 13.2677L20.9699 15.5375L20.9704 15.5423C21.0988 16.7391 20.8068 17.943 20.146 18.9442C19.513 19.9032 18.5804 20.6175 17.5 20.9758C16.4196 20.6175 15.487 19.9032 14.854 18.9442C14.1932 17.943 13.9012 16.7391 14.0296 15.5423L14.0301 15.5375Z" fill="#00164E"/>
</svg>
