<svg width="24" height="24" viewBox="0 0 24 24" fill="none" xmlns="http://www.w3.org/2000/svg">
<path d="M4.5 2C3.11929 2 2 3.11929 2 4.5V19.5C2 20.8807 3.11929 22 4.5 22H11.5C12.8807 22 14 20.8807 14 19.5V17C14 16.7239 13.7761 16.5 13.5 16.5C13.2239 16.5 13 16.7239 13 17V19.5C13 20.3284 12.3284 21 11.5 21H4.5C3.67157 21 3 20.3284 3 19.5V4.5C3 3.67157 3.67157 3 4.5 3H11.5C12.3284 3 13 3.67157 13 4.5V5C13 5.27614 13.2239 5.5 13.5 5.5C13.7761 5.5 14 5.27614 14 5V4.5C14 3.11929 12.8807 2 11.5 2H4.5Z" fill="#00164E"/>
<path fill-rule="evenodd" clip-rule="evenodd" d="M18.5 14C18.7761 14 19 13.7761 19 13.5V8.5C19 8.22386 18.7761 8 18.5 8H11.5C11.2239 8 11 8.22386 11 8.5V13.5C11 13.7761 11.2239 14 11.5 14H18.5ZM18 9V13H12V9H18Z" fill="#00164E"/>
<path fill-rule="evenodd" clip-rule="evenodd" d="M19.5 16C20.3284 16 21 15.3284 21 14.5V7.5C21 6.67157 20.3284 6 19.5 6H9.91421C9.51639 6 9.13486 6.15804 8.85355 6.43934L6.43934 8.85355C6.15804 9.13486 6 9.51639 6 9.91421V14.5C6 15.3284 6.67157 16 7.5 16H19.5ZM20 14.5C20 14.7761 19.7761 15 19.5 15H7.5C7.22386 15 7 14.7761 7 14.5V9.91421C7 9.78161 7.05268 9.65443 7.14645 9.56066L9.56066 7.14645C9.65443 7.05268 9.78161 7 9.91421 7H19.5C19.7761 7 20 7.22386 20 7.5V14.5Z" fill="#00164E"/>
<path d="M8 20C8.55228 20 9 19.5523 9 19C9 18.4477 8.55228 18 8 18C7.44772 18 7 18.4477 7 19C7 19.5523 7.44772 20 8 20Z" fill="#00164E"/>
</svg>
