<svg width="24" height="24" viewBox="0 0 24 24" fill="none" xmlns="http://www.w3.org/2000/svg">
<path fill-rule="evenodd" clip-rule="evenodd" d="M4.5 4C3.11929 4 2 5.11929 2 6.5V14.5C2 15.8807 3.11929 17 4.5 17H10.5C10.7761 17 11 16.7761 11 16.5C11 16.2239 10.7761 16 10.5 16H4.5C3.67157 16 3 15.3284 3 14.5V11H20V11.5C20 11.7761 20.2239 12 20.5 12C20.7761 12 21 11.7761 21 11.5V6.5C21 5.11929 19.8807 4 18.5 4H4.5ZM3 6.5C3 5.67157 3.67157 5 4.5 5H18.5C19.3284 5 20 5.67157 20 6.5V8H3V6.5Z" fill="#00164E"/>
<path d="M4.5 13C4.5 12.7239 4.72386 12.5 5 12.5H9C9.27614 12.5 9.5 12.7239 9.5 13C9.5 13.2761 9.27614 13.5 9 13.5H5C4.72386 13.5 4.5 13.2761 4.5 13Z" fill="#00164E"/>
<path d="M17.3 19.5C17.3 19.7761 17.0762 20 16.8 20C16.5239 20 16.3 19.7761 16.3 19.5C16.3 19.2239 16.5239 19 16.8 19C17.0762 19 17.3 19.2239 17.3 19.5Z" fill="#00164E"/>
<path d="M15.2608 14.9544C15.6579 14.4301 16.1927 14 17.0602 14C17.5502 14 17.9832 14.1383 18.2993 14.4033C18.6196 14.6719 18.8 15.055 18.8 15.4936C18.8 15.884 18.6847 16.1883 18.4855 16.4348C18.2949 16.6708 18.0396 16.8376 17.7929 16.9802C17.458 17.1736 17.3757 17.2551 17.3415 17.3207C17.3261 17.3502 17.3124 17.3931 17.305 17.4781C17.2971 17.5679 17.2977 17.6802 17.299 17.848C17.2994 17.9093 17.3 17.9769 17.3 18.05L17.2999 18.0513L17.2999 18.0526L17.2999 18.0556L17.2997 18.0626C17.2995 18.0678 17.2992 18.0739 17.2987 18.0809C17.2977 18.0948 17.2958 18.1127 17.2923 18.1332C17.2855 18.173 17.2713 18.2304 17.24 18.2914C17.2079 18.3536 17.1556 18.4238 17.0727 18.4775C16.9883 18.5322 16.89 18.5583 16.7857 18.5583C16.6813 18.5583 16.583 18.5322 16.4986 18.4775C16.4157 18.4238 16.3634 18.3536 16.3314 18.2914C16.3 18.2304 16.2859 18.173 16.279 18.1332C16.2755 18.1127 16.2736 18.0948 16.2726 18.0809C16.2721 18.0739 16.2718 18.0678 16.2716 18.0626L16.2714 18.0556L16.2714 18.0526L16.2714 18.0513C16.2714 18.0513 16.2714 18.05 16.5714 18.05H16.2714V17.425C16.2714 17.1318 16.3508 16.8987 16.5188 16.7016C16.6713 16.5227 16.8845 16.3904 17.1008 16.2638C17.3746 16.0977 17.5232 15.9953 17.6119 15.8911C17.6825 15.8081 17.7245 15.7124 17.7245 15.5202C17.7245 15.352 17.6658 15.2406 17.573 15.165C17.4726 15.0832 17.2996 15.0178 17.0334 15.0178C16.5925 15.0178 16.3247 15.22 16.0784 15.5626C16.0493 15.6031 16.0106 15.6357 15.9657 15.6574C15.625 15.8228 15.2 15.5884 15.2 15.1862V15.1355C15.2 15.0702 15.2213 15.0065 15.2608 14.9544Z" fill="#00164E"/>
<path fill-rule="evenodd" clip-rule="evenodd" d="M17 12C14.2386 12 12 14.2386 12 17C12 19.7614 14.2386 22 17 22C19.7614 22 22 19.7614 22 17C22 14.2386 19.7614 12 17 12ZM13 17C13 14.7909 14.7909 13 17 13C19.2091 13 21 14.7909 21 17C21 19.2091 19.2091 21 17 21C14.7909 21 13 19.2091 13 17Z" fill="#00164E"/>
</svg>
