<svg width="24" height="24" viewBox="0 0 24 24" fill="none" xmlns="http://www.w3.org/2000/svg">
<path d="M12.3717 5.16552C12.2768 5.06016 12.1418 5 12 5C11.8583 5 11.7232 5.06016 11.6284 5.16552L7.12836 10.1655C6.99627 10.3123 6.96293 10.523 7.04326 10.7034C7.12359 10.8838 7.30255 11 7.50001 11H16.5C16.6975 11 16.8764 10.8838 16.9568 10.7034C17.0371 10.523 17.0037 10.3123 16.8717 10.1655L12.3717 5.16552Z" fill="#00164E"/>
<path d="M7.50001 13C7.30255 13 7.12359 13.1162 7.04326 13.2966C6.96293 13.477 6.99627 13.6877 7.12836 13.8345L11.6284 18.8345C11.7232 18.9398 11.8583 19 12 19C12.1418 19 12.2768 18.9398 12.3717 18.8345L16.8717 13.8345C17.0037 13.6877 17.0371 13.477 16.9568 13.2966C16.8764 13.1162 16.6975 13 16.5 13H7.50001Z" fill="#00164E"/>
</svg>
