<svg width="24" height="24" viewBox="0 0 24 24" fill="none" xmlns="http://www.w3.org/2000/svg">
<path d="M11.5114 2.51192C11.8426 2.18363 12.2824 2 12.75 2C13.2176 2 13.6574 2.18363 13.9886 2.51192C14.6705 3.19635 14.6705 4.30644 13.9886 4.98808C13.6574 5.31916 13.2176 5.50001 12.75 5.50001C12.2824 5.50001 11.8426 5.31916 11.5114 4.98808C10.8295 4.30366 10.8295 3.19356 11.5114 2.51192Z" fill="#00164E"/>
<path d="M9.49991 5.00005C10.0356 5.00005 10.5356 5.2087 10.9147 5.58756C11.695 6.36724 11.695 7.63561 10.9147 8.41529C10.5246 8.80514 10.0136 9.00006 9.49991 9.00006C8.98617 9.00006 8.47518 8.80514 8.08507 8.41529C7.30485 7.63561 7.30485 6.36724 8.08507 5.58756C8.46419 5.2087 8.96694 5.00005 9.49991 5.00005Z" fill="#00164E"/>
<path d="M8.51116 19.0119C8.8423 18.6808 9.28198 18.4999 9.74948 18.4999C10.217 18.4999 10.6567 18.6808 10.9878 19.0119C11.319 19.343 11.4998 19.7827 11.4998 20.2502C11.4998 20.7177 11.319 21.1574 10.9878 21.4886C10.3032 22.1703 9.19293 22.1703 8.51116 21.4886C7.82938 20.8068 7.82938 19.6937 8.51116 19.0119Z" fill="#00164E"/>
<path d="M14.4166 8.58526C14.0373 8.20889 13.5343 8.0001 13.001 8.0001C12.4678 8.0001 11.9648 8.20889 11.5855 8.58526C10.8048 9.36548 10.8048 10.6347 11.5855 11.4149C11.9758 11.805 12.487 12.0001 13.001 12.0001C13.515 12.0001 14.0263 11.805 14.4166 11.4149C15.1945 10.6347 15.1945 9.36548 14.4166 8.58526Z" fill="#00164E"/>
<path d="M16.0001 12C16.5358 12 17.0358 12.2086 17.4149 12.5875C18.1951 13.3672 18.1951 14.6355 17.4149 15.4152C17.0248 15.8051 16.5138 16 16.0001 16C15.4863 16 14.9753 15.8051 14.5852 15.4152C13.805 14.6355 13.805 13.3672 14.5852 12.5875C14.9643 12.2086 15.4643 12 16.0001 12Z" fill="#00164E"/>
<path d="M7.41484 8.58761C7.03572 8.20874 6.53572 8.0001 6 8.0001C5.46429 8.0001 4.96154 8.20874 4.58517 8.58761C3.80494 9.36729 3.80494 10.6357 4.58517 11.4153C4.97528 11.8052 5.48627 12.0001 6 12.0001C6.51374 12.0001 7.02473 11.8052 7.41484 11.4153C8.19506 10.6357 8.19506 9.36729 7.41484 8.58761Z" fill="#00164E"/>
<path d="M9.49991 12C10.0356 12 10.5356 12.2088 10.9147 12.5852C11.695 13.3654 11.695 14.6346 10.9147 15.4148C10.5246 15.8049 10.0136 16 9.49991 16C8.98617 16 8.47518 15.8049 8.08507 15.4148C7.30485 14.6346 7.30485 13.3654 8.08507 12.5852C8.46145 12.2088 8.96419 12 9.49991 12Z" fill="#00164E"/>
<path d="M14.4148 15.5875C14.0357 15.2087 13.5357 15 13 15C12.467 15 11.9643 15.2087 11.5852 15.5875C10.8049 16.3672 10.8049 17.6356 11.5852 18.4153C11.9753 18.8051 12.4863 19 13 19C13.5137 19 14.0247 18.8051 14.4148 18.4153C15.1951 17.6356 15.1951 16.3672 14.4148 15.5875Z" fill="#00164E"/>
</svg>
