<svg width="24" height="24" viewBox="0 0 24 24" fill="none" xmlns="http://www.w3.org/2000/svg">
<path d="M4.5 5C3.67157 5 3 5.67157 3 6.5V14.5C3 15.3284 3.67157 16 4.5 16H10C10.2761 16 10.5 16.2239 10.5 16.5C10.5 16.7761 10.2761 17 10 17H4.5C3.11929 17 2 15.8807 2 14.5V6.5C2 5.11929 3.11929 4 4.5 4H15.328C16.0115 4 16.6652 4.27983 17.137 4.77438L20.3618 8.15488C20.5524 8.35468 20.5449 8.67118 20.3451 8.86179C20.1453 9.05239 19.8288 9.04493 19.6382 8.84512L16.4134 5.46463C16.1303 5.1679 15.7381 5 15.328 5H4.5Z" fill="#00164E"/>
<path d="M20.5666 9.98776C20.2373 9.86227 19.8853 9.8078 19.5335 9.82791C19.1817 9.84802 18.8382 9.94226 18.5254 10.1044C18.2207 10.2624 17.9519 10.4814 17.7356 10.7477L15.8727 12.6502C15.6796 12.8475 15.6829 13.1641 15.8802 13.3573C16.0775 13.5504 16.3941 13.5471 16.5873 13.3498L18.4673 11.4298C18.4794 11.4175 18.4908 11.4045 18.5015 11.391C18.633 11.2254 18.798 11.0895 18.9857 10.9922C19.1734 10.8949 19.3795 10.8383 19.5906 10.8263C19.8016 10.8142 20.0129 10.8469 20.2104 10.9222C20.4079 10.9975 20.5873 11.1137 20.7368 11.2632C20.8863 11.4127 21.0025 11.5921 21.0778 11.7896C21.1531 11.9871 21.1858 12.1984 21.1737 12.4094C21.1617 12.6205 21.1051 12.8266 21.0078 13.0143C20.9105 13.202 20.7746 13.367 20.609 13.4985C20.5941 13.5103 20.5799 13.523 20.5665 13.5364L17.7577 16.3452C17.4771 16.6217 17.0989 16.7766 16.705 16.7766C16.3106 16.7766 15.932 16.6213 15.6513 16.3442C15.4547 16.1502 15.1382 16.1522 14.9442 16.3487C14.7502 16.5453 14.7522 16.8618 14.9488 17.0558C15.4166 17.5177 16.0476 17.7766 16.705 17.7766C17.3624 17.7766 17.9934 17.5177 18.4613 17.0558L21.2545 14.2626C21.5198 14.0467 21.738 13.7785 21.8955 13.4746C22.0577 13.1618 22.152 12.8183 22.1721 12.4665C22.1922 12.1147 22.1377 11.7627 22.0122 11.4335C21.8868 11.1042 21.6931 10.8052 21.4439 10.5561C21.1948 10.3069 20.8958 10.1132 20.5666 9.98776Z" fill="#00164E"/>
<path d="M15.295 14.2234C14.6376 14.2234 14.0066 14.4823 13.5387 14.9442L10.7455 17.7374C10.4802 17.9533 10.262 18.2215 10.1044 18.5254C9.94226 18.8382 9.84802 19.1817 9.82791 19.5335C9.8078 19.8853 9.86227 20.2373 9.98776 20.5665C10.1132 20.8958 10.3069 21.1948 10.5561 21.4439C10.8052 21.6931 11.1042 21.8867 11.4335 22.0122C11.7627 22.1377 12.1147 22.1922 12.4665 22.1721C12.8183 22.152 13.1618 22.0577 13.4746 21.8955C13.7793 21.7376 14.0481 21.5186 14.2644 21.2523L16.1273 19.3498C16.3204 19.1525 16.3171 18.8359 16.1198 18.6427C15.9225 18.4495 15.6059 18.4529 15.4127 18.6502L13.5327 20.5702C13.5207 20.5825 13.5092 20.5955 13.4985 20.609C13.367 20.7746 13.202 20.9105 13.0143 21.0078C12.8266 21.1051 12.6205 21.1617 12.4094 21.1737C12.1984 21.1858 11.9871 21.1531 11.7896 21.0778C11.5921 21.0025 11.4127 20.8863 11.2632 20.7368C11.1137 20.5873 10.9975 20.4079 10.9222 20.2104C10.8469 20.0128 10.8142 19.8016 10.8263 19.5906C10.8383 19.3795 10.8949 19.1734 10.9922 18.9857C11.0895 18.798 11.2254 18.633 11.391 18.5015C11.4059 18.4897 11.4201 18.477 11.4336 18.4636L14.2423 15.6548C14.5229 15.3783 14.9011 15.2234 15.295 15.2234C15.6894 15.2234 16.068 15.3787 16.3487 15.6558C16.5453 15.8498 16.8618 15.8478 17.0558 15.6512C17.2498 15.4547 17.2478 15.1381 17.0512 14.9442C16.5834 14.4823 15.9524 14.2234 15.295 14.2234Z" fill="#00164E"/>
<path d="M5 13C4.72386 13 4.5 13.2239 4.5 13.5C4.5 13.7761 4.72386 14 5 14H13C13.2761 14 13.5 13.7761 13.5 13.5C13.5 13.2239 13.2761 13 13 13H5Z" fill="#00164E"/>
<path d="M4.5 11.5C4.5 11.2239 4.72386 11 5 11H15C15.2761 11 15.5 11.2239 15.5 11.5C15.5 11.7761 15.2761 12 15 12H5C4.72386 12 4.5 11.7761 4.5 11.5Z" fill="#00164E"/>
<path d="M8 8C8 8.82843 7.32843 9.5 6.5 9.5C5.67157 9.5 5 8.82843 5 8C5 7.17157 5.67157 6.5 6.5 6.5C7.32843 6.5 8 7.17157 8 8Z" fill="#00164E"/>
</svg>
