<svg width="24" height="24" viewBox="0 0 24 24" fill="none" xmlns="http://www.w3.org/2000/svg">
<path fill-rule="evenodd" clip-rule="evenodd" d="M10.5787 12.8889C10.4508 13.0803 10.2979 13.252 10.1248 13.4C10.4353 13.5627 10.7224 13.7727 10.9749 14.0251C11.6313 14.6815 12 15.5717 12 16.5C12 16.8978 11.842 17.2794 11.5607 17.5607C11.2794 17.842 10.8978 18 10.5 18H6.5C6.10218 18 5.72064 17.842 5.43933 17.5607C5.15803 17.2794 5 16.8978 5 16.5C5 15.5717 5.36874 14.6815 6.02512 14.0251C6.27759 13.7727 6.56466 13.5627 6.87519 13.4C6.82597 13.3579 6.77827 13.3138 6.73224 13.2678C6.38261 12.9181 6.1445 12.4727 6.04804 11.9877C5.95157 11.5028 6.00109 11.0001 6.19031 10.5433C6.37953 10.0865 6.69996 9.69603 7.11108 9.42133C7.52221 9.14662 8.00555 9 8.5 9C9.16304 9 9.79892 9.26339 10.2678 9.73223C10.7366 10.2011 11 10.837 11 11.5C11 11.9945 10.8534 12.4778 10.5787 12.8889ZM8.5 10C8.79667 10 9.08667 10.088 9.33334 10.2528C9.58002 10.4176 9.7723 10.6519 9.88583 10.926C9.99937 11.2001 10.0291 11.5017 9.97119 11.7926C9.91331 12.0836 9.77045 12.3509 9.56067 12.5607C9.35089 12.7704 9.08361 12.9133 8.79263 12.9712C8.69617 12.9904 8.59854 12.9999 8.50113 13C8.30471 13.0001 8.10919 12.9617 7.92597 12.8858C7.65188 12.7723 7.41763 12.58 7.25281 12.3334C7.08799 12.0867 7 11.7967 7 11.5C7 11.1022 7.15803 10.7206 7.43933 10.4393C7.72064 10.158 8.10218 10 8.5 10ZM6.73224 14.7322C7.20062 14.2639 7.83571 14.0005 8.49805 14L8.5 14C9.16304 14 9.79892 14.2634 10.2678 14.7322C10.7366 15.2011 11 15.837 11 16.5C11 16.6326 10.9473 16.7598 10.8535 16.8536C10.7598 16.9473 10.6326 17 10.5 17H6.5C6.36739 17 6.24022 16.9473 6.14645 16.8536C6.05269 16.7598 6 16.6326 6 16.5C6 15.837 6.2634 15.2011 6.73224 14.7322Z" fill="#00164E"/>
<path d="M13 14.5C13 14.2239 13.2239 14 13.5 14H18.5C18.7761 14 19 14.2239 19 14.5C19 14.7761 18.7761 15 18.5 15H13.5C13.2239 15 13 14.7761 13 14.5Z" fill="#00164E"/>
<path d="M13.5 16C13.2239 16 13 16.2239 13 16.5C13 16.7761 13.2239 17 13.5 17H18.5C18.7761 17 19 16.7761 19 16.5C19 16.2239 18.7761 16 18.5 16H13.5Z" fill="#00164E"/>
<path d="M13 10.3C13 9.58203 13.582 9 14.3 9H17.7C18.418 9 19 9.58203 19 10.3V11.7C19 12.418 18.418 13 17.7 13H14.3C13.582 13 13 12.418 13 11.7V10.3Z" fill="#00164E"/>
<path fill-rule="evenodd" clip-rule="evenodd" d="M21.5607 4.43934C21.2794 4.15804 20.8978 4 20.5 4H3.5C3.10218 4 2.72064 4.15804 2.43934 4.43934C2.15804 4.72064 2 5.10218 2 5.5V17.5C2 18.163 2.26339 18.7989 2.73223 19.2678C3.20107 19.7366 3.83696 20 4.5 20H19.5C20.163 20 20.7989 19.7366 21.2678 19.2678C21.7366 18.7989 22 18.163 22 17.5V5.5C22 5.10218 21.842 4.72065 21.5607 4.43934ZM3.43934 18.5607C3.15804 18.2794 3 17.8978 3 17.5V7H21V17.5C21 17.8978 20.842 18.2794 20.5607 18.5607C20.2794 18.842 19.8978 19 19.5 19H4.5C4.10218 19 3.72064 18.842 3.43934 18.5607Z" fill="#00164E"/>
</svg>
