<svg width="24" height="24" viewBox="0 0 24 24" fill="none" xmlns="http://www.w3.org/2000/svg">
<path fill-rule="evenodd" clip-rule="evenodd" d="M11.5 5C11.5 4.72386 11.7239 4.5 12 4.5C16.067 4.5 19.5 7.34062 19.5 11V13C19.5 14.6434 18.6191 16.081 17.3037 16.8664C18.0212 17.3058 18.5 18.097 18.5 19C18.5 20.3807 17.3807 21.5 16 21.5C14.6193 21.5 13.5 20.3807 13.5 19C13.5 18.4372 13.686 17.9178 13.9998 17.5H11.0002C11.314 17.9178 11.5 18.4372 11.5 19C11.5 20.3807 10.3807 21.5 9 21.5C7.61929 21.5 6.5 20.3807 6.5 19C6.5 18.2761 6.80766 17.6241 7.29936 17.1676C5.65717 16.4967 4.5 14.8835 4.5 13V9.5C4.5 8.39543 3.60457 7.5 2.5 7.5C2.22386 7.5 2 7.27614 2 7C2 6.72386 2.22386 6.5 2.5 6.5C4.15685 6.5 5.5 7.84315 5.5 9.5V10.5H11.5V5ZM12.5 9.55682L14.0155 5.76805C13.5345 5.63573 13.0272 5.54944 12.5 5.51585L12.5 9.55682ZM14.9596 6.10038L13.6135 9.46562L16.9657 7.45432C16.4139 6.89969 15.7338 6.43644 14.9596 6.10038ZM17.6134 8.23186L13.8331 10.5H18.4731C18.3849 9.68521 18.0838 8.91385 17.6134 8.23186ZM18.5 13C18.5 14.933 16.933 16.5 15 16.5H9C7.067 16.5 5.5 14.933 5.5 13V11.5H18.5V13ZM7.5 19C7.5 18.1716 8.17157 17.5 9 17.5C9.82843 17.5 10.5 18.1716 10.5 19C10.5 19.8284 9.82843 20.5 9 20.5C8.17157 20.5 7.5 19.8284 7.5 19ZM14.5 19C14.5 18.1716 15.1716 17.5 16 17.5C16.8284 17.5 17.5 18.1716 17.5 19C17.5 19.8284 16.8284 20.5 16 20.5C15.1716 20.5 14.5 19.8284 14.5 19Z" fill="#00164E"/>
</svg>
