<svg width="24" height="24" viewBox="0 0 24 24" fill="none" xmlns="http://www.w3.org/2000/svg">
<path fill-rule="evenodd" clip-rule="evenodd" d="M11.9509 1.91138C12.0836 1.91138 12.2108 1.9641 12.3046 2.05794L21.8657 11.6253C22.0086 11.7683 22.0513 11.9834 21.9739 12.1702C21.8965 12.357 21.7142 12.4788 21.512 12.4788H2.38991C2.18771 12.4788 2.00541 12.357 1.928 12.1702C1.85059 11.9834 1.89331 11.7683 2.03624 11.6253L11.5973 2.05794C11.6911 1.9641 11.8183 1.91138 11.9509 1.91138ZM3.59645 11.4788H20.3055L11.9509 3.11872L3.59645 11.4788Z" fill="#00164E"/>
<path d="M1.928 11.7873C2.00541 11.6005 2.18771 11.4788 2.38991 11.4788H21.512C21.7142 11.4788 21.8965 11.6005 21.9739 11.7873C22.0513 11.9741 22.0086 12.1892 21.8657 12.3322L12.3046 21.8996C12.2108 21.9934 12.0836 22.0461 11.9509 22.0461C11.8183 22.0461 11.6911 21.9934 11.5973 21.8996L2.03624 12.3322C1.89331 12.1892 1.85059 11.9741 1.928 11.7873Z" fill="#00164E"/>
</svg>
