<svg width="24" height="24" viewBox="0 0 24 24" fill="none" xmlns="http://www.w3.org/2000/svg">
<path d="M16.5 2C16.2239 2 16 2.22386 16 2.5C16 2.77614 16.2239 3 16.5 3H18.2847L14.9226 6.28645L10.2515 3.56786C10.08 3.46804 9.86568 3.4791 9.70535 3.59606L4.34535 7.50606C4.12225 7.6688 4.07333 7.98158 4.23607 8.20467C4.39881 8.42776 4.71159 8.47668 4.93468 8.31394L10.0308 4.59644L14.7485 7.34214C14.9428 7.45523 15.1887 7.42472 15.3495 7.26755L19 3.6992V5.5C19 5.77614 19.2239 6 19.5 6C19.7761 6 20 5.77614 20 5.5V2.5C20 2.22386 19.7761 2 19.5 2H16.5Z" fill="#00164E"/>
<path d="M13.5 9.5C13.5 9.22386 13.7239 9 14 9H17C17.2761 9 17.5 9.22386 17.5 9.5V11.5C17.5 11.7761 17.2761 12 17 12C16.7239 12 16.5 11.7761 16.5 11.5V10H14.5V12.5C14.5 12.7761 14.2761 13 14 13C13.7239 13 13.5 12.7761 13.5 12.5V9.5Z" fill="#00164E"/>
<path fill-rule="evenodd" clip-rule="evenodd" d="M8.5 10C8.22386 10 8 10.2239 8 10.5V19H7V12.5C7 12.2239 6.77614 12 6.5 12H3.5C3.22386 12 3 12.2239 3 12.5V19H2C1.72386 19 1.5 19.2239 1.5 19.5C1.5 19.7761 1.72386 20 2 20H13.7578C14.565 21.206 15.9398 22 17.5 22C19.9853 22 22 19.9853 22 17.5C22 15.0147 19.9853 13 17.5 13C15.0147 13 13 15.0147 13 17.5C13 18.026 13.0902 18.5308 13.2561 19H12V10.5C12 10.2239 11.7761 10 11.5 10H8.5ZM14.5747 19.4224C14.8372 19.821 15.179 20.1628 15.5776 20.4253C15.4735 20.2001 15.3818 19.9558 15.304 19.696C15.0442 19.6182 14.7999 19.5265 14.5747 19.4224ZM15.0649 18.5465C15.0064 18.5208 14.9498 18.4943 14.8952 18.467C14.2245 18.1316 14 17.7609 14 17.5C14 17.2391 14.2245 16.8684 14.8952 16.533C14.9498 16.5057 15.0064 16.4792 15.0649 16.4535C15.0223 16.7906 15 17.1412 15 17.5C15 17.8588 15.0223 18.2094 15.0649 18.5465ZM16.4535 19.9351C16.4792 19.9936 16.5057 20.0502 16.533 20.1048C16.8684 20.7755 17.2391 21 17.5 21C17.7609 21 18.1316 20.7755 18.467 20.1048C18.4943 20.0502 18.5208 19.9936 18.5465 19.9351C18.2094 19.9777 17.8588 20 17.5 20C17.1412 20 16.7906 19.9777 16.4535 19.9351ZM18.8706 18.8706C18.4516 18.9533 17.9894 19 17.5 19C17.0106 19 16.5484 18.9533 16.1294 18.8706C16.0467 18.4516 16 17.9894 16 17.5C16 17.0106 16.0467 16.5484 16.1294 16.1294C16.5484 16.0467 17.0106 16 17.5 16C17.9894 16 18.4516 16.0467 18.8706 16.1294C18.9533 16.5484 19 17.0106 19 17.5C19 17.9894 18.9533 18.4516 18.8706 18.8706ZM19.696 19.696C19.6182 19.9558 19.5265 20.2001 19.4224 20.4253C19.821 20.1628 20.1628 19.821 20.4253 19.4224C20.2001 19.5265 19.9558 19.6182 19.696 19.696ZM20.4253 15.5776C20.1628 15.179 19.821 14.8372 19.4224 14.5747C19.5265 14.7999 19.6182 15.0442 19.696 15.304C19.9558 15.3818 20.2001 15.4735 20.4253 15.5776ZM19.9351 16.4535C19.9936 16.4792 20.0502 16.5057 20.1048 16.533C20.7755 16.8684 21 17.2391 21 17.5C21 17.7609 20.7755 18.1316 20.1048 18.467C20.0502 18.4943 19.9936 18.5208 19.9351 18.5465C19.9777 18.2094 20 17.8588 20 17.5C20 17.1412 19.9777 16.7906 19.9351 16.4535ZM18.5465 15.0649C18.5208 15.0064 18.4943 14.9498 18.467 14.8952C18.1316 14.2245 17.7609 14 17.5 14C17.2391 14 16.8684 14.2245 16.533 14.8952C16.5057 14.9498 16.4792 15.0064 16.4535 15.0649C16.7906 15.0223 17.1412 15 17.5 15C17.8588 15 18.2094 15.0223 18.5465 15.0649ZM15.304 15.304C15.3818 15.0442 15.4735 14.7999 15.5776 14.5747C15.179 14.8372 14.8372 15.179 14.5747 15.5776C14.7999 15.4735 15.0442 15.3818 15.304 15.304ZM11 19V11H9V19H11ZM6 13V19H4V13H6Z" fill="#00164E"/>
</svg>
