<svg width="24" height="24" viewBox="0 0 24 24" fill="none" xmlns="http://www.w3.org/2000/svg">
<path d="M9 11C9 11.5523 8.55228 12 8 12C7.44772 12 7 11.5523 7 11C7 10.4477 7.44772 10 8 10C8.55228 10 9 10.4477 9 11Z" fill="#00164E"/>
<path d="M12 12C12.5523 12 13 11.5523 13 11C13 10.4477 12.5523 10 12 10C11.4477 10 11 10.4477 11 11C11 11.5523 11.4477 12 12 12Z" fill="#00164E"/>
<path d="M16 12C16.5523 12 17 11.5523 17 11C17 10.4477 16.5523 10 16 10C15.4477 10 15 10.4477 15 11C15 11.5523 15.4477 12 16 12Z" fill="#00164E"/>
<path fill-rule="evenodd" clip-rule="evenodd" d="M7.6857 18.9642L12.5963 17H16C19.3137 17 22 14.3137 22 11C22 7.68629 19.3137 5 16 5H8C4.68629 5 2 7.68629 2 11C2 13.9731 4.16208 16.4407 7 16.917V18.5C7 18.6659 7.0823 18.821 7.21969 18.914C7.35707 19.007 7.53165 19.0259 7.6857 18.9642ZM8 6C5.23858 6 3 8.23858 3 11C3 13.6079 4.997 15.75 7.54488 15.9796C7.80875 16.0034 8.00619 16.2281 7.99988 16.4892L8 16.5V17.7615L12.3038 16.04C12.3361 16.0262 12.3701 16.0157 12.4054 16.0089C12.4408 16.0021 12.4762 15.9992 12.5113 16H16C18.7614 16 21 13.7614 21 11C21 8.23858 18.7614 6 16 6H8Z" fill="#00164E"/>
</svg>
