<svg width="24" height="24" viewBox="0 0 24 24" fill="none" xmlns="http://www.w3.org/2000/svg">
<path d="M17.902 4.00956C17.6312 4.06372 17.4556 4.32713 17.5097 4.59791L17.6533 5.31583C17.0663 4.77127 16.4063 4.33267 15.6906 4.03762C15.4353 3.93238 15.143 4.05403 15.0378 4.30933C14.9325 4.56464 15.0542 4.85691 15.3095 4.96215C17.6998 5.94747 19.4934 8.95679 19.5 11.9832L19.4998 11.9893C19.4998 11.9915 19.4998 11.9937 19.4998 11.996C19.4997 12.0026 19.4998 12.0092 19.5 12.0158C19.4937 15.0425 17.7 18.0522 15.3095 19.0376C15.0542 19.1429 14.9325 19.4351 15.0378 19.6904C15.1391 19.9362 15.4138 20.0582 15.6619 19.973C15.671 19.97 15.6811 19.9661 15.6924 19.9614L21.6924 17.4614C21.9473 17.3552 22.0679 17.0625 21.9617 16.8076C21.8555 16.5527 21.5627 16.4321 21.3078 16.5383L19.1819 17.4241L21.9001 13.7999C22.0658 13.579 22.021 13.2656 21.8001 13.0999C21.5792 12.9342 21.2658 12.979 21.1001 13.1999L20.1589 14.4548C20.3683 13.6997 20.4862 12.9182 20.4989 12.14L21.9286 9.7572C22.0706 9.52041 21.9938 9.21328 21.7571 9.07121C21.5203 8.92913 21.2131 9.00592 21.0711 9.24271L20.3596 10.4286C20.2758 9.95653 20.1558 9.4901 20.0026 9.03605L20.4902 6.59803C20.5443 6.32725 20.3687 6.06384 20.098 6.00968C19.8272 5.95553 19.5638 6.13114 19.5096 6.40192L19.301 7.44484C19.2044 7.27043 19.1025 7.09969 18.9956 6.93313C18.9942 6.92271 18.9924 6.91226 18.9903 6.90179L18.4903 4.40179C18.4362 4.13101 18.1728 3.95541 17.902 4.00956Z" fill="#00164E"/>
<path d="M6.0978 4.00968C6.36858 4.06384 6.54419 4.32725 6.49003 4.59803L6.34645 5.31596C6.93344 4.77139 7.59344 4.33279 8.3092 4.03774C8.56451 3.9325 8.85678 4.05415 8.96202 4.30946C9.06726 4.56476 8.94561 4.85704 8.69031 4.96228C6.30001 5.94759 4.50634 8.95691 4.49977 11.9833C4.50013 11.9942 4.50013 12.0051 4.49977 12.0159C4.50604 15.0426 6.29981 18.0523 8.69031 19.0377C8.94561 19.143 9.06726 19.4353 8.96202 19.6906C8.8607 19.9364 8.58599 20.0583 8.33784 19.9731C8.3288 19.9701 8.31865 19.9663 8.30734 19.9615L2.30733 17.4615C2.05243 17.3553 1.9319 17.0626 2.0381 16.8077C2.14431 16.5528 2.43705 16.4323 2.69195 16.5385L4.81785 17.4243L2.09967 13.8C1.93399 13.5791 1.97876 13.2657 2.19967 13.1C2.42059 12.9343 2.73399 12.9791 2.89967 13.2L3.84087 14.455C3.63143 13.6998 3.51358 12.9183 3.5009 12.1401L2.07122 9.75732C1.92914 9.52053 2.00593 9.2134 2.24272 9.07133C2.47951 8.92926 2.78664 9.00604 2.92871 9.24283L3.64022 10.4287C3.72396 9.95665 3.84398 9.49022 3.99719 9.03617L3.50958 6.59815C3.45543 6.32737 3.63103 6.06396 3.90181 6.00981C4.17259 5.95565 4.43601 6.13126 4.49016 6.40204L4.69875 7.44496C4.79542 7.27055 4.89732 7.09982 5.00419 6.93325C5.00561 6.92283 5.00736 6.91238 5.00945 6.90192L5.50945 4.40192C5.56361 4.13114 5.82702 3.95553 6.0978 4.00968Z" fill="#00164E"/>
<path fill-rule="evenodd" clip-rule="evenodd" d="M10.0023 6.51204C9.68607 6.98033 9.54697 7.52862 9.51031 8H8C7.72386 8 7.5 8.22386 7.5 8.5V15.3235C7.5 16.2494 8.25058 17 9.17647 17H14.8235C15.7494 17 16.5 16.2494 16.5 15.3235V8.5C16.5 8.22386 16.2761 8 16 8H14.4897C14.453 7.52862 14.3139 6.98033 13.9977 6.51204C13.603 5.92756 12.9507 5.5 12 5.5C11.0493 5.5 10.397 5.92756 10.0023 6.51204ZM10.831 7.07167C10.6484 7.34214 10.5492 7.68112 10.5145 8H13.4855C13.4508 7.68112 13.3516 7.34214 13.169 7.07167C12.9525 6.75117 12.6049 6.5 12 6.5C11.3951 6.5 11.0475 6.75117 10.831 7.07167ZM8.5 15.3235C8.5 15.6971 8.80287 16 9.17647 16H14.8235C15.1971 16 15.5 15.6971 15.5 15.3235V9H14.5V10C14.5 10.2761 14.2761 10.5 14 10.5C13.7239 10.5 13.5 10.2761 13.5 10V9H10.5V10C10.5 10.2761 10.2761 10.5 10 10.5C9.72386 10.5 9.5 10.2761 9.5 10V9H8.5V15.3235Z" fill="#00164E"/>
</svg>
