<svg width="24" height="24" viewBox="0 0 24 24" fill="none" xmlns="http://www.w3.org/2000/svg">
<path d="M11.5 14C11.2239 14 11 14.2239 11 14.5C11 14.7761 11.2239 15 11.5 15H12.5C12.7761 15 13 14.7761 13 14.5C13 14.2239 12.7761 14 12.5 14H11.5Z" fill="#00164E"/>
<path d="M11 16.5C11 16.2239 11.2239 16 11.5 16H12.5C12.7761 16 13 16.2239 13 16.5C13 16.7761 12.7761 17 12.5 17H11.5C11.2239 17 11 16.7761 11 16.5Z" fill="#00164E"/>
<path d="M6.5 14C6.22386 14 6 14.2239 6 14.5C6 14.7761 6.22386 15 6.5 15H7.5C7.77614 15 8 14.7761 8 14.5C8 14.2239 7.77614 14 7.5 14H6.5Z" fill="#00164E"/>
<path d="M6 16.5C6 16.2239 6.22386 16 6.5 16H7.5C7.77614 16 8 16.2239 8 16.5C8 16.7761 7.77614 17 7.5 17H6.5C6.22386 17 6 16.7761 6 16.5Z" fill="#00164E"/>
<path fill-rule="evenodd" clip-rule="evenodd" d="M17.5 4.5C17.5 4.22386 17.2761 4 17 4C16.7239 4 16.5 4.22386 16.5 4.5V6H14.5C14.2239 6 14 6.22386 14 6.5V12.4597L9.81235 9.10957C9.66226 8.9895 9.45664 8.96609 9.28341 9.04935C9.11017 9.13261 9 9.3078 9 9.5V12.4597L4.81235 9.10957C4.66226 8.9895 4.45664 8.96609 4.28341 9.04935C4.11017 9.13261 4 9.3078 4 9.5V20.5C4 20.7761 4.22386 21 4.5 21L19.5 21C19.7761 21 20 20.7761 20 20.5V6.5C20 6.22386 19.7761 6 19.5 6H17.5V4.5ZM10 10.5403L14 13.7403V20H10V10.5403ZM9 13.7403L5 10.5403V20H9V13.7403ZM15 7V20H19V7H15Z" fill="#00164E"/>
</svg>
