<svg width="24" height="24" viewBox="0 0 24 24" fill="none" xmlns="http://www.w3.org/2000/svg">
<path d="M12.4999 9C12.4999 8.72386 12.2761 8.5 11.9999 8.5C11.7238 8.5 11.4999 8.72386 11.4999 9V11.5H8.99991C8.72377 11.5 8.49991 11.7239 8.49991 12C8.49991 12.2761 8.72377 12.5 8.99991 12.5H11.4999V15C11.4999 15.2761 11.7238 15.5 11.9999 15.5C12.2761 15.5 12.4999 15.2761 12.4999 15V12.5H14.9999C15.2761 12.5 15.4999 12.2761 15.4999 12C15.4999 11.7239 15.2761 11.5 14.9999 11.5H12.4999V9Z" fill="#00164E"/>
<path fill-rule="evenodd" clip-rule="evenodd" d="M11.9997 2.98992C11.942 2.96927 11.8794 2.95899 11.8143 2.96124C10.2308 3.0161 8.84691 3.69269 7.78021 4.80599C6.86676 5.74699 6.30955 7.07969 6.09858 8.33447C6.09633 8.34786 6.09463 8.36133 6.09347 8.37486L6.00126 9.45529L6.0002 9.4705L5.99689 9.5309C5.99389 9.58296 5.98906 9.66026 5.98208 9.75571C5.968 9.94806 5.94521 10.214 5.91048 10.5082C5.83699 11.1307 5.72285 11.7593 5.57459 12.1211C5.44304 12.4421 5.21157 12.8214 4.88667 13.3497C4.81345 13.4688 4.7363 13.5942 4.65643 13.7256C4.24675 14.3997 3.77673 15.2164 3.44847 16.1428C3.42375 16.2126 3.39775 16.2829 3.37034 16.3567C3.37034 16.3567 3.37034 16.3567 3.37034 16.3567C3.36643 16.3672 3.36248 16.3778 3.35851 16.3885L3.34942 16.4129C3.18954 16.8424 2.99091 17.376 2.9998 18.0145C3.00741 18.5613 3.45285 19.0006 3.9997 19.0006H8.64518C9.07575 20.4459 10.4142 21.5 11.9999 21.5C13.5857 21.5 14.9241 20.4459 15.3546 19.0006H19.9997C20.5466 19.0006 20.992 18.5613 20.9996 18.0145C21.0085 17.3757 20.8098 16.8419 20.6497 16.412L20.6406 16.3876C20.6089 16.3024 20.5791 16.2222 20.5509 16.1426C20.2302 15.2383 19.7903 14.4297 19.3865 13.7448C19.2477 13.5095 19.1151 13.2916 18.9927 13.0902L18.992 13.0891C18.7433 12.6804 18.5431 12.3506 18.3943 12.0531C18.2462 11.7569 18.1558 11.1943 18.1262 10.5774C18.1227 10.5057 18.1043 10.4383 18.0742 10.378C18.0476 10.136 18.0294 9.91924 18.0174 9.75571C18.0104 9.66035 18.0056 9.58296 18.0026 9.5309L17.9993 9.4705L17.9982 9.45529L17.906 8.37486C17.9051 8.36471 17.904 8.3546 17.9025 8.34453C17.9022 8.34285 17.902 8.34117 17.9017 8.3395C17.9015 8.33782 17.9012 8.33614 17.9009 8.33447C17.6899 7.07972 17.1328 5.74706 16.2193 4.80606C15.1526 3.69273 13.7687 3.0161 12.1852 2.96124C12.1201 2.95899 12.0575 2.96927 11.9997 2.98992ZM9.70805 19.0006C10.094 19.8834 10.9754 20.5 11.9999 20.5C13.0244 20.5 13.9058 19.8834 14.2918 19.0006H9.70805ZM17.1353 10.7696C17.1155 10.7249 17.1019 10.6765 17.0959 10.6254C17.059 10.313 17.0349 10.0318 17.0201 9.82869C17.0126 9.72714 17.0075 9.64512 17.0042 9.58849L17.0042 9.587L17.0012 9.53272L16.9114 8.48057C16.7225 7.37789 16.2353 6.2577 15.5008 5.50153L15.4983 5.49897C14.5968 4.55752 13.4532 4.00577 12.1506 3.96064C12.0977 3.95881 12.047 3.94884 11.9997 3.93197C11.9524 3.94884 11.9018 3.95881 11.8489 3.96064C10.5463 4.00577 9.40273 4.55752 8.50118 5.49897L8.49869 5.50153C7.76415 6.2577 7.277 7.37789 7.08809 8.48057L6.99829 9.53272L6.99532 9.587L6.99523 9.58849C6.99197 9.64512 6.98684 9.72714 6.97941 9.82869C6.96455 10.0318 6.94047 10.313 6.90358 10.6254C6.82984 11.2501 6.70485 12.0002 6.49991 12.5003C6.33386 12.9055 6.05856 13.3531 5.75688 13.8436L5.73849 13.8735C5.6651 13.9929 5.58928 14.1162 5.51098 14.245C5.10808 14.9079 4.68328 15.6521 4.39104 16.4768C4.36006 16.5643 4.32748 16.6518 4.29646 16.7352L4.29575 16.7371C4.12843 17.1869 3.9936 17.5625 3.9997 18.0006L19.9997 18.0006C20.0058 17.5622 19.8709 17.1865 19.7034 16.7363L19.7027 16.7344L19.7023 16.7334C19.6715 16.6506 19.6391 16.5636 19.6084 16.4768C19.3196 15.6624 18.9174 14.9182 18.525 14.2527C18.3901 14.0238 18.2607 13.8111 18.1376 13.6089L18.1296 13.5957C17.8906 13.2027 17.6692 12.8388 17.4999 12.5003C17.2688 12.038 17.1723 11.3622 17.1353 10.7696Z" fill="#00164E"/>
</svg>
