<svg width="24" height="24" viewBox="0 0 24 24" fill="none" xmlns="http://www.w3.org/2000/svg">
<path fill-rule="evenodd" clip-rule="evenodd" d="M14 5.5C14.8284 5.5 15.5 6.17157 15.5 7V7.5H19.5C20.6046 7.5 21.5 8.39543 21.5 9.5V17.5C21.5 18.0523 21.0523 18.5 20.5 18.5H3.5C2.94772 18.5 2.5 18.0523 2.5 17.5V9.5C2.5 8.39543 3.39543 7.5 4.5 7.5H8.5V7C8.5 6.17157 9.17157 5.5 10 5.5H14ZM20.5 9.5C20.5 8.94772 20.0523 8.5 19.5 8.5H4.5C3.94772 8.5 3.5 8.94772 3.5 9.5V11.5H6.25V11C6.25 10.5858 6.58579 10.25 7 10.25C7.41421 10.25 7.75 10.5858 7.75 11V11.5H16.25V11C16.25 10.5858 16.5858 10.25 17 10.25C17.4142 10.25 17.75 10.5858 17.75 11V11.5H20.5V9.5ZM7 13.75C7.41421 13.75 7.75 13.4142 7.75 13V12.5H16.25V13C16.25 13.4142 16.5858 13.75 17 13.75C17.4142 13.75 17.75 13.4142 17.75 13V12.5H20.5V17.5H3.5V12.5H6.25V13C6.25 13.4142 6.58579 13.75 7 13.75ZM14 6.5C14.2761 6.5 14.5 6.72386 14.5 7V7.5H9.5V7C9.5 6.72386 9.72386 6.5 10 6.5H14Z" fill="#00164E"/>
</svg>
