<svg width="24" height="24" viewBox="0 0 24 24" fill="none" xmlns="http://www.w3.org/2000/svg">
<path fill-rule="evenodd" clip-rule="evenodd" d="M15 6.5C15 7.84473 14.3364 9.03448 13.3189 9.75966C14.3589 10.0628 15.3164 10.624 16.0962 11.4038C16.3065 11.6141 16.501 11.8374 16.6787 12.0717C17.0214 11.9841 17.3805 11.9375 17.7505 11.9375C20.1322 11.9375 22.063 13.8683 22.063 16.25C22.063 18.6317 20.1322 20.5625 17.7505 20.5625C16.7623 20.5625 15.8517 20.2301 15.1245 19.671L12.6705 22.125C12.4508 22.3447 12.0947 22.3447 11.875 22.125C11.6553 21.9053 11.6553 21.5492 11.875 21.3295L14.329 18.8755C14.2366 18.7552 14.1503 18.6299 14.0708 18.5H6.2C5.61652 18.5 5.05694 18.2682 4.64437 17.8556C4.23179 17.4431 4 16.8835 4 16.3V16C4 14.2761 4.68482 12.6228 5.90381 11.4038C6.68359 10.624 7.6411 10.0628 8.68113 9.75966C7.66357 9.03448 7 7.84473 7 6.5C7 4.29086 8.79086 2.5 11 2.5C13.2091 2.5 15 4.29086 15 6.5ZM8 6.5C8 4.84315 9.34315 3.5 11 3.5C12.6569 3.5 14 4.84315 14 6.5C14 8.15685 12.6569 9.5 11 9.5C9.34315 9.5 8 8.15685 8 6.5ZM13.6219 17.5C13.5023 17.1044 13.438 16.6847 13.438 16.25C13.438 14.609 14.3545 13.1821 15.7037 12.4533C15.604 12.3352 15.4991 12.221 15.3891 12.1109C14.3576 11.0795 12.9587 10.5 11.5 10.5H10.5C9.04131 10.5 7.64236 11.0795 6.61091 12.1109C5.57946 13.1424 5 14.5413 5 16V16.3C5 16.6183 5.12643 16.9235 5.35147 17.1485C5.57652 17.3736 5.88174 17.5 6.2 17.5H13.6219ZM17.7505 13.0625C19.5109 13.0625 20.938 14.4896 20.938 16.25C20.938 18.0104 19.5109 19.4375 17.7505 19.4375C15.9901 19.4375 14.563 18.0104 14.563 16.25C14.563 14.4896 15.9901 13.0625 17.7505 13.0625Z" fill="#00164E"/>
</svg>
