<svg width="24" height="24" viewBox="0 0 24 24" fill="none" xmlns="http://www.w3.org/2000/svg">
<path d="M5 4.5C5 3.11929 6.11929 2 7.5 2H14.5C15.8807 2 17 3.11929 17 4.5V6C17 6.27614 16.7761 6.5 16.5 6.5C16.2239 6.5 16 6.27614 16 6V4.5C16 3.67157 15.3284 3 14.5 3H7.5C6.67157 3 6 3.67157 6 4.5V19.5C6 20.3284 6.67157 21 7.5 21H14.5C15.3284 21 16 20.3284 16 19.5V19C16 18.7239 16.2239 18.5 16.5 18.5C16.7761 18.5 17 18.7239 17 19V19.5C17 20.8807 15.8807 22 14.5 22H7.5C6.11929 22 5 20.8807 5 19.5V4.5Z" fill="#00164E"/>
<path d="M11 19.5C11.5523 19.5 12 19.0523 12 18.5C12 17.9477 11.5523 17.5 11 17.5C10.4477 17.5 10 17.9477 10 18.5C10 19.0523 10.4477 19.5 11 19.5Z" fill="#00164E"/>
<path d="M16 12.5C16 12.6326 16.0527 12.7598 16.1464 12.8536L17.1464 13.8536C17.3417 14.0488 17.6583 14.0488 17.8536 13.8536C18.0488 13.6583 18.0488 13.3417 17.8536 13.1464L17 12.2929V10C17 9.72386 16.7761 9.5 16.5 9.5C16.2239 9.5 16 9.72386 16 10V12.5Z" fill="#00164E"/>
<path fill-rule="evenodd" clip-rule="evenodd" d="M11.5 12.5C11.5 9.73858 13.7386 7.5 16.5 7.5C19.2614 7.5 21.5 9.73858 21.5 12.5C21.5 15.2614 19.2614 17.5 16.5 17.5C13.7386 17.5 11.5 15.2614 11.5 12.5ZM16.5 8.5C14.2909 8.5 12.5 10.2909 12.5 12.5C12.5 14.7091 14.2909 16.5 16.5 16.5C18.7091 16.5 20.5 14.7091 20.5 12.5C20.5 10.2909 18.7091 8.5 16.5 8.5Z" fill="#00164E"/>
</svg>
