<svg width="24" height="24" viewBox="0 0 24 24" fill="none" xmlns="http://www.w3.org/2000/svg">
<path fill-rule="evenodd" clip-rule="evenodd" d="M7 3.5C7 3.22386 6.77614 3 6.5 3C6.22386 3 6 3.22386 6 3.5V4H3.5C3.10218 4 2.72064 4.15804 2.43934 4.43934C2.15804 4.72064 2 5.10218 2 5.5L2.00032 17.8962C1.9886 18.7023 2.29543 19.4804 2.85425 20.0616C3.41403 20.6438 4.18125 20.9812 4.98867 21H11C11.2761 21 11.5 20.7761 11.5 20.5C11.5 20.2239 11.2761 20 11 20H5.00649C4.46495 19.9859 3.95066 19.7591 3.57508 19.3685C3.19824 18.9766 2.99168 18.4516 3.00032 17.9079V10H19.0303V12C19.0303 12.2761 19.2542 12.5 19.5303 12.5C19.8065 12.5 20.0303 12.2761 20.0303 12V9.5C20.0303 9.43961 20.0196 9.38172 20 9.32812V5.5C20 5.10218 19.842 4.72065 19.5607 4.43934C19.2794 4.15803 18.8978 4 18.5 4H16V3.5C16 3.22386 15.7761 3 15.5 3C15.2239 3 15 3.22386 15 3.5V4H11.5V3.5C11.5 3.22386 11.2761 3 11 3C10.7239 3 10.5 3.22386 10.5 3.5V4H7V3.5ZM18.8536 5.14645C18.9473 5.24021 19 5.36739 19 5.5V9H3V5.5C3 5.36739 3.05268 5.24021 3.14645 5.14645C3.24021 5.05268 3.36739 5 3.5 5H6V6.5C6 6.77614 6.22386 7 6.5 7C6.77614 7 7 6.77614 7 6.5V5H10.5V6.5C10.5 6.77614 10.7239 7 11 7C11.2761 7 11.5 6.77614 11.5 6.5V5H15V6.5C15 6.77614 15.2239 7 15.5 7C15.7761 7 16 6.77614 16 6.5V5H18.5C18.6326 5 18.7598 5.05268 18.8536 5.14645Z" fill="#00164E"/>
<path d="M17.7071 18L18.8536 19.1464C19.0488 19.3417 19.0488 19.6583 18.8536 19.8536C18.6583 20.0488 18.3417 20.0488 18.1464 19.8536L17 18.7071L15.8536 19.8536C15.6583 20.0488 15.3417 20.0488 15.1464 19.8536C14.9512 19.6583 14.9512 19.3417 15.1464 19.1464L16.2929 18L15.1464 16.8536C14.9512 16.6583 14.9512 16.3417 15.1464 16.1464C15.3417 15.9512 15.6583 15.9512 15.8536 16.1464L17 17.2929L18.1464 16.1464C18.3417 15.9512 18.6583 15.9512 18.8536 16.1464C19.0488 16.3417 19.0488 16.6583 18.8536 16.8536L17.7071 18Z" fill="#00164E"/>
<path fill-rule="evenodd" clip-rule="evenodd" d="M17 13C14.2386 13 12 15.2386 12 18C12 20.7614 14.2386 23 17 23C19.7614 23 22 20.7614 22 18C22 15.2386 19.7614 13 17 13ZM13 18C13 15.7909 14.7909 14 17 14C19.2091 14 21 15.7909 21 18C21 20.2091 19.2091 22 17 22C14.7909 22 13 20.2091 13 18Z" fill="#00164E"/>
</svg>
