<svg width="24" height="24" viewBox="0 0 24 24" fill="none" xmlns="http://www.w3.org/2000/svg">
<path d="M4.5 12C4.22386 12 4 11.7761 4 11.5L4 7.5C4 6.57175 4.36875 5.68151 5.02512 5.02513C5.6815 4.36875 6.57174 4 7.5 4H9.2929L8.14645 2.85355C7.95118 2.65829 7.95118 2.34171 8.14645 2.14645C8.34171 1.95118 8.65829 1.95118 8.85355 2.14645L10.8536 4.14645C10.9018 4.19471 10.9382 4.25039 10.9626 4.30981C10.9867 4.36844 11 4.43267 11 4.50001C11 4.56826 10.9863 4.63332 10.9616 4.69259C10.9387 4.74755 10.9055 4.79925 10.8621 4.84478L10.8525 4.85458L8.85355 6.85356C8.65829 7.04882 8.34171 7.04882 8.14645 6.85356C7.95118 6.65829 7.95118 6.34171 8.14645 6.14645L9.29289 5H7.5C6.83696 5 6.20107 5.2634 5.73223 5.73224C5.26339 6.20108 5 6.83696 5 7.5L5 11.5C5 11.7761 4.77614 12 4.5 12Z" fill="#00164E"/>
<path fill-rule="evenodd" clip-rule="evenodd" d="M13.5 2C13.2239 2 13 2.22386 13 2.5V9.5C13 9.77614 13.2239 10 13.5 10H21.5C21.7761 10 22 9.77614 22 9.5V2.5C22 2.22386 21.7761 2 21.5 2H13.5ZM14 9V3H21V9H14Z" fill="#00164E"/>
<path d="M2 14.5C2 14.2239 2.22386 14 2.5 14H10.5C10.7761 14 11 14.2239 11 14.5V21.5C11 21.7761 10.7761 22 10.5 22H2.5C2.22386 22 2 21.7761 2 21.5V14.5Z" fill="#00164E"/>
<path d="M20 12.5C20 12.2239 19.7761 12 19.5 12C19.2239 12 19 12.2239 19 12.5V16.5C19 17.163 18.7366 17.7989 18.2678 18.2678C17.7989 18.7366 17.163 19 16.5 19H14.7071L15.8536 17.8536C16.0488 17.6583 16.0488 17.3417 15.8536 17.1465C15.6583 16.9512 15.3417 16.9512 15.1464 17.1465L13.1475 19.1454L13.1379 19.1552C13.0945 19.2008 13.0613 19.2525 13.0384 19.3074C13.0137 19.3667 13 19.4317 13 19.5C13 19.5673 13.0133 19.6316 13.0374 19.6902C13.0618 19.7496 13.0982 19.8053 13.1464 19.8536L15.1464 21.8536C15.3417 22.0488 15.6583 22.0488 15.8536 21.8536C16.0488 21.6583 16.0488 21.3417 15.8536 21.1465L14.7071 20H16.5C17.4283 20 18.3185 19.6313 18.9749 18.9749C19.6313 18.3185 20 17.4283 20 16.5V12.5Z" fill="#00164E"/>
</svg>
