<svg width="24" height="24" viewBox="0 0 24 24" fill="none" xmlns="http://www.w3.org/2000/svg">
<path fill-rule="evenodd" clip-rule="evenodd" d="M4.5 17C3.11929 17 2 15.8807 2 14.5V6.5C2 5.11929 3.11929 4 4.5 4H18.5C19.8807 4 21 5.11929 21 6.5V12.5C21 12.7761 20.7761 13 20.5 13C20.2239 13 20 12.7761 20 12.5V11H3V14.5C3 15.3284 3.67157 16 4.5 16H10C10.2761 16 10.5 16.2239 10.5 16.5C10.5 16.7761 10.2761 17 10 17H4.5ZM4.5 5C3.67157 5 3 5.67157 3 6.5V8H20V6.5C20 5.67157 19.3284 5 18.5 5H4.5Z" fill="#00164E"/>
<path d="M5 12.5C4.72386 12.5 4.5 12.7239 4.5 13C4.5 13.2761 4.72386 13.5 5 13.5H9C9.27614 13.5 9.5 13.2761 9.5 13C9.5 12.7239 9.27614 12.5 9 12.5H5Z" fill="#00164E"/>
<path fill-rule="evenodd" clip-rule="evenodd" d="M16.5 12.5C14.0147 12.5 12 14.5147 12 17C12 19.4853 14.0147 21.5 16.5 21.5C18.9853 21.5 21 19.4853 21 17C21 14.5147 18.9853 12.5 16.5 12.5ZM13 17C13 15.067 14.567 13.5 16.5 13.5C17.1734 13.5 17.8024 13.6902 18.3362 14.0197L13.9334 19.3796C13.3541 18.7552 13 17.9189 13 17ZM14.7108 20.0087L19.1036 14.6609C19.6609 15.2808 20 16.1008 20 17C20 18.933 18.433 20.5 16.5 20.5C15.8462 20.5 15.2343 20.3208 14.7108 20.0087Z" fill="#00164E"/>
</svg>
