<svg width="24" height="24" viewBox="0 0 24 24" fill="none" xmlns="http://www.w3.org/2000/svg">
<path d="M4.5 2C3.11929 2 2 3.11929 2 4.5V19.5C2 20.8807 3.11929 22 4.5 22H11.5C12.8807 22 14 20.8807 14 19.5V18.5C14 18.2239 13.7761 18 13.5 18C13.2239 18 13 18.2239 13 18.5V19.5C13 20.3284 12.3284 21 11.5 21H4.5C3.67157 21 3 20.3284 3 19.5V4.5C3 3.67157 3.67157 3 4.5 3H11.5C12.3284 3 13 3.67157 13 4.5V5C13 5.27614 13.2239 5.5 13.5 5.5C13.7761 5.5 14 5.27614 14 5V4.5C14 3.11929 12.8807 2 11.5 2H4.5Z" fill="#00164E"/>
<path d="M14 12C14.5523 12 15 11.5523 15 11C15 10.4477 14.5523 10 14 10C13.4477 10 13 10.4477 13 11C13 11.5523 13.4477 12 14 12Z" fill="#00164E"/>
<path d="M18 11C18 11.5523 17.5523 12 17 12C16.4477 12 16 11.5523 16 11C16 10.4477 16.4477 10 17 10C17.5523 10 18 10.4477 18 11Z" fill="#00164E"/>
<path d="M11 12C11.5523 12 12 11.5523 12 11C12 10.4477 11.5523 10 11 10C10.4477 10 10 10.4477 10 11C10 11.5523 10.4477 12 11 12Z" fill="#00164E"/>
<path fill-rule="evenodd" clip-rule="evenodd" d="M10 15.9C7.71776 15.4367 6 13.419 6 11C6 8.23858 8.23858 6 11 6H17C19.7614 6 22 8.23858 22 11C22 13.7614 19.7614 16 17 16H15.2466L10.738 18.4397C10.583 18.5236 10.3954 18.5197 10.2441 18.4295C10.0927 18.3393 10 18.1762 10 18V15.9ZM7 11C7 8.79086 8.79086 7 11 7H17C19.2091 7 21 8.79086 21 11C21 13.2091 19.2091 15 17 15H15.1294C15.1228 14.9999 15.1163 14.9999 15.1098 15H15V15.0145C14.9598 15.0245 14.9202 15.0396 14.882 15.0603L11 17.1609V15C8.79086 15 7 13.2091 7 11Z" fill="#00164E"/>
<path d="M8 20C8.55228 20 9 19.5523 9 19C9 18.4477 8.55228 18 8 18C7.44772 18 7 18.4477 7 19C7 19.5523 7.44772 20 8 20Z" fill="#00164E"/>
</svg>
