<svg width="24" height="24" viewBox="0 0 24 24" fill="none" xmlns="http://www.w3.org/2000/svg">
<path fill-rule="evenodd" clip-rule="evenodd" d="M7.5 13C7.22386 13 7 12.7761 7 12.5V10.5C7 10.2239 7.22386 10 7.5 10H10.5C10.7761 10 11 10.2239 11 10.5V12.5C11 12.7761 10.7761 13 10.5 13H7.5ZM8 11V12H10V11H8Z" fill="#00164E"/>
<path d="M14 10.5C14 10.7761 13.7761 11 13.5 11C13.2239 11 13 10.7761 13 10.5C13 10.2239 13.2239 10 13.5 10C13.7761 10 14 10.2239 14 10.5Z" fill="#00164E"/>
<path d="M15.5 11C15.7761 11 16 10.7761 16 10.5C16 10.2239 15.7761 10 15.5 10C15.2239 10 15 10.2239 15 10.5C15 10.7761 15.2239 11 15.5 11Z" fill="#00164E"/>
<path d="M14 12.5C14 12.7761 13.7761 13 13.5 13C13.2239 13 13 12.7761 13 12.5C13 12.2239 13.2239 12 13.5 12C13.7761 12 14 12.2239 14 12.5Z" fill="#00164E"/>
<path d="M15.5 13C15.7761 13 16 12.7761 16 12.5C16 12.2239 15.7761 12 15.5 12C15.2239 12 15 12.2239 15 12.5C15 12.7761 15.2239 13 15.5 13Z" fill="#00164E"/>
<path fill-rule="evenodd" clip-rule="evenodd" d="M13 4.5C13 4.22386 13.2239 4 13.5 4H17.5C17.7761 4 18 4.22386 18 4.5V6.5C18 6.77614 17.7761 7 17.5 7H16V8H17.4965C18.2767 8 18.9266 8.59799 18.9914 9.37543L19.4601 15H19.5C20.3284 15 21 15.6716 21 16.5V19.5C21 20.3284 20.3284 21 19.5 21H4.5C3.67157 21 3 20.3284 3 19.5V16.5C3 15.6716 3.67157 15 4.5 15H4.53993L5.00865 9.37543C5.07343 8.59799 5.72333 8 6.50347 8H7V5.5C7 5.32671 7.08973 5.16578 7.23713 5.07467C7.38454 4.98357 7.56861 4.97529 7.72361 5.05279L9.5 5.94098L11.2764 5.05279C11.4314 4.97529 11.6155 4.98357 11.7629 5.07467C11.9103 5.16578 12 5.32671 12 5.5V8H15V7H13.5C13.2239 7 13 6.77614 13 6.5V4.5ZM17.9948 9.45848C17.9732 9.19933 17.7566 9 17.4965 9H6.50347C6.24342 9 6.02679 9.19933 6.00519 9.45848L5.5434 15H18.4566L17.9948 9.45848ZM9.72361 6.94721L11 6.30902V8H8V6.30902L9.27639 6.94721C9.41716 7.0176 9.58284 7.0176 9.72361 6.94721ZM20 16.5C20 16.2239 19.7761 16 19.5 16H4.5C4.22386 16 4 16.2239 4 16.5V19.5C4 19.7761 4.22386 20 4.5 20H19.5C19.7761 20 20 19.7761 20 19.5V16.5ZM17 6H14V5H17V6Z" fill="#00164E"/>
</svg>
