<svg width="24" height="24" viewBox="0 0 24 24" fill="none" xmlns="http://www.w3.org/2000/svg">
<path fill-rule="evenodd" clip-rule="evenodd" d="M2 4.5C2 4.22386 2.22386 4 2.5 4H14.5C14.7761 4 15 4.22386 15 4.5V7H16.5C17.5829 7 18.4514 7.60139 19.0156 8.13752C19.3035 8.41102 19.5288 8.68301 19.6822 8.88644C19.7592 8.98855 19.8189 9.07445 19.8601 9.13606C19.8807 9.16689 19.8968 9.19173 19.9081 9.20956L19.9209 9.23002L21.916 12.2227C22.0075 12.3599 22.0222 12.5259 21.9702 12.67C21.9919 12.7907 22 12.9028 22 13V15.5C22 16.1667 21.5652 16.7317 20.9637 16.927C20.7611 18.1043 19.7351 19 18.5 19C17.2905 19 16.2817 18.1411 16.05 17H7.94998C7.71833 18.1411 6.70946 19 5.5 19C4.26487 19 3.23894 18.1043 3.03632 16.927C2.43483 16.7317 2 16.1667 2 15.5V4.5ZM3.09949 15.7994C3.40242 14.7597 4.36249 14 5.5 14C6.7095 14 7.71838 14.8589 7.95 16H16.05C16.2816 14.8589 17.2905 14 18.5 14C19.6375 14 20.5976 14.7597 20.9005 15.7994C20.963 15.716 21 15.6123 21 15.5V13C21 12.8397 20.9532 12.6161 20.7818 12.4349C20.6179 12.2617 20.2669 12.05 19.5 12.05H15V12.5C15 12.7761 14.7761 13 14.5 13H3V15.5C3 15.6123 3.03701 15.716 3.09949 15.7994ZM18.3269 8.86248C17.8386 8.39861 17.2071 8 16.5 8H15V11.05H19.5C19.6571 11.05 19.8059 11.0573 19.9467 11.0714L19.084 9.77735L19.0773 9.76699L19.0722 9.75882L19.0714 9.75756L19.0639 9.74552C19.0566 9.73405 19.0449 9.71592 19.0289 9.69206C18.997 9.6443 18.9482 9.57395 18.8838 9.48856C18.7544 9.31699 18.5652 9.08898 18.3269 8.86248ZM18.5 15C17.6716 15 17 15.6716 17 16.5C17 17.3284 17.6716 18 18.5 18C19.3284 18 20 17.3284 20 16.5C20 15.6716 19.3284 15 18.5 15ZM4 16.5C4 15.6716 4.67157 15 5.5 15C6.32843 15 7 15.6716 7 16.5C7 17.3284 6.32843 18 5.5 18C4.67157 18 4 17.3284 4 16.5ZM14 12H3V5H14V12Z" fill="#00164E"/>
</svg>
