<svg width="24" height="24" viewBox="0 0 24 24" fill="none" xmlns="http://www.w3.org/2000/svg">
<path fill-rule="evenodd" clip-rule="evenodd" d="M11.354 3.17193C11.5507 3.05928 11.7734 3 12 3C12.2266 3 12.4493 3.05927 12.646 3.17193C12.8427 3.2846 13.0064 3.44673 13.1211 3.64219L13.1252 3.64928L21.8319 19.0684C21.9427 19.2637 22.0007 19.4848 22 19.7093C21.9993 19.9339 21.9399 20.1545 21.8278 20.3492C21.7156 20.5439 21.5546 20.7059 21.3606 20.8192C21.1666 20.9325 20.9463 20.9931 20.7217 20.9951L20.7173 20.9952H3.27831C3.05365 20.9932 2.83342 20.9325 2.63942 20.8192C2.4454 20.7059 2.28438 20.5439 2.17225 20.3492C2.06012 20.1546 2.00073 19.934 2.00001 19.7093C1.99928 19.4848 2.05716 19.2641 2.16787 19.0688L10.8748 3.64931L10.8789 3.64219C10.9936 3.44668 11.1574 3.28457 11.354 3.17193ZM12 9C12.5523 9 13 9.44772 13 10V13.5C13 14.0523 12.5523 14.5 12 14.5C11.4477 14.5 11 14.0523 11 13.5V10C11 9.44772 11.4477 9 12 9ZM13 17C13 17.5523 12.5523 18 12 18C11.4477 18 11 17.5523 11 17C11 16.4477 11.4477 16 12 16C12.5523 16 13 16.4477 13 17Z" fill="#00164E"/>
</svg>
