<svg width="24" height="24" viewBox="0 0 24 24" fill="none" xmlns="http://www.w3.org/2000/svg">
<path d="M4.27872 5.43534C5.10857 4.52315 6.23772 4 7.42706 4C8.61604 4 9.74487 4.52284 10.5746 5.43453L10.5754 5.43534L12 6.98783L13.4247 5.43534L13.4254 5.43452C14.2552 4.52284 15.384 4 16.573 4C17.7624 4 18.8914 4.52316 19.7213 5.43534L19.7225 5.4367C20.1303 5.88831 20.4515 6.42302 20.6698 7.00856C20.8882 7.5941 21 8.22067 21 8.85234C21 9.48403 20.8882 10.1104 20.6698 10.696C20.4515 11.2815 20.1303 11.8162 19.7225 12.2678C19.7183 12.2725 19.7139 12.2772 19.7095 12.2817L12.3342 19.849C12.2398 19.9457 12.1104 20.0002 11.9753 20C11.8402 19.9998 11.7109 19.9449 11.6169 19.8478L4.28938 12.2805C4.28534 12.2764 4.28138 12.2721 4.2775 12.2678C3.86965 11.8162 3.54848 11.2815 3.33015 10.696C3.11183 10.1104 3 9.48403 3 8.85234C3 8.22068 3.11183 7.5941 3.33015 7.00856C3.54848 6.42302 3.86965 5.88831 4.2775 5.4367L4.27872 5.43534Z" fill="#00164E"/>
</svg>
