<svg width="24" height="24" viewBox="0 0 24 24" fill="none" xmlns="http://www.w3.org/2000/svg">
<path fill-rule="evenodd" clip-rule="evenodd" d="M11.5 2C11.4013 2 11.3048 2.02922 11.2227 2.08397L8.22265 4.08397C8.10999 4.15908 8.03261 4.27667 8.00819 4.40986C7.98378 4.54305 8.01443 4.68044 8.09314 4.79062L13.0931 11.7906C13.187 11.922 13.3385 12 13.5 12C13.6615 12 13.813 11.922 13.9069 11.7906L18.9069 4.79062C18.9856 4.68044 19.0162 4.54305 18.9918 4.40986C18.9674 4.27667 18.89 4.15908 18.7774 4.08397L15.7774 2.08397C15.6952 2.02922 15.5987 2 15.5 2H11.5ZM10.1514 4L11.6514 3H13V4H10.1514ZM16.8486 4L15.3486 3H14V4H16.8486ZM13 9.93976L9.47101 4.99917C9.4806 4.99972 9.49027 5 9.5 5H13V9.93976ZM14 9.93977L17.529 4.99917C17.5218 4.99958 17.5146 4.99984 17.5073 4.99995L17.5 5H14V9.93977Z" fill="#00164E"/>
<path d="M19.3243 12.3205L19.3113 12.3318L15.9861 14.7639C15.9332 15.2442 15.7305 15.5964 15.3904 15.8026C15.062 16.0016 14.689 16.0005 14.522 16L14.5 16H11C10.7238 16 10.5 15.7761 10.5 15.5C10.5 15.2238 10.7238 15 11 15H14.5C14.6958 15 14.8033 14.9891 14.8721 14.9474C14.8928 14.9348 14.9171 14.9149 14.9408 14.8646C14.9672 14.8088 14.9992 14.7008 15 14.5074V14.4935C14.9993 14.2995 14.9672 14.1913 14.9408 14.1354C14.9171 14.0851 14.8928 14.0651 14.8721 14.0526C14.8033 14.0109 14.6958 14 14.5 14H8.62998C8.62964 14.0001 8.62864 14.0006 8.62703 14.0009C8.61 14.0048 8.52917 14.0234 8.36194 14.1024C8.18466 14.1862 7.96385 14.3115 7.71002 14.4705C7.20374 14.7878 6.60373 15.2157 6.02338 15.6502C5.44476 16.0834 4.89334 16.5174 4.48606 16.8434C4.28259 17.0063 4.11547 17.142 3.99938 17.2368C3.94134 17.2842 3.89608 17.3214 3.86543 17.3466L3.83065 17.3753L3.81978 17.3843C3.60723 17.5606 3.29141 17.5317 3.11512 17.3192C2.93883 17.1066 2.96832 16.7913 3.18087 16.615C3.18087 16.615 3.18079 16.6151 3.44379 16.9322L3.49998 17L3.18087 16.615L3.19357 16.6045L3.22975 16.5747C3.26136 16.5487 3.30765 16.5106 3.36678 16.4623C3.48503 16.3658 3.65471 16.228 3.86108 16.0628C4.27349 15.7326 4.83395 15.2915 5.42407 14.8497C6.01248 14.4092 6.63809 13.9621 7.179 13.6232C7.44876 13.4541 7.70693 13.3059 7.93462 13.1983C8.14057 13.101 8.39486 13 8.62998 13H14.5L14.522 12.9999C14.689 12.9994 15.062 12.9983 15.3904 13.1974C15.5719 13.3074 15.7143 13.4591 15.8157 13.6496L18.6926 11.5454L18.6981 11.5408C18.7108 11.5305 18.7281 11.5167 18.7497 11.5004C18.7926 11.4679 18.8529 11.4247 18.9277 11.3772C19.0753 11.2835 19.29 11.1667 19.5475 11.0872C19.8053 11.0077 20.1229 10.9605 20.4634 11.0275C20.811 11.096 21.1492 11.2771 21.4472 11.6007C21.7849 11.9649 21.9725 12.4433 21.9725 12.94C21.9725 13.4371 21.7846 13.9158 21.4464 14.2801L21.4199 14.3087L16.2854 18.3516L16.2595 18.3674C15.3996 18.8896 14.4042 19.1447 13.3995 19.1005C12.3827 19.145 11.3915 19.1067 10.5409 19.0657C10.4238 19.06 10.3095 19.0544 10.1992 19.0489L10.1973 19.0488C9.48481 19.0134 8.91451 18.9851 8.51234 19.009C8.1593 19.0341 7.75689 19.1931 7.32984 19.4583C6.90674 19.7211 6.49293 20.0671 6.12451 20.4199C5.75755 20.7713 5.44507 21.1203 5.22401 21.3821C5.11376 21.5127 5.02694 21.6207 4.9682 21.6954C4.93885 21.7328 4.91655 21.7617 4.90189 21.781L4.88571 21.8023L4.88207 21.8072L4.88146 21.808C4.71686 22.0296 4.40367 22.0761 4.18197 21.9115C3.96022 21.7469 3.91387 21.4338 4.07844 21.212L4.0793 21.2109L4.08094 21.2087L4.08653 21.2012L4.10677 21.1745C4.12422 21.1516 4.14951 21.1188 4.18205 21.0774C4.2471 20.9947 4.3413 20.8775 4.45996 20.737C4.69671 20.4566 5.0336 20.08 5.43289 19.6976C5.83072 19.3167 6.30003 18.9208 6.80225 18.6089C7.29959 18.3 7.86386 18.0516 8.44528 18.0112L8.45 18.0109C8.91188 17.9832 9.54941 18.015 10.2516 18.0502L10.2534 18.0503C10.3638 18.0558 10.4758 18.0614 10.589 18.0668C11.442 18.108 12.4023 18.1444 13.3775 18.1005L13.4009 18.0995L13.4242 18.1006C14.2279 18.1397 15.0249 17.9403 15.7152 17.5279L20.7368 13.5738C20.8886 13.398 20.9725 13.1731 20.9725 12.94C20.9725 12.6952 20.88 12.4595 20.7135 12.2801L20.712 12.2785C20.5502 12.1026 20.3986 12.034 20.2703 12.0087C20.1345 11.982 19.9896 11.9974 19.8424 12.0428C19.6949 12.0883 19.5621 12.159 19.4635 12.2216C19.4152 12.2522 19.3776 12.2793 19.3535 12.2975C19.3513 12.2992 19.3491 12.3009 19.3471 12.3024C19.3385 12.3091 19.3321 12.3141 19.3284 12.3172L19.3243 12.3205Z" fill="#00164E"/>
</svg>
