<svg width="24" height="24" viewBox="0 0 24 24" fill="none" xmlns="http://www.w3.org/2000/svg">
<path fill-rule="evenodd" clip-rule="evenodd" d="M7.32645 7.32651C7.4951 7.15786 7.75939 7.13181 7.95772 7.26428L10.7898 9.156C11.1615 8.99766 11.5705 8.91003 12 8.91003C13.7066 8.91003 15.09 10.2935 15.09 12C15.09 12.4295 15.0024 12.8385 14.8441 13.2101L16.7358 16.0422C16.8683 16.2405 16.8422 16.5048 16.6736 16.6735C16.5049 16.8421 16.2406 16.8682 16.0423 16.7357L13.2103 14.844C12.8386 15.0024 12.4295 15.09 12 15.09C10.2934 15.09 8.91 13.7066 8.91 12C8.91 11.5706 8.99762 11.1616 9.15595 10.7899L7.26422 7.95778C7.13175 7.75945 7.1578 7.49516 7.32645 7.32651ZM9.91 12C9.91 10.8458 10.8457 9.91003 12 9.91003C13.1543 9.91003 14.09 10.8458 14.09 12C14.09 13.1543 13.1543 14.09 12 14.09C10.8457 14.09 9.91 13.1543 9.91 12Z" fill="#00164E"/>
<path fill-rule="evenodd" clip-rule="evenodd" d="M12 2C6.47715 2 2 6.47715 2 12C2 17.5228 6.47715 22 12 22C17.5228 22 22 17.5228 22 12C22 6.47715 17.5228 2 12 2ZM11.5 3.01365C6.92752 3.26403 3.26403 6.92752 3.01365 11.5H4C4.27614 11.5 4.5 11.7239 4.5 12C4.5 12.2761 4.27614 12.5 4 12.5H3.01365C3.26403 17.0725 6.92752 20.736 11.5 20.9863V20C11.5 19.7239 11.7239 19.5 12 19.5C12.2761 19.5 12.5 19.7239 12.5 20V20.9863C17.0725 20.736 20.736 17.0725 20.9863 12.5H20C19.7239 12.5 19.5 12.2761 19.5 12C19.5 11.7239 19.7239 11.5 20 11.5H20.9863C20.736 6.92752 17.0725 3.26403 12.5 3.01365V3.99997C12.5 4.27611 12.2761 4.49997 12 4.49997C11.7239 4.49997 11.5 4.27611 11.5 3.99997V3.01365Z" fill="#00164E"/>
</svg>
