<svg width="24" height="24" viewBox="0 0 24 24" fill="none" xmlns="http://www.w3.org/2000/svg">
<path fill-rule="evenodd" clip-rule="evenodd" d="M9.68137 2.5C9.41494 2.5 9.1953 2.70893 9.182 2.97503L8.73181 11.9788C8.6445 13.725 9.90597 15.2136 11.5826 15.4632C11.5817 15.4754 11.5813 15.4876 11.5813 15.5V20H9.5813C9.30516 20 9.0813 20.2239 9.0813 20.5C9.0813 20.7761 9.30516 21 9.5813 21H14.5813C14.8574 21 15.0813 20.7761 15.0813 20.5C15.0813 20.2239 14.8574 20 14.5813 20H12.5813V15.5C12.5813 15.4876 12.5809 15.4754 12.58 15.4633C14.2567 15.2137 15.5183 13.7251 15.4309 11.9788L14.9808 2.97503C14.9674 2.70893 14.7478 2.5 14.4814 2.5H9.68137ZM9.73056 12.0287L10.157 3.5H14.0057L14.4322 12.0287C14.4994 13.3731 13.4275 14.5 12.0814 14.5C10.7353 14.5 9.66334 13.3731 9.73056 12.0287Z" fill="#00164E"/>
</svg>
