<svg width="24" height="24" viewBox="0 0 24 24" fill="none" xmlns="http://www.w3.org/2000/svg">
<path fill-rule="evenodd" clip-rule="evenodd" d="M10.844 6.31062C10.844 7.10747 10.3994 7.62647 9.67477 7.62647C8.94467 7.62647 8.50002 7.10747 8.50002 6.31062C8.50002 5.519 8.94467 5 9.67477 5C10.3994 5 10.844 5.519 10.844 6.31062ZM9.37285 6.31062C9.37285 6.75098 9.4497 6.99214 9.67477 6.99214C9.89984 6.99214 9.96571 6.75098 9.96571 6.31062C9.96571 5.87549 9.89435 5.64482 9.67477 5.64482C9.44421 5.64482 9.37285 5.87549 9.37285 6.31062Z" fill="#00164E"/>
<path d="M13.1716 5.06815L10.7452 8.94758H9.82299L12.2493 5.06815H13.1716Z" fill="#00164E"/>
<path fill-rule="evenodd" clip-rule="evenodd" d="M14.5 7.68414C14.5 8.481 14.0554 9 13.3308 9C12.6007 9 12.156 8.481 12.156 7.68414C12.156 6.89253 12.6007 6.37353 13.3308 6.37353C14.0554 6.37353 14.5 6.89253 14.5 7.68414ZM13.0288 7.68414C13.0288 8.12451 13.1057 8.36566 13.3308 8.36566C13.5558 8.36566 13.6217 8.12451 13.6217 7.68414C13.6217 7.24902 13.5503 7.01835 13.3308 7.01835C13.1002 7.01835 13.0288 7.24902 13.0288 7.68414Z" fill="#00164E"/>
<path fill-rule="evenodd" clip-rule="evenodd" d="M6.50002 7C6.50002 4.23858 8.7386 2 11.5 2C14.2614 2 16.5 4.23858 16.5 7C16.5 9.76142 14.2614 12 11.5 12C8.7386 12 6.50002 9.76142 6.50002 7ZM11.5 3C9.29088 3 7.50002 4.79086 7.50002 7C7.50002 9.20914 9.29088 11 11.5 11C13.7092 11 15.5 9.20914 15.5 7C15.5 4.79086 13.7092 3 11.5 3Z" fill="#00164E"/>
<path d="M7.10176 18.43C6.25059 18.4832 5.44813 18.8453 4.8451 19.4484L3.14731 21.1462C2.95205 21.3415 2.95205 21.6581 3.14732 21.8533C3.34259 22.0486 3.65917 22.0486 3.85443 21.8533L5.55222 20.1555C5.98296 19.7247 6.55614 19.466 7.16412 19.4281L12.7715 19.0777C13.6956 19.0199 14.5794 18.6785 15.3024 18.1L20.587 13.8714C21.4632 13.1703 21.4422 11.8308 20.5444 11.1574C19.925 10.6929 19.0714 10.7004 18.4603 11.1757L14.9892 13.8754C14.7523 13.3588 14.2306 13 13.625 13H7.68624C7.1303 13 6.59022 13.1853 6.15139 13.5266L2.19305 16.6053C1.97508 16.7749 1.93581 17.089 2.10535 17.307C2.27488 17.5249 2.58902 17.5642 2.80699 17.3947L6.76533 14.316C7.02863 14.1112 7.35267 14 7.68624 14H13.625C13.9012 14 14.125 14.2239 14.125 14.5C14.125 14.7761 13.9012 15 13.625 15H10C9.72388 15 9.50002 15.2239 9.50002 15.5C9.50002 15.7761 9.72388 16 10 16H13.625C14.2788 16 14.8349 15.5818 15.0403 14.9983C15.1345 14.9909 15.2277 14.9568 15.3078 14.8944L19.0742 11.965C19.3294 11.7666 19.6858 11.7635 19.9444 11.9574C20.3193 12.2386 20.328 12.7979 19.9622 13.0906L14.6776 17.3192C14.1153 17.7692 13.4279 18.0347 12.7091 18.0796L7.10176 18.43Z" fill="#00164E"/>
</svg>
