<svg width="24" height="24" viewBox="0 0 24 24" fill="none" xmlns="http://www.w3.org/2000/svg">
<path fill-rule="evenodd" clip-rule="evenodd" d="M15.6001 5.86011C15.3349 5.86011 15.0805 5.96546 14.893 6.153C14.7259 6.32009 14.624 6.54021 14.6038 6.7738L13.6714 9.8553L13.6696 9.86186C13.6435 9.95259 13.5889 10.0325 13.5138 10.0898C13.4396 10.1466 13.3492 10.1782 13.2559 10.1801H10.1196C9.89012 10.1647 9.66172 10.2265 9.4711 10.3562C9.27295 10.491 9.12802 10.6907 9.06127 10.9209C8.99451 11.1511 9.01012 11.3973 9.1054 11.6173C9.19372 11.8211 9.34539 11.9905 9.53722 12.1008L12.0556 14.0168C12.1366 14.0797 12.1963 14.1659 12.2266 14.2639C12.257 14.3624 12.2562 14.4678 12.2245 14.5658L11.2264 17.7096C11.1566 17.9068 11.1503 18.121 11.2086 18.3222C11.2682 18.5277 11.3922 18.7087 11.5624 18.8385C11.7325 18.9683 11.9398 19.0402 12.1537 19.0434C12.3677 19.0467 12.5772 18.9814 12.7512 18.8568L15.402 16.8487L15.4056 16.8459C15.4756 16.7918 15.5616 16.7625 15.6501 16.7625C15.7385 16.7625 15.8245 16.7918 15.8945 16.8459L15.8971 16.8479L18.4571 18.7979L18.469 18.8067C18.643 18.9312 18.8524 18.9967 19.0664 18.9934C19.2804 18.9902 19.4877 18.9183 19.6578 18.7885C19.8279 18.6587 19.9519 18.4777 20.0115 18.2722C20.0699 18.071 20.0636 17.8568 19.9937 17.6596L18.9966 14.5188L18.9957 14.5158C18.9639 14.4178 18.9632 14.3124 18.9936 14.2139C19.0239 14.1159 19.0835 14.0296 19.1645 13.9667L19.1657 13.9658L21.6829 12.0508C21.8747 11.9405 22.0264 11.7711 22.1147 11.5673C22.21 11.3473 22.2256 11.1011 22.1589 10.8709C22.0921 10.6407 21.9472 10.441 21.749 10.3062C21.5584 10.1765 21.33 10.1147 21.1005 10.1301H17.9552C17.8715 10.1239 17.7912 10.0938 17.7239 10.0433C17.6553 9.99186 17.6032 9.9215 17.5741 9.84091L16.596 6.76951C16.5749 6.53752 16.4732 6.31906 16.3072 6.153C16.1196 5.96546 15.8653 5.86011 15.6001 5.86011ZM15.6236 7.01183L16.6236 10.1518L16.6278 10.1644C16.7219 10.435 16.8947 10.6714 17.1239 10.8433C17.3531 11.0153 17.6285 11.1149 17.9146 11.1295C17.9231 11.1299 17.9316 11.1301 17.9401 11.1301H21.1201C21.1357 11.1301 21.1513 11.1294 21.1668 11.1279C21.1738 11.1273 21.1807 11.1291 21.1865 11.133C21.1923 11.1369 21.1965 11.1427 21.1984 11.1494C21.2004 11.1561 21.1999 11.1633 21.1972 11.1697C21.1944 11.1761 21.1895 11.1814 21.1832 11.1845C21.1566 11.1981 21.1312 11.2141 21.1073 11.2322L18.5573 13.1722L18.5545 13.1744C18.3098 13.3633 18.1295 13.6233 18.0382 13.9186C17.9471 14.2134 17.9491 14.5291 18.0439 14.8227L18.0445 14.8244L19.0435 17.9714L19.0476 17.9837L19.051 17.9932L16.5056 16.0543L16.5041 16.0532C16.2593 15.8647 15.959 15.7625 15.6501 15.7625C15.3413 15.7625 15.0413 15.8646 14.7966 16.0527L12.1691 18.0432L12.1726 18.0336L12.1766 18.0214L13.1757 14.8744L13.1762 14.8728C13.2711 14.5792 13.2731 14.2634 13.182 13.9686C13.0907 13.6733 12.9104 13.4133 12.6657 13.2244L10.1128 11.2822C10.089 11.2641 10.0636 11.2481 10.0369 11.2345C10.0307 11.2314 10.0258 11.2261 10.023 11.2197C10.0202 11.2133 10.0198 11.2061 10.0217 11.1994C10.0236 11.1927 10.0279 11.1869 10.0336 11.183C10.0394 11.1791 10.0464 11.1773 10.0533 11.1779C10.0689 11.1794 10.0845 11.1801 10.1001 11.1801L13.2601 11.1802L13.2672 11.1801C13.5761 11.1757 13.8755 11.072 14.121 10.8844C14.3655 10.6976 14.5437 10.4374 14.6295 10.142L15.5786 7.0049C15.5928 6.95795 15.6001 6.90916 15.6001 6.86011C15.6001 6.9116 15.608 6.96277 15.6236 7.01183Z" fill="#00164E"/>
<path d="M2.5 8C2.22386 8 2 8.22386 2 8.5C2 8.77614 2.22386 9 2.5 9H9.5C9.77614 9 10 8.77614 10 8.5C10 8.22386 9.77614 8 9.5 8H2.5Z" fill="#00164E"/>
<path d="M4 11.5C4 11.2239 4.22386 11 4.5 11H7.5C7.77614 11 8 11.2239 8 11.5C8 11.7761 7.77614 12 7.5 12H4.5C4.22386 12 4 11.7761 4 11.5Z" fill="#00164E"/>
<path d="M6.5 14C6.22386 14 6 14.2239 6 14.5C6 14.7761 6.22386 15 6.5 15H9.5C9.77614 15 10 14.7761 10 14.5C10 14.2239 9.77614 14 9.5 14H6.5Z" fill="#00164E"/>
</svg>
