<svg width="24" height="24" viewBox="0 0 24 24" fill="none" xmlns="http://www.w3.org/2000/svg">
<path fill-rule="evenodd" clip-rule="evenodd" d="M3 5.5C2.44772 5.5 2 5.94772 2 6.5V15.5C2 16.0523 2.44771 16.5 3 16.5H12C12.2761 16.5 12.5 16.2761 12.5 16C12.5 15.7239 12.2761 15.5 12 15.5H6C6 14.7044 5.68393 13.9413 5.12132 13.3787C4.55871 12.8161 3.79565 12.5 3 12.5V9.5C3.79565 9.5 4.55871 9.18393 5.12132 8.62132C5.68393 8.05871 6 7.29565 6 6.5H15C15 7.29565 15.3161 8.05871 15.8787 8.62132C16.4413 9.18393 17.2044 9.5 18 9.5V10C18 10.2761 18.2239 10.5 18.5 10.5C18.7761 10.5 19 10.2761 19 10V6.5C19 5.94772 18.5523 5.5 18 5.5H3ZM16.5858 7.91421C16.9609 8.28929 17.4696 8.5 18 8.5V6.5H16C16 7.03043 16.2107 7.53914 16.5858 7.91421ZM5 6.5L3 6.5V8.5C3.53043 8.5 4.03914 8.28929 4.41422 7.91421C4.78929 7.53914 5 7.03043 5 6.5ZM4.41422 14.0858C4.03914 13.7107 3.53043 13.5 3 13.5V15.5H5C5 14.9696 4.78929 14.4609 4.41422 14.0858Z" fill="#00164E"/>
<path d="M6 10C6 9.72386 5.77614 9.5 5.5 9.5C5.22386 9.5 5 9.72386 5 10V12C5 12.2761 5.22386 12.5 5.5 12.5C5.77614 12.5 6 12.2761 6 12V10Z" fill="#00164E"/>
<path d="M15.5 9.5C15.7761 9.5 16 9.72386 16 10V10.5C16 10.7761 15.7761 11 15.5 11C15.2239 11 15 10.7761 15 10.5V10C15 9.72386 15.2239 9.5 15.5 9.5Z" fill="#00164E"/>
<path fill-rule="evenodd" clip-rule="evenodd" d="M8 11C8 9.61929 9.11929 8.5 10.5 8.5C11.8807 8.5 13 9.61929 13 11C13 12.3807 11.8807 13.5 10.5 13.5C9.11929 13.5 8 12.3807 8 11ZM10.5 9.5C9.67157 9.5 9 10.1716 9 11C9 11.8284 9.67157 12.5 10.5 12.5C11.3284 12.5 12 11.8284 12 11C12 10.1716 11.3284 9.5 10.5 9.5Z" fill="#00164E"/>
<path d="M19.8536 15.3536C20.0488 15.1583 20.0488 14.8417 19.8536 14.6464C19.6583 14.4512 19.3417 14.4512 19.1464 14.6464L17.5 16.2929L16.8536 15.6464C16.6583 15.4512 16.3417 15.4512 16.1464 15.6464C15.9512 15.8417 15.9512 16.1583 16.1464 16.3536L17.1464 17.3536C17.3417 17.5488 17.6583 17.5488 17.8536 17.3536L19.8536 15.3536Z" fill="#00164E"/>
<path fill-rule="evenodd" clip-rule="evenodd" d="M21.8005 11.8494C19.2879 11.3835 16.7121 11.3835 14.1995 11.8494C13.9804 11.8901 13.8147 12.0708 13.7931 12.2925L13.535 14.9381C13.3826 16.3645 13.7307 17.8001 14.5194 18.9951C15.3087 20.1909 16.4895 21.0703 17.8568 21.4791C17.9502 21.507 18.0498 21.507 18.1432 21.4791C19.5105 21.0703 20.6913 20.1909 21.4806 18.9951C22.2693 17.8001 22.6174 16.3645 22.465 14.9381L22.2069 12.2925C22.1853 12.0708 22.0196 11.8901 21.8005 11.8494ZM14.5301 15.0375L14.7514 12.7677C16.9027 12.4108 19.0973 12.4108 21.2486 12.7677L21.4699 15.0375L21.4704 15.0423C21.5988 16.2391 21.3068 17.443 20.646 18.4442C20.013 19.4032 19.0804 20.1175 18 20.4758C16.9196 20.1175 15.987 19.4032 15.354 18.4442C14.6932 17.443 14.4012 16.2391 14.5296 15.0423L14.5301 15.0375Z" fill="#00164E"/>
</svg>
