<svg width="24" height="24" viewBox="0 0 24 24" fill="none" xmlns="http://www.w3.org/2000/svg">
<path d="M4.5 5C3.67157 5 3 5.67157 3 6.5V14.5C3 15.3284 3.67157 16 4.5 16H10.5C10.7761 16 11 16.2239 11 16.5C11 16.7761 10.7761 17 10.5 17H4.5C3.11929 17 2 15.8807 2 14.5V6.5C2 5.11929 3.11929 4 4.5 4H15.3064C16.0057 4 16.6731 4.2929 17.1465 4.8076L20.34 8.27981C20.7645 8.74124 21 9.34528 21 9.97221V11C21 11.2761 20.7761 11.5 20.5 11.5C20.2239 11.5 20 11.2761 20 11V9.97221C20 9.59605 19.8587 9.23362 19.604 8.95677L16.4104 5.48456C16.1264 5.17574 15.726 5 15.3064 5H4.5Z" fill="#00164E"/>
<path d="M4.5 13.5C4.5 13.2239 4.72386 13 5 13H11C11.2761 13 11.5 13.2239 11.5 13.5C11.5 13.7761 11.2761 14 11 14H5C4.72386 14 4.5 13.7761 4.5 13.5Z" fill="#00164E"/>
<path d="M4.5 11.5C4.5 11.2239 4.72386 11 5 11H13C13.2761 11 13.5 11.2239 13.5 11.5C13.5 11.7761 13.2761 12 13 12H5C4.72386 12 4.5 11.7761 4.5 11.5Z" fill="#00164E"/>
<path d="M6.5 9.5C7.32843 9.5 8 8.82843 8 8C8 7.17157 7.32843 6.5 6.5 6.5C5.67157 6.5 5 7.17157 5 8C5 8.82843 5.67157 9.5 6.5 9.5Z" fill="#00164E"/>
<path d="M19.1213 16.6213C19.3975 16.6213 19.6213 16.3975 19.6213 16.1213C19.6213 15.8452 19.3975 15.6213 19.1213 15.6213H14.8787C14.6025 15.6213 14.3787 15.8452 14.3787 16.1213C14.3787 16.3975 14.6025 16.6213 14.8787 16.6213H19.1213Z" fill="#00164E"/>
<path fill-rule="evenodd" clip-rule="evenodd" d="M17 11C14.2386 11 12 13.2386 12 16C12 18.7614 14.2386 21 17 21C19.7614 21 22 18.7614 22 16C22 13.2386 19.7614 11 17 11ZM13 16C13 13.7909 14.7909 12 17 12C19.2091 12 21 13.7909 21 16C21 18.2091 19.2091 20 17 20C14.7909 20 13 18.2091 13 16Z" fill="#00164E"/>
</svg>
