<svg width="24" height="24" viewBox="0 0 24 24" fill="none" xmlns="http://www.w3.org/2000/svg">
<path fill-rule="evenodd" clip-rule="evenodd" d="M11.0288 8.0005C10.8254 7.99374 10.6318 8.05517 10.4702 8.16608C10.31 8.27598 10.1893 8.4282 10.111 8.59639C10.0335 8.76269 9.9966 8.94556 9.99969 9.12695V14.8916C9.99933 15.069 10.0372 15.2473 10.1139 15.4095C10.1907 15.572 10.3072 15.7192 10.4608 15.8273C10.6156 15.9362 10.8011 15.9998 10.9978 16C11.1945 16.0002 11.3802 15.937 11.5352 15.8283L15.532 12.9379C15.6827 12.8337 15.7982 12.6918 15.8761 12.5347C15.9552 12.375 15.9961 12.1989 15.9993 12.023C16.0025 11.8471 15.9682 11.6698 15.8956 11.5074C15.8231 11.3451 15.7119 11.1968 15.5637 11.0854L11.5661 8.19447C11.4139 8.07867 11.2284 8.00714 11.0288 8.0005ZM10.9996 9.1111C10.9989 9.07943 11.0046 9.05095 11.0132 9.02869L14.9633 11.8853C14.9656 11.8875 14.974 11.8961 14.9826 11.9153C14.9929 11.9384 15.0001 11.9696 14.9995 12.0046C14.9988 12.0396 14.9905 12.0695 14.9801 12.0907C14.9708 12.1094 14.9628 12.1158 14.9628 12.1158L14.951 12.124L11.0134 14.9715C11.0053 14.9505 10.9996 14.9236 10.9997 14.8935L10.9997 14.8922L10.9998 9.12214L10.9996 9.1111ZM9.99969 9.12695V9.12214H10.4997L9.99981 9.13319L9.99969 9.12695Z" fill="#00164E"/>
<path fill-rule="evenodd" clip-rule="evenodd" d="M3 5C3 3.89543 3.89543 3 5 3H20C21.1046 3 22 3.89543 22 5V19C22 20.1046 21.1046 21 20 21L5 21C3.89543 21 3 20.1046 3 19V5ZM4 19L4 18H6V20H5C4.44771 20 4 19.5523 4 19ZM21 19C21 19.5523 20.5523 20 20 20H19V18H21V19ZM20 4C20.5523 4 21 4.44772 21 5V6H19V4H20ZM4 5C4 4.44772 4.44772 4 5 4H6V6H4V5ZM21 7V17H4V7H21ZM9 20H7V18H9V20ZM12 20H10V18H12V20ZM15 20H13V18H15V20ZM18 20H16V18H18V20ZM18 4V6H16V4H18ZM15 4V6H13V4H15ZM12 4V6H10V4H12ZM9 4V6H7V4H9Z" fill="#00164E"/>
</svg>
