<svg width="24" height="24" viewBox="0 0 24 24" fill="none" xmlns="http://www.w3.org/2000/svg">
<path d="M17.51 4.59791C17.4558 4.32713 17.6314 4.06372 17.9022 4.00956C18.173 3.95541 18.4364 4.13101 18.4906 4.40179L18.9906 6.90179C18.991 6.90376 18.9917 6.90768 18.9917 6.90768C18.9933 6.91617 18.9947 6.92466 18.9958 6.93313C19.1027 7.09969 19.2046 7.27043 19.3013 7.44484L19.5099 6.40192C19.564 6.13114 19.8274 5.95553 20.0982 6.00968C20.369 6.06384 20.5446 6.32725 20.4904 6.59803L20.0028 9.03605C20.156 9.4901 20.2761 9.95653 20.3598 10.4286L21.0713 9.24271C21.2134 9.00592 21.5205 8.92913 21.7573 9.07121C21.9941 9.21328 22.0709 9.52041 21.9288 9.7572L20.4991 12.14C20.4864 12.9182 20.3686 13.6997 20.1591 14.4548L21.1003 13.1999C21.266 12.979 21.5794 12.9342 21.8003 13.0999C22.0213 13.2656 22.066 13.579 21.9003 13.7999L19.1822 17.4241L21.3081 16.5383C21.563 16.4321 21.8557 16.5527 21.9619 16.8076C22.0681 17.0625 21.9476 17.3552 21.6927 17.4614L15.6927 19.9614L15.6801 19.9665C15.6737 19.969 15.6677 19.9711 15.6622 19.973C15.414 20.0582 15.1393 19.9362 15.038 19.6904C14.9328 19.4351 15.0544 19.1429 15.3097 19.0376C17.7002 18.0522 19.494 15.0425 19.5002 12.0158C19.4999 12.005 19.4999 11.9941 19.5002 11.9832C19.4937 8.95679 17.7 5.94747 15.3097 4.96215C15.0544 4.85691 14.9328 4.56464 15.038 4.30933C15.1432 4.05403 15.4355 3.93238 15.6908 4.03762C16.4066 4.33267 17.0666 4.77127 17.6536 5.31583L17.51 4.59791Z" fill="#00164E"/>
<path fill-rule="evenodd" clip-rule="evenodd" d="M11.2034 5.31897C11.418 5.11381 11.7037 5 12 5C12.2962 5 12.5819 5.11381 12.7965 5.31897C12.8116 5.33342 12.8258 5.3488 12.839 5.36502C13.4145 6.07313 13.688 6.97669 13.6001 7.88227L13.6001 8.47077L17.7631 11.0449C17.9104 11.136 18.0001 11.2969 18.0001 11.4702V12.5585C18.0001 12.7006 17.9397 12.836 17.8338 12.9309C17.728 13.0257 17.5868 13.071 17.4455 13.0555L13.6001 12.6328V13.7737L15.6182 15.4376C15.7334 15.5326 15.8001 15.6741 15.8001 15.8234V16.9117C15.8001 17.0585 15.7356 17.1979 15.6236 17.2929C15.5117 17.3879 15.3637 17.4289 15.2188 17.405L13.0501 17.0474V17.4559C13.0501 18.0376 12.575 18.5 12.0001 18.5C11.4253 18.5 10.9501 18.0376 10.9501 17.4559V17.0474L8.78148 17.405C8.63661 17.4289 8.48856 17.3879 8.37662 17.2929C8.26467 17.1979 8.20013 17.0585 8.20013 16.9117V15.8234C8.20013 15.6741 8.26686 15.5326 8.38206 15.4376L10.4001 13.7738V12.58L6.5615 13.0547C6.41928 13.0723 6.27635 13.028 6.16899 12.9331C6.06162 12.8382 6.00013 12.7018 6.00013 12.5585V11.4702C6.00013 11.2969 6.08982 11.136 6.23717 11.0449L10.4001 8.47078V7.90561C10.354 7.45809 10.3958 7.00589 10.5233 6.57404C10.6534 6.13315 10.8702 5.722 11.1613 5.36459C11.1744 5.34853 11.1885 5.33329 11.2034 5.31897ZM11.911 6.02814C11.7165 6.27521 11.5711 6.55659 11.4823 6.85719C11.3898 7.17064 11.3608 7.499 11.397 7.82344C11.3991 7.84185 11.4001 7.86036 11.4001 7.87889V8.74947C11.4001 8.92272 11.3104 9.08362 11.1631 9.17474L7.00013 11.7489V11.9928L10.8388 11.5181C10.981 11.5005 11.1239 11.5448 11.2313 11.6397C11.3386 11.7346 11.4001 11.871 11.4001 12.0143V14.0096C11.4001 14.1589 11.3334 14.3004 11.2182 14.3953L9.20013 16.0592V16.3225L11.3688 15.9649C11.5137 15.941 11.6617 15.982 11.7736 16.077C11.8856 16.172 11.9501 16.3114 11.9501 16.4582V17.4559C11.9501 17.4752 11.9675 17.5 12.0001 17.5C12.0328 17.5 12.0501 17.4752 12.0501 17.4559V16.4582C12.0501 16.3114 12.1147 16.172 12.2266 16.077C12.3386 15.982 12.4866 15.941 12.6315 15.9649L14.8001 16.3225V16.0592L12.7821 14.3953C12.6669 14.3003 12.6001 14.1588 12.6001 14.0095V12.0748C12.6001 11.9327 12.6606 11.7973 12.7664 11.7024C12.8723 11.6076 13.0135 11.5623 13.1548 11.5778L17.0001 12.0005V11.7489L12.8372 9.17473C12.6898 9.08362 12.6001 8.92272 12.6001 8.74947L12.6001 7.85713C12.6001 7.83969 12.601 7.82227 12.6029 7.80492C12.6695 7.16959 12.4854 6.53297 12.0888 6.02803C12.0636 6.0102 12.0326 6 12 6C11.9672 6 11.9362 6.01024 11.911 6.02814Z" fill="#00164E"/>
<path d="M6.09829 4.00968C6.36907 4.06384 6.54467 4.32725 6.49052 4.59803L6.34693 5.31596C6.93393 4.77139 7.59393 4.33279 8.30969 4.03774C8.565 3.9325 8.85727 4.05415 8.96251 4.30946C9.06775 4.56476 8.9461 4.85704 8.6908 4.96228C6.3005 5.94759 4.50683 8.95691 4.50026 11.9833C4.50062 11.9942 4.50062 12.0051 4.50026 12.0159C4.50653 15.0426 6.3003 18.0523 8.6908 19.0377C8.9461 19.143 9.06775 19.4353 8.96251 19.6906C8.86119 19.9364 8.58648 20.0583 8.33832 19.9731C8.32928 19.9701 8.31914 19.9663 8.30782 19.9615L2.30782 17.4615C2.05292 17.3553 1.93238 17.0626 2.03859 16.8077C2.1448 16.5528 2.43754 16.4323 2.69244 16.5385L4.81833 17.4243L2.10016 13.8C1.93448 13.5791 1.97925 13.2657 2.20016 13.1C2.42108 12.9343 2.73448 12.9791 2.90016 13.2L3.84136 14.455C3.63191 13.6998 3.51406 12.9183 3.50139 12.1401L2.07171 9.75732C1.92963 9.52053 2.00641 9.2134 2.2432 9.07133C2.47999 8.92926 2.78712 9.00604 2.9292 9.24283L3.64071 10.4287C3.72444 9.95665 3.84447 9.49022 3.99767 9.03617L3.51007 6.59815C3.45591 6.32737 3.63152 6.06396 3.9023 6.00981C4.17308 5.95565 4.43649 6.13126 4.49065 6.40204L4.69924 7.44496C4.79591 7.27055 4.8978 7.09982 5.00468 6.93325C5.0061 6.92283 5.00785 6.91238 5.00994 6.90192L5.50994 4.40192C5.56409 4.13114 5.82751 3.95553 6.09829 4.00968Z" fill="#00164E"/>
</svg>
