<svg width="24" height="24" viewBox="0 0 24 24" fill="none" xmlns="http://www.w3.org/2000/svg">
<path d="M9 14C9.55228 14 10 13.5523 10 13C10 12.4477 9.55228 12 9 12C8.44772 12 8 12.4477 8 13C8 13.5523 8.44772 14 9 14Z" fill="#00164E"/>
<path d="M9 17C9.55228 17 10 16.5523 10 16C10 15.4477 9.55228 15 9 15C8.44772 15 8 15.4477 8 16C8 16.5523 8.44772 17 9 17Z" fill="#00164E"/>
<path d="M10 19C10 19.5523 9.55228 20 9 20C8.44772 20 8 19.5523 8 19C8 18.4477 8.44772 18 9 18C9.55228 18 10 18.4477 10 19Z" fill="#00164E"/>
<path d="M14 20C14.5523 20 15 19.5523 15 19C15 18.4477 14.5523 18 14 18C13.4477 18 13 18.4477 13 19C13 19.5523 13.4477 20 14 20Z" fill="#00164E"/>
<path d="M11.5 20C12.0523 20 12.5 19.5523 12.5 19C12.5 18.4477 12.0523 18 11.5 18C10.9477 18 10.5 18.4477 10.5 19C10.5 19.5523 10.9477 20 11.5 20Z" fill="#00164E"/>
<path d="M14 17C14.5523 17 15 16.5523 15 16C15 15.4477 14.5523 15 14 15C13.4477 15 13 15.4477 13 16C13 16.5523 13.4477 17 14 17Z" fill="#00164E"/>
<path d="M11.5 17C12.0523 17 12.5 16.5523 12.5 16C12.5 15.4477 12.0523 15 11.5 15C10.9477 15 10.5 15.4477 10.5 16C10.5 16.5523 10.9477 17 11.5 17Z" fill="#00164E"/>
<path d="M15 13C15 13.5523 14.5523 14 14 14C13.4477 14 13 13.5523 13 13C13 12.4477 13.4477 12 14 12C14.5523 12 15 12.4477 15 13Z" fill="#00164E"/>
<path d="M12.5 13C12.5 13.5523 12.0523 14 11.5 14C10.9477 14 10.5 13.5523 10.5 13C10.5 12.4477 10.9477 12 11.5 12C12.0523 12 12.5 12.4477 12.5 13Z" fill="#00164E"/>
<path fill-rule="evenodd" clip-rule="evenodd" d="M8 9C8 8.44772 8.44772 8 9 8H14C14.5523 8 15 8.44772 15 9V10C15 10.5523 14.5523 11 14 11H9C8.44772 11 8 10.5523 8 10V9ZM9 9V10H14V9H9Z" fill="#00164E"/>
<path fill-rule="evenodd" clip-rule="evenodd" d="M8.20764 3.09438C8.33803 3.00041 8.50564 2.97484 8.65811 3.02566L11.5 3.97296L14.3419 3.02566C14.4944 2.97484 14.662 3.00041 14.7924 3.09438C14.9227 3.18836 15 3.33928 15 3.5V6C16.1046 6 17 6.89543 17 8V20C17 21.1046 16.1046 22 15 22H8C6.89543 22 6 21.1046 6 20V8C6 6.89543 6.89543 6 8 6V3.5C8 3.33928 8.07726 3.18836 8.20764 3.09438ZM11.3419 4.97435L9 4.19372V6H14V4.19372L11.6581 4.97435C11.5555 5.00856 11.4445 5.00856 11.3419 4.97435ZM8 7C7.44772 7 7 7.44772 7 8V20C7 20.5523 7.44772 21 8 21H15C15.5523 21 16 20.5523 16 20V8C16 7.44772 15.5523 7 15 7H8Z" fill="#00164E"/>
<path d="M19 9C19 8.72386 18.7761 8.5 18.5 8.5C18.2239 8.5 18 8.72386 18 9V19.5C18 19.7761 18.2239 20 18.5 20C18.7761 20 19 19.7761 19 19.5V9Z" fill="#00164E"/>
</svg>
