<svg width="24" height="24" viewBox="0 0 24 24" fill="none" xmlns="http://www.w3.org/2000/svg">
<path d="M9.55277 10.2237C9.119 9.35611 7.88097 9.35611 7.4472 10.2237C7.32371 10.4706 7.02337 10.5708 6.77638 10.4473C6.52939 10.3238 6.42928 10.0234 6.55277 9.77644C7.35507 8.17185 9.6449 8.17185 10.4472 9.77644C10.5707 10.0234 10.4706 10.3238 10.2236 10.4473C9.97661 10.5708 9.67627 10.4706 9.55277 10.2237Z" fill="#00164E"/>
<path d="M14.4472 10.2237C14.881 9.35611 16.119 9.35611 16.5528 10.2237C16.6763 10.4706 16.9766 10.5708 17.2236 10.4473C17.4706 10.3238 17.5707 10.0234 17.4472 9.77644C16.6449 8.17185 14.3551 8.17185 13.5528 9.77644C13.4293 10.0234 13.5294 10.3238 13.7764 10.4473C14.0234 10.5708 14.3237 10.4706 14.4472 10.2237Z" fill="#00164E"/>
<path fill-rule="evenodd" clip-rule="evenodd" d="M7 13.5C6.72386 13.5 6.5 13.7239 6.5 14C6.5 16.5836 9.07232 18.5 12 18.5C14.9277 18.5 17.5 16.5836 17.5 14C17.5 13.7239 17.2761 13.5 17 13.5H7ZM12 17.5C9.64316 17.5 7.85567 16.1265 7.54725 14.5H16.4527C16.1443 16.1265 14.3568 17.5 12 17.5Z" fill="#00164E"/>
<path fill-rule="evenodd" clip-rule="evenodd" d="M2 12C2 6.47715 6.47715 2 12 2C17.5228 2 22 6.47715 22 12C22 17.5228 17.5228 22 12 22C6.47715 22 2 17.5228 2 12ZM12 3C7.02944 3 3 7.02944 3 12C3 16.9706 7.02944 21 12 21C16.9706 21 21 16.9706 21 12C21 7.02944 16.9706 3 12 3Z" fill="#00164E"/>
</svg>
