<svg width="24" height="24" viewBox="0 0 24 24" fill="none" xmlns="http://www.w3.org/2000/svg">
<path fill-rule="evenodd" clip-rule="evenodd" d="M7 3.5C7 3.22386 6.77614 3 6.5 3C6.22386 3 6 3.22386 6 3.5V4H3.5C3.10217 4 2.72064 4.15804 2.43934 4.43934C2.15804 4.72064 2 5.10218 2 5.5L2.00032 17.8962C1.9886 18.7023 2.29543 19.4804 2.85425 20.0616C3.41403 20.6438 4.18125 20.9812 4.98866 21H12C12.2761 21 12.5 20.7761 12.5 20.5C12.5 20.2239 12.2761 20 12 20H5.00648C4.46495 19.9859 3.95066 19.7591 3.57508 19.3685C3.19824 18.9766 2.99168 18.4516 3.00032 17.9079V10H19.0303V12C19.0303 12.2761 19.2542 12.5 19.5303 12.5C19.8065 12.5 20.0303 12.2761 20.0303 12V9.5C20.0303 9.43961 20.0196 9.38172 20 9.32812V5.5C20 5.10218 19.842 4.72065 19.5607 4.43934C19.2794 4.15803 18.8978 4 18.5 4H16V3.5C16 3.22386 15.7761 3 15.5 3C15.2239 3 15 3.22386 15 3.5V4H11.5V3.5C11.5 3.22386 11.2761 3 11 3C10.7239 3 10.5 3.22386 10.5 3.5V4H7V3.5ZM19 5.5C19 5.36739 18.9473 5.24021 18.8536 5.14645C18.7598 5.05268 18.6326 5 18.5 5H16V6.5C16 6.77614 15.7761 7 15.5 7C15.2239 7 15 6.77614 15 6.5V5H11.5V6.5C11.5 6.77614 11.2761 7 11 7C10.7239 7 10.5 6.77614 10.5 6.5V5H7V6.5C7 6.77614 6.77614 7 6.5 7C6.22386 7 6 6.77614 6 6.5V5H3.5C3.36739 5 3.24022 5.05268 3.14645 5.14645C3.05268 5.24021 3 5.36739 3 5.5V9H19V5.5Z" fill="#00164E"/>
<path fill-rule="evenodd" clip-rule="evenodd" d="M14.3957 13.7459C15.1471 13.3285 16.157 13.0833 17.2497 13.0833C18.3424 13.0833 19.3522 13.3285 20.1037 13.7459C20.841 14.1556 21.4163 14.788 21.4163 15.5833C21.4163 15.6781 21.4082 15.7706 21.3925 15.8607C21.4079 15.9043 21.4163 15.9511 21.4163 15.9999V19.3333C21.4163 19.699 21.2478 20.016 21.0068 20.2693C20.7678 20.5204 20.4417 20.7276 20.0705 20.8926C19.3272 21.2229 18.3296 21.4166 17.2497 21.4166C16.1698 21.4166 15.1721 21.2229 14.4288 20.8926C14.0577 20.7276 13.7315 20.5204 13.4925 20.2693C13.2515 20.016 13.083 19.699 13.083 19.3333V15.9999C13.083 15.9511 13.0914 15.9043 13.1068 15.8607C13.0912 15.7706 13.083 15.6781 13.083 15.5833C13.083 14.788 13.6584 14.1556 14.3957 13.7459ZM14.8004 14.4744C14.1805 14.8188 13.9163 15.228 13.9163 15.5833C13.9163 15.9386 14.1805 16.3478 14.8004 16.6922C15.4062 17.0288 16.2713 17.25 17.2497 17.25C18.228 17.25 19.0932 17.0288 19.699 16.6922C20.3189 16.3478 20.583 15.9386 20.583 15.5833C20.583 15.228 20.3189 14.8188 19.699 14.4744C19.0932 14.1378 18.228 13.9166 17.2497 13.9166C16.2713 13.9166 15.4062 14.1378 14.8004 14.4744ZM20.1037 17.4207C20.2738 17.3262 20.4352 17.2198 20.583 17.1024V17.6667C20.583 17.7612 20.5416 17.8826 20.4031 18.0282C20.2626 18.1758 20.0396 18.3278 19.7321 18.4644C19.1182 18.7373 18.2409 18.9167 17.2497 18.9167C16.2585 18.9167 15.3812 18.7373 14.7672 18.4644C14.4598 18.3278 14.2367 18.1758 14.0962 18.0282C13.9577 17.8826 13.9163 17.7612 13.9163 17.6667V17.1024C14.0641 17.2198 14.2256 17.3262 14.3957 17.4207C15.1471 17.8381 16.157 18.0833 17.2497 18.0833C18.3424 18.0833 19.3522 17.8381 20.1037 17.4207ZM20.0705 19.2259C20.2541 19.1444 20.4266 19.0525 20.583 18.95V19.3333C20.583 19.4278 20.5416 19.5493 20.4031 19.6948C20.2626 19.8425 20.0396 19.9944 19.7321 20.1311C19.1182 20.4039 18.2409 20.5833 17.2497 20.5833C16.2585 20.5833 15.3812 20.4039 14.7672 20.1311C14.4598 19.9944 14.2367 19.8425 14.0962 19.6948C13.9577 19.5493 13.9163 19.4278 13.9163 19.3333V18.95C14.0728 19.0525 14.2453 19.1444 14.4288 19.2259C15.1721 19.5563 16.1698 19.75 17.2497 19.75C18.3296 19.75 19.3272 19.5563 20.0705 19.2259Z" fill="#00164E"/>
</svg>
