<svg width="24" height="24" viewBox="0 0 24 24" fill="none" xmlns="http://www.w3.org/2000/svg">
<path d="M12.5191 12.5C12.5191 12.2239 12.2952 12 12.0191 12C11.743 12 11.5191 12.2239 11.5191 12.5V13C11.5191 13.2761 11.743 13.5 12.0191 13.5C12.2952 13.5 12.5191 13.2761 12.5191 13V12.5Z" fill="#00164E"/>
<path fill-rule="evenodd" clip-rule="evenodd" d="M10.2198 6.66816C10.6655 6.23837 11.2663 6 11.8891 6H12.1491C12.7719 6 13.3727 6.23837 13.8184 6.66816C14.2648 7.09853 14.5191 7.68622 14.5191 8.30303V9.5H15.5191C15.7952 9.5 16.0191 9.72386 16.0191 10V13.5C16.0191 14.8807 14.8998 16 13.5191 16H10.5191C9.13839 16 8.0191 14.8807 8.0191 13.5V10C8.0191 9.72386 8.24296 9.5 8.5191 9.5H9.5191V8.30303C9.5191 7.68622 9.7734 7.09853 10.2198 6.66816ZM13.1243 7.38804C13.3794 7.63392 13.5191 7.96345 13.5191 8.30303V9.5H10.5191V8.30303C10.5191 7.96345 10.6588 7.63392 10.9139 7.38804C11.1695 7.14155 11.52 7 11.8891 7H12.1491C12.5182 7 12.8687 7.14155 13.1243 7.38804ZM10.5191 15C9.69068 15 9.0191 14.3284 9.0191 13.5V10.5H15.0191V13.5C15.0191 14.3284 14.3475 15 13.5191 15H10.5191Z" fill="#00164E"/>
<path fill-rule="evenodd" clip-rule="evenodd" d="M20.0095 2.72824C14.7268 1.75725 9.31139 1.75725 4.02872 2.72824C3.80944 2.76855 3.64334 2.94916 3.62151 3.17105L3.07174 8.75865C2.76005 11.644 3.4703 14.5474 5.07885 16.963C6.68784 19.3794 9.09364 21.1546 11.877 21.9794C11.9698 22.0069 12.0684 22.0069 12.1612 21.9794C14.9446 21.1546 17.3504 19.3794 18.9594 16.963C20.5679 14.5474 21.2782 11.644 20.9665 8.75863L20.9662 8.75621L20.4167 3.17105C20.3949 2.94916 20.2288 2.76855 20.0095 2.72824ZM4.0667 8.85896L4.57966 3.64539C9.50195 2.78487 14.5363 2.78487 19.4585 3.64539L19.9715 8.85897L19.972 8.8638C20.2592 11.5172 19.6063 14.1873 18.127 16.4088C16.6752 18.5891 14.5178 20.2016 12.0191 20.9775C9.52041 20.2016 7.363 18.5891 5.9112 16.4088C4.43196 14.1873 3.77904 11.5172 4.0662 8.8638L4.0667 8.85896Z" fill="#00164E"/>
</svg>
