<svg width="24" height="24" viewBox="0 0 24 24" fill="none" xmlns="http://www.w3.org/2000/svg">
<path d="M6.51681 2.85091C6.44534 2.58418 6.60363 2.31001 6.87037 2.23854C7.1371 2.16706 7.41127 2.32536 7.48274 2.59209L7.87097 4.04098C7.94244 4.30771 7.78415 4.58188 7.51742 4.65335C7.25068 4.72482 6.97651 4.56653 6.90504 4.2998L6.51681 2.85091Z" fill="#00164E"/>
<path d="M8.00993 6.0771C6.40953 6.50592 5.45978 8.15093 5.88861 9.75133C5.93864 9.93804 6.00504 10.1155 6.08573 10.2827C6.20576 10.5314 6.10146 10.8303 5.85277 10.9503C5.60408 11.0703 5.30517 10.966 5.18514 10.7173C5.07735 10.494 4.98901 10.2577 4.92268 10.0102C4.35091 7.87629 5.61724 5.68294 7.75111 5.11117C8.80114 4.82982 9.86658 4.99396 10.7446 5.48697C10.9854 5.62217 11.071 5.92697 10.9357 6.16775C10.8005 6.40853 10.4958 6.49412 10.255 6.35891C9.5954 5.98855 8.79775 5.866 8.00993 6.0771Z" fill="#00164E"/>
<path fill-rule="evenodd" clip-rule="evenodd" d="M15.9159 20.7774L17.7674 18H18.4998C20.4328 18 21.9998 16.433 21.9998 14.5C21.9998 12.567 20.4328 11 18.4998 11H17.9998C17.9998 9.61055 17.4316 8.47088 16.5049 7.68639C15.5861 6.90862 14.3408 6.5 12.9998 6.5C11.6589 6.5 10.4136 6.90862 9.4948 7.68639C8.56806 8.47088 7.99983 9.61055 7.99983 11H7.49983C5.56684 11 3.99983 12.567 3.99983 14.5C3.99983 16.433 5.56684 18 7.49983 18H8.56558L7.08381 20.2227C6.93064 20.4524 6.99273 20.7629 7.22249 20.916C7.45225 21.0692 7.76269 21.0071 7.91586 20.7774L9.76743 18H12.5656L11.0838 20.2227C10.9306 20.4524 10.9927 20.7629 11.2225 20.916C11.4523 21.0692 11.7627 21.0071 11.9159 20.7774L13.7674 18H16.5656L15.0838 20.2227C14.9306 20.4524 14.9927 20.7629 15.2225 20.916C15.4523 21.0692 15.7627 21.0071 15.9159 20.7774ZM4.99983 14.5C4.99983 15.8807 6.11912 17 7.49983 17H18.4998C19.8805 17 20.9998 15.8807 20.9998 14.5C20.9998 13.1193 19.8805 12 18.4998 12H16.9141L16.9754 11.4451C16.9915 11.2991 16.9998 11.1506 16.9998 11C16.9998 9.90418 16.5607 9.04384 15.8588 8.44965C15.1489 7.84874 14.1442 7.5 12.9998 7.5C11.8555 7.5 10.8508 7.84874 10.1409 8.44965C9.43896 9.04384 8.99983 9.90418 8.99983 11C8.99983 11.1506 9.00813 11.2991 9.02427 11.4451L9.08561 12H7.49983C6.11912 12 4.99983 13.1193 4.99983 14.5Z" fill="#00164E"/>
<path d="M4.58285 10.2706C4.51138 10.0039 4.23722 9.84556 3.97048 9.91703L2.52159 10.3053C2.25486 10.3767 2.09657 10.6509 2.16804 10.9176C2.23951 11.1844 2.51368 11.3427 2.78041 11.2712L4.2293 10.883C4.49603 10.8115 4.65433 10.5373 4.58285 10.2706Z" fill="#00164E"/>
<path d="M2.95066 6.13351C2.71125 5.9959 2.62872 5.69026 2.76633 5.45085C2.90394 5.21144 3.20958 5.12891 3.44899 5.26652L4.74947 6.01402C4.98888 6.15163 5.07141 6.45727 4.9338 6.69668C4.79619 6.93609 4.49055 7.01862 4.25114 6.88101L2.95066 6.13351Z" fill="#00164E"/>
<path d="M12.4883 2.93108C12.2488 2.79347 11.9432 2.87599 11.8056 3.1154L11.0581 4.41588C10.9205 4.65529 11.003 4.96093 11.2424 5.09854C11.4818 5.23615 11.7875 5.15363 11.9251 4.91421L12.6726 3.61374C12.8102 3.37432 12.7277 3.06869 12.4883 2.93108Z" fill="#00164E"/>
</svg>
