<svg width="24" height="24" viewBox="0 0 24 24" fill="none" xmlns="http://www.w3.org/2000/svg">
<path d="M8 8.46997C8 8.19383 8.22386 7.96997 8.5 7.96997H15.5C15.7761 7.96997 16 8.19383 16 8.46997C16 8.74611 15.7761 8.96997 15.5 8.96997H8.5C8.22386 8.96997 8 8.74611 8 8.46997Z" fill="#00164E"/>
<path d="M8.5 9.96997C8.22386 9.96997 8 10.1938 8 10.47C8 10.7461 8.22386 10.97 8.5 10.97H15.5C15.7761 10.97 16 10.7461 16 10.47C16 10.1938 15.7761 9.96997 15.5 9.96997H8.5Z" fill="#00164E"/>
<path d="M8.5 11.97C8.22386 11.97 8 12.1938 8 12.47C8 12.7461 8.22386 12.97 8.5 12.97H15.5C15.7761 12.97 16 12.7461 16 12.47C16 12.1938 15.7761 11.97 15.5 11.97H8.5Z" fill="#00164E"/>
<path d="M8.5 13.97C8.22386 13.97 8 14.1938 8 14.47C8 14.7461 8.22386 14.97 8.5 14.97H12.5C12.7761 14.97 13 14.7461 13 14.47C13 14.1938 12.7761 13.97 12.5 13.97H8.5Z" fill="#00164E"/>
<path fill-rule="evenodd" clip-rule="evenodd" d="M12 2C11.3469 2 10.7913 2.4174 10.5854 3H6.5C5.67157 3 5 3.67157 5 4.5V20.5C5 21.3284 5.67157 22 6.5 22H17.5C18.3284 22 19 21.3284 19 20.5V4.5C19 3.67157 18.3284 3 17.5 3H13.4146C13.2087 2.4174 12.6531 2 12 2ZM17.5 4C17.7761 4 18 4.22386 18 4.5V20.5C18 20.7761 17.7761 21 17.5 21H6.5C6.22386 21 6 20.7761 6 20.5V4.5C6 4.22386 6.22386 4 6.5 4H9V5C9 5.27614 9.22386 5.5 9.5 5.5H14.5C14.7761 5.5 15 5.27614 15 5V4H17.5Z" fill="#00164E"/>
</svg>
