<svg width="24" height="24" viewBox="0 0 24 24" fill="none" xmlns="http://www.w3.org/2000/svg">
<path fill-rule="evenodd" clip-rule="evenodd" d="M21.9914 3.59215C22.0254 3.41127 21.9572 3.22639 21.8139 3.11085C21.6707 2.9953 21.4756 2.96778 21.306 3.03919L2.30597 11.0392C2.11723 11.1187 1.99603 11.3052 2.0001 11.5099C2.00417 11.7147 2.13269 11.8963 2.32444 11.9682L10.0542 14.8668L11.0068 20.5822C11.0424 20.7958 11.2115 20.9623 11.4257 20.9945C11.6398 21.0267 11.8504 20.9173 11.9472 20.7236L13.7489 17.1202L18.235 19.924C18.3751 20.0116 18.5495 20.0243 18.7009 19.9579C18.8522 19.8915 18.961 19.7546 18.9914 19.5921L21.9914 3.59215ZM12.8971 16.5878L11.1755 15.5118L11.7404 18.9011L12.8971 16.5878ZM11.3087 14.4158L18.1436 18.6876L20.6248 5.45473L11.3087 14.4158ZM19.989 4.67872L3.85232 11.4731L10.3805 13.9212L19.989 4.67872Z" fill="#00164E"/>
</svg>
