<svg width="24" height="24" viewBox="0 0 24 24" fill="none" xmlns="http://www.w3.org/2000/svg">
<path fill-rule="evenodd" clip-rule="evenodd" d="M6.5 3C6.77614 3 7 3.22386 7 3.5V4H10.5V3.5C10.5 3.22386 10.7239 3 11 3C11.2761 3 11.5 3.22386 11.5 3.5V4H15V3.5C15 3.22386 15.2239 3 15.5 3C15.7761 3 16 3.22386 16 3.5V4H18.5C18.8978 4 19.2794 4.15803 19.5607 4.43934C19.842 4.72065 20 5.10218 20 5.5V9.32812C20.0196 9.38172 20.0303 9.43961 20.0303 9.5V12C20.0303 12.2761 19.8065 12.5 19.5303 12.5C19.2542 12.5 19.0303 12.2761 19.0303 12V10H3.00032V17.9079C2.99168 18.4516 3.19824 18.9766 3.57508 19.3685C3.95066 19.7591 4.46495 19.9859 5.00649 20H11C11.2761 20 11.5 20.2239 11.5 20.5C11.5 20.7761 11.2761 21 11 21H4.98867C4.18125 20.9812 3.41403 20.6438 2.85425 20.0616C2.29543 19.4804 1.9886 18.7023 2.00032 17.8962L2 5.5C2 5.10218 2.15804 4.72064 2.43934 4.43934C2.72064 4.15804 3.10218 4 3.5 4H6V3.5C6 3.22386 6.22386 3 6.5 3ZM3.14645 5.14645C3.05268 5.24021 3 5.36739 3 5.5V9H19V5.5C19 5.36739 18.9473 5.24021 18.8536 5.14645C18.7598 5.05268 18.6326 5 18.5 5H16V6.5C16 6.77614 15.7761 7 15.5 7C15.2239 7 15 6.77614 15 6.5V5H11.5V6.5C11.5 6.77614 11.2761 7 11 7C10.7239 7 10.5 6.77614 10.5 6.5V5H7V6.5C7 6.77614 6.77614 7 6.5 7C6.22386 7 6 6.77614 6 6.5V5H3.5C3.36739 5 3.24021 5.05268 3.14645 5.14645Z" fill="#00164E"/>
<path d="M19.1213 18.6213C19.3975 18.6213 19.6213 18.3975 19.6213 18.1213C19.6213 17.8452 19.3975 17.6213 19.1213 17.6213H14.8787C14.6025 17.6213 14.3787 17.8452 14.3787 18.1213C14.3787 18.3975 14.6025 18.6213 14.8787 18.6213H19.1213Z" fill="#00164E"/>
<path fill-rule="evenodd" clip-rule="evenodd" d="M12 18C12 15.2386 14.2386 13 17 13C19.7614 13 22 15.2386 22 18C22 20.7614 19.7614 23 17 23C14.2386 23 12 20.7614 12 18ZM17 14C14.7909 14 13 15.7909 13 18C13 20.2091 14.7909 22 17 22C19.2091 22 21 20.2091 21 18C21 15.7909 19.2091 14 17 14Z" fill="#00164E"/>
</svg>
