<svg width="24" height="24" viewBox="0 0 24 24" fill="none" xmlns="http://www.w3.org/2000/svg">
<path fill-rule="evenodd" clip-rule="evenodd" d="M10.9976 2.21557C11.3132 2.07295 11.6545 1.99902 12 1.99902C12.3455 1.99902 12.6868 2.07295 13.0024 2.21557C13.3177 2.35809 13.6001 2.56586 13.8325 2.82487L15 4.12379V4.06723C15 3.8348 15.061 3.58909 15.1974 3.38666C15.3343 3.18359 15.5705 3 15.8824 3H17.4118C17.7236 3 17.9599 3.18359 18.0968 3.38666C18.2332 3.58909 18.2941 3.8348 18.2941 4.06723V7.78854L18.3366 7.83576C18.7647 8.31309 19.0003 8.93814 19 9.58353V10.5C19 10.7761 18.7762 11 18.5 11C18.2239 11 18 10.7761 18 10.5V9.58353C18.0002 9.18008 17.853 8.79445 17.5928 8.50415L13.0888 3.49337C12.9477 3.33605 12.7776 3.21136 12.5906 3.12683C12.4036 3.04232 12.2026 2.99902 12 2.99902C11.7974 2.99902 11.5965 3.04232 11.4095 3.12683C11.2224 3.21136 11.0528 3.33562 10.9117 3.49295L6.40756 8.50383C6.1473 8.79414 5.99984 9.1798 6.00002 9.58331V13.5C6.00002 13.7761 5.77617 14 5.50002 14C5.22388 14 5.00002 13.7761 5.00002 13.5V9.58376C4.99978 8.93836 5.23501 8.31352 5.66308 7.83618L10.1672 2.8253C10.3996 2.56629 10.6823 2.35809 10.9976 2.21557ZM16 5.2363L17.2941 6.67603V4.06723C17.2941 4.0409 17.2912 4.01836 17.2873 4H16.0069C16.0029 4.01836 16 4.0409 16 4.06723V5.2363Z" fill="#00164E"/>
<path d="M10.6137 10.0722C10.6437 10.0264 10.6687 10.0066 10.679 10H13.321C13.3314 10.0066 13.3564 10.0264 13.3864 10.0722C13.449 10.1679 13.5 10.3278 13.5 10.5189V11.5C13.5 11.7761 13.7239 12 14 12C14.2762 12 14.5 11.7761 14.5 11.5V10.5189C14.5 10.1695 14.4106 9.81107 14.2232 9.52466C14.036 9.23869 13.7276 9 13.3334 9H10.6667C10.2725 9 9.964 9.23869 9.77689 9.52466C9.58949 9.81107 9.50002 10.1695 9.50002 10.5189V11.5C9.50002 11.7761 9.72388 12 10 12C10.2762 12 10.5 11.7761 10.5 11.5V10.5189C10.5 10.3278 10.551 10.1679 10.6137 10.0722Z" fill="#00164E"/>
<path d="M5.8451 19.4484C6.44813 18.8453 7.25059 18.4832 8.10176 18.43L13.7091 18.0796C14.4279 18.0347 15.1153 17.7692 15.6776 17.3192L20.9622 13.0906C21.328 12.7979 21.3193 12.2386 20.9444 11.9574C20.6858 11.7635 20.3294 11.7666 20.0742 11.965L16.3078 14.8944C16.2277 14.9568 16.1345 14.9909 16.0403 14.9983C15.8349 15.5818 15.2788 16 14.625 16H11C10.7239 16 10.5 15.7761 10.5 15.5C10.5 15.2239 10.7239 15 11 15H14.625C14.9012 15 15.125 14.7761 15.125 14.5C15.125 14.2239 14.9012 14 14.625 14H8.68624C8.35267 14 8.02863 14.1112 7.76533 14.316L3.80699 17.3947C3.58902 17.5642 3.27488 17.5249 3.10535 17.307C2.93581 17.089 2.97508 16.7749 3.19305 16.6053L7.15139 13.5266C7.59022 13.1853 8.1303 13 8.68624 13H14.625C15.2306 13 15.7523 13.3588 15.9892 13.8754L19.4603 11.1757C20.0714 10.7004 20.925 10.6929 21.5444 11.1574C22.4422 11.8308 22.4632 13.1703 21.587 13.8714L16.3024 18.1C15.5794 18.6785 14.6956 19.0199 13.7715 19.0777L8.16412 19.4281C7.55614 19.466 6.98296 19.7247 6.55222 20.1555L4.85443 21.8533C4.65917 22.0486 4.34259 22.0486 4.14732 21.8533C3.95205 21.6581 3.95205 21.3415 4.14731 21.1462L5.8451 19.4484Z" fill="#00164E"/>
</svg>
