<svg width="24" height="24" viewBox="0 0 24 24" fill="none" xmlns="http://www.w3.org/2000/svg">
<path fill-rule="evenodd" clip-rule="evenodd" d="M15.3799 20.68L10.9299 11.94C11.422 11.6136 11.9995 11.4397 12.5899 11.44C13.8499 11.44 14.7499 12.29 16.0899 12.29C17.1992 12.1464 18.2476 11.7001 19.1199 11V9.9C19.1199 8.79 18.9999 7.56 18.9199 6.45C17.9126 7.07155 16.7426 7.37798 15.5599 7.33C13.6599 7.23 12.5599 6.18 10.9899 6.09C10.0178 6.02598 9.04733 6.23741 8.18993 6.7V5.81C8.19037 5.74109 8.17532 5.67297 8.1459 5.61066C8.11647 5.54835 8.07342 5.49344 8.01993 5.45L6.25993 4.14C6.21736 4.12854 6.17251 4.12854 6.12993 4.14C6.10152 4.13865 6.07314 4.14308 6.04649 4.15302C6.01985 4.16297 5.9955 4.17822 5.97493 4.19786C5.95436 4.21749 5.93799 4.2411 5.92682 4.26726C5.91564 4.29341 5.9099 4.32156 5.90993 4.35V6.5C5.91285 6.56788 5.93046 6.63433 5.96153 6.69475C5.99261 6.75517 6.03641 6.80814 6.08993 6.85L6.79993 7.37L13.9799 21.37C13.4586 21.6094 12.9245 21.8197 12.3799 22C8.15993 20.61 4.57993 17.6 4.05993 12.79C3.98864 9.76469 4.11893 6.73799 4.44993 3.73C4.44428 3.49884 4.51892 3.27286 4.66113 3.09054C4.80335 2.90821 5.00435 2.7808 5.22993 2.73C7.58324 2.25068 9.97832 2.00615 12.3799 2C14.7829 2.01931 17.178 2.27724 19.5299 2.77C19.7555 2.8208 19.9565 2.94821 20.0987 3.13054C20.2409 3.31286 20.3156 3.53884 20.3099 3.77C20.6409 6.77799 20.7712 9.80469 20.6999 12.83C20.5085 14.4694 19.9252 16.0387 18.9992 17.4051C18.0732 18.7714 16.8318 19.8947 15.3799 20.68ZM19.1299 12.54V12.61C19.0096 13.7338 18.6632 14.8216 18.1115 15.8081C17.5599 16.7945 16.8144 17.6591 15.9199 18.35L13.4399 13.6C13.3131 13.3641 13.1436 13.1539 12.9399 12.98C13.9138 13.4521 14.97 13.7305 16.0499 13.8C17.1663 13.7429 18.2276 13.2972 19.0499 12.54H19.1299ZM7.94993 4C9.41622 3.77534 10.8966 3.65504 12.3799 3.64C14.5055 3.65118 16.6251 3.86549 18.7099 4.28L18.7899 5.04C17.8065 5.61653 16.6792 5.90096 15.5399 5.86C13.6399 5.76 12.5999 4.78 11.0199 4.7C10.4659 4.67355 9.91138 4.74118 9.37993 4.9L7.91993 4H7.94993ZM5.73993 8.34L11.5299 19.92L11.1199 19.73C9.6664 19.1289 8.39814 18.1533 7.4443 16.9026C6.49047 15.6519 5.88513 14.1708 5.68993 12.61C5.60934 11.1872 5.62605 9.76053 5.73993 8.34Z" fill="#00164E"/>
</svg>
