<svg width="24" height="24" viewBox="0 0 24 24" fill="none" xmlns="http://www.w3.org/2000/svg">
<path fill-rule="evenodd" clip-rule="evenodd" d="M8.49995 3C6.88284 3 5.9087 4.2542 6.01157 5.53988C6.05345 6.06341 6.27308 6.57821 6.67711 7H5.5C4.67157 7 4 7.67157 4 8.5V12.5C4 12.7761 4.22386 13 4.5 13H5V19.5C5 20.3284 5.67157 21 6.5 21H17.5C18.3284 21 19 20.3284 19 19.5V13H19.5C19.7761 13 20 12.7761 20 12.5V8.5C20 7.67157 19.3284 7 18.5 7H16.5621C16.83 6.67554 17 6.25698 17 5.74003C17 5.0416 16.6556 4.48936 16.1483 4.15823C15.6526 3.83464 15.0168 3.72878 14.4022 3.85136C13.2226 4.08662 12.1778 5.12761 12.0204 7H11.9702C11.9644 6.94158 11.9575 6.87905 11.9492 6.81298C11.8993 6.41382 11.7987 5.87269 11.5931 5.32444C11.3883 4.77826 11.0692 4.19816 10.5665 3.7513C10.0535 3.29525 9.37288 3 8.49995 3ZM10.9645 7C10.9621 6.97948 10.9596 6.95847 10.9569 6.93702C10.9131 6.58618 10.8262 6.12731 10.6568 5.67556C10.4866 5.22174 10.2432 4.80184 9.90215 4.4987C9.57145 4.20475 9.12703 4 8.49995 4C7.47706 4 6.95123 4.7458 7.00838 5.46012C7.03701 5.81801 7.21327 6.18903 7.58983 6.47869C7.96951 6.77075 8.58136 7 9.49995 7H10.9645ZM14.5978 4.83205C13.9486 4.96152 13.17 5.55378 13.0242 7H14.0017L14.0163 6.99973C14.0305 6.9994 14.0529 6.9987 14.0823 6.99722C14.1413 6.99425 14.2278 6.9882 14.3324 6.97593C14.5441 6.95108 14.8176 6.90215 15.084 6.80839C15.3534 6.71356 15.5858 6.58327 15.7463 6.41373C15.896 6.25571 16 6.04754 16 5.74003C16 5.40069 15.8444 5.15405 15.6017 4.99561C15.3474 4.82961 14.9832 4.75519 14.5978 4.83205ZM18.5 8C18.7761 8 19 8.22386 19 8.5V12H13V8H18.5ZM5 8.5C5 8.22386 5.22386 8 5.5 8H11V12H5V8.5ZM17.5 20C17.7761 20 18 19.7761 18 19.5V13H13V20H17.5ZM6 19.5C6 19.7761 6.22386 20 6.5 20H11V13H6V19.5Z" fill="#00164E"/>
</svg>
