<svg width="24" height="24" viewBox="0 0 24 24" fill="none" xmlns="http://www.w3.org/2000/svg">
<path d="M11.7126 16.9067C11.1892 15.9102 9.60209 13.0736 7.78568 11.631C7.68086 11.5477 7.67263 11.3893 7.77214 11.2998L9.12252 10.0845C9.44209 9.79685 9.9254 9.797 10.2256 10.1048C10.8573 10.7526 11.8603 11.8966 12.2105 12.9474C13.185 11.2907 16.6857 6.02526 19.9562 4H11.5789C7.39321 4 4 7.39322 4 11.5789V20H13.0526C16.8895 20 20 16.8895 20 13.0526V6.06032C15.949 10.4935 12.8829 15.566 12.0937 16.9176C12.008 17.0644 11.7916 17.0572 11.7126 16.9067Z" fill="#00164E"/>
</svg>
