<svg width="24" height="24" viewBox="0 0 24 24" fill="none" xmlns="http://www.w3.org/2000/svg">
<path d="M3.5 3C3.77614 3 4 3.22386 4 3.5V16.4077L9.09184 9.21121C9.24583 8.99356 9.54351 8.93503 9.76844 9.07817L14.9301 12.3628L19.2929 8H17.5C17.2239 8 17 7.77614 17 7.5C17 7.22386 17.2239 7 17.5 7H20.5C20.7761 7 21 7.22386 21 7.5V10.5C21 10.7761 20.7761 11 20.5 11C20.2239 11 20 10.7761 20 10.5V8.70711L15.3536 13.3536C15.1878 13.5193 14.9293 13.5476 14.7316 13.4218L9.6332 10.1774L4 18.139V20H21.5C21.7761 20 22 20.2239 22 20.5C22 20.7761 21.7761 21 21.5 21H3.5C3.22386 21 3 20.7761 3 20.5V3.5C3 3.22386 3.22386 3 3.5 3Z" fill="#00164E"/>
</svg>
