<svg width="24" height="24" viewBox="0 0 24 24" fill="none" xmlns="http://www.w3.org/2000/svg">
<path fill-rule="evenodd" clip-rule="evenodd" d="M10.2241 3.1562C12.2657 2.7453 14.3865 3.05507 16.2252 4.03273C18.064 5.0104 19.5067 6.59544 20.3077 8.51772C21.1086 10.44 21.2182 12.5806 20.6177 14.5746C20.0172 16.5686 18.7437 18.2926 17.0144 19.4529C15.2851 20.6132 13.207 21.1379 11.1342 20.9375C9.09668 20.7406 7.18828 19.8551 5.72288 18.4289C5.68807 18.408 5.65565 18.3828 5.62647 18.3536C5.41467 18.1418 5.21352 17.9195 5.02305 17.6867C5.01594 17.678 5.00917 17.6692 5.00274 17.6601L5 17.6563V19.5C5 19.7761 4.77614 20 4.5 20C4.22386 20 4 19.7761 4 19.5V16.5C4 16.2239 4.22386 16 4.5 16H7.5C7.77614 16 8 16.2239 8 16.5C8 16.7761 7.77614 17 7.5 17H5.74633C5.76425 17.0163 5.7812 17.0342 5.797 17.0535C5.94503 17.2344 6.10017 17.408 6.26243 17.5745C6.295 17.5946 6.32542 17.6185 6.35297 17.6459C7.66415 18.9526 9.38788 19.7641 11.2304 19.9422C13.0729 20.1202 14.9201 19.6539 16.4573 18.6225C17.9944 17.5912 19.1264 16.0587 19.6602 14.2862C20.194 12.5138 20.0966 10.611 19.3846 8.90234C18.6727 7.19364 17.3902 5.78472 15.7558 4.91568C14.1214 4.04665 12.2362 3.77129 10.4215 4.13654C8.60677 4.5018 6.97489 5.48505 5.80396 6.91873C4.63302 8.3524 3.99549 10.1478 4.00003 11.9989C4.0007 12.275 3.77739 12.4994 3.50125 12.5001C3.22511 12.5008 3.0007 12.2775 3.00003 12.0013C2.99492 9.91884 3.71215 7.89905 5.02945 6.28616C6.34675 4.67327 8.18262 3.56711 10.2241 3.1562ZM5.0738 17C5.04563 17.0256 5.02101 17.0537 5 17.0837V17H5.0738Z" fill="#00164E"/>
<path d="M12 7C12.2761 7 12.5 7.22386 12.5 7.5V11.7929L16.8536 16.1464C17.0488 16.3417 17.0488 16.6583 16.8536 16.8536C16.6583 17.0488 16.3417 17.0488 16.1464 16.8536L11.6464 12.3536C11.5527 12.2598 11.5 12.1326 11.5 12V7.5C11.5 7.22386 11.7239 7 12 7Z" fill="#00164E"/>
</svg>
