<svg width="24" height="24" viewBox="0 0 24 24" fill="none" xmlns="http://www.w3.org/2000/svg">
<path fill-rule="evenodd" clip-rule="evenodd" d="M20 10C20.5523 10 21 10.4477 21 11V16C21 16.5523 20.5523 17 20 17H19V20.5C19 21.3284 18.3284 22 17.5 22H6.5C5.67157 22 5 21.3284 5 20.5V17H4C3.44772 17 3 16.5523 3 16V11C3 10.4477 3.44772 10 4 10H5V3.5C5 2.67157 5.67157 2 6.5 2H14.0858C14.4836 2 14.8651 2.15804 15.1464 2.43934L18.5607 5.85355C18.842 6.13486 19 6.51639 19 6.91421V10H20ZM6 3.5C6 3.22386 6.22386 3 6.5 3H14V6.3C14 6.6866 14.3134 7 14.7 7H18V10H6V3.5ZM18 20.5C18 20.7761 17.7761 21 17.5 21H6.5C6.22386 21 6 20.7761 6 20.5V17H18V20.5ZM7.64294 12.4891L6.79041 15.7H5.84998L4.82458 11.4051H5.71228L6.35974 14.3553L7.1449 11.4051H8.17615L8.92908 14.4051L9.58826 11.4051H10.4613L9.41833 15.7H8.49841L7.64294 12.4891ZM15 3.70711L17.2929 6H15V3.70711ZM17.8551 11.4402V14.9764H20.0114V15.7H16.9879V11.4402H17.8551ZM11.1202 11.4051V15.7H11.9874V11.4051H11.1202ZM13.08 15.7V11.4402H13.9472V14.9764H16.1034V15.7H13.08Z" fill="#00164E"/>
</svg>
