<svg width="24" height="24" viewBox="0 0 24 24" fill="none" xmlns="http://www.w3.org/2000/svg">
<path d="M4.97 17.5C4.97 17.2239 5.19386 17 5.47 17H8.47C8.74614 17 8.97 17.2239 8.97 17.5C8.97 17.7762 8.74614 18 8.47 18H5.47C5.19386 18 4.97 17.7762 4.97 17.5Z" fill="#00164E"/>
<path fill-rule="evenodd" clip-rule="evenodd" d="M10.419 3.38137C10.7382 2.95287 11.1533 2.60449 11.6308 2.36473C12.1085 2.12489 12.6355 2 13.17 2H20.47C20.7461 2 20.97 2.22386 20.97 2.5C20.97 2.77614 20.7461 3 20.47 3L13.17 3C12.7913 3 12.4179 3.08848 12.0796 3.25839C11.7412 3.4283 11.4472 3.67494 11.221 3.97864L6.72526 10L14.9806 10C15.4681 9.96484 15.9506 10.1199 16.3265 10.4332C16.7082 10.7513 16.9493 11.2069 16.9976 11.7014L16.8894 11.8423L16.8868 11.8462L16.878 11.8591L14.008 15.9091C13.9946 15.928 13.9799 15.9459 13.9641 15.9627C13.7948 16.1427 13.6973 16.3784 13.69 16.6252C13.6923 16.8926 13.7985 17.1486 13.9862 17.3392C14.0746 17.4293 14.1809 17.5016 14.2973 17.5505C14.4137 17.5994 14.5387 17.6245 14.665 17.6245C14.7913 17.6245 14.9163 17.5994 15.0327 17.5505C15.1492 17.5016 15.2547 17.43 15.3431 17.3399L15.3468 17.3361L20.1168 12.5761C20.3123 12.3811 20.6289 12.3814 20.8239 12.5769C21.019 12.7723 21.0187 13.0889 20.8232 13.284L17 17.0991V20.25C17 20.2662 16.9992 20.2825 16.9976 20.2986C16.9493 20.7931 16.7082 21.2487 16.3265 21.5668C15.9506 21.8801 15.4681 22.0352 14.9806 22H4.01939C3.53191 22.0352 3.04939 21.8801 2.67347 21.5668C2.29176 21.2487 2.05066 20.7931 2.00237 20.2986C2.00079 20.2825 2 20.2662 2 20.25V11.75C2 11.7338 2.00079 11.7176 2.00237 11.7014C2.05066 11.2069 2.29176 10.7513 2.67347 10.4332C3.04939 10.1199 3.53191 9.96484 4.0194 10H5.47728L10.419 3.38137ZM16 18.0959C15.8307 18.2549 15.6343 18.3825 15.4198 18.4725C15.1808 18.5729 14.9242 18.6245 14.665 18.6245C14.4058 18.6245 14.1492 18.5729 13.9102 18.4725C13.6714 18.3723 13.4549 18.2254 13.2734 18.0406C12.9008 17.662 12.6913 17.1525 12.69 16.6213L12.6901 16.6085C12.7013 16.1251 12.8864 15.6623 13.2107 15.3047L13.4266 15L3 15L3 20.2229C3.02745 20.4475 3.13946 20.6535 3.31366 20.7986C3.4934 20.9484 3.72491 21.0214 3.95806 21.0018C3.97201 21.0006 3.986 21 4 21H15C15.014 21 15.028 21.0006 15.0419 21.0018C15.2751 21.0214 15.5066 20.9484 15.6863 20.7986C15.8605 20.6535 15.9725 20.4475 16 20.2229V18.0959ZM14.8438 13L15.914 11.4899C15.8595 11.3799 15.7824 11.2814 15.6863 11.2014C15.5066 11.0516 15.2751 10.9786 15.0419 10.9982C15.028 10.9994 15.014 11 15 11L4 11C3.986 11 3.97201 10.9994 3.95806 10.9982C3.72491 10.9786 3.4934 11.0516 3.31365 11.2014C3.13946 11.3466 3.02745 11.5525 3 11.7771V13L14.8438 13Z" fill="#00164E"/>
<path d="M17 11.75C17 11.7338 16.9992 11.7176 16.9976 11.7014L17 11.75Z" fill="#00164E"/>
</svg>
