<svg width="24" height="24" viewBox="0 0 24 24" fill="none" xmlns="http://www.w3.org/2000/svg">
<path d="M8.25 8.5C8.38807 8.5 8.5 8.38807 8.5 8.25C8.5 8.11193 8.38807 8 8.25 8C8.11193 8 8 8.11193 8 8.25C8 8.38807 8.11193 8.5 8.25 8.5Z" fill="#00164E"/>
<path d="M10.25 9.5C10.3881 9.5 10.5 9.38807 10.5 9.25C10.5 9.11193 10.3881 9 10.25 9C10.1119 9 10 9.11193 10 9.25C10 9.38807 10.1119 9.5 10.25 9.5Z" fill="#00164E"/>
<path d="M7.5 9.25C7.5 9.38807 7.38807 9.5 7.25 9.5C7.11193 9.5 7 9.38807 7 9.25C7 9.11193 7.11193 9 7.25 9C7.38807 9 7.5 9.11193 7.5 9.25Z" fill="#00164E"/>
<path fill-rule="evenodd" clip-rule="evenodd" d="M10.3305 6.786C9.52883 6.25157 8.48049 6.21866 7.65427 6.73944C6.75419 7.30677 6.1034 7.76064 5.29465 8.32468C4.6491 8.7749 3.90277 9.29541 2.84844 10H2.5C2.22386 10 2 10.2239 2 10.5V15.5001C2 16.3286 2.67161 17 3.5 17H4.5C4.50003 18.3807 5.6193 19.5 7 19.5C8.3807 19.5 9.49997 18.3807 9.5 17H15C15 18.3807 16.1193 19.5 17.5 19.5C18.8807 19.5 20 18.3807 20 17L20.5 17C21.3284 17 22 16.3285 22 15.5V13C22 12.6726 21.9081 12.1628 21.5151 11.7301C21.3656 11.5654 21.1822 11.4226 20.9617 11.308L20.96 11.304C20.956 11.2947 20.9518 11.2855 20.9472 11.2764L19.2236 7.82918C18.9695 7.321 18.4501 7 17.882 7H14.5C14.2239 7 14 7.22386 14 7.5V9.23234L10.3305 6.786ZM15.208 16C15.5938 15.1171 16.4748 14.5 17.5 14.5C18.5252 14.5 19.4062 15.1171 19.792 16L20.5 16C20.7761 16 21 15.7762 21 15.5V13C21 12.8375 20.9519 12.5973 20.7749 12.4025C20.6087 12.2194 20.2592 12 19.5 12H15V16H14V14H3V15.5001C3 15.7762 3.22382 16 3.5 16H4.708C5.09377 15.1171 5.97482 14.5 7 14.5C8.02518 14.5 8.90623 15.1171 9.292 16H15.208ZM8.1875 7.58541C8.66897 7.28193 9.29126 7.29503 9.77578 7.61805L13.3487 9.99996H4.63321C5.12054 9.66602 5.52536 9.38338 5.89337 9.12645C6.67623 8.57987 7.29336 8.149 8.1875 7.58541ZM17.882 8C18.0714 8 18.2445 8.107 18.3292 8.27639L19.691 11H15V8H17.882ZM16 17C16 16.1716 16.6716 15.5 17.5 15.5C18.3284 15.5 19 16.1716 19 17C19 17.8284 18.3284 18.5 17.5 18.5C16.6716 18.5 16 17.8284 16 17ZM7 15.5C6.17157 15.5 5.5 16.1716 5.5 17C5.5 17.8284 6.17157 18.5 7 18.5C7.82843 18.5 8.5 17.8284 8.5 17C8.5 16.1716 7.82843 15.5 7 15.5ZM14 13V11H3V13H14Z" fill="#00164E"/>
</svg>
