<svg width="24" height="24" viewBox="0 0 24 24" fill="none" xmlns="http://www.w3.org/2000/svg">
<path fill-rule="evenodd" clip-rule="evenodd" d="M6.35777 3.38403C6.66529 3.33264 6.98007 3.34631 7.28184 3.42391C7.58344 3.50146 7.86576 3.64111 8.11047 3.83459C8.3552 4.02807 8.55643 4.27081 8.70148 4.54637L8.70298 4.54922L10.4234 7.86939C10.652 8.33091 10.716 8.85662 10.6049 9.35953C10.4939 9.86229 10.2145 10.3125 9.81274 10.635L9.80818 10.6387L9.01295 11.2618C9.47672 12.0289 10.0351 12.7352 10.6755 13.3643L10.6851 13.3737C11.294 14.0049 11.9798 14.5565 12.7262 15.0149L13.3477 14.2218C13.6675 13.8149 14.1192 13.5302 14.6251 13.4185C15.131 13.3068 15.6597 13.3744 16.1212 13.6088L16.1236 13.61L19.31 15.25C19.3645 15.259 19.4179 15.277 19.4678 15.3042C19.7355 15.4498 19.9707 15.6487 20.1588 15.8889C20.3469 16.1292 20.4837 16.4056 20.5608 16.7004C20.638 16.9953 20.654 17.3028 20.6077 17.6042C20.563 17.8956 20.461 18.1749 20.3079 18.4264L19.6383 19.8269C19.6287 19.8469 19.6179 19.8661 19.6058 19.8846C19.354 20.2703 19.0102 20.5876 18.6052 20.8075C18.2001 21.0276 17.7468 21.1428 17.2865 21.1441L17.2851 21.1441H17.1375C17.1351 21.1441 17.1327 21.1441 17.1302 21.144C17.1249 21.144 17.1195 21.1438 17.1142 21.1436C16.4104 21.1107 15.7107 21.0172 15.023 20.8642C15.0102 20.8614 14.9974 20.858 14.9849 20.8541C12.1991 19.9993 9.66448 18.4769 7.60151 16.4189C5.53856 14.3608 4.00984 11.8295 3.1484 9.04578C3.14448 9.03311 3.14106 9.02029 3.13816 9.00735C2.98382 8.31893 2.89038 7.61842 2.85892 6.9136C2.82862 6.42764 2.92603 5.9423 3.14145 5.50563C3.35762 5.06745 3.6851 4.69354 4.09119 4.4216C4.10899 4.40968 4.12753 4.39892 4.14671 4.38938L5.52395 3.70426C5.77769 3.54221 6.06136 3.43357 6.35777 3.38403ZM19.1082 16.2559C19.0711 16.2466 19.0348 16.2331 19.0001 16.2152L15.6683 14.5004L15.6672 14.4998C15.4118 14.3704 15.1197 14.3333 14.8407 14.395C14.5615 14.4566 14.3119 14.6135 14.1347 14.8387L13.2439 15.9755C13.0919 16.1694 12.8214 16.2237 12.6063 16.1035C11.6328 15.5594 10.7446 14.875 9.96991 14.0729C9.16162 13.278 8.47283 12.3702 7.9251 11.3775C7.8066 11.1627 7.8614 10.8937 8.05449 10.7424L9.18888 9.85345C9.41157 9.67392 9.56668 9.42354 9.62843 9.14391C9.69003 8.86491 9.65498 8.57335 9.52907 8.31694L7.81589 5.01083C7.73565 4.85885 7.62467 4.72528 7.49029 4.61904C7.35551 4.51249 7.19972 4.43532 7.03279 4.3924C6.86604 4.34952 6.69225 4.342 6.52262 4.37035C6.35247 4.39879 6.19063 4.46222 6.04731 4.55671C6.03043 4.56784 6.01289 4.57794 5.99479 4.58694L4.62267 5.26951C4.37372 5.44237 4.17254 5.67585 4.03826 5.94805C3.89953 6.22925 3.8371 6.54182 3.8572 6.85468L3.85783 6.86462C3.88619 7.50567 3.97037 8.14286 4.10962 8.76924C4.92397 11.3898 6.36493 13.7727 8.30778 15.7109C10.2507 17.6492 12.6367 19.0842 15.2593 19.8923C15.8811 20.0295 16.5134 20.1138 17.1493 20.1441L17.2837 20.1441C17.5787 20.1432 17.8692 20.0693 18.1279 19.9288C18.3779 19.793 18.5917 19.5991 18.7513 19.3638L19.4173 17.9708C19.4255 17.9536 19.4348 17.9368 19.4449 17.9207C19.5345 17.778 19.5938 17.6188 19.6193 17.4525C19.6448 17.2861 19.636 17.1164 19.5934 16.9536C19.5507 16.7905 19.4751 16.6377 19.3714 16.5054C19.2964 16.4095 19.2076 16.3255 19.1082 16.2559Z" fill="#00164E"/>
<path d="M19.4999 11.47C19.2238 11.47 18.9999 11.2461 18.9999 10.97L18.9999 9.70708L16.4535 12.2535C16.2582 12.4488 15.9416 12.4488 15.7464 12.2535C15.5511 12.0583 15.5511 11.7417 15.7464 11.5464L18.2928 8.99997H17.0999C16.8238 8.99997 16.5999 8.77611 16.5999 8.49997C16.5999 8.22383 16.8238 7.99997 17.0999 7.99997H19.4999C19.5677 7.99997 19.6324 8.01346 19.6913 8.03791C19.7503 8.06231 19.8056 8.09848 19.8535 8.14642C19.9022 8.19512 19.9387 8.25136 19.9632 8.3114C19.9838 8.36206 19.9964 8.41687 19.9993 8.47424L19.9997 8.48478L19.9999 8.49997L19.4999 11.47Z" fill="#00164E"/>
<path d="M19.4999 11.47L19.9999 8.50166L19.9999 10.97C19.9999 11.2461 19.7761 11.47 19.4999 11.47Z" fill="#00164E"/>
<path d="M15.6464 4.64642L12.9999 7.29287V5.99997C12.9999 5.72383 12.7761 5.49997 12.4999 5.49997C12.2238 5.49997 11.9999 5.72383 11.9999 5.99997V8.49997C11.9999 8.56992 12.0143 8.63652 12.0402 8.69698C12.0627 8.74936 12.0945 8.7987 12.1356 8.84243C12.137 8.84384 12.1383 8.84524 12.1396 8.84663C12.1454 8.85266 12.1514 8.85855 12.1575 8.86428C12.202 8.90617 12.2523 8.93836 12.3057 8.96086C12.3654 8.98604 12.4311 8.99997 12.4999 8.99997H14.9999C15.2761 8.99997 15.4999 8.77611 15.4999 8.49997C15.4999 8.22383 15.2761 7.99997 14.9999 7.99997H13.707L16.3535 5.35352C16.5488 5.15826 16.5488 4.84168 16.3535 4.64642C16.1582 4.45115 15.8416 4.45115 15.6464 4.64642Z" fill="#00164E"/>
</svg>
