<svg width="24" height="24" viewBox="0 0 24 24" fill="none" xmlns="http://www.w3.org/2000/svg">
<path d="M14.5 2.23193C14.2099 2.23193 13.9748 2.45579 13.9748 2.73193C13.9748 3.00808 14.2099 3.23193 14.5 3.23193C15.6868 3.23193 16.825 3.68075 17.6642 4.47966C18.5033 5.27856 18.9748 6.36211 18.9748 7.49193C18.9748 7.76808 19.2099 7.99193 19.5 7.99193C19.7901 7.99193 20.0252 7.76808 20.0252 7.49193C20.0252 6.09689 19.4431 4.75899 18.4069 3.77255C17.3707 2.78611 15.9654 2.23193 14.5 2.23193Z" fill="#00164E"/>
<path fill-rule="evenodd" clip-rule="evenodd" d="M14.7059 8.48734C15.286 8.48734 15.7563 8.03962 15.7563 7.48734C15.7563 6.93505 15.286 6.48734 14.7059 6.48734C14.1257 6.48734 13.6554 6.93505 13.6554 7.48734C13.6554 7.57691 13.6678 7.66374 13.691 7.74635L12.8412 8.55534L7.74642 3.70507C7.54131 3.50981 7.20877 3.50981 7.00366 3.70507C3.90989 6.65034 4.06318 11.5123 7.26841 14.5637C7.41986 14.7079 7.57556 14.8456 7.7351 14.9768L4.26197 21.2673C4.1764 21.4223 4.18222 21.6086 4.27732 21.7585C4.37242 21.9083 4.54295 21.9999 4.72687 21.9999H14.7059C14.8879 21.9999 15.0569 21.9102 15.1526 21.7628C15.2483 21.6154 15.257 21.4313 15.1756 21.2763L12.8954 16.9348C14.9992 17.0146 17.0982 16.3164 18.6746 14.8158C18.8797 14.6205 18.8797 14.3039 18.6746 14.1087L13.584 9.26244L14.4338 8.45346C14.5206 8.47556 14.6118 8.48734 14.7059 8.48734ZM11.6481 16.7959C10.5771 16.5971 9.53186 16.1944 8.58262 15.5911L5.59627 20.9999H13.8561L11.6481 16.7959ZM8.79649 14.5094C11.4664 16.4395 15.1156 16.4163 17.5455 14.448L7.38995 4.77992C5.11119 7.3295 5.31439 11.2893 8.01117 13.8566C8.21482 14.0505 8.42681 14.2308 8.64587 14.3976L8.6477 14.3985C8.70563 14.4275 8.75552 14.4654 8.79649 14.5094Z" fill="#00164E"/>
<path d="M13.9801 4.61246C14.0214 4.33913 14.2875 4.14936 14.5747 4.18861C15.4315 4.30575 16.2254 4.68399 16.8374 5.26669C17.4495 5.84938 17.8468 6.60517 17.9699 7.42086C18.0111 7.6942 17.8118 7.94761 17.5247 7.98686C17.2375 8.02611 16.9714 7.83635 16.9301 7.56301C16.8394 6.96124 16.5462 6.40367 16.0947 5.97379C15.6431 5.54392 15.0575 5.26487 14.4253 5.17846C14.1382 5.13921 13.9389 4.8858 13.9801 4.61246Z" fill="#00164E"/>
</svg>
