<svg width="24" height="24" viewBox="0 0 24 24" fill="none" xmlns="http://www.w3.org/2000/svg">
<path fill-rule="evenodd" clip-rule="evenodd" d="M9.5 3.5C9.5 3.22386 9.72386 3 10 3H14C14.1844 3 14.3538 3.10149 14.4408 3.26407C14.5278 3.42665 14.5183 3.62392 14.416 3.77735L13.6009 5L14.416 6.22265C14.5183 6.37608 14.5278 6.57335 14.4408 6.73593C14.3538 6.89851 14.1844 7 14 7H10.5V7.64329C10.8268 7.75708 11.1199 7.98619 11.3112 8.33062L14.4144 13.9163L15.1321 12.3213C15.6628 11.1421 17.3372 11.1421 17.8679 12.3213L21.456 20.2949C21.5256 20.4496 21.512 20.629 21.4199 20.7715C21.3278 20.914 21.1697 21 21 21H12L11.9913 21H2.5C2.32284 21 2.15891 20.9062 2.06906 20.7535C1.97922 20.6008 1.97688 20.412 2.06292 20.2571L8.68876 8.33062C8.88011 7.98619 9.17324 7.75708 9.5 7.64329V3.5ZM13.0657 4L12.584 4.72265C12.472 4.8906 12.472 5.1094 12.584 5.27735L13.0657 6H10.5V4H13.0657ZM7.54423 12.4499L9.56292 8.81626C9.75342 8.47336 10.2466 8.47336 10.4371 8.81626L12.393 12.3369L11.2241 13.2386L9.94397 10.7698C9.86552 10.6186 9.71541 10.5176 9.5457 10.5021C9.37599 10.4865 9.21004 10.5585 9.10541 10.693L7.62537 12.5959L7.54423 12.4499ZM11.361 14.3959L12.8841 13.2209L16.6502 20H3.34976L6.97225 13.4795L7.11857 13.7428C7.20009 13.8896 7.34982 13.9856 7.5172 13.9985C7.68457 14.0114 7.84726 13.9395 7.95032 13.807L9.41553 11.9231L10.6118 14.2302C10.68 14.3617 10.803 14.4562 10.9477 14.4882C11.0923 14.5202 11.2437 14.4864 11.361 14.3959ZM15.0202 15.0068L17.7942 20H20.2267L16.956 12.7317C16.7791 12.3386 16.2209 12.3386 16.044 12.7317L15.0202 15.0068Z" fill="#00164E"/>
</svg>
