<svg width="24" height="24" viewBox="0 0 24 24" fill="none" xmlns="http://www.w3.org/2000/svg">
<path fill-rule="evenodd" clip-rule="evenodd" d="M9.5 5.5C9.5 5.77614 9.27614 6 9 6C7.89543 6 7 6.89543 7 8C7 8.27614 6.77614 8.5 6.5 8.5C6.22386 8.5 6 8.27614 6 8C6 6.89543 5.10457 6 4 6C3.72386 6 3.5 5.77614 3.5 5.5C3.5 5.22386 3.72386 5 4 5C5.10457 5 6 4.10457 6 3C6 2.72386 6.22386 2.5 6.5 2.5C6.77614 2.5 7 2.72386 7 3C7 4.10457 7.89543 5 9 5C9.27614 5 9.5 5.22386 9.5 5.5ZM7.3411 5.5C7.00791 5.27846 6.72154 4.99209 6.5 4.6589C6.27846 4.99209 5.99209 5.27846 5.6589 5.5C5.99209 5.72154 6.27846 6.00791 6.5 6.3411C6.72154 6.00791 7.00791 5.72154 7.3411 5.5Z" fill="#00164E"/>
<path fill-rule="evenodd" clip-rule="evenodd" d="M13.2037 3.59724C13.38 3.46759 13.62 3.46759 13.7963 3.59724L13.7977 3.59827L13.8002 3.60011L13.8083 3.60621L13.837 3.62793C13.8615 3.64657 13.8963 3.6735 13.94 3.70824C14.0274 3.77768 14.1506 3.87855 14.2977 4.00706C14.5912 4.26348 14.9835 4.63308 15.3772 5.08561C16.1474 5.97085 17 7.26087 17 8.68965C17 10.7466 15.4782 12.5 13.5 12.5C11.5218 12.5 10 10.7466 10 8.68965C10 7.26087 10.8526 5.97085 11.6228 5.08561C12.0165 4.63308 12.4088 4.26348 12.7023 4.00706C12.8494 3.87855 12.9726 3.77768 13.06 3.70824C13.1037 3.6735 13.1385 3.64657 13.163 3.62793L13.1917 3.60621L13.1998 3.60011L13.2023 3.59827L13.2037 3.59724ZM12.3772 5.74198C12.7335 5.33244 13.0912 4.99514 13.3602 4.76018C13.4102 4.71651 13.457 4.67648 13.5 4.64029C13.543 4.67648 13.5898 4.71651 13.6398 4.76018C13.9088 4.99514 14.2665 5.33244 14.6228 5.74198C15.3526 6.58087 16 7.63568 16 8.68965C16 10.2892 14.8355 11.5 13.5 11.5C12.1645 11.5 11 10.2892 11 8.68965C11 7.63568 11.6474 6.58087 12.3772 5.74198Z" fill="#00164E"/>
<path d="M8.10176 18.43C7.25059 18.4832 6.44813 18.8453 5.84511 19.4483L4.14731 21.1462C3.95205 21.3415 3.95206 21.6581 4.14732 21.8533C4.34259 22.0486 4.65917 22.0486 4.85443 21.8533L6.55223 20.1554C6.98296 19.7247 7.55615 19.466 8.16412 19.428L13.7715 19.0777C14.6956 19.0199 15.5794 18.6785 16.3024 18.1L21.587 13.8714C22.4632 13.1703 22.4422 11.8307 21.5444 11.1574C20.925 10.6929 20.0714 10.7004 19.4603 11.1757L15.9892 13.8754C15.7523 13.3588 15.2306 13 14.625 13H8.68624C8.1303 13 7.59022 13.1853 7.15139 13.5266L3.19305 16.6053C2.97508 16.7749 2.93581 17.089 3.10535 17.307C3.27488 17.5249 3.58902 17.5642 3.80699 17.3947L7.76533 14.316C8.02863 14.1112 8.35267 14 8.68624 14H14.625C14.9012 14 15.125 14.2239 15.125 14.5C15.125 14.7761 14.9012 15 14.625 15H11C10.7239 15 10.5 15.2239 10.5 15.5C10.5 15.7761 10.7239 16 11 16H14.625C15.2788 16 15.8349 15.5818 16.0403 14.9982C16.1345 14.9909 16.2277 14.9568 16.3079 14.8944L20.0742 11.965C20.3294 11.7666 20.6858 11.7634 20.9444 11.9574C21.3193 12.2385 21.3281 12.7978 20.9622 13.0906L15.6776 17.3192C15.1153 17.7692 14.4279 18.0347 13.7091 18.0796L8.10176 18.43Z" fill="#00164E"/>
</svg>
