<svg width="24" height="24" viewBox="0 0 24 24" fill="none" xmlns="http://www.w3.org/2000/svg">
<path fill-rule="evenodd" clip-rule="evenodd" d="M14.0674 5.03898C13.58 4.03613 12.7738 3.38727 12.1455 2.88164C12.0307 2.78926 11.9219 2.70165 11.822 2.61754C11.6359 2.46082 11.364 2.46082 11.1779 2.61754C11.11 2.67468 11.0292 2.73912 10.9387 2.81131C10.3832 3.2545 9.46192 3.98944 8.92486 5.11409C7.97707 4.69064 7.10246 4.55712 6.59341 4.50668C6.45669 4.49314 6.32042 4.53645 6.2166 4.62644C6.11279 4.71644 6.05058 4.84519 6.04459 4.98245L6.04315 5.01553C5.99277 6.16616 5.88062 8.72808 7.4665 10.5575C8.28623 11.5031 9.4353 11.9811 10.3356 12.2259C10.7914 12.3498 11.1982 12.4179 11.4918 12.4551L11.4997 12.4561V14.5H7.49971C7.22357 14.5 6.99971 14.7239 6.99971 15V17C6.99971 17.2761 7.22357 17.5 7.49971 17.5H8.05219L8.50277 21.5552C8.53091 21.8084 8.74494 22 8.99972 22H14.9997C15.2545 22 15.4685 21.8084 15.4967 21.5552L15.9472 17.5H16.4997C16.7759 17.5 16.9997 17.2761 16.9997 17V15C16.9997 14.7239 16.7759 14.5 16.4997 14.5H12.4997V12.1733C12.6842 12.1507 12.876 12.1179 13.0731 12.0679C13.8108 11.8804 14.5641 11.4655 15.3512 10.5575C16.9371 8.72811 16.8249 6.16619 16.7745 5.01556L16.7731 4.98248C16.7671 4.84521 16.7049 4.71647 16.6011 4.62647C16.4973 4.53648 16.361 4.49316 16.2243 4.50671C15.7466 4.55403 14.9472 4.6745 14.0674 5.03898ZM13.1758 5.48749C12.8018 4.70939 12.1571 4.1838 11.5274 3.67052L11.4989 3.64724C10.9283 4.11076 10.2058 4.71381 9.80426 5.58835C10.2766 5.89156 10.7452 6.27931 11.1756 6.77586C11.2578 6.87061 11.3349 6.96926 11.4072 7.07111C11.4798 6.97144 11.5579 6.87292 11.6421 6.77588C12.1218 6.22247 12.6489 5.80419 13.1758 5.48749ZM12.5128 11.1621C12.618 11.1458 12.7223 11.1252 12.8268 11.0987C13.3493 10.9659 13.93 10.6703 14.5956 9.90248C15.7188 8.60683 15.82 6.80959 15.7932 5.57457C14.8742 5.73696 13.4856 6.17588 12.3977 7.43091C12.2143 7.64239 12.0671 7.8606 11.9496 8.08227C12.2264 8.77231 12.3674 9.50157 12.4401 10.1219C12.4854 10.5081 12.5055 10.8646 12.5128 11.1621ZM14.9411 17.5L14.5522 21H9.44724L9.05835 17.5H14.9411ZM11.4469 10.2383C11.4979 10.6736 11.5139 11.0695 11.516 11.373C11.5097 11.3972 11.5051 11.422 11.5024 11.4475C11.2569 11.4123 10.9428 11.3546 10.5979 11.2609C9.78368 11.0395 8.85505 10.6326 8.22211 9.90246C7.09892 8.60681 6.99773 6.80957 7.02449 5.57454C7.94351 5.73694 9.33206 6.17586 10.42 7.43088C11.0452 8.15209 11.3312 9.25092 11.4469 10.2383ZM15.9997 15.5V16.5H7.99971V15.5H15.9997Z" fill="#00164E"/>
</svg>
