<svg width="24" height="24" viewBox="0 0 24 24" fill="none" xmlns="http://www.w3.org/2000/svg">
<path fill-rule="evenodd" clip-rule="evenodd" d="M13.4022 11.0096C13.2524 11.0393 13.1267 11.1359 13.0575 11.267C13.0415 11.2973 13.0285 11.3294 13.019 11.363C13.005 11.4122 12.9984 11.4637 13 11.5157V18.5C13 18.7761 13.2239 19 13.5 19C13.7761 19 14 18.7761 14 18.5V17H14.9888C15.0096 17.0004 15.0306 16.9996 15.0517 16.9974C15.1219 16.9902 15.1878 16.9684 15.2463 16.9352C15.3978 16.8493 15.5 16.6866 15.5 16.5C15.5 16.4595 15.4952 16.42 15.4861 16.3823C15.1227 14.6593 14.6159 12.9697 13.9708 11.3313C13.9536 11.2832 13.9292 11.2385 13.8989 11.1985C13.8756 11.1676 13.849 11.1399 13.8198 11.1156C13.7498 11.0573 13.6636 11.0178 13.5689 11.0047C13.5144 10.9971 13.4581 10.9984 13.4022 11.0096ZM14 14.536C14.1378 15.0207 14.2636 15.5088 14.3774 16H14V14.536Z" fill="#00164E"/>
<path d="M10.5 11.5C10.5 11.2239 10.2761 11 10 11C9.72386 11 9.5 11.2239 9.5 11.5V14C9.22386 14 9 13.7761 9 13.5V11.5C9 11.2239 8.77614 11 8.5 11C8.22386 11 8 11.2239 8 11.5V13.5C8 14.3284 8.67157 15 9.5 15V18.5C9.5 18.7761 9.72386 19 10 19C10.2761 19 10.5 18.7761 10.5 18.5V15C11.3284 15 12 14.3284 12 13.5V11.5C12 11.2239 11.7761 11 11.5 11C11.2239 11 11 11.2239 11 11.5V13.5C11 13.7761 10.7761 14 10.5 14V11.5Z" fill="#00164E"/>
<path fill-rule="evenodd" clip-rule="evenodd" d="M7.51306 7C7.5718 6.21379 7.83553 5.29832 8.44184 4.53513C9.15564 3.63665 10.305 3 12 3C13.695 3 14.8444 3.63665 15.5582 4.53513C16.1645 5.29832 16.4282 6.21379 16.4869 7H18.5C18.7761 7 19 7.22386 19 7.5V18.5C19 19.8807 17.8807 21 16.5 21H7.5C6.11929 21 5 19.8807 5 18.5V7.5C5 7.22386 5.22386 7 5.5 7H7.51306ZM8.51648 7C8.57387 6.39053 8.78582 5.70977 9.22483 5.15717C9.73325 4.5172 10.5839 4 12 4C13.4161 4 14.2667 4.5172 14.7752 5.15717C15.2142 5.70977 15.4261 6.39053 15.4835 7H8.51648ZM7.5 20C6.67157 20 6 19.3284 6 18.5V8H7.5V9.5C7.5 9.77614 7.72386 10 8 10C8.27614 10 8.5 9.77614 8.5 9.5V8H15.5V9.5C15.5 9.77614 15.7239 10 16 10C16.2761 10 16.5 9.77614 16.5 9.5V8H18V18.5C18 19.3284 17.3284 20 16.5 20H7.5Z" fill="#00164E"/>
</svg>
