<svg width="24" height="24" viewBox="0 0 24 24" fill="none" xmlns="http://www.w3.org/2000/svg">
<path d="M15.3841 13.3201C15.5609 13.108 15.5322 12.7927 15.3201 12.6159C15.108 12.4391 14.7927 12.4678 14.6159 12.6799L9.61589 18.6799C9.43911 18.892 9.46777 19.2073 9.67991 19.3841C9.89205 19.5609 10.2073 19.5322 10.3841 19.3201L15.3841 13.3201Z" fill="#00164E"/>
<path fill-rule="evenodd" clip-rule="evenodd" d="M12.5 18C12.5 17.1716 13.1716 16.5 14 16.5C14.8284 16.5 15.5 17.1716 15.5 18C15.5 18.8284 14.8284 19.5 14 19.5C13.1716 19.5 12.5 18.8284 12.5 18ZM14 17.5C13.7239 17.5 13.5 17.7239 13.5 18C13.5 18.2761 13.7239 18.5 14 18.5C14.2761 18.5 14.5 18.2761 14.5 18C14.5 17.7239 14.2761 17.5 14 17.5Z" fill="#00164E"/>
<path fill-rule="evenodd" clip-rule="evenodd" d="M11 12.5C10.1716 12.5 9.5 13.1716 9.5 14C9.5 14.8284 10.1716 15.5 11 15.5C11.8284 15.5 12.5 14.8284 12.5 14C12.5 13.1716 11.8284 12.5 11 12.5ZM10.5 14C10.5 13.7239 10.7239 13.5 11 13.5C11.2761 13.5 11.5 13.7239 11.5 14C11.5 14.2761 11.2761 14.5 11 14.5C10.7239 14.5 10.5 14.2761 10.5 14Z" fill="#00164E"/>
<path fill-rule="evenodd" clip-rule="evenodd" d="M9.14645 2.14645C9.34171 1.95118 9.65829 1.95118 9.85355 2.14645C10.3862 2.67913 10.7025 3.166 10.8275 3.644C10.9573 4.14049 10.8643 4.56312 10.7084 4.92098C10.6331 5.09375 10.542 5.25417 10.4576 5.39679C10.4308 5.44206 10.4053 5.48464 10.3806 5.52565C10.3231 5.62147 10.2707 5.70877 10.2196 5.80188C10.0793 6.05776 10 6.27098 10 6.49998L11.6 5.29999C12.1333 4.9 12.8667 4.9 13.4 5.29999L17 7.99995C17.6295 8.47208 18 9.21306 18 9.99996V20.4999C18 21.3283 17.3284 21.9999 16.5 21.9999H8.5C7.67157 21.9999 7 21.3283 7 20.4999V9.99996C7 9.21306 7.37049 8.47209 8.00001 7.99995L9.04437 7.21669C9.01425 6.98713 9 6.74735 9 6.5C9 6.02401 9.17074 5.63473 9.34287 5.32094C9.40391 5.20966 9.47189 5.09642 9.53323 4.99422C9.55557 4.95701 9.57716 4.92104 9.59708 4.88739C9.67672 4.75286 9.7419 4.63563 9.79162 4.52152C9.88569 4.30563 9.91771 4.11764 9.86001 3.89694C9.79748 3.65775 9.61377 3.32087 9.14645 2.85355C8.95118 2.65829 8.95118 2.34171 9.14645 2.14645ZM8.60001 8.79995L9.32828 8.25376C9.47218 8.56791 9.66721 8.84194 9.92075 9.06379C10.1099 9.22928 10.3207 9.35652 10.5503 9.44784C10.7537 10.3368 11.5494 11 12.5 11C13.6046 11 14.5 10.1046 14.5 9C14.5 7.89543 13.6046 7 12.5 7C11.6272 7 10.8849 7.55911 10.6119 8.3387C10.6008 8.3297 10.5899 8.32053 10.5793 8.31121C10.4054 8.15905 10.2591 7.93637 10.157 7.63223L12.2 6.09999C12.3778 5.96666 12.6222 5.96666 12.8 6.09999L16.4 8.79995C16.7777 9.08323 17 9.52782 17 9.99996V20.4999C17 20.776 16.7761 20.9999 16.5 20.9999H8.5C8.22386 20.9999 8 20.776 8 20.4999V9.99996C8 9.52782 8.22229 9.08323 8.60001 8.79995ZM12.5 10C12.1835 10 11.9013 9.85294 11.7181 9.62342C12.0051 9.61052 12.3073 9.56357 12.6213 9.48507C12.8892 9.4181 13.052 9.14663 12.9851 8.87873C12.9181 8.61083 12.6466 8.44795 12.3787 8.51493C12.0707 8.59194 11.8033 8.62662 11.5716 8.62775C11.7192 8.25981 12.0793 8 12.5 8C13.0523 8 13.5 8.44772 13.5 9C13.5 9.55228 13.0523 10 12.5 10Z" fill="#00164E"/>
</svg>
