<svg width="24" height="24" viewBox="0 0 24 24" fill="none" xmlns="http://www.w3.org/2000/svg">
<path fill-rule="evenodd" clip-rule="evenodd" d="M12 3.99121C11.8515 3.99121 11.707 4.03909 11.5879 4.12774C11.4688 4.21639 11.3815 4.34108 11.3389 4.4833L11.3371 4.48933L10.1486 8.2844C10.0473 8.63098 9.83753 8.93604 9.5501 9.15479C9.26104 9.37478 8.90879 9.49578 8.54556 9.49986L8.53995 9.49992L4.70562 9.49989C4.54706 9.504 4.39372 9.55763 4.26712 9.6533C4.13935 9.74986 4.04535 9.88431 3.99853 10.0375C3.95171 10.1906 3.95448 10.3547 4.00642 10.5062C4.05837 10.6576 4.15685 10.7889 4.2878 10.8811L4.29924 10.8891L7.37755 13.1881C7.37786 13.1883 7.37817 13.1886 7.37848 13.1888C7.675 13.4087 7.89582 13.7154 8.01032 14.0664C8.12487 14.4175 8.12737 14.7956 8.01747 15.1481C8.01739 15.1484 8.01755 15.1479 8.01747 15.1481L6.82776 19.0072L6.8225 19.0233C6.77284 19.1669 6.76989 19.3225 6.81408 19.4679C6.85826 19.6133 6.94732 19.741 7.06849 19.8327C7.18966 19.9244 7.33674 19.9754 7.48867 19.9784C7.63692 19.9814 7.78236 19.9385 7.90519 19.8558L10.9961 17.4628C11.2857 17.2412 11.6402 17.1211 12.005 17.1211C12.3693 17.1211 12.7235 17.2409 13.0129 17.4621C13.0132 17.4624 13.0135 17.4626 13.0138 17.4628L16.1057 19.8066C16.2281 19.8926 16.3745 19.9377 16.5242 19.9354C16.6758 19.9332 16.8228 19.8824 16.9435 19.7905C17.0642 19.6987 17.1523 19.5706 17.195 19.425C17.2376 19.2795 17.2325 19.1241 17.1804 18.9816C17.1775 18.9738 17.1748 18.9658 17.1723 18.9578L15.9923 15.1478C15.8847 14.7996 15.8871 14.4264 15.9994 14.0797C16.1114 13.7335 16.3274 13.4304 16.618 13.2114C16.6185 13.211 16.6189 13.2107 16.6194 13.2103L19.6966 10.8624C19.8204 10.768 19.9121 10.6378 19.9595 10.4896C20.0069 10.3413 20.0076 10.1821 19.9615 10.0334C19.9155 9.8847 19.8249 9.75374 19.702 9.65821C19.582 9.56497 19.437 9.50987 19.2856 9.49989H15.4567C15.0943 9.49752 14.7421 9.3794 14.4516 9.16278C14.1614 8.94639 13.9479 8.64302 13.842 8.29685C13.8419 8.29647 13.8418 8.29609 13.8417 8.29571L12.6609 4.48331C12.6184 4.34109 12.5311 4.21639 12.412 4.12774C12.2929 4.03909 12.1484 3.99121 12 3.99121ZM10.9908 3.32561C11.2824 3.10848 11.6363 2.99121 12 2.99121C12.3636 2.99121 12.7175 3.10848 13.0091 3.32561C13.3001 3.54224 13.5137 3.84673 13.6182 4.19406L14.7982 8.00407C14.8417 8.1468 14.9297 8.2719 15.0494 8.36109C15.1686 8.45002 15.3131 8.49862 15.4618 8.49989H19.3C19.3085 8.49989 19.317 8.50011 19.3255 8.50054C19.6855 8.51897 20.0311 8.64748 20.3157 8.8687C20.6003 9.08993 20.8101 9.3932 20.9168 9.73752C21.0234 10.0818 21.0218 10.4506 20.912 10.794C20.8023 11.1373 20.5898 11.4387 20.3033 11.6574L17.2205 14.0095C17.0938 14.1048 16.9996 14.2369 16.9508 14.3877C16.9019 14.5385 16.9008 14.7008 16.9477 14.8522L18.1242 18.651C18.2453 18.9905 18.256 19.3599 18.1547 19.7061C18.052 20.0567 17.8397 20.3652 17.549 20.5864C17.2583 20.8076 16.9044 20.9299 16.5391 20.9353C16.1738 20.9408 15.8164 20.8291 15.5192 20.6167L15.5078 20.6085L12.4079 18.2583L12.4061 18.257C12.2909 18.1688 12.15 18.1211 12.005 18.1211C11.8603 18.1211 11.7197 18.1686 11.6047 18.2563C11.6044 18.2565 11.6041 18.2567 11.6038 18.257L8.50604 20.6553C8.49936 20.6604 8.49254 20.6654 8.4856 20.6703C8.18766 20.8776 7.83175 20.9855 7.46881 20.9782C7.10587 20.971 6.75451 20.8492 6.46505 20.6301C6.17558 20.4111 5.96284 20.106 5.85729 19.7587C5.75262 19.4143 5.75866 19.0458 5.87443 18.7052L7.06214 14.8526L7.06267 14.8509C7.11093 14.6963 7.10987 14.5305 7.05964 14.3766C7.00941 14.2226 6.9125 14.0881 6.78236 13.9917L6.78079 13.9905L3.70593 11.6944C3.40575 11.4811 3.17998 11.179 3.06049 10.8305C2.94019 10.4797 2.93379 10.0998 3.04221 9.74514C3.15063 9.39046 3.36832 9.0791 3.66421 8.85549C3.96011 8.63188 4.31908 8.50746 4.68988 8.49999L4.69995 8.49979L8.53677 8.49989C8.68421 8.49772 8.82711 8.44837 8.94448 8.35904C9.0625 8.26922 9.14844 8.14376 9.18955 8.00127L9.19268 7.99043L10.3819 4.19321C10.4866 3.84623 10.7 3.54206 10.9908 3.32561Z" fill="#00164E"/>
</svg>
