<svg width="24" height="24" viewBox="0 0 24 24" fill="none" xmlns="http://www.w3.org/2000/svg">
<path fill-rule="evenodd" clip-rule="evenodd" d="M19.9381 1.27819C19.8666 1.13384 19.73 1.03274 19.5711 1.00662C19.4121 0.980504 19.2503 1.03256 19.1364 1.14645L17.1364 3.14645C17.0427 3.24022 16.99 3.3674 16.99 3.50001V6.29289L12.7324 10.5505C12.2431 10.2038 11.6453 10 11 10C9.34315 10 8 11.3431 8 13C8 14.6569 9.34315 16 11 16C12.6569 16 14 14.6569 14 13C14 12.3495 13.793 11.7474 13.4412 11.2559L14.5115 10.1856C15.1303 10.9565 15.5 11.9347 15.5 13C15.5 15.4853 13.4853 17.5 11 17.5C8.51472 17.5 6.5 15.4853 6.5 13C6.5 10.5147 8.51472 8.5 11 8.5C11.4712 8.5 11.9246 8.57225 12.3502 8.70593C12.6136 8.78867 12.8943 8.64218 12.977 8.37873C13.0598 8.11527 12.9133 7.83462 12.6498 7.75188C12.1284 7.5881 11.574 7.5 11 7.5C7.96243 7.5 5.5 9.96243 5.5 13C5.5 16.0376 7.96243 18.5 11 18.5C14.0376 18.5 16.5 16.0376 16.5 13C16.5 11.6589 16.0195 10.4293 15.2221 9.47503L16.2869 8.41023C16.2881 8.41183 16.2893 8.41342 16.2905 8.41501C16.2959 8.42188 16.3014 8.42866 16.3071 8.43533C17.3625 9.66117 18 11.2555 18 13C18 16.866 14.866 20 11 20C7.13401 20 4 16.866 4 13C4 9.13401 7.13401 6 11 6C11.9965 6 12.9431 6.20791 13.7998 6.58224C14.0529 6.6928 14.3476 6.5773 14.4582 6.32425C14.5687 6.07121 14.4532 5.77645 14.2002 5.66589C13.2196 5.23743 12.1368 5 11 5C6.58172 5 3 8.58172 3 13C3 17.4183 6.58172 21 11 21C15.4183 21 19 17.4183 19 13C19 11.0071 18.2706 9.18331 17.065 7.78288C17.0412 7.7553 17.0151 7.73095 16.9872 7.70987L17.7326 6.96445L20.4617 7.00993C20.5945 7.01215 20.7228 6.96137 20.8182 6.86882L22.8482 4.89882C22.9632 4.78718 23.0178 4.62716 22.9948 4.46851C22.9719 4.30986 22.8743 4.17182 22.7324 4.0973L20.8424 3.10505L19.9381 1.27819ZM12.0097 11.2732L10.6364 12.6464C10.4412 12.8417 10.4412 13.1583 10.6364 13.3536C10.8317 13.5488 11.1483 13.5488 11.3435 13.3536L12.7194 11.9777C12.8976 12.2769 13 12.6265 13 13C13 14.1046 12.1046 15 11 15C9.89543 15 9 14.1046 9 13C9 11.8954 9.89543 11 11 11C11.3683 11 11.7133 11.0995 12.0097 11.2732ZM17.99 5.25015L19.7133 3.56098L19.873 3.40077L19.3509 2.34617L17.99 3.70711V5.25015ZM20.2708 6.00661L18.7164 5.98071L20.5934 4.10374L21.6565 4.66187L20.2708 6.00661Z" fill="#00164E"/>
</svg>
