<svg width="24" height="24" viewBox="0 0 24 24" fill="none" xmlns="http://www.w3.org/2000/svg">
<path fill-rule="evenodd" clip-rule="evenodd" d="M14.8536 2.14645C14.6776 1.97051 14.3991 1.95071 14.2 2.10001L10.2 5.10001C10.084 5.18697 10.0115 5.31998 10.0013 5.46456C9.99098 5.60914 10.044 5.75107 10.1464 5.85356L10.6242 6.33135L4.30813 9.03825C4.30599 9.03914 4.30385 9.04005 4.30172 9.04098C4.29532 9.04375 4.28899 9.04665 4.28272 9.04968C4.21824 9.08073 4.16326 9.12404 4.1194 9.17558C4.07545 9.22705 4.04139 9.2882 4.02094 9.35678C4.01828 9.36567 4.01586 9.37465 4.01369 9.38369L2.01504 17.3483C2.00505 17.3881 2 17.429 2 17.47V21.5C2 21.7761 2.22386 22 2.5 22H6.53C6.57103 22 6.6119 21.995 6.6517 21.985L14.6217 19.985C14.7731 19.947 14.8981 19.8404 14.9596 19.697L17.6687 13.3758L18.1464 13.8536C18.2489 13.9561 18.3909 14.009 18.5354 13.9987C18.68 13.9885 18.813 13.916 18.9 13.8L21.9 9.80001C22.0493 9.60094 22.0295 9.3224 21.8536 9.14645L14.8536 2.14645ZM17.8527 12.1454C17.8503 12.143 17.8478 12.1406 17.8454 12.1382L11.8618 6.15467C11.8601 6.15294 11.8585 6.15122 11.8568 6.14951C11.8531 6.14576 11.8493 6.14207 11.8456 6.13845L11.2612 5.5541L14.4531 3.16019L20.8398 9.54692L18.4459 12.7388L17.8615 12.1544C17.8586 12.1514 17.8557 12.1484 17.8527 12.1454ZM11.3858 7.09293L16.9071 12.6142L14.138 19.0753L6.46822 21H3.70711L9.42 15.2871L10.5764 16.4436C10.7717 16.6388 11.0883 16.6388 11.2836 16.4436C11.4788 16.2483 11.4788 15.9317 11.2836 15.7365L8.26355 12.7165C8.06829 12.5212 7.75171 12.5212 7.55645 12.7165C7.36118 12.9117 7.36118 13.2283 7.55645 13.4236L8.71289 14.58L3 20.2929V17.5318L4.92467 9.86199L11.3858 7.09293Z" fill="#00164E"/>
</svg>
