<svg width="24" height="24" viewBox="0 0 24 24" fill="none" xmlns="http://www.w3.org/2000/svg">
<path d="M2.00001 11.79C1.99793 13.4334 2.40336 15.0517 3.18001 16.5L6.57001 13.17C6.93573 12.7837 7.13955 12.272 7.13955 11.7401C7.13955 11.2081 6.93573 10.6963 6.57001 10.31L3.21001 7.01001C2.41402 8.47737 1.99804 10.1207 2.00001 11.79Z" fill="#00164E"/>
<path d="M22 11.79C21.9996 10.1469 21.5943 8.52923 20.82 7.08002L17.53 10.31C17.1643 10.6963 16.9605 11.2081 16.9605 11.7401C16.9605 12.272 17.1643 12.7837 17.53 13.17L20.85 16.44C21.6044 15.0061 21.9991 13.4103 22 11.79Z" fill="#00164E"/>
<path d="M12 21.79C13.6829 21.7987 15.3408 21.3825 16.82 20.58H16.78L13.48 17.22C13.0937 16.8543 12.582 16.6505 12.05 16.6505C11.518 16.6505 11.0063 16.8543 10.62 17.22L7.29001 20.61C8.73695 21.3902 10.3561 21.7959 12 21.79Z" fill="#00164E"/>
<path d="M13.6481 2.66199C13.2242 2.23816 12.6494 2 12.05 2C11.4506 2 10.8758 2.23816 10.4519 2.66199C10.0281 3.08582 9.79001 3.66062 9.79001 4.26001C9.79001 4.8594 10.0281 5.43426 10.4519 5.85809C10.8758 6.28192 11.4506 6.52002 12.05 6.52002C12.6494 6.52002 13.2242 6.28192 13.6481 5.85809C14.0719 5.43426 14.31 4.8594 14.31 4.26001C14.31 3.66062 14.0719 3.08582 13.6481 2.66199Z" fill="#00164E"/>
<path d="M20.1607 18.9811C20.0771 19.1827 19.9545 19.3658 19.8 19.52C19.6458 19.6745 19.4627 19.7971 19.261 19.8807C19.0594 19.9644 18.8433 20.0074 18.625 20.0074C18.4067 20.0074 18.1906 19.9644 17.989 19.8807C17.7873 19.7971 17.6042 19.6745 17.45 19.52L12.05 14.12L6.65001 19.52C6.49582 19.6745 6.31267 19.7971 6.11105 19.8807C5.90943 19.9644 5.69329 20.0074 5.47501 20.0074C5.25673 20.0074 5.04059 19.9644 4.83897 19.8807C4.63734 19.7971 4.4542 19.6745 4.30001 19.52C4.1455 19.3658 4.02292 19.1827 3.93929 18.9811C3.85565 18.7795 3.8126 18.5633 3.8126 18.345C3.8126 18.1267 3.85565 17.9106 3.93929 17.709C4.02292 17.5074 4.1455 17.3242 4.30001 17.17L9.70001 11.77L4.30001 6.36005C4.14581 6.20671 4.02344 6.0244 3.93994 5.82361C3.85644 5.62282 3.81345 5.40746 3.81345 5.19C3.81345 4.97254 3.85644 4.75725 3.93994 4.55646C4.02344 4.35567 4.14581 4.17335 4.30001 4.02002C4.4542 3.86551 4.63734 3.74294 4.83897 3.6593C5.04059 3.57567 5.25673 3.53259 5.47501 3.53259C5.69329 3.53259 5.90943 3.57567 6.11105 3.6593C6.31267 3.74294 6.49582 3.86551 6.65001 4.02002L12.05 9.42004L17.45 4.02002C17.6042 3.86551 17.7873 3.74294 17.989 3.6593C18.1906 3.57567 18.4067 3.53259 18.625 3.53259C18.8433 3.53259 19.0594 3.57567 19.261 3.6593C19.4627 3.74294 19.6458 3.86551 19.8 4.02002C19.9542 4.17335 20.0766 4.35567 20.1601 4.55646C20.2436 4.75725 20.2866 4.97254 20.2866 5.19C20.2866 5.40746 20.2436 5.62282 20.1601 5.82361C20.0766 6.0244 19.9542 6.20671 19.8 6.36005L14.4 11.77L19.8 17.17C19.9545 17.3242 20.0771 17.5074 20.1607 17.709C20.2444 17.9106 20.2874 18.1267 20.2874 18.345C20.2874 18.5633 20.2444 18.7795 20.1607 18.9811Z" fill="#00164E"/>
</svg>
