<svg width="24" height="24" viewBox="0 0 24 24" fill="none" xmlns="http://www.w3.org/2000/svg">
<path fill-rule="evenodd" clip-rule="evenodd" d="M7.5 18C7.77614 18 8 17.7761 8 17.5V16H10V16.5C10 16.7761 10.2239 17 10.5 17C10.7761 17 11 16.7761 11 16.5V16H13V17.5C13 17.7761 13.2239 18 13.5 18C13.7761 18 14 17.7761 14 17.5V16H16V16.5C16 16.7761 16.2239 17 16.5 17C16.7761 17 17 16.7761 17 16.5V16H17.5C19.433 16 21 14.433 21 12.5C21 10.567 19.433 9 17.5 9H17C17 7.61054 16.4318 6.47088 15.505 5.68639C14.5862 4.90862 13.3409 4.5 12 4.5C10.6591 4.5 9.41378 4.90862 8.49497 5.68639C7.56823 6.47088 7 7.61054 7 9H6.5C4.567 9 3 10.567 3 12.5C3 14.433 4.567 16 6.5 16H7V17.5C7 17.7761 7.22386 18 7.5 18ZM9.14107 6.44965C8.43913 7.04384 8 7.90417 8 9C8 9.15061 8.0083 9.2991 8.02444 9.44506L8.08578 10H6.5C5.11929 10 4 11.1193 4 12.5C4 13.8807 5.11929 15 6.5 15H17.5C18.8807 15 20 13.8807 20 12.5C20 11.1193 18.8807 10 17.5 10H15.9142L15.9756 9.44506C15.9917 9.2991 16 9.15061 16 9C16 7.90417 15.5609 7.04384 14.8589 6.44965C14.1491 5.84874 13.1444 5.5 12 5.5C10.8556 5.5 9.85094 5.84874 9.14107 6.44965Z" fill="#00164E"/>
<path d="M16.5 18C16.7761 18 17 18.2239 17 18.5V19C17 19.2761 16.7761 19.5 16.5 19.5C16.2239 19.5 16 19.2761 16 19V18.5C16 18.2239 16.2239 18 16.5 18Z" fill="#00164E"/>
<path d="M11 18.5C11 18.2239 10.7761 18 10.5 18C10.2239 18 10 18.2239 10 18.5V19C10 19.2761 10.2239 19.5 10.5 19.5C10.7761 19.5 11 19.2761 11 19V18.5Z" fill="#00164E"/>
<path d="M7.5 19C7.77614 19 8 19.2239 8 19.5V20C8 20.2761 7.77614 20.5 7.5 20.5C7.22386 20.5 7 20.2761 7 20V19.5C7 19.2239 7.22386 19 7.5 19Z" fill="#00164E"/>
<path d="M14 19.5C14 19.2239 13.7761 19 13.5 19C13.2239 19 13 19.2239 13 19.5V20C13 20.2761 13.2239 20.5 13.5 20.5C13.7761 20.5 14 20.2761 14 20V19.5Z" fill="#00164E"/>
</svg>
