<svg width="24" height="24" viewBox="0 0 24 24" fill="none" xmlns="http://www.w3.org/2000/svg">
<path fill-rule="evenodd" clip-rule="evenodd" d="M6.08398 5.22265C6.17671 5.08355 6.33282 5 6.5 5H17.5C17.6484 5 17.7891 5.06591 17.8841 5.17991L20.3841 8.17991C20.5334 8.35903 20.539 8.61755 20.3977 8.80302L12.3977 19.303C12.3015 19.4293 12.151 19.5024 11.9923 19.4999C11.8336 19.4975 11.6854 19.4198 11.5931 19.2906L4.09313 8.79062C3.97239 8.62158 3.96875 8.39549 4.08397 8.22265L6.08398 5.22265ZM5.43112 8.00471C5.45364 8.0016 5.47663 8 5.5 8H11.5V6H6.76759L5.43112 8.00471ZM17.2658 6L18.9325 8H12.5V6H17.2658ZM5.471 8.99917L11.5 17.4398V9H5.5C5.49027 9 5.4806 8.99972 5.471 8.99917ZM18.9905 9L12.5 17.5187V9H18.9905Z" fill="#00164E"/>
</svg>
