<svg width="24" height="24" viewBox="0 0 24 24" fill="none" xmlns="http://www.w3.org/2000/svg">
<path d="M8.50488 10.1843C8.50488 10.4605 8.28103 10.6843 8.00488 10.6843C7.72874 10.6843 7.50488 10.4605 7.50488 10.1843C7.50488 9.90818 7.72874 9.68433 8.00488 9.68433C8.28103 9.68433 8.50488 9.90818 8.50488 10.1843Z" fill="#00164E"/>
<path d="M8.00488 6.46997C7.52583 6.46997 7.05297 6.56299 6.61697 6.74211C6.18101 6.92121 5.79285 7.18186 5.4762 7.50536L5.4737 7.5079C5.35899 7.62344 5.25465 7.74689 5.16156 7.87704C5.0009 8.10164 4.68859 8.15348 4.46399 7.99282C4.23939 7.83217 4.18756 7.51986 4.34821 7.29526C4.47254 7.12144 4.61122 6.95739 4.76282 6.80458C5.177 6.3818 5.67949 6.04614 6.23696 5.81712C6.79495 5.58789 7.39702 5.46997 8.00488 5.46997C8.61275 5.46997 9.21482 5.58789 9.7728 5.81712C10.3303 6.04614 10.8328 6.38179 11.2469 6.80456C11.3985 6.95738 11.5372 7.12143 11.6616 7.29526C11.8222 7.51986 11.7704 7.83217 11.5458 7.99282C11.3212 8.15348 11.0089 8.10164 10.8482 7.87704C10.7551 7.74689 10.6508 7.62343 10.5361 7.50789L10.5336 7.50536C10.2169 7.18187 9.82876 6.92121 9.3928 6.74211C8.95679 6.56299 8.48394 6.46997 8.00488 6.46997Z" fill="#00164E"/>
<path d="M7.07261 8.05384C7.36483 7.92818 7.68269 7.86283 8.00488 7.86283C8.32708 7.86283 8.64494 7.92818 8.93715 8.05384C9.22933 8.17948 9.4883 8.36215 9.69777 8.58832L9.70123 8.59199C9.77965 8.67496 9.85134 8.76317 9.91576 8.85585C10.0734 9.08259 10.385 9.13862 10.6117 8.98101C10.8384 8.82339 10.8945 8.5118 10.7369 8.28506C10.6442 8.15179 10.5415 8.02542 10.4297 7.90694C10.1238 7.57719 9.74946 7.3146 9.3322 7.13517C8.91419 6.95542 8.46182 6.86283 8.00488 6.86283C7.54794 6.86283 7.09558 6.95542 6.67757 7.13517C6.2603 7.3146 5.88592 7.57719 5.58003 7.90694C5.46822 8.02543 5.36555 8.15179 5.2729 8.28506C5.11529 8.5118 5.17132 8.82339 5.39806 8.98101C5.6248 9.13862 5.93639 9.08259 6.094 8.85585C6.15843 8.76317 6.23013 8.67498 6.30855 8.59201L6.31198 8.5883C6.52145 8.36213 6.78044 8.17948 7.07261 8.05384Z" fill="#00164E"/>
<path d="M8.00488 9.25568C7.84302 9.25568 7.68301 9.29226 7.5365 9.36297C7.38997 9.43369 7.26045 9.53687 7.15767 9.66535C7.15177 9.67273 7.14565 9.67994 7.13934 9.68697C7.09931 9.73158 7.06258 9.77918 7.02948 9.8294C6.87749 10.0599 6.56738 10.1236 6.33683 9.97165C6.10627 9.81966 6.04259 9.50955 6.19457 9.279C6.25232 9.19141 6.31619 9.10806 6.38572 9.02959C6.57997 8.79009 6.82436 8.59629 7.10185 8.46237C7.38362 8.32638 7.69218 8.25568 8.00488 8.25568C8.31759 8.25568 8.62614 8.32638 8.90792 8.46237C9.1873 8.59721 9.43314 8.79275 9.62803 9.03451C9.69982 9.11928 9.76514 9.20938 9.82345 9.30402C9.96828 9.53913 9.8951 9.84714 9.65999 9.99197C9.42488 10.1368 9.11687 10.0636 8.97203 9.82852C8.93927 9.77533 8.90252 9.72485 8.86213 9.67749L8.85209 9.66535C8.74932 9.53687 8.61979 9.43369 8.47327 9.36297C8.32676 9.29226 8.16675 9.25568 8.00488 9.25568Z" fill="#00164E"/>
<path fill-rule="evenodd" clip-rule="evenodd" d="M3.70286 2.00271C3.72015 2.00091 3.73752 2 3.7549 2H12.2549C12.2723 2 12.2896 2.00091 12.3069 2.00271C12.8122 2.05559 13.2687 2.3187 13.5823 2.72185C13.8908 3.11845 14.0394 3.62165 14.0049 4.12542V6.47733L20.6234 11.419C21.0519 11.7381 21.4003 12.1533 21.6401 12.6308C21.8799 13.1084 22.0048 13.6355 22.0048 14.17V21.47C22.0048 21.7461 21.7809 21.97 21.5048 21.97C21.2286 21.97 21.0048 21.7461 21.0048 21.47V14.17C21.0048 13.7913 20.9163 13.4179 20.7464 13.0795C20.5765 12.7411 20.3298 12.4471 20.0261 12.221L14.0049 7.72532V15.8746C14.0394 16.3783 13.8908 16.8815 13.5823 17.2782C13.3309 17.6014 12.9875 17.8347 12.6008 17.9416C12.5712 17.952 12.5408 17.9596 12.5099 17.9643L12.5008 17.9663C12.3802 17.9822 12.2528 17.9538 12.1458 17.8779L8.09576 15.0079C8.07691 14.9945 8.059 14.9799 8.04218 14.964C7.86224 14.7947 7.62651 14.6972 7.37967 14.69C7.11235 14.6923 6.8563 14.7984 6.66573 14.9861C6.5756 15.0746 6.5033 15.1808 6.45442 15.2972C6.40555 15.4137 6.38037 15.5387 6.38037 15.6649C6.38037 15.7912 6.40555 15.9162 6.45442 16.0327C6.5033 16.1491 6.5749 16.2546 6.66503 16.343L6.6688 16.3467L11.4288 21.1168C11.6238 21.3122 11.6235 21.6288 11.428 21.8239C11.2326 22.0189 10.916 22.0186 10.7209 21.8231L6.90582 18H3.7549C3.73752 18 3.72015 17.9991 3.70286 17.9973C3.19755 17.9444 2.74105 17.6813 2.42749 17.2782C2.11903 16.8815 1.97039 16.3784 2.0049 15.8746V4.12541C1.97039 3.62165 2.11903 3.11845 2.42749 2.72185C2.74105 2.3187 3.19756 2.05559 3.70286 2.00271ZM5.90906 17C5.75006 16.8307 5.62243 16.6342 5.53237 16.4197C5.43205 16.1807 5.38037 15.9241 5.38037 15.6649C5.38037 15.4057 5.43205 15.1492 5.53237 14.9102C5.63263 14.6713 5.77948 14.4548 5.96433 14.2734C6.34286 13.9007 6.85242 13.6912 7.38365 13.6899L7.39641 13.6901C7.87986 13.7012 8.34264 13.8863 8.70023 14.2106L12.5069 16.9082C12.6138 16.8507 12.7116 16.7688 12.7929 16.6642C12.9481 16.4647 13.0276 16.2016 13.0064 15.932C13.0054 15.919 13.0049 15.9059 13.0049 15.8929V6.97868L12.9932 6.96997H13.0049L13.0049 4.10714C13.0049 4.09408 13.0054 4.08101 13.0064 4.06799C13.0276 3.7984 12.9481 3.53527 12.7929 3.33579C12.6439 3.14416 12.4395 3.02862 12.2256 3H3.78415C3.57028 3.02862 3.36589 3.14416 3.21685 3.33579C3.06169 3.53527 2.98218 3.7984 3.00336 4.06799C3.00438 4.08101 3.0049 4.09408 3.0049 4.10714V15.8929C3.0049 15.9059 3.00438 15.919 3.00336 15.932C2.98218 16.2016 3.06169 16.4647 3.21685 16.6642C3.36589 16.8558 3.57028 16.9714 3.78416 17H5.90906Z" fill="#00164E"/>
</svg>
