<svg width="24" height="24" viewBox="0 0 24 24" fill="none" xmlns="http://www.w3.org/2000/svg">
<path fill-rule="evenodd" clip-rule="evenodd" d="M9.75 4.5C9.54158 4.5 9.35502 4.62929 9.28184 4.82444L8.53184 6.82444C8.51049 6.88137 8.5 6.94083 8.5 7H7.5C7.22386 7 7 7.22386 7 7.5C7 7.77614 7.22386 8 7.5 8H8.12601C8.04375 8.31961 8 8.65467 8 8.99995C8 10.3447 8.66359 11.5345 9.68118 12.2596C8.64113 12.5628 7.6836 13.124 6.90381 13.9038C5.68482 15.1228 5 16.7761 5 18.5V18.8C5 19.3835 5.23179 19.9431 5.64437 20.3556C6.05694 20.7682 6.61652 21 7.2 21H16.8C17.3835 21 17.9431 20.7682 18.3556 20.3556C18.7682 19.9431 19 19.3835 19 18.8V18.5C19 16.7761 18.3152 15.1228 17.0962 13.9038C16.3164 13.124 15.3589 12.5628 14.3188 12.2596C15.3364 11.5345 16 10.3447 16 8.99995C16 8.65467 15.9563 8.31961 15.874 8H16.5C16.7761 8 17 7.77614 17 7.5C17 7.22386 16.7761 7 16.5 7H15.5C15.5 6.94083 15.4895 6.88137 15.4682 6.82444L14.7182 4.82444C14.645 4.62929 14.4584 4.5 14.25 4.5H9.75ZM14.8293 8C14.9399 8.31277 15 8.64934 15 8.99995C15 10.6568 13.6569 12 12 12C10.3431 12 9 10.6568 9 8.99995C9 8.64934 9.06015 8.31277 9.17069 8H14.8293ZM9.7215 6.5L10.0965 5.5H13.9035L14.2785 6.5H9.7215ZM11.5 13C10.9882 13 10.4838 13.0713 10 13.2085V15.5H14V13.2085C13.5162 13.0713 13.0118 13 12.5 13H11.5ZM7.61091 14.6109C8.02205 14.1998 8.49158 13.8605 9 13.601V15.5C8.76565 15.5 8.56275 15.6628 8.51191 15.8915L7.59892 20H7.2C6.88174 20 6.57652 19.8736 6.35147 19.6485C6.12643 19.4235 6 19.1183 6 18.8V18.5C6 17.0413 6.57946 15.6424 7.61091 14.6109ZM14.5989 16.5L15.3767 20H8.62331L9.40109 16.5H14.5989ZM15.4881 15.8915L16.4011 20H16.8C17.1183 20 17.4235 19.8736 17.6485 19.6485C17.8736 19.4235 18 19.1183 18 18.8V18.5C18 17.0413 17.4205 15.6424 16.3891 14.6109C15.978 14.1998 15.5084 13.8605 15 13.601V15.5C15.2343 15.5 15.4373 15.6628 15.4881 15.8915Z" fill="#00164E"/>
</svg>
