<svg width="24" height="24" viewBox="0 0 24 24" fill="none" xmlns="http://www.w3.org/2000/svg">
<path fill-rule="evenodd" clip-rule="evenodd" d="M6.50066 11C5.67223 11 5.00066 11.6716 5.00066 12.5C5.00066 13.3284 5.67223 14 6.50066 14C7.15377 14 7.70939 13.5826 7.91531 13H16.086C16.2919 13.5826 16.8476 14 17.5007 14C18.3291 14 19.0007 13.3284 19.0007 12.5C19.0007 11.6716 18.3291 11 17.5007 11C16.8476 11 16.2919 11.4174 16.086 12H7.91531C7.70939 11.4174 7.15377 11 6.50066 11ZM6.00066 12.5C6.00066 12.2239 6.22452 12 6.50066 12C6.7768 12 7.00066 12.2239 7.00066 12.5C7.00066 12.7761 6.7768 13 6.50066 13C6.22452 13 6.00066 12.7761 6.00066 12.5ZM17.5007 12C17.2245 12 17.0007 12.2239 17.0007 12.5C17.0007 12.7761 17.2245 13 17.5007 13C17.7768 13 18.0007 12.7761 18.0007 12.5C18.0007 12.2239 17.7768 12 17.5007 12Z" fill="#00164E"/>
<path fill-rule="evenodd" clip-rule="evenodd" d="M5.10718 5.7354C5.4651 4.13658 6.88425 3 8.52264 3H15.4787C17.1171 3 18.5362 4.13658 18.8941 5.7354L19.4436 8.18964C20.4786 8.57706 21.2502 9.52122 21.3751 10.678L21.8782 15.339C21.9262 15.7838 21.7754 16.2001 21.5007 16.5048V18.5C21.5007 19.3284 20.8291 20 20.0007 20H18.0007C17.1722 20 16.5007 19.3284 16.5007 18.5V17H7.50066V18.5C7.50066 19.3284 6.82909 20 6.00066 20H4.00066C3.17223 20 2.50066 19.3284 2.50066 18.5V16.5048C2.22588 16.2001 2.07508 15.7838 2.12309 15.339L2.62627 10.678C2.75115 9.52122 3.52274 8.57706 4.55777 8.18964L5.10718 5.7354ZM3.62049 10.7853C3.73013 9.76976 4.58746 9 5.60894 9H18.3924C19.4139 9 20.2712 9.76976 20.3808 10.7853L20.884 15.4463C20.9159 15.742 20.6843 16 20.3869 16H3.61443C3.31704 16 3.0854 15.742 3.11731 15.4463L3.62049 10.7853ZM17.9183 5.95386L18.3764 8H5.62497L6.08303 5.95386C6.33868 4.81184 7.35236 4 8.52264 4H15.4787C16.649 4 17.6626 4.81184 17.9183 5.95386ZM20.0007 19C20.2768 19 20.5007 18.7761 20.5007 18.5V17H17.5007V18.5C17.5007 18.7761 17.7245 19 18.0007 19H20.0007ZM6.00066 19C6.2768 19 6.50066 18.7761 6.50066 18.5V17H3.50066V18.5C3.50066 18.7761 3.72452 19 4.00066 19H6.00066Z" fill="#00164E"/>
</svg>
