<svg width="24" height="24" viewBox="0 0 24 24" fill="none" xmlns="http://www.w3.org/2000/svg">
<path fill-rule="evenodd" clip-rule="evenodd" d="M6 6.5C6 6.22386 6.22386 6 6.5 6H17.5C17.7761 6 18 6.22386 18 6.5V17.5C18 17.7761 17.7761 18 17.5 18H6.5C6.22386 18 6 17.7761 6 17.5V6.5ZM7 7V17H17V7H7Z" fill="#00164E"/>
<path d="M2 8.5C2 8.22386 2.22386 8 2.5 8H5C5.27614 8 5.5 8.22386 5.5 8.5C5.5 8.77614 5.27614 9 5 9H3V15H5C5.27614 15 5.5 15.2239 5.5 15.5C5.5 15.7761 5.27614 16 5 16H2.5C2.22386 16 2 15.7761 2 15.5V8.5Z" fill="#00164E"/>
<path d="M21.5 8C21.7761 8 22 8.22386 22 8.5V15.5C22 15.7761 21.7761 16 21.5 16H19C18.7239 16 18.5 15.7761 18.5 15.5C18.5 15.2239 18.7239 15 19 15H21V9H19C18.7239 9 18.5 8.77614 18.5 8.5C18.5 8.22386 18.7239 8 19 8H21.5Z" fill="#00164E"/>
</svg>
