<svg width="24" height="24" viewBox="0 0 24 24" fill="none" xmlns="http://www.w3.org/2000/svg">
<path d="M5.08763 4.74204C5.22133 4.50042 5.13383 4.19617 4.89221 4.06248C4.65059 3.92878 4.34634 4.01628 4.21264 4.2579C3.40975 5.70896 2.99227 7.34163 3.00011 8.99997C2.99227 10.6583 3.40975 12.291 4.21264 13.742C4.34634 13.9837 4.65059 14.0712 4.89221 13.9375C5.13383 13.8038 5.22133 13.4995 5.08763 13.2579C4.36714 11.9558 3.99271 10.4906 4.00013 9.00246L4.00011 8.99748C3.99269 7.50934 4.36714 6.04417 5.08763 4.74204Z" fill="#00164E"/>
<path d="M19.108 4.06248C19.3496 3.92878 19.6539 4.01628 19.7876 4.2579C20.5905 5.70896 21.008 7.34163 21.0001 8.99997C21.008 10.6583 20.5905 12.291 19.7876 13.742C19.6539 13.9837 19.3496 14.0712 19.108 13.9375C18.8664 13.8038 18.7789 13.4995 18.9126 13.2579C19.6331 11.9558 20.0075 10.4906 20.0001 9.00246L20.0001 8.99748C20.0075 7.50934 19.6331 6.04417 18.9126 4.74204C18.7789 4.50042 18.8664 4.19617 19.108 4.06248Z" fill="#00164E"/>
<path d="M6.63062 5.06161C6.87272 5.19443 6.96131 5.49837 6.82849 5.74047C6.28087 6.73864 5.99582 7.85958 6.00011 8.99808V9.00186C5.99582 10.1404 6.28087 11.2613 6.82849 12.2595C6.96131 12.5016 6.87272 12.8055 6.63062 12.9383C6.38852 13.0712 6.08459 12.9826 5.95176 12.7405C5.32296 11.5943 4.9955 10.3073 5.00011 8.99997C4.9955 7.69268 5.32296 6.40562 5.95176 5.25947C6.08459 5.01737 6.38852 4.92879 6.63062 5.06161Z" fill="#00164E"/>
<path d="M8.37108 6.06188C8.61304 6.19497 8.70128 6.499 8.56819 6.74096C8.18849 7.43122 7.99284 8.2076 8.00007 8.99538L8.00016 9.00456C7.99292 9.79234 8.18849 10.5687 8.56819 11.259C8.70128 11.5009 8.61304 11.805 8.37108 11.9381C8.12913 12.0712 7.8251 11.9829 7.692 11.741C7.23032 10.9016 6.99206 9.9578 7.00007 8.99997C6.99206 8.04214 7.23032 7.09829 7.692 6.25898C7.8251 6.01703 8.12913 5.92878 8.37108 6.06188Z" fill="#00164E"/>
<path fill-rule="evenodd" clip-rule="evenodd" d="M10.0001 8.99997C10.0001 7.8954 10.8956 6.99997 12.0001 6.99997C13.1047 6.99997 14.0001 7.8954 14.0001 8.99997C14.0001 9.69588 13.6447 10.3088 13.1055 10.667L14.4386 14H14.5001V14.1537L16.9644 20.3143C17.0669 20.5707 16.9422 20.8617 16.6858 20.9642C16.4294 21.0668 16.1384 20.9421 16.0359 20.6857L14.9616 18H9.03864L7.96436 20.6857C7.8618 20.9421 7.57082 21.0668 7.31443 20.9642C7.05803 20.8617 6.93333 20.5707 7.03588 20.3143L9.50012 14.1537V14H9.56161L10.8948 10.667C10.3556 10.3088 10.0001 9.69588 10.0001 8.99997ZM12.0001 7.99997C11.4478 7.99997 11.0001 8.44769 11.0001 8.99997C11.0001 9.55225 11.4478 9.99997 12.0001 9.99997C12.5524 9.99997 13.0001 9.55225 13.0001 8.99997C13.0001 8.44769 12.5524 7.99997 12.0001 7.99997ZM14.5616 17L13.7616 15H10.2386L9.43864 17H14.5616ZM12.1591 10.9937L13.3616 14H10.6386L11.8411 10.9937C11.8936 10.9979 11.9466 11 12.0001 11C12.0536 11 12.1067 10.9979 12.1591 10.9937Z" fill="#00164E"/>
<path d="M16.3082 6.25898C16.1751 6.01703 15.8711 5.92878 15.6291 6.06188C15.3872 6.19497 15.2989 6.499 15.432 6.74096C15.8117 7.43122 16.0073 8.2076 16.0001 8.99538L16.0001 9.00456C16.0074 9.79234 15.8117 10.5687 15.432 11.259C15.2989 11.5009 15.3872 11.805 15.6291 11.9381C15.8711 12.0712 16.1751 11.9829 16.3082 11.741C16.7699 10.9016 17.0082 9.9578 17.0001 8.99997C17.0082 8.04214 16.7699 7.09829 16.3082 6.25898Z" fill="#00164E"/>
<path d="M18.0485 5.25947C17.9156 5.01737 17.6117 4.92879 17.3696 5.06161C17.1275 5.19443 17.0389 5.49837 17.1717 5.74047C17.7194 6.73864 18.0044 7.85958 18.0001 8.99808V9.00186C18.0044 10.1404 17.7194 11.2613 17.1717 12.2595C17.0389 12.5016 17.1275 12.8055 17.3696 12.9383C17.6117 13.0712 17.9156 12.9826 18.0485 12.7405C18.6773 11.5943 19.0047 10.3073 19.0001 8.99997C19.0047 7.69268 18.6773 6.40562 18.0485 5.25947Z" fill="#00164E"/>
</svg>
