<svg width="24" height="24" viewBox="0 0 24 24" fill="none" xmlns="http://www.w3.org/2000/svg">
<path fill-rule="evenodd" clip-rule="evenodd" d="M13.531 4.00049C13.1962 3.98622 12.862 4.04166 12.5497 4.16329C12.2374 4.28493 11.9538 4.47011 11.7168 4.70709C11.4798 4.94408 11.2946 5.22771 11.173 5.54001C11.0527 5.84881 10.9972 6.17898 11.0097 6.51006V10H6.50974C6.50739 10 6.50504 10 6.50268 10.0001C6.49562 10.0002 6.48857 10.0004 6.48152 10.0008C6.0777 10.0237 5.68441 10.1383 5.33155 10.336C4.97869 10.5337 4.67556 10.8092 4.44521 11.1417C4.21486 11.4741 4.06336 11.8547 4.00224 12.2546C3.94111 12.6544 3.97196 13.0629 4.09244 13.449C4.09878 13.4693 4.10642 13.4892 4.11529 13.5085L6.17529 17.9985C6.17843 18.0054 6.18172 18.0121 6.18516 18.0188L6.19168 18.0315C6.40614 18.4482 6.57586 18.778 6.72153 19.0294C6.8663 19.2791 7.01138 19.4952 7.18831 19.6562C7.56942 20.0028 8.00815 20.0015 8.43256 20.0002L8.50974 20H15.5097C15.7859 20 16.0097 19.7762 16.0097 19.5V10.5C16.0097 10.4463 16.0011 10.3929 15.9841 10.3419L13.9841 4.34192C13.9185 4.14516 13.7382 4.00932 13.531 4.00049ZM12.9126 5.09511C12.9922 5.06414 13.0741 5.04048 13.1575 5.0243L15.0097 10.5812V19H8.50974C7.95782 19 7.92691 18.9762 7.86118 18.9164C7.80311 18.8636 7.72069 18.7591 7.58671 18.5279C7.45613 18.3026 7.29922 17.9982 7.07949 17.5713L5.0384 13.1225C4.97042 12.89 4.95411 12.6454 4.99075 12.4057C5.0289 12.1562 5.12344 11.9187 5.26719 11.7112C5.41094 11.5037 5.60011 11.3318 5.82032 11.2084C6.03669 11.0872 6.27741 11.016 6.5248 11H11.5097C11.7859 11 12.0097 10.7762 12.0097 10.5V6.50003C12.0097 6.49382 12.0096 6.48762 12.0094 6.48142C12.0094 6.48141 12.0094 6.48142 12.0094 6.48142C12.0094 6.48053 12.0093 6.47963 12.0093 6.47875C12.0009 6.28226 12.0334 6.08619 12.1048 5.90294C12.1762 5.71969 12.2849 5.55326 12.4239 5.4142C12.563 5.27514 12.7294 5.16648 12.9126 5.09511Z" fill="#00164E"/>
<path d="M19.8633 11.1464C19.7696 11.0527 19.6424 11 19.5098 11H17.0098V20H19.5098C19.6424 20 19.7696 19.9473 19.8633 19.8536C19.9571 19.7598 20.0098 19.6326 20.0098 19.5V11.5C20.0098 11.3674 19.9571 11.2402 19.8633 11.1464Z" fill="#00164E"/>
</svg>
