<svg width="24" height="24" viewBox="0 0 24 24" fill="none" xmlns="http://www.w3.org/2000/svg">
<path fill-rule="evenodd" clip-rule="evenodd" d="M15.8275 9.3897C14.1732 9.41226 12.5907 10.0699 11.4075 11.2264C10.8038 11.8021 10.3438 12.5113 10.0647 13.2974C9.78554 14.0835 9.69506 14.9242 9.80051 15.7517C9.48079 15.7189 9.16102 15.6698 8.8413 15.6206C8.52156 15.5715 8.20175 15.5224 7.88202 15.4896C7.66057 15.4692 7.43805 15.515 7.24252 15.6209C6.76113 15.8934 6.27974 16.2108 5.72938 16.5738C5.61735 16.6477 5.50247 16.7234 5.38415 16.8011C5.473 16.2677 5.60088 15.7416 5.76676 15.227C5.8199 15.0861 5.82341 14.9313 5.77671 14.7882C5.73 14.6451 5.63586 14.5226 5.50986 14.4402C3.46019 12.9316 2.5638 10.7016 3.20329 8.42782C3.46934 7.44973 3.98828 6.55877 4.7079 5.84491C5.42752 5.13105 6.32244 4.61922 7.30264 4.36103C8.6295 3.90877 10.0642 3.88086 11.4078 4.28043C12.7515 4.68001 13.9376 5.48732 14.8017 6.59112C15.3897 7.41458 15.744 8.38161 15.8275 9.3897ZM12.047 7.88124C11.8382 7.88124 11.638 7.96422 11.4904 8.11183C11.3428 8.25944 11.2599 8.45927 11.2599 8.66802C11.2599 8.87676 11.3428 9.07713 11.4904 9.22474C11.638 9.37234 11.8382 9.45533 12.047 9.45533C12.1504 9.45849 12.2534 9.44007 12.3494 9.40142C12.4455 9.36276 12.5324 9.30457 12.6048 9.23061C12.6773 9.15665 12.7336 9.06855 12.7702 8.97173C12.8068 8.87492 12.823 8.77139 12.8176 8.66802C12.8284 8.56342 12.816 8.4577 12.7814 8.35843C12.7467 8.25916 12.6906 8.16882 12.617 8.09368C12.5434 8.01855 12.4542 7.9607 12.3557 7.92394C12.2572 7.88718 12.1518 7.87266 12.047 7.88124ZM7.94214 8.66802C7.94222 8.46301 7.86231 8.2663 7.7194 8.1193C7.57649 7.97231 7.38186 7.88694 7.17693 7.88124C6.96818 7.88124 6.76799 7.96422 6.62038 8.11183C6.47278 8.25944 6.38986 8.45927 6.38986 8.66802C6.38986 8.87676 6.47278 9.07713 6.62038 9.22474C6.76799 9.37234 6.96818 9.45533 7.17693 9.45533C7.38186 9.44963 7.57649 9.36426 7.7194 9.21727C7.86231 9.07027 7.94222 8.87303 7.94214 8.66802Z" fill="#00164E"/>
<path d="M15.8275 9.3897L15.8293 9.38967V9.41156L15.8275 9.3897Z" fill="#00164E"/>
<path fill-rule="evenodd" clip-rule="evenodd" d="M19.6717 20.3432C19.1809 20.0316 18.6387 19.8094 18.0703 19.6872C17.7637 19.648 17.4338 19.7491 17.1014 19.851C16.8767 19.9198 16.651 19.989 16.4305 20.0154C15.6272 20.1188 14.8109 20.0362 14.0443 19.7747C13.2777 19.5132 12.5813 19.0793 12.0087 18.5065C9.63654 16.2764 9.95902 12.8003 12.7138 10.9638C15.1515 9.32402 18.7262 9.87069 20.4697 12.1445C21.2012 13.0624 21.5553 14.2247 21.4598 15.3946C21.3644 16.5644 20.8266 17.6536 19.956 18.4408C19.4422 18.8999 19.2509 19.2939 19.5734 19.9498C19.6717 20.0154 19.6717 20.212 19.6717 20.3432ZM17.469 12.8661C17.2975 12.869 17.134 12.9392 17.0142 13.062C16.8944 13.1849 16.8281 13.35 16.8295 13.5216C16.8232 13.6079 16.8354 13.6949 16.865 13.7762C16.8947 13.8575 16.9413 13.9314 17.0018 13.9934C17.0622 14.0554 17.1351 14.1042 17.2156 14.136C17.2962 14.1677 17.3826 14.1817 17.469 14.1776C17.6314 14.1795 17.7884 14.1196 17.9081 14.01C18.0279 13.9004 18.1015 13.7491 18.114 13.5872C18.118 13.4111 18.0565 13.2402 17.9414 13.1068C17.8263 12.9735 17.6657 12.8877 17.4909 12.8661H17.469ZM13.4954 14.1776C13.5808 14.1769 13.6652 14.1597 13.7439 14.1263C13.8225 14.093 13.8938 14.0442 13.9537 13.9833C14.0136 13.9224 14.0609 13.8506 14.0929 13.7714C14.125 13.6922 14.1411 13.607 14.1404 13.5216C14.1467 13.4348 14.1345 13.3476 14.1045 13.2659C14.0744 13.1842 14.0274 13.1102 13.9663 13.0481C13.9053 12.9861 13.8317 12.9375 13.7505 12.9061C13.6693 12.8748 13.5823 12.8612 13.4954 12.8661C13.3238 12.869 13.1604 12.9392 13.0406 13.062C12.9208 13.1849 12.8544 13.35 12.8559 13.5216C12.8493 13.6099 12.8619 13.6986 12.8928 13.7815C12.9238 13.8645 12.9724 13.9402 13.0353 14.0025C13.0981 14.0649 13.1738 14.1126 13.257 14.1429C13.3402 14.1732 13.429 14.185 13.5173 14.1776H13.4954Z" fill="#00164E"/>
</svg>
