<svg width="24" height="24" viewBox="0 0 24 24" fill="none" xmlns="http://www.w3.org/2000/svg">
<path d="M4.5 2C3.67157 2 3 2.67157 3 3.5V11.5C3 12.3284 3.67157 13 4.5 13H6.5C6.77614 13 7 12.7761 7 12.5C7 12.2239 6.77614 12 6.5 12H4.5C4.22386 12 4 11.7761 4 11.5V3.5C4 3.22386 4.22386 3 4.5 3H19.5C19.7761 3 20 3.22386 20 3.5V11.5C20 11.7761 19.7761 12 19.5 12H15.5C15.2239 12 15 12.2239 15 12.5C15 12.7761 15.2239 13 15.5 13H19.5C20.3284 13 21 12.3284 21 11.5V3.5C21 2.67157 20.3284 2 19.5 2H4.5Z" fill="#00164E"/>
<path d="M11.5 4.5C11.5 4.22386 11.2761 4 11 4C10.7239 4 10.5 4.22386 10.5 4.5V6.5C10.5 6.77614 10.7239 7 11 7C11.2761 7 11.5 6.77614 11.5 6.5V4.5Z" fill="#00164E"/>
<path d="M11 9C11.5523 9 12 9.44772 12 10V14.1095C11.9998 14.1168 11.9998 14.1241 12 14.1314V15.5C12 15.7761 12.2239 16 12.5 16C12.7761 16 13 15.7761 13 15.5V14.7683L16.1831 15.6037C16.1943 15.6067 16.2057 15.6092 16.2171 15.6114C16.7152 15.7056 17.1653 15.9697 17.4904 16.3587C17.8151 16.7472 17.9952 17.2361 18 17.7424V21.5001C18 21.7763 18.2239 22.0001 18.5 22.0001C18.7761 22.0001 19 21.7763 19 21.5001L19 17.7401L19 17.7358C18.9936 16.9974 18.7313 16.284 18.2577 15.7174C17.7879 15.1554 17.1393 14.7724 16.4208 14.6323L13 13.7344V10C13 8.89543 12.1046 8 11 8C9.89543 8 9 8.89543 9 10V15.2061L8.1927 14.4968C7.82719 14.1669 7.34947 13.9892 6.85738 14C6.60976 13.9972 6.36397 14.043 6.13398 14.135C5.90116 14.2282 5.6892 14.3667 5.51046 14.5425C5.33516 14.7128 5.19576 14.9165 5.10048 15.1416C5.0049 15.3674 4.95569 15.61 4.95569 15.8551C4.95569 16.1001 5.0049 16.3428 5.10048 16.5685C5.19515 16.7921 5.33338 16.9947 5.50709 17.1643L10.103 21.8502C10.2964 22.0473 10.613 22.0504 10.8101 21.857C11.0072 21.6637 11.0103 21.3471 10.817 21.1499L6.21706 16.4598L6.20798 16.451C6.12816 16.3737 6.0647 16.281 6.02135 16.1787C5.97802 16.0763 5.95569 15.9663 5.95569 15.8551C5.95569 15.7438 5.97802 15.6338 6.02135 15.5315C6.0647 15.4291 6.12818 15.3365 6.208 15.2591L6.21103 15.2561C6.29535 15.173 6.39542 15.1075 6.50537 15.0635C6.61531 15.0195 6.73293 14.9979 6.85132 15C6.85882 15.0001 6.86632 15.0001 6.87381 14.9999C7.11351 14.9932 7.34647 15.0795 7.52412 15.2405L8.93 16.4757C8.95242 16.4954 8.97611 16.5127 9.00075 16.5277C9.01513 16.791 9.23315 17 9.5 17C9.77614 17 10 16.7761 10 16.5V10C10 9.44772 10.4477 9 11 9Z" fill="#00164E"/>
<path d="M15.3535 5.64645C15.5488 5.84171 15.5488 6.15829 15.3535 6.35355L13.9393 7.76777C13.7441 7.96303 13.4275 7.96303 13.2322 7.76777C13.037 7.5725 13.037 7.25592 13.2322 7.06066L14.6464 5.64645C14.8417 5.45118 15.1583 5.45118 15.3535 5.64645Z" fill="#00164E"/>
<path d="M14.5 9C14.2239 9 14 9.22386 14 9.5C14 9.77614 14.2239 10 14.5 10H16.5C16.7761 10 17 9.77614 17 9.5C17 9.22386 16.7761 9 16.5 9H14.5Z" fill="#00164E"/>
<path d="M5 9.5C5 9.22386 5.22386 9 5.5 9H7.5C7.77614 9 8 9.22386 8 9.5C8 9.77614 7.77614 10 7.5 10H5.5C5.22386 10 5 9.77614 5 9.5Z" fill="#00164E"/>
<path d="M7.35355 5.6464C7.15829 5.45114 6.84171 5.45114 6.64645 5.6464C6.45118 5.84166 6.45118 6.15825 6.64645 6.35351L8.06066 7.76772C8.25592 7.96298 8.5725 7.96298 8.76777 7.76772C8.96303 7.57246 8.96303 7.25588 8.76777 7.06061L7.35355 5.6464Z" fill="#00164E"/>
</svg>
