<svg width="24" height="24" viewBox="0 0 24 24" fill="none" xmlns="http://www.w3.org/2000/svg">
<path fill-rule="evenodd" clip-rule="evenodd" d="M14.5 1.5C13.9477 1.5 13.5 1.94772 13.5 2.5V15.5H13.3503C13.0515 15.5 12.7615 15.5532 12.4912 15.6522L12.9962 11.5613C13.0138 11.4191 12.9695 11.2762 12.8746 11.1688C12.7797 11.0615 12.6433 11 12.5 11H11.5V10.5C11.5 8.567 9.933 7 8 7C6.067 7 4.5 8.567 4.5 10.5V11H3.5C3.35672 11 3.22032 11.0615 3.12542 11.1688C3.03051 11.2762 2.98621 11.4191 3.00377 11.5613L4.11488 20.5613C4.14581 20.8118 4.35866 21 4.61111 21H9.63962L9.52566 21.3419C9.47484 21.4944 9.50041 21.662 9.59438 21.7924C9.68836 21.9227 9.83928 22 10 22H19.5C19.6607 22 19.8116 21.9227 19.9056 21.7924C19.9996 21.662 20.0252 21.4944 19.9743 21.3419L18.9748 18.3431L18.9717 18.3343L18.9671 18.3215L18.9632 18.3118L18.4671 17.0715C18.0875 16.1224 17.1682 15.5 16.1459 15.5H16V2.5C16 1.94772 15.5523 1.5 15 1.5H14.5ZM10.5 10.5C10.5 9.11929 9.38071 8 8 8C6.61929 8 5.5 9.11929 5.5 10.5V11H10.5V10.5ZM11.3844 16.4554L11.9345 12H4.06553L5.05318 20H9.97296L10.5251 18.3436L10.5306 18.3277L10.5361 18.3135L11.0267 17.0776C11.117 16.8502 11.2382 16.6414 11.3844 16.4554ZM17.5387 17.4429L17.7615 18H11.7365L11.9562 17.4465C12.183 16.8751 12.7356 16.5 13.3503 16.5H16.1459C16.7593 16.5 17.3109 16.8734 17.5387 17.4429ZM18.8063 21H10.6937L11.3604 19H18.1396L18.8063 21ZM15 15.5H14.5V2.5H15V15.5Z" fill="#00164E"/>
</svg>
