<svg width="24" height="24" viewBox="0 0 24 24" fill="none" xmlns="http://www.w3.org/2000/svg">
<path fill-rule="evenodd" clip-rule="evenodd" d="M11.3787 4.94769L14.8283 12.9966L15.1321 12.3213C15.6628 11.1421 17.3372 11.1421 17.8679 12.3213L19.3738 15.6678C19.4439 15.7466 19.4848 15.8422 19.4966 15.9406L21.456 20.2948C21.5256 20.4496 21.512 20.629 21.4199 20.7715C21.3278 20.914 21.1697 21 21 21H12L11.9929 21H2.5C2.33193 21 2.1751 20.9155 2.08258 20.7752C1.99006 20.6349 1.97422 20.4575 2.04043 20.303L8.62128 4.9477C9.14078 3.73554 10.8592 3.73553 11.3787 4.94769ZM10.4596 5.34161C10.2864 4.93756 9.7136 4.93756 9.54043 5.34162L6.67357 12.031C6.73514 12.0537 6.79321 12.089 6.84387 12.137L7.49928 12.7579L9.10532 10.693C9.20995 10.5585 9.3759 10.4865 9.54561 10.5021C9.71532 10.5176 9.86543 10.6186 9.94388 10.7698L11.1813 13.1562L13.008 11.288L10.4596 5.34161ZM13.4342 12.2825L14.271 14.2349L11.6767 20H3.25827L6.27054 12.9714L7.21168 13.863C7.31409 13.96 7.45271 14.0092 7.59336 13.9986C7.73402 13.9879 7.86363 13.9183 7.95023 13.807L9.41544 11.9231L10.6117 14.2302C10.6855 14.3726 10.8232 14.4709 10.9819 14.4945C11.1405 14.5182 11.3009 14.4643 11.4131 14.3496L13.4342 12.2825ZM18.3852 15.9078L16.956 12.7317C16.7791 12.3386 16.2209 12.3386 16.044 12.7317L14.7643 15.5755L15.4793 16.0075L16.1037 15.1953C16.1914 15.0812 16.324 15.0104 16.4676 15.0011C16.6112 14.9917 16.7519 15.0447 16.8536 15.1464L18.0001 16.2929L18.3852 15.9078ZM14.351 16.4941L15.3446 17.0946C15.5625 17.2263 15.8445 17.1732 15.9997 16.9714L16.5493 16.2564L17.6465 17.3536C17.8418 17.5488 18.1584 17.5488 18.3536 17.3536L18.8241 16.8831L20.2267 20H12.7733L14.351 16.4941Z" fill="#00164E"/>
</svg>
