<svg width="24" height="24" viewBox="0 0 24 24" fill="none" xmlns="http://www.w3.org/2000/svg">
<path fill-rule="evenodd" clip-rule="evenodd" d="M6.30577 3.54215C6.08011 3.85557 6 4.24668 6 4.5V18.2676C6.29417 18.0974 6.63571 18 7 18H17C17.3643 18 17.7058 18.0974 18 18.2676V4.5C18 3.86296 17.7458 3.51307 17.4578 3.30577C17.1444 3.08011 16.7533 3 16.5 3H7.5C6.86296 3 6.51307 3.25423 6.30577 3.54215ZM19 20V4.5C19 3.53704 18.5876 2.88693 18.0422 2.49423C17.5222 2.11989 16.9133 2 16.5 2H7.5C6.53704 2 5.88693 2.41243 5.49423 2.95785C5.11989 3.47777 5 4.08666 5 4.5V20C5 21.1046 5.89543 22 7 22H17C18.1046 22 19 21.1046 19 20ZM18 20C18 19.4477 17.5523 19 17 19H7C6.44772 19 6 19.4477 6 20C6 20.5523 6.44772 21 7 21H17C17.5523 21 18 20.5523 18 20ZM12.0882 7.00783C12.3265 7.05053 12.5 7.25787 12.5 7.5V9.94737H13.5C13.6636 9.94737 13.8169 10.0274 13.9104 10.1617C14.0038 10.296 14.0257 10.4675 13.9689 10.6209L12.4689 14.6736C12.3849 14.9006 12.1502 15.0349 11.9118 14.9922C11.6735 14.9495 11.5 14.7421 11.5 14.5V12.0526H10.5C10.3364 12.0526 10.1831 11.9726 10.0896 11.8383C9.99617 11.704 9.9743 11.5325 10.0311 11.3791L11.5311 7.32644C11.6151 7.09936 11.8498 6.96514 12.0882 7.00783Z" fill="#00164E"/>
</svg>
