<svg width="24" height="24" viewBox="0 0 24 24" fill="none" xmlns="http://www.w3.org/2000/svg">
<path fill-rule="evenodd" clip-rule="evenodd" d="M20 7.5C20 8.69093 19.4052 9.74293 18.4964 10.3751C19.1994 10.649 19.8453 11.0671 20.3891 11.6109C21.4205 12.6424 22 14.0413 22 15.5V16C22 16.5304 21.7893 17.0391 21.4142 17.4142C21.0391 17.7893 20.5304 18 20 18H13C13 18.5304 12.7893 19.0391 12.4142 19.4142C12.0391 19.7893 11.5304 20 11 20H4C3.46957 20 2.96086 19.7893 2.58579 19.4142C2.21071 19.0391 2 18.5304 2 18V17.5C2 16.0413 2.57946 14.6424 3.61091 13.6109C4.15469 13.0671 4.8006 12.649 5.50356 12.3751C4.59481 11.7429 4 10.6909 4 9.5C4 7.567 5.567 6 7.5 6C9.433 6 11 7.567 11 9.5C11 10.6909 10.4052 11.7429 9.49644 12.3751C10.1823 12.6423 10.8138 13.0469 11.3492 13.5714C11.6223 12.8422 12.0497 12.1721 12.6109 11.6109C13.1547 11.0671 13.8006 10.649 14.5036 10.3751C13.5948 9.74293 13 8.69093 13 7.5C13 5.567 14.567 4 16.5 4C18.433 4 20 5.567 20 7.5ZM16.5 5C15.1193 5 14 6.11929 14 7.5C14 8.88071 15.1193 10 16.5 10C17.8807 10 19 8.88071 19 7.5C19 6.11929 17.8807 5 16.5 5ZM13.318 12.318C14.1619 11.4741 15.3065 11 16.5 11C17.6935 11 18.8381 11.4741 19.682 12.318C20.5259 13.1619 21 14.3065 21 15.5V16C21 16.2652 20.8946 16.5196 20.7071 16.7071C20.5196 16.8946 20.2652 17 20 17H13L12.9772 16.9997C12.8957 16.1065 12.5971 15.2499 12.1118 14.5031C12.2983 13.6821 12.7132 12.9228 13.318 12.318ZM5 9.5C5 8.11929 6.11929 7 7.5 7C8.88071 7 10 8.11929 10 9.5C10 10.8807 8.88071 12 7.5 12C6.11929 12 5 10.8807 5 9.5ZM7.5 13C6.30653 13 5.16193 13.4741 4.31802 14.318C3.47411 15.1619 3 16.3065 3 17.5V18C3 18.2652 3.10536 18.5196 3.29289 18.7071C3.48043 18.8946 3.73478 19 4 19H11C11.2652 19 11.5196 18.8946 11.7071 18.7071C11.8946 18.5196 12 18.2652 12 18V17.5C12 16.3065 11.5259 15.1619 10.682 14.318C9.83807 13.4741 8.69347 13 7.5 13Z" fill="#00164E"/>
</svg>
