<svg width="24" height="24" viewBox="0 0 24 24" fill="none" xmlns="http://www.w3.org/2000/svg">
<path fill-rule="evenodd" clip-rule="evenodd" d="M3.5 3.97998C3.62227 3.97998 3.7343 4.02387 3.82117 4.09676L14 8.7235V7.5C14 7.22386 14.2239 7 14.5 7H15.5C16.5829 7 17.4514 7.60139 18.0156 8.13752C18.3035 8.41102 18.5288 8.68301 18.6822 8.88644C18.7592 8.98855 18.8189 9.07445 18.8601 9.13606C18.8807 9.16689 18.8968 9.19173 18.9081 9.20956L18.9209 9.23004L20.916 12.2227C20.9439 12.2645 20.9647 12.3091 20.9786 12.3549C21.1879 12.4621 21.3635 12.5947 21.5082 12.7477C21.9068 13.169 22 13.6704 22 14V15.5C22 16.1667 21.5652 16.7317 20.9637 16.927C20.7611 18.1043 19.7351 19 18.5 19C17.2905 19 16.2817 18.1411 16.05 17H7.94998C7.71833 18.1411 6.70946 19 5.5 19C4.26487 19 3.23894 18.1043 3.03632 16.927C2.43483 16.7317 2 16.1667 2 15.5V12.55C2 12.2739 2.22386 12.05 2.5 12.05H10.0667L4 7.50001V8.47998C4 8.8778 3.84197 9.25934 3.56066 9.54064C3.27936 9.82195 2.89782 9.97998 2.5 9.97998C2.10218 9.97998 1.72064 9.82195 1.43934 9.54064C1.15803 9.25934 1 8.8778 1 8.47998C1 8.20384 1.22386 7.97998 1.5 7.97998C1.77614 7.97998 2 8.20384 2 8.47998C2 8.61259 2.05268 8.73977 2.14645 8.83353C2.24021 8.9273 2.36739 8.97998 2.5 8.97998C2.63261 8.97998 2.75979 8.9273 2.85355 8.83353C2.94732 8.73977 3 8.61259 3 8.47998V4.51072C2.99984 4.50339 2.99984 4.49604 3 4.48868V4.47998C3 4.20384 3.22386 3.97998 3.5 3.97998ZM5.5 14C6.7095 14 7.71838 14.8589 7.95 16H16.05C16.2816 14.8589 17.2905 14 18.5 14C19.6375 14 20.5976 14.7597 20.9005 15.7994C20.963 15.716 21 15.6123 21 15.5V14C21 13.8397 20.9532 13.6161 20.7818 13.4349C20.6179 13.2617 20.2669 13.05 19.5 13.05H3V15.5C3 15.6123 3.03701 15.716 3.09949 15.7994C3.40242 14.7597 4.36249 14 5.5 14ZM18.084 9.77735L19.5998 12.051C19.5669 12.0504 19.5336 12.05 19.5 12.05H15V9.51132C15.0002 9.50396 15.0002 9.49661 15 9.48928V8H15.5C16.2071 8 16.8386 8.39861 17.3269 8.86248C17.5652 9.08898 17.7544 9.31699 17.8838 9.48856C17.9482 9.57395 17.997 9.6443 18.0289 9.69206C18.0449 9.71592 18.0566 9.73405 18.0639 9.74552L18.0714 9.75756L18.0725 9.75928C18.0762 9.76539 18.08 9.77141 18.084 9.77735ZM4 5.2765L14 9.82196V12.05H11.7334L4 6.25001V5.2765ZM5.5 15C4.67157 15 4 15.6716 4 16.5C4 17.3284 4.67157 18 5.5 18C6.32843 18 7 17.3284 7 16.5C7 15.6716 6.32843 15 5.5 15ZM18.5 15C17.6716 15 17 15.6716 17 16.5C17 17.3284 17.6716 18 18.5 18C19.3284 18 20 17.3284 20 16.5C20 15.6716 19.3284 15 18.5 15Z" fill="#00164E"/>
</svg>
