<svg width="24" height="24" viewBox="0 0 24 24" fill="none" xmlns="http://www.w3.org/2000/svg">
<path d="M11.1464 2.14645L11.1486 2.14433L11.6914 2.03794C11.7504 2.06234 11.8056 2.09851 11.8536 2.14645L14.8536 5.14645C15.0488 5.34171 15.0488 5.65829 14.8536 5.85355C14.6583 6.04882 14.3417 6.04882 14.1464 5.85355L12 3.70711V15.5C12 15.7761 11.7761 16 11.5 16C11.2239 16 11 15.7761 11 15.5V3.70711C10.9775 3.6846 11.0173 3.73247 11 3.70711L8.85355 5.85355C8.65829 6.04882 8.34171 6.04882 8.14645 5.85355C7.95118 5.65829 7.95118 5.34171 8.14645 5.14645L11.1464 2.14645Z" fill="#00164E"/>
<path d="M11.1486 2.14433L11.6914 2.03794C11.6327 2.0137 11.5675 2 11.5 2C11.4322 2 11.3676 2.01349 11.3086 2.03794L11.3006 2.04133C11.2455 2.06527 11.1938 2.0996 11.1486 2.14433Z" fill="#00164E"/>
<path d="M6 8C5.33696 8 4.70107 8.26339 4.23223 8.73223C3.76339 9.20107 3.5 9.83696 3.5 10.5V19.5C3.5 20.163 3.76339 20.7989 4.23223 21.2678C4.70107 21.7366 5.33696 22 6 22H17C17.663 22 18.2989 21.7366 18.7678 21.2678C19.2366 20.7989 19.5 20.163 19.5 19.5V10.5C19.5 9.83696 19.2366 9.20107 18.7678 8.73223C18.2989 8.26339 17.663 8 17 8H15C14.7239 8 14.5 8.22386 14.5 8.5C14.5 8.77614 14.7239 9 15 9H17C17.3978 9 17.7794 9.15804 18.0607 9.43934C18.342 9.72064 18.5 10.1022 18.5 10.5V19.5C18.5 19.8978 18.342 20.2794 18.0607 20.5607C17.7794 20.842 17.3978 21 17 21H6C5.60218 21 5.22064 20.842 4.93934 20.5607C4.65804 20.2794 4.5 19.8978 4.5 19.5V10.5C4.5 10.1022 4.65804 9.72064 4.93934 9.43934C5.22064 9.15804 5.60218 9 6 9H8C8.27614 9 8.5 8.77614 8.5 8.5C8.5 8.22386 8.27614 8 8 8H6Z" fill="#00164E"/>
</svg>
