<svg width="24" height="24" viewBox="0 0 24 24" fill="none" xmlns="http://www.w3.org/2000/svg">
<path d="M18.9302 3.49666C18.9283 3.22053 18.703 2.99817 18.4268 3.00001C18.1507 3.00185 17.9283 3.2272 17.9302 3.50334L17.942 5.27524C16.9121 4.37822 15.6874 3.72307 14.3579 3.36593C12.6227 2.89984 10.7879 2.96256 9.08856 3.54605C7.38927 4.12954 5.90295 5.20721 4.82012 6.64093C3.7373 8.07464 3.10729 9.79906 3.01089 11.5931L3.01075 11.5961C2.97693 12.3031 3.02299 13.0116 3.14805 13.7083C3.19684 13.9801 3.45673 14.1609 3.72852 14.1121C4.00032 14.0633 4.18111 13.8034 4.13232 13.5316C4.02063 12.9095 3.97944 12.2767 4.00954 11.6453C4.09552 10.0507 4.65562 8.51798 5.61811 7.24361C6.58088 5.96884 7.90243 5.01065 9.41333 4.49185C10.9242 3.97304 12.5556 3.91728 14.0984 4.33169C15.269 4.64613 16.3481 5.22037 17.2583 6.00595L16.4477 6.01001C16.4278 6.01011 16.4081 6.01137 16.3888 6.01373L15.4469 6.02001C15.1707 6.02185 14.9484 6.2472 14.9502 6.52333C14.952 6.79947 15.1774 7.02183 15.4535 7.01999L18.4527 6.99999C18.5853 6.99933 18.7122 6.94602 18.8055 6.85178C18.8988 6.75754 18.9509 6.6301 18.9502 6.4975L18.9402 4.4975C18.9401 4.47756 18.9388 4.45791 18.9365 4.4386L18.9302 3.49666Z" fill="#00164E"/>
<path d="M7.55279 18.09C7.57274 18.0899 7.59241 18.0886 7.61174 18.0862L8.55361 18.0799C8.82975 18.0781 9.05211 17.8528 9.05027 17.5766C9.04843 17.3005 8.82308 17.0781 8.54694 17.08L5.54779 17.1C5.41727 17.1006 5.29868 17.1512 5.21005 17.2336C5.20473 17.2385 5.19951 17.2436 5.19439 17.2488C5.10125 17.3432 5.04942 17.4699 5.0503 17.6025L5.06029 19.6025C5.06039 19.6224 5.06166 19.6421 5.06403 19.6614L5.07031 20.6033C5.07215 20.8794 5.2975 21.1018 5.57363 21.0999C5.84977 21.0981 6.07213 20.8728 6.07029 20.5966L6.05847 18.8247C7.08841 19.7217 8.31305 20.3769 9.64263 20.734C11.3778 21.2001 13.2126 21.1374 14.9119 20.5539C16.6112 19.9704 18.0975 18.8927 19.1804 17.459C20.2632 16.0253 20.8932 14.3009 20.9896 12.5068L20.9897 12.5039C21.0235 11.7969 20.9775 11.0883 20.8524 10.3916C20.8036 10.1198 20.5437 9.93906 20.2719 9.98785C20.0002 10.0366 19.8194 10.2965 19.8682 10.5683C19.9798 11.1905 20.021 11.8232 19.9909 12.4546C19.905 14.0492 19.3449 15.582 18.3824 16.8564C17.4196 18.1311 16.0981 19.0893 14.5872 19.6081C13.0763 20.1269 11.4448 20.1827 9.90205 19.7683C8.73146 19.4538 7.65235 18.8796 6.74222 18.094L7.55279 18.09Z" fill="#00164E"/>
</svg>
