<svg width="24" height="24" viewBox="0 0 24 24" fill="none" xmlns="http://www.w3.org/2000/svg">
<path fill-rule="evenodd" clip-rule="evenodd" d="M6.5 3C6.77614 3 7 3.22386 7 3.5V4H10.5V3.5C10.5 3.22386 10.7239 3 11 3C11.2761 3 11.5 3.22386 11.5 3.5V4H15V3.5C15 3.22386 15.2239 3 15.5 3C15.7761 3 16 3.22386 16 3.5V4H18.5C18.8978 4 19.2794 4.15803 19.5607 4.43934C19.842 4.72065 20 5.10218 20 5.5V9.32812C20.0196 9.38172 20.0303 9.43961 20.0303 9.5V12C20.0303 12.2761 19.8065 12.5 19.5303 12.5C19.2542 12.5 19.0303 12.2761 19.0303 12V10H3.00032V17.9079C2.99168 18.4516 3.19824 18.9766 3.57508 19.3685C3.95066 19.7591 4.46495 19.9859 5.00648 20H11C11.2761 20 11.5 20.2239 11.5 20.5C11.5 20.7761 11.2761 21 11 21H4.98866C4.18125 20.9812 3.41403 20.6438 2.85425 20.0616C2.29543 19.4804 1.9886 18.7023 2.00032 17.8962L2 5.5C2 5.10218 2.15804 4.72064 2.43934 4.43934C2.72064 4.15804 3.10217 4 3.5 4H6V3.5C6 3.22386 6.22386 3 6.5 3ZM18.8536 5.14645C18.9473 5.24021 19 5.36739 19 5.5V9H3V5.5C3 5.36739 3.05268 5.24021 3.14645 5.14645C3.24022 5.05268 3.36739 5 3.5 5H6V6.5C6 6.77614 6.22386 7 6.5 7C6.77614 7 7 6.77614 7 6.5V5H10.5V6.5C10.5 6.77614 10.7239 7 11 7C11.2761 7 11.5 6.77614 11.5 6.5V5H15V6.5C15 6.77614 15.2239 7 15.5 7C15.7761 7 16 6.77614 16 6.5V5H18.5C18.6326 5 18.7598 5.05268 18.8536 5.14645Z" fill="#00164E"/>
<path d="M16.5 18C16.5 18.1326 16.5527 18.2598 16.6464 18.3536L17.6464 19.3536C17.8417 19.5488 18.1583 19.5488 18.3536 19.3536C18.5488 19.1583 18.5488 18.8417 18.3536 18.6464L17.5 17.7929V15.5C17.5 15.2239 17.2761 15 17 15C16.7239 15 16.5 15.2239 16.5 15.5V18Z" fill="#00164E"/>
<path fill-rule="evenodd" clip-rule="evenodd" d="M17 13C14.2386 13 12 15.2386 12 18C12 20.7614 14.2386 23 17 23C19.7614 23 22 20.7614 22 18C22 15.2386 19.7614 13 17 13ZM13 18C13 15.7909 14.7909 14 17 14C19.2091 14 21 15.7909 21 18C21 20.2091 19.2091 22 17 22C14.7909 22 13 20.2091 13 18Z" fill="#00164E"/>
</svg>
