<svg width="24" height="24" viewBox="0 0 24 24" fill="none" xmlns="http://www.w3.org/2000/svg">
<path fill-rule="evenodd" clip-rule="evenodd" d="M11.6798 3.2446C11.3075 3.08262 10.9059 2.99902 10.5 2.99902C10.0941 2.99902 9.69246 3.08262 9.32023 3.2446C8.94812 3.40653 8.61333 3.64334 8.33671 3.94027L7.23438 5.12113V4.64268C7.23438 4.37858 7.16218 4.10348 7.00615 3.8806C6.84893 3.65602 6.59039 3.47046 6.26379 3.47046H4.38143C4.05483 3.47046 3.79629 3.65602 3.63907 3.8806C3.48305 4.10348 3.41085 4.37858 3.41085 4.64268V9.14655C3.41085 9.16887 3.41231 9.19085 3.41514 9.2124L2.79333 9.87851C2.28345 10.426 1.99971 11.1468 2 11.8949V18.2662C2 18.7258 2.18259 19.1665 2.50758 19.4915C2.83257 19.8165 3.27335 19.999 3.73294 19.999H14C14.2761 19.999 14.5 19.7752 14.5 19.499C14.5 19.2229 14.2761 18.999 14 18.999H13.3535V13.8522C13.3535 13.4965 13.2365 13.141 13.0079 12.8667C12.777 12.5897 12.4423 12.4111 12.0692 12.4111H8.93195C8.55886 12.4111 8.22411 12.5897 7.99325 12.8667C7.76461 13.141 7.64763 13.4965 7.64763 13.8522V18.999H3.73294C3.53854 18.999 3.35211 18.9218 3.21466 18.7844C3.07721 18.6469 3 18.4605 3 18.2662V11.8949C2.99977 11.3999 3.18717 10.923 3.52445 10.5607L6.99256 6.84561C7.07195 6.79765 7.13692 6.72824 7.17945 6.64541L9.06785 4.6225C9.25093 4.42592 9.47293 4.26873 9.71926 4.16154C9.96559 4.05434 10.2314 3.99902 10.5 3.99902C10.7686 3.99902 11.0344 4.05434 11.2807 4.16154C11.5271 4.26873 11.7487 4.4255 11.9318 4.62208L17.4753 10.5605C17.8126 10.9228 18.0002 11.3997 18 11.8946V12.8521C18 13.1283 18.2239 13.3521 18.5 13.3521C18.7761 13.3521 19 13.1283 19 12.8521V11.8951C19.0003 11.147 18.7169 10.4264 18.2071 9.87893L12.6635 3.94053C12.3869 3.6436 12.0519 3.40653 11.6798 3.2446ZM6.23438 4.64268C6.23438 4.56462 6.21516 4.5048 6.19685 4.47046H4.44837C4.43006 4.5048 4.41085 4.56462 4.41085 4.64268V8.14577L6.23438 6.19236V4.64268ZM12.0692 13.4111C12.1121 13.4111 12.1764 13.4309 12.2397 13.5069C12.3052 13.5855 12.3535 13.7088 12.3535 13.8522V18.9989H8.64763V13.8522C8.64763 13.7088 8.69592 13.5855 8.76145 13.5069C8.82477 13.4309 8.88901 13.4111 8.93195 13.4111H12.0692Z" fill="#00164E"/>
<path fill-rule="evenodd" clip-rule="evenodd" d="M22.5 18C22.5 18.2761 22.2761 18.5 22 18.5C20.3431 18.5 19 19.8431 19 21.5C19 21.7761 18.7761 22 18.5 22C18.2239 22 18 21.7761 18 21.5C18 19.8431 16.6569 18.5 15 18.5C14.7239 18.5 14.5 18.2761 14.5 18C14.5 17.7239 14.7239 17.5 15 17.5C16.6569 17.5 18 16.1569 18 14.5C18 14.2239 18.2239 14 18.5 14C18.7761 14 19 14.2239 19 14.5C19 16.1569 20.3431 17.5 22 17.5C22.2761 17.5 22.5 17.7239 22.5 18ZM20.062 18C19.4064 17.6362 18.8638 17.0936 18.5 16.438C18.1362 17.0936 17.5936 17.6362 16.938 18C17.5936 18.3638 18.1362 18.9064 18.5 19.562C18.8638 18.9064 19.4064 18.3638 20.062 18Z" fill="#00164E"/>
</svg>
