<svg width="24" height="24" viewBox="0 0 24 24" fill="none" xmlns="http://www.w3.org/2000/svg">
<path fill-rule="evenodd" clip-rule="evenodd" d="M8.5 15C8.5 13.067 10.067 11.5 12 11.5C13.933 11.5 15.5 13.067 15.5 15C15.5 16.933 13.933 18.5 12 18.5C10.067 18.5 8.5 16.933 8.5 15ZM12 12.5C10.6193 12.5 9.5 13.6193 9.5 15C9.5 16.3807 10.6193 17.5 12 17.5C13.3807 17.5 14.5 16.3807 14.5 15C14.5 13.6193 13.3807 12.5 12 12.5Z" fill="#00164E"/>
<path fill-rule="evenodd" clip-rule="evenodd" d="M4.08076 2.72754C4.17298 2.58563 4.33075 2.5 4.5 2.5H10.5C10.6976 2.5 10.8767 2.61637 10.9569 2.79693L12.25 5.70641L13.5431 2.79693C13.6234 2.61637 13.8024 2.5 14 2.5H20C20.1693 2.5 20.327 2.58563 20.4193 2.72754C20.5115 2.86946 20.5257 3.0484 20.4569 3.20307L17.0389 10.8936C17.9523 12.0131 18.5 13.4426 18.5 15C18.5 18.5899 15.5899 21.5 12 21.5C8.41015 21.5 5.5 18.5899 5.5 15C5.5 13.2618 6.18226 11.683 7.2936 10.5167L4.0431 3.20307C3.97436 3.0484 3.98853 2.86946 4.08076 2.72754ZM8.07691 9.81694C8.90853 9.18651 9.89656 8.75162 10.9725 8.58075L11.7029 6.93752L10.1751 3.5H5.26938L8.07691 9.81694ZM12.1024 8.50079C13.7062 8.52556 15.1691 9.13119 16.2899 10.1166L19.2306 3.5H14.325L12.1024 8.50079ZM6.5 15C6.5 11.9624 8.96243 9.5 12 9.5C15.0376 9.5 17.5 11.9624 17.5 15C17.5 18.0376 15.0376 20.5 12 20.5C8.96243 20.5 6.5 18.0376 6.5 15Z" fill="#00164E"/>
</svg>
