<svg width="24" height="24" viewBox="0 0 24 24" fill="none" xmlns="http://www.w3.org/2000/svg">
<path fill-rule="evenodd" clip-rule="evenodd" d="M15.5 6C14.1193 6 13 7.11929 13 8.5C13 9.88071 14.1193 11 15.5 11C16.8807 11 18 9.88071 18 8.5C18 7.11929 16.8807 6 15.5 6ZM14 8.5C14 7.67157 14.6716 7 15.5 7C16.3284 7 17 7.67157 17 8.5C17 9.32843 16.3284 10 15.5 10C14.6716 10 14 9.32843 14 8.5Z" fill="#00164E"/>
<path fill-rule="evenodd" clip-rule="evenodd" d="M22 18.5C22 19.8807 20.8807 21 19.5 21H4.5C3.11929 21 2 19.8807 2 18.5V5.5C2 4.11929 3.11929 3 4.5 3H19.5C20.8807 3 22 4.11929 22 5.5V18.5ZM3 5.5C3 4.67157 3.67157 4 4.5 4H19.5C20.3284 4 21 4.67157 21 5.5V16.2929L17.8536 13.1464C17.6583 12.9512 17.3417 12.9512 17.1464 13.1464L14.2033 16.0896L8.87165 10.1655C8.77542 10.0586 8.63779 9.9983 8.49395 10C8.35011 10.0018 8.21399 10.0654 8.12037 10.1746L3 16.1484V5.5ZM14.8732 16.8339L17.7227 20H19.5C20.3284 20 21 19.3284 21 18.5V17.7071L17.5 14.2071L14.8732 16.8339ZM8.50916 11.2576L16.3773 20H4.5C3.67157 20 3 19.3284 3 18.5V17.685L8.50916 11.2576Z" fill="#00164E"/>
</svg>
