<svg width="24" height="24" viewBox="0 0 24 24" fill="none" xmlns="http://www.w3.org/2000/svg">
<path fill-rule="evenodd" clip-rule="evenodd" d="M4.49834 19C3.11709 19 2 17.8802 2 16.5V7.5C2 6.11929 3.11929 5 4.5 5H8.08579C8.48361 5 8.86514 5.15804 9.14645 5.43934L10.5607 6.85355C10.6544 6.94732 10.7816 7 10.9142 7H19.5C20.8807 7 22 8.11929 22 9.5V13C22 13.2761 21.7761 13.5 21.5 13.5C21.2239 13.5 21 13.2761 21 13V12H3V16.5C3 17.329 3.67045 18 4.49834 18H12C12.2761 18 12.5 18.2239 12.5 18.5C12.5 18.7761 12.2761 19 12 19H4.49834ZM3 7.5C3 6.67157 3.67157 6 4.5 6H8.08579C8.21839 6 8.34557 6.05268 8.43934 6.14645L9.85355 7.56066C10.1349 7.84197 10.5164 8 10.9142 8H19.5C20.3284 8 21 8.67157 21 9.5V11H3V7.5Z" fill="#00164E"/>
<path d="M18.5 16.5C18.5 16.2239 18.2761 16 18 16C17.7239 16 17.5 16.2239 17.5 16.5V18C17.5 18.2761 17.7239 18.5 18 18.5C18.2761 18.5 18.5 18.2761 18.5 18V16.5Z" fill="#00164E"/>
<path d="M18.5 19.5C18.5 19.7761 18.2761 20 18 20C17.7239 20 17.5 19.7761 17.5 19.5C17.5 19.2239 17.7239 19 18 19C18.2761 19 18.5 19.2239 18.5 19.5Z" fill="#00164E"/>
<path fill-rule="evenodd" clip-rule="evenodd" d="M13 18C13 15.2386 15.2386 13 18 13C20.7614 13 23 15.2386 23 18C23 20.7614 20.7614 23 18 23C15.2386 23 13 20.7614 13 18ZM18 14C15.7909 14 14 15.7909 14 18C14 20.2091 15.7909 22 18 22C20.2091 22 22 20.2091 22 18C22 15.7909 20.2091 14 18 14Z" fill="#00164E"/>
</svg>
