<svg width="24" height="24" viewBox="0 0 24 24" fill="none" xmlns="http://www.w3.org/2000/svg">
<path fill-rule="evenodd" clip-rule="evenodd" d="M12.3189 10.2597C13.3364 9.53448 14 8.34473 14 7C14 4.79086 12.2091 3 10 3C7.79086 3 6 4.79086 6 7C6 8.34473 6.66357 9.53448 7.68113 10.2597C6.6411 10.5628 5.68359 11.124 4.90381 11.9038C3.68482 13.1228 3 14.7761 3 16.5V16.8C3 17.3835 3.23179 17.9431 3.64437 18.3556C4.05694 18.7682 4.61652 19 5.2 19H11C11.2761 19 11.5 18.7761 11.5 18.5C11.5 18.2239 11.2761 18 11 18H5.2C4.88174 18 4.57652 17.8736 4.35147 17.6485C4.12643 17.4235 4 17.1183 4 16.8V16.5C4 15.0413 4.57946 13.6424 5.61091 12.6109C6.64236 11.5795 8.04131 11 9.5 11H10.5C11.738 11 12.9331 11.4174 13.8969 12.1743C14.114 12.3449 14.4284 12.3071 14.5989 12.0899C14.7695 11.8727 14.7317 11.5584 14.5145 11.3878C13.859 10.8731 13.113 10.4911 12.3189 10.2597ZM7 7C7 5.34315 8.34315 4 10 4C11.6569 4 13 5.34315 13 7C13 8.65685 11.6569 10 10 10C8.34315 10 7 8.65685 7 7Z" fill="#00164E"/>
<path d="M13.3179 20.7368C13.3193 21.0129 13.5443 21.2357 13.8204 21.2343C14.0534 21.2331 14.2484 21.0727 14.3028 20.8567C14.7463 21.1653 15.242 21.3969 15.7693 21.5387C16.6754 21.7823 17.6336 21.7495 18.5209 21.4445C19.4083 21.1396 20.1844 20.5763 20.7497 19.8271C21.3151 19.0779 21.6439 18.1768 21.6943 17.2394L21.6944 17.2364C21.712 16.8678 21.688 16.4984 21.6229 16.1352C21.5741 15.8634 21.3143 15.6826 21.0425 15.7313C20.7707 15.7801 20.5899 16.0399 20.6386 16.3117C20.6904 16.6005 20.7095 16.8942 20.6956 17.1873C20.6557 17.9255 20.3966 18.6349 19.9515 19.2248C19.5061 19.815 18.8947 20.2587 18.1959 20.4988C17.4971 20.739 16.7425 20.7648 16.029 20.573C15.6894 20.4817 15.3664 20.343 15.0689 20.1626C15.2093 20.0735 15.3021 19.9163 15.3012 19.7377C15.2998 19.4616 15.0748 19.2389 14.7987 19.2402L13.8105 19.2452C13.5349 19.2466 13.3125 19.4706 13.313 19.746L13.3179 20.7368Z" fill="#00164E"/>
<path d="M20.682 13.2634C20.6806 12.9872 20.4556 12.7645 20.1795 12.7659C19.9466 12.767 19.7516 12.9273 19.6972 13.1432C19.2537 12.8347 18.758 12.6031 18.2307 12.4613C17.3246 12.2177 16.3665 12.2505 15.4791 12.5555C14.5918 12.8604 13.8157 13.4237 13.2504 14.1729C12.685 14.9221 12.3561 15.8232 12.3058 16.7606L12.3056 16.7636C12.288 17.1322 12.312 17.5016 12.3772 17.8648C12.4259 18.1366 12.6858 18.3174 12.9576 18.2687C13.2294 18.2199 13.4102 17.9601 13.3615 17.6883C13.3097 17.3995 13.2905 17.1058 13.3044 16.8128C13.3444 16.0746 13.6035 15.3651 14.0486 14.7752C14.494 14.185 15.1053 13.7413 15.8042 13.5012C16.503 13.261 17.2575 13.2352 17.9711 13.427C18.3107 13.5183 18.6337 13.657 18.9312 13.8374C18.7907 13.9265 18.6978 14.0838 18.6987 14.2624C18.7001 14.5386 18.9251 14.7613 19.2012 14.7599L20.1895 14.755C20.4609 14.7536 20.6807 14.5362 20.6868 14.2665C20.6872 14.2561 20.6872 14.2457 20.6869 14.2352L20.682 13.2634Z" fill="#00164E"/>
</svg>
