<svg width="24" height="24" viewBox="0 0 24 24" fill="none" xmlns="http://www.w3.org/2000/svg">
<path fill-rule="evenodd" clip-rule="evenodd" d="M5.5 4C5.36739 4 5.24021 4.05268 5.14645 4.14645C5.05268 4.24021 5 4.36739 5 4.5C5 6.48912 5.79018 8.39678 7.1967 9.8033C8.4849 11.0915 10.1935 11.8627 12 11.9833V13.5H7.5C6.95816 13.5 6.47562 13.9475 6.52025 14.5377C6.76987 17.8389 9.31756 20.5 12.5 20.5C15.6824 20.5 18.2301 17.8389 18.4798 14.5377C18.5244 13.9475 18.0418 13.5 17.5 13.5H13V11.5C13.0872 11.4988 13.183 11.4949 13.2862 11.4881C13.7674 11.4562 14.4208 11.3497 15.0916 11.0459C15.7669 10.74 16.4567 10.2351 16.9976 9.41712C17.5375 8.6008 17.9109 7.5003 17.9991 6.02993C18.0077 5.88719 17.9547 5.74761 17.8536 5.64648C17.7525 5.54536 17.6129 5.49236 17.4702 5.50089C15.9945 5.58908 14.8912 5.96254 14.0738 6.50268C13.2547 7.044 12.7505 7.7344 12.4462 8.41057C12.4269 8.45344 12.4084 8.49624 12.3907 8.53893C12.0185 7.67276 11.4828 6.87624 10.8033 6.1967C9.39678 4.79018 7.48912 4 5.5 4ZM12.5 19.5C15.0726 19.5 17.2472 17.3398 17.4796 14.5H7.52037C7.75278 17.3398 9.92735 19.5 12.5 19.5ZM10.0962 6.90381C11.1918 7.99942 11.8559 9.44588 11.9791 10.9791C10.4459 10.8559 8.99942 10.1918 7.90381 9.09619C6.80819 8.00058 6.14409 6.55412 6.02089 5.02089C7.55412 5.14409 9.00058 5.80819 10.0962 6.90381ZM13.0003 10.4994C13.0673 10.4983 13.1409 10.4955 13.2201 10.4902C13.6195 10.4638 14.1475 10.3757 14.679 10.135C15.2061 9.89622 15.7397 9.50638 16.1635 8.86551C16.5234 8.32133 16.8171 7.57637 16.9471 6.55268C15.9179 6.6826 15.1703 6.97674 14.6251 7.33698C13.9838 7.76082 13.5951 8.29426 13.3581 8.82094C13.1191 9.35217 13.0331 9.88 13.0085 10.2795C13.0036 10.3587 13.0011 10.4324 13.0003 10.4994Z" fill="#00164E"/>
</svg>
