<svg width="24" height="24" viewBox="0 0 24 24" fill="none" xmlns="http://www.w3.org/2000/svg">
<path d="M4.35355 3.64645C4.15829 3.45118 3.84171 3.45118 3.64645 3.64645C3.45118 3.84171 3.45118 4.15829 3.64645 4.35355L20.6464 21.3536C20.8417 21.5488 21.1583 21.5488 21.3536 21.3536C21.5488 21.1583 21.5488 20.8417 21.3536 20.6464L4.35355 3.64645Z" fill="#00164E"/>
<path d="M14.4965 12.3751C15.1994 12.649 15.8453 13.0671 16.3891 13.6109C16.9329 14.1547 17.351 14.8006 17.6249 15.5035L18.967 16.8457C18.8169 15.3621 18.16 13.9676 17.0962 12.9038C16.3164 12.124 15.3589 11.5628 14.3189 11.2597C15.3364 10.5345 16 9.34473 16 8C16 5.79086 14.2091 4 12 4C10.4102 4 9.03709 4.92743 8.39208 6.27076L9.15801 7.03669C9.55931 5.85237 10.6801 5 12 5C13.6569 5 15 6.34315 15 8C15 9.31989 14.1476 10.4407 12.9633 10.842L14.4965 12.3751Z" fill="#00164E"/>
<path d="M6.90381 12.9038C7.58028 12.2273 8.39051 11.7154 9.27233 11.3937L10.0683 12.1896C9.14684 12.4381 8.29747 12.9244 7.61091 13.6109C6.57946 14.6424 6 16.0413 6 17.5V17.8C6 18.1183 6.12643 18.4235 6.35147 18.6485C6.57652 18.8736 6.88174 19 7.2 19H16.8C16.8255 19 16.8509 18.9992 16.8763 18.9976L17.6904 19.8118C17.4126 19.9347 17.1097 20 16.8 20H7.2C6.61652 20 6.05694 19.7682 5.64437 19.3556C5.23179 18.9431 5 18.3835 5 17.8V17.5C5 15.7761 5.68482 14.1228 6.90381 12.9038Z" fill="#00164E"/>
</svg>
