<svg width="24" height="24" viewBox="0 0 24 24" fill="none" xmlns="http://www.w3.org/2000/svg">
<path fill-rule="evenodd" clip-rule="evenodd" d="M4.5 4C3.11929 4 2 5.11929 2 6.5V14.5C2 15.8807 3.11929 17 4.5 17H9C9.27614 17 9.5 16.7761 9.5 16.5C9.5 16.2239 9.27614 16 9 16H4.5C3.67157 16 3 15.3284 3 14.5V11H20V13.5C20 13.7761 20.2239 14 20.5 14C20.7761 14 21 13.7761 21 13.5V6.5C21 5.11929 19.8807 4 18.5 4H4.5ZM3 6.5C3 5.67157 3.67157 5 4.5 5H18.5C19.3284 5 20 5.67157 20 6.5V8H3V6.5Z" fill="#00164E"/>
<path d="M4.5 13C4.5 12.7239 4.72386 12.5 5 12.5H9C9.27614 12.5 9.5 12.7239 9.5 13C9.5 13.2761 9.27614 13.5 9 13.5H5C4.72386 13.5 4.5 13.2761 4.5 13Z" fill="#00164E"/>
<path fill-rule="evenodd" clip-rule="evenodd" d="M16.5108 12.5C17.4328 12.5117 18.3187 12.8594 19.0097 13.478C19.561 13.9714 19.9593 14.6113 20.165 15.3195C20.2789 15.3039 20.3942 15.2973 20.5098 15.2999L20.511 15.3C20.914 15.3102 21.3085 15.4174 21.6622 15.6124C22.016 15.8074 22.3187 16.0842 22.5465 16.4197C22.7744 16.7551 22.9212 17.1399 22.9759 17.5429C23.0305 17.9451 22.9919 18.3548 22.863 18.7393C22.6935 19.258 22.3656 19.7098 21.925 20.0273C21.4851 20.3443 20.9565 20.5103 20.4161 20.4995H13.2504C12.6171 20.5099 11.996 20.3276 11.4658 19.9771C10.935 19.6262 10.5199 19.1229 10.2716 18.5326C10.0591 18.0368 9.96915 17.4957 10.0093 16.9568C10.0496 16.4172 10.2191 15.8953 10.5036 15.4373C10.7882 14.9792 11.1794 14.5985 11.6436 14.33C12.1079 14.0614 12.6305 13.9135 13.1651 13.9001L13.1737 13.8998C13.31 13.8987 13.4461 13.9085 13.5806 13.9287C13.8948 13.5326 14.2841 13.2026 14.7272 12.9595C15.2727 12.6602 15.8824 12.5022 16.5027 12.5L16.5108 12.5ZM16.5022 13.5C16.0511 13.5023 15.6069 13.6174 15.2082 13.8362C14.8082 14.0556 14.4658 14.3729 14.2119 14.7611C14.0908 14.9462 13.8624 15.0298 13.6504 14.9665C13.4994 14.9214 13.343 14.899 13.1859 14.8999C12.821 14.9098 12.4634 15.0111 12.1444 15.1956C11.824 15.381 11.5519 15.6448 11.3531 15.965C11.1542 16.2851 11.0349 16.6513 11.0066 17.0312C10.9782 17.411 11.0418 17.7919 11.1912 18.1399L11.1928 18.1435C11.3655 18.5547 11.6531 18.9022 12.0173 19.1429C12.3813 19.3836 12.8059 19.5073 13.2372 19.4996L13.2461 19.4994L20.4325 19.4995C20.7557 19.5067 21.0739 19.4081 21.3404 19.216C21.607 19.0239 21.8085 18.7479 21.913 18.4272L21.9144 18.4227C21.9948 18.1837 22.0191 17.9283 21.985 17.6774C21.951 17.4266 21.8597 17.1882 21.7193 16.9816C21.579 16.7751 21.3939 16.6063 21.1796 16.4882C20.9655 16.3703 20.7281 16.3059 20.4863 16.2997C20.3158 16.2958 20.1462 16.3292 19.9886 16.398C19.8455 16.4605 19.6815 16.4525 19.5451 16.3765C19.4087 16.3005 19.3157 16.1652 19.2936 16.0107C19.1941 15.3159 18.8559 14.6824 18.3428 14.223C17.8309 13.7648 17.1783 13.5095 16.5022 13.5Z" fill="#00164E"/>
</svg>
