<svg width="24" height="24" viewBox="0 0 24 24" fill="none" xmlns="http://www.w3.org/2000/svg">
<path fill-rule="evenodd" clip-rule="evenodd" d="M7.77098 5.06387C8.90776 4.08898 10.3852 3.5 12.0002 3.5C15.59 3.5 18.5002 6.41015 18.5002 10C18.5002 11.615 17.9112 13.0924 16.9363 14.2292L18.0104 15.3033C18.2057 15.4986 18.2057 15.8151 18.0104 16.0104C16.4779 17.5429 14.5059 18.3679 12.5002 18.4854V21H15.0002C15.2763 21 15.5002 21.2239 15.5002 21.5C15.5002 21.7761 15.2763 22 15.0002 22H9.00018C8.72404 22 8.50018 21.7761 8.50018 21.5C8.50018 21.2239 8.72404 21 9.00018 21H11.5002V18.4854C9.49432 18.368 7.52215 17.543 5.98959 16.0104C2.67014 12.691 2.67014 7.30905 5.98959 3.98959C6.18485 3.79433 6.50143 3.79433 6.6967 3.98959L7.77098 5.06387ZM12.0002 4.5C8.96262 4.5 6.50018 6.96243 6.50018 10C6.50018 13.0376 8.96262 15.5 12.0002 15.5C15.0377 15.5 17.5002 13.0376 17.5002 10C17.5002 6.96243 15.0377 4.5 12.0002 4.5ZM7.06389 5.77099L6.35475 5.06185C3.77259 8.00787 3.88657 12.4932 6.6967 15.3033C9.50683 18.1134 13.9921 18.2274 16.9382 15.6453L16.2292 14.9363C15.0924 15.9111 13.6151 16.5 12.0002 16.5C8.41033 16.5 5.50018 13.5899 5.50018 10C5.50018 8.3851 6.0891 6.90774 7.06389 5.77099Z" fill="#00164E"/>
</svg>
