<svg width="24" height="24" viewBox="0 0 24 24" fill="none" xmlns="http://www.w3.org/2000/svg">
<path d="M15.9957 7.99884C16.0617 7.99884 16.1271 8.0119 16.188 8.03725C16.2386 8.05831 16.2853 8.08752 16.3263 8.12363L18.7978 11.5811C18.8142 11.604 18.8325 11.6256 18.8525 11.6454C18.8994 11.6918 18.9366 11.7471 18.9619 11.8079C18.9873 11.8688 19.0004 11.9341 19.0004 12C19.0004 12.0659 18.9873 12.1312 18.9619 12.1921C18.9366 12.2529 18.8994 12.3082 18.8525 12.3546C18.8325 12.3744 18.8142 12.396 18.7978 12.4189L16.3263 15.8764C16.2853 15.9125 16.2386 15.9417 16.188 15.9628C16.1271 15.9881 16.0617 16.0012 15.9957 16.0012V17C16.1937 17 16.3897 16.9608 16.5724 16.8848C16.7551 16.8087 16.9209 16.6972 17.0603 16.5568C17.0792 16.5378 17.0966 16.5172 17.1122 16.4954L19.5891 13.0304C19.7143 12.8983 19.8145 12.7444 19.8847 12.5762C19.9608 12.3936 20 12.1978 20 12C20 11.8022 19.9608 11.6064 19.8847 11.4238C19.8145 11.2556 19.7143 11.1017 19.5891 10.9696L17.1122 7.50459C17.0966 7.48277 17.0792 7.46223 17.0603 7.44318C16.9209 7.30275 16.7551 7.19129 16.5724 7.11523C16.3897 7.03916 16.1937 7 15.9957 7V7.00586H6.49942C6.10175 7.00586 5.72037 7.16371 5.43917 7.44469C5.15797 7.72567 5 8.10676 5 8.50412V15.496C5 15.8934 5.15797 16.2745 5.43917 16.5554C5.72037 16.8364 6.10175 16.9943 6.49942 16.9943L15.9957 16.9943V15.9954L6.49942 15.9954C6.36686 15.9954 6.23974 15.9428 6.146 15.8492C6.05227 15.7555 5.99961 15.6285 5.99961 15.496V8.50412C5.99961 8.37167 6.05227 8.24464 6.146 8.15098C6.23974 8.05732 6.36686 8.0047 6.49942 8.0047L15.9957 8.0047V7.99884Z" fill="#00164E"/>
</svg>
