<svg width="24" height="24" viewBox="0 0 24 24" fill="none" xmlns="http://www.w3.org/2000/svg">
<path fill-rule="evenodd" clip-rule="evenodd" d="M5.40001 5.5C5.12472 5.5 4.90122 5.72252 4.90001 5.9978C4.87991 10.5652 3.89096 15.1886 2.52024 19.8592C2.50647 19.9061 2.4999 19.9535 2.49988 20H1.5C1.22386 20 1 20.2239 1 20.5C1 20.7761 1.22386 21 1.5 21H22.5C22.7761 21 23 20.7761 23 20.5C23 20.2239 22.7761 20 22.5 20H21.5001C21.5002 19.9333 21.4868 19.8654 21.4584 19.8004C20.1238 16.7358 19.0109 12.8882 18.9814 9.9949C18.9786 9.72076 18.7556 9.5 18.4814 9.5H13.2944C13.1732 8.32907 13.1051 7.16162 13.1 5.9978C13.0988 5.72252 12.8753 5.5 12.6 5.5H5.40001ZM17.9958 10.5C18.1335 13.4393 19.204 17.075 20.4554 20H15.5001C15.5001 19.9535 15.4935 19.9061 15.4798 19.8592C14.5577 16.7172 13.8083 13.5966 13.4105 10.5H17.9958ZM14.479 20C13.1665 15.5034 12.1921 10.9917 12.1059 6.5H5.89412C5.80797 10.9917 4.83354 15.5034 3.52098 20H14.479Z" fill="#00164E"/>
</svg>
