<svg width="24" height="24" viewBox="0 0 24 24" fill="none" xmlns="http://www.w3.org/2000/svg">
<path d="M10.5 9C10.7761 9 11 9.22386 11 9.5V11H12.5C12.7761 11 13 11.2239 13 11.5C13 11.7761 12.7761 12 12.5 12H11V13.5C11 13.7761 10.7761 14 10.5 14C10.2239 14 10 13.7761 10 13.5V12H8.5C8.22386 12 8 11.7761 8 11.5C8 11.2239 8.22386 11 8.5 11H10V9.5C10 9.22386 10.2239 9 10.5 9Z" fill="#00164E"/>
<path fill-rule="evenodd" clip-rule="evenodd" d="M11 6.5C11 5.67157 11.6716 5 12.5 5C13.3284 5 14 5.67157 14 6.5V7H16.5C17.5829 7 18.4514 7.60139 19.0156 8.13752C19.3035 8.41102 19.5288 8.68301 19.6822 8.88644C19.7592 8.98855 19.8189 9.07445 19.8601 9.13606C19.8807 9.16689 19.8968 9.19173 19.9081 9.20956L19.921 9.23005L21.916 12.2227C21.965 12.2961 21.992 12.3778 21.9985 12.46H22V15.5C22 16.1667 21.5652 16.7317 20.9637 16.927C20.7611 18.1043 19.7351 19 18.5 19C17.2905 19 16.2817 18.1411 16.05 17H7.94998C7.71833 18.1411 6.70946 19 5.5 19C4.26487 19 3.23894 18.1043 3.03632 16.927C2.43483 16.7317 2 16.1667 2 15.5V8.5C2 7.67157 2.67157 7 3.5 7H11V6.5ZM21 15.5C21 15.6123 20.963 15.716 20.9005 15.7994C20.5976 14.7597 19.6375 14 18.5 14C17.2905 14 16.2816 14.8589 16.05 16H7.95C7.71838 14.8589 6.7095 14 5.5 14C4.36249 14 3.40242 14.7597 3.09949 15.7994C3.03701 15.716 3 15.6123 3 15.5V8.5C3 8.22386 3.22386 8 3.5 8H14V10.55C14 11.3785 14.6716 12.05 15.5 12.05H19.5C20.2669 12.05 20.6179 12.2617 20.7818 12.4349C20.9532 12.6161 21 12.8397 21 13V15.5ZM18.5 15C17.8469 15 17.2912 15.4174 17.0853 16C17.0301 16.1564 17 16.3247 17 16.5C17 16.6753 17.0301 16.8436 17.0854 17C17.2913 17.5826 17.8469 18 18.5 18C19.1531 18 19.7087 17.5826 19.9146 17C19.9699 16.8436 20 16.6753 20 16.5C20 16.3247 19.9699 16.1564 19.9147 16C19.7088 15.4174 19.1531 15 18.5 15ZM4.08537 17C4.2913 17.5826 4.84691 18 5.5 18C6.15309 18 6.7087 17.5826 6.91463 17C6.96992 16.8436 7 16.6753 7 16.5C7 16.3247 6.96993 16.1564 6.91466 16C6.70876 15.4174 6.15313 15 5.5 15C4.84687 15 4.29124 15.4174 4.08534 16C4.03007 16.1564 4 16.3247 4 16.5C4 16.6753 4.03008 16.8436 4.08537 17ZM12.5 6C12.7761 6 13 6.22386 13 6.5V7H12V6.5C12 6.22386 12.2239 6 12.5 6ZM19.9467 11.0714C19.8059 11.0573 19.6571 11.05 19.5 11.05H15.5C15.2239 11.05 15 10.8262 15 10.55V8H16.5C17.2071 8 17.8386 8.39861 18.3269 8.86248C18.5652 9.08898 18.7544 9.31699 18.8838 9.48856C18.9482 9.57395 18.997 9.6443 19.0289 9.69206C19.0449 9.71592 19.0566 9.73405 19.0639 9.74552L19.0714 9.75756L19.0727 9.75958C19.0763 9.76559 19.0801 9.77151 19.084 9.77735L19.9467 11.0714Z" fill="#00164E"/>
</svg>
