<svg width="24" height="24" viewBox="0 0 24 24" fill="none" xmlns="http://www.w3.org/2000/svg">
<path fill-rule="evenodd" clip-rule="evenodd" d="M2 7.5C2 6.11929 3.11929 5 4.5 5H19.5C20.8807 5 22 6.11929 22 7.5V16.5C22 17.8807 20.8807 19 19.5 19H4.5C3.11929 19 2 17.8807 2 16.5V7.5ZM4.5 6C3.67157 6 3 6.67157 3 7.5V11H7.55001C7.51722 10.8384 7.5 10.6712 7.5 10.5C7.5 9.11929 8.61929 8 10 8C10.5628 8 11.0822 8.18597 11.5 8.49982V6H4.5ZM4.5 18C3.67157 18 3 17.3284 3 16.5V12H7.99982C8.45592 12.6072 9.18209 13 10 13C10.2551 13 10.5012 12.9618 10.733 12.8908C10.1677 13.7751 9.59071 14.2831 9.12343 14.5764C8.77325 14.7963 8.47508 14.9018 8.27369 14.9526C8.17273 14.978 8.09562 14.9899 8.04803 14.9953C8.02424 14.9981 8.00785 14.9992 7.99959 14.9997L7.99417 14.9999C7.72071 15.003 7.5 15.2257 7.5 15.4999C7.5 15.776 7.72386 15.9999 8 15.9999V15.4999C8 15.9999 8.00133 15.9999 8.00176 15.9999L8.00374 15.9999L8.00838 15.9998L8.0203 15.9996C8.02941 15.9993 8.04083 15.9989 8.05447 15.9982C8.08174 15.9967 8.1179 15.9939 8.16213 15.9888C8.25058 15.9787 8.37147 15.9592 8.51828 15.9222C8.81242 15.848 9.20889 15.7035 9.65514 15.4234C10.2355 15.059 10.8846 14.4751 11.5 13.5455V18H4.5ZM21 16.5C21 17.3284 20.3284 18 19.5 18H12.5V13.5455C13.1154 14.4751 13.7645 15.059 14.3449 15.4234C14.7911 15.7035 15.1876 15.848 15.4817 15.9222C15.6285 15.9592 15.7494 15.9787 15.8379 15.9888C15.8821 15.9939 15.9183 15.9967 15.9455 15.9982C15.9592 15.9989 15.9706 15.9993 15.9797 15.9996L15.9916 15.9998L15.9963 15.9999L15.9983 15.9999L16 15.9999C16.0004 15.9998 16 15.9943 16 15.4999V15.9999C16.2762 15.9999 16.5 15.776 16.5 15.4999C16.5 15.2257 16.2793 15.003 16.0058 14.9999L16.0004 14.9997C15.9922 14.9992 15.9758 14.9981 15.952 14.9953C15.9044 14.9899 15.8273 14.978 15.7263 14.9526C15.5249 14.9018 15.2268 14.7963 14.8766 14.5764C14.4093 14.2831 13.8323 13.7751 13.267 12.8908C13.4988 12.9618 13.7449 13 14 13C14.8179 13 15.5441 12.6072 16.0002 12H21V16.5ZM19.5 6C20.3284 6 21 6.67157 21 7.5V11H16.45C16.4828 10.8384 16.5 10.6712 16.5 10.5C16.5 9.11929 15.3807 8 14 8C13.4372 8 12.9178 8.18597 12.5 8.49982V6H19.5ZM11.5 10.5C11.5 9.67157 10.8284 9 10 9C9.17157 9 8.5 9.67157 8.5 10.5C8.5 11.3284 9.17157 12 10 12C10.8284 12 11.5 11.3284 11.5 10.5ZM12.5 10.5C12.5 11.3284 13.1716 12 14 12C14.8284 12 15.5 11.3284 15.5 10.5C15.5 9.67157 14.8284 9 14 9C13.1716 9 12.5 9.67157 12.5 10.5Z" fill="#00164E"/>
</svg>
