<svg width="24" height="24" viewBox="0 0 24 24" fill="none" xmlns="http://www.w3.org/2000/svg">
<path fill-rule="evenodd" clip-rule="evenodd" d="M10.0001 4C9.17171 4 8.50014 4.67157 8.50014 5.5V6H4.50014C3.67171 6 3.00014 6.67157 3.00014 7.5V9.48837C2.99995 9.49614 2.99995 9.5039 3.00014 9.51163V17.5C3.00014 18.3284 3.67171 19 4.50014 19H19.5001C20.3286 19 21.0001 18.3284 21.0001 17.5V9.51161L21.0003 9.49566L21.0001 9.4884V7.5C21.0001 6.67157 20.3286 6 19.5001 6H15.5001V5.5C15.5001 4.67157 14.8286 4 14.0001 4H10.0001ZM4.00014 10.2067L11.5009 12.854C11.824 12.968 12.1763 12.968 12.4994 12.854L20.0001 10.2067V17.5C20.0001 17.7761 19.7763 18 19.5001 18H4.50014C4.22399 18 4.00014 17.7761 4.00014 17.5V10.2067ZM12.1665 11.911L20.0001 9.14624V7.5C20.0001 7.22386 19.7763 7 19.5001 7H4.50014C4.22399 7 4.00014 7.22386 4.00014 7.5V9.14624L11.8337 11.911C11.9414 11.949 12.0589 11.949 12.1665 11.911ZM14.5001 5.5C14.5001 5.22386 14.2763 5 14.0001 5H10.0001C9.72399 5 9.50014 5.22386 9.50014 5.5V6H14.5001V5.5Z" fill="#00164E"/>
</svg>
