<svg width="24" height="24" viewBox="0 0 24 24" fill="none" xmlns="http://www.w3.org/2000/svg">
<path d="M8.61107 18.7175C7.43949 19.8891 5.54 19.8891 4.36843 18.7175C3.19685 17.5459 3.19685 15.6465 4.36843 14.4749L14.2679 4.57538C15.83 3.01328 18.3627 3.01328 19.9248 4.57538C21.4869 6.13748 21.4869 8.67014 19.9248 10.2322L12.6769 17.4801C12.4817 17.6753 12.1651 17.6753 11.9698 17.4801C11.7746 17.2848 11.7746 16.9682 11.9698 16.773L19.2177 9.52513C20.3892 8.35355 20.3892 6.45406 19.2177 5.28249C18.0461 4.11092 16.1466 4.11092 14.975 5.28249L5.07553 15.182C4.29448 15.963 4.29448 17.2294 5.07553 18.0104C5.85658 18.7915 7.12291 18.7915 7.90396 18.0104L16.0578 9.85658C16.3507 9.56369 16.3507 9.08881 16.0578 8.79592C15.7649 8.50303 15.29 8.50303 14.9971 8.79592L7.08637 16.7067C6.89111 16.9019 6.57452 16.9019 6.37926 16.7067C6.184 16.5114 6.184 16.1948 6.37926 15.9996L14.29 8.08881C14.9734 7.4054 16.0815 7.4054 16.7649 8.08881C17.4483 8.77223 17.4483 9.88027 16.7649 10.5637L8.61107 18.7175Z" fill="#00164E"/>
</svg>
