<svg width="24" height="24" viewBox="0 0 24 24" fill="none" xmlns="http://www.w3.org/2000/svg">
<path fill-rule="evenodd" clip-rule="evenodd" d="M8.7353 5.05884C8.54112 4.95528 8.30206 4.99085 8.14645 5.14646L7.14645 6.14646C6.98603 6.30688 6.95372 6.5552 7.06775 6.75132L9.3438 10.6661C8.39079 11.1073 7.44499 11.546 6.58695 11.946L3.74042 10.5512C3.55015 10.458 3.32178 10.4948 3.17045 10.6431L2.15004 11.6431C1.96259 11.8268 1.94908 12.1242 2.1191 12.3241L4.67012 15.3241C4.67995 15.3357 4.6903 15.3468 4.70114 15.3574C4.75034 15.4056 4.79915 15.4586 4.8602 15.5248L4.87311 15.5388C4.93688 15.608 5.01222 15.6892 5.09618 15.7694C5.26757 15.9332 5.4866 16.1047 5.78388 16.2203C6.38594 16.4543 7.16716 16.4075 8.29473 15.9655C9.56272 15.4685 10.4918 15.1374 11.1464 14.9098C11.2874 14.8607 11.4177 14.8158 11.5365 14.7749L11.6939 14.7205V21.0002C11.6939 21.1728 11.7829 21.3332 11.9293 21.4245C12.0757 21.5158 12.2589 21.5252 12.4139 21.4492L14.4547 20.4492C14.5771 20.3893 14.6697 20.282 14.7111 20.1521L17.2108 12.3128L20.644 9.90974L20.6533 9.90285C21.1939 9.50541 21.5758 9.1104 21.7919 8.71715C22.014 8.31274 22.0722 7.88193 21.8994 7.48698C21.7346 7.11021 21.4022 6.86526 21.0529 6.71863C20.699 6.57003 20.2795 6.50001 19.8469 6.50001C19.3188 6.50001 18.6275 6.64054 17.9622 6.8323C17.2885 7.02648 16.5964 7.28643 16.0555 7.55147C15.8471 7.65356 15.343 7.88959 14.6481 8.21234L8.7353 5.05884ZM8.1257 6.58142L8.59159 6.11553L13.3816 8.67018L10.2026 10.1537L8.1257 6.58142ZM16.4955 8.44946C16.975 8.21449 17.6111 7.97422 18.2392 7.79318C18.8757 7.60971 19.4599 7.50001 19.8469 7.50001C20.1797 7.50001 20.4617 7.55494 20.6658 7.64065C20.8746 7.72832 20.9567 7.82704 20.9832 7.88771C21.0018 7.9302 21.0281 8.03062 20.9154 8.23563C20.797 8.45111 20.5424 8.74254 20.0655 9.09381L16.499 11.5904C16.4093 11.6532 16.3426 11.7438 16.3093 11.8481L13.8231 19.6451L12.6939 20.1984V14C12.6939 13.8274 12.6049 13.6671 12.4585 13.5757C12.312 13.4844 12.1288 13.4751 11.9739 13.551C11.9195 13.5777 11.8092 13.6205 11.605 13.6926C11.5079 13.7268 11.3977 13.7649 11.2714 13.8085C11.2714 13.8085 11.2714 13.8085 11.2714 13.8085C11.2533 13.8147 11.2349 13.821 11.2162 13.8275C11.0978 13.8683 10.9659 13.9138 10.8179 13.9653C10.1545 14.196 9.2128 14.5316 7.92977 15.0345C6.90292 15.437 6.40862 15.3902 6.14623 15.2882C6.01128 15.2358 5.90085 15.1552 5.78705 15.0464C5.72842 14.9904 5.67224 14.9303 5.60825 14.8609L5.59219 14.8435C5.53989 14.7867 5.48018 14.7219 5.41788 14.6598L3.18271 12.0313L3.61787 11.6048L6.36163 12.9492C6.49743 13.0158 6.65604 13.0173 6.79308 12.9533C8.41576 12.1961 10.4038 11.2773 12.1649 10.4634C14.2684 9.49118 16.0483 8.66858 16.4955 8.44946Z" fill="#00164E"/>
</svg>
