<svg width="24" height="24" viewBox="0 0 24 24" fill="none" xmlns="http://www.w3.org/2000/svg">
<path fill-rule="evenodd" clip-rule="evenodd" d="M7.51306 7C7.5718 6.21379 7.83553 5.29832 8.44184 4.53513C9.15564 3.63665 10.305 3 12 3C13.695 3 14.8444 3.63665 15.5582 4.53513C16.1645 5.29832 16.4282 6.21379 16.4869 7H18.5C18.7761 7 19 7.22386 19 7.5V18.5C19 19.8807 17.8807 21 16.5 21H7.5C6.11929 21 5 19.8807 5 18.5V7.5C5 7.22386 5.22386 7 5.5 7H7.51306ZM8.51648 7C8.57387 6.39053 8.78582 5.70977 9.22483 5.15717C9.73325 4.5172 10.5839 4 12 4C13.4161 4 14.2667 4.5172 14.7752 5.15717C15.2142 5.70977 15.4261 6.39053 15.4835 7H8.51648ZM7.5 9.5C7.5 9.77614 7.72386 10 8 10C8.27614 10 8.5 9.77614 8.5 9.5V8H15.5V9.5C15.5 9.77614 15.7239 10 16 10C16.2761 10 16.5 9.77614 16.5 9.5V8H18V18.5C18 19.3284 17.3284 20 16.5 20H7.5C6.67157 20 6 19.3284 6 18.5V8H7.5V9.5Z" fill="#00164E"/>
</svg>
