<svg width="24" height="24" viewBox="0 0 24 24" fill="none" xmlns="http://www.w3.org/2000/svg">
<path d="M12 2.99121C11.6363 2.99121 11.2824 3.10848 10.9908 3.32561C10.7 3.54206 10.4866 3.84623 10.3819 4.19321L9.19268 7.99043L9.18955 8.00127C9.14844 8.14376 9.0625 8.26922 8.94448 8.35904C8.82711 8.44837 8.68421 8.49772 8.53677 8.49989L4.69995 8.49979L4.68988 8.49999C4.31908 8.50746 3.96011 8.63188 3.66421 8.85549C3.36832 9.0791 3.15063 9.39046 3.04221 9.74514C2.93379 10.0998 2.94019 10.4797 3.06049 10.8305C3.17998 11.179 3.40575 11.4811 3.70593 11.6944L6.78079 13.9905L6.78236 13.9917C6.9125 14.0881 7.00941 14.2226 7.05964 14.3766C7.10987 14.5305 7.11093 14.6963 7.06267 14.8509L7.06214 14.8526L5.87443 18.7052C5.75866 19.0458 5.75262 19.4143 5.85729 19.7587C5.96284 20.106 6.17558 20.4111 6.46505 20.6301C6.75451 20.8492 7.10587 20.971 7.46881 20.9782C7.83175 20.9855 8.18766 20.8776 8.4856 20.6703C8.48777 20.6688 8.48993 20.6672 8.49207 20.6657C8.49679 20.6623 8.50144 20.6588 8.50604 20.6553L11.6038 18.257L11.6047 18.2563C11.7197 18.1686 11.8603 18.1211 12.005 18.1211C12.15 18.1211 12.2909 18.1688 12.4061 18.257L12.4079 18.2583L15.5078 20.6085L15.5192 20.6167C15.8164 20.8291 16.1738 20.9408 16.5391 20.9353C16.9044 20.9299 17.2583 20.8076 17.549 20.5864C17.8397 20.3652 18.052 20.0567 18.1547 19.7061C18.256 19.3599 18.2453 18.9905 18.1242 18.651L16.9477 14.8522C16.9008 14.7008 16.9019 14.5385 16.9508 14.3877C16.9996 14.2369 17.0938 14.1048 17.2205 14.0095L20.3033 11.6574C20.5898 11.4387 20.8023 11.1373 20.912 10.794C21.0218 10.4506 21.0234 10.0818 20.9168 9.73752C20.8101 9.3932 20.6003 9.08993 20.3157 8.8687C20.0311 8.64748 19.6855 8.51897 19.3255 8.50054C19.317 8.50011 19.3085 8.49989 19.3 8.49989H15.4618C15.3131 8.49862 15.1686 8.45002 15.0494 8.36109C14.9297 8.2719 14.8417 8.1468 14.7982 8.00407L13.6182 4.19406C13.5137 3.84673 13.3001 3.54224 13.0091 3.32561C12.7175 3.10848 12.3636 2.99121 12 2.99121Z" fill="#00164E"/>
</svg>
