<svg width="24" height="24" viewBox="0 0 24 24" fill="none" xmlns="http://www.w3.org/2000/svg">
<path fill-rule="evenodd" clip-rule="evenodd" d="M8 18.5C8 18.7761 8.22386 19 8.5 19H15.5C15.7761 19 16 18.7761 16 18.5V9.5C16 9.22386 15.7761 9 15.5 9L8.5 9C8.22386 9 8 9.22386 8 9.5L8 18.5ZM9 18L9 10H15V18H9Z" fill="#00164E"/>
<path fill-rule="evenodd" clip-rule="evenodd" d="M5 20.5C5 21.3284 5.67157 22 6.5 22H17.5C18.3284 22 19 21.3284 19 20.5L19 7.00401C19 6.58997 18.8289 6.19434 18.5271 5.91083L14.7977 2.40682C14.5195 2.14548 14.1522 2 13.7706 2H6.5C5.67157 2 5 2.67157 5 3.5V20.5ZM6.5 21C6.22386 21 6 20.7761 6 20.5L6 3.5C6 3.22386 6.22386 3 6.5 3L13.7706 3C13.8978 3 14.0202 3.04849 14.113 3.13561L17.8424 6.63962C17.943 6.73412 18 6.866 18 7.00401L18 20.5C18 20.7761 17.7761 21 17.5 21H6.5Z" fill="#00164E"/>
</svg>
