<svg width="24" height="24" viewBox="0 0 24 24" fill="none" xmlns="http://www.w3.org/2000/svg">
<path d="M5 11.8501C5 12.4024 4.55228 12.8501 4 12.8501C3.44772 12.8501 3 12.4024 3 11.8501C3 11.2978 3.44772 10.8501 4 10.8501C4.55228 10.8501 5 11.2978 5 11.8501Z" fill="#00164E"/>
<path d="M9 11.8501C9 12.4024 8.55228 12.8501 8 12.8501C7.44772 12.8501 7 12.4024 7 11.8501C7 11.2978 7.44772 10.8501 8 10.8501C8.55228 10.8501 9 11.2978 9 11.8501Z" fill="#00164E"/>
<path d="M13 11.8501C13 12.4024 12.5523 12.8501 12 12.8501C11.4477 12.8501 11 12.4024 11 11.8501C11 11.2978 11.4477 10.8501 12 10.8501C12.5523 10.8501 13 11.2978 13 11.8501Z" fill="#00164E"/>
<path d="M17 11.8501C17 12.4024 16.5523 12.8501 16 12.8501C15.4477 12.8501 15 12.4024 15 11.8501C15 11.2978 15.4477 10.8501 16 10.8501C16.5523 10.8501 17 11.2978 17 11.8501Z" fill="#00164E"/>
<path d="M21 11.8501C21 12.4024 20.5523 12.8501 20 12.8501C19.4477 12.8501 19 12.4024 19 11.8501C19 11.2978 19.4477 10.8501 20 10.8501C20.5523 10.8501 21 11.2978 21 11.8501Z" fill="#00164E"/>
</svg>
