<svg width="24" height="24" viewBox="0 0 24 24" fill="none" xmlns="http://www.w3.org/2000/svg">
<path fill-rule="evenodd" clip-rule="evenodd" d="M11.8143 2.96124C11.8794 2.95899 11.942 2.96927 11.9997 2.98992C12.0575 2.96927 12.1201 2.95899 12.1852 2.96124C13.7687 3.0161 15.1526 3.69273 16.2193 4.80606C17.1328 5.74706 17.6899 7.07972 17.9009 8.33447L17.9017 8.3395L17.9025 8.34453C17.904 8.3546 17.9051 8.36471 17.906 8.37486L17.9982 9.45529L17.9993 9.4705L18.0026 9.5309C18.0056 9.58296 18.0104 9.66035 18.0174 9.75571C18.0294 9.91924 18.0476 10.136 18.0742 10.378C18.1043 10.4383 18.1227 10.5057 18.1262 10.5774C18.1558 11.1943 18.2462 11.7569 18.3943 12.0531C18.5431 12.3506 18.7433 12.6804 18.992 13.0891L18.9927 13.0902C19.1151 13.2916 19.2477 13.5095 19.3865 13.7448C19.7903 14.4297 20.2302 15.2383 20.5509 16.1426C20.5791 16.2222 20.6089 16.3024 20.6406 16.3876L20.6497 16.412C20.8098 16.8419 21.0085 17.3757 20.9996 18.0145C20.992 18.5613 20.5466 19.0006 19.9997 19.0006H3.9997C3.45285 19.0006 3.00741 18.5613 2.9998 18.0145C2.99091 17.376 3.18954 16.8424 3.34942 16.4129L3.37034 16.3567C3.39775 16.2829 3.42375 16.2126 3.44847 16.1428C3.77673 15.2164 4.24675 14.3997 4.65643 13.7256C4.7363 13.5942 4.81345 13.4688 4.88667 13.3497C5.21157 12.8214 5.44304 12.4421 5.57459 12.1211C5.72285 11.7593 5.83699 11.1307 5.91048 10.5082C5.94521 10.214 5.968 9.94806 5.98208 9.75571C5.98906 9.66026 5.99389 9.58296 5.99689 9.5309L6.0002 9.4705L6.00126 9.45529L6.09347 8.37486L6.09393 8.36979C6.09506 8.35796 6.09661 8.34618 6.09858 8.33447C6.30955 7.07969 6.86676 5.74699 7.78021 4.80599C8.84691 3.69269 10.2308 3.0161 11.8143 2.96124ZM12.4999 9C12.4999 8.72386 12.2761 8.5 11.9999 8.5C11.7238 8.5 11.4999 8.72386 11.4999 9V11.5H8.99991C8.72377 11.5 8.49991 11.7239 8.49991 12C8.49991 12.2761 8.72377 12.5 8.99991 12.5H11.4999V15C11.4999 15.2761 11.7238 15.5 11.9999 15.5C12.2761 15.5 12.4999 15.2761 12.4999 15V12.5H14.9999C15.2761 12.5 15.4999 12.2761 15.4999 12C15.4999 11.7239 15.2761 11.5 14.9999 11.5H12.4999V9Z" fill="#00164E"/>
<path d="M9.40125 20C9.22254 20 9.05742 20.0954 8.96813 20.2502C8.87884 20.405 8.87896 20.5957 8.96844 20.7504C9.57285 21.7952 10.7038 22.5 11.9999 22.5C13.296 22.5 14.4269 21.7952 15.0314 20.7504C15.1208 20.5957 15.121 20.405 15.0317 20.2502C14.9424 20.0954 14.7773 20 14.5986 20H9.40125Z" fill="#00164E"/>
</svg>
