<svg width="24" height="24" viewBox="0 0 24 24" fill="none" xmlns="http://www.w3.org/2000/svg">
<path fill-rule="evenodd" clip-rule="evenodd" d="M5.5 3C5.22386 3 5 3.22386 5 3.5V19.5C5 19.7761 5.22386 20 5.5 20H11.5C11.7761 20 12 20.2239 12 20.5C12 20.7761 11.7761 21 11.5 21H5.5C4.67157 21 4 20.3284 4 19.5V3.5C4 2.67157 4.67157 2 5.5 2H13.1015C13.4853 2 13.8545 2.14712 14.1331 2.41107L17.5316 5.63068C17.8306 5.91395 18 6.30772 18 6.71961V11.5C18 11.7761 17.7761 12 17.5 12C17.2239 12 17 11.7761 17 11.5V7.00005H13.7C13.3134 7.00005 13 6.68665 13 6.30005V3H5.5ZM16.2929 6.00005L14 3.70716V6.00005H16.2929Z" fill="#00164E"/>
<path d="M6.5 7.5C6.5 7.22386 6.72386 7 7 7H10.57C10.8461 7 11.07 7.22386 11.07 7.5C11.07 7.77614 10.8461 8 10.57 8H7C6.72386 8 6.5 7.77614 6.5 7.5Z" fill="#00164E"/>
<path d="M7 12C6.72386 12 6.5 12.2239 6.5 12.5C6.5 12.7761 6.72386 13 7 13H13C13.2761 13 13.5 12.7761 13.5 12.5C13.5 12.2239 13.2761 12 13 12H7Z" fill="#00164E"/>
<path d="M7 9.5C6.72386 9.5 6.5 9.72386 6.5 10C6.5 10.2761 6.72386 10.5 7 10.5H14.5C14.7761 10.5 15 10.2761 15 10C15 9.72386 14.7761 9.5 14.5 9.5H7Z" fill="#00164E"/>
<path d="M18.8536 17.1464L17.3536 15.6464C17.1583 15.4512 16.8417 15.4512 16.6464 15.6464L15.1464 17.1464C14.9512 17.3417 14.9512 17.6583 15.1464 17.8536C15.3417 18.0488 15.6583 18.0488 15.8536 17.8536L16.5 17.2071V20C16.5 20.2761 16.7239 20.5 17 20.5C17.2761 20.5 17.5 20.2761 17.5 20V17.2071L18.1464 17.8536C18.3417 18.0488 18.6583 18.0488 18.8536 17.8536C19.0488 17.6583 19.0488 17.3417 18.8536 17.1464Z" fill="#00164E"/>
<path fill-rule="evenodd" clip-rule="evenodd" d="M17 13C14.2386 13 12 15.2386 12 18C12 20.7614 14.2386 23 17 23C19.7614 23 22 20.7614 22 18C22 15.2386 19.7614 13 17 13ZM13 18C13 15.7909 14.7909 14 17 14C19.2091 14 21 15.7909 21 18C21 20.2091 19.2091 22 17 22C14.7909 22 13 20.2091 13 18Z" fill="#00164E"/>
</svg>
