<svg width="24" height="24" viewBox="0 0 24 24" fill="none" xmlns="http://www.w3.org/2000/svg">
<path fill-rule="evenodd" clip-rule="evenodd" d="M12.192 6.03832C12.0691 5.98723 11.9309 5.98723 11.808 6.03832L2.30804 9.98832C2.12228 10.0656 2.0009 10.2466 2.00001 10.4478C1.99911 10.6489 2.11886 10.8311 2.30392 10.9099L4.52127 11.8552C4.50711 11.9021 4.49966 11.9519 4.50001 12.0034L4.51998 14.8982C4.52086 15.025 4.56988 15.1467 4.65713 15.2387L5.01997 14.8947C4.65713 15.2387 4.65785 15.2395 4.65785 15.2395L4.65881 15.2405L4.66142 15.2432L4.66938 15.2514C4.67591 15.2581 4.68488 15.2672 4.69628 15.2786C4.71909 15.3012 4.75163 15.3329 4.79381 15.3723C4.87815 15.451 5.00114 15.5605 5.16199 15.6906C5.4835 15.9506 5.95745 16.2934 6.57732 16.6352C7.81802 17.3193 9.64544 18 12 18C13.1455 18 14.2098 17.7964 15.149 17.5031C15.4452 17.4106 15.7293 17.3091 16 17.202V18.5001C16 18.7762 16.2239 19.0001 16.5 19.0001C16.7761 19.0001 17 18.7762 17 18.5001V16.7564C17.3344 16.5903 17.6382 16.4219 17.9075 16.2614C18.3508 15.9971 18.7018 15.7533 18.9436 15.5742C19.0646 15.4846 19.1584 15.411 19.223 15.359C19.2553 15.333 19.2803 15.3123 19.2978 15.2977L19.3183 15.2805L19.3242 15.2754L19.3261 15.2738L19.3272 15.2728C19.4369 15.1778 19.5 15.0399 19.5 14.8947V12C19.5 11.9497 19.4926 11.9011 19.4787 11.8552L21.6961 10.9099C21.8811 10.8311 22.0009 10.6489 22 10.4478C21.9991 10.2466 21.8777 10.0656 21.692 9.98832L12.192 6.03832ZM18.5 12.2725L18.0603 12.4599C17.8063 12.5682 17.5125 12.4501 17.4043 12.1961C17.296 11.9421 17.4141 11.6483 17.6681 11.5401L20.2115 10.4558L12 7.0415L3.78848 10.4558L12.0061 13.9591L14.3143 13.0358C14.5707 12.9332 14.8617 13.0579 14.9642 13.3143C15.0668 13.5707 14.9421 13.8617 14.6857 13.9642L12.1857 14.9642C12.0629 15.0134 11.9256 15.0118 11.8039 14.9599L5.5019 12.2733L5.5185 14.6802C5.58524 14.741 5.67615 14.8203 5.79078 14.913C6.07333 15.1415 6.49877 15.45 7.06016 15.7595C8.18198 16.3781 9.84457 17 12 17C13.0271 17 13.9901 16.8174 14.851 16.5486C15.2591 16.4211 15.6435 16.2745 16 16.1193V12.9023L12.2676 10.9427C12.0231 10.8143 11.9289 10.5121 12.0573 10.2676C12.1857 10.0231 12.4879 9.92894 12.7324 10.0573L16.7324 12.1574C16.8969 12.2438 17 12.4143 17 12.6001V15.6285C17.1394 15.5522 17.2714 15.4764 17.3954 15.4024C17.8061 15.1576 18.1294 14.9328 18.3484 14.7706C18.4064 14.7276 18.457 14.6891 18.5 14.6558V12.2725Z" fill="#00164E"/>
</svg>
