<svg width="24" height="24" viewBox="0 0 24 24" fill="none" xmlns="http://www.w3.org/2000/svg">
<path d="M13.6688 5.51745C13.8625 5.32065 13.8601 5.00408 13.6633 4.81036C13.4665 4.61664 13.1499 4.61913 12.9562 4.81593L11.5625 6.23172L11.0438 5.70482C10.8501 5.50802 10.5335 5.50553 10.3367 5.69925C10.1399 5.89297 10.1375 6.20954 10.3312 6.40633L11.2062 7.29522C11.3002 7.3907 11.4285 7.44446 11.5625 7.44446C11.6965 7.44446 11.8248 7.3907 11.9188 7.29522L13.6688 5.51745Z" fill="#00164E"/>
<path fill-rule="evenodd" clip-rule="evenodd" d="M8.66179 2.3118C10.8688 1.89607 13.1312 1.89607 15.3382 2.3118C15.5569 2.353 15.7221 2.53382 15.7434 2.75538L15.9691 5.10671C16.1036 6.38531 15.7966 7.6728 15.0996 8.74543C14.4021 9.81898 13.3573 10.6103 12.1453 10.9784C12.0506 11.0072 11.9494 11.0072 11.8547 10.9784C10.6427 10.6103 9.59788 9.81898 8.90036 8.74543C8.20345 7.67281 7.89644 6.38534 8.0309 5.10675L8.25664 2.75538C8.27791 2.53382 8.44307 2.353 8.66179 2.3118ZM9.21575 3.22922L9.0261 5.20463L9.02563 5.20935C8.91442 6.26243 9.16749 7.32113 9.73891 8.2006C10.2818 9.03621 11.0786 9.6587 12 9.97462C12.9214 9.6587 13.7182 9.03621 14.2611 8.2006C14.8325 7.32113 15.0856 6.26243 14.9744 5.20935L14.9739 5.20463L14.7843 3.22922C12.9401 2.92359 11.0599 2.92359 9.21575 3.22922Z" fill="#00164E"/>
<path fill-rule="evenodd" clip-rule="evenodd" d="M8.16263 14.3779C8.97324 13.7869 9.5 12.83 9.5 11.75C9.5 9.95507 8.04493 8.5 6.25 8.5C4.45507 8.5 3 9.95507 3 11.75C3 12.83 3.52676 13.7869 4.33737 14.3779C3.66417 14.6538 3.04697 15.0746 2.52874 15.6201C1.54722 16.6533 1 18.0493 1 19.5V20C1 20.5224 1.1969 21.0282 1.55487 21.405C1.91367 21.7827 2.40594 22 2.925 22H9.575C10.0941 22 10.5863 21.7827 10.9451 21.405C11.3031 21.0282 11.5 20.5224 11.5 20V19.5C11.5 18.0493 10.9528 16.6533 9.97126 15.6201C9.45303 15.0746 8.83583 14.6538 8.16263 14.3779ZM4 11.75C4 10.5074 5.00736 9.5 6.25 9.5C7.49264 9.5 8.5 10.5074 8.5 11.75C8.5 12.9926 7.49264 14 6.25 14C5.00736 14 4 12.9926 4 11.75ZM6.25 15C5.13135 15 4.05298 15.4675 3.25374 16.3088C2.45367 17.151 2 18.2985 2 19.5V20C2 20.2733 2.10336 20.5305 2.27987 20.7163C2.45555 20.9012 2.68819 21 2.925 21H9.575C9.81181 21 10.0444 20.9012 10.2201 20.7163C10.3966 20.5305 10.5 20.2733 10.5 20V19.5C10.5 18.2985 10.0463 17.151 9.24626 16.3088C8.44702 15.4675 7.36865 15 6.25 15Z" fill="#00164E"/>
<path fill-rule="evenodd" clip-rule="evenodd" d="M19.6626 14.3779C20.4732 13.7869 21 12.83 21 11.75C21 9.95507 19.5449 8.5 17.75 8.5C15.9551 8.5 14.5 9.95507 14.5 11.75C14.5 12.83 15.0268 13.7869 15.8374 14.3779C15.1642 14.6538 14.547 15.0746 14.0287 15.6201C13.0472 16.6533 12.5 18.0493 12.5 19.5V20C12.5 20.5224 12.6969 21.0282 13.0549 21.405C13.4137 21.7827 13.9059 22 14.425 22H21.075C21.5941 22 22.0863 21.7827 22.4451 21.405C22.8031 21.0282 23 20.5224 23 20V19.5C23 18.0493 22.4528 16.6533 21.4713 15.6201C20.953 15.0746 20.3358 14.6538 19.6626 14.3779ZM17.75 15C16.6313 15 15.553 15.4675 14.7537 16.3088C13.9537 17.151 13.5 18.2985 13.5 19.5V20C13.5 20.2733 13.6034 20.5305 13.7799 20.7163C13.9556 20.9012 14.1882 21 14.425 21H21.075C21.3118 21 21.5444 20.9012 21.7201 20.7163C21.8966 20.5305 22 20.2733 22 20V19.5C22 18.2985 21.5463 17.151 20.7463 16.3088C19.947 15.4675 18.8687 15 17.75 15ZM17.75 14C16.5074 14 15.5 12.9926 15.5 11.75C15.5 10.5074 16.5074 9.5 17.75 9.5C18.9926 9.5 20 10.5074 20 11.75C20 12.9926 18.9926 14 17.75 14Z" fill="#00164E"/>
</svg>
