<svg width="24" height="24" viewBox="0 0 24 24" fill="none" xmlns="http://www.w3.org/2000/svg">
<path fill-rule="evenodd" clip-rule="evenodd" d="M5.5 3C5.22386 3 5 3.22386 5 3.5V19.5C5 19.7761 5.22386 20 5.5 20H11.5C11.7761 20 12 20.2239 12 20.5C12 20.7761 11.7761 21 11.5 21H5.5C4.67157 21 4 20.3284 4 19.5V3.5C4 2.67157 4.67157 2 5.5 2H13.1015C13.4853 2 13.8545 2.14712 14.1331 2.41107L17.5316 5.63068C17.8306 5.91395 18 6.30772 18 6.71961V11.5C18 11.7761 17.7761 12 17.5 12C17.2239 12 17 11.7761 17 11.5V7.00005H13.7C13.3134 7.00005 13 6.68665 13 6.30005V3H5.5ZM14 3.70716L16.2929 6.00005H14V3.70716Z" fill="#00164E"/>
<path d="M7 7C6.72386 7 6.5 7.22386 6.5 7.5C6.5 7.77614 6.72386 8 7 8H10.57C10.8461 8 11.07 7.77614 11.07 7.5C11.07 7.22386 10.8461 7 10.57 7H7Z" fill="#00164E"/>
<path d="M6.5 12.5C6.5 12.2239 6.72386 12 7 12H13C13.2761 12 13.5 12.2239 13.5 12.5C13.5 12.7761 13.2761 13 13 13H7C6.72386 13 6.5 12.7761 6.5 12.5Z" fill="#00164E"/>
<path d="M7 9.5C6.72386 9.5 6.5 9.72386 6.5 10C6.5 10.2761 6.72386 10.5 7 10.5H14.5C14.7761 10.5 15 10.2761 15 10C15 9.72386 14.7761 9.5 14.5 9.5H7Z" fill="#00164E"/>
<path d="M17.2998 20.5C17.2998 20.7761 17.0759 21 16.7998 21C16.5237 21 16.2998 20.7761 16.2998 20.5C16.2998 20.2239 16.5237 20 16.7998 20C17.0759 20 17.2998 20.2239 17.2998 20.5Z" fill="#00164E"/>
<path d="M15.261 15.9544C15.6581 15.4301 16.1929 15 17.0605 15C17.5504 15 17.9834 15.1383 18.2995 15.4033C18.6198 15.6719 18.8002 16.055 18.8002 16.4936C18.8002 16.884 18.6849 17.1883 18.4858 17.4348C18.2952 17.6708 18.0399 17.8376 17.7931 17.9802C17.4583 18.1736 17.3759 18.2551 17.3417 18.3207C17.3263 18.3502 17.3127 18.3931 17.3052 18.4781C17.2974 18.5679 17.2979 18.6802 17.2992 18.848C17.2997 18.9092 17.3002 18.977 17.3002 19.05L17.3002 19.0513L17.3002 19.0526L17.3001 19.0556L17.3 19.0626C17.2998 19.0678 17.2995 19.0739 17.299 19.0809C17.2979 19.0948 17.2961 19.1127 17.2925 19.1332C17.2857 19.173 17.2715 19.2304 17.2402 19.2914C17.2082 19.3536 17.1559 19.4238 17.073 19.4775C16.9886 19.5322 16.8903 19.5583 16.7859 19.5583C16.6815 19.5583 16.5832 19.5322 16.4989 19.4775C16.416 19.4238 16.3637 19.3536 16.3316 19.2914C16.3003 19.2304 16.2861 19.173 16.2793 19.1332C16.2758 19.1127 16.2739 19.0948 16.2728 19.0809L16.2722 19.0706L16.2719 19.0626L16.2717 19.0556L16.2716 19.0526L16.2716 19.0513C16.2716 19.0513 16.2716 19.05 16.5716 19.05H16.2716V18.425C16.2716 18.1318 16.3511 17.8987 16.5191 17.7016C16.6715 17.5227 16.8847 17.3904 17.1011 17.2638C17.3748 17.0977 17.5234 16.9953 17.6121 16.8911C17.6827 16.8081 17.7247 16.7124 17.7247 16.5202C17.7247 16.352 17.6661 16.2406 17.5733 16.165C17.4728 16.0832 17.2999 16.0178 17.0337 16.0178C16.5927 16.0178 16.3249 16.22 16.0786 16.5626C16.0495 16.6031 16.0108 16.6357 15.966 16.6574C15.6252 16.8228 15.2002 16.5884 15.2002 16.1862V16.1355C15.2002 16.0702 15.2216 16.0065 15.261 15.9544Z" fill="#00164E"/>
<path fill-rule="evenodd" clip-rule="evenodd" d="M17 13C14.2386 13 12 15.2386 12 18C12 20.7614 14.2386 23 17 23C19.7614 23 22 20.7614 22 18C22 15.2386 19.7614 13 17 13ZM13 18C13 15.7909 14.7909 14 17 14C19.2091 14 21 15.7909 21 18C21 20.2091 19.2091 22 17 22C14.7909 22 13 20.2091 13 18Z" fill="#00164E"/>
</svg>
