<svg width="24" height="24" viewBox="0 0 24 24" fill="none" xmlns="http://www.w3.org/2000/svg">
<path d="M17.9866 6.67145C17.7838 6.13923 17.1477 4.91204 15.5466 4.95921C15.1508 4.94835 14.5822 5.0462 14.0882 5.3891C13.5616 5.75465 13.1633 6.37021 13.1304 7.29115C13.1206 7.56712 13.3363 7.79882 13.6123 7.80868C13.8883 7.81853 14.12 7.60281 14.1298 7.32684C14.1518 6.71229 14.3976 6.39165 14.6585 6.21059C14.9443 6.01221 15.2966 5.95069 15.5285 5.95913C15.5404 5.95956 15.5523 5.95957 15.5642 5.95915C16.4884 5.92674 16.8757 6.57733 17.0429 7.00375C17.1987 7.60713 17.0739 8.03401 16.8415 8.33315C16.5999 8.64401 16.1981 8.87169 15.7106 8.9722L5.51256 8.9824C5.23642 8.98274 5.01284 9.20688 5.01318 9.48302C5.01353 9.75916 5.23766 9.98274 5.51381 9.9824L15.7603 9.97214C15.7912 9.9721 15.822 9.9692 15.8524 9.96347C16.5333 9.835 17.1962 9.50648 17.6311 8.94674C18.0792 8.37008 18.2401 7.60522 18.0022 6.71972C17.9978 6.70338 17.9926 6.68727 17.9866 6.67145Z" fill="#00164E"/>
<path d="M1.01367 11.4914C1.01367 11.2153 1.23753 10.9914 1.51367 10.9914H18.4663L18.4757 10.9915L18.4841 10.9917C19.0425 11.0117 19.8698 11.2004 20.5889 11.7097C21.3278 12.233 21.9373 13.0868 22.0158 14.3743L22.0165 14.3857C22.0372 14.9314 21.8871 15.7392 21.3811 16.4652C20.8627 17.209 19.991 17.8365 18.6359 18.0192C18.3623 18.0561 18.1105 17.8642 18.0736 17.5905C18.0367 17.3168 18.2286 17.0651 18.5023 17.0282C19.5875 16.8818 20.2068 16.4012 20.5607 15.8934C20.9251 15.3705 21.0295 14.7866 21.0173 14.4292C20.9572 13.4719 20.5221 12.8878 20.011 12.5258C19.4828 12.1517 18.8585 12.0074 18.4568 11.9914H1.51367C1.23753 11.9914 1.01367 11.7675 1.01367 11.4914Z" fill="#00164E"/>
<path d="M4.01013 13.4984C4.01013 13.2223 4.23399 12.9984 4.51013 12.9984H13.0598C13.0619 12.9984 13.0641 12.9984 13.0662 12.9985C13.0725 12.9985 13.0789 12.9987 13.0852 12.9991C13.7446 13.0326 14.5486 13.3285 15.1267 13.9578C15.7252 14.6091 16.0382 15.5703 15.768 16.8253C15.7649 16.8397 15.7612 16.8539 15.7569 16.8679C15.5318 17.5951 14.6932 18.9691 12.9127 19.0115C12.4763 19.0216 11.7635 18.8596 11.1501 18.4427C10.5125 18.0094 9.95961 17.2811 9.95961 16.1867C9.95961 15.9106 10.1835 15.6867 10.4596 15.6867C10.7358 15.6867 10.9596 15.9106 10.9596 16.1867C10.9596 16.8904 11.2953 17.3323 11.7122 17.6157C12.1535 17.9156 12.6615 18.017 12.8892 18.0117C14.0546 17.9839 14.6295 17.1026 14.7952 16.5924C14.9951 15.6362 14.7456 15.021 14.3904 14.6344C14.0156 14.2265 13.4769 14.0235 13.0462 13.9984H4.51013C4.23399 13.9984 4.01013 13.7746 4.01013 13.4984Z" fill="#00164E"/>
</svg>
