<svg width="24" height="24" viewBox="0 0 24 24" fill="none" xmlns="http://www.w3.org/2000/svg">
<path fill-rule="evenodd" clip-rule="evenodd" d="M4 4.5C4 4.22386 4.22386 4 4.5 4H11V7.3C11 7.6866 11.3134 8 11.7 8H15V12.5C15 12.7761 15.2239 13 15.5 13C15.7761 13 16 12.7761 16 12.5V7.91421C16 7.51639 15.842 7.13486 15.5607 6.85355L12.1464 3.43934C11.8651 3.15804 11.4836 3 11.0858 3H4.5C3.67157 3 3 3.67157 3 4.5V19.5C3 20.3284 3.67157 21 4.5 21H7.5C7.77614 21 8 20.7761 8 20.5C8 20.2239 7.77614 20 7.5 20H4.5C4.22386 20 4 19.7761 4 19.5V4.5ZM14.2929 7L12 4.70711V7H14.2929Z" fill="#00164E"/>
<path d="M5.5 8C5.5 7.72386 5.72386 7.5 6 7.5H9C9.27614 7.5 9.5 7.72386 9.5 8C9.5 8.27614 9.27614 8.5 9 8.5H6C5.72386 8.5 5.5 8.27614 5.5 8Z" fill="#00164E"/>
<path d="M5.5 10C5.5 9.72386 5.72386 9.5 6 9.5H10C10.2761 9.5 10.5 9.72386 10.5 10C10.5 10.2761 10.2761 10.5 10 10.5H6C5.72386 10.5 5.5 10.2761 5.5 10Z" fill="#00164E"/>
<path d="M6 11.5C5.72386 11.5 5.5 11.7239 5.5 12C5.5 12.2761 5.72386 12.5 6 12.5H11C11.2761 12.5 11.5 12.2761 11.5 12C11.5 11.7239 11.2761 11.5 11 11.5H6Z" fill="#00164E"/>
<path d="M13 18C12.7239 18 12.5 18.2239 12.5 18.5C12.5 18.7761 12.7239 19 13 19H18C18.2761 19 18.5 18.7761 18.5 18.5C18.5 18.2239 18.2761 18 18 18H13Z" fill="#00164E"/>
<path d="M14.5 16.5C14.5 16.2239 14.7239 16 15 16H18C18.2761 16 18.5 16.2239 18.5 16.5C18.5 16.7761 18.2761 17 18 17H15C14.7239 17 14.5 16.7761 14.5 16.5Z" fill="#00164E"/>
<path d="M11.5 17.5C12.0523 17.5 12.5 17.0523 12.5 16.5C12.5 15.9477 12.0523 15.5 11.5 15.5C10.9477 15.5 10.5 15.9477 10.5 16.5C10.5 17.0523 10.9477 17.5 11.5 17.5Z" fill="#00164E"/>
<path fill-rule="evenodd" clip-rule="evenodd" d="M9 14.7C9 14.3134 9.3134 14 9.7 14H19.3C19.6866 14 20 14.3134 20 14.7V20.3C20 20.6866 19.6866 21 19.3 21H9.7C9.3134 21 9 20.6866 9 20.3V14.7ZM10 15V20H19V15H10Z" fill="#00164E"/>
</svg>
