<svg width="24" height="24" viewBox="0 0 24 24" fill="none" xmlns="http://www.w3.org/2000/svg">
<path fill-rule="evenodd" clip-rule="evenodd" d="M2 16.5C2 17.8807 3.11929 19 4.5 19H19.5C20.8807 19 22 17.8807 22 16.5V9.5C22 8.11929 20.8807 7 19.5 7H10.9142C10.7816 7 10.6544 6.94732 10.5607 6.85355L9.14645 5.43934C8.86514 5.15804 8.48361 5 8.08579 5H4.5C3.11929 5 2 6.11929 2 7.5V16.5ZM4.5 6C3.67157 6 3 6.67157 3 7.5V11H21V9.5C21 8.67157 20.3284 8 19.5 8H10.9142C10.5164 8 10.1349 7.84197 9.85355 7.56066L8.43934 6.14645C8.34557 6.05268 8.21839 6 8.08579 6H4.5ZM3 16.5C3 17.3284 3.67157 18 4.5 18H19.5C20.3284 18 21 17.3284 21 16.5V12H3V16.5Z" fill="#00164E"/>
</svg>
