<svg width="24" height="24" viewBox="0 0 24 24" fill="none" xmlns="http://www.w3.org/2000/svg">
<path fill-rule="evenodd" clip-rule="evenodd" d="M5 4.5C4.72386 4.5 4.5 4.72386 4.5 5V11C4.5 11.2761 4.72386 11.5 5 11.5H11C11.2761 11.5 11.5 11.2761 11.5 11V5C11.5 4.72386 11.2761 4.5 11 4.5H5ZM5.5 10.5V5.5H10.5V10.5H5.5Z" fill="#00164E"/>
<path fill-rule="evenodd" clip-rule="evenodd" d="M13 4.5C12.7239 4.5 12.5 4.72386 12.5 5V11C12.5 11.2761 12.7239 11.5 13 11.5H19C19.2761 11.5 19.5 11.2761 19.5 11V5C19.5 4.72386 19.2761 4.5 19 4.5H13ZM13.5 10.5V5.5H18.5V10.5H13.5Z" fill="#00164E"/>
<path fill-rule="evenodd" clip-rule="evenodd" d="M12.5 13C12.5 12.7239 12.7239 12.5 13 12.5H19C19.2761 12.5 19.5 12.7239 19.5 13V19C19.5 19.2761 19.2761 19.5 19 19.5H13C12.7239 19.5 12.5 19.2761 12.5 19V13ZM13.5 13.5V18.5H18.5V13.5H13.5Z" fill="#00164E"/>
<path fill-rule="evenodd" clip-rule="evenodd" d="M5 12.5C4.72386 12.5 4.5 12.7239 4.5 13V19C4.5 19.2761 4.72386 19.5 5 19.5H11C11.2761 19.5 11.5 19.2761 11.5 19V13C11.5 12.7239 11.2761 12.5 11 12.5H5ZM5.5 18.5V13.5H10.5V18.5H5.5Z" fill="#00164E"/>
</svg>
