<svg width="24" height="24" viewBox="0 0 24 24" fill="none" xmlns="http://www.w3.org/2000/svg">
<path d="M17.5 13.8787C17.7761 13.8787 18 14.1025 18 14.3787V16H19.6213C19.8975 16 20.1213 16.2239 20.1213 16.5C20.1213 16.7761 19.8975 17 19.6213 17H18V18.6213C18 18.8975 17.7761 19.1213 17.5 19.1213C17.2239 19.1213 17 18.8975 17 18.6213V17H15.3787C15.1025 17 14.8787 16.7761 14.8787 16.5C14.8787 16.2239 15.1025 16 15.3787 16H17V14.3787C17 14.1025 17.2239 13.8787 17.5 13.8787Z" fill="#00164E"/>
<path fill-rule="evenodd" clip-rule="evenodd" d="M19.5189 12.4772L19.7095 12.2817L19.7162 12.2747L19.7225 12.2678C20.1303 11.8162 20.4515 11.2815 20.6698 10.696C20.8882 10.1104 21 9.48403 21 8.85234C21 8.22067 20.8882 7.5941 20.6698 7.00856C20.4515 6.42302 20.1303 5.88831 19.7225 5.4367L19.7213 5.43534C18.8914 4.52316 17.7624 4 16.573 4C15.384 4 14.2552 4.52283 13.4254 5.4345L13.4247 5.43534L12 6.98783L10.5754 5.43534L10.5746 5.43452C9.74486 4.52284 8.61604 4 7.42706 4C6.23772 4 5.10857 4.52315 4.27872 5.43534L4.2775 5.4367C3.86965 5.88831 3.54848 6.42302 3.33015 7.00856C3.11183 7.5941 3 8.22068 3 8.85234C3 9.48403 3.11183 10.1104 3.33015 10.696C3.54848 11.2815 3.86965 11.8162 4.2775 12.2678C4.28138 12.2721 4.28534 12.2764 4.28938 12.2805L11.6169 19.8478C11.7109 19.9449 11.8402 19.9998 11.9753 20C12.1104 20.0002 12.2398 19.9457 12.3342 19.849L13.5305 18.6215C14.2886 20.0371 15.7819 21 17.5 21C19.9853 21 22 18.9853 22 16.5C22 14.7407 20.9904 13.2172 19.5189 12.4772ZM5.01904 6.1076C4.69941 6.46171 4.44301 6.88625 4.26714 7.35793C4.09115 7.82992 4 8.33805 4 8.85234C4 9.36662 4.09114 9.87459 4.26714 10.3466C4.44209 10.8158 4.69673 11.2384 5.01402 11.5913L11.9773 18.7824L13.1342 17.5953C13.0466 17.2447 13 16.8778 13 16.5C13 14.0147 15.0147 12 17.5 12C17.8376 12 18.1664 12.0372 18.4827 12.1076L18.9865 11.5908C19.3036 11.2379 19.558 10.8155 19.7329 10.3466C19.9089 9.87459 20 9.36662 20 8.85234C20 8.33805 19.9088 7.82992 19.7329 7.35793C19.557 6.88623 19.3006 6.46169 18.9809 6.10757C18.3278 5.38997 17.4618 5 16.573 5C15.6839 5 14.8176 5.39023 14.1644 6.10828L14.1629 6.10987L12.3684 8.06541C12.2737 8.1686 12.1401 8.22735 12 8.22735C11.86 8.22735 11.7263 8.1686 11.6316 8.06541L9.83569 6.10828C9.18246 5.39023 8.31617 5 7.42706 5C6.53823 5 5.6722 5.38999 5.01904 6.1076ZM14 16.5C14 14.567 15.567 13 17.5 13C19.433 13 21 14.567 21 16.5C21 18.433 19.433 20 17.5 20C15.567 20 14 18.433 14 16.5Z" fill="#00164E"/>
</svg>
