<svg width="24" height="24" viewBox="0 0 24 24" fill="none" xmlns="http://www.w3.org/2000/svg">
<path fill-rule="evenodd" clip-rule="evenodd" d="M14.3291 3.03011C14.4786 2.97575 14.645 2.99575 14.7774 3.08398L20.7774 7.08398C20.9342 7.18856 21.0189 7.37248 20.9964 7.55967C20.9739 7.74685 20.8481 7.90547 20.6709 7.9699L18.6879 8.69098L20.7774 10.084C20.9342 10.1885 21.0189 10.3725 20.9964 10.5597C20.9739 10.7468 20.8481 10.9055 20.6709 10.9699L18.6879 11.691L20.7774 13.084C20.9342 13.1885 21.0189 13.3725 20.9964 13.5597C20.9739 13.7468 20.8481 13.9055 20.6709 13.9699L18.6879 14.691L20.7774 16.084C20.9342 16.1886 21.0189 16.3725 20.9964 16.5597C20.9739 16.7469 20.8481 16.9055 20.6709 16.9699L9.67088 20.9699C9.52141 21.0243 9.355 21.0042 9.22266 20.916L3.22266 16.916C3.06579 16.8114 2.98108 16.6275 3.00358 16.4403C3.02608 16.2532 3.15196 16.0945 3.32914 16.0301L5.31216 15.309L3.22266 13.916C3.06579 13.8114 2.98108 13.6275 3.00358 13.4403C3.02608 13.2531 3.15196 13.0945 3.32914 13.0301L5.31214 12.309L3.22266 10.916C3.06579 10.8114 2.98108 10.6275 3.00358 10.4403C3.02608 10.2531 3.15196 10.0945 3.32914 10.0301L5.31213 9.309L3.22266 7.91603C3.06579 7.81145 2.98108 7.62752 3.00358 7.44034C3.02608 7.25315 3.15196 7.09454 3.32914 7.03011L14.3291 3.03011ZM9.67088 17.9699L17.5214 15.1152L19.4004 16.3678L9.56688 19.9437L4.59964 16.6322L6.34489 15.9975L9.22266 17.916C9.355 18.0042 9.52141 18.0242 9.67088 17.9699ZM6.34491 12.9975L4.59964 13.6322L9.56688 16.9436L19.4004 13.3678L17.5214 12.1152L9.67088 14.9699C9.52141 15.0242 9.355 15.0042 9.22266 14.916L6.34491 12.9975ZM9.56688 13.9436L19.4004 10.3678L17.5214 9.11516L9.67088 11.9699C9.52141 12.0242 9.355 12.0042 9.22266 11.916L6.34491 9.99751L4.59964 10.6322L9.56688 13.9436ZM9.56688 10.9436L17.4174 8.08891L17.4207 8.08773L19.4004 7.36784L14.4331 4.05635L4.59964 7.63217L6.68682 9.02361L6.68912 9.02514L9.56688 10.9436Z" fill="#00164E"/>
</svg>
