<svg width="24" height="24" viewBox="0 0 24 24" fill="none" xmlns="http://www.w3.org/2000/svg">
<path d="M17.9038 2.01053C17.6335 1.9541 17.3687 2.12749 17.3122 2.3978C17.2558 2.66812 17.4292 2.933 17.6995 2.98943C18.0035 3.05288 18.302 3.14368 18.5916 3.26117C19.2481 3.52758 19.8448 3.92577 20.3457 4.43203C20.8465 4.9383 21.241 5.54217 21.5052 6.20736C21.6434 6.55551 21.7444 6.91665 21.8071 7.28462C21.8534 7.55684 22.1117 7.73994 22.3839 7.69359C22.6561 7.64724 22.8392 7.38898 22.7929 7.11676C22.7185 6.6802 22.5987 6.25161 22.4346 5.8383C22.121 5.04865 21.6523 4.331 21.0566 3.72876C20.4608 3.1265 19.7502 2.65214 18.9676 2.33455C18.6224 2.19449 18.2664 2.08621 17.9038 2.01053Z" fill="#00164E"/>
<path d="M4 15C4 14.7239 4.22386 14.5 4.5 14.5H8.5C8.77614 14.5 9 14.7239 9 15C9 15.2761 8.77614 15.5 8.5 15.5H4.5C4.22386 15.5 4 15.2761 4 15Z" fill="#00164E"/>
<path fill-rule="evenodd" clip-rule="evenodd" d="M3 8C3 7.17157 3.67157 6.5 4.5 6.5H15C15.2761 6.5 15.5 6.27614 15.5 6C15.5 5.72386 15.2761 5.5 15 5.5H4.5C3.11929 5.5 2 6.61929 2 8V17C2 18.3807 3.11929 19.5 4.5 19.5H18.5C19.8807 19.5 21 18.3807 21 17V9.5C21 9.22386 20.7761 9 20.5 9C20.2239 9 20 9.22386 20 9.5V10H3V8ZM3 17C3 17.8284 3.67157 18.5 4.5 18.5H18.5C19.3284 18.5 20 17.8284 20 17V13H3V17Z" fill="#00164E"/>
<path d="M16.8081 4.19096C16.862 3.92013 17.1252 3.74427 17.3961 3.79816C17.6852 3.85569 17.9686 3.94198 18.2422 4.05619C18.7957 4.28729 19.2975 4.62796 19.7181 5.05781C20.1387 5.48764 20.4696 5.99797 20.6916 6.55854C20.8335 6.91681 20.929 7.29103 20.9767 7.67198C21.0109 7.94599 20.8165 8.19588 20.5425 8.23014C20.2685 8.26439 20.0186 8.07003 19.9844 7.79602C19.9472 7.49846 19.8726 7.20628 19.7618 6.9267C19.5886 6.48924 19.3306 6.09164 19.0034 5.75719C18.6761 5.42276 18.2863 5.15825 17.8569 4.979C17.6447 4.89041 17.4249 4.82351 17.2009 4.77893C16.9301 4.72504 16.7542 4.4618 16.8081 4.19096Z" fill="#00164E"/>
<path d="M16.8639 5.56592C16.59 5.53063 16.3394 5.72403 16.3041 5.99791C16.2688 6.27179 16.4622 6.52242 16.7361 6.55772C16.8793 6.57618 17.02 6.61312 17.1548 6.66793C17.3669 6.75421 17.5599 6.88308 17.7221 7.04708C17.8844 7.2111 18.0125 7.40688 18.0984 7.62281C18.1543 7.76315 18.1916 7.91006 18.2096 8.05973C18.2425 8.3339 18.4915 8.52945 18.7657 8.49651C19.0398 8.46357 19.2354 8.2146 19.2025 7.94043C19.1742 7.70515 19.1155 7.47399 19.0275 7.25294C18.8921 6.91287 18.69 6.60359 18.4331 6.34381C18.1761 6.08402 17.8695 5.8791 17.5316 5.74164C17.3169 5.65432 17.0925 5.59539 16.8639 5.56592Z" fill="#00164E"/>
</svg>
