<svg width="24" height="24" viewBox="0 0 24 24" fill="none" xmlns="http://www.w3.org/2000/svg">
<path fill-rule="evenodd" clip-rule="evenodd" d="M3 6.5C3 5.94772 3.44772 5.5 4 5.5H19C19.5523 5.5 20 5.94772 20 6.5V8C20 8.27614 19.7761 8.5 19.5 8.5C19.2239 8.5 19 8.27614 19 8V6.5H17C17 7.03043 17.2107 7.53914 17.5858 7.91421C17.781 8.10948 17.781 8.42606 17.5858 8.62132C17.3905 8.81658 17.0739 8.81658 16.8787 8.62132C16.3161 8.05871 16 7.29565 16 6.5H7C7 7.29565 6.68393 8.05871 6.12132 8.62132C5.55871 9.18393 4.79565 9.5 4 9.5V12.5C4.79565 12.5 5.55871 12.8161 6.12132 13.3787C6.68393 13.9413 7 14.7044 7 15.5H12.5C12.7761 15.5 13 15.7239 13 16C13 16.2761 12.7761 16.5 12.5 16.5H4C3.44772 16.5 3 16.0523 3 15.5V6.5ZM4 6.5L6 6.5C6 7.03043 5.78929 7.53914 5.41422 7.91421C5.03914 8.28929 4.53043 8.5 4 8.5V6.5ZM5.41422 14.0858C5.78929 14.4609 6 14.9696 6 15.5H4V13.5C4.53043 13.5 5.03914 13.7107 5.41422 14.0858Z" fill="#00164E"/>
<path d="M6.5 9.5C6.77614 9.5 7 9.72386 7 10V12C7 12.2761 6.77614 12.5 6.5 12.5C6.22386 12.5 6 12.2761 6 12V10C6 9.72386 6.22386 9.5 6.5 9.5Z" fill="#00164E"/>
<path fill-rule="evenodd" clip-rule="evenodd" d="M11.5 8.5C10.1193 8.5 9 9.61929 9 11C9 12.3807 10.1193 13.5 11.5 13.5C12.8807 13.5 14 12.3807 14 11C14 9.61929 12.8807 8.5 11.5 8.5ZM10 11C10 10.1716 10.6716 9.5 11.5 9.5C12.3284 9.5 13 10.1716 13 11C13 11.8284 12.3284 12.5 11.5 12.5C10.6716 12.5 10 11.8284 10 11Z" fill="#00164E"/>
<path d="M18.5 15.5C18.5 15.2239 18.2761 15 18 15C17.7239 15 17.5 15.2239 17.5 15.5V16C17.5 16.2761 17.7239 16.5 18 16.5C18.2761 16.5 18.5 16.2761 18.5 16V15.5Z" fill="#00164E"/>
<path fill-rule="evenodd" clip-rule="evenodd" d="M16.2007 9.66816C16.6464 9.23837 17.2472 9 17.87 9H18.13C18.7528 9 19.3536 9.23837 19.7993 9.66816C20.2457 10.0985 20.5 10.6862 20.5 11.303V12.5H21.5C21.7761 12.5 22 12.7239 22 13V16.5C22 17.8807 20.8807 19 19.5 19H16.5C15.1193 19 14 17.8807 14 16.5V13C14 12.7239 14.2239 12.5 14.5 12.5H15.5V11.303C15.5 10.6862 15.7543 10.0985 16.2007 9.66816ZM19.1052 10.388C19.3603 10.6339 19.5 10.9635 19.5 11.303V12.5H16.5V11.303C16.5 10.9635 16.6397 10.6339 16.8948 10.388C17.1504 10.1415 17.5009 10 17.87 10H18.13C18.4991 10 18.8496 10.1415 19.1052 10.388ZM16.5 18C15.6716 18 15 17.3284 15 16.5V13.5H21V16.5C21 17.3284 20.3284 18 19.5 18H16.5Z" fill="#00164E"/>
</svg>
