<svg width="24" height="24" viewBox="0 0 24 24" fill="none" xmlns="http://www.w3.org/2000/svg">
<path fill-rule="evenodd" clip-rule="evenodd" d="M18 3C16.3431 3 15 4.34315 15 6C15 6.38419 15.0722 6.75151 15.2038 7.08913L8.54859 10.4166C8.01906 9.56609 7.07564 9 6 9C4.34315 9 3 10.3431 3 12C3 13.6569 4.34315 15 6 15C7.07564 15 8.01906 14.4339 8.54859 13.5834L15.2038 16.911C15.0722 17.2486 15 17.6159 15 18C15 19.6569 16.3431 21 18 21C19.6569 21 21 19.6569 21 18C21 16.3431 19.6569 15 18 15C17.0872 15 16.2697 15.4076 15.7194 16.0508L8.92824 12.6552C8.97522 12.4443 9 12.225 9 12C9 11.775 8.97522 11.5557 8.92824 11.3448L15.7195 7.94931C16.2698 8.59241 17.0873 9 18 9C19.6569 9 21 7.65685 21 6C21 4.34315 19.6569 3 18 3ZM16 6C16 4.89543 16.8954 4 18 4C19.1046 4 20 4.89543 20 6C20 7.10457 19.1046 8 18 8C16.8954 8 16 7.10457 16 6ZM16 18C16 16.8954 16.8954 16 18 16C19.1046 16 20 16.8954 20 18C20 19.1046 19.1046 20 18 20C16.8954 20 16 19.1046 16 18ZM6 10C4.89543 10 4 10.8954 4 12C4 13.1046 4.89543 14 6 14C7.10457 14 8 13.1046 8 12C8 10.8954 7.10457 10 6 10Z" fill="#00164E"/>
</svg>
