<svg width="24" height="24" viewBox="0 0 24 24" fill="none" xmlns="http://www.w3.org/2000/svg">
<path d="M4.5 5C4.22386 5 4 5.22386 4 5.5C4 5.77614 4.22386 6 4.5 6H17.5C17.7761 6 18 5.77614 18 5.5C18 5.22386 17.7761 5 17.5 5H4.5Z" fill="#00164E"/>
<path d="M4.5 9C4.22386 9 4 9.22386 4 9.5C4 9.77614 4.22386 10 4.5 10H17.5C17.7761 10 18 9.77614 18 9.5C18 9.22386 17.7761 9 17.5 9H4.5Z" fill="#00164E"/>
<path d="M4.5 13C4.22386 13 4 13.2239 4 13.5C4 13.7761 4.22386 14 4.5 14H11.5C11.7761 14 12 13.7761 12 13.5C12 13.2239 11.7761 13 11.5 13H4.5Z" fill="#00164E"/>
<path d="M4.5 17C4.22386 17 4 17.2239 4 17.5C4 17.7761 4.22386 18 4.5 18H11.5C11.7761 18 12 17.7761 12 17.5C12 17.2239 11.7761 17 11.5 17H4.5Z" fill="#00164E"/>
<path d="M18 13.5C18.2761 13.5 18.5 13.7238 18.5 14V15.6213H20.1213C20.3974 15.6213 20.6213 15.8451 20.6213 16.1213C20.6213 16.3974 20.3974 16.6213 20.1213 16.6213H18.5V18.2426C18.5 18.5187 18.2761 18.7426 18 18.7426C17.7238 18.7426 17.5 18.5187 17.5 18.2426V16.6213H15.8787C15.6025 16.6213 15.3787 16.3974 15.3787 16.1213C15.3787 15.8451 15.6025 15.6213 15.8787 15.6213H17.5V14C17.5 13.7238 17.7238 13.5 18 13.5Z" fill="#00164E"/>
<path fill-rule="evenodd" clip-rule="evenodd" d="M13 16C13 13.2386 15.2386 11 18 11C20.7614 11 23 13.2386 23 16C23 18.7614 20.7614 21 18 21C15.2386 21 13 18.7614 13 16ZM18 12C15.7909 12 14 13.7909 14 16C14 18.2091 15.7909 20 18 20C20.2091 20 22 18.2091 22 16C22 13.7909 20.2091 12 18 12Z" fill="#00164E"/>
</svg>
