<svg width="24" height="24" viewBox="0 0 24 24" fill="none" xmlns="http://www.w3.org/2000/svg">
<path d="M16.2635 3.58839C16.0926 3.47054 15.8667 3.47054 15.6958 3.58839L15.6942 3.58948L15.6912 3.59157L15.681 3.59873L15.6443 3.62479C15.6128 3.6473 15.5677 3.68003 15.5108 3.72238C15.3972 3.80706 15.2364 3.93043 15.0442 4.08782C14.6606 4.40198 14.1479 4.85487 13.6335 5.40916C13.4457 5.61158 13.4575 5.92794 13.6599 6.11578C13.8623 6.30362 14.1787 6.2918 14.3665 6.08939C14.842 5.57705 15.3191 5.1553 15.6778 4.86148C15.7922 4.76782 15.8941 4.68749 15.9797 4.62169C16.0652 4.68749 16.1672 4.76782 16.2815 4.86148C16.6403 5.1553 17.1174 5.57705 17.5928 6.08939C18.5646 7.13652 19.439 8.46566 19.439 9.80248C19.439 10.9444 18.9279 11.9577 18.1351 12.6151C17.9225 12.7914 17.8931 13.1066 18.0694 13.3192C18.2456 13.5317 18.5609 13.5612 18.7734 13.3849C19.791 12.541 20.439 11.2475 20.439 9.80248C20.439 8.0674 19.3338 6.4953 18.3258 5.40916C17.8115 4.85487 17.2987 4.40198 16.9151 4.08782C16.7229 3.93043 16.5622 3.80706 16.4485 3.72238C16.3917 3.68003 16.3465 3.6473 16.3151 3.62479L16.2784 3.59873L16.2681 3.59157L16.2651 3.58948L16.2635 3.58839Z" fill="#00164E"/>
<path d="M6.69273 15.0559C6.60522 14.794 6.32196 14.6526 6.06005 14.7401C5.79814 14.8276 5.65677 15.1109 5.74428 15.3728C6.16643 16.6362 7.10444 17.6568 8.30688 18.1603C8.56159 18.267 8.85454 18.147 8.9612 17.8923C9.06786 17.6376 8.94784 17.3446 8.69313 17.2379C7.76327 16.8486 7.02583 16.0528 6.69273 15.0559Z" fill="#00164E"/>
<path fill-rule="evenodd" clip-rule="evenodd" d="M10.2773 5.08397C10.1094 4.97201 9.8906 4.97201 9.72265 5.08397L9.72071 5.08527L9.71659 5.08803L9.70198 5.09791C9.68945 5.10642 9.6714 5.11875 9.64819 5.1348C9.60178 5.1669 9.53472 5.2139 9.44997 5.27494C9.28052 5.39699 9.04003 5.57538 8.75215 5.80329C8.17719 6.25847 7.40913 6.91433 6.63931 7.71623C5.12263 9.2961 3.5 11.5445 3.5 14C3.5 17.5899 6.41015 20.5 10 20.5C13.5899 20.5 16.5 17.5899 16.5 14C16.5 11.5445 14.8774 9.2961 13.3607 7.71623C12.5909 6.91433 11.8228 6.25847 11.2479 5.80329C10.96 5.57538 10.7195 5.39699 10.55 5.27494C10.4653 5.2139 10.3982 5.1669 10.3518 5.1348C10.3286 5.11875 10.3105 5.10642 10.298 5.09791L10.2834 5.08803L10.2793 5.08527L10.2773 5.08397ZM9.37285 6.58734C9.62821 6.38518 9.84349 6.22465 10 6.11124C10.1565 6.22465 10.3718 6.38518 10.6271 6.58734C11.1772 7.02278 11.9091 7.64817 12.6393 8.40877C14.1226 9.9539 15.5 11.9555 15.5 14C15.5 17.0376 13.0376 19.5 10 19.5C6.96243 19.5 4.5 17.0376 4.5 14C4.5 11.9555 5.87737 9.9539 7.36069 8.40877C8.09087 7.64817 8.82281 7.02278 9.37285 6.58734Z" fill="#00164E"/>
</svg>
