<svg width="24" height="24" viewBox="0 0 24 24" fill="none" xmlns="http://www.w3.org/2000/svg">
<path fill-rule="evenodd" clip-rule="evenodd" d="M2 6.5C2 5.11929 3.11929 4 4.5 4H18.5C19.8807 4 21 5.11929 21 6.5V11.5C21 11.7761 20.7761 12 20.5 12C20.2239 12 20 11.7761 20 11.5V11H3V14.5C3 15.3284 3.67157 16 4.5 16H10.5C10.7761 16 11 16.2239 11 16.5C11 16.7761 10.7761 17 10.5 17H4.5C3.11929 17 2 15.8807 2 14.5V6.5ZM4.5 5C3.67157 5 3 5.67157 3 6.5V8H20V6.5C20 5.67157 19.3284 5 18.5 5H4.5Z" fill="#00164E"/>
<path d="M5 12.5C4.72386 12.5 4.5 12.7239 4.5 13C4.5 13.2761 4.72386 13.5 5 13.5H9C9.27614 13.5 9.5 13.2761 9.5 13C9.5 12.7239 9.27614 12.5 9 12.5H5Z" fill="#00164E"/>
<path d="M16.6464 19.3536L15.1464 17.8536C14.9512 17.6583 14.9512 17.3417 15.1464 17.1464C15.3417 16.9512 15.6583 16.9512 15.8536 17.1464L16.5 17.7929V15C16.5 14.7239 16.7239 14.5 17 14.5C17.2761 14.5 17.5 14.7239 17.5 15V17.7929L18.1464 17.1464C18.3417 16.9512 18.6583 16.9512 18.8536 17.1464C19.0488 17.3417 19.0488 17.6583 18.8536 17.8536L17.3536 19.3536C17.1583 19.5488 16.8417 19.5488 16.6464 19.3536Z" fill="#00164E"/>
<path fill-rule="evenodd" clip-rule="evenodd" d="M12 17C12 14.2386 14.2386 12 17 12C19.7614 12 22 14.2386 22 17C22 19.7614 19.7614 22 17 22C14.2386 22 12 19.7614 12 17ZM17 13C14.7909 13 13 14.7909 13 17C13 19.2091 14.7909 21 17 21C19.2091 21 21 19.2091 21 17C21 14.7909 19.2091 13 17 13Z" fill="#00164E"/>
</svg>
