<svg width="24" height="24" viewBox="0 0 24 24" fill="none" xmlns="http://www.w3.org/2000/svg">
<path d="M2 4.5C2 3.11929 3.11929 2 4.5 2H11.5C12.8807 2 14 3.11929 14 4.5V5C14 5.27614 13.7761 5.5 13.5 5.5C13.2239 5.5 13 5.27614 13 5V4.5C13 3.67157 12.3284 3 11.5 3H4.5C3.67157 3 3 3.67157 3 4.5V19.5C3 20.3284 3.67157 21 4.5 21H11.5C12.3284 21 13 20.3284 13 19.5V19C13 18.7239 13.2239 18.5 13.5 18.5C13.7761 18.5 14 18.7239 14 19V19.5C14 20.8807 12.8807 22 11.5 22H4.5C3.11929 22 2 20.8807 2 19.5V4.5Z" fill="#00164E"/>
<path d="M8 19.5C8.55228 19.5 9 19.0523 9 18.5C9 17.9477 8.55228 17.5 8 17.5C7.44772 17.5 7 17.9477 7 18.5C7 19.0523 7.44772 19.5 8 19.5Z" fill="#00164E"/>
<path fill-rule="evenodd" clip-rule="evenodd" d="M14.5 6C11.1863 6 8.5 8.68629 8.5 12C8.5 15.3137 11.1863 18 14.5 18C17.8137 18 20.5 15.3137 20.5 12C20.5 8.68629 17.8137 6 14.5 6ZM10.44 10.1159C10.1967 10.2044 9.96728 10.3031 9.75731 10.4124C10.254 8.92802 11.428 7.75398 12.9124 7.25731C12.8031 7.46728 12.7044 7.69671 12.6159 7.94004C12.4324 8.44469 12.2843 9.03326 12.1794 9.67938C11.5333 9.78431 10.9447 9.93238 10.44 10.1159ZM12.0529 10.7169C11.5778 10.807 11.1494 10.922 10.7818 11.0557C10.316 11.2251 9.97417 11.415 9.75818 11.6007C9.54057 11.7877 9.5 11.9244 9.5 12C9.5 12.0756 9.54057 12.2123 9.75818 12.3993C9.97417 12.585 10.316 12.7749 10.7818 12.9443C11.1494 13.078 11.5778 13.193 12.0529 13.2831C12.0182 12.8691 12 12.4395 12 12C12 11.5605 12.0182 11.1309 12.0529 10.7169ZM13.0707 13.4293C13.0248 12.977 13 12.4977 13 12C13 11.5023 13.0248 11.023 13.0707 10.5707C13.523 10.5248 14.0023 10.5 14.5 10.5C14.9977 10.5 15.477 10.5248 15.9293 10.5707C15.9752 11.023 16 11.5023 16 12C16 12.4977 15.9752 12.977 15.9293 13.4293C15.477 13.4752 14.9977 13.5 14.5 13.5C14.0023 13.5 13.523 13.4752 13.0707 13.4293ZM12.1794 14.3206C11.5333 14.2157 10.9447 14.0676 10.44 13.8841C10.1967 13.7956 9.96728 13.6969 9.75731 13.5876C10.254 15.072 11.428 16.246 12.9124 16.7427C12.8031 16.5327 12.7044 16.3033 12.6159 16.06C12.4324 15.5553 12.2843 14.9667 12.1794 14.3206ZM14.5 17C14.4244 17 14.2877 16.9594 14.1007 16.7418C13.915 16.5258 13.7251 16.184 13.5557 15.7182C13.422 15.3506 13.307 14.9222 13.2169 14.4471C13.6309 14.4818 14.0605 14.5 14.5 14.5C14.9395 14.5 15.3691 14.4818 15.7831 14.4471C15.693 14.9222 15.578 15.3506 15.4443 15.7182C15.2749 16.184 15.085 16.5258 14.8993 16.7418C14.7123 16.9594 14.5756 17 14.5 17ZM16.0876 16.7427C16.1969 16.5327 16.2956 16.3033 16.3841 16.06C16.5676 15.5553 16.7157 14.9667 16.8206 14.3206C17.4667 14.2157 18.0553 14.0676 18.56 13.8841C18.8033 13.7956 19.0327 13.6969 19.2427 13.5876C18.746 15.072 17.572 16.246 16.0876 16.7427ZM16.9471 13.2831C17.4222 13.193 17.8506 13.078 18.2182 12.9443C18.684 12.7749 19.0258 12.585 19.2418 12.3993C19.4594 12.2123 19.5 12.0756 19.5 12C19.5 11.9244 19.4594 11.7877 19.2418 11.6007C19.0258 11.415 18.684 11.2251 18.2182 11.0557C17.8506 10.922 17.4222 10.807 16.9471 10.7169C16.9818 11.1309 17 11.5605 17 12C17 12.4395 16.9818 12.8691 16.9471 13.2831ZM16.8206 9.67938C17.4667 9.78431 18.0553 9.93238 18.56 10.1159C18.8033 10.2044 19.0327 10.3031 19.2427 10.4124C18.746 8.92802 17.572 7.75398 16.0876 7.25731C16.1969 7.46728 16.2956 7.69671 16.3841 7.94004C16.5676 8.44469 16.7157 9.03326 16.8206 9.67938ZM15.7831 9.5529C15.3691 9.51817 14.9395 9.5 14.5 9.5C14.0605 9.5 13.6309 9.51817 13.2169 9.5529C13.307 9.07777 13.422 8.64938 13.5557 8.28178C13.7251 7.81596 13.915 7.47417 14.1007 7.25818C14.2877 7.04057 14.4244 7 14.5 7C14.5756 7 14.7123 7.04057 14.8993 7.25818C15.085 7.47417 15.2749 7.81596 15.4443 8.28178C15.578 8.64938 15.693 9.07777 15.7831 9.5529Z" fill="#00164E"/>
</svg>
