<svg width="24" height="24" viewBox="0 0 24 24" fill="none" xmlns="http://www.w3.org/2000/svg">
<path d="M8 9C8 8.44772 8.44772 8 9 8C9.55228 8 10 8.44772 10 9V10C10 10.5523 9.55228 11 9 11C8.44772 11 8 10.5523 8 10V9Z" fill="#00164E"/>
<path d="M15 8C14.4477 8 14 8.44772 14 9V10C14 10.5523 14.4477 11 15 11C15.5523 11 16 10.5523 16 10V9C16 8.44772 15.5523 8 15 8Z" fill="#00164E"/>
<path fill-rule="evenodd" clip-rule="evenodd" d="M12 12.5C10.1562 12.5 8.5 13.7617 8.5 15.5C8.5 17.2383 10.1562 18.5 12 18.5C13.8438 18.5 15.5 17.2383 15.5 15.5C15.5 13.7617 13.8438 12.5 12 12.5ZM9.5 15.5C9.5 14.4769 10.5301 13.5 12 13.5C13.4699 13.5 14.5 14.4769 14.5 15.5C14.5 16.5231 13.4699 17.5 12 17.5C10.5301 17.5 9.5 16.5231 9.5 15.5Z" fill="#00164E"/>
<path fill-rule="evenodd" clip-rule="evenodd" d="M2 12C2 6.47715 6.47715 2 12 2C17.5228 2 22 6.47715 22 12C22 17.5228 17.5228 22 12 22C6.47715 22 2 17.5228 2 12ZM12 3C7.02944 3 3 7.02944 3 12C3 16.9706 7.02944 21 12 21C16.9706 21 21 16.9706 21 12C21 7.02944 16.9706 3 12 3Z" fill="#00164E"/>
</svg>
