<svg width="24" height="24" viewBox="0 0 24 24" fill="none" xmlns="http://www.w3.org/2000/svg">
<path fill-rule="evenodd" clip-rule="evenodd" d="M15.5001 7C15.224 7 15.0001 7.22386 15.0001 7.5V10.8086L7.26512 11.7755L6.99041 10.4019C6.96359 10.2679 6.88304 10.1506 6.76749 10.0775C6.65195 10.0044 6.5115 9.98177 6.37885 10.0149L2.37885 11.0149C2.11095 11.0819 1.94807 11.3534 2.01505 11.6213L3.01505 15.6213C3.07069 15.8439 3.27068 16 3.50012 16H5.69022L6.00983 17.5981C6.05658 17.8318 6.26178 18 6.50012 18H14.0707C14.9407 18.0321 15.8082 17.8892 16.6219 17.5796C18.7639 16.8273 20.0783 15.1996 20.8636 13.7293C21.6501 12.2569 21.9319 10.8962 21.9907 10.5964C22.0217 10.439 21.9752 10.2763 21.8658 10.159C21.7563 10.0417 21.5973 9.98397 21.4381 10.0039L18.964 10.3131C18.9515 10.282 18.9355 10.2517 18.9162 10.2227L16.9162 7.2227C16.8199 7.0783 16.6616 7.00013 16.5001 7H15.5001ZM17.8661 10.4504L16.2325 8H16.0001V10.6836L17.8661 10.4504ZM5.00983 12.5981L5.49022 15H3.89051L3.10646 11.8638L6.11267 11.1123L6.27019 11.8999L5.43811 12.0039C5.30023 12.0211 5.17575 12.0949 5.0945 12.2076C5.01326 12.3204 4.98258 12.4618 5.00983 12.5981ZM6.51074 15.0036L6.91003 17H14.0801C14.0865 17 14.0929 17.0001 14.0993 17.0004C14.8402 17.0289 15.5792 16.9073 16.2718 16.6429L16.2848 16.6379C18.1089 15.9992 19.2627 14.6039 19.9816 13.2582C20.0162 13.1935 20.0497 13.129 20.0821 13.0648L6.51074 15.0036ZM6.31432 14.0215L20.5526 11.9874C20.6794 11.6476 20.7752 11.3399 20.8459 11.0857L6.09591 12.9294L6.31432 14.0215Z" fill="#00164E"/>
</svg>
