<svg width="24" height="24" viewBox="0 0 24 24" fill="none" xmlns="http://www.w3.org/2000/svg">
<path d="M14 7.87865L15 6.87865V4.52927C15 3.16936 13.3355 2.51127 12.4056 3.50351L7.28334 8.96872H5.5C4.67157 8.96872 4 9.64029 4 10.4687V14.3125C4 15.1409 4.67157 15.8125 5.5 15.8125H6.06618L7.06618 14.8125H5.5C5.22386 14.8125 5 14.5886 5 14.3125V10.4687C5 10.1926 5.22386 9.96872 5.5 9.96872H7.5C7.63823 9.96872 7.77029 9.9115 7.86482 9.81064L13.1352 4.18734C13.4452 3.8566 14 4.07596 14 4.52927V7.87865Z" fill="#00164E"/>
<path d="M15.4752 10.6461C15.5814 11.0876 15.6338 11.5422 15.63 12C15.6376 12.914 15.421 13.8153 15 14.6252V19.5667C15 20.8799 13.4321 21.5592 12.4741 20.661L8.85404 17.2672L9.56151 16.5598L13.158 19.9315C13.4774 20.2309 14 20.0045 14 19.5667V14.5106C13.9998 14.5032 13.9998 14.4959 14 14.4885V12.1213L15.4752 10.6461Z" fill="#00164E"/>
<path d="M20.3536 3.64642C20.1583 3.45115 19.8417 3.45115 19.6464 3.64642L3.64645 19.6464C3.45118 19.8417 3.45118 20.1583 3.64645 20.3535C3.84171 20.5488 4.15829 20.5488 4.35355 20.3535L20.3536 4.35352C20.5488 4.15826 20.5488 3.84168 20.3536 3.64642Z" fill="#00164E"/>
<path d="M18.1783 8.35948C18.0455 8.11738 17.7416 8.02879 17.4995 8.16162C17.2574 8.29444 17.1688 8.59837 17.3016 8.84047C17.8492 9.83865 18.1343 10.9596 18.13 12.0981V12.1019C18.1343 13.2404 17.8492 14.3613 17.3016 15.3595C17.1688 15.6016 17.2574 15.9055 17.4995 16.0383C17.7416 16.1712 18.0455 16.0826 18.1783 15.8405C18.8071 14.6943 19.1346 13.4073 19.13 12.1C19.1346 10.7927 18.8071 9.50563 18.1783 8.35948Z" fill="#00164E"/>
</svg>
