<svg width="24" height="24" viewBox="0 0 24 24" fill="none" xmlns="http://www.w3.org/2000/svg">
<path d="M14 8H13V9H14V8Z" fill="#00164E"/>
<path d="M13 6H14V7H13V6Z" fill="#00164E"/>
<path d="M16 8H15V9H16V8Z" fill="#00164E"/>
<path d="M13 10H14V11H13V10Z" fill="#00164E"/>
<path d="M16 10H15V11H16V10Z" fill="#00164E"/>
<path d="M17 10H18V11H17V10Z" fill="#00164E"/>
<path d="M18 8H17V9H18V8Z" fill="#00164E"/>
<path d="M13 12H14V13H13V12Z" fill="#00164E"/>
<path d="M16 12H15V13H16V12Z" fill="#00164E"/>
<path d="M17 12H18V13H17V12Z" fill="#00164E"/>
<path d="M14 14H13V15H14V14Z" fill="#00164E"/>
<path d="M15 14H16V15H15V14Z" fill="#00164E"/>
<path d="M18 14H17V15H18V14Z" fill="#00164E"/>
<path d="M13 16H14V17H13V16Z" fill="#00164E"/>
<path d="M16 16H15V17H16V16Z" fill="#00164E"/>
<path d="M17 16H18V17H17V16Z" fill="#00164E"/>
<path d="M14 18H13V19H14V18Z" fill="#00164E"/>
<path d="M15 18H16V19H15V18Z" fill="#00164E"/>
<path d="M18 18H17V19H18V18Z" fill="#00164E"/>
<path d="M5.5 11.5C5.5 11.2239 5.72386 11 6 11H8.5C8.77614 11 9 11.2239 9 11.5C9 11.7761 8.77614 12 8.5 12H6C5.72386 12 5.5 11.7761 5.5 11.5Z" fill="#00164E"/>
<path d="M6 13C5.72386 13 5.5 13.2239 5.5 13.5C5.5 13.7761 5.72386 14 6 14H8.5C8.77614 14 9 13.7761 9 13.5C9 13.2239 8.77614 13 8.5 13H6Z" fill="#00164E"/>
<path d="M5.5 15.5C5.5 15.2239 5.72386 15 6 15H8.5C8.77614 15 9 15.2239 9 15.5C9 15.7761 8.77614 16 8.5 16H6C5.72386 16 5.5 15.7761 5.5 15.5Z" fill="#00164E"/>
<path d="M6 17C5.72386 17 5.5 17.2239 5.5 17.5C5.5 17.7761 5.72386 18 6 18H8.5C8.77614 18 9 17.7761 9 17.5C9 17.2239 8.77614 17 8.5 17H6Z" fill="#00164E"/>
<path fill-rule="evenodd" clip-rule="evenodd" d="M11.2236 2.05279C11.0686 1.97529 10.8845 1.98357 10.7371 2.07468C10.5897 2.16578 10.5 2.32671 10.5 2.5V4.68157L3.28856 8.04691C3.11252 8.12906 3 8.30574 3 8.5V20H1.5C1.22386 20 1 20.2239 1 20.5C1 20.7761 1.22386 21 1.5 21H3.4986L3.5 21L22.5 21C22.7761 21 23 20.7761 23 20.5C23 20.2239 22.7761 20 22.5 20H20.5V7C20.5 6.81061 20.393 6.63748 20.2236 6.55279L11.2236 2.05279ZM19.5 7.30902L11.5 3.30902V20H19.5V7.30902ZM10.5 5.7851L4 8.81843V20H10.5V5.7851Z" fill="#00164E"/>
</svg>
