<svg width="24" height="24" viewBox="0 0 24 24" fill="none" xmlns="http://www.w3.org/2000/svg">
<path d="M4.5 2C3.11929 2 2 3.11929 2 4.5V19.5C2 20.8807 3.11929 22 4.5 22H11.5C12.8807 22 14 20.8807 14 19.5V17C14 16.7239 13.7761 16.5 13.5 16.5C13.2239 16.5 13 16.7239 13 17V19.5C13 20.3284 12.3284 21 11.5 21H4.5C3.67157 21 3 20.3284 3 19.5V4.5C3 3.67157 3.67157 3 4.5 3H11.5C12.3284 3 13 3.67157 13 4.5V5C13 5.27614 13.2239 5.5 13.5 5.5C13.7761 5.5 14 5.27614 14 5V4.5C14 3.11929 12.8807 2 11.5 2H4.5Z" fill="#00164E"/>
<path d="M9 12.5C9 12.2239 9.22386 12 9.5 12H11.5C11.7761 12 12 12.2239 12 12.5C12 12.7761 11.7761 13 11.5 13H9.5C9.22386 13 9 12.7761 9 12.5Z" fill="#00164E"/>
<path fill-rule="evenodd" clip-rule="evenodd" d="M20.5 6C21.3284 6 22 6.67157 22 7.5V14.5C22 15.3284 21.3284 16 20.5 16H8.5C7.67157 16 7 15.3284 7 14.5V7.5C7 6.67157 7.67157 6 8.5 6H20.5ZM8.5 7C8.22386 7 8 7.22386 8 7.5V9H21V7.5C21 7.22386 20.7761 7 20.5 7H8.5ZM20.5 15C20.7761 15 21 14.7761 21 14.5V11H8V14.5C8 14.7761 8.22386 15 8.5 15H20.5Z" fill="#00164E"/>
<path d="M8 20C8.55228 20 9 19.5523 9 19C9 18.4477 8.55228 18 8 18C7.44772 18 7 18.4477 7 19C7 19.5523 7.44772 20 8 20Z" fill="#00164E"/>
</svg>
