<svg width="24" height="24" viewBox="0 0 24 24" fill="none" xmlns="http://www.w3.org/2000/svg">
<path fill-rule="evenodd" clip-rule="evenodd" d="M7.58434 2.94478C7.61247 2.69157 7.8265 2.5 8.08128 2.5H16.0813C16.3361 2.5 16.5501 2.69157 16.5782 2.94478L17.0847 7.50306C17.3809 10.1687 15.2943 12.5 12.6122 12.5H12.5813V20H14.5813C14.8574 20 15.0813 20.2239 15.0813 20.5C15.0813 20.7761 14.8574 21 14.5813 21H9.5813C9.30516 21 9.0813 20.7761 9.0813 20.5C9.0813 20.2239 9.30516 20 9.5813 20H11.5813V12.5H11.5503C8.86829 12.5 6.78168 10.1687 7.07786 7.50306L7.58434 2.94478ZM8.5288 3.5L8.07175 7.61349C7.84138 9.68677 9.4643 11.5 11.5503 11.5H12.6122C14.6983 11.5 16.3212 9.68677 16.0908 7.61349L15.6338 3.5H8.5288Z" fill="#00164E"/>
</svg>
