<svg width="24" height="24" viewBox="0 0 24 24" fill="none" xmlns="http://www.w3.org/2000/svg">
<path d="M16 2.5C16 2.22386 16.2239 2 16.5 2H19.5C20.163 2 20.7989 2.26339 21.2678 2.73223C21.7366 3.20107 22 3.83696 22 4.5V7.5C22 7.77614 21.7761 8 21.5 8C21.2239 8 21 7.77614 21 7.5V4.5C21 4.10217 20.842 3.72064 20.5607 3.43934C20.2794 3.15804 19.8978 3 19.5 3H16.5C16.2239 3 16 2.77614 16 2.5Z" fill="#00164E"/>
<path d="M3 16.5C3 16.2239 2.77614 16 2.5 16C2.22386 16 2 16.2239 2 16.5V19.5C2 20.163 2.26339 20.7989 2.73223 21.2678C3.20107 21.7366 3.83696 22 4.5 22H7.5C7.77614 22 8 21.7761 8 21.5C8 21.2239 7.77614 21 7.5 21H4.5C4.10218 21 3.72064 20.842 3.43934 20.5607C3.15803 20.2794 3 19.8978 3 19.5V16.5Z" fill="#00164E"/>
<path d="M22 16.5C22 16.2239 21.7761 16 21.5 16C21.2239 16 21 16.2239 21 16.5V19.5C21 19.8978 20.842 20.2794 20.5607 20.5607C20.2794 20.842 19.8978 21 19.5 21H16.5C16.2239 21 16 21.2239 16 21.5C16 21.7761 16.2239 22 16.5 22H19.5C20.163 22 20.7989 21.7366 21.2678 21.2678C21.7366 20.7989 22 20.163 22 19.5V16.5Z" fill="#00164E"/>
<path d="M3.43934 3.43934C3.72064 3.15804 4.10217 3 4.5 3H7.5C7.77614 3 8 2.77614 8 2.5C8 2.22386 7.77614 2 7.5 2H4.5C3.83696 2 3.20107 2.26339 2.73223 2.73223C2.26339 3.20107 2 3.83696 2 4.5V7.5C2 7.77614 2.22386 8 2.5 8C2.77614 8 3 7.77614 3 7.5V4.5C3 4.10217 3.15803 3.72064 3.43934 3.43934Z" fill="#00164E"/>
<path fill-rule="evenodd" clip-rule="evenodd" d="M13.8571 11.3562C14.5532 10.8069 15 9.95561 15 9C15 7.34315 13.6569 6 12 6C10.3431 6 9 7.34315 9 9C9 9.95561 9.4468 10.8069 10.1429 11.3562C8.30103 12.0935 7 13.8948 7 16V16.5C7 17.3284 7.67157 18 8.5 18H15.5C16.3284 18 17 17.3284 17 16.5V16C17 13.8948 15.699 12.0935 13.8571 11.3562ZM12 7C10.8954 7 10 7.89543 10 9C10 10.1046 10.8954 11 12 11C13.1046 11 14 10.1046 14 9C14 7.89543 13.1046 7 12 7ZM12 12C9.79086 12 8 13.7909 8 16V16.5C8 16.7761 8.22386 17 8.5 17H15.5C15.7761 17 16 16.7761 16 16.5V16C16 13.7909 14.2091 12 12 12Z" fill="#00164E"/>
</svg>
