<svg width="24" height="24" viewBox="0 0 24 24" fill="none" xmlns="http://www.w3.org/2000/svg">
<path fill-rule="evenodd" clip-rule="evenodd" d="M14.1248 6.4C14.2979 6.25202 14.4508 6.0803 14.5787 5.88893C14.8534 5.4778 15 4.99445 15 4.5C15 3.83696 14.7366 3.20107 14.2678 2.73223C13.7989 2.26339 13.163 2 12.5 2C12.0055 2 11.5222 2.14662 11.1111 2.42133C10.7 2.69603 10.3795 3.08648 10.1903 3.54329C10.0011 4.00011 9.95157 4.50277 10.048 4.98773C10.1445 5.47268 10.3826 5.91814 10.7322 6.26777C10.7783 6.3138 10.826 6.3579 10.8752 6.4C10.5647 6.56274 10.2776 6.77266 10.0251 7.02513C9.36875 7.6815 9 8.57174 9 9.5C9 9.89783 9.15804 10.2794 9.43934 10.5607C9.72064 10.842 10.1022 11 10.5 11H14.5C14.8978 11 15.2794 10.842 15.5607 10.5607C15.842 10.2794 16 9.89783 16 9.5C16 8.57174 15.6313 7.6815 14.9749 7.02513C14.7224 6.77265 14.4353 6.56274 14.1248 6.4ZM13.3333 3.2528C13.0867 3.08797 12.7967 3 12.5 3C12.1022 3 11.7206 3.15804 11.4393 3.43934C11.158 3.72064 11 4.10218 11 4.5C11 4.79667 11.088 5.08668 11.2528 5.33336C11.4176 5.58003 11.6519 5.77229 11.926 5.88582C12.1093 5.96174 12.3049 6.00018 12.5014 6C12.5987 5.99991 12.6962 5.99035 12.7926 5.97118C13.0836 5.9133 13.3509 5.77044 13.5607 5.56066C13.7704 5.35088 13.9133 5.08361 13.9712 4.79264C14.0291 4.50166 13.9994 4.20006 13.8858 3.92597C13.7723 3.65189 13.58 3.41762 13.3333 3.2528ZM12.5019 7L12.5 7C11.837 7 11.2011 7.26339 10.7322 7.73223C10.2634 8.20107 10 8.83696 10 9.5C10 9.63261 10.0527 9.75978 10.1464 9.85355C10.2402 9.94732 10.3674 10 10.5 10H14.5C14.6326 10 14.7598 9.94732 14.8536 9.85355C14.9473 9.75978 15 9.63261 15 9.5C15 8.83696 14.7366 8.20107 14.2678 7.73223C13.7994 7.26383 13.1642 7.00049 12.5019 7Z" fill="#00164E"/>
<path fill-rule="evenodd" clip-rule="evenodd" d="M2.87519 17.4C2.56467 17.5627 2.2776 17.7727 2.02513 18.0251C1.36875 18.6815 1 19.5717 1 20.5C1 20.8978 1.15804 21.2794 1.43934 21.5607C1.72065 21.842 2.10218 22 2.5 22H6.5C6.89782 22 7.27935 21.842 7.56066 21.5607C7.84196 21.2794 8 20.8978 8 20.5C8 19.5717 7.63125 18.6815 6.97487 18.0251C6.7224 17.7727 6.43533 17.5627 6.1248 17.4C6.29785 17.252 6.45081 17.0803 6.57868 16.8889C6.85338 16.4778 7 15.9945 7 15.5C7 14.837 6.7366 14.2011 6.26776 13.7322C5.79892 13.2634 5.16304 13 4.5 13C4.00555 13 3.52221 13.1466 3.11108 13.4213C2.69996 13.696 2.37953 14.0865 2.19031 14.5433C2.00109 15.0001 1.95157 15.5028 2.04804 15.9877C2.1445 16.4727 2.38261 16.9181 2.73224 17.2678C2.77827 17.3138 2.82597 17.3579 2.87519 17.4ZM4.5 18C3.83696 18 3.20107 18.2634 2.73223 18.7322C2.26339 19.2011 2 19.837 2 20.5C2 20.6326 2.05268 20.7598 2.14645 20.8536C2.24021 20.9473 2.36739 21 2.5 21H6.5C6.63261 21 6.75979 20.9473 6.85355 20.8536C6.94732 20.7598 7 20.6326 7 20.5C7 19.837 6.73661 19.2011 6.26777 18.7322C5.79893 18.2634 5.16304 18 4.5 18ZM4.49914 17C4.30339 16.9999 4.10857 16.9615 3.92597 16.8858C3.65188 16.7723 3.41763 16.58 3.25281 16.3334C3.08799 16.0867 3 15.7967 3 15.5C3 15.1022 3.15803 14.7206 3.43933 14.4393C3.72064 14.158 4.10218 14 4.5 14C4.79667 14 5.08667 14.088 5.33334 14.2528C5.58002 14.4176 5.7723 14.6519 5.88583 14.926C5.99937 15.2001 6.02907 15.5017 5.97119 15.7926C5.91331 16.0836 5.77045 16.3509 5.56067 16.5607C5.35089 16.7704 5.08361 16.9133 4.79263 16.9712C4.69551 16.9905 4.59721 17.0001 4.49914 17Z" fill="#00164E"/>
<path fill-rule="evenodd" clip-rule="evenodd" d="M21.1248 17.4C21.2979 17.252 21.4508 17.0803 21.5787 16.8889C21.8534 16.4778 22 15.9945 22 15.5C22 14.837 21.7366 14.2011 21.2678 13.7322C20.7989 13.2634 20.163 13 19.5 13C19.0055 13 18.5222 13.1466 18.1111 13.4213C17.7 13.696 17.3795 14.0865 17.1903 14.5433C17.0011 15.0001 16.9516 15.5028 17.048 15.9877C17.1445 16.4727 17.3826 16.9181 17.7322 17.2678C17.7783 17.3138 17.826 17.3579 17.8752 17.4C17.5647 17.5627 17.2776 17.7727 17.0251 18.0251C16.3687 18.6815 16 19.5717 16 20.5C16 20.8978 16.158 21.2794 16.4393 21.5607C16.7206 21.842 17.1022 22 17.5 22H21.5C21.8978 22 22.2794 21.842 22.5607 21.5607C22.842 21.2794 23 20.8978 23 20.5C23 19.5717 22.6313 18.6815 21.9749 18.0251C21.7224 17.7727 21.4353 17.5627 21.1248 17.4ZM19.5 18C18.837 18 18.2011 18.2634 17.7322 18.7322C17.2634 19.2011 17 19.837 17 20.5C17 20.6326 17.0527 20.7598 17.1464 20.8536C17.2402 20.9473 17.3674 21 17.5 21H21.5C21.6326 21 21.7598 20.9473 21.8536 20.8536C21.9473 20.7598 22 20.6326 22 20.5C22 19.837 21.7366 19.2011 21.2678 18.7322C20.7989 18.2634 20.163 18 19.5 18ZM20.3333 14.2528C20.0867 14.088 19.7967 14 19.5 14C19.1022 14 18.7206 14.158 18.4393 14.4393C18.158 14.7206 18 15.1022 18 15.5C18 15.7967 18.088 16.0867 18.2528 16.3334C18.4176 16.58 18.6519 16.7723 18.926 16.8858C19.2001 16.9993 19.5017 17.0291 19.7926 16.9712C20.0836 16.9133 20.3509 16.7704 20.5607 16.5607C20.7704 16.3509 20.9133 16.0836 20.9712 15.7926C21.0291 15.5017 20.9994 15.2001 20.8858 14.926C20.7723 14.6519 20.58 14.4176 20.3333 14.2528Z" fill="#00164E"/>
<path d="M5 4.5C5 4.22386 5.22386 4 5.5 4H7.5C7.77614 4 8 4.22386 8 4.5V4.80017C8.00011 4.80634 8.00011 4.8125 8 4.81865V6.5C8 6.77614 7.77614 7 7.5 7C7.22386 7 7 6.77614 7 6.5V5.76201C6.24138 6.35504 5.59634 7.08446 5.0995 7.91542C4.44418 9.01145 4.06651 10.251 3.99932 11.5262C3.98479 11.802 3.74946 12.0137 3.4737 11.9992C3.19794 11.9847 2.98618 11.7493 3.00071 11.4736C3.07647 10.0357 3.50231 8.63808 4.24122 7.40225C4.79424 6.47732 5.51009 5.66398 6.35124 5H5.5C5.22386 5 5 4.77614 5 4.5Z" fill="#00164E"/>
<path d="M21.7236 9.0529C21.9706 9.17639 22.0707 9.47673 21.9472 9.72372L20.9505 11.717C20.9427 11.7333 20.9339 11.7492 20.9244 11.7645C20.8941 11.8133 20.8564 11.8553 20.8136 11.8897C20.7678 11.9266 20.7148 11.9559 20.6561 11.9751C20.5352 12.0148 20.3992 12.0087 20.2764 11.9473L18.2764 10.9473C18.0294 10.8238 17.9293 10.5235 18.0528 10.2765C18.1763 10.0295 18.4766 9.9294 18.7236 10.0529L19.7466 10.5644C19.0449 7.96763 18.1896 6.19994 16.2268 4.91876C15.9955 4.76782 15.9304 4.45801 16.0814 4.22676C16.2323 3.99552 16.5421 3.93042 16.7734 4.08136C18.9775 5.52008 19.934 7.50562 20.651 10.0801L21.0528 9.2765C21.1763 9.02951 21.4766 8.9294 21.7236 9.0529Z" fill="#00164E"/>
<path d="M11.2072 19L11.7636 18.4436C11.9588 18.2484 11.9588 17.9318 11.7636 17.7365C11.5683 17.5413 11.2517 17.5413 11.0564 17.7365L9.64645 19.1465C9.45118 19.3418 9.45118 19.6584 9.64645 19.8536L11.0564 21.2636C11.2517 21.4589 11.5683 21.4589 11.7636 21.2636C11.9588 21.0684 11.9588 20.7518 11.7636 20.5565L11.207 20H14C14.2761 20 14.5 19.7761 14.5 19.5C14.5 19.2239 14.2761 19 14 19H11.2072Z" fill="#00164E"/>
</svg>
