<svg width="24" height="24" viewBox="0 0 24 24" fill="none" xmlns="http://www.w3.org/2000/svg">
<path fill-rule="evenodd" clip-rule="evenodd" d="M8.50974 3.99995L8.43256 3.99979C8.00815 3.9985 7.56942 3.99717 7.18831 4.34382C7.01138 4.50475 6.8663 4.72085 6.72153 4.97063C6.57585 5.22196 6.40615 5.55172 6.19167 5.9685L6.18516 5.98116C6.18172 5.98784 6.17843 5.99461 6.17529 6.00145L4.11529 10.4914C4.10642 10.5108 4.09878 10.5307 4.09244 10.551C3.97196 10.9371 3.94111 11.3456 4.00224 11.7454C4.06336 12.1452 4.21486 12.5258 4.44521 12.8583C4.67556 13.1908 4.97869 13.4663 5.33155 13.664C5.68441 13.8617 6.0777 13.9763 6.48152 13.9992C6.49092 13.9997 6.50033 13.9999 6.50974 13.9999H11.0097V17.4899C10.9972 17.821 11.0527 18.1512 11.173 18.46C11.2946 18.7723 11.4798 19.0559 11.7168 19.2929C11.9538 19.5299 12.2374 19.7151 12.5497 19.8367C12.862 19.9583 13.1962 20.0138 13.531 19.9995C13.7382 19.9907 13.9185 19.8548 13.9841 19.6581L15.9841 13.6581C16.0011 13.6071 16.0097 13.5537 16.0097 13.4999V4.49995C16.0097 4.22381 15.7859 3.99995 15.5097 3.99995H8.50974ZM5.0384 10.8775L7.07949 6.42871C7.29922 6.00174 7.45613 5.69738 7.58671 5.47208C7.72069 5.24092 7.80311 5.1364 7.86118 5.08358C7.92691 5.02379 7.95782 4.99995 8.50974 4.99995H15.0097V13.4188L13.1575 18.9757C13.0741 18.9595 12.9922 18.9358 12.9126 18.9049C12.7294 18.8335 12.563 18.7248 12.4239 18.5858C12.2849 18.4467 12.1762 18.2803 12.1048 18.097C12.0334 17.9138 12.0009 17.7177 12.0093 17.5212C12.0096 17.5141 12.0097 17.507 12.0097 17.4999V13.4999C12.0097 13.2238 11.7859 12.9999 11.5097 12.9999H6.5248C6.27741 12.984 6.03669 12.9128 5.82032 12.7916C5.60011 12.6682 5.41094 12.4963 5.26719 12.2888C5.12344 12.0813 5.0289 11.8438 4.99075 11.5943C4.95411 11.3546 4.97042 11.11 5.0384 10.8775Z" fill="#00164E"/>
<path d="M19.8633 12.8536C19.7696 12.9473 19.6424 13 19.5098 13H17.0098V4H19.5098C19.6424 4 19.7696 4.05268 19.8633 4.14645C19.9571 4.24021 20.0098 4.36739 20.0098 4.5V12.5C20.0098 12.6326 19.9571 12.7598 19.8633 12.8536Z" fill="#00164E"/>
</svg>
