<svg width="24" height="24" viewBox="0 0 24 24" fill="none" xmlns="http://www.w3.org/2000/svg">
<path d="M5 4.5C5 3.11929 6.11929 2 7.5 2H14.5C15.8807 2 17 3.11929 17 4.5V6C17 6.27614 16.7761 6.5 16.5 6.5C16.2239 6.5 16 6.27614 16 6V4.5C16 3.67157 15.3284 3 14.5 3H7.5C6.67157 3 6 3.67157 6 4.5V19.5C6 20.3284 6.67157 21 7.5 21H14.5C15.3284 21 16 20.3284 16 19.5V19C16 18.7239 16.2239 18.5 16.5 18.5C16.7761 18.5 17 18.7239 17 19V19.5C17 20.8807 15.8807 22 14.5 22H7.5C6.11929 22 5 20.8807 5 19.5V4.5Z" fill="#00164E"/>
<path d="M11 19.5C11.5523 19.5 12 19.0523 12 18.5C12 17.9477 11.5523 17.5 11 17.5C10.4477 17.5 10 17.9477 10 18.5C10 19.0523 10.4477 19.5 11 19.5Z" fill="#00164E"/>
<path d="M18.8737 11.3322C19.0572 11.1258 19.0386 10.8098 18.8322 10.6263C18.6258 10.4428 18.3098 10.4614 18.1263 10.6678L15.8333 13.2474L14.8737 12.1678C14.6903 11.9614 14.3742 11.9428 14.1678 12.1263C13.9614 12.3098 13.9428 12.6258 14.1263 12.8322L15.4596 14.3322C15.5545 14.4389 15.6905 14.5 15.8333 14.5C15.9762 14.5 16.1122 14.4389 16.207 14.3322L18.8737 11.3322Z" fill="#00164E"/>
<path fill-rule="evenodd" clip-rule="evenodd" d="M11.5 12.5C11.5 9.73858 13.7386 7.5 16.5 7.5C19.2614 7.5 21.5 9.73858 21.5 12.5C21.5 15.2614 19.2614 17.5 16.5 17.5C13.7386 17.5 11.5 15.2614 11.5 12.5ZM16.5 8.5C14.2909 8.5 12.5 10.2909 12.5 12.5C12.5 14.7091 14.2909 16.5 16.5 16.5C18.7091 16.5 20.5 14.7091 20.5 12.5C20.5 10.2909 18.7091 8.5 16.5 8.5Z" fill="#00164E"/>
</svg>
