<svg width="24" height="24" viewBox="0 0 24 24" fill="none" xmlns="http://www.w3.org/2000/svg">
<path fill-rule="evenodd" clip-rule="evenodd" d="M12 3.5C11.5874 3.5 11.2166 3.70124 10.959 3.9589C10.7013 4.21655 10.5 4.58731 10.5 4.99993C10.5 5.26167 10.6206 5.51511 10.7173 5.69248C10.8218 5.88398 10.957 6.0869 11.077 6.26683L11.084 6.27728C11.2123 6.46978 11.3238 6.6377 11.4048 6.78623L11.4183 6.8113L10.1454 7.76596L9.94185 7.76596C9.83046 7.55554 9.58541 7.45236 9.35633 7.52109L4.35633 9.02109C4.2268 9.05995 4.11853 9.14962 4.05623 9.26965C3.99392 9.38967 3.98289 9.52982 4.02566 9.65811L5.02566 12.6581C5.09372 12.8623 5.28479 13 5.5 13H7V20C7 20.2761 7.22386 20.5 7.5 20.5H16.5C16.7761 20.5 17 20.2761 17 20V13H18.5C18.7152 13 18.9063 12.8623 18.9743 12.6581L19.9743 9.65811C20.0171 9.52982 20.0061 9.38967 19.9438 9.26965C19.8815 9.14962 19.7732 9.05995 19.6437 9.02109L14.6437 7.52109C14.4146 7.45236 14.1695 7.55554 14.0582 7.76595L13.8546 7.76595L12.4586 6.71891C12.4149 6.56269 12.344 6.41976 12.2827 6.30738C12.1782 6.11588 12.043 5.91296 11.923 5.73303L11.916 5.72258C11.7877 5.53008 11.6762 5.36216 11.5952 5.21363C11.5239 5.08284 11.5059 5.01837 11.5014 5.00247C11.5002 4.99815 11.5 4.99742 11.5 4.99993C11.5 4.91255 11.5487 4.78334 11.666 4.66604C11.7834 4.54873 11.9126 4.5 12 4.5C12.2838 4.5 12.3735 4.58401 12.4075 4.62616C12.4579 4.68868 12.5 4.80697 12.5 5C12.5 5.27614 12.7239 5.5 13 5.5C13.2761 5.5 13.5 5.27614 13.5 5C13.5 4.69303 13.438 4.31132 13.1863 3.99884C12.9181 3.66599 12.5079 3.5 12 3.5ZM14.0524 7.77504L14.0535 7.77504L14.0541 7.77377L14.0553 7.77149L14.0571 7.76794L14.0589 7.76472L14.0582 7.76595L14.054 7.77259L14.0524 7.77504ZM14.0524 7.77504C14.0447 7.78684 14.0299 7.80814 14.0065 7.83616C13.9996 7.84441 13.992 7.85328 13.9836 7.86267L13.8662 7.77463L14.0524 7.77504ZM9.94185 7.76596L10.1454 7.76596L10.0164 7.86267C10.0149 7.86091 10.0133 7.85917 10.0118 7.85744C10.0052 7.84997 9.99908 7.84287 9.99349 7.83616C9.96842 7.80608 9.95315 7.78375 9.94598 7.77259L9.94185 7.76596ZM12 7.625L12.1879 7.76596L11.8121 7.76596L12 7.625ZM12.1946 7.77094L11.8066 7.77008L10.9861 8.38543C11.254 8.45368 11.5875 8.5 12 8.5C12.4125 8.5 12.746 8.45368 13.0139 8.38543L12.1946 7.77094ZM9.73338 8.92314C9.72613 8.91858 9.71899 8.91381 9.71195 8.90885C9.54417 8.79584 9.41419 8.68071 9.31551 8.57736L5.13732 9.83082L5.86038 12H7.5C7.77614 12 8 12.2239 8 12.5V19.5H16V12.5C16 12.2239 16.2239 12 16.5 12H18.1396L18.8627 9.83082L14.6845 8.57736C14.5858 8.68072 14.4558 8.79585 14.288 8.90887C14.281 8.91382 14.2739 8.91857 14.2666 8.92313C13.8003 9.23085 13.0792 9.5 12 9.5C10.9208 9.5 10.1997 9.23085 9.73338 8.92314Z" fill="#00164E"/>
</svg>
