<svg width="24" height="24" viewBox="0 0 24 24" fill="none" xmlns="http://www.w3.org/2000/svg">
<path d="M9 10C9 10.5523 8.55228 11 8 11C7.44772 11 7 10.5523 7 10C7 9.44772 7.44772 9 8 9C8.55228 9 9 9.44772 9 10Z" fill="#00164E"/>
<path d="M12 11C12.5523 11 13 10.5523 13 10C13 9.44772 12.5523 9 12 9C11.4477 9 11 9.44772 11 10C11 10.5523 11.4477 11 12 11Z" fill="#00164E"/>
<path d="M16 11C16.5523 11 17 10.5523 17 10C17 9.44772 16.5523 9 16 9C15.4477 9 15 9.44772 15 10C15 10.5523 15.4477 11 16 11Z" fill="#00164E"/>
<path d="M17.5 14.5C17.7761 14.5 18 14.7239 18 15V16.5C18 16.7761 17.7761 17 17.5 17C17.2239 17 17 16.7761 17 16.5V15C17 14.7239 17.2239 14.5 17.5 14.5Z" fill="#00164E"/>
<path d="M17.5 18.5C17.7761 18.5 18 18.2761 18 18C18 17.7239 17.7761 17.5 17.5 17.5C17.2239 17.5 17 17.7239 17 18C17 18.2761 17.2239 18.5 17.5 18.5Z" fill="#00164E"/>
<path fill-rule="evenodd" clip-rule="evenodd" d="M2 10C2 12.9731 4.16208 15.4407 7 15.917V17.5C7 17.6659 7.0823 17.821 7.21969 17.914C7.35707 18.0071 7.53165 18.0259 7.6857 17.9642L12.5963 16H13.0007C12.9816 17.2374 13.3343 18.457 14.0194 19.4951C14.8087 20.6909 15.9895 21.5703 17.3568 21.9791C17.4502 22.007 17.5498 22.007 17.6432 21.9791C19.0105 21.5703 20.1913 20.6909 20.9806 19.4951C21.7693 18.3001 22.1174 16.8645 21.965 15.4381L21.7069 12.7925C21.6921 12.6407 21.6098 12.5082 21.489 12.4266C21.8175 11.6847 22 10.8636 22 10C22 6.68629 19.3137 4 16 4H8C4.68629 4 2 6.68629 2 10ZM20.484 12.2147C20.8143 11.5472 21 10.7953 21 10C21 7.23858 18.7614 5 16 5H8C5.23858 5 3 7.23858 3 10C3 12.6079 4.997 14.75 7.54488 14.9796C7.80875 15.0034 8.00619 15.2281 7.99988 15.4892L8 15.5V16.7615L12.3034 15.0401C12.3367 15.0259 12.3719 15.0151 12.4085 15.0084C12.4427 15.002 12.4769 14.9992 12.5109 15H13.0778L13.2931 12.7925C13.3147 12.5708 13.4804 12.3901 13.6995 12.3494C15.9406 11.9339 18.232 11.889 20.484 12.2147ZM14.0301 15.5375L14.2514 13.2677C16.4027 12.9108 18.5973 12.9108 20.7486 13.2677L20.9699 15.5375L20.9704 15.5423C21.0988 16.7391 20.8068 17.943 20.146 18.9442C19.513 19.9032 18.5804 20.6175 17.5 20.9758C16.4196 20.6175 15.487 19.9032 14.854 18.9442C14.1932 17.943 13.9012 16.7391 14.0296 15.5423L14.0301 15.5375Z" fill="#00164E"/>
</svg>
