<svg width="24" height="24" viewBox="0 0 24 24" fill="none" xmlns="http://www.w3.org/2000/svg">
<path d="M12.5 10C13.3284 10 14 9.32843 14 8.5C14 7.67157 13.3284 7 12.5 7C11.6716 7 11 7.67157 11 8.5C11 9.32843 11.6716 10 12.5 10Z" fill="#00164E"/>
<path d="M9.5 12C9.22386 12 9 12.2239 9 12.5C9 12.7761 9.22386 13 9.5 13H15.5C15.7761 13 16 12.7761 16 12.5C16 12.2239 15.7761 12 15.5 12H9.5Z" fill="#00164E"/>
<path d="M10 14.5C10 14.2239 10.2239 14 10.5 14H14.5C14.7761 14 15 14.2239 15 14.5C15 14.7761 14.7761 15 14.5 15H10.5C10.2239 15 10 14.7761 10 14.5Z" fill="#00164E"/>
<path fill-rule="evenodd" clip-rule="evenodd" d="M7.72888 5.5C8.3661 3.47158 10.2606 2 12.4998 2C14.7391 2 16.6336 3.47158 17.2708 5.5H17.9259C18.7964 5.5 19.4841 6.23857 19.422 7.10687L18.5725 19H19.5C20.3284 19 21 19.6716 21 20.5V21.5C21 21.7761 20.7761 22 20.5 22H4.5C4.22386 22 4 21.7761 4 21.5V20.5C4 19.6716 4.67157 19 5.5 19H6.42713L5.57762 7.10687C5.5156 6.23857 6.20329 5.5 7.07381 5.5H7.72888ZM18.4246 7.03562L17.57 19H7.42968L6.57508 7.03562C6.5544 6.74619 6.78364 6.5 7.07381 6.5H8.51059L8.59894 6.11064C9.00313 4.3294 10.5968 3 12.4998 3C14.4028 3 15.9965 4.3294 16.4007 6.11064L16.4891 6.5H17.9259C18.216 6.5 18.4453 6.74619 18.4246 7.03562ZM5.5 20C5.22386 20 5 20.2239 5 20.5V21H20V20.5C20 20.2239 19.7761 20 19.5 20H5.5Z" fill="#00164E"/>
</svg>
