<svg width="24" height="24" viewBox="0 0 24 24" fill="none" xmlns="http://www.w3.org/2000/svg">
<path fill-rule="evenodd" clip-rule="evenodd" d="M5.01157 4.53988C4.9087 3.2542 5.88284 2 7.49995 2C8.37288 2 9.05346 2.29525 9.56651 2.7513C10.0692 3.19816 10.3883 3.77826 10.5931 4.32444C10.7987 4.87269 10.8993 5.41382 10.9492 5.81298C10.9575 5.87905 10.9644 5.94158 10.9702 6H11.0204C11.1778 4.12761 12.2226 3.08662 13.4022 2.85136C14.0168 2.72878 14.6526 2.83464 15.1483 3.15823C15.6556 3.48936 16 4.0416 16 4.74003C16 5.25698 15.83 5.67554 15.5621 6H17.5C18.3284 6 19 6.67157 19 7.5V11.5C19 11.7761 18.7761 12 18.5 12H18V13.0277C18.9798 13.1366 19.9306 13.5667 20.6819 14.318C22.4393 16.0754 22.4393 18.9246 20.6819 20.682C18.9246 22.4393 16.0753 22.4393 14.318 20.682C14.1053 20.4693 13.9184 20.2407 13.7572 20H5.5C4.67157 20 4 19.3284 4 18.5V12H3.5C3.22386 12 3 11.7761 3 11.5V7.5C3 6.67157 3.67157 6 4.5 6H5.67711C5.27308 5.57821 5.05345 5.06341 5.01157 4.53988ZM14.318 14.318C13.0519 15.5841 12.6979 17.417 13.2562 19H12V12H17V13.0277C16.0202 13.1366 15.0693 13.5667 14.318 14.318ZM9.95694 5.93702C9.95962 5.95847 9.96214 5.97948 9.96449 6H8.49995C7.58136 6 6.96951 5.77075 6.58983 5.47869C6.21327 5.18903 6.03701 4.81801 6.00838 4.46012C5.95123 3.7458 6.47707 3 7.49995 3C8.12703 3 8.57145 3.20475 8.90215 3.4987C9.24317 3.80184 9.48661 4.22174 9.65679 4.67556C9.82619 5.12731 9.91308 5.58618 9.95694 5.93702ZM12.0242 6C12.17 4.55378 12.9486 3.96152 13.5978 3.83205C13.9832 3.75519 14.3474 3.82961 14.6017 3.99561C14.8444 4.15405 15 4.40069 15 4.74003C15 5.04754 14.896 5.25571 14.7463 5.41373C14.5858 5.58327 14.3534 5.71356 14.084 5.80839C13.8176 5.90215 13.5441 5.95108 13.3324 5.97593C13.2278 5.9882 13.1413 5.99425 13.0823 5.99722C13.0529 5.9987 13.0305 5.9994 13.0163 5.99973L13.0017 6H12.0242ZM18 7.5C18 7.22386 17.7761 7 17.5 7H12V11H18V7.5ZM4.5 7C4.22386 7 4 7.22386 4 7.5V11H10V7H4.5ZM5.5 19C5.22386 19 5 18.7761 5 18.5V12H10V19H5.5ZM14.6966 19.5963L19.5962 14.6966C18.2253 13.6688 16.2719 13.7783 15.0251 15.0251C13.7783 16.2719 13.6688 18.2253 14.6966 19.5963ZM20.3033 15.4037L15.4037 20.3034C16.7746 21.3312 18.728 21.2217 19.9748 19.9749C21.2216 18.7281 21.3311 16.7747 20.3033 15.4037Z" fill="#00164E"/>
</svg>
