<svg width="24" height="24" viewBox="0 0 24 24" fill="none" xmlns="http://www.w3.org/2000/svg">
<path d="M6.50259 1.76064C6.46759 1.45674 6.68557 1.182 6.98947 1.147C7.29338 1.112 7.56811 1.32999 7.60312 1.63389L7.75803 2.97898C7.79304 3.28288 7.57505 3.55762 7.27115 3.59262C6.96724 3.62762 6.69251 3.40963 6.65751 3.10573L6.50259 1.76064Z" fill="#00164E"/>
<path d="M5.38776 7.75025C5.38776 6.44555 6.44543 5.38788 7.75013 5.38788C8.94116 5.38788 9.92716 6.26982 10.0891 7.41609C10.1319 7.71899 10.4122 7.92985 10.7151 7.88705C11.018 7.84426 11.2288 7.56401 11.186 7.26111C10.9479 5.57602 9.50085 4.28008 7.75013 4.28008C5.8336 4.28008 4.27996 5.83373 4.27996 7.75025C4.27996 8.58829 4.57773 9.35826 5.07268 9.95795C5.26741 10.1939 5.61652 10.2273 5.85245 10.0326C6.08839 9.83783 6.12179 9.48872 5.92706 9.25279C5.58988 8.84424 5.38776 8.32159 5.38776 7.75025Z" fill="#00164E"/>
<path d="M14.3531 6.9896C14.3181 6.6857 14.0434 6.46771 13.7395 6.50271L12.3944 6.65763C12.0905 6.69263 11.8725 6.96737 11.9075 7.27127C11.9425 7.57517 12.2172 7.79316 12.5211 7.75816L13.8662 7.60324C14.1701 7.56824 14.3881 7.2935 14.3531 6.9896Z" fill="#00164E"/>
<path d="M2.97873 7.74197C3.28264 7.70697 3.55737 7.92496 3.59237 8.22886C3.62737 8.53276 3.40939 8.8075 3.10549 8.8425L1.7604 8.99742C1.45649 9.03242 1.18176 8.81443 1.14676 8.51053C1.11175 8.20663 1.32974 7.93189 1.63364 7.89689L2.97873 7.74197Z" fill="#00164E"/>
<path d="M2.53478 3.62872C2.3451 3.86873 2.3859 4.21706 2.62591 4.40674L3.72905 5.27856C3.96906 5.46824 4.31739 5.42744 4.50707 5.18744C4.69675 4.94743 4.65595 4.5991 4.41594 4.40942L3.3128 3.5376C3.07279 3.34791 2.72446 3.38871 2.53478 3.62872Z" fill="#00164E"/>
<path d="M11.0931 2.62652C11.2828 2.38652 11.6311 2.34572 11.8712 2.5354C12.1112 2.72508 12.152 3.07341 11.9623 3.31341L11.0905 4.41656C10.9008 4.65656 10.5524 4.69736 10.3124 4.50768C10.0724 4.318 10.0316 3.96967 10.2213 3.72966L11.0931 2.62652Z" fill="#00164E"/>
<path d="M5.18731 10.9924C4.94731 10.8027 4.59898 10.8435 4.4093 11.0836L3.53747 12.1867C3.34779 12.4267 3.38859 12.775 3.6286 12.9647C3.8686 13.1544 4.21693 13.1136 4.40661 12.8736L5.27844 11.7704C5.46812 11.5304 5.42732 11.1821 5.18731 10.9924Z" fill="#00164E"/>
<path fill-rule="evenodd" clip-rule="evenodd" d="M7.7368 8.35304C7.01151 8.35304 6.40421 8.90264 6.33204 9.62433L5.60263 16.9184C5.51952 17.7495 6.17216 18.4707 7.00739 18.4707H13.5008C13.5003 18.4786 13.5 18.4865 13.4999 18.4945L13.4999 18.5V20H11.4999C11.2238 20 10.9999 20.2239 10.9999 20.5C10.9999 20.7762 11.2238 21 11.4999 21H16.4999C16.7761 21 16.9999 20.7762 16.9999 20.5C16.9999 20.2239 16.7761 20 16.4999 20H14.4999V18.5L14.4999 18.4945C14.4998 18.4865 14.4995 18.4786 14.4991 18.4707H20.4924C21.3276 18.4707 21.9803 17.7495 21.8972 16.9184L21.1678 9.62433C21.0956 8.90264 20.4883 8.35304 19.763 8.35304H7.7368ZM16.3274 17.4707L16.2156 15.2354H11.2845L11.1728 17.4707H16.3274ZM16.1656 14.2354L16.0789 12.5H11.4213L11.3345 14.2354H16.1656ZM10.42 12.5L10.3333 14.2354H6.95572C6.92834 14.2354 6.90147 14.2376 6.87528 14.2418L7.04946 12.5H10.42ZM16.0289 11.5L15.9215 9.35304H11.5786L11.4713 11.5H16.0289ZM10.5774 9.35304L10.47 11.5H7.14946L7.32708 9.72384C7.34813 9.51334 7.52526 9.35304 7.7368 9.35304H10.5774ZM10.2833 15.2354L10.1715 17.4707H7.00739C6.76378 17.4707 6.57343 17.2604 6.59767 17.018L6.77914 15.2033C6.83404 15.224 6.89355 15.2354 6.95572 15.2354H10.2833ZM17.3286 17.4707L17.2169 15.2354H20.544C20.6062 15.2354 20.6657 15.224 20.7207 15.2032L20.9021 17.018C20.9264 17.2604 20.736 17.4707 20.4924 17.4707H17.3286ZM17.1669 14.2354L17.0801 12.5H20.4503L20.6245 14.2418C20.5983 14.2376 20.5714 14.2354 20.544 14.2354H17.1669ZM17.0301 11.5L16.9228 9.35304H19.763C19.9745 9.35304 20.1517 9.51334 20.1727 9.72383L20.3503 11.5H17.0301Z" fill="#00164E"/>
</svg>
