<svg width="24" height="24" viewBox="0 0 24 24" fill="none" xmlns="http://www.w3.org/2000/svg">
<path d="M6.87037 3.23854C6.60363 3.31001 6.44534 3.58418 6.51681 3.85091L6.90504 5.2998C6.97651 5.56653 7.25068 5.72482 7.51742 5.65335C7.78415 5.58188 7.94244 5.30771 7.87097 5.04098L7.48274 3.59209C7.41127 3.32536 7.1371 3.16706 6.87037 3.23854Z" fill="#00164E"/>
<path d="M8.00993 7.0771C6.40953 7.50592 5.45978 9.15093 5.88861 10.7513C5.93864 10.938 6.00504 11.1155 6.08573 11.2827C6.20576 11.5314 6.10146 11.8303 5.85277 11.9503C5.60408 12.0703 5.30517 11.966 5.18514 11.7173C5.07735 11.494 4.98901 11.2577 4.92268 11.0102C4.35091 8.87629 5.61724 6.68294 7.75111 6.11117C8.80114 5.82982 9.86658 5.99396 10.7446 6.48697C10.9854 6.62217 11.071 6.92697 10.9357 7.16775C10.8005 7.40853 10.4958 7.49412 10.255 7.35891C9.5954 6.98855 8.79775 6.866 8.00993 7.0771Z" fill="#00164E"/>
<path d="M4.58285 11.2706C4.51138 11.0039 4.23722 10.8456 3.97048 10.917L2.52159 11.3053C2.25486 11.3767 2.09657 11.6509 2.16804 11.9176C2.23951 12.1844 2.51368 12.3427 2.78041 12.2712L4.2293 11.883C4.49603 11.8115 4.65433 11.5373 4.58285 11.2706Z" fill="#00164E"/>
<path d="M2.76633 6.45085C2.62872 6.69026 2.71125 6.9959 2.95066 7.13351L4.25114 7.88101C4.49055 8.01862 4.79619 7.93609 4.9338 7.69668C5.07141 7.45727 4.98888 7.15163 4.74947 7.01402L3.44899 6.26652C3.20958 6.12891 2.90394 6.21144 2.76633 6.45085Z" fill="#00164E"/>
<path d="M12.4883 3.93107C12.2488 3.79346 11.9432 3.87599 11.8056 4.1154L11.0581 5.41588C10.9205 5.65529 11.003 5.96093 11.2424 6.09854C11.4818 6.23615 11.7875 6.15362 11.9251 5.91421L12.6726 4.61373C12.8102 4.37432 12.7277 4.06868 12.4883 3.93107Z" fill="#00164E"/>
<path fill-rule="evenodd" clip-rule="evenodd" d="M9.4948 8.68639C10.4136 7.90862 11.6589 7.5 12.9998 7.5C14.3408 7.5 15.5861 7.90862 16.5049 8.68639C17.4316 9.47088 17.9998 10.6105 17.9998 12H18.4998C20.4328 12 21.9998 13.567 21.9998 15.5C21.9998 17.433 20.4328 19 18.4998 19H7.49983C5.56684 19 3.99983 17.433 3.99983 15.5C3.99983 13.567 5.56684 12 7.49983 12H7.99983C7.99983 10.6105 8.56806 9.47088 9.4948 8.68639ZM10.1409 9.44965C9.43896 10.0438 8.99983 10.9042 8.99983 12C8.99983 12.1506 9.00813 12.2991 9.02427 12.4451L9.08561 13H7.49983C6.11912 13 4.99983 14.1193 4.99983 15.5C4.99983 16.8807 6.11912 18 7.49983 18H18.4998C19.8805 18 20.9998 16.8807 20.9998 15.5C20.9998 14.1193 19.8805 13 18.4998 13H16.9141L16.9754 12.4451C16.9915 12.2991 16.9998 12.1506 16.9998 12C16.9998 10.9042 16.5607 10.0438 15.8588 9.44965C15.1489 8.84874 14.1442 8.5 12.9998 8.5C11.8555 8.5 10.8508 8.84874 10.1409 9.44965Z" fill="#00164E"/>
</svg>
