<svg width="24" height="24" viewBox="0 0 24 24" fill="none" xmlns="http://www.w3.org/2000/svg">
<path d="M9 16.7354C9 16.4703 9.22386 16.2554 9.5 16.2554H16.5C16.7761 16.2554 17 16.4703 17 16.7354C17 17.0005 16.7761 17.2154 16.5 17.2154H9.5C9.22386 17.2154 9 17.0005 9 16.7354Z" fill="#00164E"/>
<path fill-rule="evenodd" clip-rule="evenodd" d="M14.7063 8.95409C15.1649 9.16316 15.5825 9.47107 15.9325 9.8611C16.6224 10.6299 17 11.6591 17 12.72V12.9C17 13.2766 16.8664 13.6496 16.6107 13.9345C16.353 14.2217 15.9861 14.4 15.5846 14.4H10.4154C10.0139 14.4 9.647 14.2217 9.38931 13.9345C9.13361 13.6496 9 13.2766 9 12.9V12.72C9 11.6591 9.37755 10.6299 10.0675 9.8611C10.4175 9.47107 10.8351 9.16316 11.2937 8.95409C10.8053 8.51606 10.5 7.89225 10.5 7.19998C10.5 5.8745 11.6193 4.79998 13 4.79998C14.3807 4.79998 15.5 5.8745 15.5 7.19998C15.5 7.89225 15.1947 8.51606 14.7063 8.95409ZM12.7308 9.59998C12.0326 9.59998 11.3449 9.90843 10.8251 10.4877C10.3032 11.0692 10 11.8713 10 12.72V12.9C10 13.0644 10.0593 13.2103 10.1469 13.3079C10.2326 13.4034 10.3313 13.44 10.4154 13.44H15.5846C15.6687 13.44 15.7674 13.4034 15.8531 13.3079C15.9407 13.2103 16 13.0644 16 12.9V12.72C16 11.8713 15.6968 11.0692 15.1749 10.4877C14.6551 9.90843 13.9674 9.59998 13.2692 9.59998H12.7308ZM13 8.63998C12.1716 8.63998 11.5 7.99527 11.5 7.19998C11.5 6.40469 12.1716 5.75998 13 5.75998C13.8284 5.75998 14.5 6.40469 14.5 7.19998C14.5 7.99527 13.8284 8.63998 13 8.63998Z" fill="#00164E"/>
<path fill-rule="evenodd" clip-rule="evenodd" d="M4.5 1.91998C4.22386 1.91998 4 2.13489 4 2.39998V20.64C4 20.9051 4.22386 21.12 4.5 21.12H17.5C18.8807 21.12 20 20.0455 20 18.72V4.31998C20 2.9945 18.8807 1.91998 17.5 1.91998H4.5ZM19 4.31998C19 3.52469 18.3284 2.87998 17.5 2.87998H7.5V20.16H17.5C18.3284 20.16 19 19.5153 19 18.72V4.31998ZM5 20.16V2.87998H6.5V20.16H5Z" fill="#00164E"/>
</svg>
