<svg width="24" height="24" viewBox="0 0 24 24" fill="none" xmlns="http://www.w3.org/2000/svg">
<path d="M9.66252 12.2161C9.42918 11.9101 9.21232 11.5915 9.01295 11.2618L9.80816 10.6386L9.81274 10.635C10.2145 10.3125 10.4939 9.86229 10.6049 9.35953C10.716 8.85662 10.6519 8.33095 10.4234 7.86943L10.4192 7.86126L8.70297 4.54922L8.70148 4.54637C8.55643 4.27081 8.3552 4.02807 8.11047 3.83459C7.86576 3.64111 7.58344 3.50146 7.28184 3.42391C6.98007 3.34631 6.66529 3.33264 6.35777 3.38403C6.06136 3.43357 5.77769 3.54221 5.52395 3.70426L4.14671 4.38938C4.12753 4.39892 4.10899 4.40968 4.09119 4.4216C3.6851 4.69354 3.35762 5.06745 3.14145 5.50563C2.92603 5.9423 2.82862 6.42764 2.85892 6.9136C2.89038 7.61842 2.98382 8.31893 3.13816 9.00735C3.14106 9.02029 3.14448 9.03311 3.1484 9.04578C3.86009 11.3456 5.02722 13.4731 6.57478 15.3038L7.28451 14.5941C5.85458 12.8854 4.77373 10.9063 4.10962 8.76924C3.97037 8.14286 3.88609 7.50568 3.85774 6.86463L3.8572 6.85468C3.8371 6.54182 3.89953 6.22925 4.03826 5.94805C4.17254 5.67585 4.37372 5.44237 4.62267 5.26951L5.99479 4.58694C6.01289 4.57794 6.03043 4.56784 6.04731 4.55671C6.19063 4.46222 6.35247 4.39879 6.52262 4.37035C6.69225 4.342 6.86604 4.34952 7.03279 4.3924C7.19972 4.43532 7.35551 4.51249 7.49029 4.61904C7.62467 4.72528 7.73565 4.85885 7.81589 5.01083L9.52907 8.31694C9.65498 8.57335 9.69003 8.86491 9.62843 9.14391C9.56668 9.42354 9.41157 9.67392 9.18888 9.85345L8.05449 10.7424C7.8614 10.8937 7.8066 11.1627 7.9251 11.3775C8.22538 11.9217 8.56806 12.4404 8.94958 12.929L9.66252 12.2161Z" fill="#00164E"/>
<path d="M9.40669 16.7145C11.1234 18.1488 13.1121 19.2307 15.2593 19.8923C15.8811 20.0295 16.5134 20.1138 17.1493 20.1441L17.2837 20.1441C17.5787 20.1432 17.8692 20.0693 18.1279 19.9288C18.3779 19.793 18.5917 19.5991 18.7513 19.3638L19.4173 17.9708C19.4255 17.9536 19.4348 17.9368 19.4449 17.9207C19.5345 17.778 19.5938 17.6188 19.6193 17.4525C19.6448 17.2861 19.636 17.1164 19.5934 16.9536C19.5507 16.7905 19.4751 16.6377 19.3714 16.5054C19.2964 16.4095 19.2076 16.3255 19.1082 16.2559C19.0711 16.2466 19.0348 16.2331 19.0001 16.2152L15.6683 14.5004L15.6672 14.4998C15.4118 14.3704 15.1197 14.3333 14.8407 14.395C14.5615 14.4566 14.3119 14.6135 14.1347 14.8387L13.2439 15.9755C13.0919 16.1694 12.8214 16.2237 12.6063 16.1035C12.062 15.7993 11.5442 15.4511 11.0581 15.0631L11.7701 14.3511C12.0759 14.5899 12.3951 14.8115 12.7262 15.0149L13.3477 14.2218C13.6675 13.8149 14.1192 13.5302 14.6251 13.4185C15.131 13.3068 15.6597 13.3744 16.1212 13.6088L16.1236 13.61L19.31 15.25C19.3645 15.259 19.4179 15.277 19.4678 15.3042C19.7355 15.4498 19.9707 15.6487 20.1588 15.8889C20.3469 16.1292 20.4837 16.4056 20.5608 16.7004C20.638 16.9953 20.654 17.3028 20.6077 17.6042C20.563 17.8956 20.461 18.1749 20.3079 18.4264L19.6383 19.8269C19.6287 19.8469 19.6179 19.8661 19.6058 19.8846C19.354 20.2703 19.0102 20.5876 18.6052 20.8075C18.2001 21.0276 17.7468 21.1428 17.2865 21.1441L17.2851 21.1441H17.1375C17.1351 21.1441 17.1327 21.1441 17.1302 21.144C17.1249 21.144 17.1195 21.1438 17.1142 21.1436C16.4104 21.1107 15.7107 21.0172 15.023 20.8642C15.0102 20.8614 14.9974 20.858 14.9849 20.8541C12.6742 20.1451 10.5362 18.9767 8.69691 17.4243L9.40669 16.7145Z" fill="#00164E"/>
<path d="M19.6464 3.64642C19.8416 3.45115 20.1582 3.45115 20.3535 3.64642C20.5488 3.84168 20.5488 4.15826 20.3535 4.35352L4.35349 20.3535C4.15823 20.5488 3.84165 20.5488 3.64639 20.3535C3.45112 20.1583 3.45112 19.8417 3.64639 19.6464L19.6464 3.64642Z" fill="#00164E"/>
</svg>
