<svg width="24" height="24" viewBox="0 0 24 24" fill="none" xmlns="http://www.w3.org/2000/svg">
<path d="M4 4C4 2.61929 5.11929 1.5 6.5 1.5H13.5C14.8807 1.5 16 2.61929 16 4V4.5C16 4.77614 15.7761 5 15.5 5C15.2239 5 15 4.77614 15 4.5V4C15 3.17157 14.3284 2.5 13.5 2.5H6.5C5.67157 2.5 5 3.17157 5 4V19C5 19.8284 5.67157 20.5 6.5 20.5H13.5C14.3284 20.5 15 19.8284 15 19V16.5C15 16.2239 15.2239 16 15.5 16C15.7761 16 16 16.2239 16 16.5V19C16 20.3807 14.8807 21.5 13.5 21.5H6.5C5.11929 21.5 4 20.3807 4 19V4Z" fill="#00164E"/>
<path d="M10 19.5C10.5523 19.5 11 19.0523 11 18.5C11 17.9477 10.5523 17.5 10 17.5C9.44772 17.5 9 17.9477 9 18.5C9 19.0523 9.44772 19.5 10 19.5Z" fill="#00164E"/>
<path fill-rule="evenodd" clip-rule="evenodd" d="M7 7C7 6.17157 7.67157 5.5 8.5 5.5H20.5C21.3284 5.5 22 6.17157 22 7V14C22 14.8284 21.3284 15.5 20.5 15.5H8.5C7.67157 15.5 7 14.8284 7 14V7ZM13 8.5C12.4477 8.5 12 8.94772 12 9.5C12 10.0523 12.4477 10.5 13 10.5C13.5523 10.5 14 10.0523 14 9.5C14 8.94772 13.5523 8.5 13 8.5ZM20.5 14.5C20.7761 14.5 21 14.2761 21 14V10.5H17.7324C17.3866 11.0978 16.7403 11.5 16 11.5C15.9637 11.5 15.9276 11.499 15.8918 11.4971C16.2072 11.8761 16.5164 12.1081 16.772 12.2513C17.0042 12.3815 17.2011 12.4435 17.3327 12.4732C17.3986 12.488 17.4481 12.4947 17.4775 12.4977C17.4921 12.4992 17.5017 12.4998 17.5056 12.5L17.5068 12.5C17.7798 12.5037 18 12.7261 18 13C18 13.2761 17.7762 13.5 17.5 13.5L17.4985 13.5L17.4968 13.5L17.4929 13.5L17.4832 13.4998C17.4759 13.4996 17.467 13.4993 17.4566 13.4988C17.4357 13.4978 17.4084 13.4959 17.3755 13.4925C17.3095 13.4858 17.2205 13.4729 17.113 13.4487C16.8976 13.4002 16.6084 13.306 16.283 13.1237C15.877 12.8961 15.4279 12.5386 15 11.9829V14.5H20.5ZM21 7C21 6.72386 20.7761 6.5 20.5 6.5H15V7.76756C15.2942 7.59739 15.6357 7.5 16 7.5C17.1046 7.5 18 8.39543 18 9.5H21V7ZM13 7.5C13.3643 7.5 13.7058 7.59739 14 7.76756V6.5H8.5C8.22386 6.5 8 6.72386 8 7V9.5H11C11 8.39543 11.8954 7.5 13 7.5ZM12.717 13.1237C13.123 12.8961 13.5721 12.5386 14 11.9829V14.5H8.5C8.22386 14.5 8 14.2761 8 14V10.5H11.2676C11.6134 11.0978 12.2597 11.5 13 11.5C13.0363 11.5 13.0724 11.499 13.1082 11.4971C13.0586 11.5567 13.0091 11.6127 12.96 11.6653C12.6968 11.9469 12.4434 12.1306 12.228 12.2513C11.9959 12.3815 11.7989 12.4435 11.6673 12.4732C11.6014 12.488 11.5519 12.4947 11.5226 12.4977C11.5079 12.4992 11.4984 12.4998 11.4944 12.5L11.4932 12.5C11.2202 12.5037 11 12.7261 11 13C11 13.2761 11.2239 13.5 11.5 13.5L11.502 13.5L11.5033 13.5L11.5072 13.5L11.5168 13.4998C11.5241 13.4996 11.533 13.4993 11.5434 13.4988C11.5644 13.4978 11.5916 13.4959 11.6246 13.4925C11.6905 13.4858 11.7795 13.4729 11.887 13.4487C12.1024 13.4002 12.3916 13.306 12.717 13.1237ZM16 8.5C15.4477 8.5 15 8.94772 15 9.5C15 10.0523 15.4477 10.5 16 10.5C16.5523 10.5 17 10.0523 17 9.5C17 8.94772 16.5523 8.5 16 8.5Z" fill="#00164E"/>
</svg>
