<svg width="24" height="24" viewBox="0 0 24 24" fill="none" xmlns="http://www.w3.org/2000/svg">
<path fill-rule="evenodd" clip-rule="evenodd" d="M11.5 6.5C11.5 5.11929 12.6193 4 14 4C15.3807 4 16.5 5.11929 16.5 6.5C16.5 7.88071 15.3807 9 14 9C12.6193 9 11.5 7.88071 11.5 6.5ZM14 5C13.1716 5 12.5 5.67157 12.5 6.5C12.5 7.32843 13.1716 8 14 8C14.8284 8 15.5 7.32843 15.5 6.5C15.5 5.67157 14.8284 5 14 5Z" fill="#00164E"/>
<path fill-rule="evenodd" clip-rule="evenodd" d="M9.84872 6.72667L9.14014 6.52C9.08008 6.50257 9.01855 6.49668 8.95801 6.50175C8.92432 6.50459 8.89111 6.51084 8.85889 6.5204L2.85986 8.27003C2.64648 8.33222 2.5 8.52778 2.5 8.75001V21C2.5 21.0874 2.52295 21.172 2.56494 21.2461C2.59814 21.3054 2.64404 21.358 2.7002 21.4C2.82568 21.4945 2.98877 21.5241 3.14014 21.48L9 19.7709L14.8584 21.4796L14.9106 21.492C14.9453 21.4983 14.999 21.4956 15.0547 21.4887C15.1187 21.4807 15.1846 21.467 15.2256 21.4551L21.1401 19.73C21.3535 19.6678 21.5 19.4722 21.5 19.25V7.00001C21.5 6.95658 21.4941 6.91386 21.4834 6.87278C21.4722 6.82887 21.4546 6.78678 21.4316 6.74775C21.3984 6.69096 21.354 6.64054 21.2998 6.60002C21.2275 6.54563 21.1431 6.51277 21.0552 6.50306C20.9902 6.49589 20.9238 6.50132 20.8599 6.52L18.0963 7.32605C18.4956 4.94131 16.6966 2.5 13.9999 2.5C11.5293 2.5 9.81217 4.54921 9.84872 6.72667ZM10.0179 7.81773C10.1415 8.23032 10.3348 8.63595 10.6046 9.02135L13.3393 12.9282C13.6137 13.3201 14.1496 13.3771 14.5 13.0991V20.3333L9.5 18.875V7.66667L10.0179 7.81773ZM17.7163 8.48483C17.6246 8.66702 17.5179 8.84628 17.3953 9.02136L15.5 11.729V20.3334L20.5 18.5V7.68074L17.7163 8.48483ZM11.4238 8.44789C9.96488 6.36373 11.4559 3.5 13.9999 3.5C16.544 3.5 18.035 6.36373 16.5761 8.4479L13.9999 12.1281L11.4238 8.44789ZM3.5 20.3333L8.5 18.875V7.66667L3.5 9.12501V20.3333Z" fill="#00164E"/>
</svg>
