<svg width="24" height="24" viewBox="0 0 24 24" fill="none" xmlns="http://www.w3.org/2000/svg">
<path fill-rule="evenodd" clip-rule="evenodd" d="M3.88731 5.15126L3.88755 5.15295L3.88796 5.15585L3.88931 5.1652L3.89427 5.19775C3.89862 5.22544 3.90508 5.26492 3.91395 5.3149C3.9317 5.41481 3.95913 5.55699 3.9986 5.73104C4.07737 6.07842 4.20495 6.5566 4.40091 7.08114C4.7868 8.1141 5.4656 9.40235 6.63091 10.1758C7.47464 10.7358 8.42539 10.9955 9.29303 10.9427C9.92515 10.9041 10.5298 10.6964 11 10.3027V13.0001H8.68624C8.1303 13.0001 7.59022 13.1854 7.15139 13.5267L3.19305 16.6054C2.97508 16.7749 2.93581 17.0891 3.10535 17.307C3.27488 17.525 3.58902 17.5643 3.80699 17.3947L7.76533 14.316C8.02863 14.1112 8.35267 14.0001 8.68624 14.0001H14.625C14.9012 14.0001 15.125 14.2239 15.125 14.5001C15.125 14.7762 14.9012 15.0001 14.625 15.0001H11C10.7239 15.0001 10.5 15.2239 10.5 15.5001C10.5 15.7762 10.7239 16.0001 11 16.0001H14.625C15.2788 16.0001 15.8349 15.5818 16.0403 14.9983C16.1345 14.9909 16.2277 14.9568 16.3079 14.8945L20.0742 11.9651C20.3294 11.7666 20.6858 11.7635 20.9444 11.9575C21.3193 12.2386 21.3281 12.7979 20.9622 13.0907L15.6776 17.3193C15.1153 17.7692 14.4279 18.0348 13.7091 18.0797L8.10176 18.43C7.25059 18.4832 6.44813 18.8454 5.84511 19.4484L4.14731 21.1463C3.95205 21.3415 3.95206 21.6581 4.14732 21.8534C4.34259 22.0486 4.65917 22.0486 4.85443 21.8534L6.55223 20.1555C6.98296 19.7247 7.55615 19.4661 8.16412 19.4281L13.7715 19.0777C14.6956 19.02 15.5794 18.6786 16.3024 18.1001L21.587 13.8715C22.4632 13.1703 22.4422 11.8308 21.5444 11.1575C20.925 10.6929 20.0714 10.7004 19.4603 11.1757L15.9892 13.8755C15.7523 13.3589 15.2306 13.0001 14.625 13.0001H12V11.3674C12.8706 12.0577 14.225 12.0457 15.3019 11.4239C16.2532 10.8747 16.8187 9.87562 17.1423 9.086C17.3079 8.68196 17.4191 8.31047 17.4891 8.03989C17.5242 7.90421 17.5492 7.79288 17.5656 7.71425C17.5738 7.6749 17.5799 7.64367 17.584 7.62158L17.5889 7.5954L17.5902 7.58769L17.5906 7.58521L17.5909 7.58367C17.631 7.34696 17.4972 7.11517 17.2721 7.03152L17.2707 7.03098L17.2683 7.03012L17.2609 7.02744L17.2359 7.01851C17.2147 7.01106 17.1846 7.00072 17.1464 6.98817C17.0701 6.96308 16.9612 6.92905 16.8261 6.8916C16.5568 6.81692 16.1795 6.7275 15.7468 6.66887C14.9011 6.5543 13.7532 6.54453 12.8019 7.09376C12.427 7.31022 12.0992 7.59274 11.8381 7.91548C11.8069 7.71888 11.7567 7.5234 11.6895 7.33206C11.4013 6.512 10.7927 5.73674 9.94894 5.17673C8.78364 4.40328 7.33288 4.27808 6.23114 4.32365C5.67167 4.34679 5.18148 4.41494 4.83077 4.47726C4.65505 4.50848 4.51338 4.53842 4.41442 4.56087C4.36492 4.57211 4.32603 4.58148 4.29883 4.58824L4.26691 4.59631L4.25776 4.59869L4.25493 4.59943L4.25329 4.59987C4.00971 4.66509 3.85281 4.90148 3.88731 5.15126ZM4.38261 5.08286L3.95087 5.14243L3.88731 5.15126L4.38261 5.08286ZM4.38261 5.08286L4.25329 4.59987L4.2694 4.66028L4.38261 5.08286ZM4.96471 5.46922L4.97384 5.50989C5.04525 5.82479 5.161 6.25827 5.33768 6.73119C5.69705 7.69316 6.28064 8.74309 7.18391 9.34262C7.86345 9.79365 8.60123 9.98296 9.2322 9.94451C9.67737 9.91739 10.0537 9.77996 10.3337 9.55518C9.8789 9.13877 9.28705 8.66268 8.65291 8.22365C7.85621 7.67209 7.02637 7.20255 6.3419 6.9744C6.07993 6.88707 5.93835 6.60391 6.02567 6.34194C6.11299 6.07997 6.39615 5.93839 6.65812 6.02571C7.47365 6.29756 8.39381 6.82802 9.22212 7.40146C9.81852 7.81435 10.3847 8.26168 10.8507 8.675C10.905 8.36712 10.8723 8.02289 10.7461 7.66366C10.5365 7.06728 10.0755 6.46094 9.39594 6.00991C8.49266 5.41038 7.2985 5.28036 6.27247 5.3228C5.76806 5.34366 5.32365 5.40534 5.00573 5.46183L4.96471 5.46922ZM15.6125 7.65982C15.9632 7.70733 16.2746 7.77851 16.5074 7.84116C16.4452 8.07407 16.3512 8.37936 16.217 8.7068C15.9207 9.42975 15.4632 10.1761 14.8019 10.5579C13.9188 11.0677 13.0214 10.9477 12.5461 10.5116C12.762 10.159 13.4369 9.50005 15.0001 9.50005C15.2762 9.50005 15.5001 9.27619 15.5001 9.00005C15.5001 8.72391 15.2762 8.50005 15.0001 8.50005C13.6784 8.50005 12.7714 8.90689 12.2077 9.39202C12.2993 8.87891 12.657 8.33209 13.3019 7.95978C13.9632 7.57798 14.8383 7.55492 15.6125 7.65982Z" fill="#00164E"/>
</svg>
