<svg width="24" height="24" viewBox="0 0 24 24" fill="none" xmlns="http://www.w3.org/2000/svg">
<path fill-rule="evenodd" clip-rule="evenodd" d="M7.5 5C7.3674 5 7.24023 5.05267 7.14646 5.14645C7.05268 5.24023 7 5.36741 7 5.5V6.5C7 6.77614 6.77614 7 6.5 7C6.22386 7 6 6.77614 6 6.5V5.5C6 5.10216 6.15806 4.72063 6.43935 4.43934C6.72065 4.15804 7.10217 4 7.5 4H20.5C20.8978 4 21.2793 4.15804 21.5606 4.43934C21.8419 4.72063 22 5.10216 22 5.5V14.5C22 14.8978 21.8419 15.2794 21.5606 15.5607C21.2793 15.842 20.8978 16 20.5 16H16V17H17.48C17.7561 17 17.98 17.2239 17.98 17.5C17.98 17.7761 17.7561 18 17.48 18H10.48C10.2038 18 9.97998 17.7761 9.97998 17.5C9.97998 17.2239 10.2038 17 10.48 17H11.99V16H10.5C10.2239 16 10 15.7761 10 15.5C10 15.2239 10.2239 15 10.5 15H20.5C20.6326 15 20.7598 14.9473 20.8535 14.8536C20.9473 14.7598 21 14.6326 21 14.5V5.5C21 5.36741 20.9473 5.24023 20.8535 5.14645C20.7598 5.05267 20.6326 5 20.5 5H7.5ZM12.99 16H15V17H12.99V16Z" fill="#00164E"/>
<path d="M7 10.5C7 10.7761 6.77614 11 6.5 11C6.22386 11 6 10.7761 6 10.5C6 10.2239 6.22386 10 6.5 10C6.77614 10 7 10.2239 7 10.5Z" fill="#00164E"/>
<path d="M4.5 12C4.22386 12 4 12.2239 4 12.5C4 12.7761 4.22386 13 4.5 13H6.5C6.77614 13 7 12.7761 7 12.5C7 12.2239 6.77614 12 6.5 12H4.5Z" fill="#00164E"/>
<path d="M4 14.5C4 14.2239 4.22386 14 4.5 14H6.5C6.77614 14 7 14.2239 7 14.5C7 14.7761 6.77614 15 6.5 15H4.5C4.22386 15 4 14.7761 4 14.5Z" fill="#00164E"/>
<path d="M4.5 16C4.22386 16 4 16.2239 4 16.5C4 16.7761 4.22386 17 4.5 17H6.5C6.77614 17 7 16.7761 7 16.5C7 16.2239 6.77614 16 6.5 16H4.5Z" fill="#00164E"/>
<path fill-rule="evenodd" clip-rule="evenodd" d="M2 8.5C2 8.22386 2.22386 8 2.5 8H8.5C8.77614 8 9 8.22386 9 8.5V18.5C9 18.7761 8.77614 19 8.5 19H2.5C2.22386 19 2 18.7761 2 18.5V8.5ZM3 9V18H8V9H3Z" fill="#00164E"/>
</svg>
