<svg width="24" height="24" viewBox="0 0 24 24" fill="none" xmlns="http://www.w3.org/2000/svg">
<path d="M17.9999 14.5001C18.2761 14.5001 18.4999 14.7239 18.4999 15.0001V16.6214H20.1213C20.3974 16.6214 20.6213 16.8453 20.6213 17.1214C20.6213 17.3975 20.3974 17.6214 20.1213 17.6214H18.4999V19.2427C18.4999 19.5189 18.2761 19.7427 17.9999 19.7427C17.7238 19.7427 17.4999 19.5189 17.4999 19.2427V17.6214H15.8786C15.6025 17.6214 15.3786 17.3975 15.3786 17.1214C15.3786 16.8453 15.6025 16.6214 15.8786 16.6214H17.4999V15.0001C17.4999 14.7239 17.7238 14.5001 17.9999 14.5001Z" fill="#00164E"/>
<path fill-rule="evenodd" clip-rule="evenodd" d="M14 7C14 7.92237 13.5837 8.74752 12.9288 9.29783C13.5729 9.548 14.1622 9.94957 14.6508 10.4789C14.7877 10.6272 14.915 10.7837 15.0323 10.9472C15.2698 10.7086 15.5382 10.5106 15.8277 10.3584C15.3195 9.90078 15 9.23771 15 8.5C15 7.11929 16.1193 6 17.5 6C18.8807 6 20 7.11929 20 8.5C20 9.2377 19.6805 9.90077 19.1723 10.3584C19.4984 10.5298 19.7977 10.7594 20.0563 11.0395C20.5465 11.5706 20.8596 12.249 20.9626 12.9718C22.1983 13.8821 23 15.3474 23 17C23 19.7614 20.7614 22 18 22C15.2386 22 13 19.7614 13 17C13 16.6575 13.0344 16.3231 13.1 16H7.67692C7.21867 16 6.78814 15.8024 6.47731 15.4657C6.34942 15.3271 6.24573 15.1696 6.16808 15H2.28462C1.93041 15 1.59966 14.8472 1.36241 14.5902C1.1264 14.3345 1 13.9957 1 13.65V13.5C1 12.5841 1.33549 11.6984 1.94369 11.0395C2.20227 10.7594 2.50156 10.5299 2.82772 10.3584C2.31952 9.90078 2 9.2377 2 8.5C2 7.11929 3.11929 6 4.5 6C5.88071 6 7 7.11929 7 8.5C7 9.2377 6.68048 9.90078 6.17228 10.3584C6.46184 10.5106 6.73022 10.7086 6.96773 10.9471C7.08503 10.7837 7.21232 10.6272 7.34923 10.4789C7.83783 9.94957 8.42712 9.548 9.07117 9.29783C8.41626 8.74752 8 7.92237 8 7C8 5.34315 9.34315 4 11 4C12.6569 4 14 5.34315 14 7ZM13.916 11.1572C13.2271 10.4109 12.3017 10 11.3462 10H10.6538C9.69829 10 8.77292 10.4109 8.08403 11.1572C7.39391 11.9048 7 12.9268 7 14V14.225C7 14.4429 7.08027 14.6446 7.21211 14.7874C7.34272 14.9289 7.51089 15 7.67692 15H13.416C13.7471 14.2422 14.2607 13.5823 14.9011 13.0759C14.7439 12.3517 14.404 11.6858 13.916 11.1572ZM15.6785 11.7178C16.1077 11.2528 16.6809 11 17.2692 11H17.7308C18.3191 11 18.8923 11.2528 19.3215 11.7178C19.4821 11.8917 19.6172 12.0899 19.7236 12.305C19.1863 12.1077 18.6057 12 18 12C17.2065 12 16.4562 12.1848 15.7898 12.5138C15.7254 12.2916 15.6467 12.0744 15.5541 11.8638C15.5937 11.8135 15.6352 11.7648 15.6785 11.7178ZM19 8.5C19 9.32843 18.3284 10 17.5 10C16.6716 10 16 9.32843 16 8.5C16 7.67157 16.6716 7 17.5 7C18.3284 7 19 7.67157 19 8.5ZM9 7C9 5.89543 9.89543 5 11 5C12.1046 5 13 5.89543 13 7C13 8.10457 12.1046 9 11 9C9.89543 9 9 8.10457 9 7ZM6.44589 11.8638C6.15437 12.527 6 13.256 6 14H2.28462C2.22263 14 2.15424 13.9737 2.09721 13.9119C2.03893 13.8488 2 13.7552 2 13.65V13.5C2 12.8246 2.24803 12.1842 2.67849 11.7178C3.10771 11.2528 3.6809 11 4.26923 11H4.73077C5.31911 11 5.89229 11.2528 6.32151 11.7178C6.36484 11.7648 6.40632 11.8135 6.44589 11.8638ZM4.5 7C3.67157 7 3 7.67157 3 8.5C3 9.32843 3.67157 10 4.5 10C5.32843 10 6 9.32843 6 8.5C6 7.67157 5.32843 7 4.5 7ZM18 13C15.7909 13 14 14.7909 14 17C14 19.2091 15.7909 21 18 21C20.2091 21 22 19.2091 22 17C22 14.7909 20.2091 13 18 13Z" fill="#00164E"/>
</svg>
