<svg width="24" height="24" viewBox="0 0 24 24" fill="none" xmlns="http://www.w3.org/2000/svg">
<path d="M22.5 5.5C22.5 6.60457 21.6046 7.5 20.5 7.5C19.3954 7.5 18.5 6.60457 18.5 5.5C18.5 4.39543 19.3954 3.5 20.5 3.5C21.6046 3.5 22.5 4.39543 22.5 5.5Z" fill="#00164E"/>
<path fill-rule="evenodd" clip-rule="evenodd" d="M5.5 6C4.67157 6 4 6.67157 4 7.5C4 7.96461 4.22574 8.40026 4.60532 8.6682L11.736 13.7016C11.9029 13.8194 12.1245 13.8239 12.296 13.7129L20.2221 8.5843C20.3015 8.53106 20.3971 8.5 20.5 8.5C20.7761 8.5 21 8.72386 21 9V16.5C21 17.8807 19.8807 19 18.5 19H5.5C4.11929 19 3 17.8807 3 16.5V7.5C3 6.11929 4.11929 5 5.5 5H17C17.2761 5 17.5 5.22386 17.5 5.5C17.5 5.77614 17.2761 6 17 6H5.5ZM5.5 18C4.67157 18 4 17.3284 4 16.5V9.46473L4.02863 9.48517L11.1593 14.5186C11.6598 14.8719 12.3249 14.8853 12.8392 14.5525L20 9.91908V16.5C20 17.3284 19.3284 18 18.5 18H5.5Z" fill="#00164E"/>
</svg>
