<svg width="24" height="24" viewBox="0 0 24 24" fill="none" xmlns="http://www.w3.org/2000/svg">
<path d="M2 4.5C2 3.11929 3.11929 2 4.5 2H7.5C7.77614 2 8 2.22386 8 2.5C8 2.77614 7.77614 3 7.5 3H4.5C3.67157 3 3 3.67157 3 4.5V7.5C3 7.77614 2.77614 8 2.5 8C2.22386 8 2 7.77614 2 7.5V4.5Z" fill="#00164E"/>
<path d="M16.5 2C16.2239 2 16 2.22386 16 2.5C16 2.77614 16.2239 3 16.5 3H19.5C20.3284 3 21 3.67157 21 4.5V7.5C21 7.77614 21.2239 8 21.5 8C21.7761 8 22 7.77614 22 7.5V4.5C22 3.11929 20.8807 2 19.5 2H16.5Z" fill="#00164E"/>
<path d="M8 7.5C8 7.22386 7.77614 7 7.5 7C7.22386 7 7 7.22386 7 7.5V9.5C7 9.77614 7.22386 10 7.5 10C7.77614 10 8 9.77614 8 9.5V7.5Z" fill="#00164E"/>
<path d="M8.5 15C8.77614 15 9 15.2239 9 15.5C9 15.7439 9.19779 16.1106 9.75725 16.4463C10.295 16.7689 11.0788 17 12 17C12.9212 17 13.705 16.7689 14.2428 16.4463C14.8022 16.1106 15 15.7439 15 15.5C15 15.2239 15.2239 15 15.5 15C15.7761 15 16 15.2239 16 15.5C16 16.2561 15.4478 16.8894 14.7572 17.3037C14.045 17.7311 13.0788 18 12 18C10.9212 18 9.95498 17.7311 9.24275 17.3037C8.55221 16.8894 8 16.2561 8 15.5C8 15.2239 8.22386 15 8.5 15Z" fill="#00164E"/>
<path d="M16.5 7C16.7761 7 17 7.22386 17 7.5V9.5C17 9.77614 16.7761 10 16.5 10C16.2239 10 16 9.77614 16 9.5V7.5C16 7.22386 16.2239 7 16.5 7Z" fill="#00164E"/>
<path d="M12.5 9C12.7761 9 13 9.22386 13 9.5V12C13 12.5523 12.5523 13 12 13H11.5C11.2239 13 11 12.7761 11 12.5C11 12.2239 11.2239 12 11.5 12H12V9.5C12 9.22386 12.2239 9 12.5 9Z" fill="#00164E"/>
<path d="M21.5 16C21.7761 16 22 16.2239 22 16.5V19.5C22 20.8807 20.8807 22 19.5 22H16.5C16.2239 22 16 21.7761 16 21.5C16 21.2239 16.2239 21 16.5 21H19.5C20.3284 21 21 20.3284 21 19.5V16.5C21 16.2239 21.2239 16 21.5 16Z" fill="#00164E"/>
<path d="M2.5 16C2.77614 16 3 16.2239 3 16.5V19.5C3 20.3284 3.67157 21 4.5 21H7.5C7.77614 21 8 21.2239 8 21.5C8 21.7761 7.77614 22 7.5 22H4.5C3.11929 22 2 20.8807 2 19.5V16.5C2 16.2239 2.22386 16 2.5 16Z" fill="#00164E"/>
</svg>
