<svg width="24" height="24" viewBox="0 0 24 24" fill="none" xmlns="http://www.w3.org/2000/svg">
<path fill-rule="evenodd" clip-rule="evenodd" d="M19 11C18.7239 11 18.5 10.7761 18.5 10.5V10H4.88464V13.4615C4.88464 13.5716 4.90161 13.6768 4.9327 13.7752C5.01596 14.0385 4.87002 14.3194 4.60673 14.4027C4.34344 14.4859 4.0625 14.34 3.97924 14.0767C3.91766 13.882 3.88464 13.6751 3.88464 13.4615V6.53846C3.88464 5.41265 4.79729 4.5 5.92311 4.5H17.4616C18.5874 4.5 19.5 5.41265 19.5 6.53846V10.5C19.5 10.7761 19.2762 11 19 11ZM4.88464 6.53846C4.88464 5.96494 5.34958 5.5 5.92311 5.5H17.4616C18.0351 5.5 18.5 5.96494 18.5 6.53846V7.69232H4.88464V6.53846Z" fill="#00164E"/>
<path d="M5.84511 19.4483C6.44813 18.8453 7.2506 18.4832 8.10176 18.43L13.7091 18.0796C14.4279 18.0347 15.1153 17.7692 15.6776 17.3192L20.9622 13.0906C21.3281 12.7978 21.3193 12.2385 20.9444 11.9574C20.6858 11.7634 20.3294 11.7666 20.0742 11.965L16.3079 14.8944C16.2277 14.9568 16.1345 14.9909 16.0403 14.9982C15.8349 15.5818 15.2788 16 14.625 16H11C10.7239 16 10.5 15.7761 10.5 15.5C10.5 15.2239 10.7239 15 11 15H14.625C14.9012 15 15.125 14.7761 15.125 14.5C15.125 14.2239 14.9012 14 14.625 14H8.68624C8.35267 14 8.02863 14.1112 7.76533 14.316L3.80699 17.3947C3.58902 17.5642 3.27488 17.5249 3.10535 17.307C2.93581 17.089 2.97508 16.7749 3.19305 16.6053L7.15139 13.5266C7.59022 13.1853 8.1303 13 8.68624 13H14.625C15.2306 13 15.7523 13.3588 15.9892 13.8754L19.4603 11.1757C20.0714 10.7004 20.925 10.6929 21.5444 11.1574C22.4422 11.8307 22.4632 13.1703 21.587 13.8714L16.3024 18.1C15.5794 18.6785 14.6956 19.0199 13.7715 19.0777L8.16412 19.428C7.55615 19.466 6.98296 19.7247 6.55223 20.1554L4.85443 21.8533C4.65917 22.0486 4.34259 22.0486 4.14732 21.8533C3.95206 21.6581 3.95205 21.3415 4.14731 21.1462L5.84511 19.4483Z" fill="#00164E"/>
<path d="M5.4231 11.9231C5.4231 11.647 5.64695 11.4231 5.9231 11.4231H9.00002C9.27616 11.4231 9.50002 11.647 9.50002 11.9231C9.50002 12.1992 9.27616 12.4231 9.00002 12.4231H5.9231C5.64695 12.4231 5.4231 12.1992 5.4231 11.9231Z" fill="#00164E"/>
</svg>
