<svg width="24" height="24" viewBox="0 0 24 24" fill="none" xmlns="http://www.w3.org/2000/svg">
<path d="M19 4.91C17.13 3.03 14.64 2 11.99 2C6.53 2 2.08 6.45 2.08 11.91C2.08 13.66 2.54 15.36 3.4 16.86L2 22L7.25 20.62C8.7 21.41 10.33 21.83 11.99 21.83C17.45 21.83 21.9 17.38 21.9 11.92C21.9 9.27 20.87 6.78 19 4.91ZM11.99 20.15C10.51 20.15 9.06 19.75 7.79 19L7.49 18.82L4.37 19.64L5.2 16.6L5 16.29C4.18 14.98 3.74 13.46 3.74 11.91C3.74 7.37 7.44 3.67 11.98 3.67C14.18 3.67 16.25 4.53 17.8 6.09C19.36 7.65 20.21 9.72 20.21 11.92C20.23 16.46 16.53 20.15 11.99 20.15ZM16.51 13.99C16.26 13.87 15.04 13.27 14.82 13.18C14.59 13.1 14.43 13.06 14.26 13.3C14.09 13.55 13.62 14.11 13.48 14.27C13.34 14.44 13.19 14.46 12.94 14.33C12.69 14.21 11.89 13.94 10.95 13.1C10.21 12.44 9.72 11.63 9.57 11.38C9.43 11.13 9.55 11 9.68 10.87C9.79 10.76 9.93 10.58 10.05 10.44C10.17 10.3 10.22 10.19 10.3 10.03C10.38 9.86 10.34 9.72 10.28 9.6C10.22 9.48 9.72 8.26 9.52 7.76C9.32 7.28 9.11 7.34 8.96 7.33C8.81 7.33 8.65 7.33 8.48 7.33C8.31 7.33 8.05 7.39 7.82 7.64C7.6 7.89 6.96 8.49 6.96 9.71C6.96 10.93 7.85 12.11 7.97 12.27C8.09 12.44 9.72 14.94 12.2 16.01C12.79 16.27 13.25 16.42 13.61 16.53C14.2 16.72 14.74 16.69 15.17 16.63C15.65 16.56 16.64 16.03 16.84 15.45C17.05 14.87 17.05 14.38 16.98 14.27C16.91 14.16 16.76 14.11 16.51 13.99Z" fill="#00164E"/>
</svg>
