<svg width="24" height="24" viewBox="0 0 24 24" fill="none" xmlns="http://www.w3.org/2000/svg">
<path fill-rule="evenodd" clip-rule="evenodd" d="M5 4.5C4.72386 4.5 4.5 4.72386 4.5 5V9.5C4.5 11.7091 6.29086 13.5 8.5 13.5C10.7091 13.5 12.5 11.7091 12.5 9.5V5C12.5 4.72386 12.2761 4.5 12 4.5H11.5C11.2239 4.5 11 4.27614 11 4C11 3.72386 11.2239 3.5 11.5 3.5H12C12.8284 3.5 13.5 4.17157 13.5 5V9.5C13.5 12.0927 11.5267 14.2245 9 14.4753V16.5C9 18.7091 10.7909 20.5 13 20.5C15.2091 20.5 17 18.7091 17 16.5V12.437C16.1374 12.215 15.5 11.4319 15.5 10.5C15.5 9.39543 16.3954 8.5 17.5 8.5C18.6046 8.5 19.5 9.39543 19.5 10.5C19.5 11.4319 18.8626 12.215 18 12.437V16.5C18 19.2614 15.7614 21.5 13 21.5C10.2386 21.5 8 19.2614 8 16.5V14.4753C5.47334 14.2245 3.5 12.0927 3.5 9.5V5C3.5 4.17157 4.17157 3.5 5 3.5H6C6.27614 3.5 6.5 3.72386 6.5 4C6.5 4.27614 6.27614 4.5 6 4.5H5ZM17.5 11.5C18.0523 11.5 18.5 11.0523 18.5 10.5C18.5 9.94772 18.0523 9.5 17.5 9.5C16.9477 9.5 16.5 9.94772 16.5 10.5C16.5 11.0523 16.9477 11.5 17.5 11.5Z" fill="#00164E"/>
</svg>
