<svg width="24" height="24" viewBox="0 0 24 24" fill="none" xmlns="http://www.w3.org/2000/svg">
<path fill-rule="evenodd" clip-rule="evenodd" d="M7.46924 3C7.74538 3 7.96924 3.22386 7.96924 3.5V4H11.4692V3.5C11.4692 3.22386 11.6931 3 11.9692 3C12.2454 3 12.4692 3.22386 12.4692 3.5V4H15.9692V3.5C15.9692 3.22386 16.1931 3 16.4692 3C16.7454 3 16.9692 3.22386 16.9692 3.5V4H19.4692C19.8671 4 20.2486 4.15803 20.5299 4.43934C20.8112 4.72065 20.9692 5.10218 20.9692 5.5V9.32812C20.9889 9.38172 20.9996 9.43961 20.9996 9.5V17.8962C21.0053 18.2977 20.932 18.6964 20.7838 19.0696C20.6351 19.444 20.4139 19.7854 20.1329 20.0742C19.852 20.3629 19.5167 20.5934 19.1465 20.7522C18.7762 20.9111 18.3782 20.9953 17.9754 21L17.9696 21L5.9579 21C5.15049 20.9812 4.38326 20.6438 3.82349 20.0616C3.26467 19.4804 2.95784 18.7023 2.96956 17.8962L2.96924 5.5C2.96924 5.10218 3.12727 4.72064 3.40858 4.43934C3.68988 4.15804 4.07141 4 4.46924 4H6.96924V3.5C6.96924 3.22386 7.1931 3 7.46924 3ZM19.8228 5.14645C19.9166 5.24021 19.9692 5.36739 19.9692 5.5V9H3.96924V5.5C3.96924 5.36739 4.02192 5.24021 4.11568 5.14645C4.20945 5.05268 4.33663 5 4.46924 5H6.96924V6.5C6.96924 6.77614 7.1931 7 7.46924 7C7.74538 7 7.96924 6.77614 7.96924 6.5V5H11.4692V6.5C11.4692 6.77614 11.6931 7 11.9692 7C12.2454 7 12.4692 6.77614 12.4692 6.5V5H15.9692V6.5C15.9692 6.77614 16.1931 7 16.4692 7C16.7454 7 16.9692 6.77614 16.9692 6.5V5H19.4692C19.6018 5 19.729 5.05268 19.8228 5.14645ZM4.54432 19.3685C4.16748 18.9766 3.96092 18.4516 3.96956 17.9079V10H19.9996L19.9995 17.9L19.9996 17.9078C20.0039 18.179 19.9545 18.4484 19.8544 18.7005C19.7543 18.9526 19.6054 19.1824 19.4163 19.3768C19.2271 19.5712 19.0014 19.7263 18.7522 19.8333C18.5037 19.9399 18.2368 19.9965 17.9665 20H5.97572C5.43419 19.9859 4.9199 19.7591 4.54432 19.3685Z" fill="#00164E"/>
</svg>
