<svg width="24" height="24" viewBox="0 0 24 24" fill="none" xmlns="http://www.w3.org/2000/svg">
<path d="M19.3322 15.1263C19.5386 15.3098 19.5572 15.6258 19.3737 15.8322L16.707 18.8322C16.6122 18.9389 16.4762 19 16.3333 19C16.1905 19 16.0545 18.9389 15.9596 18.8322L14.6263 17.3322C14.4428 17.1258 14.4614 16.8098 14.6678 16.6263C14.8742 16.4428 15.1903 16.4614 15.3737 16.6678L16.3333 17.7474L18.6263 15.1678C18.8098 14.9614 19.1258 14.9428 19.3322 15.1263Z" fill="#00164E"/>
<path fill-rule="evenodd" clip-rule="evenodd" d="M12.3189 10.2597C13.3364 9.53448 14 8.34473 14 7C14 4.79086 12.2091 3 10 3C7.79086 3 6 4.79086 6 7C6 8.34473 6.66357 9.53448 7.68113 10.2597C6.6411 10.5628 5.68359 11.124 4.90381 11.9038C3.68482 13.1228 3 14.7761 3 16.5V16.8C3 17.3835 3.23179 17.9431 3.64437 18.3556C4.05694 18.7682 4.61652 19 5.2 19H12.416C13.1876 20.7659 14.9497 22 17 22C19.7614 22 22 19.7614 22 17C22 14.2386 19.7614 12 17 12C16.4485 12 15.9179 12.0893 15.4217 12.2542C15.3179 12.1339 15.2093 12.017 15.0962 11.9038C14.3164 11.124 13.3589 10.5628 12.3189 10.2597ZM7 7C7 5.34315 8.34315 4 10 4C11.6569 4 13 5.34315 13 7C13 8.65685 11.6569 10 10 10C8.34315 10 7 8.65685 7 7ZM9.5 11C8.04131 11 6.64236 11.5795 5.61091 12.6109C4.57946 13.6424 4 15.0413 4 16.5V16.8C4 17.1183 4.12643 17.4235 4.35147 17.6485C4.57652 17.8736 4.88174 18 5.2 18H12.1C12.0344 17.6769 12 17.3425 12 17C12 15.1635 12.9901 13.5583 14.4656 12.689C14.4404 12.6627 14.4149 12.6367 14.3891 12.6109C13.3576 11.5795 11.9587 11 10.5 11H9.5ZM13 17C13 14.7909 14.7909 13 17 13C19.2091 13 21 14.7909 21 17C21 19.2091 19.2091 21 17 21C14.7909 21 13 19.2091 13 17Z" fill="#00164E"/>
</svg>
