<svg width="24" height="24" viewBox="0 0 24 24" fill="none" xmlns="http://www.w3.org/2000/svg">
<path fill-rule="evenodd" clip-rule="evenodd" d="M5.87319 4.74842C6.22609 3.14337 7.64815 2 9.29154 2H13.7085C15.3519 2 16.774 3.14337 17.1269 4.74842L17.4771 6.34157C18.3333 6.79024 18.9512 7.64194 19.067 8.66127L19.2266 10.0653C19.2577 10.3396 19.0606 10.5873 18.7862 10.6185C18.5118 10.6497 18.2641 10.4525 18.233 10.1782L18.0734 8.77418C17.9586 7.76349 17.1034 7 16.0862 7H6.91384C5.89665 7 5.04148 7.76349 4.92663 8.77418L4.62329 11.4435C4.58959 11.7401 4.82159 12 5.1201 12H6.50002C6.77617 12 7.00002 12.2239 7.00002 12.5C7.00002 12.7761 6.77617 13 6.50002 13H5.1201C5.07965 13 5.0396 12.9984 5.00002 12.9953V14.5C5.00002 14.7761 4.77617 15 4.50002 15C4.22388 15 4.00002 14.7761 4.00002 14.5V12.5L4.00003 12.4977C3.72745 12.1917 3.5792 11.7749 3.62969 11.3306L3.93302 8.66127C4.04886 7.64194 4.66671 6.79024 5.52291 6.34156L5.87319 4.74842ZM16.1502 4.96316L16.3781 6H6.6219L6.84987 4.96316C7.10193 3.81669 8.11769 3 9.29154 3H13.7085C14.8823 3 15.8981 3.81669 16.1502 4.96316Z" fill="#00164E"/>
<path d="M8.10176 18.43C7.25059 18.4832 6.44813 18.8453 5.8451 19.4484L4.14731 21.1462C3.95205 21.3415 3.95205 21.6581 4.14732 21.8533C4.34259 22.0486 4.65917 22.0486 4.85443 21.8533L6.55222 20.1555C6.98296 19.7247 7.55614 19.466 8.16412 19.4281L13.7715 19.0777C14.6956 19.0199 15.5794 18.6785 16.3024 18.1L21.587 13.8714C22.4632 13.1703 22.4422 11.8308 21.5444 11.1574C20.925 10.6929 20.0714 10.7004 19.4603 11.1757L15.9892 13.8754C15.7523 13.3588 15.2306 13 14.625 13H8.68624C8.1303 13 7.59022 13.1853 7.15139 13.5266L3.19305 16.6053C2.97508 16.7749 2.93581 17.089 3.10535 17.307C3.27488 17.5249 3.58902 17.5642 3.80699 17.3947L7.76533 14.316C8.02863 14.1112 8.35267 14 8.68624 14H14.625C14.9012 14 15.125 14.2239 15.125 14.5C15.125 14.7761 14.9012 15 14.625 15H11C10.7239 15 10.5 15.2239 10.5 15.5C10.5 15.7761 10.7239 16 11 16H14.625C15.2788 16 15.8349 15.5818 16.0403 14.9983C16.1345 14.9909 16.2277 14.9568 16.3078 14.8944L20.0742 11.965C20.3294 11.7666 20.6858 11.7635 20.9444 11.9574C21.3193 12.2386 21.328 12.7979 20.9622 13.0906L15.6776 17.3192C15.1153 17.7692 14.4279 18.0347 13.7091 18.0796L8.10176 18.43Z" fill="#00164E"/>
<path fill-rule="evenodd" clip-rule="evenodd" d="M7.11721 8C6.42685 8 5.86721 8.55964 5.86721 9.25C5.86721 9.94036 6.42685 10.5 7.11721 10.5C7.62979 10.5 8.07031 10.1915 8.2632 9.75H14.6568C14.8497 10.1915 15.2902 10.5 15.8028 10.5C16.4931 10.5 17.0528 9.94036 17.0528 9.25C17.0528 8.55964 16.4931 8 15.8028 8C15.2902 8 14.8497 8.30852 14.6568 8.75H8.2632C8.07031 8.30852 7.62979 8 7.11721 8ZM6.86721 9.25C6.86721 9.11193 6.97914 9 7.11721 9C7.25528 9 7.36721 9.11193 7.36721 9.25C7.36721 9.38807 7.25528 9.5 7.11721 9.5C6.97914 9.5 6.86721 9.38807 6.86721 9.25ZM15.8028 9C15.6647 9 15.5528 9.11193 15.5528 9.25C15.5528 9.38807 15.6647 9.5 15.8028 9.5C15.9408 9.5 16.0528 9.38807 16.0528 9.25C16.0528 9.11193 15.9408 9 15.8028 9Z" fill="#00164E"/>
</svg>
