<svg width="24" height="24" viewBox="0 0 24 24" fill="none" xmlns="http://www.w3.org/2000/svg">
<path d="M2.14645 2.14645C2.34171 1.95118 2.65829 1.95118 2.85355 2.14645L12 11.2929V8.5C12 8.22386 12.2239 8 12.5 8C12.7761 8 13 8.22386 13 8.5V12.4995C13 12.5075 12.9998 12.516 12.9994 12.524C12.9967 12.5811 12.9842 12.6378 12.9621 12.6914C12.9377 12.7504 12.9015 12.8056 12.8536 12.8536C12.8056 12.9015 12.7504 12.9377 12.6914 12.9621C12.6333 12.9861 12.5697 12.9996 12.503 13L12.5 13H8.5C8.22386 13 8 12.7761 8 12.5C8 12.2239 8.22386 12 8.5 12H11.2929L2.14645 2.85355C1.95118 2.65829 1.95118 2.34171 2.14645 2.14645Z" fill="#00164E"/>
<path d="M8.5 4C8.22386 4 8 4.22386 8 4.5C8 4.77614 8.22386 5 8.5 5H17.5C17.8978 5 18.2794 5.15804 18.5607 5.43934C18.842 5.72064 19 6.10217 19 6.5V17.5C19 17.8978 18.842 18.2794 18.5607 18.5607C18.2794 18.842 17.8978 19 17.5 19H6.5C6.10218 19 5.72064 18.842 5.43934 18.5607C5.15803 18.2794 5 17.8978 5 17.5V8.5C5 8.22386 4.77614 8 4.5 8C4.22386 8 4 8.22386 4 8.5V17.5C4 18.163 4.26339 18.7989 4.73223 19.2678C5.20107 19.7366 5.83696 20 6.5 20H17.5C18.163 20 18.7989 19.7366 19.2678 19.2678C19.7366 18.7989 20 18.163 20 17.5V6.5C20 5.83696 19.7366 5.20107 19.2678 4.73223C18.7989 4.26339 18.163 4 17.5 4H8.5Z" fill="#00164E"/>
</svg>
