<svg width="24" height="24" viewBox="0 0 24 24" fill="none" xmlns="http://www.w3.org/2000/svg">
<path d="M12.2787 2.69333C12.1779 2.44239 11.8227 2.44239 11.7219 2.69333L11.2946 3.7574C11.2517 3.86426 11.1514 3.93713 11.0365 3.94492L9.89246 4.02249C9.62266 4.04078 9.51288 4.37864 9.7204 4.55202L10.6003 5.28722C10.6887 5.36105 10.727 5.47896 10.6989 5.59063L10.4192 6.70264C10.3532 6.96489 10.6406 7.17369 10.8696 7.02991L11.8408 6.42022C11.9383 6.35899 12.0623 6.35899 12.1598 6.42022L13.1309 7.02991C13.3599 7.17369 13.6473 6.96489 13.5814 6.70264L13.3016 5.59063C13.2735 5.47896 13.3118 5.36105 13.4002 5.28722L14.2801 4.55202C14.4877 4.37864 14.3779 4.04078 14.1081 4.02249L12.9641 3.94492C12.8492 3.93713 12.7489 3.86426 12.706 3.7574L12.2787 2.69333Z" fill="#00164E"/>
<path fill-rule="evenodd" clip-rule="evenodd" d="M15.0002 12C15.0002 12.9224 14.584 13.7475 13.9291 14.2978C14.5731 14.548 15.1624 14.9496 15.651 15.4789C16.5189 16.4191 17.0002 17.6863 17.0002 19V19.225C17.0002 19.6834 16.8325 20.1303 16.5229 20.4657C16.2121 20.8024 15.7816 21 15.3233 21H8.67717C8.21892 21 7.78838 20.8024 7.47756 20.4657C7.16797 20.1303 7.00024 19.6834 7.00024 19.225V19C7.00024 17.6863 7.48161 16.4191 8.34948 15.4789C8.83807 14.9496 9.42736 14.548 10.0714 14.2978C9.4165 13.7475 9.00024 12.9224 9.00024 12C9.00024 10.3431 10.3434 9 12.0002 9C13.6571 9 15.0002 10.3431 15.0002 12ZM12.0002 10C10.8957 10 10.0002 10.8954 10.0002 12C10.0002 13.1046 10.8957 14 12.0002 14C13.1048 14 14.0002 13.1046 14.0002 12C14.0002 10.8954 13.1048 10 12.0002 10ZM9.08428 16.1572C9.77317 15.4109 10.6985 15 11.6541 15H12.3464C13.302 15 14.2273 15.4109 14.9162 16.1572C15.6063 16.9048 16.0002 17.9268 16.0002 19V19.225C16.0002 19.4429 15.92 19.6446 15.7881 19.7874C15.6575 19.9289 15.4894 20 15.3233 20H8.67717C8.51114 20 8.34297 19.9289 8.21236 19.7874C8.08051 19.6446 8.00024 19.4429 8.00024 19.225V19C8.00024 17.9268 8.39415 16.9048 9.08428 16.1572Z" fill="#00164E"/>
<path d="M4.72188 7.69333C4.82265 7.44239 5.17789 7.44239 5.27866 7.69333L5.70596 8.7574C5.74888 8.86426 5.84917 8.93713 5.96406 8.94492L7.10809 9.02249C7.37789 9.04078 7.48766 9.37864 7.28014 9.55202L6.4002 10.2872C6.31183 10.3611 6.27352 10.479 6.30162 10.5906L6.58137 11.7026C6.64734 11.9649 6.35994 12.1737 6.13092 12.0299L5.15978 11.4202C5.06226 11.359 4.93829 11.359 4.84076 11.4202L3.86963 12.0299C3.6406 12.1737 3.3532 11.9649 3.41918 11.7026L3.69893 10.5906C3.72702 10.479 3.68871 10.3611 3.60034 10.2872L2.7204 9.55202C2.51288 9.37864 2.62266 9.04078 2.89246 9.02249L4.03648 8.94492C4.15138 8.93713 4.25167 8.86426 4.29458 8.7574L4.72188 7.69333Z" fill="#00164E"/>
<path d="M19.2787 7.69333C19.1779 7.44239 18.8227 7.44239 18.7219 7.69333L18.2946 8.7574C18.2517 8.86426 18.1514 8.93713 18.0365 8.94492L16.8925 9.02249C16.6227 9.04078 16.5129 9.37864 16.7204 9.55202L17.6003 10.2872C17.6887 10.3611 17.727 10.479 17.6989 10.5906L17.4192 11.7026C17.3532 11.9649 17.6406 12.1737 17.8696 12.0299L18.8408 11.4202C18.9383 11.359 19.0623 11.359 19.1598 11.4202L20.1309 12.0299C20.3599 12.1737 20.6473 11.9649 20.5814 11.7026L20.3016 10.5906C20.2735 10.479 20.3118 10.3611 20.4002 10.2872L21.2801 9.55202C21.4877 9.37864 21.3779 9.04078 21.1081 9.02249L19.9641 8.94492C19.8492 8.93713 19.7489 8.86426 19.706 8.7574L19.2787 7.69333Z" fill="#00164E"/>
</svg>
