<svg width="24" height="24" viewBox="0 0 24 24" fill="none" xmlns="http://www.w3.org/2000/svg">
<path fill-rule="evenodd" clip-rule="evenodd" d="M3.50002 5.5C3.50002 4.94772 3.94774 4.5 4.50002 4.5H19.5C20.0523 4.5 20.5 4.94772 20.5 5.5V9C20.5 9.27614 20.2762 9.5 20 9.5C19.7239 9.5 19.5 9.27614 19.5 9V8.5C18.7044 8.5 17.9413 8.18393 17.3787 7.62132C16.8161 7.05871 16.5 6.29565 16.5 5.5H7.50002C7.50002 6.29565 7.18396 7.05871 6.62135 7.62132C6.05874 8.18393 5.29567 8.5 4.50002 8.5V14C4.50002 14.2761 4.27617 14.5 4.00002 14.5C3.72388 14.5 3.50002 14.2761 3.50002 14V5.5ZM18.0858 6.91421C17.7107 6.53914 17.5 6.03043 17.5 5.5H19.5V7.5C18.9696 7.5 18.4609 7.28929 18.0858 6.91421ZM4.50002 5.5L6.50002 5.5C6.50002 6.03043 6.28931 6.53914 5.91424 6.91421C5.53917 7.28929 5.03046 7.5 4.50002 7.5V5.5Z" fill="#00164E"/>
<path d="M7.00002 8.5C7.27617 8.5 7.50002 8.72386 7.50002 9V11C7.50002 11.2761 7.27617 11.5 7.00002 11.5C6.72388 11.5 6.50002 11.2761 6.50002 11V9C6.50002 8.72386 6.72388 8.5 7.00002 8.5Z" fill="#00164E"/>
<path d="M5.8451 19.4484C6.44813 18.8453 7.25059 18.4832 8.10176 18.43L13.7091 18.0796C14.4279 18.0347 15.1153 17.7692 15.6776 17.3192L20.9622 13.0906C21.328 12.7979 21.3193 12.2386 20.9444 11.9574C20.6858 11.7635 20.3294 11.7666 20.0742 11.965L16.3078 14.8944C16.2277 14.9568 16.1345 14.9909 16.0403 14.9983C15.8349 15.5818 15.2788 16 14.625 16H11C10.7239 16 10.5 15.7761 10.5 15.5C10.5 15.2239 10.7239 15 11 15H14.625C14.9012 15 15.125 14.7761 15.125 14.5C15.125 14.2239 14.9012 14 14.625 14H8.68624C8.35267 14 8.02863 14.1112 7.76533 14.316L3.80699 17.3947C3.58902 17.5642 3.27488 17.5249 3.10535 17.307C2.93581 17.089 2.97508 16.7749 3.19305 16.6053L7.15139 13.5266C7.59022 13.1853 8.1303 13 8.68624 13H14.625C15.2306 13 15.7523 13.3588 15.9892 13.8754L19.4603 11.1757C20.0714 10.7004 20.925 10.6929 21.5444 11.1574C22.4422 11.8308 22.4632 13.1703 21.587 13.8714L16.3024 18.1C15.5794 18.6785 14.6956 19.0199 13.7715 19.0777L8.16412 19.4281C7.55614 19.466 6.98296 19.7247 6.55222 20.1555L4.85443 21.8533C4.65917 22.0486 4.34259 22.0486 4.14732 21.8533C3.95205 21.6581 3.95205 21.3415 4.14731 21.1462L5.8451 19.4484Z" fill="#00164E"/>
<path d="M17.5 9C17.5 8.72386 17.2762 8.5 17 8.5C16.7239 8.5 16.5 8.72386 16.5 9V9.5C16.5 9.77614 16.7239 10 17 10C17.2762 10 17.5 9.77614 17.5 9.5V9Z" fill="#00164E"/>
<path fill-rule="evenodd" clip-rule="evenodd" d="M9.50002 10C9.50002 8.61929 10.6193 7.5 12 7.5C13.3807 7.5 14.5 8.61929 14.5 10C14.5 11.3807 13.3807 12.5 12 12.5C10.6193 12.5 9.50002 11.3807 9.50002 10ZM12 8.5C11.1716 8.5 10.5 9.17157 10.5 10C10.5 10.8284 11.1716 11.5 12 11.5C12.8285 11.5 13.5 10.8284 13.5 10C13.5 9.17157 12.8285 8.5 12 8.5Z" fill="#00164E"/>
</svg>
