<svg width="24" height="24" viewBox="0 0 24 24" fill="none" xmlns="http://www.w3.org/2000/svg">
<path fill-rule="evenodd" clip-rule="evenodd" d="M4.5 6C3.67157 6 3 6.67157 3 7.5V15.5C3 16.3284 3.67157 17 4.5 17H11.5V18.0764L8.9178 18.5068C8.64542 18.5522 8.46141 18.8098 8.5068 19.0822C8.5522 19.3546 8.80981 19.5386 9.0822 19.4932L12 19.0069L14.9178 19.4932C15.1902 19.5386 15.4478 19.3546 15.4932 19.0822C15.5386 18.8098 15.3546 18.5522 15.0822 18.5068L12.5 18.0764V17H19.5C20.3284 17 21 16.3284 21 15.5V7.5C21 6.67157 20.3284 6 19.5 6H4.5ZM19 16V7H5V16H19Z" fill="#00164E"/>
</svg>
