<svg width="24" height="24" viewBox="0 0 24 24" fill="none" xmlns="http://www.w3.org/2000/svg">
<path fill-rule="evenodd" clip-rule="evenodd" d="M16.8 14C15.4193 14 14.3 15.1193 14.3 16.5C14.3 17.8807 15.4193 19 16.8 19C18.1808 19 19.3 17.8807 19.3 16.5C19.3 15.1193 18.1808 14 16.8 14ZM15.3 16.5C15.3 15.6716 15.9716 15 16.8 15C17.6285 15 18.3 15.6716 18.3 16.5C18.3 17.3284 17.6285 18 16.8 18C15.9716 18 15.3 17.3284 15.3 16.5Z" fill="#00164E"/>
<path fill-rule="evenodd" clip-rule="evenodd" d="M14 7C14 8.34473 13.3364 9.53448 12.3189 10.2597C13.2848 10.5412 14.1796 11.0454 14.927 11.7406C15.1103 11.3065 15.5383 11 16.0407 11H17.4594C18.1305 11 18.6687 11.5469 18.6687 12.2143V12.7885C18.6687 12.9589 18.8471 13.053 18.9814 12.9749L19.4752 12.6878C20.0556 12.3503 20.7962 12.552 21.1292 13.1328L21.8386 14.37C22.1704 14.9487 21.9749 15.6904 21.3965 16.0267L20.9028 16.3137C20.7616 16.3958 20.7615 16.6042 20.9028 16.6863L21.3965 16.9733C21.9749 17.3096 22.1705 18.0513 21.8386 18.63L21.1293 19.8672C20.7963 20.448 20.0557 20.6497 19.4753 20.3122L18.9814 20.0251C18.8471 19.947 18.6687 20.0411 18.6687 20.2114V20.7857C18.6687 21.4531 18.1305 22 17.4594 22H16.0407C15.3695 22 14.8313 21.4531 14.8313 20.7857V20.2116C14.8313 20.0413 14.653 19.9472 14.5186 20.0253L14.0248 20.3124C13.4444 20.6498 12.7038 20.4482 12.3708 19.8674L11.8734 19H5.2C4.61652 19 4.05694 18.7682 3.64437 18.3556C3.23179 17.9431 3 17.3835 3 16.8V16.5C3 14.7761 3.68482 13.1228 4.90381 11.9038C5.68359 11.124 6.6411 10.5628 7.68113 10.2597C6.66357 9.53448 6 8.34473 6 7C6 4.79086 7.79086 3 10 3C12.2091 3 14 4.79086 14 7ZM7 7C7 5.34315 8.34315 4 10 4C11.6569 4 13 5.34315 13 7C13 8.65685 11.6569 10 10 10C8.34315 10 7 8.65685 7 7ZM5.61091 12.6109C6.64236 11.5795 8.04131 11 9.5 11H10.5C11.9587 11 13.3576 11.5795 14.3891 12.6109C14.5062 12.7281 14.6175 12.8499 14.7228 12.9761C14.6619 13.0098 14.5849 13.0132 14.5186 12.9747L14.0249 12.6876C13.4444 12.3502 12.7038 12.5518 12.3708 13.1326L11.6615 14.3698C11.3296 14.9486 11.5252 15.6902 12.1036 16.0265L12.5975 16.3137C12.7388 16.3958 12.7388 16.6042 12.5975 16.6863L12.1035 16.9735C11.7235 17.1944 11.5088 17.5903 11.5003 18H5.2C4.88174 18 4.57652 17.8736 4.35147 17.6485C4.12643 17.4235 4 17.1183 4 16.8V16.5C4 15.0413 4.57946 13.6424 5.61091 12.6109ZM15.8313 12.2143C15.8313 12.0927 15.9283 12 16.0407 12H17.4594C17.5717 12 17.6687 12.0927 17.6687 12.2143V12.7885C17.6687 13.7179 18.6726 14.3111 19.484 13.8394L19.9778 13.5523C20.0759 13.4953 20.2029 13.5277 20.2617 13.6302L20.9711 14.8674C21.031 14.9719 20.994 15.1039 20.8939 15.1621L20.4002 15.4491C19.5958 15.9168 19.5958 17.0831 20.4002 17.5508L20.8939 17.8379C20.9941 17.8961 21.031 18.0281 20.9711 18.1326L20.2618 19.3698C20.203 19.4723 20.076 19.5047 19.9779 19.4477L19.484 19.1606C18.6726 18.6888 17.6687 19.2821 17.6687 20.2114V20.7857C17.6687 20.9073 17.5717 21 17.4594 21H16.0407C15.9283 21 15.8313 20.9073 15.8313 20.7857V20.2116C15.8313 19.2822 14.8275 18.689 14.016 19.1608L13.5222 19.4479C13.4241 19.5049 13.297 19.4725 13.2383 19.37L12.5289 18.1328C12.469 18.0283 12.506 17.8962 12.6061 17.838L13.1001 17.5508C13.9046 17.0831 13.9046 15.9168 13.1001 15.4491L12.6062 15.162C12.506 15.1038 12.4691 14.9717 12.529 14.8672L13.2383 13.63C13.2971 13.5275 13.4242 13.4951 13.5223 13.5521L14.016 13.8392C14.8275 14.311 15.8313 13.7177 15.8313 12.7884V12.2143Z" fill="#00164E"/>
</svg>
