<svg width="24" height="24" viewBox="0 0 24 24" fill="none" xmlns="http://www.w3.org/2000/svg">
<path fill-rule="evenodd" clip-rule="evenodd" d="M11.5 3C9.567 3 8 4.567 8 6.5V13.5C8 15.433 9.567 17 11.5 17C13.433 17 15 15.433 15 13.5V6.5C15 4.567 13.433 3 11.5 3ZM9 6.5C9 5.11929 10.1193 4 11.5 4C12.8807 4 14 5.11929 14 6.5V13.5C14 14.8807 12.8807 16 11.5 16C10.1193 16 9 14.8807 9 13.5V6.5Z" fill="#00164E"/>
<path d="M7 13C7 12.7239 6.77614 12.5 6.5 12.5C6.22386 12.5 6 12.7239 6 13V13.5C6 16.369 8.19675 18.725 11 18.9776V20H10.5C10.2239 20 10 20.2239 10 20.5C10 20.7761 10.2239 21 10.5 21H12.5C12.7761 21 13 20.7761 13 20.5C13 20.2239 12.7761 20 12.5 20H12V18.9776C14.8033 18.725 17 16.369 17 13.5V13C17 12.7239 16.7761 12.5 16.5 12.5C16.2239 12.5 16 12.7239 16 13V13.5C16 15.9853 13.9853 18 11.5 18C9.01472 18 7 15.9853 7 13.5V13Z" fill="#00164E"/>
</svg>
