<svg width="24" height="24" viewBox="0 0 24 24" fill="none" xmlns="http://www.w3.org/2000/svg">
<path fill-rule="evenodd" clip-rule="evenodd" d="M7.88886 13.3371C8.21776 13.1173 8.60444 13 9 13C9.53043 13 10.0391 13.2107 10.4142 13.5858C10.7893 13.9609 11 14.4696 11 15C11 15.3956 10.8827 15.7822 10.6629 16.1111C10.4432 16.44 10.1308 16.6964 9.76537 16.8478C9.39992 16.9991 8.99778 17.0387 8.60982 16.9616C8.22186 16.8844 7.86549 16.6939 7.58579 16.4142C7.30608 16.1345 7.1156 15.7781 7.03843 15.3902C6.96126 15.0022 7.00087 14.6001 7.15224 14.2346C7.30362 13.8692 7.55996 13.5568 7.88886 13.3371ZM9 14C8.80222 14 8.60888 14.0586 8.44443 14.1685C8.27998 14.2784 8.15181 14.4346 8.07612 14.6173C8.00043 14.8 7.98063 15.0011 8.01922 15.1951C8.0578 15.3891 8.15304 15.5673 8.29289 15.7071C8.43275 15.847 8.61093 15.9422 8.80491 15.9808C8.99889 16.0194 9.19996 15.9996 9.38268 15.9239C9.56541 15.8482 9.72159 15.72 9.83147 15.5556C9.94135 15.3911 10 15.1978 10 15C10 14.7348 9.89464 14.4804 9.70711 14.2929C9.51957 14.1054 9.26522 14 9 14Z" fill="#00164E"/>
<path fill-rule="evenodd" clip-rule="evenodd" d="M2 6.5C2 6.22386 2.22386 6 2.5 6H14.5C14.5776 6 14.6542 6.01807 14.7236 6.05279L18.7236 8.05279C18.893 8.13748 19 8.31061 19 8.5V13H21V12.5C21 12.2239 21.2239 12 21.5 12C21.7761 12 22 12.2239 22 12.5V13.5C22 13.7761 21.7761 14 21.5 14H19V14.5C19 14.7761 18.7761 15 18.5 15H13C13 15.7911 12.7654 16.5645 12.3259 17.2223C11.8864 17.8801 11.2616 18.3928 10.5307 18.6955C9.79983 18.9983 8.99556 19.0775 8.21964 18.9231C7.44372 18.7688 6.73098 18.3878 6.17157 17.8284C5.61216 17.269 5.2312 16.5563 5.07686 15.7804C5.0255 15.5221 5 15.2608 5 15H2.5C2.22386 15 2 14.7761 2 14.5V6.5ZM12.8769 14.0153C12.9163 14.0053 12.9575 14 13 14H18V10H3V14H5C5.04248 14 5.08372 14.0053 5.12311 14.0153C5.17019 13.8299 5.2307 13.6474 5.30448 13.4693C5.60723 12.7384 6.11992 12.1136 6.77772 11.6741C7.43552 11.2346 8.20888 11 9 11C10.0609 11 11.0783 11.4214 11.8284 12.1716C12.3417 12.6849 12.7011 13.3234 12.8769 14.0153ZM14.382 7L18 8.80902V9H3V7H14.382ZM7.33329 12.5056C7.82664 12.1759 8.40666 12 9 12C9.79565 12 10.5587 12.3161 11.1213 12.8787C11.6839 13.4413 12 14.2044 12 15C12 15.5933 11.8241 16.1734 11.4944 16.6667C11.1648 17.1601 10.6962 17.5446 10.1481 17.7716C9.59987 17.9987 8.99667 18.0581 8.41473 17.9424C7.83279 17.8266 7.29824 17.5409 6.87868 17.1213C6.45912 16.7018 6.1734 16.1672 6.05765 15.5853C5.94189 15.0033 6.0013 14.4001 6.22836 13.8519C6.45543 13.3038 6.83994 12.8352 7.33329 12.5056Z" fill="#00164E"/>
</svg>
