<svg width="24" height="24" viewBox="0 0 24 24" fill="none" xmlns="http://www.w3.org/2000/svg">
<path fill-rule="evenodd" clip-rule="evenodd" d="M19.9974 10.2829C19.8446 10.2969 19.6912 10.3043 19.5373 10.3053C17.8534 10.3053 16.2835 9.48832 15.3613 8.1321V15.5312C15.3613 18.5519 12.8173 21 9.68065 21C6.54292 21 4 18.5519 4 15.5312C4 12.511 6.54292 10.0629 9.68065 10.0629C9.79878 10.0629 9.91483 10.0729 10.0314 10.0799V12.7749C9.91483 12.7614 9.80033 12.741 9.68065 12.741C8.07914 12.741 6.78126 13.9909 6.78126 15.5317C6.78126 17.0735 8.07914 18.323 9.68065 18.323C11.2821 18.323 12.6961 17.1084 12.6961 15.5666L12.7246 3H15.4027C15.6551 5.31191 17.5913 7.11805 20 7.28764V10.2829" fill="#00164E"/>
</svg>
