<svg width="24" height="24" viewBox="0 0 24 24" fill="none" xmlns="http://www.w3.org/2000/svg">
<path fill-rule="evenodd" clip-rule="evenodd" d="M3 6.5C3 5.94772 3.44772 5.5 4 5.5H19C19.5523 5.5 20 5.94772 20 6.5V10C20 10.2761 19.7761 10.5 19.5 10.5C19.2239 10.5 19 10.2761 19 10V9.5C18.2044 9.5 17.4413 9.18393 16.8787 8.62132C16.3161 8.05871 16 7.29565 16 6.5H7C7 7.29565 6.68393 8.05871 6.12132 8.62132C5.55871 9.18393 4.79565 9.5 4 9.5V12.5C4.79565 12.5 5.55871 12.8161 6.12132 13.3787C6.68393 13.9413 7 14.7044 7 15.5H14C14.2761 15.5 14.5 15.7239 14.5 16C14.5 16.2761 14.2761 16.5 14 16.5H4C3.44772 16.5 3 16.0523 3 15.5V6.5ZM17.5858 7.91421C17.2107 7.53914 17 7.03043 17 6.5H19V8.5C18.4696 8.5 17.9609 8.28929 17.5858 7.91421ZM4 6.5L6 6.5C6 7.03043 5.78929 7.53914 5.41422 7.91421C5.03914 8.28929 4.53043 8.5 4 8.5V6.5ZM5.41422 14.0858C5.78929 14.4609 6 14.9696 6 15.5H4V13.5C4.53043 13.5 5.03914 13.7107 5.41422 14.0858Z" fill="#00164E"/>
<path d="M6.5 9.5C6.77614 9.5 7 9.72386 7 10V12C7 12.2761 6.77614 12.5 6.5 12.5C6.22386 12.5 6 12.2761 6 12V10C6 9.72386 6.22386 9.5 6.5 9.5Z" fill="#00164E"/>
<path d="M16.5 9.5C16.7761 9.5 17 9.72386 17 10V10.5C17 10.7761 16.7761 11 16.5 11C16.2239 11 16 10.7761 16 10.5V10C16 9.72386 16.2239 9.5 16.5 9.5Z" fill="#00164E"/>
<path fill-rule="evenodd" clip-rule="evenodd" d="M11.5 8.5C10.1193 8.5 9 9.61929 9 11C9 12.3807 10.1193 13.5 11.5 13.5C12.8807 13.5 14 12.3807 14 11C14 9.61929 12.8807 8.5 11.5 8.5ZM10 11C10 10.1716 10.6716 9.5 11.5 9.5C12.3284 9.5 13 10.1716 13 11C13 11.8284 12.3284 12.5 11.5 12.5C10.6716 12.5 10 11.8284 10 11Z" fill="#00164E"/>
<path fill-rule="evenodd" clip-rule="evenodd" d="M15.937 17.3557L13.646 19.6466C13.4508 19.8419 13.4508 20.1585 13.646 20.3537C13.8413 20.549 14.1579 20.549 14.3531 20.3537L16.6441 18.0628C17.2566 18.5274 18.0204 18.803 18.8485 18.803C20.8652 18.803 22.5 17.1682 22.5 15.1515C22.5 13.1348 20.8652 11.5 18.8485 11.5C16.8318 11.5 15.197 13.1348 15.197 15.1515C15.197 15.9795 15.4725 16.7431 15.937 17.3557ZM18.8485 12.5C20.3129 12.5 21.5 13.6871 21.5 15.1515C21.5 16.6159 20.3129 17.803 18.8485 17.803C17.3841 17.803 16.197 16.6159 16.197 15.1515C16.197 13.6871 17.3841 12.5 18.8485 12.5Z" fill="#00164E"/>
</svg>
