<svg width="24" height="24" viewBox="0 0 24 24" fill="none" xmlns="http://www.w3.org/2000/svg">
<path fill-rule="evenodd" clip-rule="evenodd" d="M4.5 4C3.11929 4 2 5.11929 2 6.5V14.5C2 15.8807 3.11929 17 4.5 17H10.5C10.7761 17 11 16.7761 11 16.5C11 16.2239 10.7761 16 10.5 16H4.5C3.67157 16 3 15.3284 3 14.5V11H20V11.5C20 11.7761 20.2239 12 20.5 12C20.7761 12 21 11.7761 21 11.5V6.5C21 5.11929 19.8807 4 18.5 4H4.5ZM3 6.5C3 5.67157 3.67157 5 4.5 5H18.5C19.3284 5 20 5.67157 20 6.5V8H3V6.5Z" fill="#00164E"/>
<path d="M4.5 13C4.5 12.7239 4.72386 12.5 5 12.5H9C9.27614 12.5 9.5 12.7239 9.5 13C9.5 13.2761 9.27614 13.5 9 13.5H5C4.72386 13.5 4.5 13.2761 4.5 13Z" fill="#00164E"/>
<path d="M17 14.5C17.2761 14.5 17.5 14.7238 17.5 15V16.6213H19.1213C19.3975 16.6213 19.6213 16.8451 19.6213 17.1213C19.6213 17.3974 19.3975 17.6213 19.1213 17.6213H17.5V19.2426C17.5 19.5187 17.2761 19.7426 17 19.7426C16.7239 19.7426 16.5 19.5187 16.5 19.2426V17.6213H14.8787C14.6025 17.6213 14.3787 17.3974 14.3787 17.1213C14.3787 16.8451 14.6025 16.6213 14.8787 16.6213H16.5V15C16.5 14.7238 16.7239 14.5 17 14.5Z" fill="#00164E"/>
<path fill-rule="evenodd" clip-rule="evenodd" d="M17 12C14.2386 12 12 14.2386 12 17C12 19.7614 14.2386 22 17 22C19.7614 22 22 19.7614 22 17C22 14.2386 19.7614 12 17 12ZM13 17C13 14.7909 14.7909 13 17 13C19.2091 13 21 14.7909 21 17C21 19.2091 19.2091 21 17 21C14.7909 21 13 19.2091 13 17Z" fill="#00164E"/>
</svg>
