<svg width="24" height="24" viewBox="0 0 24 24" fill="none" xmlns="http://www.w3.org/2000/svg">
<path fill-rule="evenodd" clip-rule="evenodd" d="M8.49497 4.68639C9.41378 3.90862 10.6591 3.5 12 3.5C13.3409 3.5 14.5862 3.90862 15.505 4.68639C16.4318 5.47088 17 6.61054 17 8H17.5C19.433 8 21 9.567 21 11.5C21 13.433 19.433 15 17.5 15H6.5C4.567 15 3 13.433 3 11.5C3 9.567 4.567 8 6.5 8H7C7 6.61054 7.56823 5.47088 8.49497 4.68639ZM9.14107 5.44965C8.43913 6.04384 8 6.90417 8 8C8 8.15061 8.0083 8.2991 8.02444 8.44506L8.08578 9H6.5C5.11929 9 4 10.1193 4 11.5C4 12.8807 5.11929 14 6.5 14H17.5C18.8807 14 20 12.8807 20 11.5C20 10.1193 18.8807 9 17.5 9H15.9142L15.9756 8.44506C15.9917 8.2991 16 8.15061 16 8C16 6.90417 15.5609 6.04384 14.8589 5.44965C14.1491 4.84874 13.1444 4.5 12 4.5C10.8556 4.5 9.85094 4.84874 9.14107 5.44965Z" fill="#00164E"/>
<path d="M8 16.5C8 16.7761 7.77614 17 7.5 17C7.22386 17 7 16.7761 7 16.5C7 16.2239 7.22386 16 7.5 16C7.77614 16 8 16.2239 8 16.5Z" fill="#00164E"/>
<path d="M10.5 17C10.7761 17 11 16.7761 11 16.5C11 16.2239 10.7761 16 10.5 16C10.2239 16 10 16.2239 10 16.5C10 16.7761 10.2239 17 10.5 17Z" fill="#00164E"/>
<path d="M14 16.5C14 16.7761 13.7761 17 13.5 17C13.2239 17 13 16.7761 13 16.5C13 16.2239 13.2239 16 13.5 16C13.7761 16 14 16.2239 14 16.5Z" fill="#00164E"/>
<path d="M12 19.5C12.2761 19.5 12.5 19.2761 12.5 19C12.5 18.7239 12.2761 18.5 12 18.5C11.7239 18.5 11.5 18.7239 11.5 19C11.5 19.2761 11.7239 19.5 12 19.5Z" fill="#00164E"/>
<path d="M12.5 21.5C12.5 21.7761 12.2761 22 12 22C11.7239 22 11.5 21.7761 11.5 21.5C11.5 21.2239 11.7239 21 12 21C12.2761 21 12.5 21.2239 12.5 21.5Z" fill="#00164E"/>
<path d="M15 19.5C15.2761 19.5 15.5 19.2761 15.5 19C15.5 18.7239 15.2761 18.5 15 18.5C14.7239 18.5 14.5 18.7239 14.5 19C14.5 19.2761 14.7239 19.5 15 19.5Z" fill="#00164E"/>
<path d="M9.5 19C9.5 19.2761 9.27614 19.5 9 19.5C8.72386 19.5 8.5 19.2761 8.5 19C8.5 18.7239 8.72386 18.5 9 18.5C9.27614 18.5 9.5 18.7239 9.5 19Z" fill="#00164E"/>
<path d="M16.5 17C16.7761 17 17 16.7761 17 16.5C17 16.2239 16.7761 16 16.5 16C16.2239 16 16 16.2239 16 16.5C16 16.7761 16.2239 17 16.5 17Z" fill="#00164E"/>
</svg>
