<svg width="24" height="24" viewBox="0 0 24 24" fill="none" xmlns="http://www.w3.org/2000/svg">
<path fill-rule="evenodd" clip-rule="evenodd" d="M12 2C6.47715 2 2 6.47715 2 12C2 17.5228 6.47715 22 12 22C17.5228 22 22 17.5228 22 12C22 6.47715 17.5228 2 12 2ZM11 15C11 15 11 15.5 11.5 15.5C12 15.5 12 15 12 15C12 14.8274 11.9988 14.6682 11.9977 14.5207C11.9861 12.9588 11.9843 12.7096 13.5 11.809C14.625 11.1406 15.5 10.4244 15.5 8.86472C15.5 7.17772 14.1719 6 12.1406 6C10.4062 6 9.34375 6.85942 8.5 8.0053V8.12685C8.5 8.52816 8.92218 8.78929 9.28125 8.61008C9.9375 7.67109 10.75 7.00265 12.0781 7.00265C13.5312 7.00265 14.3906 7.73475 14.3906 8.92838C14.3906 10.122 13.8438 10.5517 12.5938 11.3316C11.5625 11.9523 11 12.3859 11 13.5V15ZM11.5 18C11.9142 18 12.25 17.6642 12.25 17.25C12.25 16.8358 11.9142 16.5 11.5 16.5C11.0858 16.5 10.75 16.8358 10.75 17.25C10.75 17.6642 11.0858 18 11.5 18Z" fill="#00164E"/>
</svg>
