<svg width="24" height="24" viewBox="0 0 24 24" fill="none" xmlns="http://www.w3.org/2000/svg">
<path d="M11.9998 2.75C11.7236 2.75 11.4998 2.97386 11.4998 3.25V5.0278C11.4998 5.30394 11.7236 5.5278 11.9998 5.5278C12.2759 5.5278 12.4998 5.30394 12.4998 5.0278V3.25C12.4998 2.97386 12.2759 2.75 11.9998 2.75Z" fill="#00164E"/>
<path fill-rule="evenodd" clip-rule="evenodd" d="M7.96159 9.67073C8.11559 8.98628 8.72344 8.5 9.425 8.5H14.575C15.2766 8.5 15.8844 8.98628 16.0384 9.67073L16.9 13.5H19.075C19.7766 13.5 20.3844 13.9863 20.5384 14.6707L21.4878 18.8902C21.5212 19.0384 21.4853 19.1937 21.3904 19.3123C21.2956 19.431 21.1519 19.5 21 19.5H3C2.84811 19.5 2.70446 19.431 2.60957 19.3123C2.51468 19.1937 2.47886 19.0384 2.5122 18.8902L3.46159 14.6707C3.61559 13.9863 4.22344 13.5 4.925 13.5H7.1L7.96159 9.67073ZM12 16.7222L12.4616 14.6707C12.4747 14.6123 12.4912 14.5553 12.5107 14.5H11.4893C11.5088 14.5553 11.5253 14.6123 11.5384 14.6707L12 16.7222ZM15.875 13.5L15.0628 9.89024C15.0115 9.66209 14.8089 9.5 14.575 9.5H9.425C9.19115 9.5 8.98853 9.66209 8.9372 9.89024L8.125 13.5H15.875ZM13.925 14.5C13.6911 14.5 13.4885 14.6621 13.4372 14.8902L12.625 18.5H20.375L19.5628 14.8902C19.5115 14.6621 19.3089 14.5 19.075 14.5H13.925ZM10.075 14.5C10.3089 14.5 10.5115 14.6621 10.5628 14.8902L11.375 18.5H3.625L4.4372 14.8902C4.48853 14.6621 4.69115 14.5 4.925 14.5H10.075Z" fill="#00164E"/>
<path d="M20.4999 11.2501C20.4999 10.9739 20.2761 10.7501 19.9999 10.7501H18.2221C17.946 10.7501 17.7221 10.9739 17.7221 11.2501C17.7221 11.5262 17.946 11.7501 18.2221 11.7501H19.9999C20.2761 11.7501 20.4999 11.5262 20.4999 11.2501Z" fill="#00164E"/>
<path d="M6.27734 11.2501C6.27734 10.9739 6.05349 10.7501 5.77734 10.7501H3.99954C3.7234 10.7501 3.49954 10.9739 3.49954 11.2501C3.49954 11.5262 3.7234 11.7501 3.99954 11.7501H5.77734C6.05349 11.7501 6.27734 11.5262 6.27734 11.2501Z" fill="#00164E"/>
<path d="M5.97757 5.25136C5.78268 5.447 5.78329 5.76358 5.97893 5.95846L7.28688 7.26139C7.48252 7.45628 7.7991 7.45567 7.99399 7.26003C8.18887 7.0644 8.18827 6.74781 7.99263 6.55293L6.68467 5.25C6.48904 5.05511 6.17245 5.05572 5.97757 5.25136Z" fill="#00164E"/>
<path d="M17.9985 5.22799C17.8028 5.03311 17.4862 5.03372 17.2914 5.22936L15.9884 6.53731C15.7935 6.73295 15.7941 7.04953 15.9898 7.24442C16.1854 7.4393 16.502 7.43869 16.6969 7.24305L17.9998 5.9351C18.1947 5.73946 18.1941 5.42288 17.9985 5.22799Z" fill="#00164E"/>
</svg>
