<svg width="24" height="24" viewBox="0 0 24 24" fill="none" xmlns="http://www.w3.org/2000/svg">
<path fill-rule="evenodd" clip-rule="evenodd" d="M5 3.5C5 3.22386 5.22386 3 5.5 3H13V6.29999C13 6.68659 13.3134 6.99999 13.7 6.99999H17V12.5C17 12.7761 17.2239 13 17.5 13C17.7761 13 18 12.7761 18 12.5V6.71808C18 6.30538 17.83 5.91339 17.5316 5.63068L14.1331 2.41107C13.8545 2.14712 13.4853 2 13.1015 2H5.5C4.67157 2 4 2.67157 4 3.5V19.5C4 20.3284 4.67157 21 5.5 21H11.5C11.7761 21 12 20.7761 12 20.5C12 20.2239 11.7761 20 11.5 20H5.5C5.22386 20 5 19.7761 5 19.5V3.5ZM16.2929 5.99999L14 3.7071V5.99999H16.2929Z" fill="#00164E"/>
<path fill-rule="evenodd" clip-rule="evenodd" d="M17 14C15.9649 14 15.0031 14.232 14.2823 14.6324C13.5785 15.0234 13 15.6435 13 16.4444C13 16.5301 13.0066 16.6138 13.0193 16.6953C13.0067 16.7391 13 16.7855 13 16.8334V19.9444C13 20.3219 13.1742 20.6438 13.4128 20.8946C13.649 21.1428 13.9672 21.3435 14.3221 21.5012C15.0331 21.8173 15.9803 22 17 22C18.0197 22 18.9669 21.8173 19.6779 21.5012C20.0328 21.3435 20.351 21.1428 20.5872 20.8946C20.8258 20.6438 21 20.3219 21 19.9444V16.8334C21 16.7855 20.9933 16.7391 20.9807 16.6953C20.9934 16.6138 21 16.5301 21 16.4444C21 15.6435 20.4215 15.0234 19.7177 14.6324C18.9969 14.232 18.0351 14 17 14ZM14 16.4444C14 16.1715 14.205 15.8193 14.7679 15.5066C15.3139 15.2033 16.1021 15 17 15C17.8979 15 18.6861 15.2033 19.2321 15.5066C19.795 15.8193 20 16.1715 20 16.4444C20 16.7174 19.795 17.0696 19.2321 17.3823C18.6861 17.6856 17.8979 17.8889 17 17.8889C16.1021 17.8889 15.3139 17.6856 14.7679 17.3823C14.205 17.0696 14 16.7174 14 16.4444ZM20 18.0821C19.9091 18.1445 19.8146 18.2026 19.7177 18.2565C18.9969 18.6569 18.0351 18.8889 17 18.8889C15.9649 18.8889 15.0031 18.6569 14.2823 18.2565C14.1854 18.2026 14.0909 18.1445 14 18.0821V18.3889C14 18.441 14.0217 18.5283 14.1372 18.6497C14.2553 18.7737 14.4497 18.9082 14.7282 19.032C15.2839 19.2789 16.0867 19.4445 17 19.4445C17.9133 19.4445 18.7161 19.2789 19.2718 19.032C19.5503 18.9082 19.7447 18.7737 19.8628 18.6497C19.9783 18.5283 20 18.441 20 18.3889V18.0821ZM20 19.7843C19.8972 19.8425 19.7894 19.8962 19.6779 19.9458C18.9669 20.2618 18.0197 20.4445 17 20.4445C15.9803 20.4445 15.0331 20.2618 14.3221 19.9458C14.2106 19.8962 14.1028 19.8425 14 19.7843V19.9444C14 19.9965 14.0217 20.0837 14.1372 20.2052C14.2553 20.3292 14.4497 20.4637 14.7282 20.5874C15.2839 20.8344 16.0867 21 17 21C17.9133 21 18.7161 20.8344 19.2718 20.5874C19.5503 20.4637 19.7447 20.3292 19.8628 20.2052C19.9783 20.0837 20 19.9965 20 19.9444V19.7843Z" fill="#00164E"/>
<path d="M8.5 18C9.32843 18 10 17.3284 10 16.5C10 15.6716 9.32843 15 8.5 15C7.67157 15 7 15.6716 7 16.5C7 17.3284 7.67157 18 8.5 18Z" fill="#00164E"/>
<path d="M7 7C6.72386 7 6.5 7.22386 6.5 7.5C6.5 7.77614 6.72386 8 7 8H10.57C10.8461 8 11.07 7.77614 11.07 7.5C11.07 7.22386 10.8461 7 10.57 7H7Z" fill="#00164E"/>
<path d="M6.5 12.5C6.5 12.2239 6.72386 12 7 12H13C13.2761 12 13.5 12.2239 13.5 12.5C13.5 12.7761 13.2761 13 13 13H7C6.72386 13 6.5 12.7761 6.5 12.5Z" fill="#00164E"/>
<path d="M7 9.5C6.72386 9.5 6.5 9.72386 6.5 10C6.5 10.2761 6.72386 10.5 7 10.5H14.5C14.7761 10.5 15 10.2761 15 10C15 9.72386 14.7761 9.5 14.5 9.5H7Z" fill="#00164E"/>
</svg>
