<svg width="24" height="24" viewBox="0 0 24 24" fill="none" xmlns="http://www.w3.org/2000/svg">
<path d="M18.3536 19.3536L19.8536 17.8536C20.0488 17.6583 20.0488 17.3417 19.8536 17.1464L18.3536 15.6464C18.1583 15.4512 17.8417 15.4512 17.6464 15.6464C17.4512 15.8417 17.4512 16.1583 17.6464 16.3536L18.2929 17H15.5C15.2239 17 15 17.2239 15 17.5C15 17.7761 15.2239 18 15.5 18H18.2929L17.6464 18.6464C17.4512 18.8417 17.4512 19.1583 17.6464 19.3536C17.8417 19.5488 18.1583 19.5488 18.3536 19.3536Z" fill="#00164E"/>
<path fill-rule="evenodd" clip-rule="evenodd" d="M14.3291 3.03011C14.4786 2.97575 14.645 2.99575 14.7774 3.08398L20.7774 7.08398C20.9342 7.18856 21.0189 7.37248 20.9964 7.55967C20.9739 7.74685 20.8481 7.90547 20.6709 7.9699L18.6879 8.69098L20.7774 10.084C20.9342 10.1885 21.0189 10.3725 20.9964 10.5597C20.9739 10.7468 20.8481 10.9055 20.6709 10.9699L18.6879 11.691L20.7774 13.084C20.9342 13.1885 21.0189 13.3725 20.9964 13.5597C20.9739 13.7468 20.8481 13.9055 20.6709 13.9699L20.4078 14.0655C21.3818 14.891 22 16.1233 22 17.5C22 19.9853 19.9853 22 17.5 22C15.7632 22 14.2563 21.0161 13.5061 19.5753L9.67088 20.9699C9.52141 21.0243 9.355 21.0042 9.22266 20.916L3.22266 16.916C3.06579 16.8114 2.98108 16.6275 3.00358 16.4403C3.02608 16.2532 3.15196 16.0945 3.32914 16.0301L5.31216 15.309L3.22266 13.916C3.06579 13.8114 2.98108 13.6275 3.00358 13.4403C3.02608 13.2531 3.15196 13.0945 3.32914 13.0301L5.31214 12.309L3.22266 10.916C3.06579 10.8114 2.98108 10.6275 3.00358 10.4403C3.02608 10.2531 3.15196 10.0945 3.32914 10.0301L5.31213 9.309L3.22266 7.91603C3.06579 7.81145 2.98108 7.62752 3.00358 7.44034C3.02608 7.25315 3.15196 7.09454 3.32914 7.03011L14.3291 3.03011ZM19.4004 13.3678L19.3371 13.3908C18.7761 13.1397 18.1544 13 17.5 13C15.721 13 14.1831 14.0323 13.4527 15.5306L9.56688 16.9436L4.59964 13.6322L6.34491 12.9975L9.22266 14.916C9.355 15.0042 9.52141 15.0242 9.67088 14.9699L17.5214 12.1152L19.4004 13.3678ZM9.67088 17.9699L13.0646 16.7358C13.0221 16.9842 13 17.2395 13 17.5C13 17.8946 13.0508 18.2774 13.1462 18.6421L9.56688 19.9437L4.59964 16.6322L6.34489 15.9975L9.22266 17.916C9.355 18.0042 9.52141 18.0242 9.67088 17.9699ZM9.56688 13.9436L19.4004 10.3678L17.5214 9.11516L9.67088 11.9699C9.52141 12.0242 9.355 12.0042 9.22266 11.916L6.34491 9.99751L4.59964 10.6322L9.56688 13.9436ZM9.56688 10.9436L17.4174 8.08891L17.4207 8.08773L19.4004 7.36784L14.4331 4.05635L4.59964 7.63217L6.68682 9.02361L6.68912 9.02514L9.56688 10.9436ZM17.5 14C15.567 14 14 15.567 14 17.5C14 19.433 15.567 21 17.5 21C19.433 21 21 19.433 21 17.5C21 15.567 19.433 14 17.5 14Z" fill="#00164E"/>
</svg>
