<svg width="24" height="24" viewBox="0 0 24 24" fill="none" xmlns="http://www.w3.org/2000/svg">
<path d="M9.5 9C9.77614 9 10 9.22386 10 9.5V18.5C10 18.7761 9.77614 19 9.5 19C9.22386 19 9 18.7761 9 18.5V9.5C9 9.22386 9.22386 9 9.5 9Z" fill="#00164E"/>
<path d="M12.5 9C12.7761 9 13 9.22386 13 9.5V18.5C13 18.7761 12.7761 19 12.5 19C12.2239 19 12 18.7761 12 18.5V9.5C12 9.22386 12.2239 9 12.5 9Z" fill="#00164E"/>
<path d="M16 9.5C16 9.22386 15.7761 9 15.5 9C15.2239 9 15 9.22386 15 9.5V18.5C15 18.7761 15.2239 19 15.5 19C15.7761 19 16 18.7761 16 18.5V9.5Z" fill="#00164E"/>
<path fill-rule="evenodd" clip-rule="evenodd" d="M11.5 1C10.6716 1 10 1.67157 10 2.5V6H7.5C6.67157 6 6 6.67157 6 7.5V20.5C6 21.3284 6.67157 22 7.5 22H8.08535C8.29127 22.5826 8.84689 23 9.5 23C10.1531 23 10.7087 22.5826 10.9146 22H14.0854C14.2913 22.5826 14.8469 23 15.5 23C16.1531 23 16.7087 22.5826 16.9146 22H17.5C18.3284 22 19 21.3284 19 20.5V7.5C19 6.67157 18.3284 6 17.5 6H15V2.5C15 1.67157 14.3284 1 13.5 1H11.5ZM11.5 2C11.2239 2 11 2.22386 11 2.5V6H14V2.5C14 2.22386 13.7761 2 13.5 2H11.5ZM7.5 7C7.22386 7 7 7.22386 7 7.5V20.5C7 20.7761 7.22386 21 7.5 21H17.5C17.7761 21 18 20.7761 18 20.5V7.5C18 7.22386 17.7761 7 17.5 7H7.5Z" fill="#00164E"/>
</svg>
