<svg width="24" height="24" viewBox="0 0 24 24" fill="none" xmlns="http://www.w3.org/2000/svg">
<path fill-rule="evenodd" clip-rule="evenodd" d="M6.30997 7.00354L7.00341 6.31009C7.00777 6.30557 7.0122 6.30114 7.01671 6.2968C10.3367 2.98386 15.7137 2.98603 19.031 6.30331L19.0317 6.30515C19.227 6.50044 19.2269 6.81703 19.0316 7.01225L13.3746 12.6673L21.1527 20.4454C21.3479 20.6407 21.3479 20.9572 21.1527 21.1525C20.9574 21.3478 20.6408 21.3478 20.4456 21.1525L12.6674 13.3743L10.5492 15.4922L10.5458 15.4957L10.5423 15.4991L7.01019 19.0312C6.81493 19.2265 6.49835 19.2265 6.30309 19.0312L6.30208 19.0302C2.98533 15.7123 2.98303 10.3361 6.29675 7.01676C6.30107 7.01228 6.30547 7.00787 6.30997 7.00354ZM7.62327 7.6234C7.18456 9.81359 7.86027 12.103 9.46543 13.7082L10.192 14.4347L14.4349 10.1923L13.7081 9.46555C12.1029 7.8604 9.81347 7.18469 7.62327 7.6234ZM15.142 9.48524L14.4152 8.75845C12.7729 7.11613 10.5068 6.32102 8.25329 6.52333C11.0726 4.19738 15.1935 4.246 17.9582 6.66903L15.142 9.48524ZM6.66741 17.958C4.24455 15.1928 4.19649 11.0721 6.52323 8.25315C6.32084 10.5068 7.11595 12.7729 8.75832 14.4153L9.48474 15.1417L6.66741 17.958Z" fill="#00164E"/>
</svg>
