<svg width="24" height="24" viewBox="0 0 24 24" fill="none" xmlns="http://www.w3.org/2000/svg">
<path fill-rule="evenodd" clip-rule="evenodd" d="M3 6.5C3 5.94772 3.44772 5.5 4 5.5H19C19.5523 5.5 20 5.94772 20 6.5V10C20 10.2761 19.7761 10.5 19.5 10.5C19.2239 10.5 19 10.2761 19 10V9.5C18.2044 9.5 17.4413 9.18393 16.8787 8.62132C16.3161 8.05871 16 7.29565 16 6.5H7C7 7.29565 6.68393 8.05871 6.12132 8.62132C5.55871 9.18393 4.79565 9.5 4 9.5V12.5C4.79565 12.5 5.55871 12.8161 6.12132 13.3787C6.68393 13.9413 7 14.7044 7 15.5H13C13.2761 15.5 13.5 15.7239 13.5 16C13.5 16.2761 13.2761 16.5 13 16.5H4C3.44771 16.5 3 16.0523 3 15.5V6.5ZM17.5858 7.91421C17.2107 7.53914 17 7.03043 17 6.5H19V8.5C18.4696 8.5 17.9609 8.28929 17.5858 7.91421ZM5.41422 7.91421C5.03914 8.28929 4.53043 8.5 4 8.5V6.5H6C6 7.03043 5.78929 7.53914 5.41422 7.91421ZM5.41422 14.0858C5.78929 14.4609 6 14.9696 6 15.5H4V13.5C4.53043 13.5 5.03914 13.7107 5.41422 14.0858Z" fill="#00164E"/>
<path d="M6.5 9.5C6.77614 9.5 7 9.72386 7 10V12C7 12.2761 6.77614 12.5 6.5 12.5C6.22386 12.5 6 12.2761 6 12V10C6 9.72386 6.22386 9.5 6.5 9.5Z" fill="#00164E"/>
<path d="M17 10C17 9.72386 16.7761 9.5 16.5 9.5C16.2239 9.5 16 9.72386 16 10V10.5C16 10.7761 16.2239 11 16.5 11C16.7761 11 17 10.7761 17 10.5V10Z" fill="#00164E"/>
<path fill-rule="evenodd" clip-rule="evenodd" d="M11.5 8.5C10.1193 8.5 9 9.61929 9 11C9 12.3807 10.1193 13.5 11.5 13.5C12.8807 13.5 14 12.3807 14 11C14 9.61929 12.8807 8.5 11.5 8.5ZM10 11C10 10.1716 10.6716 9.5 11.5 9.5C12.3284 9.5 13 10.1716 13 11C13 11.8284 12.3284 12.5 11.5 12.5C10.6716 12.5 10 11.8284 10 11Z" fill="#00164E"/>
<path d="M15.3484 19.1143L15.3442 18.288C15.344 18.0128 15.5663 17.789 15.8417 17.7876L16.6653 17.7835C16.9414 17.7821 17.1664 18.0048 17.1677 18.2809C17.1684 18.4128 17.1179 18.533 17.035 18.6228C17.2477 18.7408 17.4751 18.8331 17.7125 18.897C18.2911 19.0525 18.9029 19.0316 19.4696 18.8369C20.0362 18.6421 20.5319 18.2824 20.8931 17.8038C21.254 17.3255 21.4641 16.7503 21.4965 16.1518C21.5078 15.9139 21.4923 15.6755 21.4502 15.4411C21.4015 15.1693 21.5823 14.9095 21.8541 14.8607C22.1259 14.812 22.3858 14.9928 22.4345 15.2646C22.4899 15.5734 22.5103 15.8876 22.4953 16.201L22.4952 16.2039C22.4524 17.0017 22.1725 17.7685 21.6914 18.4061C21.2102 19.0437 20.5498 19.523 19.7946 19.7826C19.0394 20.0421 18.224 20.07 17.4529 19.8627C17.0386 19.7513 16.6472 19.5747 16.2925 19.3416C16.2097 19.5014 16.0432 19.6109 15.8509 19.6118C15.5747 19.6132 15.3497 19.3905 15.3484 19.1143Z" fill="#00164E"/>
<path d="M17.5305 13.1632C18.0972 12.9684 18.709 12.9475 19.2876 13.1031C19.525 13.1669 19.7523 13.2592 19.9651 13.3772C19.8821 13.467 19.8316 13.5872 19.8323 13.7191C19.8337 13.9952 20.0586 14.2179 20.3348 14.2166L21.1583 14.2124C21.4314 14.2111 21.6522 13.991 21.6557 13.7191L21.6559 13.7113L21.6557 13.6965L21.6517 12.8857C21.6503 12.6095 21.4253 12.3868 21.1492 12.3882C20.9568 12.3892 20.7903 12.4987 20.7075 12.6584C20.3528 12.4253 19.9615 12.2487 19.5472 12.1374C18.7761 11.93 17.9607 11.9579 17.2055 12.2175C16.4503 12.477 15.7899 12.9563 15.3087 13.5939C14.8276 14.2315 14.5477 14.9984 14.5049 15.7961L14.5048 15.799C14.4898 16.1125 14.5102 16.4266 14.5656 16.7354C14.6143 17.0072 14.8742 17.1881 15.146 17.1393C15.4178 17.0906 15.5986 16.8307 15.5499 16.5589C15.5078 16.3245 15.4923 16.0861 15.5036 15.8483C15.536 15.2497 15.7461 14.6745 16.107 14.1963C16.4682 13.7176 16.9639 13.3579 17.5305 13.1632Z" fill="#00164E"/>
</svg>
