<svg width="24" height="24" viewBox="0 0 24 24" fill="none" xmlns="http://www.w3.org/2000/svg">
<path d="M12.5 8.5C12.5 8.22386 12.2761 8 12 8C11.7239 8 11.5 8.22386 11.5 8.5V9C11.5 9.27614 11.7239 9.5 12 9.5C12.2761 9.5 12.5 9.27614 12.5 9V8.5Z" fill="#00164E"/>
<path fill-rule="evenodd" clip-rule="evenodd" d="M11.87 2C11.2472 2 10.6464 2.23837 10.2007 2.66816C9.7543 3.09853 9.5 3.68622 9.5 4.30303V5.5H8.5C8.22386 5.5 8 5.72386 8 6V9.5C8 10.8807 9.11929 12 10.5 12H13.5C14.8807 12 16 10.8807 16 9.5V6C16 5.72386 15.7761 5.5 15.5 5.5H14.5V4.30303C14.5 3.68622 14.2457 3.09853 13.7993 2.66816C13.3536 2.23837 12.7528 2 12.13 2H11.87ZM10.5 11C9.67157 11 9 10.3284 9 9.5V6.5H15V9.5C15 10.3284 14.3284 11 13.5 11H10.5ZM10.8948 3.38804C10.6397 3.63392 10.5 3.96345 10.5 4.30303V5.5H13.5V4.30303C13.5 3.96345 13.3603 3.63392 13.1052 3.38804C12.8496 3.14155 12.4991 3 12.13 3H11.87C11.5009 3 11.1504 3.14155 10.8948 3.38804Z" fill="#00164E"/>
<path d="M2 11.4997C2 11.2237 2.22363 11 2.5 11H6.5C6.77614 11 7 10.7761 7 10.5C7 10.2239 6.77614 10 6.5 10H2.5C1.6718 10 1 10.671 1 11.4997V18.5025C1 19.3325 1.67318 20 2.5 20H21.5C22.3284 20 23 19.3284 23 18.5V11.5C23 10.6716 22.3284 10 21.5 10H17.5C17.2239 10 17 10.2239 17 10.5C17 10.7761 17.2239 11 17.5 11H21.5C21.7761 11 22 11.2239 22 11.5V18.5C22 18.7761 21.7761 19 21.5 19H2.5C2.22225 19 2 18.777 2 18.5025V11.4997Z" fill="#00164E"/>
<path d="M7 15C7 15.5523 6.55228 16 6 16C5.44772 16 5 15.5523 5 15C5 14.4477 5.44772 14 6 14C6.55228 14 7 14.4477 7 15Z" fill="#00164E"/>
<path d="M10 16C10.5523 16 11 15.5523 11 15C11 14.4477 10.5523 14 10 14C9.44771 14 9 14.4477 9 15C9 15.5523 9.44771 16 10 16Z" fill="#00164E"/>
<path d="M15 15C15 15.5523 14.5523 16 14 16C13.4477 16 13 15.5523 13 15C13 14.4477 13.4477 14 14 14C14.5523 14 15 14.4477 15 15Z" fill="#00164E"/>
<path d="M18 16C18.5523 16 19 15.5523 19 15C19 14.4477 18.5523 14 18 14C17.4477 14 17 14.4477 17 15C17 15.5523 17.4477 16 18 16Z" fill="#00164E"/>
</svg>
