<svg width="24" height="24" viewBox="0 0 24 24" fill="none" xmlns="http://www.w3.org/2000/svg">
<path fill-rule="evenodd" clip-rule="evenodd" d="M12.9279 3.50121C13.2034 3.42403 13.4915 3.40288 13.7753 3.439C14.0591 3.47513 14.3328 3.5678 14.5801 3.71154L14.6071 3.72723L14.632 3.74617C15.0803 4.08786 15.3759 4.59265 15.4545 5.15093C15.5324 5.70365 15.3915 6.26476 15.0621 6.71485L13.973 8.38979L17.2821 13.4831H19.1094C19.6425 13.4831 20.1537 13.6951 20.5306 14.0722C20.9074 14.4493 21.1191 14.9606 21.1191 15.4938C21.1191 16.0269 20.9074 16.5383 20.5306 16.9154C20.3261 17.12 20.082 17.276 19.8164 17.3759C19.9279 17.5557 20.0125 17.7513 20.0669 17.9566C20.1392 18.2292 20.157 18.5135 20.1191 18.793C20.0813 19.0725 19.9887 19.3419 19.8465 19.5855C19.7044 19.8291 19.5155 20.0423 19.2907 20.2127L19.2595 20.2363L19.2249 20.2549C18.7255 20.5227 18.1409 20.5835 17.5971 20.4241C17.059 20.2665 16.6036 19.9058 16.3265 19.4188L15.0833 17.5044H14.6864L14.6812 17.5079H14.0773L14.0751 17.5044H8.04794L6.80508 19.4102C6.52594 19.8954 6.06934 20.2536 5.53116 20.4088C4.98754 20.5656 4.40414 20.5029 3.9063 20.234L3.87218 20.2156L3.84131 20.1921C3.61853 20.0228 3.43128 19.8112 3.29025 19.5695C3.14922 19.3277 3.05717 19.0606 3.01932 18.7833C2.98148 18.506 2.99859 18.2239 3.06968 17.9533C3.12291 17.7505 3.20565 17.5572 3.31492 17.3792C3.04586 17.2795 2.79867 17.1223 2.59191 16.9154C2.21507 16.5383 2.00342 16.0269 2.00342 15.4938C2.00342 14.9606 2.21507 14.4493 2.59191 14.0722C2.96876 13.6951 3.47996 13.4831 4.01306 13.4831H5.85408L9.15292 8.36936L8.07008 6.71416C7.90792 6.49019 7.79063 6.23689 7.72472 5.96824C7.65767 5.69492 7.64513 5.41106 7.6878 5.13289C7.73048 4.85471 7.82753 4.58767 7.97344 4.34704C8.11934 4.1064 8.31124 3.89688 8.53816 3.73048L8.5658 3.71021L8.59594 3.69391C9.09252 3.4253 9.67476 3.3628 10.217 3.51994C10.7562 3.67618 11.2127 4.03706 11.4894 4.52524L11.559 4.63949L11.6349 4.5219C11.7707 4.27777 11.953 4.06252 12.1715 3.88834C12.3953 3.71004 12.6524 3.5784 12.9279 3.50121ZM13.9112 10.1302L16.0895 13.4831H16.085L18.6971 17.5044H18.7021L18.8814 17.7804L18.9035 17.8118C18.9949 17.9312 19.0618 18.0675 19.1003 18.2129C19.1389 18.3583 19.1483 18.5099 19.1282 18.6589C19.108 18.808 19.0586 18.9516 18.9828 19.0815C18.9136 19.2001 18.8237 19.3051 18.7174 19.3916C18.4571 19.52 18.1577 19.5463 17.8783 19.4645C17.5863 19.3789 17.3394 19.182 17.191 18.916L17.1829 18.9013L12.6988 11.9969L13.9112 10.1302ZM19.2395 16.496C19.4592 16.4675 19.6648 16.3671 19.8232 16.2085C20.0126 16.019 20.1191 15.7619 20.1191 15.4938C20.1191 15.2256 20.0126 14.9685 19.8232 14.779C19.6339 14.5895 19.3771 14.4831 19.1094 14.4831H17.9317L19.2395 16.496ZM13.3735 7.46696L13.3769 7.47218L14.2404 6.14418L14.2498 6.13154C14.4291 5.89041 14.5062 5.58817 14.4643 5.29043C14.4238 5.00304 14.2756 4.74234 14.0505 4.56083C13.926 4.49298 13.7898 4.44892 13.649 4.431C13.4979 4.41176 13.3444 4.42302 13.1977 4.46413C13.051 4.50524 12.914 4.57536 12.7948 4.67037C12.6755 4.76538 12.5765 4.88336 12.5036 5.01734L12.4947 5.0337L12.1371 5.58813L12.1518 5.61225L9.7617 9.29992L9.7521 9.28525L6.39901 14.4831H4.01306C3.74539 14.4831 3.48862 14.5895 3.29925 14.779C3.10987 14.9685 3.00342 15.2256 3.00342 15.4938C3.00342 15.7619 3.10987 16.019 3.29925 16.2085C3.48862 16.398 3.74539 16.5044 4.01306 16.5044H5.09276L4.24016 17.7971L4.23013 17.8103C4.1403 17.9286 4.07463 18.0635 4.03688 18.2073C3.99913 18.351 3.99004 18.5008 4.01014 18.6481C4.03024 18.7953 4.07912 18.9372 4.154 19.0655C4.22235 19.1827 4.31114 19.2865 4.41603 19.372C4.6756 19.5012 4.97458 19.5286 5.25398 19.448C5.54588 19.3638 5.79323 19.1684 5.94283 18.9036L5.95065 18.8897L7.50623 16.5044H13.425L12.1109 14.4831H8.81809L10.9709 11.1723L10.9647 11.1628L13.3735 7.46696ZM11.567 12.0901L10.6611 13.4831H12.0689L12.0745 13.4795H12.4693L11.567 12.0901ZM9.74622 7.44964L10.9568 5.573L10.6264 5.0307L10.6219 5.02283C10.4741 4.75923 10.2286 4.56445 9.93867 4.48042C9.6597 4.39958 9.36093 4.42743 9.10216 4.55759C8.99313 4.64269 8.90038 4.74701 8.82854 4.8655C8.75075 4.99379 8.699 5.13618 8.67624 5.28452C8.65348 5.43287 8.66017 5.58424 8.69593 5.73C8.73168 5.87575 8.79579 6.013 8.88458 6.1339L8.89259 6.14481L9.74622 7.44964Z" fill="#00164E"/>
</svg>
