<svg width="24" height="24" viewBox="0 0 24 24" fill="none" xmlns="http://www.w3.org/2000/svg">
<path d="M19.6464 3.64645C19.8417 3.45118 20.1583 3.45118 20.3536 3.64645C20.5488 3.84171 20.5488 4.15829 20.3536 4.35355L3.35355 21.3536C3.15829 21.5488 2.84171 21.5488 2.64645 21.3536C2.45119 21.1583 2.45119 20.8417 2.64645 20.6464L19.6464 3.64645Z" fill="#00164E"/>
<path d="M15.5883 6.2904C15.1537 5.52897 14.4067 5 13.5 5H4.5C3.04425 5 2 6.36365 2 7.86364V16.1364C2 17.1584 2.48482 18.1172 3.25429 18.6244L3.99237 17.8863C3.44382 17.6364 3 16.9928 3 16.1364V7.86364C3 6.75283 3.74661 6 4.5 6H13.5C14.0454 6 14.5873 6.39454 14.8449 7.03382L15.5883 6.2904Z" fill="#00164E"/>
<path fill-rule="evenodd" clip-rule="evenodd" d="M15 11.1213L17.2759 8.84544L20.2434 7.07088C20.3979 6.97849 20.5901 6.97628 20.7467 7.06508C20.9032 7.15388 21 7.32 21 7.5V16.5C21 16.68 20.9032 16.8461 20.7467 16.9349C20.5901 17.0237 20.3979 17.0215 20.2434 16.9291L16 14.3916V16.1364C16 17.6364 14.9558 19 13.5 19H7.12132L8.12132 18H13.5C14.2534 18 15 17.2472 15 16.1364V11.1213ZM16 10.7736L20 8.38158V15.6184L16 13.2264V10.7736Z" fill="#00164E"/>
</svg>
