<svg width="24" height="24" viewBox="0 0 24 24" fill="none" xmlns="http://www.w3.org/2000/svg">
<path d="M11.9999 20C12.5522 20 12.9999 19.5523 12.9999 19C12.9999 18.4477 12.5522 18 11.9999 18C11.4476 18 10.9999 18.4477 10.9999 19C10.9999 19.5523 11.4476 20 11.9999 20Z" fill="#00164E"/>
<path fill-rule="evenodd" clip-rule="evenodd" d="M5.99988 4.88952C5.99743 4.82197 5.99744 4.75444 5.99988 4.68708L5.99988 4.5C5.99988 3.11929 7.11917 2 8.49988 2H15.4999C16.8806 2 17.9999 3.11929 17.9999 4.5V4.68707C18.0023 4.75444 18.0023 4.82197 17.9999 4.88953V19.1105C18.0023 19.178 18.0023 19.2456 17.9999 19.3129V19.5C17.9999 20.8807 16.8806 22 15.4999 22H8.49988C7.11917 22 5.99988 20.8807 5.99988 19.5V19.3129C5.99744 19.2456 5.99743 19.178 5.99988 19.1105V4.88952ZM8.7101 3C8.4781 3.01011 8.25024 3.06528 8.03926 3.16245C7.82553 3.26088 7.63331 3.40048 7.4736 3.57326C7.31388 3.74605 7.18979 3.94863 7.10844 4.16942C7.04473 4.34233 7.0082 4.52375 6.99988 4.70723V19.2928C7.0082 19.4762 7.04473 19.6577 7.10844 19.8306C7.18979 20.0514 7.31388 20.2539 7.4736 20.4267C7.63331 20.5995 7.82553 20.7391 8.03926 20.8376C8.25025 20.9347 8.47811 20.9899 8.71012 21H15.2896C15.5217 20.9899 15.7495 20.9347 15.9605 20.8376C16.1742 20.7391 16.3665 20.5995 16.5262 20.4267C16.6859 20.2539 16.81 20.0514 16.8913 19.8306C16.955 19.6577 16.9916 19.4762 16.9999 19.2928V4.70724C16.9916 4.52376 16.955 4.34233 16.8913 4.16942C16.81 3.94863 16.6859 3.74605 16.5262 3.57326C16.3665 3.40048 16.1742 3.26087 15.9605 3.16245C15.7495 3.06528 15.5217 3.01011 15.2897 3H8.7101Z" fill="#00164E"/>
</svg>
