<svg width="24" height="24" viewBox="0 0 24 24" fill="none" xmlns="http://www.w3.org/2000/svg">
<path fill-rule="evenodd" clip-rule="evenodd" d="M5 3.5C5 2.67157 5.67157 2 6.5 2H14.0858C14.4836 2 14.8651 2.15804 15.1464 2.43934L18.5607 5.85355C18.842 6.13486 19 6.51639 19 6.91421V10C19.5523 10 20 10.4477 20 11V16C20 16.5523 19.5523 17 19 17V20.5C19 21.3284 18.3284 22 17.5 22H6.5C5.67157 22 5 21.3284 5 20.5V17C4.44772 17 4 16.5523 4 16V11C4 10.4477 4.44772 10 5 10V3.5ZM6 3.5C6 3.22386 6.22386 3 6.5 3H14V6.3C14 6.6866 14.3134 7 14.7 7H18V10H6V3.5ZM6.57739 11.4051L7.43872 12.785L8.28247 11.4051H9.28735L7.95142 13.491L9.41919 15.7H8.37329L7.42114 14.2147L6.46606 15.7H5.42603L6.8938 13.4588L5.56372 11.4051H6.57739ZM18 20.5C18 20.7761 17.7761 21 17.5 21H6.5C6.22386 21 6 20.7761 6 20.5V17H18V20.5ZM17.2929 6L15 3.70711V6H17.2929ZM11.3906 11.4051L12.1699 14.3348L12.9404 11.4051H14.2412V15.7H13.4356V12.3192L12.583 15.7H11.7481L10.8984 12.3192V15.7H10.0928V11.4051H11.3906ZM18.3894 14.9764V15.7H15.366V11.4402H16.2332V14.9764H18.3894Z" fill="#00164E"/>
</svg>
