<svg width="24" height="24" viewBox="0 0 24 24" fill="none" xmlns="http://www.w3.org/2000/svg">
<path d="M15.5 17C15.5 17.1326 15.5527 17.2598 15.6464 17.3536L16.6464 18.3536C16.8417 18.5488 17.1583 18.5488 17.3536 18.3536C17.5488 18.1583 17.5488 17.8417 17.3536 17.6464L16.5 16.7929V14.5C16.5 14.2239 16.2761 14 16 14C15.7239 14 15.5 14.2239 15.5 14.5V17Z" fill="#00164E"/>
<path fill-rule="evenodd" clip-rule="evenodd" d="M15.9006 10.6841C15.7088 11.179 15.4559 11.645 15.1497 12.072C15.426 12.0247 15.7101 12 16 12C18.7614 12 21 14.2386 21 17C21 19.7614 18.7614 22 16 22C14.2056 22 12.6321 21.0548 11.75 19.6351C11.325 20.0659 10.9022 20.4924 10.5212 20.8609C10.428 20.9512 10.3033 21.0016 10.1736 21.0016H9.22594C9.0962 21.0016 8.97154 20.9512 8.87829 20.8609C8.43809 20.4351 7.94191 19.9318 7.45119 19.434L7.44839 19.4311C6.95447 18.9301 6.46615 18.4348 6.03535 18.018C5.93798 17.9238 5.883 17.7941 5.883 17.6586V15.7633C5.883 15.625 5.88781 15.4766 5.89288 15.3204C5.90249 15.0241 5.91302 14.6994 5.89332 14.3615C5.87895 14.115 5.84903 13.9029 5.80019 13.7403C5.75029 13.5742 5.69802 13.5178 5.68105 13.5046C4.86292 12.9209 4.19628 12.15 3.73683 11.2561C3.27655 10.3606 3.03762 9.36786 3.04006 8.36101L3.04009 8.3481C3.06771 7.36965 3.3127 6.40957 3.757 5.53737C4.2013 4.66517 4.83397 3.90266 5.60921 3.30504C6.38445 2.70742 7.28286 2.28964 8.23942 2.08194C9.19356 1.87476 10.1817 1.88177 11.1328 2.10243C12.3791 2.35583 13.5235 2.96986 14.4237 3.8683C15.3257 4.76848 15.9427 5.91432 16.1977 7.16289C16.4383 8.34082 16.3351 9.5631 15.9006 10.6841ZM11 17C11 17.1687 11.0084 17.3355 11.0247 17.4999H6.99988C6.97964 17.4999 6.95968 17.5011 6.94007 17.5035L6.883 17.4475V15.7633C6.883 15.6946 6.88539 15.6046 6.88855 15.4999L11.2289 15.4999C11.0802 15.9735 11 16.4774 11 17ZM12.7522 13.1983C12.3216 13.5665 11.9543 14.0066 11.6689 14.4999H10.2595C10.2661 14.4676 10.2695 14.4342 10.2695 14.3999V9.99994C10.2695 9.93369 10.2566 9.87044 10.2332 9.81258L11.786 8.93529C12.0265 8.79946 12.1112 8.49444 11.9754 8.25402C11.8396 8.01359 11.5346 7.92881 11.2941 8.06464L9.77009 8.92568L8.24604 8.06464C8.00561 7.92881 7.70059 8.01359 7.56476 8.25402C7.42893 8.49444 7.51372 8.79946 7.75414 8.93529L9.30603 9.81207C9.28249 9.87007 9.26953 9.93349 9.26953 9.99994V14.3999C9.26953 14.4342 9.27298 14.4676 9.27954 14.4999H6.90003C6.89812 14.4335 6.89538 14.3677 6.89163 14.3033C6.8752 14.0215 6.83878 13.7218 6.75791 13.4526C6.67937 13.1912 6.53997 12.8943 6.27122 12.6972L6.26554 12.6932C5.57558 12.2018 5.01344 11.5523 4.62622 10.799C4.23999 10.0475 4.03902 9.21468 4.04004 8.36987C4.06437 7.54183 4.27202 6.72946 4.64805 5.99127C5.02507 5.25117 5.56192 4.60414 6.21974 4.09703C6.87757 3.58992 7.63992 3.23541 8.45161 3.05916C9.2633 2.88292 10.104 2.88935 10.9129 3.07798L10.9274 3.08114C11.984 3.29471 12.9543 3.81466 13.7173 4.57612C14.4803 5.33757 15.0022 6.30683 15.218 7.36298C15.4201 8.35308 15.3334 9.38042 14.9682 10.3226C14.603 11.2649 13.9746 12.0822 13.158 12.6774L13.1556 12.6791C12.9664 12.8187 12.8394 13.0069 12.7522 13.1983ZM11.239 18.7291L11.2888 18.6786C11.2677 18.6196 11.2477 18.56 11.2289 18.4999H7.93457L8.16054 18.7291C8.6 19.1749 9.03502 19.6162 9.42904 20.0016H9.97049C10.3645 19.6162 10.7995 19.1749 11.239 18.7291ZM16 13C13.7909 13 12 14.7909 12 17C12 19.2091 13.7909 21 16 21C18.2091 21 20 19.2091 20 17C20 14.7909 18.2091 13 16 13Z" fill="#00164E"/>
</svg>
