<svg width="24" height="24" viewBox="0 0 24 24" fill="none" xmlns="http://www.w3.org/2000/svg">
<path fill-rule="evenodd" clip-rule="evenodd" d="M6.48017 5L6.46045 5.00156C5.74633 5.05815 5.05855 5.29646 4.4625 5.69383C3.87122 6.08802 3.3897 6.62574 3.06292 7.25657L1.57121 9.74275C1.52281 9.82341 1.49981 9.91224 1.49988 9.99992C1.186 10.4178 1 10.9372 1 11.5V14.5C1 15.3284 1.67157 16 2.5 16H3.05001C3.28164 17.1411 4.29052 18 5.5 18C6.70948 18 7.71836 17.1411 7.94999 16H16.05C16.2816 17.1411 17.2905 18 18.5 18C19.7095 18 20.7184 17.1411 20.95 16H21.5C22.3284 16 23 15.3284 23 14.5V13.5C23 11.0147 20.9853 9 18.5 9H17.7071L14.8442 6.13717L14.8345 6.1284C14.0581 5.42942 13.0583 5.0293 12.014 5H6.48017ZM5.5 13C6.70948 13 7.71836 13.8589 7.94999 15H16.05C16.2816 13.8589 17.2905 13 18.5 13C19.7095 13 20.7184 13.8589 20.95 15H21.5C21.7762 15 22 14.7761 22 14.5V13.5C22 11.567 20.433 10 18.5 10H3.5C2.67157 10 2 10.6716 2 11.5V14.5C2 14.7761 2.22386 15 2.5 15H3.05001C3.28164 13.8589 4.29052 13 5.5 13ZM16.2928 9L14.156 6.86314C13.5591 6.32975 12.793 6.02405 11.9927 6H9V9H16.2928ZM6.52045 6C5.98316 6.0458 5.46605 6.22665 5.0172 6.52588C4.56307 6.82863 4.19392 7.24251 3.94486 7.72817L3.93726 7.74298L3.1701 9.02157C3.27805 9.00734 3.38817 9 3.5 9H8V6H6.52045ZM17 15.5C17 14.6716 17.6716 14 18.5 14C19.3284 14 20 14.6716 20 15.5C20 16.3284 19.3284 17 18.5 17C17.6716 17 17 16.3284 17 15.5ZM4 15.5C4 14.6716 4.67157 14 5.5 14C6.32843 14 7 14.6716 7 15.5C7 16.3284 6.32843 17 5.5 17C4.67157 17 4 16.3284 4 15.5Z" fill="#00164E"/>
</svg>
