<svg width="24" height="24" viewBox="0 0 24 24" fill="none" xmlns="http://www.w3.org/2000/svg">
<path fill-rule="evenodd" clip-rule="evenodd" d="M3.5 6.44571C3.5 4.81884 4.81884 3.5 6.44571 3.5H11.5543C13.1812 3.5 14.5 4.81884 14.5 6.44571V13.5H15.6429C16.3924 13.5 17 14.1076 17 14.8572V18.25C17 18.9404 17.5596 19.5 18.25 19.5C18.9404 19.5 19.5 18.9404 19.5 18.25V12.3345C19.2727 12.4425 19.0184 12.5029 18.75 12.5029C17.7835 12.5029 17 11.7194 17 10.7529C17 9.98621 17.4931 9.33465 18.1794 9.09805L16.1746 7.37964C15.9649 7.19993 15.9407 6.88428 16.1204 6.67461C16.3001 6.46495 16.6157 6.44067 16.8254 6.62038L20.3254 9.62038C20.4362 9.71537 20.5 9.85405 20.5 10V18.25C20.5 19.4927 19.4926 20.5 18.25 20.5C17.0074 20.5 16 19.4927 16 18.25V14.8572C16 14.6599 15.8401 14.5 15.6429 14.5H14.5V21C14.5 21.2761 14.2761 21.5 14 21.5H4C3.72386 21.5 3.5 21.2761 3.5 21V6.44571ZM18.75 10.0029C19.1642 10.0029 19.5 10.3387 19.5 10.7529C19.5 11.1671 19.1642 11.5029 18.75 11.5029C18.3358 11.5029 18 11.1671 18 10.7529C18 10.3387 18.3358 10.0029 18.75 10.0029ZM6.44571 4.5C5.37113 4.5 4.5 5.37113 4.5 6.44571V9H13.5V6.44571C13.5 5.37113 12.6289 4.5 11.5543 4.5H6.44571ZM13.5 20.5V10H4.5V20.5H13.5Z" fill="#00164E"/>
</svg>
