<svg width="24" height="24" viewBox="0 0 24 24" fill="none" xmlns="http://www.w3.org/2000/svg">
<path d="M3.5 3C3.77614 3 4 3.22386 4 3.5V20H7V14.5C7 14.2239 7.22386 14 7.5 14C7.77614 14 8 14.2239 8 14.5V20H12V10.5C12 10.2239 12.2239 10 12.5 10C12.7761 10 13 10.2239 13 10.5V20H17V5.71285L15.8527 6.85445C15.6569 7.04922 15.3403 7.04843 15.1456 6.85268C14.9508 6.65692 14.9516 6.34034 15.1473 6.14557L17.1473 4.15557C17.3424 3.96149 17.6576 3.96149 17.8527 4.15557L19.8527 6.14557C20.0484 6.34034 20.0492 6.65692 19.8544 6.85268C19.6597 7.04843 19.3431 7.04922 19.1473 6.85445L18 5.71285V20H21.5C21.7761 20 22 20.2239 22 20.5C22 20.7761 21.7761 21 21.5 21H3.5C3.22386 21 3 20.7761 3 20.5V3.5C3 3.22386 3.22386 3 3.5 3Z" fill="#00164E"/>
</svg>
