<svg width="24" height="24" viewBox="0 0 24 24" fill="none" xmlns="http://www.w3.org/2000/svg">
<path d="M17.5097 4.59791C17.4556 4.32713 17.6312 4.06372 17.902 4.00956C18.1728 3.95541 18.4362 4.13101 18.4903 4.40179L18.9903 6.90179C18.9907 6.90376 18.9915 6.90768 18.9915 6.90768C18.9931 6.91617 18.9944 6.92466 18.9956 6.93313C19.1025 7.09969 19.2044 7.27043 19.301 7.44484L19.5096 6.40192C19.5638 6.13114 19.8272 5.95553 20.098 6.00968C20.3687 6.06384 20.5443 6.32725 20.4902 6.59803L20.0026 9.03605C20.1558 9.4901 20.2758 9.95653 20.3596 10.4286L21.0711 9.24271C21.2131 9.00592 21.5203 8.92913 21.7571 9.07121C21.9938 9.21328 22.0706 9.52041 21.9286 9.7572L20.4989 12.14C20.4862 12.9182 20.3683 13.6997 20.1589 14.4548L21.1001 13.1999C21.2658 12.979 21.5792 12.9342 21.8001 13.0999C22.021 13.2656 22.0658 13.579 21.9001 13.7999L19.1819 17.4241L21.3078 16.5383C21.5627 16.4321 21.8555 16.5527 21.9617 16.8076C22.0679 17.0625 21.9473 17.3552 21.6924 17.4614L15.6924 19.9614C15.6903 19.9623 15.6882 19.9632 15.6862 19.964C15.6774 19.9675 15.6693 19.9705 15.6619 19.973C15.4138 20.0582 15.1391 19.9362 15.0378 19.6904C14.9325 19.4351 15.0542 19.1429 15.3095 19.0376C17.7 18.0522 19.4937 15.0425 19.5 12.0158C19.4997 12.007 19.4997 11.9982 19.4998 11.9893L19.5 11.9832C19.4934 8.95679 17.6998 5.94747 15.3095 4.96215C15.0542 4.85691 14.9325 4.56464 15.0378 4.30933C15.143 4.05403 15.4353 3.93238 15.6906 4.03762C16.4063 4.33267 17.0663 4.77127 17.6533 5.31583L17.5097 4.59791Z" fill="#00164E"/>
<path d="M6.49003 4.59803C6.54419 4.32725 6.36858 4.06384 6.0978 4.00968C5.82702 3.95553 5.56361 4.13114 5.50945 4.40192L5.00945 6.90192C5.00736 6.91238 5.00561 6.92283 5.00419 6.93325C4.89732 7.09982 4.79542 7.27055 4.69875 7.44496L4.49016 6.40204C4.43601 6.13126 4.17259 5.95565 3.90181 6.00981C3.63103 6.06396 3.45543 6.32737 3.50958 6.59815L3.99719 9.03617C3.84398 9.49022 3.72396 9.95665 3.64022 10.4287L2.92871 9.24283C2.78664 9.00604 2.47951 8.92926 2.24272 9.07133C2.00593 9.2134 1.92914 9.52053 2.07122 9.75732L3.5009 12.1401C3.51358 12.9183 3.63143 13.6998 3.84087 14.455L2.89967 13.2C2.73399 12.9791 2.42059 12.9343 2.19967 13.1C1.97876 13.2657 1.93399 13.5791 2.09967 13.8L4.81785 17.4243L2.69195 16.5385C2.43705 16.4323 2.14431 16.5528 2.0381 16.8077C1.9319 17.0626 2.05243 17.3553 2.30733 17.4615L8.30734 19.9615C8.30946 19.9624 8.31154 19.9633 8.31358 19.9641C8.32242 19.9677 8.33049 19.9707 8.33784 19.9731C8.58599 20.0583 8.8607 19.9364 8.96202 19.6906C9.06726 19.4353 8.94561 19.143 8.69031 19.0377C6.29981 18.0523 4.50604 15.0426 4.49977 12.0159C4.50013 12.0051 4.50013 11.9942 4.49977 11.9833C4.50634 8.95691 6.30001 5.94759 8.69031 4.96228C8.94561 4.85704 9.06726 4.56476 8.96202 4.30946C8.85678 4.05415 8.56451 3.9325 8.3092 4.03774C7.59344 4.33279 6.93344 4.77139 6.34645 5.31596L6.49003 4.59803Z" fill="#00164E"/>
<path fill-rule="evenodd" clip-rule="evenodd" d="M10.3434 10.9059C9.73247 11.1287 9.17363 11.5013 8.71405 11.9992C7.93274 12.8456 7.5 13.9856 7.5 15.1667V15.3667C7.5 15.7876 7.65395 16.1985 7.93901 16.5073C8.22531 16.8174 8.62259 17.0001 9.04615 17.0001H14.9538C15.3774 17.0001 15.7747 16.8174 16.061 16.5073C16.3461 16.1985 16.5 15.7876 16.5 15.3667V15.1667C16.5 13.9856 16.0673 12.8456 15.2859 11.9992C14.8127 11.4865 14.2343 11.1066 13.602 10.8864C14.1286 10.4281 14.4614 9.75291 14.4614 9C14.4614 7.61929 13.3421 6.5 11.9614 6.5C10.5807 6.5 9.46143 7.61929 9.46143 9C9.46143 9.76363 9.8038 10.4473 10.3434 10.9059ZM11.6923 11.6667C10.8592 11.6667 10.0512 12.0249 9.44885 12.6775C8.84528 13.3313 8.5 14.2261 8.5 15.1667V15.3667C8.5 15.5471 8.56649 15.7127 8.67381 15.829C8.7799 15.9439 8.91481 16.0001 9.04615 16.0001H14.9538C15.0852 16.0001 15.2201 15.9439 15.3262 15.829C15.4335 15.7127 15.5 15.5471 15.5 15.3667V15.1667C15.5 14.2261 15.1547 13.3313 14.5511 12.6775C13.9488 12.0249 13.1408 11.6667 12.3077 11.6667H11.6923ZM10.4614 9C10.4614 8.17157 11.133 7.5 11.9614 7.5C12.7899 7.5 13.4614 8.17157 13.4614 9C13.4614 9.82843 12.7899 10.5 11.9614 10.5C11.133 10.5 10.4614 9.82843 10.4614 9Z" fill="#00164E"/>
</svg>
