<svg width="24" height="24" viewBox="0 0 24 24" fill="none" xmlns="http://www.w3.org/2000/svg">
<path d="M7 10.5C7 10.2239 6.77614 10 6.5 10C6.22386 10 6 10.2239 6 10.5V13.5C6 13.7761 6.22386 14 6.5 14C6.77614 14 7 13.7761 7 13.5V10.5Z" fill="#00164E"/>
<path d="M18 10.5C18 10.2239 17.7761 10 17.5 10C17.2239 10 17 10.2239 17 10.5V13.5C17 13.7761 17.2239 14 17.5 14C17.7761 14 18 13.7761 18 13.5V10.5Z" fill="#00164E"/>
<path fill-rule="evenodd" clip-rule="evenodd" d="M12 9C10.3431 9 9 10.3431 9 12C9 13.6569 10.3431 15 12 15C13.6569 15 15 13.6569 15 12C15 10.3431 13.6569 9 12 9ZM10 12C10 10.8954 10.8954 10 12 10C13.1046 10 14 10.8954 14 12C14 13.1046 13.1046 14 12 14C10.8954 14 10 13.1046 10 12Z" fill="#00164E"/>
<path fill-rule="evenodd" clip-rule="evenodd" d="M2 7C2 6.44772 2.44772 6 3 6H21C21.5523 6 22 6.44771 22 7V17C22 17.5523 21.5523 18 21 18H3C2.44772 18 2 17.5523 2 17V7ZM19.5858 8.41421C19.9609 8.78929 20.4696 9 21 9V7H19C19 7.53043 19.2107 8.03914 19.5858 8.41421ZM5.12132 9.12132C5.68393 8.55871 6 7.79565 6 7H18C18 7.79565 18.3161 8.55871 18.8787 9.12132C19.4413 9.68393 20.2044 10 21 10V14C20.2044 14 19.4413 14.3161 18.8787 14.8787C18.3161 15.4413 18 16.2044 18 17H6C6 16.2044 5.68393 15.4413 5.12132 14.8787C4.55871 14.3161 3.79565 14 3 14V10C3.79565 10 4.55871 9.68393 5.12132 9.12132ZM19.5858 15.5858C19.9609 15.2107 20.4696 15 21 15V17H19C19 16.4696 19.2107 15.9609 19.5858 15.5858ZM4.41422 15.5858C4.78929 15.9609 5 16.4696 5 17H3V15C3.53043 15 4.03914 15.2107 4.41422 15.5858ZM4.41422 8.41421C4.03914 8.78929 3.53043 9 3 9V7L5 7C5 7.53043 4.78929 8.03914 4.41422 8.41421Z" fill="#00164E"/>
</svg>
