<svg width="24" height="24" viewBox="0 0 24 24" fill="none" xmlns="http://www.w3.org/2000/svg">
<path fill-rule="evenodd" clip-rule="evenodd" d="M5 3.5C5 3.22386 5.22386 3 5.5 3H13V6.3C13 6.6866 13.3134 7 13.7 7H17V11.5C17 11.7761 17.2239 12 17.5 12C17.7761 12 18 11.7761 18 11.5V6.71961C18 6.30772 17.8306 5.91395 17.5316 5.63068L14.1331 2.41107C13.8545 2.14712 13.4853 2 13.1015 2H5.5C4.67157 2 4 2.67157 4 3.5V19.5C4 20.3284 4.67157 21 5.5 21H11.5C11.7761 21 12 20.7761 12 20.5C12 20.2239 11.7761 20 11.5 20H5.5C5.22386 20 5 19.7761 5 19.5V3.5ZM14 3.70711L16.2929 6H14V3.70711Z" fill="#00164E"/>
<path d="M7 7C6.72386 7 6.5 7.22386 6.5 7.5C6.5 7.77614 6.72386 8 7 8H10.57C10.8461 8 11.07 7.77614 11.07 7.5C11.07 7.22386 10.8461 7 10.57 7H7Z" fill="#00164E"/>
<path d="M7 12C6.72386 12 6.5 12.2239 6.5 12.5C6.5 12.7761 6.72386 13 7 13H13C13.2761 13 13.5 12.7761 13.5 12.5C13.5 12.2239 13.2761 12 13 12H7Z" fill="#00164E"/>
<path d="M7 9.5C6.72386 9.5 6.5 9.72386 6.5 10C6.5 10.2761 6.72386 10.5 7 10.5H14.5C14.7761 10.5 15 10.2761 15 10C15 9.72386 14.7761 9.5 14.5 9.5H7Z" fill="#00164E"/>
<path fill-rule="evenodd" clip-rule="evenodd" d="M15.2101 19.1C15.5041 19.58 15.9421 19.976 16.7161 20.054V20.558H17.2921V20.054C18.3121 19.964 18.7381 19.394 18.7381 18.734C18.7381 17.888 18.1081 17.6 17.2741 17.402V16.232C17.5801 16.316 17.7601 16.526 17.9341 16.778L18.5821 16.31C18.3181 15.932 17.9581 15.608 17.2921 15.518V15.086H16.7161V15.5C15.8701 15.566 15.3301 16.052 15.3301 16.808C15.3301 17.66 16.0201 17.924 16.7461 18.104V19.376C16.3441 19.298 16.1101 19.022 15.8641 18.68L15.2101 19.1ZM16.2181 16.724C16.2181 16.454 16.3861 16.244 16.7461 16.196V17.264C16.3981 17.156 16.2181 17.018 16.2181 16.724ZM17.8501 18.824C17.8501 19.154 17.6581 19.328 17.2741 19.382V18.242C17.6641 18.362 17.8501 18.524 17.8501 18.824Z" fill="#00164E"/>
<path fill-rule="evenodd" clip-rule="evenodd" d="M12 18C12 15.2386 14.2386 13 17 13C19.7614 13 22 15.2386 22 18C22 20.7614 19.7614 23 17 23C14.2386 23 12 20.7614 12 18ZM17 14C14.7909 14 13 15.7909 13 18C13 20.2091 14.7909 22 17 22C19.2091 22 21 20.2091 21 18C21 15.7909 19.2091 14 17 14Z" fill="#00164E"/>
</svg>
