<svg width="24" height="24" viewBox="0 0 24 24" fill="none" xmlns="http://www.w3.org/2000/svg">
<path fill-rule="evenodd" clip-rule="evenodd" d="M10.0079 4.79979C10.1099 3.51269 11.1867 2.5 12.5 2.5C13.8133 2.5 14.8901 3.51269 14.9921 4.79979C16.3981 5.15461 17.6262 5.81472 18.6021 6.7281C20.0125 8.04821 20.8703 9.8741 20.9864 12H21.5C21.7761 12 22 12.2239 22 12.5C22 12.7032 21.8787 12.8782 21.7046 12.9564C22.1288 13.742 21.8126 14.8039 20.8902 15.1626L14.2337 17.7512C13.8217 17.9114 13.3884 18.0101 12.9477 18.044L8.14585 18.4132C7.55079 18.459 6.99173 18.7161 6.56972 19.1381L4.85458 20.8533C4.65932 21.0486 4.34274 21.0486 4.14748 20.8533C3.95221 20.6581 3.9522 20.3415 4.14746 20.1462L5.8626 18.431C6.45341 17.8402 7.23609 17.4802 8.06918 17.4161L12.871 17.0469C13.2138 17.0205 13.5508 16.9438 13.8712 16.8192L20.5277 14.2306C20.943 14.0691 21.0191 13.5142 20.6627 13.2469C20.5092 13.1318 20.308 13.1019 20.1278 13.1675L15.1711 14.9699C15.0684 15.0072 14.9615 15.0088 14.8638 14.9811C14.7861 14.9935 14.7063 15 14.625 15H11C10.7239 15 10.5 14.7761 10.5 14.5C10.5 14.2239 10.7239 14 11 14H14.625C14.9012 14 15.125 13.7761 15.125 13.5C15.125 13.2239 14.9012 13 14.625 13H8.68624C8.35267 13 8.02863 13.1112 7.76533 13.316L3.80699 16.3947C3.58902 16.5642 3.27488 16.5249 3.10535 16.307C2.93581 16.089 2.97508 15.7749 3.19305 15.6053L6.54276 13H3.5C3.22386 13 3 12.7761 3 12.5C3 12.2239 3.22386 12 3.5 12H4.01356C4.12974 9.8741 4.9875 8.04821 6.39792 6.7281C7.37377 5.81472 8.60192 5.15461 10.0079 4.79979ZM11.0547 4.59712C11.2307 3.96435 11.8111 3.5 12.5 3.5C13.1889 3.5 13.7693 3.96435 13.9453 4.59712C13.4785 4.53291 12.996 4.5 12.5 4.5C12.004 4.5 11.5215 4.53291 11.0547 4.59712ZM7.08127 7.45819C5.88087 8.58173 5.12943 10.1419 5.01522 12H19.9848C19.8706 10.1419 19.1191 8.58173 17.9187 7.45819C16.6097 6.23297 14.737 5.5 12.5 5.5C10.263 5.5 8.3903 6.23297 7.08127 7.45819ZM16.0397 13C16.0949 13.1564 16.125 13.3247 16.125 13.5C16.125 13.5199 16.1246 13.5397 16.1239 13.5594L17.6621 13H16.0397Z" fill="#00164E"/>
</svg>
