<svg width="24" height="24" viewBox="0 0 24 24" fill="none" xmlns="http://www.w3.org/2000/svg">
<path d="M13.8024 7.03758C14.2535 6.69505 14.8408 6.5 15.5 6.5C16.2628 6.5 16.929 6.76079 17.4012 7.21081C17.8696 7.65729 18.1765 8.31779 18.1765 9.17927C18.1765 9.29727 18.1707 9.41356 18.1595 9.52782L18.1056 10.0767H19.3824C20.2217 10.0767 21 10.8629 21 11.9611C21 12.4408 20.8463 12.8722 20.6002 13.1997C20.4344 13.4205 20.479 13.734 20.6997 13.8998C20.9205 14.0656 21.234 14.0211 21.3998 13.8003C21.7777 13.2972 22 12.6545 22 11.9611C22 10.4255 20.8822 9.07667 19.3824 9.07667H19.1753C19.1513 8.00832 18.7513 7.11623 18.0911 6.48695C17.4136 5.84118 16.4916 5.5 15.5 5.5C14.6433 5.5 13.8386 5.75445 13.1977 6.24115C12.9777 6.40814 12.9348 6.7218 13.1018 6.94173C13.2688 7.16166 13.5825 7.20457 13.8024 7.03758Z" fill="#00164E"/>
<path fill-rule="evenodd" clip-rule="evenodd" d="M11 7.5C9.65907 7.5 8.41378 7.90862 7.49497 8.68639C6.56823 9.47088 6 10.6105 6 12H5.5C3.567 12 2 13.567 2 15.5C2 17.433 3.567 19 5.5 19H16.5C18.433 19 20 17.433 20 15.5C20 13.567 18.433 12 16.5 12H16C16 10.6105 15.4318 9.47088 14.505 8.68639C13.5862 7.90862 12.3409 7.5 11 7.5ZM7 12C7 10.9042 7.43913 10.0438 8.14107 9.44965C8.85094 8.84874 9.85565 8.5 11 8.5C12.1444 8.5 13.1491 8.84874 13.8589 9.44965C14.5609 10.0438 15 10.9042 15 12C15 12.1506 14.9917 12.2991 14.9756 12.4451L14.9142 13H16.5C17.8807 13 19 14.1193 19 15.5C19 16.8807 17.8807 18 16.5 18H5.5C4.11929 18 3 16.8807 3 15.5C3 14.1193 4.11929 13 5.5 13H7.08578L7.02444 12.4451C7.0083 12.2991 7 12.1506 7 12Z" fill="#00164E"/>
</svg>
