<svg width="24" height="24" viewBox="0 0 24 24" fill="none" xmlns="http://www.w3.org/2000/svg">
<path fill-rule="evenodd" clip-rule="evenodd" d="M2 6.5C2 5.11929 3.11929 4 4.5 4H18.5C19.8807 4 21 5.11929 21 6.5V11.5C21 11.7761 20.7761 12 20.5 12C20.2239 12 20 11.7761 20 11.5V11H3V14.5C3 15.3284 3.67157 16 4.5 16H10.5C10.7761 16 11 16.2239 11 16.5C11 16.7761 10.7761 17 10.5 17H4.5C3.11929 17 2 15.8807 2 14.5V6.5ZM4.5 5C3.67157 5 3 5.67157 3 6.5V8H20V6.5C20 5.67157 19.3284 5 18.5 5H4.5Z" fill="#00164E"/>
<path d="M5 12.5C4.72386 12.5 4.5 12.7239 4.5 13C4.5 13.2761 4.72386 13.5 5 13.5H9C9.27614 13.5 9.5 13.2761 9.5 13C9.5 12.7239 9.27614 12.5 9 12.5H5Z" fill="#00164E"/>
<path d="M17.3536 14.6464L18.8536 16.1464C19.0488 16.3417 19.0488 16.6583 18.8536 16.8536C18.6583 17.0488 18.3417 17.0488 18.1464 16.8536L17.5 16.2071V19C17.5 19.2761 17.2761 19.5 17 19.5C16.7239 19.5 16.5 19.2761 16.5 19V16.2071L15.8536 16.8536C15.6583 17.0488 15.3417 17.0488 15.1464 16.8536C14.9512 16.6583 14.9512 16.3417 15.1464 16.1464L16.6464 14.6464C16.8417 14.4512 17.1583 14.4512 17.3536 14.6464Z" fill="#00164E"/>
<path fill-rule="evenodd" clip-rule="evenodd" d="M12 17C12 14.2386 14.2386 12 17 12C19.7614 12 22 14.2386 22 17C22 19.7614 19.7614 22 17 22C14.2386 22 12 19.7614 12 17ZM17 13C14.7909 13 13 14.7909 13 17C13 19.2091 14.7909 21 17 21C19.2091 21 21 19.2091 21 17C21 14.7909 19.2091 13 17 13Z" fill="#00164E"/>
</svg>
