<svg width="24" height="24" viewBox="0 0 24 24" fill="none" xmlns="http://www.w3.org/2000/svg">
<path fill-rule="evenodd" clip-rule="evenodd" d="M2 14.5C2 15.8807 3.11929 17 4.5 17H10.5C10.7761 17 11 16.7761 11 16.5C11 16.2239 10.7761 16 10.5 16H4.5C3.67157 16 3 15.3284 3 14.5V11H20V11.5C20 11.7761 20.2239 12 20.5 12C20.7761 12 21 11.7761 21 11.5V6.5C21 5.11929 19.8807 4 18.5 4H4.5C3.11929 4 2 5.11929 2 6.5V14.5ZM3 6.5C3 5.67157 3.67157 5 4.5 5H18.5C19.3284 5 20 5.67157 20 6.5V8H3V6.5Z" fill="#00164E"/>
<path d="M4.5 13C4.5 12.7239 4.72386 12.5 5 12.5H9C9.27614 12.5 9.5 12.7239 9.5 13C9.5 13.2761 9.27614 13.5 9 13.5H5C4.72386 13.5 4.5 13.2761 4.5 13Z" fill="#00164E"/>
<path d="M19.3737 15.8322C19.5572 15.6258 19.5386 15.3098 19.3322 15.1263C19.1258 14.9428 18.8098 14.9614 18.6263 15.1678L16.3333 17.7474L15.3737 16.6678C15.1903 16.4614 14.8742 16.4428 14.6678 16.6263C14.4614 16.8098 14.4428 17.1258 14.6263 17.3322L15.9596 18.8322C16.0545 18.9389 16.1905 19 16.3333 19C16.4762 19 16.6122 18.9389 16.707 18.8322L19.3737 15.8322Z" fill="#00164E"/>
<path fill-rule="evenodd" clip-rule="evenodd" d="M17 12C14.2386 12 12 14.2386 12 17C12 19.7614 14.2386 22 17 22C19.7614 22 22 19.7614 22 17C22 14.2386 19.7614 12 17 12ZM13 17C13 14.7909 14.7909 13 17 13C19.2091 13 21 14.7909 21 17C21 19.2091 19.2091 21 17 21C14.7909 21 13 19.2091 13 17Z" fill="#00164E"/>
</svg>
