<svg width="24" height="24" viewBox="0 0 24 24" fill="none" xmlns="http://www.w3.org/2000/svg">
<path fill-rule="evenodd" clip-rule="evenodd" d="M18.5034 4.69271L20.6461 2.55001C20.8414 2.35475 21.1579 2.35475 21.3532 2.55001C21.5485 2.74527 21.5485 3.06186 21.3532 3.25712L19.2107 5.39958C19.3436 5.74506 19.3172 6.1422 19.1174 6.47522L18.4009 7.66941L18.528 7.79644C19.169 8.43748 19.169 9.47681 18.528 10.1178L9.64931 18.9965C9.45405 19.1917 9.13747 19.1918 8.9422 18.9965L8.0044 18.0587L5.88484 20.1782L6.35307 20.6465C6.54833 20.8417 6.54833 21.1583 6.35307 21.3536C6.1578 21.5488 5.84122 21.5488 5.64596 21.3536L2.64596 18.3536C2.4507 18.1583 2.4507 17.8417 2.64596 17.6465C2.84122 17.4512 3.1578 17.4512 3.35307 17.6465L3.83786 18.1313L5.95742 16.0117L4.90646 14.9607C4.7112 14.7655 4.7112 14.4489 4.90646 14.2536L13.7851 5.375C14.4261 4.73396 15.4655 4.73396 16.1065 5.375L16.2343 5.50283L17.4285 4.78632C17.7613 4.58665 18.1581 4.56019 18.5034 4.69271ZM17.943 5.64381C18.0339 5.58928 18.1502 5.6036 18.2252 5.67855C18.3001 5.7535 18.3145 5.86984 18.2599 5.96073L17.6723 6.94007L16.9637 6.23141L17.943 5.64381ZM14.4922 6.0821C14.7427 5.83159 15.1489 5.83159 15.3994 6.0821L17.8208 8.50355C18.0714 8.75407 18.0714 9.16023 17.8208 9.41074L9.29576 17.9358L5.96712 14.6072L7.68519 12.8891C7.69927 12.9079 7.71484 12.9259 7.7319 12.9429L8.94262 14.1536C9.13788 14.3489 9.45446 14.3489 9.64973 14.1536C9.84499 13.9584 9.84499 13.6418 9.64973 13.4465L8.439 12.2358C8.42194 12.2188 8.40395 12.2032 8.3852 12.1891L9.70289 10.8714C9.71694 10.8901 9.73247 10.908 9.74947 10.925L10.9602 12.1358C11.1555 12.331 11.472 12.331 11.6673 12.1358C11.8626 11.9405 11.8626 11.6239 11.6673 11.4287L10.4566 10.2179C10.4396 10.2009 10.4216 10.1854 10.403 10.1714L11.7209 8.85343C11.7349 8.87215 11.7505 8.89012 11.7675 8.90716L12.9783 10.1179C13.1735 10.3131 13.4901 10.3131 13.6854 10.1179C13.8806 9.92262 13.8806 9.60603 13.6854 9.41077L12.4746 8.20005C12.4576 8.18301 12.4396 8.16746 12.4209 8.15339L14.4922 6.0821ZM4.55492 18.8284L6.64404 16.7393L7.27681 17.3721L5.18768 19.4612L4.55492 18.8284Z" fill="#00164E"/>
</svg>
