<svg width="24" height="24" viewBox="0 0 24 24" fill="none" xmlns="http://www.w3.org/2000/svg">
<path d="M8.26196 13.0984C8.17993 13.1082 7.96997 13.1131 7.63208 13.1131H7.06372V12.1199H7.56177C7.96997 12.1199 8.21704 12.1248 8.30298 12.1346C8.44751 12.1522 8.55591 12.2029 8.62817 12.2869C8.70239 12.369 8.7395 12.4764 8.7395 12.6092C8.7395 12.7479 8.69653 12.8602 8.6106 12.9461C8.52661 13.0301 8.4104 13.0809 8.26196 13.0984Z" fill="#00164E"/>
<path d="M8.53149 13.8895C8.41431 13.8484 8.15845 13.8279 7.76392 13.8279H7.06372V14.9764H7.86646C8.17896 14.9764 8.3772 14.9676 8.46118 14.95C8.59009 14.9266 8.69458 14.8699 8.77466 14.7801C8.85669 14.6883 8.89771 14.5662 8.89771 14.4139C8.89771 14.285 8.86646 14.1756 8.80396 14.0858C8.74146 13.9959 8.65063 13.9305 8.53149 13.8895Z" fill="#00164E"/>
<path d="M11.6367 14.8533C11.4902 14.6893 11.417 14.4529 11.417 14.1443C11.417 13.8358 11.4902 13.5994 11.6367 13.4354C11.7832 13.2713 11.9639 13.1893 12.1787 13.1893C12.3936 13.1893 12.5733 13.2713 12.7178 13.4354C12.8643 13.5994 12.9375 13.8338 12.9375 14.1385C12.9375 14.451 12.8643 14.6893 12.7178 14.8533C12.5733 15.0174 12.3936 15.0994 12.1787 15.0994C11.9639 15.0994 11.7832 15.0174 11.6367 14.8533Z" fill="#00164E"/>
<path d="M16.7049 13.283C16.5896 13.3279 16.3611 13.3504 16.0193 13.3504H15.5447V12.1317H15.9636C16.2761 12.1317 16.4841 12.1414 16.5877 12.1609C16.7283 12.1863 16.8445 12.2498 16.9363 12.3514C17.0281 12.4529 17.074 12.5818 17.074 12.7381C17.074 12.8651 17.0408 12.9764 16.9744 13.0721C16.9099 13.1678 16.8201 13.2381 16.7049 13.283Z" fill="#00164E"/>
<path fill-rule="evenodd" clip-rule="evenodd" d="M20 11C20 10.4477 19.5523 10 19 10V6.91421C19 6.51639 18.842 6.13486 18.5607 5.85355L15.1464 2.43934C14.8651 2.15804 14.4836 2 14.0858 2H6.5C5.67157 2 5 2.67157 5 3.5V10C4.44772 10 4 10.4477 4 11V16C4 16.5523 4.44772 17 5 17V20.5C5 21.3284 5.67157 22 6.5 22H17.5C18.3284 22 19 21.3284 19 20.5V17C19.5523 17 20 16.5523 20 16V11ZM6.5 3C6.22386 3 6 3.22386 6 3.5V10H18V7H14.7C14.3134 7 14 6.6866 14 6.3V3H6.5ZM17.5 21C17.7761 21 18 20.7761 18 20.5V17H6V20.5C6 20.7761 6.22386 21 6.5 21H17.5ZM15 3.70711L17.2929 6H15V3.70711ZM8.67212 11.449C8.5061 11.4197 8.25317 11.4051 7.91333 11.4051H6.19653V15.7H7.65845C8.21118 15.6961 8.55981 15.6863 8.70435 15.6707C8.93481 15.6453 9.12817 15.5779 9.28442 15.4686C9.44263 15.3572 9.56665 15.2098 9.65649 15.0262C9.74829 14.8406 9.79419 14.6502 9.79419 14.4549C9.79419 14.2068 9.72388 13.991 9.58325 13.8074C9.44263 13.6238 9.24146 13.494 8.97974 13.4178C9.16528 13.3338 9.31177 13.2078 9.41919 13.0399C9.52856 12.8719 9.58325 12.6873 9.58325 12.4861C9.58325 12.3006 9.53931 12.1336 9.45142 11.9852C9.36353 11.8348 9.25317 11.7147 9.12036 11.6248C8.9895 11.535 8.84009 11.4764 8.67212 11.449ZM10.7754 13.3065C10.6406 13.5623 10.5733 13.827 10.5733 14.1004C10.5733 14.4578 10.6406 14.7615 10.7754 15.0115C10.9102 15.2596 11.1065 15.4481 11.3643 15.577C11.624 15.7059 11.8965 15.7703 12.1817 15.7703C12.6426 15.7703 13.0244 15.616 13.3272 15.3074C13.6318 14.9969 13.7842 14.6063 13.7842 14.1356C13.7842 13.6688 13.6338 13.283 13.333 12.9783C13.0322 12.6717 12.6465 12.5184 12.1758 12.5184C11.8711 12.5184 11.5947 12.5858 11.3467 12.7205C11.1006 12.8553 10.9102 13.0506 10.7754 13.3065ZM17.0095 14.0184C16.8025 14.0594 16.5027 14.0799 16.1101 14.0799H15.5447V15.7H14.6775V11.4051H16.0691C16.5965 11.4051 16.9402 11.4266 17.1004 11.4695C17.3465 11.534 17.5525 11.6746 17.7185 11.8914C17.8845 12.1063 17.9675 12.3846 17.9675 12.7264C17.9675 12.9901 17.9197 13.2117 17.824 13.3914C17.7283 13.5711 17.6062 13.7127 17.4578 13.8162C17.3113 13.9178 17.1619 13.9852 17.0095 14.0184Z" fill="#00164E"/>
</svg>
