<svg width="24" height="24" viewBox="0 0 24 24" fill="none" xmlns="http://www.w3.org/2000/svg">
<path fill-rule="evenodd" clip-rule="evenodd" d="M20.2751 18.2819C20.2751 19.1101 19.6127 19.7794 18.7979 19.7794V19.7773H5.3341C4.51722 19.7773 3.85693 19.1058 3.85693 18.2798V9.77095C3.85693 9.31182 4.06433 8.88059 4.41775 8.59524L11.1497 3.2016C11.6872 2.77037 12.4448 2.77037 12.9824 3.2016L19.7143 8.59739C20.0698 8.88059 20.2751 9.31397 20.2751 9.77309V18.2819ZM12.9038 10.3828C12.9038 10.3828 12.1758 11.4856 12.0213 11.4856V11.4878H6.38559C6.2311 11.4878 6.10413 11.3612 6.10413 11.2024V9.56543C6.10413 9.40882 6.22899 9.28009 6.38559 9.28009H12.0213C12.1758 9.28009 12.9038 10.3828 12.9038 10.3828ZM6.10413 12.792C6.10413 12.6332 6.2311 12.5067 6.38559 12.5067H14.0275V12.5088C14.182 12.5088 14.91 13.6116 14.91 13.6116C14.91 13.6116 14.182 14.7143 14.0275 14.7143H6.38559C6.22899 14.7143 6.10413 14.5856 6.10413 14.429V12.792ZM18.5461 10.4211C18.5461 10.3482 18.4868 10.2881 18.4149 10.2881H17.49C17.4181 10.2881 17.3588 10.2281 17.3588 10.1551V9.21755C17.3588 9.14461 17.2996 9.08453 17.2276 9.08453H16.7409C16.6689 9.08453 16.6097 9.14461 16.6097 9.21755V10.1551C16.6097 10.2281 16.5504 10.2881 16.4785 10.2881H15.5536C15.4817 10.2881 15.4224 10.3482 15.4224 10.4211V10.9146C15.4224 10.9875 15.4817 11.0476 15.5536 11.0476H16.4785C16.5504 11.0476 16.6097 11.1077 16.6097 11.1806V12.1182C16.6097 12.1911 16.6689 12.2512 16.7409 12.2512H17.2276C17.2996 12.2512 17.3588 12.1911 17.3588 12.1182V11.1806C17.3588 11.1077 17.4181 11.0476 17.49 11.0476H18.4149C18.4868 11.0476 18.5461 10.9875 18.5461 10.9146V10.4211ZM16.5713 16.8362C16.5713 16.8362 15.8433 15.7334 15.6888 15.7334V15.7313H6.38559C6.2311 15.7313 6.10413 15.8578 6.10413 16.0166V17.6536C6.10413 17.8102 6.22899 17.9389 6.38559 17.9389H15.6888C15.8433 17.9389 16.5713 16.8362 16.5713 16.8362Z" fill="#00164E"/>
</svg>
