<svg width="24" height="24" viewBox="0 0 24 24" fill="none" xmlns="http://www.w3.org/2000/svg">
<path d="M8 9C8 8.44772 8.44772 8 9 8C9.55228 8 10 8.44772 10 9V10C10 10.5523 9.55228 11 9 11C8.44772 11 8 10.5523 8 10V9Z" fill="#00164E"/>
<path d="M15 8C14.4477 8 14 8.44772 14 9V10C14 10.5523 14.4477 11 15 11C15.5523 11 16 10.5523 16 10V9C16 8.44772 15.5523 8 15 8Z" fill="#00164E"/>
<path d="M6.91737 16.2742C6.79269 16.5205 6.89137 16.8214 7.13777 16.946C7.38416 17.0707 7.68497 16.972 7.80965 16.7256C8.4497 15.4607 10.0505 14.4999 12.0001 14.4999C13.9496 14.4999 15.5504 15.4607 16.1905 16.7256C16.3151 16.972 16.616 17.0707 16.8624 16.946C17.1087 16.8214 17.2074 16.5205 17.0828 16.2742C16.2393 14.6073 14.2472 13.4999 12.0001 13.4999C9.75288 13.4999 7.76077 14.6073 6.91737 16.2742Z" fill="#00164E"/>
<path fill-rule="evenodd" clip-rule="evenodd" d="M12 2C6.47715 2 2 6.47715 2 12C2 17.5228 6.47715 22 12 22C17.5228 22 22 17.5228 22 12C22 6.47715 17.5228 2 12 2ZM3 12C3 7.02944 7.02944 3 12 3C16.9706 3 21 7.02944 21 12C21 16.9706 16.9706 21 12 21C7.02944 21 3 16.9706 3 12Z" fill="#00164E"/>
</svg>
