<svg width="24" height="24" viewBox="0 0 24 24" fill="none" xmlns="http://www.w3.org/2000/svg">
<path d="M17.5 16C17.7761 16 18 16.2239 18 16.5V18.5C18 18.7761 17.7761 19 17.5 19C17.2239 19 17 18.7761 17 18.5V16.5C17 16.2239 17.2239 16 17.5 16Z" fill="#00164E"/>
<path fill-rule="evenodd" clip-rule="evenodd" d="M14 7C14 8.34473 13.3364 9.53448 12.3189 10.2597C12.912 10.4325 13.4782 10.6893 14 11.0227V10.64C14 10.6376 14 10.6353 14 10.6329C14.0001 10.6259 14.0004 10.6188 14.0008 10.6117C14.0398 9.9235 14.334 9.27452 14.8259 8.79162C15.3178 8.30872 15.9721 8.02659 16.661 8.00036C16.6673 8.00012 16.6737 8 16.68 8H18.32C18.3263 8 18.3327 8.00012 18.339 8.00036C19.0279 8.02659 19.6822 8.30872 20.1741 8.79162C20.666 9.27452 20.9602 9.9235 20.9992 10.6117C20.9997 10.6211 21 10.6306 21 10.64V13H22.5C22.7762 13 23 13.2239 23 13.5V20.1035C22.9965 20.6054 22.7955 21.0857 22.4406 21.4406C22.0857 21.7955 21.6054 21.9964 21.1035 22L21.1 22H13.8965C13.3946 21.9965 12.9143 21.7955 12.5594 21.4406C12.2045 21.0857 12.0036 20.6054 12 20.1035L12 20.1L12 19H5.2C4.61652 19 4.05694 18.7682 3.64437 18.3556C3.23179 17.9431 3 17.3835 3 16.8V16.5C3 14.7761 3.68482 13.1228 4.90381 11.9038C5.68359 11.124 6.6411 10.5628 7.68113 10.2597C6.66357 9.53448 6 8.34473 6 7C6 4.79086 7.79086 3 10 3C12.2091 3 14 4.79086 14 7ZM7 7C7 5.34315 8.34315 4 10 4C11.6569 4 13 5.34315 13 7C13 8.65685 11.6569 10 10 10C8.34315 10 7 8.65685 7 7ZM5.61091 12.6109C6.64236 11.5795 8.04131 11 9.5 11H10.5C11.7826 11 13.019 11.448 14 12.2573V13H12.5C12.2239 13 12 13.2239 12 13.5L12 18H5.2C4.88174 18 4.57652 17.8736 4.35147 17.6485C4.12643 17.4235 4 17.1183 4 16.8V16.5C4 15.0413 4.57946 13.6424 5.61091 12.6109ZM15.5264 9.50524C15.2153 9.81071 15.0279 10.2202 15 10.655V13H20V10.655C19.9721 10.2202 19.7847 9.81071 19.4736 9.50524C19.1614 9.19876 18.7468 9.01884 18.3099 9H16.6901C16.2532 9.01884 15.8386 9.19876 15.5264 9.50524ZM21.7335 20.7335C21.9022 20.5648 21.9979 20.3366 22 20.098V14H13V20.098C13.0021 20.3366 13.0978 20.5648 13.2665 20.7335C13.4352 20.9022 13.6634 20.9979 13.902 21H21.098C21.3366 20.9979 21.5648 20.9022 21.7335 20.7335Z" fill="#00164E"/>
</svg>
