<svg width="24" height="24" viewBox="0 0 24 24" fill="none" xmlns="http://www.w3.org/2000/svg">
<path d="M17 15C17.2761 15 17.5 15.2239 17.5 15.5V17C17.5 17.2761 17.2761 17.5 17 17.5C16.7239 17.5 16.5 17.2761 16.5 17V15.5C16.5 15.2239 16.7239 15 17 15Z" fill="#00164E"/>
<path d="M17 19C17.2761 19 17.5 18.7761 17.5 18.5C17.5 18.2239 17.2761 18 17 18C16.7239 18 16.5 18.2239 16.5 18.5C16.5 18.7761 16.7239 19 17 19Z" fill="#00164E"/>
<path fill-rule="evenodd" clip-rule="evenodd" d="M14 7C14 8.34473 13.3364 9.53448 12.3189 10.2597C13.113 10.4911 13.859 10.8731 14.5145 11.3878C14.7175 11.5473 14.9118 11.7194 15.0962 11.9038C15.2093 12.017 15.3179 12.1339 15.4217 12.2542C15.9179 12.0893 16.4485 12 17 12C19.7614 12 22 14.2386 22 17C22 19.7614 19.7614 22 17 22C14.9497 22 13.1876 20.7659 12.416 19H5.2C4.61652 19 4.05694 18.7682 3.64437 18.3556C3.23179 17.9431 3 17.3835 3 16.8V16.5C3 14.7761 3.68482 13.1228 4.90381 11.9038C5.68359 11.124 6.6411 10.5628 7.68113 10.2597C6.66357 9.53448 6 8.34473 6 7C6 4.79086 7.79086 3 10 3C12.2091 3 14 4.79086 14 7ZM7 7C7 5.34315 8.34315 4 10 4C11.6569 4 13 5.34315 13 7C13 8.65685 11.6569 10 10 10C8.34315 10 7 8.65685 7 7ZM12.1 18C12.0344 17.6769 12 17.3425 12 17C12 15.1635 12.9901 13.5583 14.4656 12.689C14.4404 12.6627 14.4149 12.6367 14.3891 12.6109C14.2331 12.4549 14.0686 12.3092 13.8969 12.1743C12.9331 11.4174 11.738 11 10.5 11H9.5C8.04131 11 6.64236 11.5795 5.61091 12.6109C4.57946 13.6424 4 15.0413 4 16.5V16.8C4 17.1183 4.12643 17.4235 4.35147 17.6485C4.57652 17.8736 4.88174 18 5.2 18H12.1ZM13 17C13 14.7909 14.7909 13 17 13C19.2091 13 21 14.7909 21 17C21 19.2091 19.2091 21 17 21C14.7909 21 13 19.2091 13 17Z" fill="#00164E"/>
</svg>
