<svg width="24" height="24" viewBox="0 0 24 24" fill="none" xmlns="http://www.w3.org/2000/svg">
<path fill-rule="evenodd" clip-rule="evenodd" d="M5.5 8.5C5.5 7.11929 6.61929 6 8 6H19.5C20.8807 6 22 7.11929 22 8.5V15.5C22 16.8807 20.8807 18 19.5 18H8C6.61929 18 5.5 16.8807 5.5 15.5V14.5C5.5 14.2239 5.72386 14 6 14C6.27614 14 6.5 14.2239 6.5 14.5V15.5C6.5 16.3284 7.17157 17 8 17H19.5C20.3284 17 21 16.3284 21 15.5V10.2989C20.9449 10.3332 20.8879 10.3651 20.8292 10.3944L14.1856 13.7162C13.7509 13.9336 13.2378 13.9268 12.8089 13.6981L6.64706 10.4118C6.59667 10.3849 6.54763 10.3562 6.5 10.3258V10.5C6.5 10.7761 6.27614 11 6 11C5.72386 11 5.5 10.7761 5.5 10.5V8.5ZM6.5 8.5C6.5 8.93086 6.73747 9.32665 7.11765 9.52941L13.2795 12.8157C13.4225 12.892 13.5935 12.8942 13.7384 12.8218L20.382 9.5C20.7607 9.31061 21 8.92348 21 8.5C21 7.67157 20.3284 7 19.5 7H8C7.17157 7 6.5 7.67157 6.5 8.5Z" fill="#00164E"/>
<path d="M2 10.5C2 10.2239 2.22386 10 2.5 10H4.5C4.77614 10 5 10.2239 5 10.5C5 10.7761 4.77614 11 4.5 11H2.5C2.22386 11 2 10.7761 2 10.5Z" fill="#00164E"/>
<path d="M3 12.5C3 12.2239 3.22386 12 3.5 12H7.5C7.77614 12 8 12.2239 8 12.5C8 12.7761 7.77614 13 7.5 13H3.5C3.22386 13 3 12.7761 3 12.5Z" fill="#00164E"/>
<path d="M3.5 14C3.22386 14 3 14.2239 3 14.5C3 14.7761 3.22386 15 3.5 15H4.5C4.77614 15 5 14.7761 5 14.5C5 14.2239 4.77614 14 4.5 14H3.5Z" fill="#00164E"/>
</svg>
