<svg width="24" height="24" viewBox="0 0 24 24" fill="none" xmlns="http://www.w3.org/2000/svg">
<path fill-rule="evenodd" clip-rule="evenodd" d="M4 3.5C4 3.22386 3.77614 3 3.5 3C3.22386 3 3 3.22386 3 3.5V20.5C3 20.7761 3.22386 21 3.5 21H21.5C21.7761 21 22 20.7761 22 20.5C22 20.2239 21.7761 20 21.5 20H20V9.5C20 9.22386 19.7761 9 19.5 9H16.5C16.2239 9 16 9.22386 16 9.5V20H15V13.5C15 13.2239 14.7761 13 14.5 13H11.5C11.2239 13 11 13.2239 11 13.5V20H10V6.5C10 6.22386 9.77614 6 9.5 6H6.5C6.22386 6 6 6.22386 6 6.5V20H4V3.5ZM17 20H19V10H17V20ZM14 14V20H12V14H14ZM7 20H9V7H7V20Z" fill="#00164E"/>
</svg>
