<svg width="24" height="24" viewBox="0 0 24 24" fill="none" xmlns="http://www.w3.org/2000/svg">
<path d="M14.5 16.5C14.2239 16.5 14 16.2761 14 16V12C14 11.7239 14.2239 11.5 14.5 11.5C14.7761 11.5 15 11.7239 15 12V16C15 16.2761 14.7761 16.5 14.5 16.5Z" fill="#00164E"/>
<path fill-rule="evenodd" clip-rule="evenodd" d="M18 17.5C18 18.8807 16.8807 20 15.5 20H8.5C7.11929 20 6 18.8807 6 17.5V9H5.5C4.67166 9 4 8.32864 4 7.50013V5.4997C4 4.67107 4.67177 4 5.5 4H18.5C19.3284 4 20 4.67157 20 5.5V7.5C20 8.32843 19.3284 9 18.5 9H18V17.5ZM5.5 8C5.22377 8 5 7.77619 5 7.50013V5.4997C5 5.22375 5.22366 5 5.5 5H18.5C18.7761 5 19 5.22386 19 5.5V7.5C19 7.77614 18.7761 8 18.5 8H18V6H6V8H5.5ZM17 17.5C17 18.3284 16.3284 19 15.5 19H12V7H17V17.5ZM7 17.5C7 18.3284 7.67157 19 8.5 19H10V7H7V17.5Z" fill="#00164E"/>
</svg>
