<svg width="24" height="24" viewBox="0 0 24 24" fill="none" xmlns="http://www.w3.org/2000/svg">
<path fill-rule="evenodd" clip-rule="evenodd" d="M8 10.5C7.72386 10.5 7.5 10.7239 7.5 11V13C7.5 13.2761 7.72386 13.5 8 13.5H12C12.2761 13.5 12.5 13.2761 12.5 13V11C12.5 10.7239 12.2761 10.5 12 10.5H8ZM8.5 12.5V11.5H11.5V12.5H8.5Z" fill="#00164E"/>
<path fill-rule="evenodd" clip-rule="evenodd" d="M9 2.5C8.17157 2.5 7.5 3.17157 7.5 4V4.84861L5.58779 7.71693C5.53241 7.79742 5.5 7.89498 5.5 8.00006V21C5.5 21.2761 5.72386 21.5 6 21.5H17C17.2761 21.5 17.5 21.2761 17.5 21V7.82353C17.5 7.74173 17.4799 7.66119 17.4416 7.58895L16 4.87543V4C16 3.17157 15.3284 2.5 14.5 2.5H9ZM8.5 4C8.5 3.72386 8.72386 3.5 9 3.5H14.5C14.7761 3.5 15 3.72386 15 4V4.5H8.5V4ZM6.93426 7.5L8.26759 5.5H14.6682L13.6057 7.5H6.93426ZM14.5 8.11804L15.5135 6.0911L16.5 7.9481V20.5H14.5V8.11804ZM13.5 8.5H6.5V20.5H13.5V8.5Z" fill="#00164E"/>
</svg>
