<svg width="24" height="24" viewBox="0 0 24 24" fill="none" xmlns="http://www.w3.org/2000/svg">
<path fill-rule="evenodd" clip-rule="evenodd" d="M8.50014 7C8.50014 6.17157 9.17171 5.5 10.0001 5.5C10.8286 5.5 11.5001 6.17157 11.5001 7C11.5001 7.82843 10.8286 8.5 10.0001 8.5C9.17171 8.5 8.50014 7.82843 8.50014 7ZM10.0001 6.5C9.724 6.5 9.50014 6.72386 9.50014 7C9.50014 7.27614 9.724 7.5 10.0001 7.5C10.2763 7.5 10.5001 7.27614 10.5001 7C10.5001 6.72386 10.2763 6.5 10.0001 6.5Z" fill="#00164E"/>
<path fill-rule="evenodd" clip-rule="evenodd" d="M7.00014 10.5C6.17171 10.5 5.50014 11.1716 5.50014 12C5.50014 12.8284 6.17171 13.5 7.00014 13.5C7.82856 13.5 8.50014 12.8284 8.50014 12C8.50014 11.1716 7.82856 10.5 7.00014 10.5ZM6.50014 12C6.50014 11.7239 6.72399 11.5 7.00014 11.5C7.27628 11.5 7.50014 11.7239 7.50014 12C7.50014 12.2761 7.27628 12.5 7.00014 12.5C6.72399 12.5 6.50014 12.2761 6.50014 12Z" fill="#00164E"/>
<path fill-rule="evenodd" clip-rule="evenodd" d="M13.5001 7C13.5001 6.17157 14.1717 5.5 15.0001 5.5C15.8286 5.5 16.5001 6.17157 16.5001 7C16.5001 7.82843 15.8286 8.5 15.0001 8.5C14.1717 8.5 13.5001 7.82843 13.5001 7ZM15.0001 6.5C14.724 6.5 14.5001 6.72386 14.5001 7C14.5001 7.27614 14.724 7.5 15.0001 7.5C15.2763 7.5 15.5001 7.27614 15.5001 7C15.5001 6.72386 15.2763 6.5 15.0001 6.5Z" fill="#00164E"/>
<path fill-rule="evenodd" clip-rule="evenodd" d="M17.0001 8.5C16.1717 8.5 15.5001 9.17157 15.5001 10C15.5001 10.8284 16.1717 11.5 17.0001 11.5C17.8286 11.5 18.5001 10.8284 18.5001 10C18.5001 9.17157 17.8286 8.5 17.0001 8.5ZM16.5001 10C16.5001 9.72386 16.724 9.5 17.0001 9.5C17.2763 9.5 17.5001 9.72386 17.5001 10C17.5001 10.2761 17.2763 10.5 17.0001 10.5C16.724 10.5 16.5001 10.2761 16.5001 10Z" fill="#00164E"/>
<path fill-rule="evenodd" clip-rule="evenodd" d="M20.5001 11C20.5001 14.0252 18.9198 16.6812 16.5396 18.1876L17.8409 21.5H21.0001C21.2763 21.5 21.5001 21.7239 21.5001 22C21.5001 22.2761 21.2763 22.5 21.0001 22.5H17.5118C17.5094 22.5001 17.507 22.5001 17.5046 22.5001C17.4993 22.5002 17.494 22.5001 17.4887 22.5H6.51156C6.50387 22.5002 6.49617 22.5002 6.48845 22.5H3.00014C2.72399 22.5 2.50014 22.2761 2.50014 22C2.50014 21.7239 2.72399 21.5 3.00014 21.5H6.15936L7.46066 18.1876C5.08049 16.6812 3.50014 14.0252 3.50014 11C3.50014 6.30558 7.30572 2.5 12.0001 2.5C16.6946 2.5 20.5001 6.30558 20.5001 11ZM4.50014 11C4.50014 6.85786 7.858 3.5 12.0001 3.5C16.1423 3.5 19.5001 6.85786 19.5001 11C19.5001 13.6006 18.1766 15.892 16.1663 17.2374L13.3963 10.1864C12.8978 8.91766 11.1024 8.91767 10.604 10.1864L7.83397 17.2374C5.82371 15.892 4.50014 13.6006 4.50014 11ZM16.7665 21.5L15.6569 18.6754C14.5492 19.2041 13.3092 19.5 12.0001 19.5C10.691 19.5 9.45104 19.2041 8.34342 18.6754L7.23377 21.5H16.7665ZM12.4655 10.552L15.2901 17.7418C14.2968 18.2274 13.1803 18.5 12.0001 18.5C10.82 18.5 9.7035 18.2274 8.7102 17.7418L8.96718 17.0877C9.23616 17.3432 9.59984 17.5 10.0001 17.5C10.8286 17.5 11.5001 16.8284 11.5001 16C11.5001 15.1716 10.8286 14.5 10.0001 14.5L9.98373 14.5001L11.5348 10.552C11.7009 10.1291 12.2994 10.1291 12.4655 10.552ZM9.50014 16C9.50014 15.7239 9.724 15.5 10.0001 15.5C10.2763 15.5 10.5001 15.7239 10.5001 16C10.5001 16.2761 10.2763 16.5 10.0001 16.5C9.724 16.5 9.50014 16.2761 9.50014 16Z" fill="#00164E"/>
<path d="M21.975 7.71246C21.8886 7.45018 21.606 7.3076 21.3437 7.394C21.0814 7.4804 20.9388 7.76305 21.0252 8.02533C21.3333 8.96044 21.5001 9.96026 21.5001 11.0001C21.5001 12.2523 21.2581 13.4468 20.8188 14.5402C20.7158 14.7964 20.84 15.0876 21.0963 15.1906C21.3525 15.2935 21.6437 15.1693 21.7466 14.913C22.2328 13.7031 22.5001 12.3822 22.5001 11.0001C22.5001 9.85265 22.3159 8.74727 21.975 7.71246Z" fill="#00164E"/>
<path d="M4.15824 4.77404C4.38268 4.93491 4.43421 5.24728 4.27333 5.47171C3.41908 6.66347 2.83404 8.06043 2.60632 9.57431C2.56525 9.84738 2.31058 10.0355 2.03751 9.99438C1.76444 9.9533 1.57637 9.69864 1.61745 9.42557C1.86933 7.75104 2.51657 6.20609 3.46056 4.88913C3.62144 4.66469 3.9338 4.61316 4.15824 4.77404Z" fill="#00164E"/>
</svg>
