<svg width="24" height="24" viewBox="0 0 24 24" fill="none" xmlns="http://www.w3.org/2000/svg">
<path fill-rule="evenodd" clip-rule="evenodd" d="M12.5 3.5C12.5 3.22386 12.2761 3 12 3C11.7239 3 11.5 3.22386 11.5 3.5V3.52441C9.6643 3.72734 8.203 5.17248 7.97532 7.0006C7.71064 7.01347 7.5 7.23213 7.5 7.5C7.5 7.77614 7.72386 8 8 8H8.12602C8.04375 8.31962 8 8.6547 8 9C8 10.3447 8.66357 11.5345 9.68114 12.2597C8.6411 12.5628 7.68359 13.124 6.90381 13.9038C5.68482 15.1228 5 16.7761 5 18.5V18.8C5 19.3835 5.23179 19.9431 5.64437 20.3556C5.96673 20.678 6.37884 20.89 6.82196 20.9673C6.89788 20.9962 6.98117 21.0069 7.06489 20.9959C7.10975 20.9986 7.1548 21 7.2 21H16.8C16.8452 21 16.8903 20.9986 16.9351 20.9959C17.0188 21.0069 17.1021 20.9962 17.178 20.9673C17.6212 20.89 18.0333 20.678 18.3556 20.3556C18.7682 19.9431 19 19.3835 19 18.8V18.5C19 16.7761 18.3152 15.1228 17.0962 13.9038C16.3164 13.124 15.3589 12.5628 14.3189 12.2597C15.3364 11.5345 16 10.3447 16 9C16 8.6547 15.9562 8.31962 15.874 8H16C16.2761 8 16.5 7.77614 16.5 7.5C16.5 7.23213 16.2894 7.01347 16.0247 7.0006C15.797 5.17248 14.3357 3.72734 12.5 3.52441V3.5ZM11.5 5.5C11.5 5.77614 11.7239 6 12 6C12.2761 6 12.5 5.77614 12.5 5.5V4.53269C13.7825 4.72315 14.8002 5.72529 15.0141 7H8.98592C9.19978 5.72529 10.2175 4.72315 11.5 4.53269V5.5ZM9 9C9 8.64936 9.06015 8.31278 9.17071 8H14.8293C14.9398 8.31278 15 8.64936 15 9C15 10.6569 13.6569 12 12 12C10.3431 12 9 10.6569 9 9ZM11.5 13C11.3508 13 11.2023 13.0061 11.0547 13.018L11.6096 13.7117C11.8098 13.9619 12.1903 13.9619 12.3905 13.7117L12.9454 13.018C12.7978 13.0061 12.6492 13 12.5 13H11.5ZM8.48931 13.8972C8.93829 13.6035 9.42729 13.3775 9.94029 13.2258L10.8288 14.3364C11.0123 14.5657 11.2463 14.725 11.5 14.8142V20H8.1803C8.20754 19.9415 8.23265 19.882 8.25579 19.8216C8.44826 19.3199 8.52964 18.7064 8.56175 18.0722C8.59417 17.4318 8.57774 16.7295 8.55429 16.0358C8.54948 15.8935 8.54438 15.7516 8.53931 15.6105C8.51939 15.0565 8.49989 14.5141 8.49989 14C8.49989 13.9648 8.49624 13.9304 8.48931 13.8972ZM12.5 14.8142C12.7537 14.7251 12.9878 14.5658 13.1714 14.3364L14.0598 13.2258C14.5728 13.3775 15.0617 13.6035 15.5107 13.8972C15.5038 13.9304 15.5001 13.9648 15.5001 14C15.5001 14.514 15.4806 15.057 15.4607 15.6109C15.4556 15.7518 15.4505 15.8937 15.4457 16.0358C15.4223 16.7295 15.4058 17.4318 15.4382 18.0722C15.4704 18.7064 15.5517 19.3199 15.7442 19.8216C15.7674 19.882 15.7925 19.9415 15.8197 20H12.5V14.8142ZM17.0464 19.9744C16.908 19.8918 16.783 19.7376 16.6779 19.4635C16.5422 19.1098 16.4674 18.6217 16.437 18.0216C16.4069 17.4276 16.4217 16.7627 16.4451 16.0696C16.4498 15.9326 16.4547 15.7942 16.4597 15.6553C16.471 15.3424 16.4824 15.0264 16.4902 14.7147C17.4583 15.7352 18 17.0897 18 18.5V18.8C18 19.1183 17.8736 19.4235 17.6485 19.6485C17.4825 19.8146 17.2728 19.9269 17.0464 19.9744ZM6 18.5C6 17.0897 6.54168 15.7352 7.50983 14.7147C7.51762 15.0264 7.52899 15.3425 7.54026 15.6554C7.54525 15.7942 7.55024 15.9327 7.55486 16.0696C7.57829 16.7627 7.59311 17.4276 7.56303 18.0216C7.53265 18.6217 7.45778 19.1098 7.32212 19.4635C7.21697 19.7376 7.09197 19.8918 6.95361 19.9744C6.72723 19.9269 6.51752 19.8146 6.35147 19.6485C6.12643 19.4235 6 19.1183 6 18.8V18.5Z" fill="#00164E"/>
</svg>
