<svg width="24" height="24" viewBox="0 0 24 24" fill="none" xmlns="http://www.w3.org/2000/svg">
<path d="M12 5C12.1418 5 12.2768 5.06016 12.3717 5.16552L16.8717 10.1655C17.0037 10.3123 17.0371 10.523 16.9568 10.7034C16.8764 10.8838 16.6975 11 16.5 11H7.50001C7.30255 11 7.12359 10.8838 7.04326 10.7034C6.96293 10.523 6.99627 10.3123 7.12836 10.1655L11.6284 5.16552C11.7232 5.06016 11.8583 5 12 5Z" fill="#00164E"/>
<path d="M12 13C12.1418 13 12.2768 13.0602 12.3717 13.1655L16.8717 18.1655C17.0037 18.3123 17.0371 18.523 16.9568 18.7034C16.8764 18.8838 16.6975 19 16.5 19H7.50001C7.30255 19 7.12359 18.8838 7.04326 18.7034C6.96293 18.523 6.99627 18.3123 7.12836 18.1655L11.6284 13.1655C11.7232 13.0602 11.8583 13 12 13Z" fill="#00164E"/>
</svg>
