<svg width="24" height="24" viewBox="0 0 24 24" fill="none" xmlns="http://www.w3.org/2000/svg">
<path d="M5 4.5C5 3.11929 6.11929 2 7.5 2H14.5C15.8807 2 17 3.11929 17 4.5V6C17 6.27614 16.7761 6.5 16.5 6.5C16.2239 6.5 16 6.27614 16 6V4.5C16 3.67157 15.3284 3 14.5 3H7.5C6.67157 3 6 3.67157 6 4.5V19.5C6 20.3284 6.67157 21 7.5 21H14.5C15.3284 21 16 20.3284 16 19.5V17C16 16.7239 16.2239 16.5 16.5 16.5C16.7761 16.5 17 16.7239 17 17V19.5C17 20.8807 15.8807 22 14.5 22H7.5C6.11929 22 5 20.8807 5 19.5V4.5Z" fill="#00164E"/>
<path d="M11 19.5C11.5523 19.5 12 19.0523 12 18.5C12 17.9477 11.5523 17.5 11 17.5C10.4477 17.5 10 17.9477 10 18.5C10 19.0523 10.4477 19.5 11 19.5Z" fill="#00164E"/>
<path fill-rule="evenodd" clip-rule="evenodd" d="M17.9528 14.6599C17.2755 15.1865 16.4244 15.5 15.5 15.5C13.2909 15.5 11.5 13.7091 11.5 11.5C11.5 9.29086 13.2909 7.5 15.5 7.5C17.7091 7.5 19.5 9.29086 19.5 11.5C19.5 12.4243 19.1865 13.2755 18.6599 13.9528L21.3539 16.6465C21.5492 16.8417 21.5492 17.1583 21.354 17.3536C21.1587 17.5489 20.8422 17.5489 20.6469 17.3536L17.9528 14.6599ZM15.5 8.5C13.8431 8.5 12.5 9.84315 12.5 11.5C12.5 13.1569 13.8431 14.5 15.5 14.5C17.1569 14.5 18.5 13.1569 18.5 11.5C18.5 9.84315 17.1569 8.5 15.5 8.5Z" fill="#00164E"/>
</svg>
