<svg width="24" height="24" viewBox="0 0 24 24" fill="none" xmlns="http://www.w3.org/2000/svg">
<path fill-rule="evenodd" clip-rule="evenodd" d="M5 3.5C5 3.22386 5.22386 3 5.5 3H13V6.30005C13 6.68665 13.3134 7.00005 13.7 7.00005H17V11.5C17 11.7761 17.2239 12 17.5 12C17.7761 12 18 11.7761 18 11.5V6.71961C18 6.30772 17.8306 5.91395 17.5316 5.63068L14.1331 2.41107C13.8545 2.14712 13.4853 2 13.1015 2H5.5C4.67157 2 4 2.67157 4 3.5V19.5C4 20.3284 4.67157 21 5.5 21H11.5C11.7761 21 12 20.7761 12 20.5C12 20.2239 11.7761 20 11.5 20H5.5C5.22386 20 5 19.7761 5 19.5V3.5ZM14 3.70716L16.2929 6.00005H14V3.70716Z" fill="#00164E"/>
<path d="M7 7C6.72386 7 6.5 7.22386 6.5 7.5C6.5 7.77614 6.72386 8 7 8H10.57C10.8461 8 11.07 7.77614 11.07 7.5C11.07 7.22386 10.8461 7 10.57 7H7Z" fill="#00164E"/>
<path d="M7 12C6.72386 12 6.5 12.2239 6.5 12.5C6.5 12.7761 6.72386 13 7 13H13C13.2761 13 13.5 12.7761 13.5 12.5C13.5 12.2239 13.2761 12 13 12H7Z" fill="#00164E"/>
<path d="M7 9.5C6.72386 9.5 6.5 9.72386 6.5 10C6.5 10.2761 6.72386 10.5 7 10.5H14.5C14.7761 10.5 15 10.2761 15 10C15 9.72386 14.7761 9.5 14.5 9.5H7Z" fill="#00164E"/>
<path fill-rule="evenodd" clip-rule="evenodd" d="M18.7548 16.9341C18.7548 15.9501 18.1008 15.5601 17.0088 15.5601H15.3408V20.0001H16.3008V18.3261H16.8648L17.7888 20.0001H18.8208L17.8308 18.2001C18.4248 18.0201 18.7548 17.6361 18.7548 16.9341ZM17.8008 16.9581C17.8008 17.4081 17.5308 17.5701 16.9668 17.5701H16.3008V16.3581H16.9668C17.5308 16.3581 17.8008 16.5201 17.8008 16.9581Z" fill="#00164E"/>
<path fill-rule="evenodd" clip-rule="evenodd" d="M12 18C12 15.2386 14.2386 13 17 13C19.7614 13 22 15.2386 22 18C22 20.7614 19.7614 23 17 23C14.2386 23 12 20.7614 12 18ZM17 14C14.7909 14 13 15.7909 13 18C13 20.2091 14.7909 22 17 22C19.2091 22 21 20.2091 21 18C21 15.7909 19.2091 14 17 14Z" fill="#00164E"/>
</svg>
