<svg width="24" height="24" viewBox="0 0 24 24" fill="none" xmlns="http://www.w3.org/2000/svg">
<path fill-rule="evenodd" clip-rule="evenodd" d="M12 10.5C10.067 10.5 8.5 12.067 8.5 14C8.5 15.933 10.067 17.5 12 17.5C13.933 17.5 15.5 15.933 15.5 14C15.5 12.067 13.933 10.5 12 10.5ZM9.5 14C9.5 12.6193 10.6193 11.5 12 11.5C13.3807 11.5 14.5 12.6193 14.5 14C14.5 15.3807 13.3807 16.5 12 16.5C10.6193 16.5 9.5 15.3807 9.5 14Z" fill="#00164E"/>
<path fill-rule="evenodd" clip-rule="evenodd" d="M9.68765 5.60957C9.77631 5.53864 9.88646 5.5 10 5.5H14.25C14.3725 5.5 14.4907 5.54494 14.5822 5.6263L16.6901 7.5H19.5C20.3284 7.5 21 8.17157 21 9V17C21 17.8284 20.3284 18.5 19.5 18.5H15.5C15.4103 18.5 15.3261 18.4764 15.2534 18.435C14.3423 19.1045 13.2173 19.5 12 19.5C10.7827 19.5 9.65773 19.1045 8.74663 18.435C8.67385 18.4764 8.58968 18.5 8.5 18.5H4.5C3.67157 18.5 3 17.8284 3 17V9C3 8.17157 3.67157 7.5 4.5 7.5H7.32461L9.68765 5.60957ZM20 17C20 17.2761 19.7761 17.5 19.5 17.5H16.2428C17.0282 16.5491 17.5 15.3296 17.5 14C17.5 10.9624 15.0376 8.5 12 8.5C8.96243 8.5 6.5 10.9624 6.5 14C6.5 15.3296 6.97182 16.5491 7.75716 17.5H4.5C4.22386 17.5 4 17.2761 4 17V9C4 8.72386 4.22386 8.5 4.5 8.5H7.5C7.61354 8.5 7.72369 8.46136 7.81235 8.39043L10.1754 6.5H14.0599L16.1678 8.3737C16.2593 8.45506 16.3775 8.5 16.5 8.5H19.5C19.7761 8.5 20 8.72386 20 9V17ZM12 9.5C9.51472 9.5 7.5 11.5147 7.5 14C7.5 16.4853 9.51472 18.5 12 18.5C14.4853 18.5 16.5 16.4853 16.5 14C16.5 11.5147 14.4853 9.5 12 9.5Z" fill="#00164E"/>
</svg>
