<svg width="24" height="24" viewBox="0 0 24 24" fill="none" xmlns="http://www.w3.org/2000/svg">
<path d="M10.5 5L10.5 2.5C10.5 2.22386 10.7239 2 11 2C11.2761 2 11.5 2.22386 11.5 2.5V5C11.5 5.27614 11.2761 5.5 11 5.5C10.7239 5.5 10.5 5.27614 10.5 5Z" fill="#00164E"/>
<path d="M8.5 3C8.5 2.72386 8.27614 2.5 8 2.5C7.72386 2.5 7.5 2.72386 7.5 3V4.5C7.5 4.77614 7.72386 5 8 5C8.27614 5 8.5 4.77614 8.5 4.5V3Z" fill="#00164E"/>
<path fill-rule="evenodd" clip-rule="evenodd" d="M4.5 7C4.5 6.72386 4.72386 6.5 5 6.5H17C17.2761 6.5 17.5 6.72386 17.5 7V8.5H19.1585C20.172 8.5 20.9587 9.38381 20.8412 10.3904L20.8232 10.5453C20.556 12.8348 19.347 14.9051 17.4938 16.2628C17.3567 19.1783 14.9495 21.5 12 21.5H10C6.96243 21.5 4.5 19.0376 4.5 16V7ZM19.8299 10.4294C19.6251 12.1847 18.7906 13.7934 17.5 14.9679V9.5H19.1585C19.5738 9.5 19.8961 9.86211 19.848 10.2745L19.8299 10.4294ZM10 20.5C7.51472 20.5 5.5 18.4853 5.5 16V14H16.5V16C16.5 18.4853 14.4853 20.5 12 20.5H10ZM5.5 11V13H16.5V11H5.5ZM16.5 10V7.5H5.5V10H16.5Z" fill="#00164E"/>
<path d="M14.5 3C14.5 2.72386 14.2761 2.5 14 2.5C13.7239 2.5 13.5 2.72386 13.5 3V4.5C13.5 4.77614 13.7239 5 14 5C14.2761 5 14.5 4.77614 14.5 4.5V3Z" fill="#00164E"/>
</svg>
