<svg width="24" height="24" viewBox="0 0 24 24" fill="none" xmlns="http://www.w3.org/2000/svg">
<path fill-rule="evenodd" clip-rule="evenodd" d="M14 7C14 8.34473 13.3364 9.53448 12.3189 10.2597C13.2489 10.5308 14.113 11.0082 14.843 11.6638C15.364 11.5571 15.9224 11.5 16.5 11.5C17.8113 11.5 19.0231 11.7942 19.9248 12.2952C20.8096 12.7867 21.5 13.5456 21.5 14.5C21.5 14.6138 21.4902 14.7248 21.4714 14.8329C21.4899 14.8852 21.5 14.9414 21.5 15V19C21.5 19.4388 21.2978 19.8192 21.0086 20.1232C20.7218 20.4245 20.3304 20.6732 19.885 20.8711C18.9931 21.2676 17.7959 21.5 16.5 21.5C15.2041 21.5 14.0069 21.2676 13.115 20.8711C12.6696 20.6732 12.2782 20.4245 11.9914 20.1232C11.7022 19.8192 11.5 19.4388 11.5 19H5.2C4.61652 19 4.05694 18.7682 3.64437 18.3556C3.23179 17.9431 3 17.3835 3 16.8V16.5C3 14.7761 3.68482 13.1228 4.90381 11.9038C5.68359 11.124 6.6411 10.5628 7.68113 10.2597C6.66357 9.53448 6 8.34473 6 7C6 4.79086 7.79086 3 10 3C12.2091 3 14 4.79086 14 7ZM10 4C8.34315 4 7 5.34315 7 7C7 8.65685 8.34315 10 10 10C11.6569 10 13 8.65685 13 7C13 5.34315 11.6569 4 10 4ZM20.2842 19.4338C20.4504 19.2592 20.5 19.1135 20.5 19V18.54C20.3123 18.663 20.1053 18.7732 19.885 18.8711C18.9931 19.2676 17.7959 19.5 16.5 19.5C15.2041 19.5 14.0069 19.2676 13.115 18.8711C12.8947 18.7732 12.6877 18.663 12.5 18.54V19C12.5 19.1135 12.5496 19.2592 12.7158 19.4338C12.8845 19.611 13.1521 19.7933 13.5211 19.9573C14.2578 20.2847 15.3106 20.5 16.5 20.5C17.6894 20.5 18.7422 20.2847 19.4789 19.9573C19.8479 19.7933 20.1155 19.611 20.2842 19.4338ZM20.2842 17.4338C20.4504 17.2592 20.5 17.1135 20.5 17V16.3229C20.3227 16.4638 20.1289 16.5915 19.9248 16.7048C19.0231 17.2058 17.8113 17.5 16.5 17.5C15.1887 17.5 13.9769 17.2058 13.0752 16.7048C12.8711 16.5915 12.6773 16.4638 12.5 16.3229V17C12.5 17.1135 12.5496 17.2592 12.7158 17.4338C12.8845 17.611 13.1521 17.7933 13.5211 17.9573C14.2578 18.2847 15.3106 18.5 16.5 18.5C17.6894 18.5 18.7422 18.2847 19.4789 17.9573C19.8479 17.7933 20.1155 17.611 20.2842 17.4338ZM11.5 14.5C11.5 14.6138 11.5098 14.7248 11.5286 14.8329C11.5101 14.8852 11.5 14.9414 11.5 15V18H5.2C4.88174 18 4.57652 17.8736 4.35147 17.6485C4.12643 17.4235 4 17.1183 4 16.8V16.5C4 15.0413 4.57946 13.6424 5.61091 12.6109C6.64236 11.5795 8.04131 11 9.5 11H10.5C11.6453 11 12.7539 11.3573 13.6766 12.01C13.4639 12.0956 13.2629 12.1909 13.0752 12.2952C12.1904 12.7867 11.5 13.5456 11.5 14.5ZM12.5 14.5C12.5 14.0737 12.8169 13.5826 13.5608 13.1693C14.2878 12.7654 15.326 12.5 16.5 12.5C17.674 12.5 18.7122 12.7654 19.4392 13.1693C20.1831 13.5826 20.5 14.0737 20.5 14.5C20.5 14.9263 20.1831 15.4174 19.4392 15.8307C18.7122 16.2346 17.674 16.5 16.5 16.5C15.326 16.5 14.2878 16.2346 13.5608 15.8307C12.8169 15.4174 12.5 14.9263 12.5 14.5Z" fill="#00164E"/>
</svg>
