<svg width="24" height="24" viewBox="0 0 24 24" fill="none" xmlns="http://www.w3.org/2000/svg">
<path d="M13.5454 2.98503C13.261 2.6839 12.7863 2.67033 12.4852 2.95474L4.25495 10.7277C3.52374 11.4183 3.52374 12.5817 4.25495 13.2723L12.4852 21.0453C12.7863 21.3297 13.261 21.3161 13.5454 21.015C13.8298 20.7138 13.8162 20.2392 13.5151 19.9547L5.28489 12.1818C5.18043 12.0831 5.18043 11.9169 5.28489 11.8182L13.5151 4.04526C13.8162 3.76085 13.8298 3.28617 13.5454 2.98503Z" fill="#00164E"/>
<path d="M20.5454 2.98503C20.261 2.6839 19.7863 2.67033 19.4852 2.95474L11.255 10.7277C10.5237 11.4183 10.5237 12.5817 11.255 13.2723L19.4852 21.0453C19.7863 21.3297 20.261 21.3161 20.5454 21.015C20.8298 20.7138 20.8162 20.2392 20.5151 19.9547L12.2849 12.1818C12.1804 12.0831 12.1804 11.9169 12.2849 11.8182L20.5151 4.04526C20.8162 3.76085 20.8298 3.28617 20.5454 2.98503Z" fill="#00164E"/>
</svg>
