<svg width="24" height="24" viewBox="0 0 24 24" fill="none" xmlns="http://www.w3.org/2000/svg">
<path fill-rule="evenodd" clip-rule="evenodd" d="M10.759 3.25713C11.1505 3.08672 11.573 2.99878 12 2.99878C12.427 2.99878 12.8495 3.08672 13.241 3.25713C13.6325 3.42749 13.9847 3.67663 14.2757 3.98902L15.5 5.30064V4.7143C15.5 4.43905 15.5753 4.15326 15.7368 3.92249C15.8996 3.69003 16.1656 3.50002 16.5 3.50002H18.5C18.8344 3.50002 19.1004 3.69003 19.2632 3.92249C19.4247 4.15326 19.5 4.43905 19.5 4.7143V9.50002C19.5 9.52696 19.4979 9.5534 19.4938 9.57919L20.1655 10.2988C20.7019 10.8748 21.0003 11.633 21 12.42V19.19C21 19.6701 20.8093 20.1304 20.4699 20.4699C20.1304 20.8093 19.67 21 19.19 21H4.81C4.32996 21 3.86958 20.8093 3.53014 20.4699C3.1907 20.1304 3 19.6701 3 19.19V12.4203C2.99969 11.6333 3.29775 10.8752 3.8341 10.2993L9.7241 3.98926C10.0151 3.67687 10.3675 3.42749 10.759 3.25713ZM16.5 6.37195L18.5 8.51456V4.7143C18.5 4.61431 18.472 4.53858 18.4467 4.50002H16.5533C16.528 4.53858 16.5 4.61431 16.5 4.7143V6.37195ZM15.5515 6.82136C15.5951 6.90941 15.6638 6.9828 15.7483 7.03212L19.4343 10.981C19.7981 11.3718 20.0003 11.8861 20 12.42V19.19C20 19.4048 19.9147 19.6109 19.7628 19.7628C19.6109 19.9147 19.4048 20 19.19 20H15V14.5C15 14.1287 14.8779 13.7582 14.64 13.4728C14.4 13.1848 14.0528 13 13.6667 13H10.3333C9.94723 13 9.60001 13.1848 9.35997 13.4728C9.12214 13.7582 9 14.1287 9 14.5V20H4.81C4.59517 20 4.38915 19.9147 4.23724 19.7628C4.08534 19.6109 4 19.4048 4 19.19L4 12.4198C3.99975 11.8859 4.20213 11.3715 4.5659 10.9808L10.4559 4.67077C10.6534 4.45876 10.8924 4.28967 11.158 4.17406C11.4237 4.05844 11.7103 3.99878 12 3.99878C12.2897 3.99878 12.5763 4.05844 12.842 4.17406C13.1076 4.28967 13.347 4.45918 13.5445 4.6712L15.5515 6.82136ZM13.8718 14.113C13.9465 14.2027 14 14.3409 14 14.5V20H10V14.5C10 14.3409 10.0535 14.2027 10.1282 14.113C10.2007 14.026 10.2774 14 10.3333 14H13.6667C13.7226 14 13.7993 14.026 13.8718 14.113Z" fill="#00164E"/>
</svg>
