<svg width="24" height="24" viewBox="0 0 24 24" fill="none" xmlns="http://www.w3.org/2000/svg">
<path d="M5.5 2C4.11929 2 3 3.11929 3 4.5V19.5C3 20.8807 4.11929 22 5.5 22H12.5C13.8807 22 15 20.8807 15 19.5V18C15 17.7239 14.7761 17.5 14.5 17.5C14.2239 17.5 14 17.7239 14 18V19.5C14 20.3284 13.3284 21 12.5 21H5.5C4.67157 21 4 20.3284 4 19.5V4.5C4 3.67157 4.67157 3 5.5 3H12.5C13.3284 3 14 3.67157 14 4.5V5C14 5.27614 14.2239 5.5 14.5 5.5C14.7761 5.5 15 5.27614 15 5V4.5C15 3.11929 13.8807 2 12.5 2H5.5Z" fill="#00164E"/>
<path d="M10 19C10 19.5523 9.55228 20 9 20C8.44772 20 8 19.5523 8 19C8 18.4477 8.44772 18 9 18C9.55228 18 10 18.4477 10 19Z" fill="#00164E"/>
<path d="M19 11.5C19 11.7761 18.7761 12 18.5 12C18.2239 12 18 11.7761 18 11.5C18 11.2239 18.2239 11 18.5 11C18.7761 11 19 11.2239 19 11.5Z" fill="#00164E"/>
<path fill-rule="evenodd" clip-rule="evenodd" d="M7 8.5C7 7.11929 8.11929 6 9.5 6H18.5C19.8807 6 21 7.11929 21 8.5V9H21.5C21.7761 9 22 9.22386 22 9.5V13.5C22 13.7761 21.7761 14 21.5 14H21V14.5C21 15.8807 19.8807 17 18.5 17H9.5C8.11929 17 7 15.8807 7 14.5V8.5ZM18.5 16C19.3284 16 20 15.3284 20 14.5V14H18.5C17.1193 14 16 12.8807 16 11.5C16 10.1193 17.1193 9 18.5 9H20V8.5C20 7.67157 19.3284 7 18.5 7H10V16H18.5ZM8 8.5C8 7.84689 8.4174 7.29127 9 7.08535V15.9146C8.4174 15.7087 8 15.1531 8 14.5V8.5ZM17 11.5C17 10.6716 17.6716 10 18.5 10H21V13H18.5C17.6716 13 17 12.3284 17 11.5Z" fill="#00164E"/>
</svg>
