<svg width="24" height="24" viewBox="0 0 24 24" fill="none" xmlns="http://www.w3.org/2000/svg">
<path d="M8.561 8.71018C9.64419 8.23095 10.8156 7.9834 12.0001 7.9834C13.1845 7.9834 14.3559 8.23095 15.4391 8.71018C16.5223 9.18941 17.4934 9.88974 18.29 10.7662L18.2924 10.7689C18.5824 11.0833 18.8469 11.4203 19.0836 11.7766C19.2363 12.0066 19.5467 12.0692 19.7767 11.9164C20.0067 11.7637 20.0693 11.4533 19.9166 11.2233C19.651 10.8234 19.3541 10.4453 19.0288 10.0923C18.1387 9.11329 17.0538 8.33105 15.8437 7.79568C14.6331 7.26008 13.3239 6.9834 12.0001 6.9834C10.6762 6.9834 9.36703 7.26008 8.15641 7.79568C6.94632 8.33105 5.86143 9.11331 4.97125 10.0923C4.64595 10.4453 4.34913 10.8235 4.08356 11.2233C3.93077 11.4533 3.99339 11.7637 4.22342 11.9164C4.45344 12.0692 4.76377 12.0066 4.91655 11.7766C5.1532 11.4203 5.41774 11.0833 5.70767 10.7689L5.71005 10.7662C6.50674 9.88973 7.47781 9.18941 8.561 8.71018Z" fill="#00164E"/>
<path d="M13.0001 16.9999C13.0001 17.5522 12.5523 17.9999 12.0001 17.9999C11.4478 17.9999 11.0001 17.5522 11.0001 16.9999C11.0001 16.4477 11.4478 15.9999 12.0001 15.9999C12.5523 15.9999 13.0001 16.4477 13.0001 16.9999Z" fill="#00164E"/>
<path d="M12.0001 10.999C11.148 10.999 10.3056 11.1801 9.5289 11.5305C8.75218 11.8809 8.05883 12.3924 7.49486 13.0311L7.49154 13.0349C7.28193 13.2675 7.08982 13.5153 6.91684 13.7764C6.76429 14.0066 6.45403 14.0695 6.22385 13.917C5.99366 13.7644 5.93072 13.4541 6.08327 13.224C6.28307 12.9225 6.50489 12.6361 6.74691 12.3673C7.40442 11.6232 8.21253 11.0273 9.11773 10.6189C10.0237 10.2103 11.0062 9.99896 12.0001 9.99896C12.9939 9.99896 13.9764 10.2103 14.8824 10.6189C15.7876 11.0273 16.5957 11.6232 17.2532 12.3674C17.4952 12.6361 17.717 12.9225 17.9168 13.224C18.0694 13.4541 18.0064 13.7644 17.7763 13.917C17.5461 14.0695 17.2358 14.0066 17.0833 13.7764C16.9103 13.5153 16.7182 13.2675 16.5086 13.0349L16.5052 13.0311C15.9413 12.3924 15.2479 11.8809 14.4712 11.5305C13.6945 11.1801 12.8521 10.999 12.0001 10.999Z" fill="#00164E"/>
<path d="M10.4924 14.3568C10.9632 14.1321 11.4783 14.0155 12.0001 14.0155C12.5218 14.0155 13.0369 14.1321 13.5077 14.3568C13.9786 14.5816 14.3932 14.9087 14.7213 15.3144L14.7314 15.3265C14.8581 15.4733 14.9731 15.6297 15.0757 15.7943C15.2216 16.0287 15.53 16.1003 15.7644 15.9543C15.9988 15.8083 16.0705 15.5 15.9245 15.2656C15.7961 15.0595 15.6521 14.8635 15.4938 14.6793C15.0727 14.1606 14.5415 13.7422 13.9385 13.4544C13.3331 13.1654 12.6708 13.0155 12.0001 13.0155C11.3293 13.0155 10.667 13.1654 10.0616 13.4544C9.46053 13.7413 8.93069 14.158 8.51027 14.6745C8.35503 14.8465 8.21256 15.0298 8.08401 15.2226C7.93085 15.4524 7.99296 15.7628 8.22273 15.916C8.45251 16.0691 8.76294 16.007 8.9161 15.7773C9.01972 15.6218 9.13478 15.4743 9.26032 15.3359C9.26669 15.3289 9.27285 15.3217 9.2788 15.3144C9.60691 14.9087 10.0215 14.5816 10.4924 14.3568Z" fill="#00164E"/>
</svg>
