<svg width="24" height="24" viewBox="0 0 24 24" fill="none" xmlns="http://www.w3.org/2000/svg">
<path d="M6.97876 12.1317C7.29126 12.1317 7.49927 12.1414 7.60278 12.1609C7.74341 12.1863 7.85962 12.2498 7.95142 12.3514C8.04321 12.4529 8.08911 12.5818 8.08911 12.7381C8.08911 12.8651 8.05591 12.9764 7.9895 13.0721C7.92505 13.1678 7.83521 13.2381 7.71997 13.283C7.60474 13.3279 7.37622 13.3504 7.03442 13.3504H6.55981V12.1317H6.97876Z" fill="#00164E"/>
<path fill-rule="evenodd" clip-rule="evenodd" d="M6.5 2C5.67157 2 5 2.67157 5 3.5V10C4.44772 10 4 10.4477 4 11V16C4 16.5523 4.44772 17 5 17V20.5C5 21.3284 5.67157 22 6.5 22H17.5C18.3284 22 19 21.3284 19 20.5V17C19.5523 17 20 16.5523 20 16V11C20 10.4477 19.5523 10 19 10V6.91421C19 6.51639 18.842 6.13486 18.5607 5.85355L18.5141 5.80697L18.5121 5.80502L15.195 2.48786L15.193 2.48593L15.1464 2.43934C14.8651 2.15804 14.4836 2 14.0858 2H6.5ZM14.7 6.99999C14.3134 6.99999 14 6.68659 14 6.29999V3H6.5C6.22386 3 6 3.22386 6 3.5V10H18V6.99999H14.7ZM17.742 11.6688C17.8392 11.7407 17.9252 11.8217 18 11.9117C18.1565 12.0999 18.2639 12.3276 18.322 12.5945L17.4607 12.7557C17.4002 12.5447 17.2859 12.3787 17.1179 12.2576C16.9519 12.1346 16.7439 12.0731 16.4939 12.0731C16.115 12.0731 15.8133 12.1932 15.5886 12.4334C15.366 12.6736 15.2547 13.0301 15.2547 13.5027C15.2547 14.0125 15.3679 14.3953 15.5945 14.6512C15.8211 14.9051 16.1179 15.032 16.4851 15.032C16.6668 15.032 16.8484 14.9969 17.03 14.9266C17.2136 14.8543 17.3709 14.7674 17.5017 14.6658V14.1209H16.5086V13.3973H18.3777V15.1082C18.277 15.2057 18.1511 15.2968 18 15.3816C17.8785 15.4498 17.7408 15.514 17.5867 15.574C17.2429 15.7068 16.8943 15.7733 16.5408 15.7733C16.0916 15.7733 15.7 15.6795 15.366 15.492C15.032 15.3026 14.781 15.033 14.6131 14.6834C14.4451 14.3318 14.3611 13.95 14.3611 13.5379C14.3611 13.0906 14.4549 12.6932 14.6424 12.3455C14.8299 11.9979 15.1043 11.7313 15.4656 11.5457C15.741 11.4031 16.0838 11.3318 16.4939 11.3318C17.0271 11.3318 17.4431 11.4442 17.742 11.6688ZM18 20.5C18 20.7761 17.7761 21 17.5 21H6.5C6.22386 21 6 20.7761 6 20.5V17H18V20.5ZM7.08423 11.4051C7.61157 11.4051 7.95532 11.4266 8.11548 11.4695C8.36157 11.534 8.56763 11.6746 8.73364 11.8914C8.89966 12.1063 8.98267 12.3846 8.98267 12.7264C8.98267 12.9901 8.93481 13.2117 8.83911 13.3914C8.74341 13.5711 8.62134 13.7127 8.4729 13.8162C8.32642 13.9178 8.177 13.9852 8.02466 14.0184C7.81763 14.0594 7.51782 14.0799 7.12524 14.0799H6.55981V15.7H5.69263V11.4051H7.08423ZM15 3.7071L17.2929 5.99999H15V3.7071ZM10.7871 11.4051L12.5449 14.2733V11.4051H13.3506V15.7H12.4805L10.749 12.8992V15.7H9.94337V11.4051H10.7871Z" fill="#00164E"/>
</svg>
