<svg width="24" height="24" viewBox="0 0 24 24" fill="none" xmlns="http://www.w3.org/2000/svg">
<path d="M19.1213 17.6214C19.3975 17.6214 19.6213 17.3975 19.6213 17.1214C19.6213 16.8453 19.3975 16.6214 19.1213 16.6214H14.8787C14.6025 16.6214 14.3787 16.8453 14.3787 17.1214C14.3787 17.3975 14.6025 17.6214 14.8787 17.6214H19.1213Z" fill="#00164E"/>
<path fill-rule="evenodd" clip-rule="evenodd" d="M12.3189 10.2597C13.3364 9.53448 14 8.34473 14 7C14 4.79086 12.2091 3 10 3C7.79086 3 6 4.79086 6 7C6 8.34473 6.66357 9.53448 7.68113 10.2597C6.6411 10.5628 5.68359 11.124 4.90381 11.9038C3.68482 13.1228 3 14.7761 3 16.5V16.8C3 17.3835 3.23179 17.9431 3.64437 18.3556C4.05694 18.7682 4.61652 19 5.2 19H12.416C13.1876 20.7659 14.9497 22 17 22C19.7614 22 22 19.7614 22 17C22 14.2386 19.7614 12 17 12C16.4485 12 15.9179 12.0893 15.4217 12.2542C15.3179 12.1339 15.2093 12.017 15.0962 11.9038C14.3164 11.124 13.3589 10.5628 12.3189 10.2597ZM7 7C7 5.34315 8.34315 4 10 4C11.6569 4 13 5.34315 13 7C13 8.65685 11.6569 10 10 10C8.34315 10 7 8.65685 7 7ZM12 17C12 17.3425 12.0344 17.6769 12.1 18H5.2C4.88174 18 4.57652 17.8736 4.35147 17.6485C4.12643 17.4235 4 17.1183 4 16.8V16.5C4 15.0413 4.57946 13.6424 5.61091 12.6109C6.64236 11.5795 8.04131 11 9.5 11H10.5C11.9587 11 13.3576 11.5795 14.3891 12.6109C14.4149 12.6367 14.4404 12.6627 14.4656 12.689C12.9901 13.5583 12 15.1635 12 17ZM17 13C14.7909 13 13 14.7909 13 17C13 19.2091 14.7909 21 17 21C19.2091 21 21 19.2091 21 17C21 14.7909 19.2091 13 17 13Z" fill="#00164E"/>
</svg>
