<svg width="24" height="24" viewBox="0 0 24 24" fill="none" xmlns="http://www.w3.org/2000/svg">
<path fill-rule="evenodd" clip-rule="evenodd" d="M9.13148 9.30318C9.32674 9.49844 9.64332 9.49844 9.83859 9.30318L11.2527 10.7173L4.53512 17.4349C4.33986 17.6302 4.33986 17.9467 4.53512 18.142C4.73038 18.3373 5.04696 18.3373 5.24223 18.142L11.9598 11.4244L14.081 13.5458C13.8858 13.741 13.8858 14.0576 14.081 14.2529L15.4952 15.6671C15.6905 15.8623 16.0071 15.8623 16.2024 15.6671L19.7379 12.1315C19.9332 11.9363 19.9332 11.6197 19.7379 11.4244L18.3237 10.0102C18.1284 9.81498 17.8119 9.81495 17.6167 10.0101L13.3741 5.76762C13.5694 5.57236 13.5694 5.25579 13.3741 5.06054L11.9599 3.64632C11.7646 3.45106 11.4481 3.45106 11.2528 3.64632L7.71726 7.18186C7.522 7.37712 7.522 7.6937 7.71726 7.88897L9.13148 9.30318ZM17.9704 11.0709L15.1419 13.8994L15.8488 14.6064L18.6772 11.778L17.9704 11.0709ZM16.9095 10.7172L12.6671 6.47474L10.5457 8.59606L14.7882 12.8386L16.9095 10.7172ZM9.48507 8.24251L8.77793 7.53541L11.6064 4.70698L12.3135 5.41408L9.48507 8.24251Z" fill="#00164E"/>
<path fill-rule="evenodd" clip-rule="evenodd" d="M13.4997 19C13.4997 18.1716 14.1713 17.5 14.9997 17.5H18.9997C19.8281 17.5 20.4997 18.1716 20.4997 19V20C20.4997 20.2761 20.2758 20.5 19.9997 20.5H13.9997C13.7235 20.5 13.4997 20.2761 13.4997 20V19ZM14.9997 18.5C14.7235 18.5 14.4997 18.7239 14.4997 19V19.5H19.4997V19C19.4997 18.7239 19.2758 18.5 18.9997 18.5H14.9997Z" fill="#00164E"/>
</svg>
