<svg width="24" height="24" viewBox="0 0 24 24" fill="none" xmlns="http://www.w3.org/2000/svg">
<path d="M5.56092 14.4172C5.31106 14.2996 5.01319 14.4069 4.89561 14.6567C4.77803 14.9066 4.88526 15.2045 5.13512 15.322L6.87394 16.1403C7.1238 16.2579 7.42167 16.1506 7.53925 15.9008C7.65683 15.6509 7.5496 15.3531 7.29974 15.2355L5.56092 14.4172Z" fill="#00164E"/>
<path fill-rule="evenodd" clip-rule="evenodd" d="M11.7871 3.04759C11.9219 2.98414 12.0781 2.98414 12.2129 3.04759L20.7028 7.04283C20.7363 7.05773 20.7679 7.07624 20.7971 7.09783C20.8281 7.12072 20.8561 7.14696 20.8808 7.17591C20.9563 7.2647 21 7.37895 21 7.5V17.5C21 17.6937 20.8881 17.8699 20.7129 17.9524L12.2129 21.9524C12.0781 22.0159 11.9219 22.0159 11.7871 21.9524L3.2871 17.9524C3.11186 17.8699 3 17.6937 3 17.5V7.5C3 7.34206 3.07323 7.20123 3.18758 7.1096C3.2209 7.0829 3.25771 7.06038 3.29722 7.04283L11.7871 3.04759ZM20 17.1827L12.5 20.7121V11.8173L14.5001 10.8761V12.5C14.5001 12.6718 14.5884 12.8317 14.7338 12.9232C14.8793 13.0147 15.0615 13.0251 15.2165 12.9507L17.7165 11.7507C17.8898 11.6675 18.0001 11.4923 18.0001 11.3V9.22902L20 8.28789V17.1827ZM17.0001 9.6996L15.5001 10.4055V11.7054L17.0001 10.9854V9.6996ZM15.0976 9.48971L16.2639 8.94088L9.2765 5.4472C9.23985 5.42888 9.20644 5.40666 9.17651 5.3813L7.99385 5.93784L15.0976 9.48971ZM10.312 4.84693L17.4158 8.3988L19.3257 7.5L12 4.0526L10.312 4.84693ZM6.84194 6.47992L4.67427 7.5L12 10.9474L13.9457 10.0318L6.84194 6.47992ZM4 8.28789L11.5 11.8173V20.7121L4 17.1827V8.28789Z" fill="#00164E"/>
</svg>
