<svg width="24" height="24" viewBox="0 0 24 24" fill="none" xmlns="http://www.w3.org/2000/svg">
<path fill-rule="evenodd" clip-rule="evenodd" d="M12 9C13.6569 9 15 10.3431 15 12C15 13.6569 13.6569 15 12 15C10.3431 15 9 13.6569 9 12C9 10.3431 10.3431 9 12 9ZM13 11.5C12.7239 11.5 12.5 11.7239 12.5 12C12.5 12.2761 12.7239 12.5 13 12.5H13.937C13.715 13.3626 12.9319 14 12 14C10.8954 14 10 13.1046 10 12C10 10.8954 10.8954 10 12 10C12.9319 10 13.715 10.6374 13.937 11.5H13Z" fill="#00164E"/>
<path d="M18 9C18 8.72386 17.7761 8.5 17.5 8.5C17.2239 8.5 17 8.72386 17 9V15C17 15.2761 17.2239 15.5 17.5 15.5C17.7761 15.5 18 15.2761 18 15V9Z" fill="#00164E"/>
<path fill-rule="evenodd" clip-rule="evenodd" d="M5 3.5C4.17157 3.5 3.5 4.17157 3.5 5V18C3.5 18.8284 4.17157 19.5 5 19.5H5.5C5.5 20.0523 5.94772 20.5 6.5 20.5H9.5C10.0523 20.5 10.5 20.0523 10.5 19.5H13.5C13.5 20.0523 13.9477 20.5 14.5 20.5H17.5C18.0523 20.5 18.5 20.0523 18.5 19.5H19C19.8284 19.5 20.5 18.8284 20.5 18V5C20.5 4.17157 19.8284 3.5 19 3.5H5ZM19.5 18C19.5 18.2761 19.2761 18.5 19 18.5H5C4.72386 18.5 4.5 18.2761 4.5 18L4.5 17C4.77614 17 5 16.7761 5 16.5L5 14.5C5 14.2239 4.77614 14 4.5 14L4.5 9C4.77614 9 5 8.77614 5 8.5L5 6.5C5 6.22386 4.77614 6 4.5 6V5C4.5 4.72386 4.72386 4.5 5 4.5H19C19.2761 4.5 19.5 4.72386 19.5 5V18Z" fill="#00164E"/>
</svg>
