<svg width="24" height="24" viewBox="0 0 24 24" fill="none" xmlns="http://www.w3.org/2000/svg">
<path d="M7.53091 8.11261C7.34186 8.30691 7.19078 8.53919 7.08732 8.79648C6.98373 9.0541 6.93018 9.33116 6.93018 9.61141C6.93018 9.89164 6.98373 10.1686 7.08732 10.4262C7.14561 10.5712 7.21905 10.7083 7.3059 10.8351C7.46193 11.063 7.40372 11.3741 7.17588 11.5302C6.94804 11.6862 6.63686 11.628 6.48083 11.4001C6.35267 11.213 6.24485 11.0115 6.15951 10.7993C6.00797 10.4224 5.93018 10.0188 5.93018 9.61141C5.93018 9.20408 6.00796 8.80032 6.15951 8.42341C6.31108 8.04649 6.53364 7.70332 6.81518 7.41424L6.81646 7.41292C7.38831 6.83005 8.16168 6.5 8.97121 6.5C9.78036 6.5 10.5534 6.82974 11.1252 7.4121L11.126 7.41293L11.9302 8.22559L12.7344 7.41293L12.7353 7.41208C13.307 6.82973 14.08 6.5 14.8892 6.5C15.6987 6.5 16.4721 6.83006 17.0439 7.41293L17.0452 7.41424C17.3267 7.70332 17.5493 8.04649 17.7008 8.42341C17.8524 8.80032 17.9302 9.20408 17.9302 9.61141C17.9302 10.0188 17.8524 10.4224 17.7008 10.7993C17.6155 11.0115 17.5077 11.213 17.3795 11.4001C17.2235 11.628 16.9123 11.6862 16.6845 11.5302C16.4566 11.3741 16.3984 11.0629 16.5545 10.8351C16.6413 10.7083 16.7147 10.5712 16.773 10.4262C16.8766 10.1686 16.9302 9.89164 16.9302 9.61141C16.9302 9.33116 16.8766 9.05409 16.773 8.79648C16.6696 8.53916 16.5185 8.30686 16.3294 8.11254C15.9417 7.71771 15.4242 7.5 14.8892 7.5C14.3538 7.5 13.836 7.71798 13.4483 8.11325L13.4467 8.11479L12.2856 9.28812C12.1917 9.38301 12.0637 9.43641 11.9302 9.43641C11.7967 9.43641 11.6687 9.38301 11.5748 9.28812L10.4121 8.11325C10.0243 7.71798 9.50656 7.5 8.97121 7.5C8.43615 7.5 7.91864 7.71775 7.53091 8.11261Z" fill="#00164E"/>
<path d="M9.15264 13.1404C9.35126 12.9485 9.66779 12.954 9.85964 13.1526L11.9268 15.2928L14.1524 13.1406C14.3509 12.9486 14.6675 12.9539 14.8594 13.1524C15.0514 13.3509 15.0461 13.6675 14.8476 13.8594L12.2623 16.3594C12.1669 16.4517 12.0388 16.5022 11.9062 16.4999C11.7735 16.4977 11.6472 16.4428 11.5551 16.3474L9.14036 13.8474C8.94852 13.6487 8.95401 13.3322 9.15264 13.1404Z" fill="#00164E"/>
<path d="M14.6124 8.7757C14.5279 8.60721 14.3557 8.50062 14.1672 8.5C13.9787 8.49939 13.8058 8.60487 13.7202 8.7728L11.9934 12.1579L10.0961 10.2476C10.002 10.153 9.87402 10.0998 9.74056 10.1C9.60711 10.1002 9.47927 10.1537 9.38551 10.2487L7.49193 12.1667H6.29688C6.02073 12.1667 5.79688 12.3905 5.79688 12.6667C5.79688 12.9428 6.02073 13.1667 6.29688 13.1667H7.70091C7.83463 13.1667 7.96278 13.1131 8.05672 13.0179L9.74239 11.3106L11.7704 13.3524C11.8834 13.4661 12.044 13.5188 12.2024 13.494C12.3608 13.4692 12.4977 13.37 12.5706 13.2272L14.162 10.1074L15.5591 12.891C15.6439 13.06 15.8168 13.1667 16.006 13.1667H17.7635C18.0397 13.1667 18.2635 12.9428 18.2635 12.6667C18.2635 12.3905 18.0397 12.1667 17.7635 12.1667H16.3144L14.6124 8.7757Z" fill="#00164E"/>
<path fill-rule="evenodd" clip-rule="evenodd" d="M4.00967 2.72824C9.29235 1.75725 14.7078 1.75725 19.9904 2.72824C20.2097 2.76855 20.3758 2.94916 20.3977 3.17105L20.9472 8.75621L20.9474 8.75863C21.2591 11.644 20.5489 14.5474 18.9403 16.963C17.3313 19.3794 14.9255 21.1546 12.1421 21.9794C12.0494 22.0069 11.9507 22.0069 11.858 21.9794C9.0746 21.1546 6.6688 19.3794 5.0598 16.963C3.45126 14.5474 2.74101 11.644 3.0527 8.75865L3.60246 3.17105C3.62429 2.94916 3.79039 2.76855 4.00967 2.72824ZM4.56062 3.64539L4.04766 8.85896L4.04716 8.8638C3.76 11.5172 4.41292 14.1873 5.89216 16.4088C7.34395 18.5891 9.50136 20.2016 12.0001 20.9775C14.4988 20.2016 16.6562 18.5891 18.108 16.4088C19.5872 14.1873 20.2401 11.5172 19.953 8.8638L19.9524 8.85897L19.4395 3.64539C14.5172 2.78487 9.48291 2.78487 4.56062 3.64539Z" fill="#00164E"/>
</svg>
