<svg width="24" height="24" viewBox="0 0 24 24" fill="none" xmlns="http://www.w3.org/2000/svg">
<path fill-rule="evenodd" clip-rule="evenodd" d="M5 3.5C5 3.22386 5.22386 3 5.5 3H13V6.30005C13 6.68665 13.3134 7.00005 13.7 7.00005H17V11.5C17 11.7761 17.2239 12 17.5 12C17.7761 12 18 11.7761 18 11.5V6.71961C18 6.30772 17.8306 5.91395 17.5316 5.63068L14.1331 2.41107C13.8545 2.14712 13.4853 2 13.1015 2H5.5C4.67157 2 4 2.67157 4 3.5V19.5C4 20.3284 4.67157 21 5.5 21H12C12.2761 21 12.5 20.7761 12.5 20.5C12.5 20.2239 12.2761 20 12 20H5.5C5.22386 20 5 19.7761 5 19.5V3.5ZM16.2929 6.00005L14 3.70716V6.00005H16.2929Z" fill="#00164E"/>
<path d="M6.5 7.5C6.5 7.22386 6.72386 7 7 7H10.57C10.8461 7 11.07 7.22386 11.07 7.5C11.07 7.77614 10.8461 8 10.57 8H7C6.72386 8 6.5 7.77614 6.5 7.5Z" fill="#00164E"/>
<path d="M7 12C6.72386 12 6.5 12.2239 6.5 12.5C6.5 12.7761 6.72386 13 7 13H11C11.2761 13 11.5 12.7761 11.5 12.5C11.5 12.2239 11.2761 12 11 12H7Z" fill="#00164E"/>
<path d="M6.5 10C6.5 9.72386 6.72386 9.5 7 9.5H14.5C14.7761 9.5 15 9.72386 15 10C15 10.2761 14.7761 10.5 14.5 10.5H7C6.72386 10.5 6.5 10.2761 6.5 10Z" fill="#00164E"/>
<path d="M18.8536 16.3536C19.0488 16.1583 19.0488 15.8417 18.8536 15.6464C18.6583 15.4512 18.3417 15.4512 18.1464 15.6464L16.5 17.2929L15.8536 16.6464C15.6583 16.4512 15.3417 16.4512 15.1464 16.6464C14.9512 16.8417 14.9512 17.1583 15.1464 17.3536L16.1464 18.3536C16.3417 18.5488 16.6583 18.5488 16.8536 18.3536L18.8536 16.3536Z" fill="#00164E"/>
<path fill-rule="evenodd" clip-rule="evenodd" d="M13.1995 12.8494C15.7121 12.3835 18.2879 12.3835 20.8005 12.8494C21.0196 12.8901 21.1853 13.0708 21.2069 13.2925L21.465 15.9381C21.6174 17.3645 21.2693 18.8001 20.4806 19.9951C19.6913 21.1909 18.5105 22.0703 17.1432 22.4791C17.0498 22.507 16.9502 22.507 16.8568 22.4791C15.4895 22.0703 14.3087 21.1909 13.5194 19.9951C12.7307 18.8001 12.3826 17.3645 12.535 15.9381L12.7931 13.2925C12.8147 13.0708 12.9804 12.8901 13.1995 12.8494ZM13.7514 13.7677L13.5301 16.0375L13.5296 16.0423C13.4012 17.2391 13.6932 18.443 14.354 19.4442C14.987 20.4032 15.9196 21.1175 17 21.4758C18.0804 21.1175 19.013 20.4032 19.646 19.4442C20.3068 18.443 20.5988 17.2391 20.4704 16.0423L20.4699 16.0375L20.2486 13.7677C18.0973 13.4108 15.9027 13.4108 13.7514 13.7677Z" fill="#00164E"/>
</svg>
