<svg width="24" height="24" viewBox="0 0 24 24" fill="none" xmlns="http://www.w3.org/2000/svg">
<path fill-rule="evenodd" clip-rule="evenodd" d="M4.5 4C3.11929 4 2 5.11929 2 6.5V14.5C2 15.8807 3.11929 17 4.5 17H12C12.2761 17 12.5 16.7761 12.5 16.5C12.5 16.2239 12.2761 16 12 16H4.5C3.67157 16 3 15.3284 3 14.5V11H20V12C20 12.2761 20.2239 12.5 20.5 12.5C20.7761 12.5 21 12.2761 21 12V6.5C21 5.11929 19.8807 4 18.5 4H4.5ZM3 6.5C3 5.67157 3.67157 5 4.5 5H18.5C19.3284 5 20 5.67157 20 6.5V8H3V6.5Z" fill="#00164E"/>
<path d="M4.5 13C4.5 12.7239 4.72386 12.5 5 12.5H9C9.27614 12.5 9.5 12.7239 9.5 13C9.5 13.2761 9.27614 13.5 9 13.5H5C4.72386 13.5 4.5 13.2761 4.5 13Z" fill="#00164E"/>
<path d="M18 18C18 17.7239 17.7761 17.5 17.5 17.5C17.2239 17.5 17 17.7239 17 18V18.5C17 18.7761 17.2239 19 17.5 19C17.7761 19 18 18.7761 18 18.5V18Z" fill="#00164E"/>
<path fill-rule="evenodd" clip-rule="evenodd" d="M15.7007 12.6682C16.1464 12.2384 16.7472 12 17.37 12H17.63C18.2528 12 18.8536 12.2384 19.2993 12.6682C19.7457 13.0985 20 13.6862 20 14.303V15H21C21.2761 15 21.5 15.2239 21.5 15.5V19C21.5 20.3807 20.3807 21.5 19 21.5H16C14.6193 21.5 13.5 20.3807 13.5 19V15.5C13.5 15.2239 13.7239 15 14 15H15V14.303C15 13.6862 15.2543 13.0985 15.7007 12.6682ZM18.6052 13.388C18.8603 13.6339 19 13.9635 19 14.303V15H16V14.303C16 13.9635 16.1397 13.6339 16.3948 13.388C16.6504 13.1415 17.0009 13 17.37 13H17.63C17.9991 13 18.3496 13.1415 18.6052 13.388ZM16 20.5C15.1716 20.5 14.5 19.8284 14.5 19V16H20.5V19C20.5 19.8284 19.8284 20.5 19 20.5H16Z" fill="#00164E"/>
</svg>
