<svg width="24" height="24" viewBox="0 0 24 24" fill="none" xmlns="http://www.w3.org/2000/svg">
<path fill-rule="evenodd" clip-rule="evenodd" d="M14.3897 11.3107C13.6441 11.3107 12.93 11.2362 12.2778 11.0996C12.3854 11.4285 12.4561 11.7741 12.4852 12.1316C12.5075 12.4068 12.3025 12.648 12.0272 12.6704C11.752 12.6927 11.5108 12.4877 11.4884 12.2125C11.3425 10.4142 9.83617 9 8.00004 9C6.06705 9 4.50004 10.567 4.50004 12.5C4.50004 12.9651 4.59048 13.4078 4.75427 13.8124C4.85788 14.0684 4.73438 14.3599 4.47841 14.4635C4.22244 14.5671 3.93095 14.4436 3.82733 14.1876C3.61611 13.6658 3.50004 13.0958 3.50004 12.5C3.50004 10.0147 5.51476 8 8.00004 8C8.28761 8 8.56887 8.02697 8.84143 8.07851V6.04921C8.8391 6.0125 8.83792 5.97544 8.83792 5.93803C8.83792 4.96403 9.63973 4.22732 10.6002 3.76378C11.5959 3.28326 12.9363 3 14.3897 3C15.8431 3 17.1835 3.28326 18.1791 3.76378C19.1392 4.22711 19.9407 4.96335 19.9414 5.93667V5.93803L20 9.99355C20.004 10.2697 19.7834 10.4967 19.5072 10.5007C19.2428 10.5045 19.0233 10.3023 19.0018 10.0426C18.7551 10.2358 18.4746 10.4043 18.1791 10.5469C17.1835 11.0274 15.8431 11.3107 14.3897 11.3107ZM18.9414 5.93803C18.9414 5.56554 18.6124 5.08323 17.7445 4.66438C16.9118 4.26251 15.7263 4 14.3897 4C13.0531 4 11.8676 4.26251 11.0349 4.66438C10.2006 5.067 9.86423 5.52825 9.83941 5.89423C9.84075 5.90913 9.84143 5.92421 9.84143 5.93945V6.00539C9.87882 6.36747 10.2184 6.81765 11.0349 7.21167C11.8676 7.61354 13.0531 7.87605 14.3897 7.87605C15.7263 7.87605 16.9118 7.61354 17.7445 7.21167C18.6124 6.79282 18.9414 6.31052 18.9414 5.93803ZM9.84143 7.65688C10.0722 7.82977 10.33 7.98184 10.6002 8.11227C11.5959 8.59279 12.9363 8.87605 14.3897 8.87605C15.8431 8.87605 17.1835 8.59279 18.1791 8.11227C18.4604 7.97655 18.728 7.81741 18.9658 7.63576L18.9739 8.19497C18.9529 8.25018 18.9414 8.31007 18.9414 8.37263C18.9414 8.74512 18.6124 9.22743 17.7445 9.64628C16.9118 10.0481 15.7263 10.3107 14.3897 10.3107C13.3704 10.3107 12.435 10.1579 11.6765 9.90449C11.2136 9.24992 10.5803 8.72446 9.84121 8.39264L9.84143 8.37748V7.65688Z" fill="#00164E"/>
<path d="M8.10176 18.43C7.2506 18.4832 6.44813 18.8453 5.84511 19.4484L4.14731 21.1462C3.95205 21.3415 3.95206 21.6581 4.14732 21.8533C4.34259 22.0486 4.65917 22.0486 4.85443 21.8533L6.55223 20.1555C6.98296 19.7247 7.55615 19.466 8.16412 19.428L13.7715 19.0777C14.6956 19.0199 15.5794 18.6785 16.3024 18.1L21.587 13.8714C22.4632 13.1703 22.4422 11.8308 21.5444 11.1574C20.925 10.6929 20.0714 10.7004 19.4603 11.1757L15.9892 13.8754C15.7523 13.3588 15.2306 13 14.625 13H8.68624C8.1303 13 7.59022 13.1853 7.15139 13.5266L3.19305 16.6053C2.97508 16.7749 2.93581 17.089 3.10535 17.307C3.27488 17.5249 3.58902 17.5642 3.80699 17.3947L7.76533 14.316C8.02863 14.1112 8.35267 14 8.68624 14H14.625C14.9012 14 15.125 14.2239 15.125 14.5C15.125 14.7761 14.9012 15 14.625 15H11C10.7239 15 10.5 15.2239 10.5 15.5C10.5 15.7761 10.7239 16 11 16H14.625C15.2788 16 15.8349 15.5818 16.0403 14.9983C16.1345 14.9909 16.2277 14.9568 16.3079 14.8944L20.0742 11.965C20.3294 11.7666 20.6858 11.7635 20.9444 11.9574C21.3193 12.2386 21.3281 12.7979 20.9622 13.0906L15.6776 17.3192C15.1153 17.7692 14.4279 18.0347 13.7091 18.0796L8.10176 18.43Z" fill="#00164E"/>
<path d="M8.00003 11C7.1716 11 6.50003 11.6716 6.50003 12.5C6.50003 12.6614 6.52535 12.816 6.57188 12.9604C6.65653 13.2233 6.51208 13.505 6.24923 13.5896C5.98638 13.6743 5.70468 13.5298 5.62003 13.267C5.54198 13.0247 5.50003 12.7668 5.50003 12.5C5.50003 11.1193 6.61932 10 8.00003 10C9.24398 10 10.2749 10.908 10.4677 12.0975C10.5119 12.3701 10.3268 12.6269 10.0542 12.6711C9.78159 12.7152 9.5248 12.5301 9.48061 12.2575C9.36502 11.5445 8.74563 11 8.00003 11Z" fill="#00164E"/>
</svg>
