<svg width="24" height="24" viewBox="0 0 24 24" fill="none" xmlns="http://www.w3.org/2000/svg">
<path fill-rule="evenodd" clip-rule="evenodd" d="M11.9999 2C12.0424 2 12.0837 2.0053 12.1231 2.01529C12.1468 2.00544 12.1727 2 12.1999 2H14.7999C14.9104 2 14.9999 2.08954 14.9999 2.2V3.8C14.9999 3.91046 14.9104 4 14.7999 4H12.4999V5.51787C14.1737 5.63767 15.7553 6.35586 16.9496 7.55025C17.6523 8.25287 18.1901 9.08947 18.5382 10H19.5C19.7761 10 20 10.2239 20 10.5V12.5C20 12.7761 19.7761 13 19.5 13H19V18H19.5C19.7761 18 20 18.2239 20 18.5V20H20.5C20.7761 20 21 20.2239 21 20.5V22.5C21 22.7761 20.7761 23 20.5 23H3.5C3.22386 23 3 22.7761 3 22.5V20.5C3 20.2239 3.22386 20 3.5 20H4V18.5C4 18.2239 4.22386 18 4.5 18H5V13H4.5C4.22386 13 4 12.7761 4 12.5V10.5C4 10.2239 4.22386 10 4.5 10H5.46155C5.80971 9.08947 6.34753 8.25287 7.05015 7.55025C8.24456 6.35584 9.82616 5.63765 11.4999 5.51786V2.5C11.4999 2.22386 11.7238 2 11.9999 2ZM7.75726 8.25736C7.2481 8.76652 6.83989 9.35777 6.54554 10H17.4543C17.1599 9.35777 16.7517 8.76652 16.2425 8.25736C15.1173 7.13214 13.5912 6.5 11.9999 6.5C10.4086 6.5 8.88247 7.13214 7.75726 8.25736ZM17 13H18V18H17V13ZM5 12V11H19V12H5ZM16 13H14V18H16V13ZM11 13H13V18H11V13ZM8 13H10V18H8V13ZM6 13H7V18H6V13ZM19 20V19H5V20H19ZM4 21V22H20V21H4Z" fill="#00164E"/>
</svg>
