<svg width="24" height="24" viewBox="0 0 24 24" fill="none" xmlns="http://www.w3.org/2000/svg">
<path fill-rule="evenodd" clip-rule="evenodd" d="M12 22C6.64481 22 2.2728 17.7906 2.01228 12.5H2V11.5H2.01228C2.2728 6.20944 6.64481 2 12 2C17.3552 2 21.7272 6.20944 21.9877 11.5H22V12.5H21.9877C21.7272 17.7906 17.3552 22 12 22ZM8.73256 20.3885C5.52483 19.1382 3.21083 16.101 3.01365 12.5H6.00737C6.10505 15.8062 7.16615 18.6902 8.73256 20.3885ZM8.73255 3.61148C7.16614 5.30978 6.10505 8.19379 6.00737 11.5H3.01365C3.21083 7.89905 5.52482 4.86185 8.73255 3.61148ZM8.61485 18.5566C7.70001 17.0318 7.08335 14.9063 7.00783 12.5H10.0025C10.038 16.113 10.4571 19.2218 11.0604 20.8301C10.1956 20.5167 9.34108 19.767 8.61485 18.5566ZM8.61485 5.44343C7.70001 6.96816 7.08335 9.09367 7.00783 11.5H10.0025C10.038 7.88698 10.4571 4.77817 11.0604 3.16993C10.1956 3.4833 9.34108 4.23305 8.61485 5.44343ZM11.5664 18.875C11.2422 17.254 11.0278 15.0138 11.0025 12.5H12.9975C12.9722 15.0138 12.7578 17.254 12.4336 18.875C12.2977 19.5547 12.1485 20.094 12 20.4877C11.8515 20.094 11.7023 19.5547 11.5664 18.875ZM11.5664 5.12505C11.2422 6.74596 11.0278 8.98619 11.0025 11.5H12.9975C12.9722 8.98619 12.7578 6.74596 12.4336 5.12505C12.2977 4.44529 12.1485 3.90599 12 3.51233C11.8515 3.90599 11.7023 4.44529 11.5664 5.12505ZM12.9396 20.8301C13.5429 19.2218 13.962 16.113 13.9975 12.5H16.9922C16.9166 14.9063 16.3 17.0318 15.3851 18.5566C14.6589 19.767 13.8044 20.5167 12.9396 20.8301ZM12.9396 3.16993C13.5429 4.77817 13.962 7.88698 13.9975 11.5H16.9922C16.9166 9.09367 16.3 6.96816 15.3851 5.44343C14.6589 4.23305 13.8044 3.4833 12.9396 3.16993ZM15.2674 20.3885C16.8339 18.6902 17.8949 15.8062 17.9926 12.5H20.9863C20.7892 16.101 18.4752 19.1382 15.2674 20.3885ZM15.2674 3.61148C16.8339 5.30978 17.8949 8.19379 17.9926 11.5H20.9863C20.7892 7.89905 18.4752 4.86185 15.2674 3.61148Z" fill="#00164E"/>
</svg>
