<svg width="24" height="24" viewBox="0 0 24 24" fill="none" xmlns="http://www.w3.org/2000/svg">
<path fill-rule="evenodd" clip-rule="evenodd" d="M7.5 8C7.10215 8 6.72064 8.15807 6.43935 8.43935C6.26334 8.61537 6.13557 8.83063 6.06459 9.06459C5.83063 9.13557 5.61537 9.26334 5.43935 9.43935C5.15807 9.72064 5 10.1021 5 10.5C5 10.8979 5.15807 11.2794 5.43935 11.5606C5.61537 11.7367 5.83063 11.8644 6.06459 11.9354C6.13557 12.1694 6.26334 12.3846 6.43935 12.5606C6.72064 12.8419 7.10215 13 7.5 13C7.89785 13 8.27936 12.8419 8.56065 12.5606C8.73666 12.3846 8.86443 12.1694 8.93541 11.9354C9.16936 11.8644 9.38463 11.7367 9.56065 11.5606C9.84193 11.2794 10 10.8979 10 10.5C10 10.1021 9.84193 9.72064 9.56065 9.43935C9.38463 9.26334 9.16936 9.13557 8.93541 9.06459C8.86443 8.83063 8.73666 8.61537 8.56065 8.43935C8.27936 8.15807 7.89785 8 7.5 8ZM7.14646 9.14646C7.24025 9.05267 7.36742 9 7.5 9C7.63258 9 7.75975 9.05267 7.85354 9.14646C7.94733 9.24025 8 9.36742 8 9.5C8 9.77614 8.22386 10 8.5 10C8.63258 10 8.75975 10.0527 8.85354 10.1465C8.94733 10.2402 9 10.3674 9 10.5C9 10.6326 8.94733 10.7598 8.85354 10.8535C8.75975 10.9473 8.63258 11 8.5 11C8.22386 11 8 11.2239 8 11.5C8 11.6326 7.94733 11.7598 7.85354 11.8535C7.75975 11.9473 7.63258 12 7.5 12C7.36742 12 7.24025 11.9473 7.14646 11.8535C7.05267 11.7598 7 11.6326 7 11.5C7 11.2239 6.77614 11 6.5 11C6.36742 11 6.24025 10.9473 6.14646 10.8535C6.05267 10.7598 6 10.6326 6 10.5C6 10.3674 6.05267 10.2402 6.14646 10.1465C6.24025 10.0527 6.36742 10 6.5 10C6.77614 10 7 9.77614 7 9.5C7 9.36742 7.05267 9.24025 7.14646 9.14646Z" fill="#00164E"/>
<path d="M16 9C16 8.44772 16.4477 8 17 8C17.5523 8 18 8.44772 18 9C18 9.55228 17.5523 10 17 10C16.4477 10 16 9.55228 16 9Z" fill="#00164E"/>
<path d="M15 10C14.4477 10 14 10.4477 14 11C14 11.5523 14.4477 12 15 12C15.5523 12 16 11.5523 16 11C16 10.4477 15.5523 10 15 10Z" fill="#00164E"/>
<path d="M18 11C18 10.4477 18.4477 10 19 10C19.5523 10 20 10.4477 20 11C20 11.5523 19.5523 12 19 12C18.4477 12 18 11.5523 18 11Z" fill="#00164E"/>
<path d="M17 12C16.4477 12 16 12.4477 16 13C16 13.5523 16.4477 14 17 14C17.5523 14 18 13.5523 18 13C18 12.4477 17.5523 12 17 12Z" fill="#00164E"/>
<path fill-rule="evenodd" clip-rule="evenodd" d="M7.5 5C6.41244 5 5.4909 5.27366 4.73432 5.83209C3.98248 6.38702 3.43426 7.19305 3.03576 8.1893C2.2468 10.1617 2 12.9979 2 16.5C2 17.1631 2.26344 17.7989 2.73226 18.2677C3.20108 18.7366 3.83693 19 4.5 19C6.21984 19 7.5983 17.8588 8.60355 16.8536C8.86029 16.5968 9.09991 16.3412 9.31865 16.1068L9.36385 16.0583C9.56676 15.8409 9.74847 15.6461 9.91605 15.4786C10.0978 15.2968 10.2451 15.1654 10.3649 15.0815C10.4528 15.0199 10.4978 15.0043 10.5082 15.0007L10.5101 15H13.4899L13.4918 15.0007C13.5022 15.0043 13.5472 15.0199 13.6351 15.0815C13.7549 15.1654 13.9022 15.2968 14.0839 15.4786C14.2515 15.6461 14.4331 15.8407 14.6359 16.0581L14.6813 16.1068C14.9001 16.3412 15.1397 16.5968 15.3964 16.8536C16.4017 17.8588 17.7802 19 19.5 19C20.1631 19 20.7989 18.7366 21.2677 18.2677C21.7366 17.7989 22 17.1631 22 16.5C22 12.9979 21.7532 10.1617 20.9642 8.1893C20.5657 7.19305 20.0175 6.38702 19.2657 5.83209C18.5091 5.27366 17.5876 5 16.5 5C16.4926 5 16.4852 5.00016 16.4779 5.00049C15.7279 5.0337 14.9921 5.2155 14.3132 5.53522C13.5639 5.78353 12.7871 5.93916 12 5.99864C11.2129 5.93916 10.4361 5.78353 9.68682 5.53522C9.00786 5.2155 8.27207 5.0337 7.52212 5.00049C7.51475 5.00016 7.50738 5 7.5 5ZM3 16.5C3 13.0021 3.2532 10.3383 3.96424 8.5607C4.31574 7.68195 4.76752 7.05048 5.32818 6.63666C5.88184 6.22801 6.58185 6.00184 7.48889 6.00001C8.11149 6.02906 8.72201 6.18244 9.28446 6.45115C9.3029 6.45997 9.32187 6.46764 9.34126 6.47413C10.1901 6.75832 11.0713 6.93457 11.9642 6.99871C11.988 7.00043 12.012 7.00043 12.0358 6.99871C12.9287 6.93457 13.8099 6.75832 14.6587 6.47413C14.6781 6.46764 14.6971 6.45997 14.7155 6.45115C15.278 6.18244 15.8885 6.02906 16.5111 6.00001C17.4182 6.00184 18.1182 6.22801 18.6718 6.63666C19.2325 7.05048 19.6843 7.68195 20.0358 8.5607C20.7468 10.3383 21 13.0021 21 16.5C21 16.8978 20.842 17.2793 20.5606 17.5606C20.2793 17.842 19.8978 18 19.5 18C18.2198 18 17.0983 17.1412 16.1036 16.1464C15.8603 15.9032 15.6312 15.6588 15.4124 15.4245L15.3641 15.3727C15.1649 15.1592 14.9715 14.9519 14.7911 14.7714C14.5978 14.5782 14.4013 14.3971 14.2086 14.2623C14.0267 14.1349 13.7812 14 13.5 14H10.5C10.2188 14 9.97328 14.1349 9.79139 14.2623C9.5987 14.3971 9.4022 14.5782 9.20895 14.7714C9.0285 14.9519 8.83522 15.1591 8.6361 15.3725L8.5876 15.4245C8.36884 15.6588 8.13971 15.9032 7.89645 16.1464C6.9017 17.1412 5.78016 18 4.5 18C4.1022 18 3.72069 17.842 3.43937 17.5606C3.15805 17.2793 3 16.8978 3 16.5Z" fill="#00164E"/>
</svg>
