<svg width="24" height="24" viewBox="0 0 24 24" fill="none" xmlns="http://www.w3.org/2000/svg">
<path d="M8 1.5C8 1.22386 7.77614 1 7.5 1C7.22386 1 7 1.22386 7 1.5V3.5C7 3.77614 7.22386 4 7.5 4C7.77614 4 8 3.77614 8 3.5V1.5Z" fill="#00164E"/>
<path d="M3.14645 2.14645C3.34171 1.95118 3.65829 1.95118 3.85355 2.14645L5.85355 4.14645C6.04882 4.34171 6.04882 4.65829 5.85355 4.85355C5.65829 5.04882 5.34171 5.04882 5.14645 4.85355L3.14645 2.85355C2.95118 2.65829 2.95118 2.34171 3.14645 2.14645Z" fill="#00164E"/>
<path fill-rule="evenodd" clip-rule="evenodd" d="M19.3915 16.3654L16 13.562V19C16 19.0947 15.9737 19.1832 15.928 19.2587C16.0105 19.4087 16.0137 19.5973 15.92 19.7552C15.779 19.9927 15.4723 20.0709 15.2348 19.93L12.4548 18.28C12.4237 18.2615 12.3947 18.2397 12.3682 18.2149C12.2735 18.1262 12.148 18.0778 12.0182 18.08L12.0022 18.08C11.9355 18.0789 11.8693 18.0912 11.8075 18.1161C11.7467 18.1406 11.6914 18.1767 11.6446 18.2225C11.5546 18.3157 11.5042 18.4403 11.5042 18.57C11.5042 18.7005 11.5551 18.8257 11.6461 18.919L13.2702 20.5532C13.3668 20.6019 13.4455 20.6811 13.4936 20.7781L14.8546 22.1476C15.0493 22.3434 15.0483 22.66 14.8525 22.8547C14.6566 23.0493 14.34 23.0483 14.1454 22.8525L12.8012 21.5H8.4992C7.11823 21.5 6 20.3805 6 19V7C6 5.61929 7.11929 4.5 8.5 4.5H13.5C14.8807 4.5 16 5.61929 16 7V12.2646L20.0211 15.5884C20.322 15.8191 20.5665 16.1153 20.7361 16.4544C20.9073 16.7968 20.9976 17.174 21 17.5569L21 17.56L21 22.47C21 22.7461 20.7761 22.97 20.5 22.97C20.2239 22.97 20 22.7461 20 22.47V17.5617C19.9984 17.3325 19.9442 17.1067 19.8417 16.9016C19.7389 16.6962 19.5904 16.517 19.4075 16.3781L19.3999 16.3722L19.3915 16.3654ZM13.0073 17.445L15 18.6277V7C15 6.17157 14.3284 5.5 13.5 5.5H8.5C7.67157 5.5 7 6.17157 7 7V19C7 19.8287 7.67103 20.5 8.4992 20.5H11.8074L10.9329 19.62C10.658 19.3396 10.5042 18.9626 10.5042 18.57C10.5042 18.1774 10.658 17.8004 10.9329 17.52L10.9378 17.515C11.0797 17.3742 11.2485 17.2632 11.4339 17.1885C11.617 17.1148 11.8127 17.0779 12.0098 17.08C12.3762 17.0759 12.7309 17.2061 13.0073 17.445Z" fill="#00164E"/>
<path d="M2 6.5C2 6.22386 2.22386 6 2.5 6H4.5C4.77614 6 5 6.22386 5 6.5C5 6.77614 4.77614 7 4.5 7H2.5C2.22386 7 2 6.77614 2 6.5Z" fill="#00164E"/>
</svg>
