<svg width="24" height="24" viewBox="0 0 24 24" fill="none" xmlns="http://www.w3.org/2000/svg">
<path d="M12.0134 5.00004C13.4008 5.01742 14.7355 5.53668 15.7778 6.46272C16.6741 7.259 17.3036 8.31099 17.5896 9.47287C17.836 9.41873 18.0886 9.39403 18.3421 9.39982L18.3433 9.39984C18.9338 9.4147 19.5121 9.57068 20.0314 9.8547C20.5506 10.1387 20.9958 10.5425 21.3314 11.0329C21.667 11.5232 21.8837 12.0864 21.9645 12.6768C22.0451 13.2663 21.988 13.8669 21.7975 14.4301C21.5477 15.1896 21.0647 15.8494 20.4176 16.3122C19.7713 16.7744 18.9955 17.0155 18.2035 16.9992L15.0001 17C14.7239 17 14.5001 16.7762 14.5 16.5001C14.4999 16.2239 14.7238 16 14.9999 16L18.2199 15.9992C18.7966 16.012 19.3629 15.8371 19.8359 15.4988C20.309 15.1604 20.6643 14.6762 20.8482 14.1159L20.8497 14.1114C20.9909 13.6945 21.0335 13.2493 20.9737 12.8123C20.9139 12.3752 20.7536 11.9591 20.5062 11.5977C20.2589 11.2363 19.9316 10.94 19.5515 10.732C19.1716 10.5242 18.7493 10.4105 18.3188 10.3995C18.0056 10.3925 17.6943 10.4534 17.4056 10.5785C17.2627 10.6404 17.099 10.6322 16.963 10.5562C16.827 10.4803 16.7342 10.3453 16.7119 10.1911C16.5451 9.03457 15.9776 7.97792 15.1136 7.21029C14.2508 6.44371 13.1486 6.0153 12.0048 6.00001C11.2402 6.00333 10.4876 6.19691 9.81293 6.56429C9.13703 6.93233 8.55967 7.46374 8.13214 8.11247C8.01096 8.29634 7.78375 8.37929 7.57261 8.31673C7.30465 8.23734 7.02685 8.19797 6.74791 8.1998C6.11949 8.21621 5.50422 8.38908 4.95615 8.70375C4.40678 9.01917 3.94152 9.46753 3.60203 10.0099C3.26251 10.5523 3.05941 11.1718 3.01119 11.8137C2.96296 12.4556 3.07116 13.0995 3.32591 13.6884L3.3275 13.6921C3.62248 14.3892 4.11461 14.9802 4.74006 15.3906C5.36541 15.8009 6.09611 16.0125 6.83914 15.9993L6.84803 15.9991L9 15.9992C9.27614 15.9992 9.5 16.2231 9.5 16.4992C9.5 16.7754 9.27614 16.9992 9 16.9992H6.85235C5.90895 17.0151 4.98274 16.7459 4.19144 16.2266C3.39949 15.707 2.77886 14.9607 2.40731 14.0836C2.0887 13.3463 1.95373 12.5411 2.014 11.7388C2.07432 10.9359 2.32841 10.1599 2.75438 9.47934C3.18038 8.79877 3.76534 8.23434 4.45824 7.83652C5.15118 7.43868 5.93045 7.2199 6.72722 7.2L6.7357 7.19979C6.99323 7.19772 7.25 7.22169 7.50224 7.27099C7.99334 6.61752 8.61768 6.07648 9.33471 5.68605C10.1557 5.23898 11.0729 5.00324 12.0054 5L12.0134 5.00004Z" fill="#00164E"/>
<path d="M12 20.5C11.7239 20.5 11.5 20.2761 11.5 20L11.5 11.7071L9.35355 13.8536C9.15829 14.0488 8.84171 14.0488 8.64645 13.8536C8.45118 13.6583 8.45118 13.3417 8.64645 13.1464L11.6464 10.1464C11.8417 9.95119 12.1583 9.95119 12.3536 10.1464L15.3536 13.1464C15.5488 13.3417 15.5488 13.6583 15.3536 13.8536C15.1583 14.0488 14.8417 14.0488 14.6464 13.8536L12.5 11.7071L12.5 20C12.5 20.2761 12.2761 20.5 12 20.5Z" fill="#00164E"/>
</svg>
