<svg width="24" height="24" viewBox="0 0 24 24" fill="none" xmlns="http://www.w3.org/2000/svg">
<path fill-rule="evenodd" clip-rule="evenodd" d="M16.7773 15.084C17.0071 15.2372 17.0692 15.5476 16.916 15.7774L14.916 18.7774C14.7628 19.0071 14.4524 19.0692 14.2226 18.916C13.9929 18.7628 13.9308 18.4524 14.084 18.2227L16.084 15.2227C16.2372 14.9929 16.5476 14.9308 16.7773 15.084Z" fill="#00164E"/>
<path fill-rule="evenodd" clip-rule="evenodd" d="M8.77735 15.084C9.00711 15.2372 9.0692 15.5476 8.91603 15.7774L6.91602 18.7774C6.76285 19.0071 6.45241 19.0692 6.22265 18.916C5.99289 18.7628 5.9308 18.4524 6.08397 18.2227L8.08397 15.2227C8.23715 14.9929 8.54759 14.9308 8.77735 15.084Z" fill="#00164E"/>
<path fill-rule="evenodd" clip-rule="evenodd" d="M9.14107 6.44965C8.43913 7.04384 8 7.90417 8 9C8 9.15061 8.0083 9.2991 8.02444 9.44506L8.08578 10H6.5C5.11929 10 4 11.1193 4 12.5C4 13.8807 5.11929 15 6.5 15H17.5C18.8807 15 20 13.8807 20 12.5C20 11.1193 18.8807 10 17.5 10H15.9142L15.9756 9.44506C15.9917 9.2991 16 9.15061 16 9C16 7.90417 15.5609 7.04384 14.8589 6.44965C14.1491 5.84874 13.1444 5.5 12 5.5C10.8556 5.5 9.85094 5.84874 9.14107 6.44965ZM8.49497 5.68639C9.41378 4.90862 10.6591 4.5 12 4.5C13.3409 4.5 14.5862 4.90862 15.505 5.68639C16.4318 6.47088 17 7.61054 17 9H17.5C19.433 9 21 10.567 21 12.5C21 14.433 19.433 16 17.5 16H6.5C4.567 16 3 14.433 3 12.5C3 10.567 4.567 9 6.5 9H7C7 7.61054 7.56823 6.47088 8.49497 5.68639Z" fill="#00164E"/>
<path fill-rule="evenodd" clip-rule="evenodd" d="M12.5 18C12.5 18.2761 12.2761 18.5 12 18.5H10C9.72386 18.5 9.5 18.2761 9.5 18C9.5 17.7239 9.72386 17.5 10 17.5H12C12.2761 17.5 12.5 17.7239 12.5 18Z" fill="#00164E"/>
<path fill-rule="evenodd" clip-rule="evenodd" d="M12.8536 15.1464C13.0488 15.3417 13.0488 15.6583 12.8536 15.8536L10.3536 18.3536C10.1583 18.5488 9.84171 18.5488 9.64645 18.3536C9.45118 18.1583 9.45118 17.8417 9.64645 17.6464L12.1464 15.1464C12.3417 14.9512 12.6583 14.9512 12.8536 15.1464Z" fill="#00164E"/>
<path fill-rule="evenodd" clip-rule="evenodd" d="M12.3536 17.6464C12.5488 17.8417 12.5488 18.1583 12.3536 18.3536L9.85355 20.8536C9.65829 21.0488 9.34171 21.0488 9.14645 20.8536C8.95118 20.6583 8.95118 20.3417 9.14645 20.1464L11.6464 17.6464C11.8417 17.4512 12.1583 17.4512 12.3536 17.6464Z" fill="#00164E"/>
</svg>
