<svg width="24" height="24" viewBox="0 0 24 24" fill="none" xmlns="http://www.w3.org/2000/svg">
<path fill-rule="evenodd" clip-rule="evenodd" d="M9.04096 3.5C8.23143 3.5 7.45805 3.83005 6.8862 4.41293L6.88492 4.41424C6.60338 4.70332 6.38082 5.04649 6.22926 5.42341C6.07771 5.80032 5.99992 6.20408 5.99992 6.61141C5.99992 7.01876 6.07771 7.42242 6.22926 7.79931C6.38082 8.17623 6.60338 8.5194 6.88492 8.80848C6.88492 8.80848 6.88492 8.80848 6.88492 8.80848C6.88897 8.81264 6.8931 8.81674 6.8973 8.82076L11.6386 13.3611C11.8315 13.5459 12.1356 13.5464 12.3291 13.3622L17.1014 8.82188C17.106 8.8175 17.1105 8.81303 17.1149 8.80848C17.3965 8.5194 17.619 8.17623 17.7706 7.79931C17.9221 7.42242 17.9999 7.01875 17.9999 6.61141C17.9999 6.20408 17.9221 5.80032 17.7706 5.42341C17.619 5.04649 17.3965 4.70332 17.1149 4.41424L17.1136 4.41293C16.5418 3.83006 15.7685 3.5 14.9589 3.5C14.1498 3.5 13.3768 3.82973 12.805 4.41208L12.8042 4.41293L11.9999 5.22559L11.1957 4.41293L11.1949 4.4121C10.6231 3.82974 9.85011 3.5 9.04096 3.5ZM7.15706 5.79648C7.26053 5.53918 7.41161 5.3069 7.60067 5.1126C7.98839 4.71774 8.50591 4.5 9.04096 4.5C9.57631 4.5 10.0941 4.71798 10.4819 5.11325L11.6446 6.28812C11.7385 6.38301 11.8664 6.43641 11.9999 6.43641C12.1335 6.43641 12.2614 6.38301 12.3553 6.28812L13.5165 5.11479L13.518 5.11325C13.9058 4.71798 14.4236 4.5 14.9589 4.5C15.4939 4.5 16.0114 4.71771 16.3991 5.11253C16.5882 5.30685 16.7393 5.53915 16.8428 5.79648C16.9464 6.05409 16.9999 6.33116 16.9999 6.61141C16.9999 6.89164 16.9464 7.16861 16.8428 7.42624C16.7403 7.68098 16.5912 7.9112 16.4048 8.10432L11.9856 12.3088L7.59558 8.10487C7.40889 7.91164 7.2596 7.68123 7.15706 7.42624C7.05347 7.16861 6.99992 6.89164 6.99992 6.61141C6.99992 6.33116 7.05348 6.0541 7.15706 5.79648Z" fill="#00164E"/>
<path d="M8.07668 21.4318C8.2841 21.2495 8.30445 20.9336 8.12214 20.7262L4.43548 16.5318C4.09514 16.1446 3.87227 15.6684 3.79302 15.159L2.93835 9.66546C2.89544 9.38963 3.08426 9.13123 3.36009 9.08832C3.63592 9.04541 3.89431 9.23423 3.93722 9.51006L4.62816 13.9512C4.63938 14.0233 4.66548 14.0894 4.70286 14.1468C4.61447 14.6352 4.78552 15.1603 5.20846 15.4987L7.22708 17.1137C7.4427 17.2862 7.75735 17.2512 7.92986 17.0356C8.10237 16.82 8.06742 16.5053 7.8518 16.3328L5.83318 14.7178C5.63801 14.5617 5.6281 14.2682 5.8123 14.0993C5.95545 13.968 6.17139 13.9559 6.32822 14.0706L9.75803 16.577C9.99471 16.7499 10.153 17.0098 10.1981 17.2995L10.7107 20.5951C10.7532 20.8679 11.0088 21.0547 11.2817 21.0123C11.5545 20.9698 11.7413 20.7142 11.6989 20.4414L11.1862 17.1458C11.1003 16.594 10.7989 16.099 10.3481 15.7696L6.91824 13.2632C6.50064 12.958 5.96174 12.9128 5.51023 13.1158L4.92533 9.35633C4.79752 8.53478 4.02791 7.9724 3.20636 8.10021C2.38481 8.22802 1.82242 8.99763 1.95024 9.81919L2.80491 15.3127C2.91339 16.01 3.21848 16.6619 3.68438 17.192L7.37104 21.3863C7.55335 21.5938 7.86927 21.6141 8.07668 21.4318Z" fill="#00164E"/>
<path d="M16.0613 21.4318C15.8539 21.2495 15.8336 20.9336 16.0159 20.7262L19.7026 16.5318C20.0429 16.1446 20.2658 15.6684 20.345 15.159L21.1997 9.66546C21.2426 9.38963 21.0538 9.13123 20.7779 9.08832C20.5021 9.04541 20.2437 9.23423 20.2008 9.51006L19.5099 13.9512C19.4986 14.0233 19.4725 14.0894 19.4352 14.1468C19.5236 14.6352 19.3525 15.1603 18.9296 15.4987L16.9109 17.1137C16.6953 17.2862 16.3807 17.2512 16.2082 17.0356C16.0357 16.82 16.0706 16.5053 16.2862 16.3328L18.3048 14.7178C18.5 14.5617 18.5099 14.2682 18.3257 14.0993C18.1826 13.968 17.9666 13.9559 17.8098 14.0706L14.38 16.577C14.1433 16.7499 13.985 17.0098 13.94 17.2995L13.4273 20.5951C13.3848 20.8679 13.1292 21.0547 12.8564 21.0123C12.5835 20.9698 12.3967 20.7142 12.4392 20.4414L12.9519 17.1458C13.0377 16.594 13.3392 16.099 13.79 15.7696L17.2198 13.2632C17.6374 12.958 18.1763 12.9128 18.6278 13.1158L19.2127 9.35633C19.3405 8.53478 20.1101 7.9724 20.9317 8.10021C21.7532 8.22802 22.3156 8.99763 22.1878 9.81919L21.3331 15.3127C21.2246 16.01 20.9195 16.6619 20.4537 17.192L16.767 21.3863C16.5847 21.5938 16.2688 21.6141 16.0613 21.4318Z" fill="#00164E"/>
</svg>
