<svg width="24" height="24" viewBox="0 0 24 24" fill="none" xmlns="http://www.w3.org/2000/svg">
<path fill-rule="evenodd" clip-rule="evenodd" d="M9.83098 4.54427C10.4729 4.19758 11.2126 4 12 4C12.7874 4 13.5271 4.19758 14.169 4.54427L14.6386 4.09012C14.7629 3.96996 14.9644 3.96996 15.0886 4.09012C15.2129 4.21028 15.2129 4.4051 15.0886 4.52526L14.7116 4.88982C15.7714 5.67728 16.4545 6.91534 16.4545 8.30769H7.54545C7.54545 6.91534 8.22856 5.67728 9.28835 4.88982L8.91137 4.52526C8.78712 4.4051 8.78712 4.21028 8.91137 4.09012C9.03563 3.96996 9.23709 3.96996 9.36135 4.09012L9.83098 4.54427ZM10.7273 6.46154C10.7273 6.80141 10.4424 7.07692 10.0909 7.07692C9.73945 7.07692 9.45455 6.80141 9.45455 6.46154C9.45455 6.12167 9.73945 5.84615 10.0909 5.84615C10.4424 5.84615 10.7273 6.12167 10.7273 6.46154ZM13.9091 7.07692C14.2605 7.07692 14.5455 6.80141 14.5455 6.46154C14.5455 6.12167 14.2605 5.84615 13.9091 5.84615C13.5576 5.84615 13.2727 6.12167 13.2727 6.46154C13.2727 6.80141 13.5576 7.07692 13.9091 7.07692Z" fill="#00164E"/>
<path d="M5 9.84615C5 9.33635 5.42736 8.92308 5.95455 8.92308C6.48173 8.92308 6.90909 9.33635 6.90909 9.84615V13.5385C6.90909 14.0483 6.48173 14.4615 5.95455 14.4615C5.42736 14.4615 5 14.0483 5 13.5385V9.84615Z" fill="#00164E"/>
<path d="M9.45455 16.9231V19.0769C9.45455 19.5867 9.88191 20 10.4091 20C10.9363 20 11.3636 19.5867 11.3636 19.0769V16.9231H12.6364V19.0769C12.6364 19.5867 13.0637 20 13.5909 20C14.1181 20 14.5455 19.5867 14.5455 19.0769V16.9231H15.1818C15.8847 16.9231 16.4545 16.372 16.4545 15.6923V8.92308H7.54545V15.6923C7.54545 16.372 8.11527 16.9231 8.81818 16.9231H9.45455Z" fill="#00164E"/>
<path d="M17.0909 9.84615C17.0909 9.33635 17.5183 8.92308 18.0455 8.92308C18.5726 8.92308 19 9.33635 19 9.84615V13.5385C19 14.0483 18.5726 14.4615 18.0455 14.4615C17.5183 14.4615 17.0909 14.0483 17.0909 13.5385V9.84615Z" fill="#00164E"/>
</svg>
