<svg width="24" height="24" viewBox="0 0 24 24" fill="none" xmlns="http://www.w3.org/2000/svg">
<path d="M15.8633 7.00586H6.49942C6.10175 7.00586 5.72037 7.16371 5.43917 7.44469C5.15797 7.72567 5 8.10676 5 8.50412V15.496C5 15.8934 5.15797 16.2745 5.43917 16.5554C5.72037 16.8364 6.10175 16.9943 6.49942 16.9943L15.8647 16.9943C15.9082 16.9981 15.9519 17 15.9957 17C16.1937 17 16.3897 16.9608 16.5724 16.8848C16.7551 16.8087 16.9209 16.6972 17.0603 16.5568C17.0792 16.5378 17.0966 16.5172 17.1122 16.4954L19.5891 13.0304C19.7143 12.8983 19.8145 12.7444 19.8847 12.5762C19.9608 12.3936 20 12.1978 20 12C20 11.8022 19.9608 11.6064 19.8847 11.4238C19.8145 11.2556 19.7143 11.1017 19.5891 10.9696L17.1122 7.50459C17.0966 7.48277 17.0792 7.46223 17.0603 7.44318C16.9209 7.30275 16.7551 7.19129 16.5724 7.11523C16.3897 7.03916 16.1937 7 15.9957 7C15.9514 7 15.9072 7.00196 15.8633 7.00586Z" fill="#00164E"/>
</svg>
