<svg width="24" height="24" viewBox="0 0 24 24" fill="none" xmlns="http://www.w3.org/2000/svg">
<path d="M9 13C9.55228 13 10 12.5523 10 12C10 11.4477 9.55228 11 9 11C8.44772 11 8 11.4477 8 12C8 12.5523 8.44772 13 9 13Z" fill="#00164E"/>
<path d="M9 16C9.55228 16 10 15.5523 10 15C10 14.4477 9.55228 14 9 14C8.44772 14 8 14.4477 8 15C8 15.5523 8.44772 16 9 16Z" fill="#00164E"/>
<path d="M10 18C10 18.5523 9.55228 19 9 19C8.44772 19 8 18.5523 8 18C8 17.4477 8.44772 17 9 17C9.55228 17 10 17.4477 10 18Z" fill="#00164E"/>
<path d="M15 13C15.5523 13 16 12.5523 16 12C16 11.4477 15.5523 11 15 11C14.4477 11 14 11.4477 14 12C14 12.5523 14.4477 13 15 13Z" fill="#00164E"/>
<path d="M16 15C16 15.5523 15.5523 16 15 16C14.4477 16 14 15.5523 14 15C14 14.4477 14.4477 14 15 14C15.5523 14 16 14.4477 16 15Z" fill="#00164E"/>
<path d="M15 19C15.5523 19 16 18.5523 16 18C16 17.4477 15.5523 17 15 17C14.4477 17 14 17.4477 14 18C14 18.5523 14.4477 19 15 19Z" fill="#00164E"/>
<path d="M13 12C13 12.5523 12.5523 13 12 13C11.4477 13 11 12.5523 11 12C11 11.4477 11.4477 11 12 11C12.5523 11 13 11.4477 13 12Z" fill="#00164E"/>
<path d="M12 16C12.5523 16 13 15.5523 13 15C13 14.4477 12.5523 14 12 14C11.4477 14 11 14.4477 11 15C11 15.5523 11.4477 16 12 16Z" fill="#00164E"/>
<path d="M13 18C13 18.5523 12.5523 19 12 19C11.4477 19 11 18.5523 11 18C11 17.4477 11.4477 17 12 17C12.5523 17 13 17.4477 13 18Z" fill="#00164E"/>
<path fill-rule="evenodd" clip-rule="evenodd" d="M8 5C7.44772 5 7 5.44772 7 6V8C7 8.55229 7.44772 9 8 9H16C16.5523 9 17 8.55228 17 8V6C17 5.44772 16.5523 5 16 5H8ZM8 6H16V8H8V6Z" fill="#00164E"/>
<path fill-rule="evenodd" clip-rule="evenodd" d="M5 4C5 2.89543 5.89543 2 7 2H17C18.1046 2 19 2.89543 19 4V19.9115C19 21.0101 18.1139 21.903 17.0154 21.9114L7.01538 21.9884C5.90483 21.9969 5 21.099 5 19.9884V4ZM7 3C6.44772 3 6 3.44772 6 4V19.9884C6 20.5437 6.45242 20.9927 7.00769 20.9884L17.0077 20.9115C17.557 20.9072 18 20.4608 18 19.9115V4C18 3.44772 17.5523 3 17 3H7Z" fill="#00164E"/>
</svg>
