<svg width="24" height="24" viewBox="0 0 24 24" fill="none" xmlns="http://www.w3.org/2000/svg">
<path fill-rule="evenodd" clip-rule="evenodd" d="M15.6855 4.96435C15.874 4.88904 15.9983 4.70719 16 4.50417C16.0017 4.30114 15.8804 4.11725 15.6932 4.03882L10.1932 1.73547C10.0696 1.68372 9.93043 1.68372 9.80687 1.73547L4.30685 4.03882C4.11957 4.11725 3.99832 4.30114 4.00001 4.50417C4.00169 4.70719 4.12599 4.88904 4.31454 4.96435L6 5.6375V7.89664C6 7.99997 6.03134 8.09597 6.08503 8.17566C6.0293 8.44168 6 8.71742 6 8.99999C6 10.3085 6.62835 11.4703 7.59978 12.2001C7.5758 12.2321 7.55605 12.2664 7.54064 12.3023C6.55492 12.614 5.64835 13.1593 4.90381 13.9038C3.68482 15.1228 3 16.7761 3 18.5V18.8C3 19.3835 3.23179 19.9431 3.64437 20.3556C4.05694 20.7682 4.61652 21 5.2 21H12.9402C13.1434 21.1391 13.3711 21.2627 13.615 21.3711C14.5069 21.7675 15.7041 22 17 22C18.2959 22 19.4931 21.7675 20.385 21.3711C20.8304 21.1732 21.2218 20.9245 21.5086 20.6232C21.7978 20.3192 22 19.9388 22 19.5V15.5C22 15.4414 21.9899 15.3851 21.9714 15.3329C21.9902 15.2248 22 15.1138 22 15C22 14.0456 21.3096 13.2867 20.4248 12.7951C19.5231 12.2942 18.3113 12 17 12C15.6984 12 14.4947 12.2899 13.5951 12.7842C13.2326 12.5879 12.8523 12.4266 12.4594 12.3023C12.444 12.2664 12.4242 12.2321 12.4002 12.2001C13.3717 11.4703 14 10.3085 14 8.99999C14 8.71741 13.9707 8.44168 13.915 8.17567C13.9687 8.09597 14 7.99997 14 7.89664V5.6375L14.7002 5.35785V7.19665C14.7002 7.47279 14.9241 7.69665 15.2002 7.69665C15.4763 7.69665 15.7002 7.47279 15.7002 7.19665V5.19665C15.7002 5.11841 15.6822 5.04437 15.6502 4.97843L15.6855 4.96435ZM13 8.99999C13 8.79333 12.9791 8.59155 12.9393 8.39664H7.06069C7.0209 8.59155 7 8.79333 7 8.99999C7 10.6568 8.34315 12 10 12C11.6569 12 13 10.6568 13 8.99999ZM10.1855 7.16099L13 6.03689V7.39664H7V6.03689L9.81456 7.16099C9.93362 7.20854 10.0664 7.20854 10.1855 7.16099ZM5.82058 4.48904L10 2.73873L14.1794 4.48904L10 6.15825L5.82058 4.48904ZM12.0906 20C12.0327 19.8436 12 19.6765 12 19.5V15.5C12 15.4414 12.0101 15.3851 12.0286 15.3329C12.0098 15.2248 12 15.1138 12 15C12 14.4024 12.2707 13.8815 12.6902 13.4549C12.485 13.3658 12.2745 13.2893 12.0597 13.2258L11.1713 14.3363C10.9878 14.5657 10.7537 14.725 10.5 14.8141V20H12.0906ZM10.5 13C10.6492 13 10.7977 13.0061 10.9453 13.018L10.3905 13.7116C10.1903 13.9618 9.80975 13.9618 9.60958 13.7116L9.05476 13.018C9.20233 13.0061 9.35085 13 9.5 13H10.5ZM5.61091 14.6109C6.26557 13.9563 7.06827 13.4837 7.94032 13.2258L8.82871 14.3363C9.01223 14.5657 9.24629 14.7249 9.5 14.8141V20H5.2C4.88174 20 4.57652 19.8736 4.35147 19.6485C4.12643 19.4235 4 19.1183 4 18.8V18.5C4 17.0413 4.57946 15.6424 5.61091 14.6109ZM14.0608 13.6693C13.3169 14.0826 13 14.5737 13 15C13 15.4263 13.3169 15.9174 14.0608 16.3307C14.7878 16.7346 15.826 17 17 17C18.174 17 19.2122 16.7346 19.9392 16.3307C20.6831 15.9174 21 15.4263 21 15C21 14.5737 20.6831 14.0826 19.9392 13.6693C19.2122 13.2654 18.174 13 17 13C15.826 13 14.7878 13.2654 14.0608 13.6693ZM13.2158 19.9338C13.0497 19.7592 13 19.6134 13 19.5V19.04C13.1877 19.163 13.3947 19.2732 13.615 19.3711C14.5069 19.7675 15.7041 20 17 20C18.2959 20 19.4931 19.7675 20.385 19.3711C20.6053 19.2732 20.8123 19.163 21 19.04V19.5C21 19.6134 20.9504 19.7592 20.7842 19.9338C20.6155 20.111 20.3479 20.2933 19.9789 20.4573C19.2422 20.7847 18.1894 21 17 21C15.8106 21 14.7578 20.7847 14.0211 20.4573C13.6521 20.2933 13.3845 20.111 13.2158 19.9338ZM13.2158 17.9338C13.0497 17.7592 13 17.6134 13 17.5V16.8229C13.1773 16.9638 13.3711 17.0914 13.5752 17.2048C14.4769 17.7058 15.6887 18 17 18C18.3113 18 19.5231 17.7058 20.4248 17.2048C20.6289 17.0914 20.8227 16.9638 21 16.8229V17.5C21 17.6134 20.9504 17.7592 20.7842 17.9338C20.6155 18.111 20.3479 18.2933 19.9789 18.4573C19.2422 18.7847 18.1894 19 17 19C15.8106 19 14.7578 18.7847 14.0211 18.4573C13.6521 18.2933 13.3845 18.111 13.2158 17.9338Z" fill="#00164E"/>
</svg>
