<svg width="24" height="24" viewBox="0 0 24 24" fill="none" xmlns="http://www.w3.org/2000/svg">
<path d="M4 4.5C4 3.11929 5.11929 2 6.5 2H13.5C14.8807 2 16 3.11929 16 4.5V5C16 5.27614 15.7761 5.5 15.5 5.5C15.2239 5.5 15 5.27614 15 5V4.5C15 3.67157 14.3284 3 13.5 3H6.5C5.67157 3 5 3.67157 5 4.5V19.5C5 20.3284 5.67157 21 6.5 21H13.5C14.3284 21 15 20.3284 15 19.5V19C15 18.7239 15.2239 18.5 15.5 18.5C15.7761 18.5 16 18.7239 16 19V19.5C16 20.8807 14.8807 22 13.5 22H6.5C5.11929 22 4 20.8807 4 19.5V4.5Z" fill="#00164E"/>
<path d="M10 19.5C10.5523 19.5 11 19.0523 11 18.5C11 17.9477 10.5523 17.5 10 17.5C9.44772 17.5 9 17.9477 9 18.5C9 19.0523 9.44772 19.5 10 19.5Z" fill="#00164E"/>
<path fill-rule="evenodd" clip-rule="evenodd" d="M15.7495 9.5C14.355 9.5 13.2062 10.6092 13.2062 12C13.2062 13.3908 14.355 14.5 15.7495 14.5C17.144 14.5 18.2928 13.3908 18.2928 12C18.2928 10.6092 17.144 9.5 15.7495 9.5ZM14.2062 12C14.2062 11.1816 14.887 10.5 15.7495 10.5C16.612 10.5 17.2928 11.1816 17.2928 12C17.2928 12.8184 16.612 13.5 15.7495 13.5C14.887 13.5 14.2062 12.8184 14.2062 12Z" fill="#00164E"/>
<path fill-rule="evenodd" clip-rule="evenodd" d="M15.2278 6.5C14.6755 6.5 14.2278 6.94772 14.2278 7.5V7.80173C14.2278 8.05946 14.04 8.3472 13.6987 8.54255C13.3727 8.72914 13.0484 8.74456 12.8243 8.61791L12.5177 8.44467C12.04 8.17473 11.4305 8.33803 11.1517 8.81061L10.6381 9.68134C10.3557 10.1602 10.5201 10.7738 11.0041 11.0473L11.3112 11.2209C11.5236 11.3409 11.6737 11.6259 11.6737 12C11.6737 12.3741 11.5236 12.6591 11.3112 12.7791L11.0041 12.9527C10.5201 13.2262 10.3557 13.8398 10.6381 14.3187L11.1517 15.1894C11.4305 15.662 12.04 15.8253 12.5177 15.5553L12.8243 15.3821C13.0484 15.2554 13.3727 15.2709 13.6987 15.4575C14.04 15.6528 14.2278 15.9405 14.2278 16.1983V16.5C14.2278 17.0523 14.6755 17.5 15.2278 17.5H16.2711C16.8234 17.5 17.2711 17.0523 17.2711 16.5V16.1983C17.2711 15.9405 17.459 15.6528 17.8003 15.4575C18.1263 15.2709 18.4506 15.2554 18.6747 15.3821L18.9813 15.5553C19.4589 15.8253 20.0685 15.662 20.3472 15.1894L20.8608 14.3187C21.1433 13.8398 20.9789 13.2262 20.4949 12.9527L20.1878 12.7791C19.9753 12.6591 19.8253 12.3741 19.8253 12C19.8253 11.6259 19.9753 11.3409 20.1878 11.2209L20.4949 11.0473C20.9789 10.7738 21.1433 10.1602 20.8608 9.68134L20.3472 8.81062C20.0685 8.33803 19.4589 8.17474 18.9813 8.44467L18.6747 8.61791C18.4506 8.74456 18.1263 8.72914 17.8003 8.54255C17.459 8.3472 17.2711 8.05946 17.2711 7.80173V7.5C17.2711 6.94772 16.8234 6.5 16.2711 6.5H15.2278ZM14.1955 9.41044C14.7214 9.1094 15.2278 8.54329 15.2278 7.80173V7.5H16.2711V7.80173C16.2711 8.54329 16.7775 9.1094 17.3035 9.41044C17.826 9.70951 18.5397 9.84286 19.1667 9.48851L19.4732 9.31528L19.4751 9.31464C19.4751 9.31464 19.4778 9.31453 19.4801 9.31514C19.4823 9.31574 19.4847 9.31721 19.4847 9.31721L19.4859 9.31867L19.9948 10.1813L19.6958 10.3503C19.0644 10.7071 18.8253 11.4048 18.8253 12C18.8253 12.5952 19.0644 13.2929 19.6958 13.6497L19.9948 13.8187L19.4859 14.6813L19.4847 14.6828C19.4847 14.6828 19.4823 14.6843 19.4801 14.6849L19.479 14.6851L19.4766 14.6854L19.4751 14.6854L19.4732 14.6847L19.1667 14.5115C18.5396 14.1571 17.826 14.2905 17.3035 14.5896C16.7775 14.8906 16.2711 15.4567 16.2711 16.1983V16.5H15.2278V16.1983C15.2278 15.4567 14.7214 14.8906 14.1955 14.5896C13.673 14.2905 12.9593 14.1571 12.3323 14.5115L12.0257 14.6847L12.0239 14.6854L12.0222 14.6853L12.0189 14.6849C12.0166 14.6843 12.0143 14.6828 12.0143 14.6828L12.013 14.6813L11.5042 13.8187L11.8032 13.6497C12.4346 13.2929 12.6737 12.5952 12.6737 12C12.6737 11.4048 12.4346 10.7071 11.8032 10.3503L11.5042 10.1813L12.013 9.31867L12.0143 9.31721C12.0143 9.31721 12.0166 9.31574 12.0189 9.31513L12.0223 9.31459L12.0239 9.31464L12.0257 9.31527L12.3323 9.48851C12.9593 9.84286 13.6729 9.70951 14.1955 9.41044Z" fill="#00164E"/>
</svg>
