<svg width="24" height="24" viewBox="0 0 24 24" fill="none" xmlns="http://www.w3.org/2000/svg">
<path fill-rule="evenodd" clip-rule="evenodd" d="M7.00004 3.5C7.00004 3.22386 6.77619 3 6.50004 3C6.2239 3 6.00004 3.22386 6.00004 3.5V4H3.50004C3.10222 4 2.72069 4.15804 2.43938 4.43934C2.15808 4.72064 2.00004 5.10218 2.00004 5.5V9.32768C1.98032 9.3814 1.96955 9.43944 1.96955 9.5V17.8962C1.96379 18.2977 2.03709 18.6964 2.1853 19.0696C2.334 19.444 2.55519 19.7854 2.83617 20.0742C3.11715 20.3629 3.45239 20.5934 3.82264 20.7522C4.1929 20.9111 4.59088 20.9953 4.99376 21L4.99955 21L14 21C14.2762 21 14.5 20.7761 14.5 20.5C14.5 20.2239 14.2762 20 14 20H5.00263C4.73235 19.9965 4.46538 19.9399 4.21696 19.8333C3.9677 19.7263 3.74202 19.5712 3.55286 19.3768C3.3637 19.1824 3.2148 18.9526 3.11469 18.7005C3.01458 18.4484 2.96524 18.179 2.96949 17.9078L2.96961 17.9L2.96955 10H18.9996V12.5C18.9996 12.7761 19.2234 13 19.4996 13C19.7757 13 19.9996 12.7761 19.9996 12.5L20 5.5C20 5.10218 19.842 4.72065 19.5607 4.43934C19.2794 4.15803 18.8979 4 18.5 4H16V3.5C16 3.22386 15.7762 3 15.5 3C15.2239 3 15 3.22386 15 3.5V4H11.5V3.5C11.5 3.22386 11.2762 3 11 3C10.7239 3 10.5 3.22386 10.5 3.5V4H7.00004V3.5ZM15.5 7C15.2239 7 15 6.77614 15 6.5V5H11.5V6.5C11.5 6.77614 11.2762 7 11 7C10.7239 7 10.5 6.77614 10.5 6.5V5H7.00004V6.5C7.00004 6.77614 6.77619 7 6.50004 7C6.2239 7 6.00004 6.77614 6.00004 6.5V5H3.50004C3.36743 5 3.24026 5.05268 3.14649 5.14645C3.05272 5.24021 3.00004 5.36739 3.00004 5.5V9H19V5.5C19 5.36739 18.9474 5.24021 18.8536 5.14645C18.7598 5.05268 18.6327 5 18.5 5H16V6.5C16 6.77614 15.7762 7 15.5 7Z" fill="#00164E"/>
<path fill-rule="evenodd" clip-rule="evenodd" d="M18.3556 19.0627C17.743 19.5273 16.9792 19.803 16.1511 19.803C14.1344 19.803 12.4996 18.1682 12.4996 16.1515C12.4996 14.1348 14.1344 12.5 16.1511 12.5C18.1677 12.5 19.8026 14.1348 19.8026 16.1515C19.8026 16.9795 19.527 17.7431 19.0626 18.3556L21.3535 20.6465C21.5488 20.8418 21.5488 21.1583 21.3535 21.3536C21.1583 21.5489 20.8417 21.5489 20.6464 21.3536L18.3556 19.0627ZM16.1511 13.5C14.6867 13.5 13.4996 14.6871 13.4996 16.1515C13.4996 17.6159 14.6867 18.803 16.1511 18.803C17.6155 18.803 18.8026 17.6159 18.8026 16.1515C18.8026 14.6871 17.6155 13.5 16.1511 13.5Z" fill="#00164E"/>
</svg>
