<svg width="24" height="24" viewBox="0 0 24 24" fill="none" xmlns="http://www.w3.org/2000/svg">
<path d="M4.51497 2.95474C4.21383 2.67033 3.73915 2.6839 3.45474 2.98503L3.53236 3.32268C3.46301 3.50581 3.50544 3.72066 3.65669 3.86351L3.48503 4.04526L11.7153 11.8182C11.8197 11.9169 11.8197 12.0831 11.7153 12.1818L3.48503 19.9547C3.18389 20.2392 3.17033 20.7138 3.45474 21.015C3.73915 21.3161 4.21383 21.3297 4.51497 21.0453L12.7452 13.2723C13.4764 12.5817 13.4764 11.4183 12.7452 10.7277L4.51497 2.95474Z" fill="#00164E"/>
<path d="M11.515 2.95474C11.2138 2.67033 10.7392 2.6839 10.4547 2.98503C10.1703 3.28617 10.1839 3.76085 10.485 4.04526L18.7153 11.8182C18.8197 11.9169 18.8197 12.0831 18.7153 12.1818L10.485 19.9547C10.1839 20.2392 10.1703 20.7138 10.4547 21.015C10.7392 21.3161 11.2138 21.3297 11.515 21.0453L19.7452 13.2723C20.4764 12.5817 20.4764 11.4183 19.7452 10.7277L11.515 2.95474Z" fill="#00164E"/>
</svg>
