<svg width="24" height="24" viewBox="0 0 24 24" fill="none" xmlns="http://www.w3.org/2000/svg">
<path fill-rule="evenodd" clip-rule="evenodd" d="M14.3522 12.9835C15.031 12.3444 15.5613 11.5596 15.9006 10.6841C16.3351 9.56316 16.4383 8.34091 16.1977 7.16298C15.9427 5.91441 15.3257 4.76854 14.4237 3.86836C13.5235 2.96992 12.3791 2.35589 11.1328 2.10249C10.1817 1.88183 9.19356 1.87482 8.23942 2.082C7.28286 2.2897 6.38445 2.70748 5.60921 3.3051C4.83397 3.90272 4.2013 4.66523 3.757 5.53743C3.3127 6.40963 3.06771 7.36971 3.04009 8.34817L3.04006 8.36107C3.03762 9.36792 3.27655 10.3607 3.73683 11.2562C4.19628 12.15 4.86292 12.921 5.68105 13.5046C5.69802 13.5179 5.75029 13.5743 5.80019 13.7404C5.84903 13.903 5.87895 14.1151 5.89332 14.3616C5.91302 14.6995 5.90249 15.024 5.89288 15.3204C5.88781 15.4766 5.883 15.625 5.883 15.7634V17.6587C5.883 17.7942 5.93798 17.9239 6.03535 18.0181C6.46615 18.4348 6.95447 18.9301 7.44839 19.4312L7.45119 19.434C7.94191 19.9318 8.43809 20.4352 8.87829 20.861C8.97154 20.9512 9.0962 21.0016 9.22594 21.0016H10.1736C10.3033 21.0016 10.428 20.9512 10.5212 20.861C10.9488 20.4474 11.4292 19.9607 11.906 19.4769C11.6447 18.8706 11.5 18.2022 11.5 17.5H6.99988C6.97964 17.5 6.95968 17.5012 6.94007 17.5035L6.883 17.4476V15.7634C6.883 15.6947 6.88539 15.6047 6.88855 15.5L11.916 15.5C12.072 15.143 12.2685 14.8077 12.4996 14.5H10.2595C10.2661 14.4677 10.2695 14.4342 10.2695 14.4V10C10.2695 9.93375 10.2566 9.8705 10.2332 9.81264L11.786 8.93535C12.0265 8.79952 12.1112 8.4945 11.9754 8.25408C11.8396 8.01365 11.5346 7.92887 11.2941 8.0647L9.77009 8.92575L8.24604 8.0647C8.00561 7.92887 7.70059 8.01365 7.56476 8.25408C7.42893 8.4945 7.51372 8.79952 7.75414 8.93535L9.30603 9.81213C9.28249 9.87013 9.26953 9.93355 9.26953 10V14.4C9.26953 14.4342 9.27298 14.4677 9.27954 14.5H6.90003C6.89812 14.4336 6.89538 14.3678 6.89163 14.3034C6.8752 14.0215 6.83878 13.7219 6.75791 13.4527C6.67937 13.1912 6.53997 12.8944 6.27122 12.6973L6.26554 12.6932C5.57558 12.2019 5.01344 11.5524 4.62622 10.799C4.23999 10.0476 4.03902 9.21475 4.04004 8.36993C4.06437 7.54189 4.27202 6.72953 4.64805 5.99133C5.02507 5.25123 5.56192 4.6042 6.21974 4.09709C6.87757 3.58998 7.63992 3.23547 8.45161 3.05923C9.2633 2.88298 10.104 2.88941 10.9129 3.07804L10.9274 3.0812C11.984 3.29477 12.9543 3.81472 13.7173 4.57618C14.4803 5.33764 15.0022 6.30689 15.218 7.36304C15.4201 8.35314 15.3334 9.38049 14.9682 10.3227C14.603 11.2649 13.9746 12.0823 13.158 12.6775L13.1556 12.6792C12.8889 12.876 12.7459 13.1692 12.6634 13.4322C12.5788 13.7019 12.5385 14.0018 12.5189 14.2848C12.5143 14.3519 12.5107 14.4202 12.5081 14.4888C12.8325 14.0593 13.2247 13.6839 13.6687 13.3783L13.4525 13.0816L13.67 13.3774C13.8858 13.229 14.1138 13.0971 14.3522 12.9835ZM8.16054 18.7292L7.93457 18.5H11.465L11.239 18.7292C10.7995 19.1749 10.3645 19.6162 9.97049 20.0016H9.42904C9.03502 19.6162 8.6 19.1749 8.16054 18.7292Z" fill="#00164E"/>
<path d="M13.3484 20.6144C13.3497 20.8905 13.5747 21.1133 13.8509 21.1119C14.0433 21.1109 14.2098 21.0014 14.2926 20.8416C14.6472 21.0747 15.0386 21.2513 15.4529 21.3627C16.224 21.57 17.0394 21.5421 17.7946 21.2826C18.5498 21.023 19.2102 20.5437 19.6914 19.9061C20.1725 19.2685 20.4524 18.5017 20.4952 17.7039L20.4953 17.701C20.5103 17.3876 20.4899 17.0734 20.4345 16.7646C20.3858 16.4928 20.1259 16.312 19.8541 16.3607C19.5823 16.4095 19.4015 16.6693 19.4502 16.9411C19.4923 17.1755 19.5078 17.4139 19.4965 17.6518C19.4641 18.2503 19.254 18.8255 18.8931 19.3038C18.5319 19.7824 18.0362 20.1421 17.4696 20.3369C16.9029 20.5316 16.2911 20.5525 15.7125 20.397C15.4751 20.3332 15.2478 20.2408 15.035 20.1228C15.118 20.0331 15.1684 19.9129 15.1677 19.781C15.1664 19.5049 14.9414 19.2821 14.6653 19.2835L13.8417 19.2876C13.5663 19.289 13.344 19.5129 13.3442 19.7881L13.3484 20.6144Z" fill="#00164E"/>
<path d="M19.6519 14.3857C19.6505 14.1096 19.4256 13.8869 19.1494 13.8883C18.957 13.8892 18.7905 13.9987 18.7077 14.1585C18.353 13.9254 17.9616 13.7488 17.5472 13.6374C16.7761 13.43 15.9607 13.4579 15.2055 13.7175C14.4503 13.977 13.7899 14.4563 13.3087 15.0939C12.8276 15.7315 12.5477 16.4984 12.5049 17.2961L12.5048 17.299C12.4898 17.6125 12.5102 17.9266 12.5656 18.2354C12.6143 18.5072 12.8742 18.6881 13.146 18.6393C13.4178 18.5906 13.5986 18.3307 13.5499 18.0589C13.5078 17.8245 13.4923 17.5861 13.5036 17.3483C13.536 16.7497 13.7461 16.1745 14.107 15.6963C14.4682 15.2176 14.9639 14.8579 15.5305 14.6632C16.0972 14.4684 16.709 14.4475 17.2876 14.6031C17.525 14.6669 17.7525 14.7593 17.9653 14.8773C17.8823 14.9671 17.8319 15.0873 17.8325 15.2191C17.8339 15.4953 18.0589 15.718 18.335 15.7166L19.1585 15.7125C19.4347 15.7111 19.6574 15.4861 19.656 15.21L19.6519 14.3857Z" fill="#00164E"/>
</svg>
