<svg width="24" height="24" viewBox="0 0 24 24" fill="none" xmlns="http://www.w3.org/2000/svg">
<path d="M4 14.5C4 14.2239 4.22386 14 4.5 14H8.5C8.77614 14 9 14.2239 9 14.5C9 14.7761 8.77614 15 8.5 15H4.5C4.22386 15 4 14.7761 4 14.5Z" fill="#00164E"/>
<path fill-rule="evenodd" clip-rule="evenodd" d="M2 7.5C2 6.11929 3.11929 5 4.5 5H19.5C20.8807 5 22 6.11929 22 7.5V16.5C22 17.8807 20.8807 19 19.5 19H4.5C3.11929 19 2 17.8807 2 16.5V7.5ZM3 7.5C3 6.67157 3.67157 6 4.5 6H19.5C20.3284 6 21 6.67157 21 7.5V9H3V7.5ZM21 16.5C21 17.3284 20.3284 18 19.5 18H4.5C3.67157 18 3 17.3284 3 16.5V12H21V16.5Z" fill="#00164E"/>
</svg>
