<svg width="24" height="24" viewBox="0 0 24 24" fill="none" xmlns="http://www.w3.org/2000/svg">
<path fill-rule="evenodd" clip-rule="evenodd" d="M12.5 2.49999C12.5 2.26104 12.3309 2.05549 12.0965 2.00938C11.862 1.96328 11.6277 2.08951 11.5372 2.31067L7.03723 13.3107C6.97415 13.4649 6.99201 13.6404 7.08488 13.7787C7.17774 13.917 7.3334 14 7.5 14H11.5V21.5C11.5 21.7389 11.6691 21.9445 11.9035 21.9906C12.138 22.0367 12.3723 21.9105 12.4628 21.6893L16.9628 10.6893C17.0259 10.5351 17.008 10.3596 16.9151 10.2213C16.8223 10.083 16.6666 9.99999 16.5 9.99999H12.5V2.49999ZM12.5 13.5C12.5 13.2238 12.2761 13 12 13H8.24477L11.5 5.04275V10.5C11.5 10.7761 11.7239 11 12 11H15.7552L12.5 18.9572V13.5Z" fill="#00164E"/>
</svg>
