<svg width="24" height="24" viewBox="0 0 24 24" fill="none" xmlns="http://www.w3.org/2000/svg">
<path fill-rule="evenodd" clip-rule="evenodd" d="M12 3.5C11.7239 3.5 11.5 3.72386 11.5 4V12C11.5 12.2761 11.7239 12.5 12 12.5H20C20.2761 12.5 20.5 12.2761 20.5 12C20.5 7.30558 16.6944 3.5 12 3.5ZM18.6598 8.54734L15.7071 11.5H19.4836C19.4139 10.4406 19.1242 9.44132 18.6598 8.54734ZM18.1239 7.66902C17.632 6.97485 17.0251 6.36796 16.331 5.87613L12.5 9.70711V11.5H14.2929L18.1239 7.66902ZM12.5 8.29289L15.4527 5.34024C14.5587 4.87582 13.5594 4.58613 12.5 4.5164V8.29289Z" fill="#00164E"/>
<path d="M10.0995 5.64004C10.3701 5.5851 10.5449 5.32119 10.49 5.05056C10.4351 4.77994 10.1712 4.60509 9.90053 4.66002C9.53519 4.73418 9.17885 4.83324 8.83338 4.95535C5.72687 6.05334 3.5 9.01597 3.5 12.5C3.5 16.9183 7.08172 20.5 11.5 20.5C15.3709 20.5 18.5987 17.7513 19.34 14.0995C19.3949 13.8288 19.2201 13.5649 18.9494 13.51C18.6788 13.4551 18.4149 13.6299 18.36 13.9005C17.7114 17.0955 14.886 19.5 11.5 19.5C7.63401 19.5 4.5 16.366 4.5 12.5C4.5 9.45294 6.44717 6.85938 9.16662 5.89819C9.46857 5.79146 9.78005 5.70487 10.0995 5.64004Z" fill="#00164E"/>
</svg>
