<svg width="24" height="24" viewBox="0 0 24 24" fill="none" xmlns="http://www.w3.org/2000/svg">
<path fill-rule="evenodd" clip-rule="evenodd" d="M7 3.5C7 3.22386 7.22386 3 7.5 3H16.5C16.7761 3 17 3.22386 17 3.5V5.5C17 5.77614 16.7761 6 16.5 6H16V7.79C16 8.53162 15.8625 9.11584 15.63 9.59755C15.3981 10.0778 15.0854 10.4273 14.7791 10.7139C14.6423 10.8419 14.5024 10.9612 14.3743 11.0704L14.3354 11.1036C14.1933 11.2248 14.0669 11.3342 13.952 11.4471C13.7717 11.6243 13.6326 11.7979 13.5376 12C13.6326 12.2021 13.7717 12.3757 13.952 12.5529C14.0669 12.6658 14.1933 12.7752 14.3354 12.8964L14.3743 12.9296C14.5023 13.0388 14.6423 13.1581 14.7791 13.2861C15.0854 13.5727 15.3981 13.9222 15.63 14.4024C15.8625 14.8842 16 15.4684 16 16.21V18H16.5C16.7761 18 17 18.2239 17 18.5V20.5C17 20.7761 16.7761 21 16.5 21H7.5C7.22386 21 7 20.7761 7 20.5V18.5C7 18.2239 7.22386 18 7.5 18H8V16.21C8 15.4684 8.13747 14.8842 8.37005 14.4024C8.60193 13.9222 8.91461 13.5727 9.22091 13.2861C9.35774 13.1581 9.49765 13.0388 9.6257 12.9296L9.66463 12.8964C9.80668 12.7752 9.93307 12.6658 10.048 12.5529C10.2283 12.3757 10.3674 12.2021 10.4624 12C10.3674 11.7979 10.2283 11.6243 10.048 11.4471C9.93307 11.3342 9.80668 11.2248 9.66463 11.1036L9.62569 11.0704C9.49764 10.9612 9.35773 10.8419 9.22091 10.7139C8.91461 10.4273 8.60193 10.0778 8.37005 9.59755C8.13747 9.11584 8 8.53162 8 7.79V6H7.5C7.22386 6 7 5.77614 7 5.5V3.5ZM9.27058 9.16276C9.11253 8.83541 9 8.40338 9 7.79V6H15V7.79C15 8.40338 14.8875 8.83541 14.7294 9.16276C14.5707 9.49155 14.3521 9.74393 14.0959 9.98363C13.9768 10.095 13.8544 10.1995 13.7237 10.311L13.6861 10.343C13.545 10.4635 13.394 10.5935 13.2512 10.7338C12.9611 11.0188 12.6846 11.3652 12.5257 11.8419C12.4914 11.9445 12.4914 12.0555 12.5257 12.1581C12.6846 12.6348 12.9611 12.9812 13.2512 13.2662C13.394 13.4065 13.545 13.5365 13.6861 13.657L13.7237 13.689C13.8543 13.8005 13.9768 13.905 14.0959 14.0164C14.3521 14.2561 14.5707 14.5084 14.7294 14.8372C14.8875 15.1646 15 15.5966 15 16.21V18H9V16.21C9 15.5966 9.11253 15.1646 9.27058 14.8372C9.42932 14.5084 9.64789 14.2561 9.90409 14.0164C10.0232 13.905 10.1457 13.8005 10.2764 13.689L10.3139 13.657C10.455 13.5365 10.606 13.4065 10.7488 13.2662C11.0389 12.9812 11.3154 12.6348 11.4743 12.1581C11.5086 12.0555 11.5086 11.9445 11.4743 11.8419C11.3154 11.3652 11.0389 11.0188 10.7488 10.7338C10.606 10.5935 10.455 10.4635 10.3139 10.343L10.2764 10.311C10.1457 10.1995 10.0232 10.095 9.90409 9.98363C9.64789 9.74393 9.42932 9.49155 9.27058 9.16276ZM8 5V4H16V5H8ZM16 19V20H8V19H16Z" fill="#00164E"/>
</svg>
