<svg width="24" height="24" viewBox="0 0 24 24" fill="none" xmlns="http://www.w3.org/2000/svg">
<path fill-rule="evenodd" clip-rule="evenodd" d="M18 4.50416C17.9983 4.70719 17.874 4.88904 17.6855 4.96435L17.6502 4.97844C17.6822 5.04438 17.7002 5.11842 17.7002 5.19666V7.19666C17.7002 7.4728 17.4763 7.69666 17.2002 7.69666C16.9241 7.69666 16.7002 7.4728 16.7002 7.19666V5.35786L16 5.6375V7.89664C16 7.99997 15.9687 8.09597 15.915 8.17567C15.9707 8.44168 16 8.71741 16 8.99999C16 10.3085 15.3717 11.4703 14.4002 12.2001C14.4242 12.2321 14.444 12.2664 14.4594 12.3024C15.4451 12.614 16.3517 13.1593 17.0962 13.9038C18.3152 15.1228 19 16.7761 19 18.5V18.8C19 19.3835 18.7682 19.9431 18.3556 20.3556C17.9431 20.7682 17.3835 21 16.8 21H7.2C6.61652 21 6.05694 20.7682 5.64437 20.3556C5.23179 19.9431 5 19.3835 5 18.8V18.5C5 16.7761 5.68482 15.1228 6.90381 13.9038C7.64835 13.1593 8.55492 12.614 9.54064 12.3023C9.55606 12.2664 9.5758 12.2321 9.59978 12.2001C8.62836 11.4703 8.00001 10.3085 8.00001 8.99999C8.00001 8.71742 8.02931 8.44168 8.08504 8.17566C8.03135 8.09597 8.00001 7.99997 8.00001 7.89664V5.6375L6.31455 4.96435C6.126 4.88904 6.0017 4.70719 6.00002 4.50416C5.99833 4.30114 6.11958 4.11725 6.30686 4.03882L11.8069 1.73547C11.9304 1.68372 12.0696 1.68372 12.1932 1.73547L17.6932 4.03882C17.8804 4.11725 18.0017 4.30114 18 4.50416ZM9.0607 8.39664C9.02091 8.59155 9.00001 8.79333 9.00001 8.99999C9.00001 10.6568 10.3432 12 12 12C13.6569 12 15 10.6568 15 8.99999C15 8.79333 14.9791 8.59155 14.9393 8.39664H9.0607ZM12.1855 7.16099L15 6.03689V7.39664H9.00001V6.03689L11.8146 7.16099C11.9336 7.20854 12.0664 7.20854 12.1855 7.16099ZM12 2.73873L7.82059 4.48904L12 6.15825L16.1794 4.48904L12 2.73873ZM11.0548 13.018C11.2023 13.0061 11.3509 13 11.5 13H12.5C12.6492 13 12.7977 13.0061 12.9453 13.018L12.3905 13.7116C12.1903 13.9618 11.8097 13.9618 11.6096 13.7116L11.0548 13.018ZM14.0597 13.2258L13.1713 14.3363C12.9878 14.5657 12.7537 14.725 12.5 14.8141V20H16.8C17.1183 20 17.4235 19.8736 17.6485 19.6485C17.8736 19.4235 18 19.1183 18 18.8V18.5C18 17.0413 17.4205 15.6424 16.3891 14.6109C15.7344 13.9563 14.9318 13.4837 14.0597 13.2258ZM7.2 20C6.88174 20 6.57652 19.8736 6.35147 19.6485C6.12643 19.4235 6 19.1183 6 18.8V18.5C6 17.0413 6.57946 15.6424 7.61091 14.6109C8.26557 13.9563 9.06827 13.4837 9.94032 13.2258L10.8287 14.3363C11.0122 14.5657 11.2463 14.725 11.5 14.8141V20H7.2Z" fill="#00164E"/>
</svg>
