<svg width="24" height="24" viewBox="0 0 24 24" fill="none" xmlns="http://www.w3.org/2000/svg">
<path d="M11.5 9L11.6469 12.354L13.6464 14.3536C13.8417 14.5488 14.1583 14.5488 14.3536 14.3536C14.5488 14.1583 14.5488 13.8417 14.3536 13.6464L12.5 11.7929V9C12.5 8.72386 12.2761 8.5 12 8.5C11.7239 8.5 11.5 8.72386 11.5 9Z" fill="#00164E"/>
<path d="M11.5379 12.1914C11.5135 12.1324 11.5 12.0678 11.5 12V9L11.6443 12.3514C11.5974 12.304 11.562 12.2495 11.5379 12.1914Z" fill="#00164E"/>
<path fill-rule="evenodd" clip-rule="evenodd" d="M8.5068 2.9178C8.54699 2.67671 8.75558 2.5 9 2.5H15C15.2444 2.5 15.453 2.67671 15.4932 2.9178L15.978 5.82645C17.1723 6.38362 18 7.59515 18 9V15C18 16.4049 17.1723 17.6164 15.978 18.1736L15.4932 21.0822C15.453 21.3233 15.2444 21.5 15 21.5H9C8.75558 21.5 8.54699 21.3233 8.5068 21.0822L8.02203 18.1736C6.82769 17.6164 6 16.4049 6 15V9C6 7.59515 6.82769 6.38361 8.02203 5.82645L8.5068 2.9178ZM14.5 6.5C14.5332 6.5 14.5663 6.50065 14.5992 6.50193C15.9339 6.554 17 7.6525 17 9V15C17 16.3618 15.9112 17.4693 14.5566 17.4994L14.5243 17.4999L14.5106 17.5L14.5 17.5H9.5C9.46657 17.5 9.43331 17.4993 9.40023 17.4981C8.06577 17.4457 7 16.3473 7 15V9C7 7.63819 8.08885 6.5307 9.44344 6.50063C9.46224 6.50021 9.48109 6.5 9.5 6.5H14.5ZM14.5764 3.5L14.9138 5.52421C14.812 5.51222 14.7089 5.5046 14.6046 5.50154C14.5698 5.50052 14.535 5.5 14.5 5.5H9.5C9.47698 5.5 9.45401 5.50022 9.43109 5.50067C9.31464 5.50292 9.19959 5.51085 9.0862 5.52421L9.42357 3.5H14.5764ZM14.9138 18.4758C14.8226 18.4865 14.7303 18.4938 14.6371 18.4974C14.5916 18.4991 14.5459 18.5 14.5 18.5H9.5C9.46503 18.5 9.43016 18.4995 9.39542 18.4985C9.29114 18.4954 9.188 18.4878 9.0862 18.4758L9.42356 20.5H14.5764L14.9138 18.4758Z" fill="#00164E"/>
</svg>
