<svg width="24" height="24" viewBox="0 0 24 24" fill="none" xmlns="http://www.w3.org/2000/svg">
<path d="M17.5 18.03C17.2239 18.03 17 17.8062 17 17.53V14.53C17 14.2539 17.2239 14.03 17.5 14.03C17.7762 14.03 18 14.2539 18 14.53V17.53C18 17.8062 17.7762 18.03 17.5 18.03Z" fill="#00164E"/>
<path fill-rule="evenodd" clip-rule="evenodd" d="M3.38137 12.581C2.95287 12.2619 2.60449 11.8467 2.36473 11.3692C2.12489 10.8916 2 10.3645 2 9.83003V2.53003C2 2.25389 2.22386 2.03003 2.5 2.03003C2.77614 2.03003 3 2.25389 3 2.53003L3 9.83003C3 10.2087 3.08848 10.5821 3.25839 10.9205C3.4283 11.2589 3.67494 11.5529 3.97864 11.779L10 16.2748L10 8.01943C9.96484 7.53194 10.1199 7.04942 10.4332 6.6735C10.7513 6.29179 11.2069 6.05069 11.7014 6.0024L11.8423 6.11066L11.8462 6.11323L11.8591 6.12208L15.9091 8.99208C15.928 9.00544 15.9459 9.02009 15.9627 9.03592C16.1427 9.20528 16.3784 9.30273 16.6252 9.31C16.8926 9.30769 17.1486 9.20154 17.3392 9.01382C17.4293 8.92538 17.5016 8.81918 17.5505 8.70274C17.5994 8.58631 17.6245 8.4613 17.6245 8.33503C17.6245 8.20875 17.5994 8.08375 17.5505 7.96731C17.5016 7.85088 17.43 7.74536 17.3399 7.65692L17.3361 7.65323L12.5761 2.88321C12.3811 2.68774 12.3814 2.37116 12.5769 2.17611C12.7723 1.98105 13.0889 1.98138 13.284 2.17685L17.0991 6.00003H20.25C20.2662 6.00003 20.2825 6.00082 20.2986 6.0024C20.7931 6.05069 21.2487 6.29179 21.5668 6.6735C21.8801 7.04942 22.0352 7.53194 22 8.01943V18.9806C22.0352 19.4681 21.8801 19.9506 21.5668 20.3266C21.2487 20.7083 20.7931 20.9494 20.2986 20.9977C20.2825 20.9992 20.2662 21 20.25 21H11.75C11.7338 21 11.7176 20.9992 11.7014 20.9977C11.2069 20.9494 10.7513 20.7083 10.4332 20.3266C10.1199 19.9506 9.96484 19.4681 10 18.9806V17.5228L3.38137 12.581ZM18.0959 7.00003C18.2549 7.16929 18.3825 7.36575 18.4725 7.58025C18.5729 7.81924 18.6245 8.07583 18.6245 8.33503C18.6245 8.59422 18.5729 8.85082 18.4725 9.08981C18.3723 9.32865 18.2254 9.54512 18.0406 9.72658C17.662 10.0993 17.1525 10.3087 16.6213 10.31L16.6085 10.3099C16.1251 10.2987 15.6623 10.1137 15.3047 9.78935L15 9.57347L15 20H20.2229C20.4475 19.9726 20.6535 19.8606 20.7986 19.6864C20.9484 19.5066 21.0214 19.2751 21.0018 19.042C21.0006 19.028 21 19.014 21 19V8.00003L21 7.99478C21.0002 7.98254 21.0007 7.9703 21.0018 7.95809C21.0214 7.72494 20.9484 7.49343 20.7986 7.31369C20.6535 7.13949 20.4475 7.02748 20.2229 7.00003L18.0959 7.00003ZM13 8.15618L11.4899 7.08602C11.3799 7.14051 11.2814 7.21765 11.2014 7.31369C11.0516 7.49343 10.9786 7.72494 10.9982 7.9581C10.9994 7.97204 11 7.98603 11 8.00003L11 19L11 19.0053L10.9999 19.0099C10.9997 19.0206 10.9991 19.0313 10.9982 19.042C10.9786 19.2751 11.0516 19.5066 11.2014 19.6864C11.3466 19.8606 11.5525 19.9726 11.7771 20H13L13 8.15618Z" fill="#00164E"/>
<path d="M11.75 6.00003C11.7338 6.00003 11.7176 6.00082 11.7014 6.0024L11.75 6.00003Z" fill="#00164E"/>
</svg>
