<svg width="24" height="24" viewBox="0 0 24 24" fill="none" xmlns="http://www.w3.org/2000/svg">
<path fill-rule="evenodd" clip-rule="evenodd" d="M18.3485 2.02362L13.2047 3.60631C13.0285 3.36914 12.7838 3.1858 12.5 3.08547V2.50012C12.5 2.22398 12.2761 2.00012 12 2.00012C11.7239 2.00012 11.5 2.22398 11.5 2.50012V3.08547C10.9359 3.28485 10.5267 3.81205 10.5013 4.43815L5.35754 6.02084C5.34493 6.02459 5.33249 6.02882 5.32026 6.03354C5.22206 6.07126 5.14189 6.13731 5.08631 6.2193C5.08109 6.22699 5.07607 6.23485 5.07125 6.24287L2.07548 11.2358C2.02764 11.3125 2 11.4031 2 11.5001V12.5001C2 13.4284 2.36875 14.3186 3.02513 14.975C3.6815 15.6314 4.57174 16.0001 5.5 16.0001C6.42826 16.0001 7.3185 15.6314 7.97487 14.975C8.63125 14.3186 9 13.4284 9 12.5001V11.5005L8.99998 11.4959C8.99923 11.4082 8.97545 11.3207 8.92875 11.2429L6.25719 6.79029L10.7953 5.39395C10.9715 5.63112 11.2162 5.81445 11.5 5.91477V21.0001H7.5C7.22386 21.0001 7 21.224 7 21.5001C7 21.7763 7.22386 22.0001 7.5 22.0001H16.5C16.7761 22.0001 17 21.7763 17 21.5001C17 21.224 16.7761 21.0001 16.5 21.0001H12.5V5.91477C13.0641 5.7154 13.4733 5.18821 13.4987 4.56212L17.3999 3.36175L15.0755 7.23582C15.0276 7.3125 15 7.40308 15 7.50012V8.50012C15 9.42838 15.3687 10.3186 16.0251 10.975C16.6815 11.6314 17.5717 12.0001 18.5 12.0001C19.4283 12.0001 20.3185 11.6314 20.9749 10.975C21.6313 10.3186 22 9.42838 22 8.50012V7.5005L22 7.49585C21.9992 7.40817 21.9754 7.32071 21.9287 7.24287L18.9342 2.2519C18.8912 2.17657 18.8301 2.11529 18.7584 2.07204C18.739 2.06038 18.7189 2.05004 18.6982 2.04108C18.6037 2.00022 18.4962 1.98821 18.3897 2.01244C18.3758 2.01558 18.362 2.01932 18.3485 2.02362ZM18.5 3.47195L20.6169 7.00012H16.3831L18.5 3.47195ZM21 8.50012C21 9.16316 20.7366 9.79905 20.2678 10.2679C19.7989 10.7367 19.163 11.0001 18.5 11.0001C17.837 11.0001 17.2011 10.7367 16.7322 10.2679C16.2634 9.79905 16 9.16316 16 8.50012V8.00012H21V8.50012ZM7.6169 11.0001L5.5 7.47195L3.3831 11.0001H7.6169ZM7.26777 14.2679C7.73661 13.799 8 13.1632 8 12.5001V12.0001H3V12.5001C3 13.1632 3.26339 13.799 3.73223 14.2679C4.20107 14.7367 4.83696 15.0001 5.5 15.0001C6.16304 15.0001 6.79893 14.7367 7.26777 14.2679Z" fill="#00164E"/>
</svg>
