<svg width="24" height="24" viewBox="0 0 24 24" fill="none" xmlns="http://www.w3.org/2000/svg">
<path fill-rule="evenodd" clip-rule="evenodd" d="M11.5 4C10.6716 4 10 4.67157 10 5.5C10 6.32843 10.6716 7 11.5 7C12.3284 7 13 6.32843 13 5.5C13 4.67157 12.3284 4 11.5 4ZM11 5.5C11 5.22386 11.2239 5 11.5 5C11.7761 5 12 5.22386 12 5.5C12 5.77614 11.7761 6 11.5 6C11.2239 6 11 5.77614 11 5.5Z" fill="#00164E"/>
<path fill-rule="evenodd" clip-rule="evenodd" d="M10 9.5C10 8.67157 10.6716 8 11.5 8C12.3284 8 13 8.67157 13 9.5C13 10.3284 12.3284 11 11.5 11C10.6716 11 10 10.3284 10 9.5ZM11.5 9C11.2239 9 11 9.22386 11 9.5C11 9.77614 11.2239 10 11.5 10C11.7761 10 12 9.77614 12 9.5C12 9.22386 11.7761 9 11.5 9Z" fill="#00164E"/>
<path fill-rule="evenodd" clip-rule="evenodd" d="M11.5 12C10.6716 12 10 12.6716 10 13.5C10 14.3284 10.6716 15 11.5 15C12.3284 15 13 14.3284 13 13.5C13 12.6716 12.3284 12 11.5 12ZM11 13.5C11 13.2239 11.2239 13 11.5 13C11.7761 13 12 13.2239 12 13.5C12 13.7761 11.7761 14 11.5 14C11.2239 14 11 13.7761 11 13.5Z" fill="#00164E"/>
<path fill-rule="evenodd" clip-rule="evenodd" d="M6 4.5C6 5.70948 6.85888 6.71836 8 6.94999V8H6.5C6.22386 8 6 8.22386 6 8.5C6 9.70948 6.85888 10.7184 8 10.95V12H6.5C6.22386 12 6 12.2239 6 12.5C6 13.7242 6.87996 14.7429 8.04188 14.9581C8.25706 16.12 9.27577 17 10.5 17H11V21.5C11 21.7761 11.2239 22 11.5 22C11.7761 22 12 21.7761 12 21.5V17H12.5C13.7242 17 14.7429 16.12 14.9581 14.9581C16.12 14.7429 17 13.7242 17 12.5C17 12.2239 16.7761 12 16.5 12H15V10.95C16.1411 10.7184 17 9.70948 17 8.5C17 8.22386 16.7761 8 16.5 8H15V6.94999C16.1411 6.71836 17 5.70948 17 4.5C17 4.22386 16.7761 4 16.5 4H14.95C14.7184 2.85888 13.7095 2 12.5 2H10.5C9.29052 2 8.28164 2.85888 8.05001 4H6.5C6.22386 4 6 4.22386 6 4.5ZM8 5.91465C7.57379 5.764 7.236 5.42621 7.08535 5H8V5.91465ZM15 13.9146C15.4262 13.764 15.764 13.4262 15.9146 13H15V13.9146ZM12.5 16C13.3284 16 14 15.3284 14 14.5V4.5C14 3.67157 13.3284 3 12.5 3H10.5C9.67157 3 9 3.67157 9 4.5V14.5C9 15.3284 9.67157 16 10.5 16H12.5ZM15.9146 9C15.764 9.42621 15.4262 9.764 15 9.91465V9H15.9146ZM15 5.91465C15.4262 5.764 15.764 5.42621 15.9146 5H15V5.91465ZM8 13.9146C7.57379 13.764 7.236 13.4262 7.08535 13H8V13.9146ZM7.08535 9C7.236 9.42621 7.57379 9.764 8 9.91465V9H7.08535Z" fill="#00164E"/>
</svg>
