<svg width="24" height="24" viewBox="0 0 24 24" fill="none" xmlns="http://www.w3.org/2000/svg">
<path d="M5.5 2C4.11929 2 3 3.11929 3 4.5V19.5C3 20.8807 4.11929 22 5.5 22H12.5C13.8807 22 15 20.8807 15 19.5V18C15 17.7239 14.7761 17.5 14.5 17.5C14.2239 17.5 14 17.7239 14 18V19.5C14 20.3284 13.3284 21 12.5 21H5.5C4.67157 21 4 20.3284 4 19.5V4.5C4 3.67157 4.67157 3 5.5 3H12.5C13.3284 3 14 3.67157 14 4.5V5C14 5.27614 14.2239 5.5 14.5 5.5C14.7761 5.5 15 5.27614 15 5V4.5C15 3.11929 13.8807 2 12.5 2H5.5Z" fill="#00164E"/>
<path d="M10 19C10 19.5523 9.55228 20 9 20C8.44772 20 8 19.5523 8 19C8 18.4477 8.44772 18 9 18C9.55228 18 10 18.4477 10 19Z" fill="#00164E"/>
<path fill-rule="evenodd" clip-rule="evenodd" d="M13.8 9.54999C12.5574 9.54999 11.55 10.5573 11.55 11.8C11.55 13.0426 12.5574 14.05 13.8 14.05C15.0427 14.05 16.05 13.0426 16.05 11.8C16.05 10.5573 15.0427 9.54999 13.8 9.54999ZM12.45 11.8C12.45 11.0544 13.0545 10.45 13.8 10.45C14.5456 10.45 15.15 11.0544 15.15 11.8C15.15 12.5456 14.5456 13.15 13.8 13.15C13.0545 13.15 12.45 12.5456 12.45 11.8Z" fill="#00164E"/>
<path d="M18.3001 10.15C18.5486 10.15 18.7501 10.3515 18.7501 10.6V12.4C18.7501 12.6485 18.5486 12.85 18.3001 12.85C18.0516 12.85 17.8501 12.6485 17.8501 12.4V10.6C17.8501 10.3515 18.0516 10.15 18.3001 10.15Z" fill="#00164E"/>
<path d="M9.95005 10.6C9.95005 10.3515 9.74858 10.15 9.50005 10.15C9.25152 10.15 9.05005 10.3515 9.05005 10.6V12.4C9.05005 12.6485 9.25152 12.85 9.50005 12.85C9.74858 12.85 9.95005 12.6485 9.95005 12.4V10.6Z" fill="#00164E"/>
<path fill-rule="evenodd" clip-rule="evenodd" d="M21.45 7.49999C21.45 6.97532 21.0247 6.54999 20.5 6.54999H7.50005C6.97538 6.54999 6.55005 6.97532 6.55005 7.49999V15.5C6.55005 16.0247 6.97538 16.45 7.50005 16.45H20.5C21.0247 16.45 21.45 16.0247 21.45 15.5V7.49999ZM9.40924 8.90918C9.80825 8.51016 10.0695 7.99913 10.1623 7.44999H18.0878C18.1806 7.99913 18.4418 8.51016 18.8409 8.90918C19.2999 9.36817 19.9071 9.64484 20.55 9.69258V13.0574C19.9071 13.1051 19.2999 13.3818 18.8409 13.8408C18.3819 14.2998 18.1052 14.907 18.0575 15.55H10.1926C10.1449 14.907 9.86824 14.2998 9.40924 13.8408C8.90289 13.3345 8.21613 13.05 7.50005 13.05C7.48315 13.05 7.46647 13.0509 7.45005 13.0527V9.69724C7.46647 9.69906 7.48315 9.69999 7.50005 9.69999C8.21613 9.69999 8.90289 9.41552 9.40924 8.90918ZM19.4773 8.27278C19.7673 8.56287 20.1462 8.74371 20.55 8.78885V7.49999C20.55 7.47237 20.5277 7.44999 20.5 7.44999H19.0072C19.0869 7.7587 19.248 8.04349 19.4773 8.27278ZM19.4773 14.4772C19.7673 14.1871 20.1462 14.0063 20.55 13.9611V15.5C20.55 15.5276 20.5277 15.55 20.5 15.55H18.9612C19.0063 15.1462 19.1872 14.7673 19.4773 14.4772ZM8.77284 14.4772C9.06293 14.7673 9.24377 15.1462 9.28891 15.55H7.50005C7.47243 15.55 7.45005 15.5276 7.45005 15.5V13.9472C7.46647 13.9491 7.48315 13.95 7.50005 13.95C7.97744 13.95 8.43528 14.1396 8.77284 14.4772ZM7.50005 8.79999C7.48315 8.79999 7.46647 8.80092 7.45005 8.80273V7.49999C7.45005 7.47237 7.47243 7.44999 7.50005 7.44999H9.2429C9.16318 7.7587 9.00214 8.04349 8.77284 8.27278C8.43528 8.61035 7.97744 8.79999 7.50005 8.79999Z" fill="#00164E"/>
</svg>
