<svg width="24" height="24" viewBox="0 0 24 24" fill="none" xmlns="http://www.w3.org/2000/svg">
<path d="M13.9182 10.3967C13.7647 10.7516 13.4114 11 13 11C12.4477 11 12 10.5523 12 10C12 9.81927 12.0479 9.64973 12.1318 9.50342C12.0882 9.50115 12.0442 9.5 12 9.5C10.6193 9.5 9.5 10.6193 9.5 12C9.5 13.3807 10.6193 14.5 12 14.5C13.3807 14.5 14.5 13.3807 14.5 12C14.5 11.3898 14.2814 10.8307 13.9182 10.3967Z" fill="#00164E"/>
<path fill-rule="evenodd" clip-rule="evenodd" d="M12 7C7.05844 7 4.21269 9.98575 2.63005 11.6462C2.45352 11.8315 2.2927 12.0002 2.14645 12.1464C1.95118 12.3417 1.95118 12.6583 2.14645 12.8536C2.35602 13.0631 2.57055 13.2866 2.79326 13.5185C4.65787 15.4606 7.09604 18 12 18C16.904 18 19.3421 15.4606 21.2067 13.5185C21.4295 13.2866 21.644 13.0631 21.8536 12.8536C22.0488 12.6583 22.0488 12.3417 21.8536 12.1464C21.7073 12.0002 21.5465 11.8315 21.37 11.6462C19.7873 9.98575 16.9416 7 12 7ZM3.20005 12.4986C3.30654 12.6082 3.41366 12.7193 3.52179 12.8316C5.38027 14.7601 7.53875 17 12 17C16.4612 17 18.6197 14.7601 20.4782 12.8316C20.5863 12.7193 20.6935 12.6082 20.8 12.4986L20.6392 12.331C19.5585 11.2029 18.033 9.61064 15.7601 8.70421C16.532 9.58418 17 10.7374 17 12C17 14.7614 14.7614 17 12 17C9.23858 17 7 14.7614 7 12C7 10.7374 7.46796 9.58418 8.23989 8.70421C5.96702 9.61065 4.44155 11.2029 3.36083 12.331L3.20005 12.4986ZM12 8C9.79086 8 8 9.79086 8 12C8 14.2091 9.79086 16 12 16C14.2091 16 16 14.2091 16 12C16 9.79086 14.2091 8 12 8Z" fill="#00164E"/>
</svg>
