<svg width="24" height="24" viewBox="0 0 24 24" fill="none" xmlns="http://www.w3.org/2000/svg">
<path fill-rule="evenodd" clip-rule="evenodd" d="M5.01904 6.1076C4.69941 6.46171 4.44301 6.88625 4.26714 7.35793C4.09115 7.82992 4 8.33805 4 8.85234C4 9.36662 4.09114 9.87459 4.26714 10.3466C4.44209 10.8158 4.69673 11.2384 5.01402 11.5913L11.9773 18.7824L18.9865 11.5908C19.3036 11.2379 19.558 10.8155 19.7329 10.3466C19.9089 9.87459 20 9.36662 20 8.85234C20 8.33805 19.9088 7.82992 19.7329 7.35793C19.557 6.88623 19.3006 6.46169 18.9809 6.10757C18.3278 5.38997 17.4618 5 16.573 5C15.6839 5 14.8176 5.39023 14.1644 6.10828L14.1629 6.10987L12.3684 8.06541C12.2737 8.1686 12.1401 8.22735 12 8.22735C11.86 8.22735 11.7263 8.1686 11.6316 8.06541L9.83569 6.10828C9.18246 5.39023 8.31617 5 7.42706 5C6.53823 5 5.6722 5.38999 5.01904 6.1076ZM4.27872 5.43534C5.10857 4.52315 6.23772 4 7.42706 4C8.61604 4 9.74486 4.52284 10.5746 5.43452C10.5749 5.43479 10.5751 5.43507 10.5754 5.43534L12 6.98783L13.4247 5.43534C13.4249 5.43506 13.4252 5.43478 13.4254 5.4345C14.2552 4.52283 15.384 4 16.573 4C17.7624 4 18.8914 4.52316 19.7213 5.43534L19.7225 5.4367C20.1303 5.88831 20.4515 6.42302 20.6698 7.00856C20.8882 7.5941 21 8.22067 21 8.85234C21 9.48403 20.8882 10.1104 20.6698 10.696C20.4515 11.2815 20.1303 11.8162 19.7225 12.2678C19.7183 12.2725 19.7139 12.2772 19.7095 12.2817L12.3342 19.849C12.2398 19.9457 12.1104 20.0002 11.9753 20C11.8402 19.9998 11.7109 19.9449 11.6169 19.8478L4.28938 12.2805C4.28534 12.2764 4.28138 12.2721 4.2775 12.2678C3.86965 11.8162 3.54848 11.2815 3.33015 10.696C3.11183 10.1104 3 9.48403 3 8.85234C3 8.22068 3.11183 7.5941 3.33015 7.00856C3.54848 6.42302 3.86965 5.88831 4.2775 5.4367L4.27872 5.43534Z" fill="#00164E"/>
</svg>
