<svg width="24" height="24" viewBox="0 0 24 24" fill="none" xmlns="http://www.w3.org/2000/svg">
<path d="M4 4.5C4 4.43221 4.01349 4.36756 4.03794 4.30861C4.06198 4.25051 4.09744 4.19602 4.14433 4.14857L4.14645 4.14645C4.19439 4.09851 4.24964 4.06234 4.30861 4.03794C4.36756 4.01349 4.43221 4 4.5 4H8.5C8.77614 4 9 4.22386 9 4.5C9 4.77614 8.77614 5 8.5 5H5.70711L8.94355 8.23645C9.13881 8.43171 9.13881 8.74829 8.94355 8.94355C8.74829 9.13882 8.43171 9.13882 8.23644 8.94355L5 5.70711V8.5C5 8.77614 4.77614 9 4.5 9C4.22386 9 4 8.77614 4 8.5V4.5Z" fill="#00164E"/>
<path d="M19.5 4C19.5678 4 19.6324 4.01349 19.6914 4.03794C19.7495 4.06198 19.804 4.09744 19.8514 4.14433L19.8536 4.14645C19.9015 4.19439 19.9377 4.24964 19.9621 4.30861C19.9865 4.36756 20 4.43221 20 4.5V8.5C20 8.77614 19.7761 9 19.5 9C19.2239 9 19 8.77614 19 8.5V5.70711L15.7636 8.94355C15.5683 9.13881 15.2517 9.13881 15.0564 8.94355C14.8612 8.74829 14.8612 8.43171 15.0564 8.23644L18.2929 5L15.5 5C15.2239 5 15 4.77614 15 4.5C15 4.22386 15.2239 4 15.5 4H19.5Z" fill="#00164E"/>
<path d="M19.9621 19.6914C19.9865 19.6324 20 19.5678 20 19.5V15.5C20 15.2239 19.7761 15 19.5 15C19.2239 15 19 15.2239 19 15.5V18.2929L15.7636 15.0564C15.5683 14.8612 15.2517 14.8612 15.0564 15.0564C14.8612 15.2517 14.8612 15.5683 15.0564 15.7636L18.2929 19H15.5C15.2239 19 15 19.2239 15 19.5C15 19.7761 15.2239 20 15.5 20H19.5C19.5678 20 19.6324 19.9865 19.6914 19.9621C19.7504 19.9377 19.8056 19.9015 19.8536 19.8536L19.8557 19.8514C19.9026 19.804 19.938 19.7495 19.9621 19.6914Z" fill="#00164E"/>
<path d="M4.5 20C4.43221 20 4.36756 19.9865 4.30861 19.9621C4.25051 19.938 4.19602 19.9026 4.14857 19.8557L4.14645 19.8536C4.09851 19.8056 4.06234 19.7504 4.03794 19.6914C4.01349 19.6324 4 19.5678 4 19.5V15.5C4 15.2239 4.22386 15 4.5 15C4.77614 15 5 15.2239 5 15.5L5 18.2929L8.23645 15.0564C8.43171 14.8612 8.74829 14.8612 8.94355 15.0564C9.13882 15.2517 9.13882 15.5683 8.94355 15.7636L5.70711 19L8.5 19C8.77614 19 9 19.2239 9 19.5C9 19.7761 8.77614 20 8.5 20H4.5Z" fill="#00164E"/>
</svg>
