<svg width="24" height="24" viewBox="0 0 24 24" fill="none" xmlns="http://www.w3.org/2000/svg">
<path fill-rule="evenodd" clip-rule="evenodd" d="M6.79157 4C5.14818 4 3.72612 5.14337 3.37322 6.74842L3.01812 8.36351C2.16926 8.82534 1.56394 9.68652 1.46433 10.7092L1.10926 14.3546C1.06586 14.8001 1.2213 15.2155 1.5 15.5174V16.5C1.5 17.3284 2.17157 18 3 18H4C4.82843 18 5.5 17.3284 5.5 16.5L5.50002 16C5.77616 16 6.00005 15.7761 6.00005 15.5C6.00005 15.2239 5.7762 15 5.50005 15H2.60219C2.30689 15 2.07592 14.7454 2.10454 14.4515L2.45962 10.8061C2.55942 9.78149 3.42073 9 4.4502 9H7.50005C7.7762 9 8.00005 8.77614 8.00005 8.5C8.00005 8.22386 7.7762 8 7.50005 8H4.12193L4.34989 6.96316C4.60196 5.81669 5.61772 5 6.79157 5H11.5849C12.1883 5 12.737 5.2752 13.0992 5.71645C13.173 5.8698 13.3226 5.97973 13.4995 5.99748L13.5 6L13.5023 5.99775C13.518 5.99924 13.5339 6 13.55 6C13.8262 6 14.05 5.77614 14.05 5.5C14.05 5.40155 14.0491 5.32679 14 5.24941C14.0095 5.26287 13.9957 5.23157 13.9834 5.2262C13.4412 4.47609 12.5603 4 11.5849 4H6.79157ZM13.985 5.22849L13.9834 5.2262C13.9823 5.22571 13.9832 5.22668 13.985 5.22849ZM4 17C4.27614 17 4.5 16.7761 4.5 16.5V16H2.5V16.5C2.5 16.7761 2.72386 17 3 17H4Z" fill="#00164E"/>
<path fill-rule="evenodd" clip-rule="evenodd" d="M4.61719 10C3.92683 10 3.36719 10.5596 3.36719 11.25C3.36719 11.9404 3.92683 12.5 4.61719 12.5C5.12977 12.5 5.57029 12.1915 5.76318 11.75H6.5C6.77614 11.75 7 11.5261 7 11.25C7 10.9739 6.77614 10.75 6.5 10.75H5.76318C5.57029 10.3085 5.12977 10 4.61719 10ZM4.36719 11.25C4.36719 11.1119 4.47912 11 4.61719 11C4.75526 11 4.86719 11.1119 4.86719 11.25C4.86719 11.3881 4.75526 11.5 4.61719 11.5C4.47912 11.5 4.36719 11.3881 4.36719 11.25Z" fill="#00164E"/>
<path fill-rule="evenodd" clip-rule="evenodd" d="M8.36719 14.25C8.36719 13.5596 8.92683 13 9.61719 13C10.1298 13 10.5703 13.3085 10.7632 13.75H17.1567C17.3496 13.3085 17.7902 13 18.3027 13C18.9931 13 19.5527 13.5596 19.5527 14.25C19.5527 14.9404 18.9931 15.5 18.3027 15.5C17.7902 15.5 17.3496 15.1915 17.1567 14.75H10.7632C10.5703 15.1915 10.1298 15.5 9.61719 15.5C8.92683 15.5 8.36719 14.9404 8.36719 14.25ZM9.61719 14C9.47912 14 9.36719 14.1119 9.36719 14.25C9.36719 14.3881 9.47912 14.5 9.61719 14.5C9.75526 14.5 9.86719 14.3881 9.86719 14.25C9.86719 14.1119 9.75526 14 9.61719 14ZM18.0527 14.25C18.0527 14.1119 18.1647 14 18.3027 14C18.4408 14 18.5527 14.1119 18.5527 14.25C18.5527 14.3881 18.4408 14.5 18.3027 14.5C18.1647 14.5 18.0527 14.3881 18.0527 14.25Z" fill="#00164E"/>
<path fill-rule="evenodd" clip-rule="evenodd" d="M11.7916 7C10.1482 7 8.72612 8.14337 8.37322 9.74842L8.01812 11.3635C7.16926 11.8253 6.56394 12.6865 6.46433 13.7092L6.10926 17.3546C6.06586 17.8001 6.2213 18.2155 6.5 18.5174V19.5C6.5 20.3284 7.17157 21 8 21H9C9.82843 21 10.5 20.3284 10.5 19.5V19H17.5V19.5C17.5 20.3284 18.1716 21 19 21H20C20.8284 21 21.5 20.3284 21.5 19.5V18.5176C21.7788 18.2156 21.9343 17.8002 21.8909 17.3546L21.5358 13.7092C21.4362 12.6865 20.8308 11.8253 19.982 11.3635L19.6269 9.74842C19.274 8.14337 17.8519 7 16.2085 7H11.7916ZM9 20C9.27614 20 9.5 19.7761 9.5 19.5V19H7.5V19.5C7.5 19.7761 7.72386 20 8 20H9ZM7.10454 17.4515C7.07592 17.7454 7.30689 18 7.60219 18H20.3979C20.6932 18 20.9242 17.7454 20.8956 17.4515L20.5405 13.8061C20.4407 12.7815 19.5794 12 18.5499 12H9.4502C8.42072 12 7.55942 12.7815 7.45962 13.8061L7.10454 17.4515ZM19 20C18.7239 20 18.5 19.7761 18.5 19.5V19H20.5V19.5C20.5 19.7761 20.2761 20 20 20H19ZM9.34989 9.96316L9.12193 11H18.8782L18.6502 9.96316C18.3981 8.81669 17.3824 8 16.2085 8H11.7916C10.6177 8 9.60196 8.81669 9.34989 9.96316Z" fill="#00164E"/>
</svg>
