<svg width="24" height="24" viewBox="0 0 24 24" fill="none" xmlns="http://www.w3.org/2000/svg">
<path fill-rule="evenodd" clip-rule="evenodd" d="M9.5 4.5C8.67157 4.5 8 5.17157 8 6C8 6.82843 8.67157 7.5 9.5 7.5H11.5C12.3284 7.5 13 6.82843 13 6C13 5.17157 12.3284 4.5 11.5 4.5H9.5ZM9 6C9 5.72386 9.22386 5.5 9.5 5.5H11.5C11.7761 5.5 12 5.72386 12 6C12 6.27614 11.7761 6.5 11.5 6.5H9.5C9.22386 6.5 9 6.27614 9 6Z" fill="#00164E"/>
<path fill-rule="evenodd" clip-rule="evenodd" d="M6 4.5C6 3.11929 7.11929 2 8.5 2H15.5C16.8807 2 18 3.11929 18 4.5V19.5C18 20.8807 16.8807 22 15.5 22H8.5C7.11929 22 6 20.8807 6 19.5V4.5ZM17 19.5C17 20.1531 16.5826 20.7087 16 20.9146V20.5C16 19.6716 15.3284 19 14.5 19H9.5C8.67157 19 8 19.6716 8 20.5V20.9146C7.4174 20.7087 7 20.1531 7 19.5V4.5C7 3.67157 7.67157 3 8.5 3H15.5C16.3284 3 17 3.67157 17 4.5V19.5ZM15 21H9V20.5C9 20.2239 9.22386 20 9.5 20H14.5C14.7761 20 15 20.2239 15 20.5V21Z" fill="#00164E"/>
</svg>
