<svg width="24" height="24" viewBox="0 0 24 24" fill="none" xmlns="http://www.w3.org/2000/svg">
<path fill-rule="evenodd" clip-rule="evenodd" d="M16.5 19C14.567 19 13 17.433 13 15.5C13 13.567 14.567 12 16.5 12C18.433 12 20 13.567 20 15.5C20 17.433 18.433 19 16.5 19ZM16.5 18C15.1193 18 14 16.8807 14 15.5C14 14.1193 15.1193 13 16.5 13C17.8807 13 19 14.1193 19 15.5C19 16.8807 17.8807 18 16.5 18Z" fill="#00164E"/>
<path fill-rule="evenodd" clip-rule="evenodd" d="M12.9662 4.93147C14.1052 5.50094 15 6.38016 15 7.5V10.207C15.4768 10.0722 15.98 10 16.5 10C19.5376 10 22 12.4624 22 15.5C22 18.5376 19.5376 21 16.5 21C13.8783 21 11.685 19.1656 11.1336 16.7103C10.3277 16.8971 9.4357 17 8.5 17C6.78235 17 5.2026 16.653 4.03375 16.0685C2.89481 15.4991 2 14.6198 2 13.5V7.5C2 6.38016 2.89481 5.50094 4.03375 4.93147C5.2026 4.34704 6.78235 4 8.5 4C10.2176 4 11.7974 4.34704 12.9662 4.93147ZM3 7.5C3 6.96299 3.44833 6.34221 4.48097 5.82589C5.48369 5.32453 6.90394 5 8.5 5C10.0961 5 11.5163 5.32453 12.519 5.82589C13.5517 6.34221 14 6.96299 14 7.5C14 8.03701 13.5517 8.65779 12.519 9.17411C11.5163 9.67547 10.0961 10 8.5 10C6.90394 10 5.48369 9.67547 4.48097 9.17411C3.44833 8.65779 3 8.03701 3 7.5ZM12.9662 10.0685C13.346 9.87865 13.6986 9.65433 14 9.39813V10.5C14 10.5325 14.0031 10.5643 14.009 10.5951C13.1726 11.0207 12.4596 11.654 11.9379 12.427C10.9966 12.7827 9.80554 13 8.5 13C6.90394 13 5.48369 12.6755 4.48097 12.1741C3.44833 11.6578 3 11.037 3 10.5V9.39813C3.30136 9.65433 3.65399 9.87865 4.03375 10.0685C5.2026 10.653 6.78235 11 8.5 11C10.2176 11 11.7974 10.653 12.9662 10.0685ZM11 15.5C11 15.5714 11.0014 15.6425 11.0041 15.7133C10.2532 15.896 9.40331 16 8.5 16C6.90394 16 5.48369 15.6755 4.48097 15.1741C3.44833 14.6578 3 14.037 3 13.5V12.3981C3.30136 12.6543 3.65399 12.8787 4.03375 13.0685C5.2026 13.653 6.78235 14 8.5 14C9.50423 14 10.4597 13.8814 11.3128 13.667C11.1102 14.2403 11 14.8573 11 15.5ZM16.5 11C14.0147 11 12 13.0147 12 15.5C12 17.9853 14.0147 20 16.5 20C18.9853 20 21 17.9853 21 15.5C21 13.0147 18.9853 11 16.5 11Z" fill="#00164E"/>
</svg>
