<svg width="24" height="24" viewBox="0 0 24 24" fill="none" xmlns="http://www.w3.org/2000/svg">
<path fill-rule="evenodd" clip-rule="evenodd" d="M10 5.5C9.72386 5.5 9.5 5.72386 9.5 6V8.5L7 8.5C6.86739 8.5 6.74021 8.55268 6.64645 8.64645C6.55268 8.74021 6.5 8.86739 6.5 9V13C6.5 13.2761 6.72386 13.5 7 13.5H9.5V16C9.5 16.2761 9.72386 16.5 10 16.5H14C14.2761 16.5 14.5 16.2761 14.5 16V13.5H17C17.2761 13.5 17.5 13.2761 17.5 13V9C17.5 8.72386 17.2761 8.5 17 8.5H14.5V6C14.5 5.72386 14.2761 5.5 14 5.5H10ZM10.3536 9.35355C10.4473 9.25979 10.5 9.13261 10.5 9V6.5H13.5V9C13.5 9.27614 13.7239 9.5 14 9.5H16.5V12.5H14C13.7239 12.5 13.5 12.7239 13.5 13V15.5H10.5V13C10.5 12.7239 10.2761 12.5 10 12.5H7.5V9.5L10 9.5C10.1326 9.5 10.2598 9.44732 10.3536 9.35355Z" fill="#00164E"/>
<path fill-rule="evenodd" clip-rule="evenodd" d="M19.9904 2.72824C14.7078 1.75725 9.29235 1.75725 4.00967 2.72824C3.79039 2.76855 3.62429 2.94916 3.60246 3.17105L3.0527 8.75865C2.74101 11.644 3.45126 14.5474 5.0598 16.963C6.6688 19.3794 9.0746 21.1546 11.858 21.9794C11.9507 22.0069 12.0494 22.0069 12.1421 21.9794C14.9255 21.1546 17.3313 19.3794 18.9403 16.963C20.5489 14.5474 21.2591 11.644 20.9474 8.75863L20.9472 8.75621L20.3977 3.17105C20.3758 2.94916 20.2097 2.76855 19.9904 2.72824ZM4.04766 8.85896L4.56062 3.64539C9.48291 2.78487 14.5172 2.78487 19.4395 3.64539L19.9524 8.85897L19.953 8.8638C20.2401 11.5172 19.5872 14.1873 18.108 16.4088C16.6562 18.5891 14.4988 20.2016 12.0001 20.9775C9.50136 20.2016 7.34395 18.5891 5.89216 16.4088C4.41292 14.1873 3.76 11.5172 4.04716 8.8638L4.04766 8.85896Z" fill="#00164E"/>
</svg>
