<svg width="24" height="24" viewBox="0 0 24 24" fill="none" xmlns="http://www.w3.org/2000/svg">
<path d="M4.5 2C3.11929 2 2 3.11929 2 4.5V19.5C2 20.8807 3.11929 22 4.5 22H11.5C12.8807 22 14 20.8807 14 19.5V18C14 17.7239 13.7761 17.5 13.5 17.5C13.2239 17.5 13 17.7239 13 18V19.5C13 20.3284 12.3284 21 11.5 21H4.5C3.67157 21 3 20.3284 3 19.5V4.5C3 3.67157 3.67157 3 4.5 3H11.5C12.3284 3 13 3.67157 13 4.5V6C13 6.27614 13.2239 6.5 13.5 6.5C13.7761 6.5 14 6.27614 14 6V4.5C14 3.11929 12.8807 2 11.5 2H4.5Z" fill="#00164E"/>
<path d="M9 18.5C9 19.0523 8.55228 19.5 8 19.5C7.44772 19.5 7 19.0523 7 18.5C7 17.9477 7.44772 17.5 8 17.5C8.55228 17.5 9 17.9477 9 18.5Z" fill="#00164E"/>
<path d="M17.7035 5.13791C18.0553 5.1178 18.4073 5.17228 18.7365 5.29776C19.0658 5.42325 19.3648 5.61692 19.6139 5.86607C19.8631 6.11522 20.0568 6.41421 20.1822 6.74346C20.3077 7.0727 20.3622 7.42475 20.3421 7.77652C20.322 8.12829 20.2277 8.47184 20.0655 8.78464C19.908 9.0885 19.6898 9.35668 19.4245 9.57264L16.6313 12.3659C16.1634 12.8277 15.5324 13.0866 14.875 13.0866C14.2176 13.0866 13.5866 12.8277 13.1188 12.3658C12.9222 12.1719 12.9202 11.8553 13.1142 11.6588C13.3081 11.4622 13.6247 11.4602 13.8213 11.6542C14.102 11.9313 14.4806 12.0866 14.875 12.0866C15.2689 12.0866 15.647 11.9317 15.9277 11.6552L18.7364 8.84645C18.7499 8.83299 18.7641 8.8203 18.779 8.80846C18.9446 8.67698 19.0805 8.512 19.1778 8.32432C19.2751 8.13664 19.3317 7.93051 19.3437 7.71945C19.3558 7.50838 19.3231 7.29715 19.2478 7.09961C19.1725 6.90206 19.0563 6.72266 18.9068 6.57317C18.7573 6.42369 18.5779 6.30749 18.3804 6.23219C18.1829 6.1569 17.9716 6.12421 17.7606 6.13628C17.5495 6.14835 17.3434 6.20489 17.1557 6.30221C16.968 6.39952 16.803 6.53541 16.6715 6.70096C16.66 6.71552 16.6476 6.72943 16.6345 6.74261L14.7645 8.62261C14.5698 8.81839 14.2532 8.81924 14.0574 8.6245C13.8616 8.42976 13.8608 8.11318 14.0555 7.91739L15.9069 6.05608C16.123 5.79055 16.3913 5.57212 16.6954 5.41445C17.0082 5.25226 17.3517 5.15802 17.7035 5.13791Z" fill="#00164E"/>
<path d="M13.465 9.53337C12.8076 9.53337 12.1766 9.79233 11.7087 10.2542L8.89644 13.0665C8.88298 13.0799 8.8703 13.0941 8.85845 13.109C8.47678 13.5896 8.28521 14.1938 8.32024 14.8065C8.35527 15.4192 8.61444 15.9976 9.0484 16.4316C9.48235 16.8656 10.0608 17.1247 10.6735 17.1598C11.2862 17.1948 11.8904 17.0032 12.371 16.6215C12.3855 16.61 12.3994 16.5976 12.4126 16.5845L14.2926 14.7145C14.4884 14.5198 14.4892 14.2032 14.2945 14.0074C14.0998 13.8116 13.7832 13.8108 13.5874 14.0055L11.7286 15.8544C11.4437 16.0728 11.0895 16.1819 10.7306 16.1614C10.3629 16.1404 10.0159 15.9849 9.7555 15.7245C9.49513 15.4641 9.33962 15.1171 9.31861 14.7494C9.2981 14.3907 9.40708 14.0367 9.62522 13.7519L12.4123 10.9648C12.6929 10.6883 13.071 10.5334 13.465 10.5334C13.8594 10.5334 14.238 10.6887 14.5187 10.9658C14.7153 11.1598 15.0318 11.1578 15.2258 10.9613C15.4198 10.7647 15.4178 10.4482 15.2212 10.2542C14.7534 9.79233 14.1224 9.53337 13.465 9.53337Z" fill="#00164E"/>
</svg>
