<svg width="24" height="24" viewBox="0 0 24 24" fill="none" xmlns="http://www.w3.org/2000/svg">
<path fill-rule="evenodd" clip-rule="evenodd" d="M12.0001 19.2201C9.90552 18.4763 8.12562 17.0432 6.95198 15.1555C5.77834 13.2679 5.28051 11.0376 5.54009 8.83008L5.94011 4.83008C7.94702 4.53899 9.9722 4.392 12.0001 4.39014C14.028 4.392 16.0532 4.53899 18.0601 4.83008L18.4601 8.90015C18.6833 11.0936 18.1694 13.2989 16.9995 15.1677C15.8297 17.0366 14.0706 18.4624 12.0001 19.2201ZM12 7.3501C12.2762 7.3501 12.5001 7.57396 12.5001 7.8501V10.3501H15.0001C15.2762 10.3501 15.5001 10.574 15.5001 10.8501C15.5001 11.1262 15.2762 11.3501 15.0001 11.3501H12.5001V13.8501C12.5001 14.1262 12.2762 14.3501 12 14.3501C11.7239 14.3501 11.5 14.1262 11.5 13.8501V11.3501H9.00005C8.72391 11.3501 8.50005 11.1262 8.50005 10.8501C8.50005 10.574 8.72391 10.3501 9.00005 10.3501H11.5V7.8501C11.5 7.57396 11.7239 7.3501 12 7.3501Z" fill="#00164E"/>
<path fill-rule="evenodd" clip-rule="evenodd" d="M19.9905 2.57834C14.7078 1.60735 9.29234 1.60735 4.00966 2.57834C3.79038 2.61865 3.62428 2.79926 3.60245 3.02115L3.0527 8.60884C2.74101 11.4942 3.45128 14.3975 5.05982 16.8132C6.66882 19.2295 9.07461 21.0047 11.858 21.8295C11.9507 21.857 12.0494 21.857 12.1421 21.8295C14.9255 21.0047 17.3313 19.2295 18.9403 16.8132C20.5489 14.3975 21.2591 11.4942 20.9474 8.6088L20.9471 8.60639L20.3977 3.02115C20.3758 2.79926 20.2097 2.61865 19.9905 2.57834ZM4.04766 8.70915L4.56061 3.49549C9.48289 2.63497 14.5172 2.63497 19.4395 3.49549L19.9524 8.70915L19.953 8.71399C20.2401 11.3674 19.5872 14.0374 18.108 16.2589C16.6562 18.4392 14.4988 20.0517 12.0001 20.8276C9.50137 20.0517 7.34397 18.4392 5.89217 16.2589C4.41293 14.0374 3.76 11.3674 4.04716 8.71399L4.04766 8.70915Z" fill="#00164E"/>
</svg>
