<svg width="24" height="24" viewBox="0 0 24 24" fill="none" xmlns="http://www.w3.org/2000/svg">
<path fill-rule="evenodd" clip-rule="evenodd" d="M5.01904 6.1076C4.69941 6.46171 4.44301 6.88625 4.26714 7.35793C4.09115 7.82992 4 8.33805 4 8.85234C4 9.36662 4.09114 9.87459 4.26714 10.3466C4.44312 10.8186 4.69974 11.2434 5.01965 11.5976C5.20473 11.8025 5.18863 12.1187 4.98369 12.3038C4.77875 12.4889 4.46257 12.4728 4.2775 12.2678C3.86965 11.8162 3.54848 11.2815 3.33015 10.696C3.11183 10.1104 3 9.48403 3 8.85234C3 8.22067 3.11183 7.5941 3.33015 7.00856C3.54848 6.42302 3.86965 5.88831 4.2775 5.4367L4.27872 5.43534C5.10857 4.52315 6.23772 4 7.42706 4C8.61604 4 9.74487 4.52284 10.5746 5.43453L10.5754 5.43534L12 6.98783L13.4247 5.43534L13.4254 5.4345C14.2552 4.52283 15.384 4 16.573 4C17.7624 4 18.8914 4.52316 19.7213 5.43534L19.7225 5.4367C20.1303 5.88831 20.4515 6.42302 20.6698 7.00856C20.8882 7.5941 21 8.22067 21 8.85234C21 9.48403 20.8882 10.1104 20.6698 10.696C20.4515 11.2815 20.1303 11.8162 19.7225 12.2678C19.5374 12.4728 19.2213 12.4889 19.0163 12.3038C18.8114 12.1187 18.7953 11.8025 18.9803 11.5976C19.3003 11.2434 19.5569 10.8186 19.7329 10.3466C19.9089 9.87459 20 9.36662 20 8.85234C20 8.33805 19.9088 7.82992 19.7329 7.35793C19.557 6.88623 19.3006 6.46169 18.9809 6.10757C18.3278 5.38997 17.4618 5 16.573 5C15.6839 5 14.8176 5.39023 14.1644 6.10828L14.1629 6.10987L12.3684 8.06541C12.2737 8.1686 12.1401 8.22735 12 8.22735C11.86 8.22735 11.7263 8.1686 11.6316 8.06541L9.83569 6.10828C9.18246 5.39023 8.31617 5 7.42706 5C6.53823 5 5.6722 5.38999 5.01904 6.1076ZM17.1982 14.1419C17.396 14.3347 17.4001 14.6512 17.2073 14.849L12.3342 19.849C12.2398 19.9457 12.1104 20.0002 11.9753 20C11.8402 19.9998 11.7109 19.9449 11.6169 19.8478L6.88733 14.9635C6.69523 14.7651 6.70033 14.4486 6.89871 14.2565C7.09708 14.0644 7.41363 14.0695 7.60572 14.2678L11.9773 18.7824L16.4912 14.151C16.6839 13.9533 17.0005 13.9492 17.1982 14.1419Z" fill="#00164E"/>
<path fill-rule="evenodd" clip-rule="evenodd" d="M15.3047 7.5C15.4932 7.50062 15.6653 7.60721 15.7499 7.7757L18.3721 13H20.7C20.9761 13 21.2 13.2239 21.2 13.5C21.2 13.7761 20.9761 14 20.7 14H18.0636C17.8745 14 17.7016 13.8933 17.6168 13.7243L15.2994 9.10742L12.6878 14.2272C12.615 14.37 12.4781 14.4692 12.3197 14.494C12.1613 14.5188 12.0007 14.4661 11.8877 14.3524L8.66774 11.1106L5.96187 13.8513C5.86792 13.9464 5.73978 14 5.60606 14H3.5C3.22386 14 3 13.7761 3 13.5C3 13.2239 3.22386 13 3.5 13H5.39708L8.31086 10.0487C8.40462 9.95375 8.53246 9.9002 8.66591 9.9C8.79937 9.8998 8.92736 9.95296 9.02141 10.0476L12.1107 13.1579L14.8576 7.7728C14.9433 7.60487 15.1161 7.49939 15.3047 7.5Z" fill="#00164E"/>
</svg>
