<svg width="24" height="24" viewBox="0 0 24 24" fill="none" xmlns="http://www.w3.org/2000/svg">
<path fill-rule="evenodd" clip-rule="evenodd" d="M9.99992 2.5C9.72378 2.5 9.49992 2.72386 9.49992 3V5.5L6.99992 5.5C6.86731 5.5 6.74014 5.55268 6.64637 5.64645C6.5526 5.74021 6.49992 5.86739 6.49992 6V10C6.49992 10.2761 6.72378 10.5 6.99992 10.5H9.49992V13C9.49992 13.2761 9.72378 13.5 9.99992 13.5H13.9999C14.2761 13.5 14.4999 13.2761 14.4999 13V10.5H16.9999C17.2761 10.5 17.4999 10.2761 17.4999 10V6C17.4999 5.72386 17.2761 5.5 16.9999 5.5L14.4999 5.5V3C14.4999 2.72386 14.2761 2.5 13.9999 2.5H9.99992ZM10.3535 6.35355C10.4472 6.25978 10.4999 6.13261 10.4999 6V3.5H13.4999V6C13.4999 6.27614 13.7238 6.5 13.9999 6.5L16.4999 6.5V9.5H13.9999C13.7238 9.5 13.4999 9.72386 13.4999 10V12.5H10.4999V10C10.4999 9.72386 10.2761 9.5 9.99992 9.5H7.49992V6.5L9.99992 6.5C10.1325 6.5 10.2597 6.44732 10.3535 6.35355Z" fill="#00164E"/>
<path d="M8.00686 21.4318C8.21427 21.2495 8.23462 20.9336 8.05232 20.7262L4.36565 16.5318C4.02531 16.1446 3.80245 15.6684 3.7232 15.159L2.86853 9.66546C2.82561 9.38963 3.01443 9.13123 3.29026 9.08832C3.56609 9.04541 3.82448 9.23423 3.8674 9.51006L4.55834 13.9512C4.56955 14.0233 4.59566 14.0894 4.63304 14.1468C4.54465 14.6352 4.71569 15.1603 5.13864 15.4987L7.15725 17.1137C7.37288 17.2862 7.68753 17.2512 7.86004 17.0356C8.03255 16.82 7.9976 16.5053 7.78197 16.3328L5.76336 14.7178C5.56819 14.5617 5.55828 14.2682 5.74248 14.0993C5.88563 13.968 6.10156 13.9559 6.2584 14.0706L9.68821 16.577C9.92489 16.7499 10.0832 17.0098 10.1282 17.2995L10.6409 20.5951C10.6834 20.8679 10.939 21.0547 11.2118 21.0123C11.4847 20.9698 11.6715 20.7142 11.629 20.4414L11.1163 17.1458C11.0305 16.594 10.729 16.099 10.2782 15.7696L6.84842 13.2632C6.43082 12.958 5.89192 12.9128 5.4404 13.1158L4.85551 9.35633C4.7277 8.53478 3.95809 7.9724 3.13654 8.10021C2.31499 8.22802 1.7526 8.99763 1.88041 9.81919L2.73508 15.3127C2.84357 16.01 3.14865 16.6619 3.61455 17.192L7.30122 21.3863C7.48352 21.5938 7.79945 21.6141 8.00686 21.4318Z" fill="#00164E"/>
<path d="M15.9915 21.4318C15.7841 21.2495 15.7638 20.9336 15.9461 20.7262L19.6327 16.5318C19.9731 16.1446 20.1959 15.6684 20.2752 15.159L21.1299 9.66546C21.1728 9.38963 20.9839 9.13123 20.7081 9.08832C20.4323 9.04541 20.1739 9.23423 20.131 9.51006L19.44 13.9512C19.4288 14.0233 19.4027 14.0894 19.3653 14.1468C19.4537 14.6352 19.2827 15.1603 18.8597 15.4987L16.8411 17.1137C16.6255 17.2862 16.3109 17.2512 16.1383 17.0356C15.9658 16.82 16.0008 16.5053 16.2164 16.3328L18.235 14.7178C18.4302 14.5617 18.4401 14.2682 18.2559 14.0993C18.1127 13.968 17.8968 13.9559 17.74 14.0706L14.3102 16.577C14.0735 16.7499 13.9152 17.0098 13.8701 17.2995L13.3575 20.5951C13.315 20.8679 13.0594 21.0547 12.7865 21.0123C12.5137 20.9698 12.3269 20.7142 12.3693 20.4414L12.882 17.1458C12.9679 16.594 13.2693 16.099 13.7202 15.7696L17.15 13.2632C17.5676 12.958 18.1065 12.9128 18.558 13.1158L19.1429 9.35633C19.2707 8.53478 20.0403 7.9724 20.8618 8.10021C21.6834 8.22802 22.2458 8.99763 22.118 9.81919L21.2633 15.3127C21.1548 16.01 20.8497 16.6619 20.3838 17.192L16.6972 21.3863C16.5149 21.5938 16.1989 21.6141 15.9915 21.4318Z" fill="#00164E"/>
</svg>
