<svg width="24" height="24" viewBox="0 0 24 24" fill="none" xmlns="http://www.w3.org/2000/svg">
<path fill-rule="evenodd" clip-rule="evenodd" d="M18.5577 11.1302C19.0143 9.95221 19.1227 8.66783 18.8699 7.43001C18.6019 6.11778 17.9535 4.91348 17.0055 3.9674C16.0592 3.02307 14.8563 2.37769 13.5464 2.11143C12.5467 1.87941 11.5079 1.87201 10.5049 2.0898C9.4995 2.3081 8.55521 2.74722 7.74039 3.37535C6.92556 4.00349 6.26059 4.80493 5.7936 5.72167C5.32661 6.63841 5.06912 7.64751 5.04009 8.67593L5.04006 8.68883C5.0375 9.74689 5.28858 10.7901 5.77227 11.7312C6.25517 12.6707 6.95588 13.4809 7.81582 14.0943C7.84014 14.113 7.89786 14.1787 7.95151 14.3573C8.00393 14.5318 8.03568 14.7581 8.0509 15.0191C8.07176 15.3768 8.06058 15.7218 8.05043 16.0354C8.0451 16.1998 8.04006 16.3556 8.04006 16.5V18.5C8.04006 18.6355 8.09504 18.7652 8.19241 18.8594C8.64729 19.2995 9.16284 19.8224 9.68398 20.3511L9.68674 20.3539C10.2047 20.8793 10.7281 21.4103 11.1924 21.8594C11.2857 21.9496 11.4103 22 11.5401 22H12.5401C12.6698 22 12.7945 21.9496 12.8877 21.8594C13.3517 21.4105 13.8748 20.8799 14.3924 20.3548L14.3961 20.3511C14.9173 19.8224 15.4328 19.2995 15.8877 18.8594C15.9851 18.7652 16.0401 18.6355 16.0401 18.5V16.5C16.0401 16.3682 16.0364 16.2252 16.0325 16.0743C16.024 15.7458 16.0145 15.3799 16.0401 15.0109C16.0582 14.7498 16.0928 14.5232 16.1479 14.3477C16.2047 14.1668 16.2657 14.0958 16.2962 14.0729C17.3164 13.3289 18.1014 12.3075 18.5577 11.1302ZM10.7171 3.06702C11.5776 2.88017 12.4689 2.88699 13.3265 3.08697L13.341 3.09013C14.4613 3.31658 15.4901 3.86786 16.2991 4.67523C17.1081 5.48258 17.6614 6.51026 17.8902 7.63007C18.1046 8.68006 18.0126 9.76954 17.6253 10.7688C17.238 11.768 16.5716 12.6348 15.7056 13.266L15.7032 13.2677C15.4285 13.4704 15.28 13.7734 15.1938 14.0483C15.1054 14.33 15.0631 14.644 15.0425 14.9417C15.041 14.9631 15.0396 14.9845 15.0384 15.0061C15.0129 15.0021 14.9867 15 14.96 15H12.5V10C12.5 9.93364 12.4871 9.87029 12.4636 9.81235L14.0159 8.93533C14.2564 8.79949 14.3411 8.49448 14.2053 8.25405C14.0695 8.01363 13.7645 7.92884 13.524 8.06467L12 8.92572L10.4759 8.06467C10.2355 7.92884 9.93049 8.01363 9.79465 8.25405C9.65882 8.49448 9.74361 8.79949 9.98403 8.93533L11.5364 9.81237C11.5129 9.87031 11.5 9.93364 11.5 10V15H9.05136L9.04921 14.9609C9.03193 14.6645 8.99368 14.3508 8.90923 14.0696C8.8271 13.7963 8.68237 13.4896 8.40577 13.2868L8.40009 13.2828C7.66841 12.7617 7.07229 12.0729 6.66166 11.274C6.25202 10.4771 6.0389 9.59371 6.04004 8.69769C6.06578 7.81969 6.28593 6.9583 6.68465 6.17557C7.08435 5.39093 7.65351 4.70497 8.35092 4.16734C9.04833 3.62972 9.85656 3.25388 10.7171 3.06702ZM10.393 19.6458L10.3961 19.649C10.8628 20.1224 11.325 20.5912 11.7431 21H12.337C12.7551 20.5912 13.2173 20.1224 13.684 19.649L13.687 19.6459C13.9003 19.4296 14.1147 19.2121 14.3253 19H9.75483C9.96544 19.2121 10.1797 19.4295 10.393 19.6458ZM16.2962 14.0729L16.2945 14.0741L16.0001 13.67L16.2962 14.0729ZM9.55005 18V16H14.46V18H9.55005Z" fill="#00164E"/>
</svg>
