<svg width="24" height="24" viewBox="0 0 24 24" fill="none" xmlns="http://www.w3.org/2000/svg">
<path fill-rule="evenodd" clip-rule="evenodd" d="M17 20C17 20.5523 16.5523 21 16 21H7V4H16C16.5523 4 17 4.44772 17 5V7.5C17 7.77614 17.2239 8 17.5 8C17.7761 8 18 7.77614 18 7.5V5C18 3.89543 17.1046 3 16 3H6C4.89543 3 4 3.89543 4 5V20C4 21.1046 4.89543 22 6 22H16C17.1046 22 18 21.1046 18 20V17.75C18 17.4739 17.7761 17.25 17.5 17.25C17.2239 17.25 17 17.4739 17 17.75V20ZM5 5C5 4.44772 5.44772 4 6 4V21C5.44772 21 5 20.5523 5 20V5Z" fill="#00164E"/>
<path fill-rule="evenodd" clip-rule="evenodd" d="M19.99 8.05078C19.7102 8.05078 19.4332 8.10617 19.1749 8.21375C18.9174 8.32097 18.6837 8.47793 18.487 8.67562L10.1488 16.9039C10.0536 16.9978 10 17.126 10 17.2598V19.6198C10 19.8959 10.2239 20.1198 10.5 20.1198H12.86C12.9926 20.1198 13.1198 20.0671 13.2136 19.9733L21.4932 11.6936C21.6918 11.4958 21.8493 11.2608 21.9568 11.002C22.0644 10.743 22.1198 10.4653 22.1198 10.1848C22.1198 9.90429 22.0644 9.62659 21.9568 9.36759C21.8494 9.10905 21.6921 8.87423 21.4939 8.67654C21.297 8.47842 21.063 8.32114 20.8051 8.21375C20.5468 8.10617 20.2698 8.05078 19.99 8.05078ZM20.7851 9.38194L21.14 9.02977L20.7872 9.38407C20.8926 9.48906 20.9763 9.61384 21.0334 9.75125C21.0905 9.88867 21.1198 10.036 21.1198 10.1848C21.1198 10.3336 21.0905 10.4809 21.0334 10.6183C20.9763 10.7557 20.8926 10.8805 20.7872 10.9855L20.7864 10.9862L20.3053 11.4673L18.7042 9.86625L19.1912 9.38569L19.1949 9.38194C19.299 9.27701 19.4229 9.19372 19.5594 9.13688C19.6958 9.08004 19.8422 9.05078 19.99 9.05078C20.1378 9.05078 20.2842 9.08004 20.4206 9.13688C20.5571 9.19371 20.6809 9.277 20.7851 9.38194ZM17.9924 10.5687L19.5982 12.1745L12.6529 19.1198H12.6179L11 17.5019V17.4688L17.9924 10.5687ZM11.2037 19.1198L11 18.9161V19.1198H11.2037Z" fill="#00164E"/>
<path fill-rule="evenodd" clip-rule="evenodd" d="M8.5 6C8.22386 6 8 6.22386 8 6.5V9.5C8 9.77614 8.22386 10 8.5 10H15.5C15.7761 10 16 9.77614 16 9.5V6.5C16 6.22386 15.7761 6 15.5 6H8.5ZM9 9V7H15V9H9Z" fill="#00164E"/>
</svg>
