<svg width="24" height="24" viewBox="0 0 24 24" fill="none" xmlns="http://www.w3.org/2000/svg">
<path d="M11.0567 12.1317C11.3692 12.1317 11.5772 12.1414 11.6807 12.1609C11.8213 12.1863 11.9375 12.2498 12.0293 12.3514C12.1211 12.4529 12.167 12.5818 12.167 12.7381C12.167 12.8651 12.1338 12.9764 12.0674 13.0721C12.0029 13.1678 11.9131 13.2381 11.7979 13.283C11.6826 13.3279 11.4541 13.3504 11.1123 13.3504H10.6377V12.1317H11.0567Z" fill="#00164E"/>
<path fill-rule="evenodd" clip-rule="evenodd" d="M4 11C4 10.4477 4.44772 10 5 10V3.5C5 2.67157 5.67157 2 6.5 2H14.0858C14.4836 2 14.8651 2.15804 15.1464 2.43934L18.5607 5.85355C18.842 6.13486 19 6.51639 19 6.91421V10C19.5523 10 20 10.4477 20 11V16C20 16.5523 19.5523 17 19 17V20.5C19 21.3284 18.3284 22 17.5 22H6.5C5.67157 22 5 21.3284 5 20.5V17C4.44772 17 4 16.5523 4 16V11ZM6.5 3C6.22386 3 6 3.22386 6 3.5V10H18V7H14.7C14.3134 7 14 6.6866 14 6.3V3H6.5ZM6 15.1193C6.05285 15.2334 6.12031 15.3332 6.20239 15.4188C6.43091 15.6551 6.75708 15.7733 7.18091 15.7733C7.54224 15.7733 7.83325 15.6981 8.05396 15.5477C8.27466 15.3953 8.427 15.1942 8.51099 14.9442C8.57349 14.7527 8.60474 14.4793 8.60474 14.1238V11.4051H7.74048V14.1795C7.74048 14.5272 7.70044 14.7567 7.62036 14.868C7.54028 14.9774 7.40356 15.032 7.21021 15.032C7.0188 15.032 6.87622 14.9549 6.78247 14.8006C6.71997 14.699 6.68384 14.5252 6.67407 14.2791L6 14.3564V15.1193ZM6 20.5C6 20.7761 6.22386 21 6.5 21H17.5C17.7761 21 18 20.7761 18 20.5V17H6V20.5ZM15 3.70711L17.2929 6H15V3.70711ZM17.0037 14.6658C16.8728 14.7674 16.7156 14.8543 16.532 14.9266C16.3504 14.9969 16.1687 15.032 15.9871 15.032C15.6199 15.032 15.323 14.9051 15.0965 14.6512C14.8699 14.3953 14.7566 14.0125 14.7566 13.5027C14.7566 13.0301 14.8679 12.6736 15.0906 12.4334C15.3152 12.1932 15.617 12.0731 15.9959 12.0731C16.2459 12.0731 16.4539 12.1346 16.6199 12.2576C16.7879 12.3787 16.9021 12.5447 16.9627 12.7557L17.824 12.5945C17.7381 12.2 17.5447 11.8914 17.2439 11.6688C16.9451 11.4442 16.5291 11.3318 15.9959 11.3318C15.5857 11.3318 15.2429 11.4031 14.9675 11.5457C14.6062 11.7313 14.3318 11.9979 14.1443 12.3455C13.9568 12.6932 13.8631 13.0906 13.8631 13.5379C13.8631 13.95 13.947 14.3318 14.115 14.6834C14.283 15.033 14.534 15.3026 14.8679 15.492C15.2019 15.6795 15.5935 15.7733 16.0427 15.7733C16.3963 15.7733 16.7449 15.7068 17.0886 15.574C17.4343 15.4393 17.698 15.284 17.8797 15.1082V13.3973H16.0105V14.1209H17.0037V14.6658ZM11.1621 11.4051C11.6895 11.4051 12.0332 11.4266 12.1934 11.4695C12.4395 11.534 12.6455 11.6746 12.8115 11.8914C12.9775 12.1063 13.0606 12.3846 13.0606 12.7264C13.0606 12.9901 13.0127 13.2117 12.917 13.3914C12.8213 13.5711 12.6992 13.7127 12.5508 13.8162C12.4043 13.9178 12.2549 13.9852 12.1025 14.0184C11.8955 14.0594 11.5957 14.0799 11.2031 14.0799H10.6377V15.7H9.77052V11.4051H11.1621Z" fill="#00164E"/>
</svg>
