<svg width="24" height="24" viewBox="0 0 24 24" fill="none" xmlns="http://www.w3.org/2000/svg">
<path d="M6.5 5C6.5 4.72386 6.72386 4.5 7 4.5H8.5C8.77614 4.5 9 4.72386 9 5C9 5.27614 8.77614 5.5 8.5 5.5H7C6.72386 5.5 6.5 5.27614 6.5 5Z" fill="#00164E"/>
<path fill-rule="evenodd" clip-rule="evenodd" d="M9.5 14C9.5 12.6193 10.6193 11.5 12 11.5C13.3807 11.5 14.5 12.6193 14.5 14C14.5 15.3807 13.3807 16.5 12 16.5C10.6193 16.5 9.5 15.3807 9.5 14ZM12 12.5C11.1716 12.5 10.5 13.1716 10.5 14C10.5 14.8284 11.1716 15.5 12 15.5C12.8284 15.5 13.5 14.8284 13.5 14C13.5 13.1716 12.8284 12.5 12 12.5Z" fill="#00164E"/>
<path fill-rule="evenodd" clip-rule="evenodd" d="M7 14C7 11.2386 9.23858 9 12 9C14.7614 9 17 11.2386 17 14C17 16.7614 14.7614 19 12 19C9.23858 19 7 16.7614 7 14ZM12 10C9.79086 10 8 11.7909 8 14C8 16.2091 9.79086 18 12 18C14.2091 18 16 16.2091 16 14C16 11.7909 14.2091 10 12 10Z" fill="#00164E"/>
<path fill-rule="evenodd" clip-rule="evenodd" d="M4.5 4C4.5 3.17157 5.17157 2.5 6 2.5H18C18.8284 2.5 19.5 3.17157 19.5 4V20C19.5 20.8284 18.8284 21.5 18 21.5H6C5.17157 21.5 4.5 20.8284 4.5 20V4ZM18 3.5C18.2761 3.5 18.5 3.72386 18.5 4V6H11V3.5H18ZM6 3.5L10 3.5V6H5.5V4C5.5 3.72386 5.72386 3.5 6 3.5ZM18 20.5C18.2761 20.5 18.5 20.2761 18.5 20V7H5.5V20C5.5 20.2761 5.72386 20.5 6 20.5H18Z" fill="#00164E"/>
</svg>
