<svg width="24" height="24" viewBox="0 0 24 24" fill="none" xmlns="http://www.w3.org/2000/svg">
<path d="M9 9.5H10V11.5H9V9.5Z" fill="#00164E"/>
<path d="M10 12.5H9V14.5H10V12.5Z" fill="#00164E"/>
<path fill-rule="evenodd" clip-rule="evenodd" d="M2 6C2 5.72386 2.22386 5.5 2.5 5.5H21.5C21.7761 5.5 22 5.72386 22 6V9C22 9.27614 21.7761 9.5 21.5 9.5C20.837 9.5 20.2011 9.76339 19.7322 10.2322C19.2634 10.7011 19 11.337 19 12C19 12.663 19.2634 13.2989 19.7322 13.7678C20.2011 14.2366 20.837 14.5 21.5 14.5C21.7761 14.5 22 14.7239 22 15V18C22 18.2761 21.7761 18.5 21.5 18.5H2.5C2.22386 18.5 2 18.2761 2 18V15C2 14.7239 2.22386 14.5 2.5 14.5C3.16304 14.5 3.79893 14.2366 4.26777 13.7678C4.73661 13.2989 5 12.663 5 12C5 11.337 4.73661 10.7011 4.26777 10.2322C3.79893 9.76339 3.16304 9.5 2.5 9.5C2.22386 9.5 2 9.27614 2 9V6ZM19.0251 9.52513C19.5625 8.98776 20.2566 8.64317 21 8.53588V6.5H10V8.5H9V6.5H3V8.53588C3.74339 8.64317 4.43751 8.98776 4.97487 9.52513C5.63125 10.1815 6 11.0717 6 12C6 12.9283 5.63125 13.8185 4.97487 14.4749C4.43751 15.0122 3.74339 15.3568 3 15.4641V17.5H9V15.5H10V17.5H21V15.4641C20.2566 15.3568 19.5625 15.0122 19.0251 14.4749C18.3687 13.8185 18 12.9283 18 12C18 11.0717 18.3687 10.1815 19.0251 9.52513Z" fill="#00164E"/>
</svg>
