<svg width="24" height="24" viewBox="0 0 24 24" fill="none" xmlns="http://www.w3.org/2000/svg">
<path d="M19.6464 3.49654C19.8417 3.30128 20.1583 3.30128 20.3536 3.49654C20.5488 3.69181 20.5488 4.00839 20.3536 4.20365L3.35355 21.2037C3.15829 21.3989 2.84171 21.3989 2.64645 21.2037C2.45118 21.0084 2.45118 20.6918 2.64645 20.4965L19.6464 3.49654Z" fill="#00164E"/>
<path d="M8 11.8501C8 12.4044 8.11274 12.9323 8.31653 13.4122L7.5659 14.1629C7.20441 13.4713 7 12.6845 7 11.8501C7 10.5875 7.46796 9.43428 8.2399 8.5543C5.96703 9.46074 4.44155 11.053 3.36083 12.1811L3.20005 12.3487C3.30654 12.4583 3.41366 12.5694 3.52179 12.6817C4.3715 13.5634 5.28392 14.5102 6.45046 15.2783L5.72985 15.9989C4.53534 15.1831 3.60936 14.2186 2.79326 13.3686C2.57055 13.1367 2.35602 12.9132 2.14645 12.7037C1.95118 12.5084 1.95118 12.1918 2.14645 11.9965C2.2927 11.8503 2.45352 11.6816 2.63005 11.4963C4.21269 9.83585 7.05844 6.8501 12 6.8501C12.9355 6.8501 13.7959 6.95711 14.5869 7.14189L13.5621 8.16663C13.0822 7.96283 12.5543 7.8501 12 7.8501C9.79086 7.8501 8 9.64096 8 11.8501Z" fill="#00164E"/>
<path d="M21.37 11.4963C20.5233 10.608 19.3151 9.34038 17.6179 8.35354L16.8851 9.08635C18.5527 10.0032 19.7474 11.2502 20.6392 12.1811L20.8 12.3487C20.6935 12.4583 20.5863 12.5694 20.4782 12.6817C18.6197 14.6102 16.4612 16.8501 12 16.8501C14.7614 16.8501 17 14.6115 17 11.8501C17 11.0156 16.7956 10.2289 16.4341 9.53731L15.6835 10.2879C15.8873 10.7679 16 11.2958 16 11.8501C16 14.0592 14.2091 15.8501 12 15.8501C11.4457 15.8501 10.9178 15.7374 10.4379 15.5336L9.68722 16.2842C10.3788 16.6457 11.1655 16.8501 12 16.8501C11.0357 16.8501 10.1789 16.7454 9.40953 16.5619L8.59509 17.3763C9.58125 17.6729 10.7046 17.8501 12 17.8501C16.904 17.8501 19.3421 15.3107 21.2067 13.3686C21.4295 13.1367 21.644 12.9132 21.8536 12.7037C22.0488 12.5084 22.0488 12.1918 21.8536 11.9965C21.7073 11.8503 21.5465 11.6816 21.37 11.4963Z" fill="#00164E"/>
<path d="M14.4752 11.4963C14.4915 11.6119 14.5 11.73 14.5 11.8501C14.5 13.2308 13.3807 14.3501 12 14.3501C11.8799 14.3501 11.7618 14.3416 11.6462 14.3253L14.4752 11.4963Z" fill="#00164E"/>
</svg>
