<svg width="24" height="24" viewBox="0 0 24 24" fill="none" xmlns="http://www.w3.org/2000/svg">
<path d="M11.4533 7.15115C12.5002 7.23631 13.5472 6.64024 14.2015 5.88452C14.845 5.10751 15.2703 4.0644 15.1613 3C14.2343 3.04258 13.0892 3.59606 12.4348 4.37307C11.835 5.04365 11.3224 6.12933 11.4533 7.15115Z" fill="#00164E"/>
<path d="M12.7065 7.88458C13.3863 7.62406 14.2279 7.30152 15.1502 7.35333C15.7392 7.39591 17.4405 7.56621 18.531 9.14152C18.526 9.14518 18.515 9.15221 18.4986 9.16264C18.2287 9.33388 16.5147 10.4218 16.5353 12.5689C16.5558 15.127 18.6908 16.0809 18.9701 16.2057C18.9883 16.2138 19 16.2198 19 16.2198L18.9935 16.2401C18.9377 16.4161 18.5705 17.5756 17.7349 18.7637C16.9606 19.8706 16.1645 20.9563 14.8994 20.9776C14.3041 20.988 13.9031 20.8188 13.4855 20.6427C13.0463 20.4575 12.5888 20.2645 11.8676 20.2645C11.1205 20.2645 10.6421 20.4626 10.1816 20.6534C9.78151 20.819 9.39496 20.9791 8.8576 20.9989C7.63614 21.0415 6.70915 19.8281 5.93484 18.7211C4.3535 16.4859 3.14295 12.4199 4.77882 9.67372C5.57495 8.30065 7.02542 7.43848 8.58495 7.4172C9.26534 7.40512 9.91415 7.65668 10.4817 7.87672C10.9148 8.04464 11.3005 8.19421 11.6168 8.19421C11.8986 8.19421 12.269 8.05224 12.7065 7.88458Z" fill="#00164E"/>
</svg>
