<svg width="24" height="24" viewBox="0 0 24 24" fill="none" xmlns="http://www.w3.org/2000/svg">
<path fill-rule="evenodd" clip-rule="evenodd" d="M4.5 17C3.11929 17 2 15.8807 2 14.5V6.5C2 5.11929 3.11929 4 4.5 4H18.5C19.8807 4 21 5.11929 21 6.5V11.5C21 11.7761 20.7761 12 20.5 12C20.2239 12 20 11.7761 20 11.5V11H3V14.5C3 15.3284 3.67157 16 4.5 16H10.5C10.7761 16 11 16.2239 11 16.5C11 16.7761 10.7761 17 10.5 17H4.5ZM4.5 5C3.67157 5 3 5.67157 3 6.5V8H20V6.5C20 5.67157 19.3284 5 18.5 5H4.5Z" fill="#00164E"/>
<path d="M5 12.5C4.72386 12.5 4.5 12.7239 4.5 13C4.5 13.2761 4.72386 13.5 5 13.5H9C9.27614 13.5 9.5 13.2761 9.5 13C9.5 12.7239 9.27614 12.5 9 12.5H5Z" fill="#00164E"/>
<path d="M13.3179 20.7365C13.3193 21.0127 13.5443 21.2354 13.8204 21.234C14.0534 21.2329 14.2483 21.0726 14.3028 20.8567C14.7463 21.1653 15.242 21.3969 15.7693 21.5387C16.6754 21.7823 17.6336 21.7495 18.5209 21.4445C19.4083 21.1396 20.1844 20.5763 20.7497 19.8271C21.3151 19.0779 21.6439 18.1768 21.6943 17.2394L21.6944 17.2364C21.712 16.8678 21.688 16.4984 21.6229 16.1352C21.5741 15.8634 21.3143 15.6826 21.0425 15.7313C20.7707 15.7801 20.5899 16.0399 20.6386 16.3117C20.6904 16.6005 20.7095 16.8942 20.6956 17.1873C20.6557 17.9255 20.3966 18.6349 19.9515 19.2248C19.5061 19.815 18.8947 20.2587 18.1959 20.4988C17.4971 20.739 16.7425 20.7648 16.029 20.573C15.6893 20.4817 15.3662 20.343 15.0687 20.1625C15.2092 20.0734 15.3021 19.9161 15.3012 19.7375C15.2998 19.4613 15.0748 19.2386 14.7987 19.24L13.8105 19.2449C13.5346 19.2463 13.312 19.4709 13.313 19.7467L13.3179 20.7365Z" fill="#00164E"/>
<path d="M20.682 13.2631C20.6806 12.987 20.4556 12.7643 20.1795 12.7656C19.9465 12.7668 19.7515 12.9271 19.6971 13.1431C19.2536 12.8345 18.758 12.603 18.2307 12.4612C17.3246 12.2176 16.3665 12.2504 15.4791 12.5553C14.5918 12.8603 13.8157 13.4235 13.2504 14.1728C12.685 14.922 12.3561 15.8231 12.3058 16.7605L12.3056 16.7634C12.288 17.132 12.312 17.5015 12.3772 17.8647C12.4259 18.1365 12.6858 18.3173 12.9576 18.2686C13.2294 18.2198 13.4102 17.9599 13.3615 17.6881C13.3097 17.3994 13.2905 17.1057 13.3044 16.8126C13.3444 16.0744 13.6035 15.365 14.0486 14.7751C14.494 14.1848 15.1053 13.7412 15.8042 13.5011C16.503 13.2609 17.2575 13.2351 17.9711 13.4269C18.3107 13.5182 18.6336 13.6568 18.9311 13.8372C18.7907 13.9264 18.6978 14.0836 18.6987 14.2622C18.7001 14.5383 18.9251 14.7611 19.2012 14.7597L20.1895 14.7547C20.4609 14.7534 20.6807 14.536 20.6868 14.2664C20.6872 14.2559 20.6872 14.2455 20.6869 14.2351L20.682 13.2631Z" fill="#00164E"/>
</svg>
