<svg width="24" height="24" viewBox="0 0 24 24" fill="none" xmlns="http://www.w3.org/2000/svg">
<path d="M16.5 14.5C16.7761 14.5 17 14.7239 17 15V16.5C17 16.7761 16.7761 17 16.5 17C16.2239 17 16 16.7761 16 16.5V15C16 14.7239 16.2239 14.5 16.5 14.5Z" fill="#00164E"/>
<path d="M16.5 18.5C16.7761 18.5 17 18.2761 17 18C17 17.7239 16.7761 17.5 16.5 17.5C16.2239 17.5 16 17.7239 16 18C16 18.2761 16.2239 18.5 16.5 18.5Z" fill="#00164E"/>
<path fill-rule="evenodd" clip-rule="evenodd" d="M14 7C14 8.34473 13.3364 9.53448 12.3189 10.2597C13.3589 10.5628 14.3164 11.124 15.0962 11.9038C15.1407 11.9483 15.1844 11.9933 15.2274 12.0389C16.9216 11.9352 18.6251 12.0388 20.3005 12.3494C20.5196 12.3901 20.6853 12.5708 20.7069 12.7925L20.965 15.4381C21.1174 16.8645 20.7693 18.3001 19.9806 19.4951C19.1913 20.6909 18.0105 21.5703 16.6432 21.9791C16.5498 22.007 16.4502 22.007 16.3568 21.9791C14.9895 21.5703 13.8087 20.6909 13.0194 19.4951C12.9133 19.3342 12.8151 19.169 12.725 19H5.2C4.61652 19 4.05694 18.7682 3.64437 18.3556C3.23179 17.9431 3 17.3835 3 16.8V16.5C3 14.7761 3.68482 13.1228 4.90381 11.9038C5.68359 11.124 6.6411 10.5628 7.68113 10.2597C6.66357 9.53448 6 8.34473 6 7C6 4.79086 7.79086 3 10 3C12.2091 3 14 4.79086 14 7ZM10 4C8.34315 4 7 5.34315 7 7C7 8.65685 8.34315 10 10 10C11.6569 10 13 8.65685 13 7C13 5.34315 11.6569 4 10 4ZM12.3006 18C12.0352 17.1803 11.9421 16.3075 12.035 15.4381L12.2931 12.7925C12.3147 12.5708 12.4804 12.3901 12.6995 12.3494C13.0932 12.2764 13.4884 12.2149 13.8847 12.1648C12.923 11.4139 11.7328 11 10.5 11H9.5C8.04131 11 6.64236 11.5795 5.61091 12.6109C4.57946 13.6424 4 15.0413 4 16.5V16.8C4 17.1183 4.12643 17.4235 4.35147 17.6485C4.57652 17.8736 4.88174 18 5.2 18H12.3006ZM13.0301 15.5375L13.2514 13.2677C15.4027 12.9108 17.5973 12.9108 19.7486 13.2677L19.9699 15.5375L19.9704 15.5423C20.0988 16.7391 19.8068 17.943 19.146 18.9442C18.513 19.9032 17.5804 20.6175 16.5 20.9758C15.4196 20.6175 14.487 19.9032 13.854 18.9442C13.1932 17.943 12.9012 16.7391 13.0296 15.5423L13.0301 15.5375Z" fill="#00164E"/>
</svg>
