<svg width="24" height="24" viewBox="0 0 24 24" fill="none" xmlns="http://www.w3.org/2000/svg">
<path fill-rule="evenodd" clip-rule="evenodd" d="M14.6232 12.7123C15.173 12.1273 15.6078 11.4394 15.9006 10.6841C16.3351 9.56316 16.4383 8.34091 16.1977 7.16298C15.9427 5.91441 15.3257 4.76854 14.4237 3.86836C13.5235 2.96992 12.3791 2.35589 11.1328 2.10249C10.1817 1.88183 9.19356 1.87482 8.23942 2.082C7.28286 2.2897 6.38445 2.70748 5.60921 3.3051C4.83397 3.90272 4.2013 4.66523 3.757 5.53743C3.3127 6.40963 3.06771 7.36971 3.04009 8.34817L3.04006 8.36107C3.03762 9.36792 3.27655 10.3607 3.73683 11.2562C4.19628 12.15 4.86292 12.921 5.68105 13.5046C5.69802 13.5179 5.75029 13.5743 5.80019 13.7404C5.84903 13.903 5.87895 14.1151 5.89332 14.3616C5.91302 14.6995 5.90249 15.0241 5.89288 15.3205C5.88781 15.4767 5.883 15.625 5.883 15.7634V17.6587C5.883 17.7942 5.93798 17.9239 6.03535 18.0181C6.46615 18.4348 6.95447 18.9301 7.44839 19.4312L7.45119 19.434C7.94191 19.9318 8.43809 20.4352 8.87829 20.861C8.97154 20.9512 9.0962 21.0016 9.22594 21.0016H10.1736C10.3033 21.0016 10.428 20.9512 10.5212 20.861C10.8273 20.5649 11.1604 20.2314 11.5 19.8882V20C11.5 20.4388 11.7022 20.8192 11.9914 21.1232C12.2782 21.4245 12.6696 21.6732 13.115 21.8711C14.0069 22.2676 15.2041 22.5 16.5 22.5C17.7959 22.5 18.9931 22.2676 19.885 21.8711C20.3304 21.6732 20.7218 21.4245 21.0086 21.1232C21.2978 20.8192 21.5 20.4388 21.5 20V16C21.5 15.9414 21.4899 15.8852 21.4714 15.8329C21.4902 15.7248 21.5 15.6138 21.5 15.5C21.5 14.5456 20.8096 13.7867 19.9248 13.2952C19.0231 12.7942 17.8113 12.5 16.5 12.5C15.8403 12.5 15.2057 12.5745 14.6232 12.7123ZM6.94007 17.5035C6.95968 17.5012 6.97964 17.5 6.99988 17.5H11.5V16C11.5 15.9414 11.5101 15.8852 11.5286 15.8329C11.5098 15.7248 11.5 15.6138 11.5 15.5L6.88855 15.5C6.88539 15.6047 6.883 15.6947 6.883 15.7634V17.4476L6.94007 17.5035ZM11.7722 14.5C11.9719 14.1497 12.2688 13.8427 12.6208 13.585C12.6335 13.5332 12.6477 13.4822 12.6634 13.4322C12.7459 13.1692 12.8889 12.876 13.1556 12.6792L13.158 12.6775C13.9746 12.0823 14.603 11.2649 14.9682 10.3227C15.3334 9.38049 15.4201 8.35314 15.218 7.36304C15.0022 6.30689 14.4803 5.33764 13.7173 4.57618C12.9543 3.81472 11.984 3.29477 10.9274 3.0812L10.9129 3.07804C10.104 2.88941 9.2633 2.88298 8.45161 3.05923C7.63992 3.23547 6.87757 3.58998 6.21974 4.09709C5.56192 4.6042 5.02507 5.25123 4.64805 5.99133C4.27202 6.72953 4.06437 7.54189 4.04004 8.36993C4.03902 9.21474 4.23999 10.0476 4.62622 10.799C5.01344 11.5524 5.57558 12.2019 6.26554 12.6932L6.27122 12.6973C6.53997 12.8944 6.67937 13.1912 6.75791 13.4527C6.83878 13.7219 6.8752 14.0215 6.89163 14.3034C6.89538 14.3678 6.89812 14.4336 6.90003 14.5H9.27954C9.27298 14.4677 9.26953 14.4342 9.26953 14.4V10C9.26953 9.93354 9.2825 9.87011 9.30604 9.8121L7.75414 8.93532C7.51372 8.79949 7.42893 8.49447 7.56476 8.25405C7.70059 8.01362 8.00561 7.92884 8.24604 8.06467L9.77009 8.92572L11.2941 8.06467C11.5346 7.92884 11.8396 8.01362 11.9754 8.25405C12.1112 8.49447 12.0265 8.79949 11.786 8.93532L10.2332 9.81261C10.2566 9.87049 10.2695 9.93374 10.2695 10V14.4C10.2695 14.4342 10.2661 14.4677 10.2595 14.5H11.7722ZM8.16054 18.7292L7.93457 18.5H11.465L11.239 18.7292C10.7995 19.1749 10.3645 19.6162 9.97049 20.0016H9.42904C9.03502 19.6162 8.6 19.1749 8.16054 18.7292ZM13.5608 14.1693C12.8169 14.5826 12.5 15.0737 12.5 15.5C12.5 15.9263 12.8169 16.4174 13.5608 16.8307C14.2878 17.2346 15.326 17.5 16.5 17.5C17.674 17.5 18.7122 17.2346 19.4392 16.8307C20.1831 16.4174 20.5 15.9263 20.5 15.5C20.5 15.0737 20.1831 14.5826 19.4392 14.1693C18.7122 13.7654 17.674 13.5 16.5 13.5C15.326 13.5 14.2878 13.7654 13.5608 14.1693ZM19.9248 17.7048C20.1289 17.5915 20.3227 17.4638 20.5 17.3229V18C20.5 18.1135 20.4504 18.2592 20.2842 18.4338C20.1155 18.611 19.8479 18.7933 19.4789 18.9573C18.7422 19.2847 17.6894 19.5 16.5 19.5C15.3106 19.5 14.2578 19.2847 13.5211 18.9573C13.1521 18.7933 12.8845 18.611 12.7158 18.4338C12.5497 18.2592 12.5 18.1135 12.5 18V17.3229C12.6773 17.4638 12.8711 17.5915 13.0752 17.7048C13.9769 18.2058 15.1887 18.5 16.5 18.5C17.8113 18.5 19.0231 18.2058 19.9248 17.7048ZM19.885 19.8711C20.1053 19.7732 20.3123 19.663 20.5 19.54V20C20.5 20.1135 20.4504 20.2592 20.2842 20.4338C20.1155 20.611 19.8479 20.7933 19.4789 20.9573C18.7422 21.2847 17.6894 21.5 16.5 21.5C15.3106 21.5 14.2578 21.2847 13.5211 20.9573C13.1521 20.7933 12.8845 20.611 12.7158 20.4338C12.5497 20.2592 12.5 20.1135 12.5 20V19.54C12.6877 19.663 12.8947 19.7732 13.115 19.8711C14.0069 20.2676 15.2041 20.5 16.5 20.5C17.7959 20.5 18.9931 20.2676 19.885 19.8711Z" fill="#00164E"/>
</svg>
