<svg width="24" height="24" viewBox="0 0 24 24" fill="none" xmlns="http://www.w3.org/2000/svg">
<path fill-rule="evenodd" clip-rule="evenodd" d="M12.3189 10.2597C13.3364 9.53448 14 8.34473 14 7C14 4.79086 12.2091 3 10 3C7.79086 3 6 4.79086 6 7C6 8.34473 6.66357 9.53448 7.68113 10.2597C6.6411 10.5628 5.68359 11.124 4.90381 11.9038C3.68482 13.1228 3 14.7761 3 16.5V16.8C3 17.3835 3.23179 17.9431 3.64437 18.3556C4.05694 18.7682 4.61652 19 5.2 19H12.5997C13.5101 20.7808 15.3627 22 17.5 22C20.5376 22 23 19.5376 23 16.5C23 13.4624 20.5376 11 17.5 11C16.5418 11 15.6408 11.245 14.8563 11.6759C14.1235 11.0141 13.2546 10.5324 12.3189 10.2597ZM10 4C8.34315 4 7 5.34315 7 7C7 8.65685 8.34315 10 10 10C11.6569 10 13 8.65685 13 7C13 5.34315 11.6569 4 10 4ZM15.8295 12.3202C14.6879 12.7769 13.7769 13.6879 13.3202 14.8295C13.4654 14.7548 13.6189 14.6855 13.7788 14.6215C14.1996 14.4532 14.6831 14.3146 15.2114 14.2114C15.3146 13.6831 15.4532 13.1996 15.6215 12.7788C15.6855 12.6189 15.7548 12.4654 15.8295 12.3202ZM16.2674 14.0588C16.3473 13.7238 16.4426 13.4187 16.55 13.1502C16.717 12.7326 16.9034 12.4283 17.0848 12.2365C17.2652 12.0457 17.4056 12 17.5 12C17.5944 12 17.7348 12.0457 17.9152 12.2365C18.0966 12.4283 18.283 12.7326 18.45 13.1502C18.5574 13.4187 18.6527 13.7238 18.7326 14.0588C18.3355 14.0202 17.9227 14 17.5 14C17.0773 14 16.6645 14.0202 16.2674 14.0588ZM15.0588 15.2674C14.7238 15.3473 14.4187 15.4426 14.1502 15.55C13.7326 15.717 13.4283 15.9034 13.2365 16.0848C13.0457 16.2652 13 16.4056 13 16.5C13 16.5944 13.0457 16.7348 13.2365 16.9152C13.4283 17.0966 13.7326 17.283 14.1502 17.45C14.4187 17.5574 14.7238 17.6527 15.0588 17.7326C15.0202 17.3355 15 16.9227 15 16.5C15 16.0773 15.0202 15.6645 15.0588 15.2674ZM16.0849 17.9151C16.03 17.471 16 16.9958 16 16.5C16 16.0042 16.03 15.529 16.0849 15.0849C16.529 15.03 17.0042 15 17.5 15C17.9958 15 18.471 15.03 18.9151 15.0849C18.97 15.529 19 16.0042 19 16.5C19 16.9958 18.97 17.471 18.9151 17.9151C18.471 17.97 17.9958 18 17.5 18C17.0042 18 16.529 17.97 16.0849 17.9151ZM15.2114 18.7886C14.6831 18.6854 14.1996 18.5468 13.7788 18.3785C13.6189 18.3145 13.4654 18.2452 13.3202 18.1705C13.7769 19.3121 14.6879 20.2231 15.8295 20.6798C15.7548 20.5346 15.6855 20.3811 15.6215 20.2212C15.4532 19.8004 15.3146 19.3169 15.2114 18.7886ZM17.5 21C17.4056 21 17.2652 20.9543 17.0848 20.7635C16.9034 20.5717 16.717 20.2674 16.55 19.8498C16.4426 19.5813 16.3473 19.2762 16.2674 18.9412C16.6645 18.9798 17.0773 19 17.5 19C17.9227 19 18.3355 18.9798 18.7326 18.9412C18.6527 19.2762 18.5574 19.5813 18.45 19.8498C18.283 20.2674 18.0966 20.5717 17.9152 20.7635C17.7348 20.9543 17.5944 21 17.5 21ZM19.1705 20.6798C20.3121 20.2231 21.2231 19.3121 21.6798 18.1705C21.5346 18.2452 21.3811 18.3145 21.2212 18.3785C20.8004 18.5468 20.3169 18.6854 19.7886 18.7886C19.6854 19.3169 19.5468 19.8004 19.3785 20.2212C19.3145 20.3811 19.2452 20.5346 19.1705 20.6798ZM19.9412 17.7326C20.2762 17.6527 20.5813 17.5574 20.8498 17.45C21.2674 17.283 21.5717 17.0966 21.7635 16.9152C21.9543 16.7348 22 16.5944 22 16.5C22 16.4056 21.9543 16.2652 21.7635 16.0848C21.5717 15.9034 21.2674 15.717 20.8498 15.55C20.5813 15.4426 20.2762 15.3473 19.9412 15.2674C19.9798 15.6645 20 16.0773 20 16.5C20 16.9227 19.9798 17.3355 19.9412 17.7326ZM19.7886 14.2114C20.3169 14.3146 20.8004 14.4532 21.2212 14.6215C21.3811 14.6855 21.5346 14.7548 21.6798 14.8295C21.2231 13.6879 20.3121 12.7769 19.1705 12.3202C19.2452 12.4654 19.3145 12.6189 19.3785 12.7788C19.5468 13.1996 19.6854 13.6831 19.7886 14.2114ZM13.9999 12.2573C12.7785 13.266 12 14.7921 12 16.5C12 17.02 12.0722 17.5232 12.207 18H5.2C4.88174 18 4.57652 17.8736 4.35147 17.6485C4.12643 17.4235 4 17.1183 4 16.8V16.5C4 15.0413 4.57946 13.6424 5.61091 12.6109C6.64236 11.5795 8.04131 11 9.5 11H10.5C11.7825 11 13.0189 11.448 13.9999 12.2573Z" fill="#00164E"/>
</svg>
