<svg width="24" height="24" viewBox="0 0 24 24" fill="none" xmlns="http://www.w3.org/2000/svg">
<path d="M5 4.5C5 3.11929 6.11929 2 7.5 2H14.5C15.8807 2 17 3.11929 17 4.5V6C17 6.27614 16.7761 6.5 16.5 6.5C16.2239 6.5 16 6.27614 16 6V4.5C16 3.67157 15.3284 3 14.5 3H7.5C6.67157 3 6 3.67157 6 4.5V19.5C6 20.3284 6.67157 21 7.5 21H14.5C15.3284 21 16 20.3284 16 19.5V19C16 18.7239 16.2239 18.5 16.5 18.5C16.7761 18.5 17 18.7239 17 19V19.5C17 20.8807 15.8807 22 14.5 22H7.5C6.11929 22 5 20.8807 5 19.5V4.5Z" fill="#00164E"/>
<path d="M11 19.5C11.5523 19.5 12 19.0523 12 18.5C12 17.9477 11.5523 17.5 11 17.5C10.4477 17.5 10 17.9477 10 18.5C10 19.0523 10.4477 19.5 11 19.5Z" fill="#00164E"/>
<path d="M18.3536 11.3536C18.5488 11.1583 18.5488 10.8417 18.3536 10.6464C18.1583 10.4512 17.8417 10.4512 17.6464 10.6464L16 12.2929L15.3536 11.6464C15.1583 11.4512 14.8417 11.4512 14.6464 11.6464C14.4512 11.8417 14.4512 12.1583 14.6464 12.3536L15.6464 13.3536C15.8417 13.5488 16.1583 13.5488 16.3536 13.3536L18.3536 11.3536Z" fill="#00164E"/>
<path fill-rule="evenodd" clip-rule="evenodd" d="M12.6995 7.84944C15.2121 7.38352 17.7879 7.38352 20.3005 7.84944C20.5196 7.89006 20.6853 8.07075 20.7069 8.29252L20.965 10.9381C21.1174 12.3645 20.7693 13.8001 19.9806 14.9951C19.1913 16.1909 18.0105 17.0703 16.6432 17.4791C16.5498 17.507 16.4502 17.507 16.3568 17.4791C14.9895 17.0703 13.8087 16.1909 13.0194 14.9951C12.2307 13.8001 11.8826 12.3645 12.035 10.9381L12.2931 8.29252C12.3147 8.07075 12.4804 7.89006 12.6995 7.84944ZM13.2514 8.76775L13.0301 11.0375L13.0296 11.0423C12.9012 12.2391 13.1932 13.443 13.854 14.4442C14.487 15.4032 15.4196 16.1175 16.5 16.4758C17.5804 16.1175 18.513 15.4032 19.146 14.4442C19.8068 13.443 20.0988 12.2391 19.9704 11.0423L19.9699 11.0375L19.7486 8.76775C17.5973 8.41075 15.4027 8.41075 13.2514 8.76775Z" fill="#00164E"/>
</svg>
