<svg width="24" height="24" viewBox="0 0 24 24" fill="none" xmlns="http://www.w3.org/2000/svg">
<path fill-rule="evenodd" clip-rule="evenodd" d="M4.5 5C3.04425 5 2 6.36365 2 7.86364V16.1364C2 17.6364 3.04425 19 4.5 19H13.5C14.9558 19 16 17.6364 16 16.1364V14.3916L20.2434 16.9291C20.3979 17.0215 20.5901 17.0237 20.7467 16.9349C20.9032 16.8461 21 16.68 21 16.5V7.5C21 7.32 20.9032 7.15388 20.7467 7.06508C20.5901 6.97628 20.3979 6.97849 20.2434 7.07088L16 9.60842V7.86364C16 6.36365 14.9558 5 13.5 5H4.5ZM3 7.86364C3 6.75283 3.74661 6 4.5 6H13.5C14.2534 6 15 6.75283 15 7.86364V16.1364C15 17.2472 14.2534 18 13.5 18H4.5C3.74661 18 3 17.2472 3 16.1364V7.86364ZM20 8.38158L16 10.7736V13.2264L20 15.6184V8.38158Z" fill="#00164E"/>
</svg>
