<svg width="24" height="24" viewBox="0 0 24 24" fill="none" xmlns="http://www.w3.org/2000/svg">
<path fill-rule="evenodd" clip-rule="evenodd" d="M8.5 21.4999C8.5 21.7761 8.27614 21.9999 8 21.9999H5C4.72386 21.9999 4.5 21.7761 4.5 21.4999V20.4999C4.22386 20.4999 4 20.2761 4 19.9999V15.4499C2.85888 15.2183 2 14.2094 2 12.9999V12.7499C2 11.2312 3.23122 9.99994 4.75 9.99994H4.96568L4.80848 7.62453C4.62169 4.80198 6.81161 2.38665 9.63891 2.29689L14.0415 2.15712C16.9871 2.06361 19.3743 4.52512 19.1904 7.46649L19.0321 10H19.25C20.7688 10 22 11.2312 22 12.75V13C22 14.2095 21.1411 15.2184 20 15.45V19.9999C20 20.2761 19.7761 20.4999 19.5 20.4999V21.5C19.5 21.7761 19.2761 22 19 22H16C15.7239 22 15.5 21.7761 15.5 21.5V20.4999H8.5V21.4999ZM21 13C21 13.8284 20.3284 14.5 19.5 14.5C19.2239 14.5 19 14.7239 19 15V19.4999H5V14.9999C5 14.7238 4.77612 14.5 4.5 14.4999C3.67157 14.4999 3 13.8284 3 12.9999V12.7499C3 11.7834 3.7835 10.9999 4.75 10.9999H5C6.10457 10.9999 7 11.8954 7 12.9999V16.9999C7 17.2761 7.22386 17.4999 7.5 17.4999C7.77614 17.4999 8 17.2761 8 16.9999V15.5H16V17C16 17.2761 16.2239 17.5 16.5 17.5C16.7761 17.5 17 17.2761 17 17V13C17 11.8954 17.8954 11 19 11H19.25C20.2165 11 21 11.7835 21 12.75V13ZM16 13C16 11.6864 16.8443 10.5699 18.0199 10.1638L18.1924 7.40412C18.3394 5.05101 16.4297 3.08181 14.0732 3.15662L9.67064 3.29639C7.4088 3.36819 5.65687 5.30046 5.8063 7.5585L5.97867 10.1632C7.15499 10.5689 8 11.6858 8 12.9999V14.5H16V13ZM5.5 20.4999H7.5V20.9999H5.5V20.4999ZM16.5 21V20.5H18.5V21H16.5Z" fill="#00164E"/>
</svg>
