<svg width="24" height="24" viewBox="0 0 24 24" fill="none" xmlns="http://www.w3.org/2000/svg">
<path d="M6.5 6C6.22386 6 6 6.22386 6 6.5C6 6.77614 6.22386 7 6.5 7H17.5C17.7761 7 18 6.77614 18 6.5C18 6.22386 17.7761 6 17.5 6H6.5Z" fill="#00164E"/>
<path d="M6 9.5C6 9.22386 6.22386 9 6.5 9H17.5C17.7761 9 18 9.22386 18 9.5C18 9.77614 17.7761 10 17.5 10H6.5C6.22386 10 6 9.77614 6 9.5Z" fill="#00164E"/>
<path d="M6 12.5C6 12.2239 6.22386 12 6.5 12H17.5C17.7761 12 18 12.2239 18 12.5C18 12.7761 17.7761 13 17.5 13H6.5C6.22386 13 6 12.7761 6 12.5Z" fill="#00164E"/>
<path fill-rule="evenodd" clip-rule="evenodd" d="M3 5.5C3 4.11929 4.11929 3 5.5 3H18.5C19.8807 3 21 4.11929 21 5.5V18.5C21 19.8807 19.8807 21 18.5 21H5.5C4.11929 21 3 19.8807 3 18.5V5.5ZM15.09 15C14.9119 15 14.7472 15.0948 14.6577 15.2488C14.3847 15.7185 13.996 16.1105 13.5286 16.3873C13.0647 16.662 12.5387 16.8143 12 16.8298C11.4613 16.8143 10.9353 16.662 10.4714 16.3873C10.004 16.1105 9.61525 15.7185 9.34232 15.2488C9.25282 15.0948 9.08814 15 8.91 15H4V5.5C4 4.67157 4.67157 4 5.5 4H18.5C19.3284 4 20 4.67157 20 5.5V15H15.09ZM4 18.5C4 19.3284 4.67157 20 5.5 20H18.5C19.3284 20 20 19.3284 20 18.5V16H15.3658C15.0211 16.5075 14.5681 16.9339 14.0382 17.2477C13.4237 17.6116 12.7263 17.812 12.0125 17.8298L12.0001 17.83L11.9875 17.8298C11.2737 17.812 10.5763 17.6116 9.96183 17.2477C9.4319 16.9339 8.97894 16.5075 8.6342 16H4V18.5Z" fill="#00164E"/>
</svg>
