<svg width="24" height="24" viewBox="0 0 24 24" fill="none" xmlns="http://www.w3.org/2000/svg">
<path fill-rule="evenodd" clip-rule="evenodd" d="M15.5 14.5C14.3954 14.5 13.5 15.3954 13.5 16.5C13.5 17.6046 14.3954 18.5 15.5 18.5C16.6046 18.5 17.5 17.6046 17.5 16.5C17.5 15.3954 16.6046 14.5 15.5 14.5ZM14.5 16.5C14.5 15.9477 14.9477 15.5 15.5 15.5C16.0523 15.5 16.5 15.9477 16.5 16.5C16.5 17.0523 16.0523 17.5 15.5 17.5C14.9477 17.5 14.5 17.0523 14.5 16.5Z" fill="#00164E"/>
<path d="M12.5 15.5C12.7761 15.5 13 15.7239 13 16V17C13 17.2761 12.7761 17.5 12.5 17.5C12.2239 17.5 12 17.2761 12 17V16C12 15.7239 12.2239 15.5 12.5 15.5Z" fill="#00164E"/>
<path d="M19 16C19 15.7239 18.7761 15.5 18.5 15.5C18.2239 15.5 18 15.7239 18 16V17C18 17.2761 18.2239 17.5 18.5 17.5C18.7761 17.5 19 17.2761 19 17V16Z" fill="#00164E"/>
<path fill-rule="evenodd" clip-rule="evenodd" d="M12.3189 10.2597C13.3364 9.53448 14 8.34473 14 7C14 4.79086 12.2091 3 10 3C7.79086 3 6 4.79086 6 7C6 8.34473 6.66357 9.53448 7.68113 10.2597C6.6411 10.5628 5.68359 11.124 4.90381 11.9038C3.68482 13.1228 3 14.7761 3 16.5V16.8C3 17.3835 3.23179 17.9431 3.64437 18.3556C4.05694 18.7682 4.61652 19 5.2 19H9.5V19.6071C9.5 20.1003 9.89975 20.5 10.3929 20.5H20.6071C21.1003 20.5 21.5 20.1003 21.5 19.6071V13.3929C21.5 12.8997 21.1003 12.5 20.6071 12.5H15.6235C15.4609 12.2918 15.285 12.0926 15.0962 11.9038C14.3164 11.124 13.3589 10.5628 12.3189 10.2597ZM7 7C7 5.34315 8.34315 4 10 4C11.6569 4 13 5.34315 13 7C13 8.65685 11.6569 10 10 10C8.34315 10 7 8.65685 7 7ZM10.3929 12.5C9.89975 12.5 9.5 12.8997 9.5 13.3929V18H5.2C4.88174 18 4.57652 17.8736 4.35147 17.6485C4.12643 17.4235 4 17.1183 4 16.8V16.5C4 15.0413 4.57946 13.6424 5.61091 12.6109C6.64236 11.5795 8.04131 11 9.5 11H10.5C11.9056 11 13.2556 11.538 14.2749 12.5H10.3929ZM19.8285 18.9001C19.6664 19.0622 19.5657 19.2742 19.5414 19.5H20.5V18.6078C20.2477 18.6168 20.0077 18.721 19.8285 18.9001ZM19.1214 18.193C18.7717 18.5427 18.5649 19.0086 18.5385 19.5H12.39C12.3636 19.0086 12.1568 18.5427 11.807 18.193C11.4573 17.8432 10.9914 17.6364 10.5 17.61V15.4971C10.9914 15.4708 11.4573 15.2639 11.807 14.9142C12.1821 14.5391 12.3928 14.0304 12.3928 13.5H18.5356C18.5356 14.0304 18.7464 14.5391 19.1214 14.9142C19.4881 15.2809 19.9825 15.4905 20.5 15.4997V17.6075C19.9825 17.6167 19.4881 17.8263 19.1214 18.193ZM11.0999 18.9001C11.262 19.0622 11.3627 19.2742 11.3871 19.5H10.5V18.6129C10.7258 18.6373 10.9378 18.738 11.0999 18.9001ZM19.8285 14.2071C19.641 14.0196 19.5356 13.7652 19.5356 13.5H20.5V14.4994C20.2477 14.4904 20.0077 14.3862 19.8285 14.2071ZM10.5 14.4942C10.7258 14.4699 10.9378 14.3692 11.0999 14.2071C11.2875 14.0196 11.3928 13.7652 11.3928 13.5H10.5V14.4942Z" fill="#00164E"/>
</svg>
