<svg width="24" height="24" viewBox="0 0 24 24" fill="none" xmlns="http://www.w3.org/2000/svg">
<path d="M8.45818 2.63197C8.56874 2.88502 8.45323 3.17977 8.20019 3.29033C7.13416 3.7561 6.16974 4.4121 5.35002 5.21569C5.15283 5.409 4.83626 5.40585 4.64295 5.20866C4.44964 5.01147 4.45278 4.6949 4.64998 4.50159C5.55527 3.61411 6.62092 2.88906 7.79981 2.37398C8.05286 2.26342 8.34762 2.37893 8.45818 2.63197Z" fill="#00164E"/>
<path d="M15.5418 2.63197C15.6524 2.37893 15.9471 2.26342 16.2002 2.37398C17.3791 2.88906 18.4447 3.61411 19.35 4.50159C19.5472 4.6949 19.5504 5.01147 19.357 5.20866C19.1637 5.40585 18.8472 5.409 18.65 5.21569C17.8303 4.4121 16.8658 3.7561 15.7998 3.29033C15.5468 3.17977 15.4313 2.88502 15.5418 2.63197Z" fill="#00164E"/>
<path d="M12.5 8.50012C12.5 8.22398 12.2761 8.00012 12 8.00012C11.7239 8.00012 11.5 8.22398 11.5 8.50012V12.0001C11.5 12.1327 11.5527 12.2599 11.6464 12.3537L15.1464 15.8537C15.3417 16.0489 15.6583 16.0489 15.8536 15.8537C16.0488 15.6584 16.0488 15.3418 15.8536 15.1466L12.5 11.793V8.50012Z" fill="#00164E"/>
<path fill-rule="evenodd" clip-rule="evenodd" d="M3.5 12.0001C3.5 7.3057 7.30558 3.50012 12 3.50012C16.6944 3.50012 20.5 7.3057 20.5 12.0001C20.5 15.0692 18.8735 17.7583 16.4354 19.2526L17.2485 20.5041C17.3989 20.7357 17.3331 21.0454 17.1015 21.1958C16.87 21.3462 16.5603 21.2805 16.4099 21.0489L15.5807 19.7725C15.5704 19.7567 15.5612 19.7406 15.553 19.7242C14.4719 20.2223 13.2684 20.5001 12 20.5001C10.6755 20.5001 9.42169 20.1972 8.30419 19.6568C8.29099 19.6967 8.27251 19.7356 8.24853 19.7725L7.41935 21.0489C7.26892 21.2805 6.95925 21.3462 6.72768 21.1958C6.49611 21.0454 6.43033 20.7357 6.58077 20.5041L7.40995 19.2277C7.42118 19.2104 7.43331 19.1941 7.44622 19.1787C5.07403 17.6707 3.5 15.0192 3.5 12.0001ZM12 4.50012C7.85786 4.50012 4.5 7.85799 4.5 12.0001C4.5 16.1423 7.85786 19.5001 12 19.5001C16.1421 19.5001 19.5 16.1423 19.5 12.0001C19.5 7.85799 16.1421 4.50012 12 4.50012Z" fill="#00164E"/>
</svg>
