<svg width="24" height="24" viewBox="0 0 24 24" fill="none" xmlns="http://www.w3.org/2000/svg">
<path fill-rule="evenodd" clip-rule="evenodd" d="M11.6798 3.24435C11.3075 3.08237 10.9059 2.99878 10.5 2.99878C10.0941 2.99878 9.69246 3.08237 9.32023 3.24436C8.94812 3.40629 8.61333 3.6431 8.33671 3.94003L7.23438 5.12088V4.64244C7.23438 4.37833 7.16218 4.10324 7.00615 3.88036C6.84893 3.65578 6.59039 3.47021 6.26379 3.47021H4.38143C4.05483 3.47021 3.79629 3.65578 3.63907 3.88036C3.48305 4.10324 3.41085 4.37833 3.41085 4.64244L3.41085 9.14631C3.41085 9.16863 3.41231 9.19061 3.41514 9.21215L2.79333 9.87826C2.28345 10.4257 1.9997 11.1465 2 11.8946V18.2659C2 18.7255 2.18259 19.1663 2.50758 19.4913C2.83257 19.8162 3.27335 19.9988 3.73294 19.9988H14C14.2761 19.9988 14.5 19.7749 14.5 19.4988C14.5 19.2226 14.2761 18.9988 14 18.9988H13.3535L13.3535 13.852C13.3535 13.4963 13.2365 13.1408 13.0079 12.8664C12.777 12.5894 12.4423 12.4109 12.0692 12.4109H8.93195C8.55886 12.4109 8.22411 12.5894 7.99325 12.8664C7.76462 13.1408 7.64763 13.4963 7.64763 13.852L7.64763 18.9988H3.73294C3.53854 18.9988 3.35211 18.9216 3.21466 18.7841C3.07721 18.6467 3 18.4603 3 18.2659L3 11.8946C2.99977 11.3997 3.18717 10.9228 3.52445 10.5605L6.99256 6.84536C7.07195 6.7974 7.13692 6.728 7.17945 6.64517L9.06785 4.62226C9.25093 4.42568 9.47293 4.26849 9.71926 4.16129C9.96559 4.0541 10.2314 3.99878 10.5 3.99878C10.7686 3.99878 11.0344 4.0541 11.2807 4.16129C11.5271 4.26849 11.7487 4.42526 11.9318 4.62184L17.4753 10.5602C17.8126 10.9225 18.0002 11.3994 18 11.8944V12.4998C18 12.7759 18.2239 12.9998 18.5 12.9998C18.7761 12.9998 19 12.7759 19 12.4998V11.8949C19.0003 11.1468 18.7169 10.4261 18.2071 9.87868L12.6635 3.94029C12.3869 3.64336 12.0519 3.40629 11.6798 3.24435ZM4.41085 8.14553L6.23438 6.19211V4.64244C6.23438 4.56437 6.21516 4.50456 6.19685 4.47021H4.44837C4.43006 4.50456 4.41085 4.56437 4.41085 4.64244L4.41085 8.14553ZM12.0692 13.4109C12.1121 13.4109 12.1764 13.4307 12.2397 13.5066C12.3052 13.5853 12.3535 13.7085 12.3535 13.852L12.3535 18.9986H8.64763L8.64763 13.852C8.64763 13.7085 8.69592 13.5853 8.76145 13.5066C8.82477 13.4307 8.88901 13.4109 8.93195 13.4109H12.0692Z" fill="#00164E"/>
<path fill-rule="evenodd" clip-rule="evenodd" d="M22.5 17.1513C22.5 15.1346 20.8652 13.4998 18.8485 13.4998C16.8318 13.4998 15.197 15.1346 15.197 17.1513C15.197 17.9793 15.4726 18.743 15.9371 19.3556L13.6463 21.6464C13.451 21.8416 13.451 22.1582 13.6463 22.3535C13.8415 22.5487 14.1581 22.5487 14.3534 22.3535L16.6442 20.0627C17.2568 20.5272 18.0204 20.8028 18.8485 20.8028C20.8652 20.8028 22.5 19.1679 22.5 17.1513ZM18.8485 14.4998C20.3129 14.4998 21.5 15.6869 21.5 17.1513C21.5 18.6157 20.3129 19.8028 18.8485 19.8028C17.3841 19.8028 16.197 18.6157 16.197 17.1513C16.197 15.6869 17.3841 14.4998 18.8485 14.4998Z" fill="#00164E"/>
</svg>
