<svg width="24" height="24" viewBox="0 0 24 24" fill="none" xmlns="http://www.w3.org/2000/svg">
<path d="M9 8C8.44772 8 8 8.44772 8 9V10C8 10.5523 8.44772 11 9 11C9.55228 11 10 10.5523 10 10V9C10 8.44772 9.55228 8 9 8Z" fill="#00164E"/>
<path d="M7 13.5C7.27614 13.5 7.5 13.7239 7.5 14C7.5 15.8346 9.40484 17.5 12 17.5C14.5952 17.5 16.5 15.8346 16.5 14C16.5 13.7239 16.7239 13.5 17 13.5C17.2761 13.5 17.5 13.7239 17.5 14C17.5 16.5836 14.9277 18.5 12 18.5C9.07232 18.5 6.5 16.5836 6.5 14C6.5 13.7239 6.72386 13.5 7 13.5Z" fill="#00164E"/>
<path d="M15 8C14.4477 8 14 8.44772 14 9V10C14 10.5523 14.4477 11 15 11C15.5523 11 16 10.5523 16 10V9C16 8.44772 15.5523 8 15 8Z" fill="#00164E"/>
<path fill-rule="evenodd" clip-rule="evenodd" d="M12 2C6.47715 2 2 6.47715 2 12C2 17.5228 6.47715 22 12 22C17.5228 22 22 17.5228 22 12C22 6.47715 17.5228 2 12 2ZM3 12C3 7.02944 7.02944 3 12 3C16.9706 3 21 7.02944 21 12C21 16.9706 16.9706 21 12 21C7.02944 21 3 16.9706 3 12Z" fill="#00164E"/>
</svg>
