<svg width="24" height="24" viewBox="0 0 24 24" fill="none" xmlns="http://www.w3.org/2000/svg">
<path d="M11.8687 4.45999C13.1279 4.41223 14.29 4.94968 15.157 5.84764C15.3488 6.0463 15.6653 6.05186 15.864 5.86006C16.0627 5.66825 16.0682 5.35172 15.8764 5.15306C14.8391 4.07867 13.4115 3.40102 11.8317 3.46067C10.3987 3.51032 9.04168 4.11765 8.04992 5.15322C6.9943 6.23969 6.40562 7.69606 6.40979 9.21093L6.40978 9.21551L6.4097 9.23337L6.40903 9.30449C6.40825 9.36678 6.4067 9.45755 6.40358 9.56984C6.39733 9.79475 6.38482 10.1043 6.35991 10.4436C6.3083 11.1462 6.20824 11.8934 6.03734 12.3104C5.89322 12.6621 5.64379 13.0736 5.32968 13.584L5.29955 13.633C5.00099 14.118 4.65985 14.6722 4.36 15.2783C4.27574 15.4486 4.19434 15.6238 4.11756 15.8038C4.0092 16.0578 4.12726 16.3515 4.38126 16.4599C4.63525 16.5683 4.929 16.4502 5.03735 16.1962C5.10596 16.0354 5.17938 15.8773 5.25633 15.7217C5.53531 15.1577 5.85523 14.638 6.15845 14.1453L6.18133 14.1081C6.48275 13.6184 6.78125 13.1323 6.96266 12.6896C7.20155 12.1066 7.30638 11.209 7.35722 10.5168C7.38353 10.1586 7.39664 9.83327 7.40319 9.59763C7.40647 9.47964 7.40812 9.38371 7.40895 9.31688C7.40903 9.31062 7.4091 9.3046 7.40916 9.29885C7.40944 9.27393 7.40959 9.25391 7.40968 9.23925L7.40977 9.21838L7.40979 9.21112L7.40979 9.2089C7.40614 7.95441 7.89377 6.74834 8.76828 5.8489L8.77103 5.84606C9.58273 4.9979 10.6937 4.50051 11.867 4.46005L11.8687 4.45999Z" fill="#00164E"/>
<path fill-rule="evenodd" clip-rule="evenodd" d="M17.1183 9.50002C16.8422 9.49814 16.6168 9.72047 16.6149 9.99661C16.6126 10.3376 16.6234 10.8137 16.6807 11.2986C16.7368 11.7736 16.8423 12.3027 17.0528 12.7236C17.2314 13.0809 17.4797 13.4893 17.739 13.9159C17.8571 14.11 17.9774 14.3079 18.0944 14.5064C18.4812 15.1623 18.8644 15.8742 19.1372 16.6437C19.1776 16.7576 19.2154 16.8607 19.2501 16.9554C19.3283 17.1689 19.3912 17.3404 19.4343 17.5003H15.0188C15.0126 17.5001 15.0063 17.5 15 17.5C14.9937 17.5 14.9874 17.5001 14.9812 17.5003H10.0188C10.0188 17.5003 9 17.4931 9.00692 17.5L9 17.5C8.72387 17.5 8.5 17.7239 8.5 18L8.5 18.0023C8.50122 19.9342 10.0678 21.5 12 21.5C13.7631 21.5 15.2217 20.1963 15.4645 18.5003H19.9998C20.2732 18.5003 20.4959 18.2807 20.4997 18.0073C20.5073 17.4626 20.3366 17.0038 20.1721 16.5617C20.1406 16.4772 20.1094 16.3932 20.0797 16.3095C19.775 15.4501 19.3539 14.6737 18.9558 13.9985C18.8189 13.7662 18.6877 13.5506 18.5649 13.3487C18.3195 12.9454 18.1072 12.5963 17.9472 12.2764C17.8149 12.0117 17.7256 11.6201 17.6738 11.1813C17.6231 10.7523 17.6127 10.3212 17.6149 10.0034C17.6168 9.72728 17.3944 9.5019 17.1183 9.50002ZM12 20.5C13.2094 20.5 14.2182 19.6413 14.4499 18.5003H9.55008C9.78185 19.6413 10.7906 20.5 12 20.5Z" fill="#00164E"/>
<path d="M20.3536 3.64645C20.1583 3.45118 19.8417 3.45118 19.6464 3.64645L3.64645 19.6464C3.45118 19.8417 3.45118 20.1583 3.64645 20.3536C3.84171 20.5488 4.15829 20.5488 4.35355 20.3536L20.3536 4.35355C20.5488 4.15829 20.5488 3.84171 20.3536 3.64645Z" fill="#00164E"/>
</svg>
