<svg width="24" height="24" viewBox="0 0 24 24" fill="none" xmlns="http://www.w3.org/2000/svg">
<path d="M19.6213 17C19.8975 17 20.1213 16.7761 20.1213 16.5C20.1213 16.2239 19.8975 16 19.6213 16H15.3787C15.1025 16 14.8787 16.2239 14.8787 16.5C14.8787 16.7761 15.1025 17 15.3787 17H19.6213Z" fill="#00164E"/>
<path fill-rule="evenodd" clip-rule="evenodd" d="M19.7095 12.2817L19.5189 12.4772C20.9904 13.2172 22 14.7407 22 16.5C22 18.9853 19.9853 21 17.5 21C15.7819 21 14.2886 20.0371 13.5305 18.6215L12.3342 19.849C12.2398 19.9457 12.1104 20.0002 11.9753 20C11.8402 19.9998 11.7109 19.9449 11.6169 19.8478L4.28938 12.2805C4.28534 12.2764 4.28138 12.2721 4.2775 12.2678C3.86965 11.8162 3.54848 11.2815 3.33015 10.696C3.11183 10.1104 3 9.48403 3 8.85234C3 8.22068 3.11183 7.5941 3.33015 7.00856C3.54848 6.42302 3.86965 5.88831 4.2775 5.4367L4.27872 5.43534C5.10857 4.52315 6.23772 4 7.42706 4C8.61604 4 9.74486 4.52284 10.5746 5.43452L10.5754 5.43534L12 6.98783L13.4247 5.43534L13.4254 5.4345C14.2552 4.52283 15.384 4 16.573 4C17.7624 4 18.8914 4.52316 19.7213 5.43534L19.7225 5.4367C20.1303 5.88831 20.4515 6.42302 20.6698 7.00856C20.8882 7.5941 21 8.22067 21 8.85234C21 9.48403 20.8882 10.1104 20.6698 10.696C20.4515 11.2815 20.1303 11.8162 19.7225 12.2678L19.7162 12.2747L19.7095 12.2817ZM4.26714 7.35793C4.44301 6.88625 4.69941 6.46171 5.01904 6.1076C5.6722 5.38999 6.53823 5 7.42706 5C8.31617 5 9.18246 5.39023 9.83569 6.10828L11.6316 8.06541C11.7263 8.1686 11.86 8.22735 12 8.22735C12.1401 8.22735 12.2737 8.1686 12.3684 8.06541L14.1629 6.10987L14.1644 6.10828C14.8176 5.39023 15.6839 5 16.573 5C17.4618 5 18.3278 5.38997 18.9809 6.10757C19.3006 6.46169 19.557 6.88623 19.7329 7.35793C19.9088 7.82992 20 8.33805 20 8.85234C20 9.36662 19.9089 9.87459 19.7329 10.3466C19.558 10.8155 19.3036 11.2379 18.9865 11.5908L18.4827 12.1076C18.1664 12.0372 17.8376 12 17.5 12C15.0147 12 13 14.0147 13 16.5C13 16.8778 13.0466 17.2447 13.1342 17.5953L11.9773 18.7824L5.01402 11.5913C4.69673 11.2384 4.44209 10.8158 4.26714 10.3466C4.09114 9.87459 4 9.36662 4 8.85234C4 8.33805 4.09115 7.82992 4.26714 7.35793ZM17.5 13C15.567 13 14 14.567 14 16.5C14 18.433 15.567 20 17.5 20C19.433 20 21 18.433 21 16.5C21 14.567 19.433 13 17.5 13Z" fill="#00164E"/>
</svg>
