<svg width="24" height="24" viewBox="0 0 24 24" fill="none" xmlns="http://www.w3.org/2000/svg">
<path fill-rule="evenodd" clip-rule="evenodd" d="M3.27427 4.73456L3.27453 4.73642L3.27501 4.73982L3.27666 4.75117L3.28281 4.79153C3.28823 4.82609 3.29635 4.87569 3.30754 4.93869C3.3299 5.06465 3.36459 5.24446 3.41457 5.46487C3.51437 5.90497 3.67602 6.51078 3.92414 7.17497C4.41437 8.48722 5.26991 10.1028 6.72481 11.0685C7.7818 11.77 8.96895 12.0926 10.0464 12.027C10.7646 11.9832 11.4481 11.7642 12 11.3579V15.3787C11.5354 15.473 11.0925 15.7004 10.7322 16.0607L7.7929 19H4C3.72386 19 3.5 19.2239 3.5 19.5C3.5 19.7761 3.72386 20 4 20H21C21.2761 20 21.5 19.7761 21.5 19.5C21.5 19.2239 21.2761 19 21 19H17.2071L14.2678 16.0607C13.9075 15.7004 13.4646 15.473 13 15.3787V11.915C13.9151 13.4026 16.0331 13.6099 17.6764 12.6611C18.8535 11.9816 19.5622 10.7382 19.9726 9.73679C20.1816 9.22687 20.3221 8.75765 20.4105 8.41581C20.4548 8.2445 20.4863 8.10415 20.5069 8.00541C20.5172 7.95601 20.5248 7.91695 20.53 7.88955L20.5359 7.85733L20.5375 7.84807L20.538 7.8452L20.5383 7.84353C20.5784 7.60682 20.4446 7.37503 20.2195 7.29138L20.218 7.2908L20.2152 7.28979L20.2064 7.28658L20.1755 7.27559C20.1492 7.26635 20.1116 7.25342 20.0636 7.23765C19.9678 7.20615 19.8305 7.16325 19.66 7.11596C19.3198 7.02162 18.8432 6.90868 18.2971 6.83469C18.0115 6.796 17.7005 6.76706 17.3757 6.75823C16.4805 6.73392 15.4801 6.86243 14.6164 7.36105C14.0418 7.69282 13.5606 8.14553 13.2132 8.65972C13.19 8.30182 13.1134 7.9419 12.9903 7.59156C12.7554 6.9233 12.3481 6.27642 11.7972 5.71239C11.5085 5.4169 11.1804 5.14415 10.8171 4.90296C9.36215 3.9373 7.54111 3.77636 6.14148 3.83425C5.43307 3.86356 4.81203 3.94987 4.36771 4.02883C4.14519 4.06837 3.96603 4.10624 3.84127 4.13455C3.77887 4.14871 3.73001 4.16049 3.69606 4.16892L3.65648 4.17892L3.64538 4.18181L3.64206 4.18269L3.64025 4.18317C3.39667 4.24839 3.23978 4.48478 3.27427 4.73456ZM3.27427 4.73456L3.33789 4.72572L3.76957 4.66616L3.27427 4.73456ZM3.64025 4.18317L3.76919 4.66471L3.65633 4.24347L3.64025 4.18317ZM4.34757 5.04979C4.36003 5.10954 4.37408 5.17435 4.38981 5.24372C4.48224 5.65135 4.63207 6.21245 4.86091 6.82502C5.32462 8.06628 6.08495 9.44355 7.27782 10.2353C8.17061 10.8279 9.14479 11.08 9.98557 11.0288C10.6444 10.9887 11.202 10.766 11.5967 10.3938C10.9955 9.83131 10.1859 9.17374 9.31537 8.57109C8.29117 7.86203 7.21633 7.25249 6.32186 6.95434C6.05989 6.86701 5.91831 6.58385 6.00563 6.32188C6.09295 6.05991 6.37611 5.91833 6.63809 6.00565C7.66362 6.3475 8.82877 7.01796 9.88458 7.7489C10.7204 8.32757 11.5087 8.95884 12.1306 9.52569C12.2738 9.04609 12.2475 8.49403 12.0469 7.92316C11.7676 7.12848 11.1568 6.32871 10.2641 5.73614C9.95395 5.53032 9.61873 5.3668 9.26916 5.23846C8.58029 4.98555 7.83566 4.86926 7.11757 4.83509C6.79833 4.81989 6.48433 4.82093 6.18281 4.8334C5.52945 4.86042 4.9542 4.94027 4.54268 5.0134C4.47264 5.02585 4.40746 5.03808 4.34757 5.04979ZM19.4594 8.09835L19.3928 8.0796C19.0845 7.99412 18.6534 7.89211 18.1628 7.82564C17.1618 7.69001 16.0035 7.71493 15.1164 8.22708C14.1092 8.80859 13.6056 9.73188 13.6144 10.5389C14.2708 9.84048 15.469 9.17984 17.36 9.17984C17.6362 9.17984 17.86 9.4037 17.86 9.67984C17.86 9.95599 17.6362 10.1798 17.36 10.1798C15.1785 10.1798 14.2833 11.1655 14.0445 11.6401C14.6845 12.3151 15.9626 12.4959 17.1764 11.7951C18.0635 11.283 18.6642 10.2923 19.0473 9.35759C19.235 8.89946 19.3622 8.47511 19.4423 8.1654L19.4594 8.09835ZM15.7929 19L13.5607 16.7678C12.9749 16.182 12.0251 16.182 11.4393 16.7678L9.20711 19H15.7929Z" fill="#00164E"/>
</svg>
