<svg width="24" height="24" viewBox="0 0 24 24" fill="none" xmlns="http://www.w3.org/2000/svg">
<path d="M3 6.5C3 5.67157 3.67157 5 4.5 5H15.3064C15.726 5 16.1264 5.17574 16.4104 5.48456L19.604 8.95677C19.8587 9.23362 20 9.59605 20 9.97221V11C20 11.2761 20.2239 11.5 20.5 11.5C20.7761 11.5 21 11.2761 21 11V9.97221C21 9.34528 20.7645 8.74124 20.34 8.27981L17.1465 4.8076C16.6731 4.2929 16.0057 4 15.3064 4H4.5C3.11929 4 2 5.11929 2 6.5V14.5C2 15.8807 3.11929 17 4.5 17H10.5C10.7761 17 11 16.7761 11 16.5C11 16.2239 10.7761 16 10.5 16H4.5C3.67157 16 3 15.3284 3 14.5V6.5Z" fill="#00164E"/>
<path d="M5 13C4.72386 13 4.5 13.2239 4.5 13.5C4.5 13.7761 4.72386 14 5 14H11C11.2761 14 11.5 13.7761 11.5 13.5C11.5 13.2239 11.2761 13 11 13H5Z" fill="#00164E"/>
<path d="M5 11C4.72386 11 4.5 11.2239 4.5 11.5C4.5 11.7761 4.72386 12 5 12H13C13.2761 12 13.5 11.7761 13.5 11.5C13.5 11.2239 13.2761 11 13 11H5Z" fill="#00164E"/>
<path d="M8 8C8 8.82843 7.32843 9.5 6.5 9.5C5.67157 9.5 5 8.82843 5 8C5 7.17157 5.67157 6.5 6.5 6.5C7.32843 6.5 8 7.17157 8 8Z" fill="#00164E"/>
<path d="M15.1464 14.1464C15.3417 13.9512 15.6583 13.9512 15.8536 14.1464L17 15.2929L18.1464 14.1464C18.3417 13.9512 18.6583 13.9512 18.8536 14.1464C19.0488 14.3417 19.0488 14.6583 18.8536 14.8536L17.7071 16L18.8536 17.1464C19.0488 17.3417 19.0488 17.6583 18.8536 17.8536C18.6583 18.0488 18.3417 18.0488 18.1464 17.8536L17 16.7071L15.8536 17.8536C15.6583 18.0488 15.3417 18.0488 15.1464 17.8536C14.9512 17.6583 14.9512 17.3417 15.1464 17.1464L16.2929 16L15.1464 14.8536C14.9512 14.6583 14.9512 14.3417 15.1464 14.1464Z" fill="#00164E"/>
<path fill-rule="evenodd" clip-rule="evenodd" d="M12 16C12 13.2386 14.2386 11 17 11C19.7614 11 22 13.2386 22 16C22 18.7614 19.7614 21 17 21C14.2386 21 12 18.7614 12 16ZM17 12C14.7909 12 13 13.7909 13 16C13 18.2091 14.7909 20 17 20C19.2091 20 21 18.2091 21 16C21 13.7909 19.2091 12 17 12Z" fill="#00164E"/>
</svg>
