<svg width="24" height="24" viewBox="0 0 24 24" fill="none" xmlns="http://www.w3.org/2000/svg">
<path fill-rule="evenodd" clip-rule="evenodd" d="M15.63 12C15.6376 12.914 15.421 13.8153 15 14.6252V19.5667C15 20.8799 13.4321 21.5592 12.4741 20.661L7.30228 15.8125H5.5C4.67157 15.8125 4 15.1409 4 14.3125V10.4687C4 9.64029 4.67157 8.96872 5.5 8.96872H7.28334L12.4056 3.50351C13.3355 2.51127 15 3.16936 15 4.52927V9.37478C15.421 10.1846 15.6376 11.0859 15.63 12ZM13.1352 4.18734C13.4452 3.8566 14 4.07596 14 4.52927V9.48939C13.9998 9.49673 13.9998 9.50409 14 9.51144V14.4885C13.9998 14.4959 13.9998 14.5032 14 14.5106V19.5667C14 20.0045 13.4774 20.2309 13.158 19.9315L7.84197 14.9477C7.7493 14.8608 7.62703 14.8125 7.5 14.8125H5.5C5.22386 14.8125 5 14.5886 5 14.3125V10.4687C5 10.1926 5.22386 9.96872 5.5 9.96872H7.5C7.63823 9.96872 7.77029 9.9115 7.86482 9.81064L13.1352 4.18734Z" fill="#00164E"/>
<path d="M16.4995 8.16162C16.7416 8.02879 17.0455 8.11738 17.1783 8.35948C17.8071 9.50563 18.1346 10.7927 18.13 12.1C18.1346 13.4073 17.8071 14.6943 17.1783 15.8405C17.0455 16.0826 16.7416 16.1712 16.4995 16.0383C16.2574 15.9055 16.1688 15.6016 16.3016 15.3595C16.8492 14.3613 17.1343 13.2404 17.13 12.1019V12.0981C17.1343 10.9596 16.8492 9.83865 16.3016 8.84047C16.1688 8.59837 16.2574 8.29444 16.4995 8.16162Z" fill="#00164E"/>
<path d="M18.9174 7.2579C18.7838 7.01628 18.4795 6.92878 18.2379 7.06248C17.9963 7.19617 17.9088 7.50042 18.0425 7.74204C18.7629 9.04417 19.1374 10.5093 19.13 11.9975L19.13 12.0025C19.1374 13.4906 18.7629 14.9558 18.0425 16.2579C17.9088 16.4995 17.9963 16.8038 18.2379 16.9375C18.4795 17.0712 18.7838 16.9837 18.9174 16.742C19.7203 15.291 20.1378 13.6583 20.13 12C20.1378 10.3416 19.7203 8.70896 18.9174 7.2579Z" fill="#00164E"/>
</svg>
