<svg width="24" height="24" viewBox="0 0 24 24" fill="none" xmlns="http://www.w3.org/2000/svg">
<path d="M11.5 15.5C11 15.5 11 15 11 15V13.5C11 12.3859 11.5625 11.9523 12.5938 11.3316C13.8437 10.5517 14.3906 10.122 14.3906 8.92838C14.3906 7.73475 13.5312 7.00265 12.0781 7.00265C10.75 7.00265 9.9375 7.67109 9.28125 8.61008C8.92218 8.78929 8.5 8.52816 8.5 8.12685V8.0053C9.34375 6.85942 10.4063 6 12.1406 6C14.1719 6 15.5 7.17772 15.5 8.86472C15.5 10.4244 14.625 11.1406 13.5 11.809C11.9843 12.7096 11.9861 12.9588 11.9977 14.5207C11.9988 14.6682 12 14.8274 12 15C12 15 12 15.5 11.5 15.5Z" fill="#00164E"/>
<path d="M12.25 17.25C12.25 17.6642 11.9142 18 11.5 18C11.0858 18 10.75 17.6642 10.75 17.25C10.75 16.8358 11.0858 16.5 11.5 16.5C11.9142 16.5 12.25 16.8358 12.25 17.25Z" fill="#00164E"/>
</svg>
