<svg width="24" height="24" viewBox="0 0 24 24" fill="none" xmlns="http://www.w3.org/2000/svg">
<path d="M10.5 8C10.5 7.72386 10.2761 7.5 10 7.5C9.72386 7.5 9.5 7.72386 9.5 8V9.62132H7.87868C7.60254 9.62132 7.37868 9.84518 7.37868 10.1213C7.37868 10.3975 7.60254 10.6213 7.87868 10.6213H9.5V12.2426C9.5 12.5188 9.72386 12.7426 10 12.7426C10.2761 12.7426 10.5 12.5188 10.5 12.2426V10.6213H12.1213C12.3975 10.6213 12.6213 10.3975 12.6213 10.1213C12.6213 9.84518 12.3975 9.62132 12.1213 9.62132H10.5V8Z" fill="#00164E"/>
<path fill-rule="evenodd" clip-rule="evenodd" d="M10 3C6.13401 3 3 6.13401 3 10C3 13.866 6.13401 17 10 17C11.7558 17 13.3607 16.3535 14.5895 15.2856C14.6062 15.3095 14.6251 15.3323 14.6464 15.3536L19.6464 20.3536C19.8417 20.5488 20.1583 20.5488 20.3536 20.3536C20.5488 20.1583 20.5488 19.8417 20.3536 19.6464L15.3536 14.6464C15.3323 14.6251 15.3095 14.6062 15.2856 14.5895C16.3535 13.3607 17 11.7558 17 10C17 6.13401 13.866 3 10 3ZM4 10C4 6.68629 6.68629 4 10 4C13.3137 4 16 6.68629 16 10C16 13.3137 13.3137 16 10 16C6.68629 16 4 13.3137 4 10Z" fill="#00164E"/>
</svg>
