<svg width="24" height="24" viewBox="0 0 24 24" fill="none" xmlns="http://www.w3.org/2000/svg">
<path d="M12 14C12.5523 14 13 13.5523 13 13C13 12.4477 12.5523 12 12 12C11.9104 12 11.8236 12.0118 11.741 12.0339L8.85355 9.14645C8.65829 8.95118 8.34171 8.95118 8.14645 9.14645C7.95118 9.34171 7.95118 9.65829 8.14645 9.85355L11.0339 12.741C11.0118 12.8236 11 12.9104 11 13C11 13.5523 11.4477 14 12 14Z" fill="#00164E"/>
<path fill-rule="evenodd" clip-rule="evenodd" d="M9.5 2C9.22386 2 9 2.22386 9 2.5C9 2.77614 9.22386 3 9.5 3H11.5V5.01537C7.31464 5.27347 4 8.74965 4 13C4 17.4183 7.58172 21 12 21C16.4183 21 20 17.4183 20 13C20 8.74965 16.6854 5.27347 12.5 5.01537V3H14.5C14.7761 3 15 2.77614 15 2.5C15 2.22386 14.7761 2 14.5 2H9.5ZM12 6C15.866 6 19 9.13401 19 13C19 16.866 15.866 20 12 20C8.13401 20 5 16.866 5 13C5 9.13401 8.13401 6 12 6Z" fill="#00164E"/>
</svg>
