<svg width="24" height="24" viewBox="0 0 24 24" fill="none" xmlns="http://www.w3.org/2000/svg">
<path fill-rule="evenodd" clip-rule="evenodd" d="M8.01388 9.05582C8.11447 9.01631 8.22196 8.99733 8.33 9H16.67C16.8823 9.00517 17.0843 9.09247 17.2335 9.24355C17.3827 9.39462 17.4675 9.59768 17.47 9.81V11.19C17.4674 11.4057 17.3798 11.6118 17.2263 11.7634C17.0728 11.915 16.8658 12 16.65 12H8.31C8.09517 12 7.88915 11.9147 7.73724 11.7628C7.58534 11.6109 7.5 11.4048 7.5 11.19V9.81C7.49997 9.70193 7.52156 9.59494 7.56351 9.49534C7.60546 9.39574 7.66692 9.30554 7.74427 9.23006C7.82162 9.15457 7.91329 9.09533 8.01388 9.05582ZM16.5 11V10H8.5V11H16.5Z" fill="#00164E"/>
<path d="M17.3135 14.1464C17.2197 14.0527 17.0926 14 16.96 14H7.95996C7.82735 14 7.70018 14.0527 7.60641 14.1464C7.51264 14.2402 7.45996 14.3674 7.45996 14.5C7.45996 14.6326 7.51264 14.7598 7.60641 14.8536C7.70018 14.9473 7.82735 15 7.95996 15H16.96C17.0926 15 17.2197 14.9473 17.3135 14.8536C17.4073 14.7598 17.46 14.6326 17.46 14.5C17.46 14.3674 17.4073 14.2402 17.3135 14.1464Z" fill="#00164E"/>
<path d="M7.60641 16.1464C7.70018 16.0527 7.82735 16 7.95996 16H16.96C17.0926 16 17.2197 16.0527 17.3135 16.1464C17.4073 16.2402 17.46 16.3674 17.46 16.5C17.46 16.6326 17.4073 16.7598 17.3135 16.8536C17.2197 16.9473 17.0926 17 16.96 17H7.95996C7.82735 17 7.70018 16.9473 7.60641 16.8536C7.51264 16.7598 7.45996 16.6326 7.45996 16.5C7.45996 16.3674 7.51264 16.2402 7.60641 16.1464Z" fill="#00164E"/>
<path fill-rule="evenodd" clip-rule="evenodd" d="M12.5 3C10.6211 3 8.78435 3.55717 7.22209 4.60104C5.65982 5.64491 4.44218 7.12861 3.72315 8.86451C3.00412 10.6004 2.81598 12.5105 3.18254 14.3534C3.5491 16.1962 4.45389 17.8889 5.78249 19.2175C7.11109 20.5461 8.80383 21.4509 10.6466 21.8175C12.4895 22.184 14.3996 21.9959 16.1355 21.2769C17.8714 20.5578 19.3551 19.3402 20.399 17.7779C21.4428 16.2157 22 14.3789 22 12.5C22 9.98044 20.9991 7.56408 19.2175 5.78249C17.4359 4.00089 15.0196 3 12.5 3ZM16 5C16 4.91086 15.9881 4.82295 15.9652 4.73838C16.4011 4.93302 16.8218 5.16489 17.2224 5.43251C18.6202 6.3665 19.7096 7.69402 20.353 9.24719C20.9963 10.8004 21.1647 12.5094 20.8367 14.1583C20.5087 15.8071 19.6992 17.3217 18.5104 18.5104C17.3217 19.6992 15.8071 20.5087 14.1583 20.8367C12.5094 21.1646 10.8004 20.9963 9.24719 20.353C7.69402 19.7096 6.3665 18.6202 5.43251 17.2223C4.49852 15.8245 4 14.1811 4 12.5C4.00265 10.2465 4.89903 8.086 6.49252 6.49252C7.23301 5.75202 8.09594 5.16207 9.03375 4.74238C9.01153 4.82571 9 4.91226 9 5C9 5.26522 9.10536 5.51957 9.29289 5.70711C9.48043 5.89464 9.73478 6 10 6H15C15.2652 6 15.5196 5.89464 15.7071 5.70711C15.8946 5.51957 16 5.26522 16 5Z" fill="#00164E"/>
</svg>
