<svg width="24" height="24" viewBox="0 0 24 24" fill="none" xmlns="http://www.w3.org/2000/svg">
<path fill-rule="evenodd" clip-rule="evenodd" d="M4.5 17C3.11929 17 2 15.8807 2 14.5V6.5C2 5.11929 3.11929 4 4.5 4H18.5C19.8807 4 21 5.11929 21 6.5V12C21 12.2761 20.7761 12.5 20.5 12.5C20.2239 12.5 20 12.2761 20 12V11H3V14.5C3 15.3284 3.67157 16 4.5 16H12C12.2761 16 12.5 16.2239 12.5 16.5C12.5 16.7761 12.2761 17 12 17H4.5ZM4.5 5C3.67157 5 3 5.67157 3 6.5V8H20V6.5C20 5.67157 19.3284 5 18.5 5H4.5Z" fill="#00164E"/>
<path d="M5 12.5C4.72386 12.5 4.5 12.7239 4.5 13C4.5 13.2761 4.72386 13.5 5 13.5H9C9.27614 13.5 9.5 13.2761 9.5 13C9.5 12.7239 9.27614 12.5 9 12.5H5Z" fill="#00164E"/>
<path d="M17.8536 19.3536L19.8536 17.3536C20.0488 17.1583 20.0488 16.8417 19.8536 16.6464C19.6583 16.4512 19.3417 16.4512 19.1464 16.6464L17.5 18.2929L16.8536 17.6464C16.6583 17.4512 16.3417 17.4512 16.1464 17.6464C15.9512 17.8417 15.9512 18.1583 16.1464 18.3536L17.1464 19.3536C17.3417 19.5488 17.6583 19.5488 17.8536 19.3536Z" fill="#00164E"/>
<path fill-rule="evenodd" clip-rule="evenodd" d="M14.1995 13.8494C16.7121 13.3835 19.2879 13.3835 21.8005 13.8494C22.0196 13.8901 22.1853 14.0708 22.2069 14.2925L22.465 16.9381C22.6174 18.3645 22.2693 19.8001 21.4806 20.9951C20.6913 22.1909 19.5105 23.0703 18.1432 23.4791C18.0498 23.507 17.9502 23.507 17.8568 23.4791C16.4895 23.0703 15.3087 22.1909 14.5194 20.9951C13.7307 19.8001 13.3826 18.3645 13.535 16.9381L13.7931 14.2925C13.8147 14.0708 13.9804 13.8901 14.1995 13.8494ZM14.7514 14.7677L14.5301 17.0375L14.5296 17.0423C14.4012 18.2391 14.6932 19.443 15.354 20.4442C15.987 21.4032 16.9196 22.1175 18 22.4758C19.0804 22.1175 20.013 21.4032 20.646 20.4442C21.3068 19.443 21.5988 18.2391 21.4704 17.0423L21.4699 17.0375L21.2486 14.7677C19.0973 14.4108 16.9027 14.4108 14.7514 14.7677Z" fill="#00164E"/>
</svg>
