<svg width="24" height="24" viewBox="0 0 24 24" fill="none" xmlns="http://www.w3.org/2000/svg">
<path d="M17.4999 2.8501C17.2237 2.8501 16.9999 3.07396 16.9999 3.3501C16.9999 3.62624 17.2237 3.8501 17.4999 3.8501H20.4999C20.776 3.8501 20.9999 3.62624 20.9999 3.3501C20.9999 3.07396 20.776 2.8501 20.4999 2.8501H17.4999Z" fill="#00164E"/>
<path d="M16.9999 5.3501C16.9999 5.07396 17.2237 4.8501 17.4999 4.8501H20.4999C20.776 4.8501 20.9999 5.07396 20.9999 5.3501C20.9999 5.62624 20.776 5.8501 20.4999 5.8501H17.4999C17.2237 5.8501 16.9999 5.62624 16.9999 5.3501Z" fill="#00164E"/>
<path d="M9.99988 11.9814C9.99972 11.9741 9.99971 11.9668 9.99988 11.9594V7.8501C9.99988 7.29781 9.55216 6.8501 8.99988 6.8501C8.44759 6.8501 7.99988 7.29781 7.99988 7.8501V15.3501C7.99988 15.6262 7.77602 15.8501 7.49988 15.8501C7.23301 15.8501 7.01497 15.641 7.00063 15.3777C6.97598 15.3627 6.9523 15.3454 6.92988 15.3257L5.524 14.0906C5.34635 13.9295 5.11339 13.8433 4.87369 13.8499C4.8662 13.8501 4.8587 13.8502 4.8512 13.85C4.7328 13.848 4.61519 13.8696 4.50524 13.9135C4.3953 13.9575 4.29523 14.023 4.21091 14.1061L4.20787 14.1091C4.12805 14.1865 4.06457 14.2791 4.02123 14.3815C3.9779 14.4838 3.95557 14.5939 3.95557 14.7051C3.95557 14.8163 3.9779 14.9263 4.02123 15.0287C4.06457 15.1311 4.12804 15.2237 4.20786 15.3011L4.21694 15.3099L8.81683 20C9.01019 20.1971 9.00713 20.5137 8.80998 20.7071C8.61284 20.9004 8.29627 20.8974 8.10291 20.7002L3.50698 16.0144C3.33326 15.8447 3.19503 15.6422 3.10036 15.4186C3.00478 15.1928 2.95557 14.9502 2.95557 14.7051C2.95557 14.46 3.00478 14.2174 3.10036 13.9916C3.19564 13.7666 3.33504 13.5629 3.51033 13.3926C3.68908 13.2167 3.90104 13.0782 4.13385 12.9851C4.36384 12.8931 4.60964 12.8472 4.85726 12.85C5.34935 12.8393 5.82707 13.0169 6.19258 13.3469L6.99988 14.0561V7.8501C6.99988 6.74553 7.89531 5.8501 8.99988 5.8501C10.1044 5.8501 10.9999 6.74553 10.9999 7.8501V11.5844L14.4207 12.4822C15.1392 12.6224 15.7878 13.0054 16.2575 13.5674C16.7311 14.134 16.9935 14.8473 16.9999 15.5858L16.9999 15.5901L16.9999 20.3501C16.9999 20.6262 16.776 20.8501 16.4999 20.8501C16.2237 20.8501 15.9999 20.6262 15.9999 20.3501V15.5923C15.995 15.0861 15.815 14.5972 15.4903 14.2087C15.1651 13.8197 14.7151 13.5556 14.217 13.4614L14.2127 13.4606L14.2071 13.4594C14.199 13.4577 14.1909 13.4558 14.1829 13.4537L10.9999 12.6183V13.3501C10.9999 13.6262 10.776 13.8501 10.4999 13.8501C10.2237 13.8501 9.99988 13.6262 9.99988 13.3501V11.9814Z" fill="#00164E"/>
<path d="M16.9999 7.3501C16.9999 7.07396 17.2237 6.8501 17.4999 6.8501H20.4999C20.776 6.8501 20.9999 7.07396 20.9999 7.3501C20.9999 7.62624 20.776 7.8501 20.4999 7.8501H17.4999C17.2237 7.8501 16.9999 7.62624 16.9999 7.3501Z" fill="#00164E"/>
<path d="M12.4999 4.8501C12.2237 4.8501 11.9999 5.07396 11.9999 5.3501C11.9999 5.62624 12.2237 5.8501 12.4999 5.8501H15.4999C15.776 5.8501 15.9999 5.62624 15.9999 5.3501C15.9999 5.07396 15.776 4.8501 15.4999 4.8501H12.4999Z" fill="#00164E"/>
<path d="M11.9999 3.3501C11.9999 3.07396 12.2237 2.8501 12.4999 2.8501H15.4999C15.776 2.8501 15.9999 3.07396 15.9999 3.3501C15.9999 3.62624 15.776 3.8501 15.4999 3.8501H12.4999C12.2237 3.8501 11.9999 3.62624 11.9999 3.3501Z" fill="#00164E"/>
<path d="M7.49988 2.8501C7.22374 2.8501 6.99988 3.07396 6.99988 3.3501C6.99988 3.62624 7.22374 3.8501 7.49988 3.8501H10.4999C10.776 3.8501 10.9999 3.62624 10.9999 3.3501C10.9999 3.07396 10.776 2.8501 10.4999 2.8501H7.49988Z" fill="#00164E"/>
<path d="M11.9999 7.3501C11.9999 7.07396 12.2237 6.8501 12.4999 6.8501H15.4999C15.776 6.8501 15.9999 7.07396 15.9999 7.3501C15.9999 7.62624 15.776 7.8501 15.4999 7.8501H12.4999C12.2237 7.8501 11.9999 7.62624 11.9999 7.3501Z" fill="#00164E"/>
</svg>
