<svg width="24" height="24" viewBox="0 0 24 24" fill="none" xmlns="http://www.w3.org/2000/svg">
<path d="M7.5 2C6.11929 2 5 3.11929 5 4.5V19.5C5 20.8807 6.11929 22 7.5 22H14.5C15.8807 22 17 20.8807 17 19.5V19C17 18.7239 16.7761 18.5 16.5 18.5C16.2239 18.5 16 18.7239 16 19V19.5C16 20.3284 15.3284 21 14.5 21H7.5C6.67157 21 6 20.3284 6 19.5V4.5C6 3.67157 6.67157 3 7.5 3H14.5C15.3284 3 16 3.67157 16 4.5V6C16 6.27614 16.2239 6.5 16.5 6.5C16.7761 6.5 17 6.27614 17 6V4.5C17 3.11929 15.8807 2 14.5 2H7.5Z" fill="#00164E"/>
<path d="M12 18.5C12 19.0523 11.5523 19.5 11 19.5C10.4477 19.5 10 19.0523 10 18.5C10 17.9477 10.4477 17.5 11 17.5C11.5523 17.5 12 17.9477 12 18.5Z" fill="#00164E"/>
<path d="M14.6464 10.6464C14.8417 10.4512 15.1583 10.4512 15.3536 10.6464L16.5 11.7929L17.6464 10.6464C17.8417 10.4512 18.1583 10.4512 18.3536 10.6464C18.5488 10.8417 18.5488 11.1583 18.3536 11.3536L17.2071 12.5L18.3536 13.6464C18.5488 13.8417 18.5488 14.1583 18.3536 14.3536C18.1583 14.5488 17.8417 14.5488 17.6464 14.3536L16.5 13.2071L15.3536 14.3536C15.1583 14.5488 14.8417 14.5488 14.6464 14.3536C14.4512 14.1583 14.4512 13.8417 14.6464 13.6464L15.7929 12.5L14.6464 11.3536C14.4512 11.1583 14.4512 10.8417 14.6464 10.6464Z" fill="#00164E"/>
<path fill-rule="evenodd" clip-rule="evenodd" d="M16.5 7.5C13.7386 7.5 11.5 9.73858 11.5 12.5C11.5 15.2614 13.7386 17.5 16.5 17.5C19.2614 17.5 21.5 15.2614 21.5 12.5C21.5 9.73858 19.2614 7.5 16.5 7.5ZM12.5 12.5C12.5 10.2909 14.2909 8.5 16.5 8.5C18.7091 8.5 20.5 10.2909 20.5 12.5C20.5 14.7091 18.7091 16.5 16.5 16.5C14.2909 16.5 12.5 14.7091 12.5 12.5Z" fill="#00164E"/>
</svg>
