<svg width="24" height="24" viewBox="0 0 24 24" fill="none" xmlns="http://www.w3.org/2000/svg">
<path fill-rule="evenodd" clip-rule="evenodd" d="M4.8 4C4.35817 4 4 4.35817 4 4.8V10.2C4 10.6418 4.35817 11 4.8 11H10.2C10.6418 11 11 10.6418 11 10.2V4.8C11 4.35817 10.6418 4 10.2 4H4.8ZM5 10V5H10V10H5Z" fill="#00164E"/>
<path fill-rule="evenodd" clip-rule="evenodd" d="M4.8 13C4.35817 13 4 13.3582 4 13.8V19.2C4 19.6418 4.35817 20 4.8 20H10.2C10.6418 20 11 19.6418 11 19.2V13.8C11 13.3582 10.6418 13 10.2 13H4.8ZM5 19V14H10V19H5Z" fill="#00164E"/>
<path fill-rule="evenodd" clip-rule="evenodd" d="M13.8 4C13.3582 4 13 4.35817 13 4.8V10.2C13 10.6418 13.3582 11 13.8 11H19.2C19.6418 11 20 10.6418 20 10.2V4.8C20 4.35817 19.6418 4 19.2 4H13.8ZM14 10V5H19V10H14Z" fill="#00164E"/>
<path d="M13.5 16C13.2239 16 13 16.2239 13 16.5C13 16.7761 13.2239 17 13.5 17H16V19.5C16 19.7761 16.2239 20 16.5 20C16.7761 20 17 19.7761 17 19.5V17H19.5C19.7761 17 20 16.7761 20 16.5C20 16.2239 19.7761 16 19.5 16H17V13.5C17 13.2239 16.7761 13 16.5 13C16.2239 13 16 13.2239 16 13.5V16H13.5Z" fill="#00164E"/>
</svg>
