<svg width="24" height="24" viewBox="0 0 24 24" fill="none" xmlns="http://www.w3.org/2000/svg">
<path fill-rule="evenodd" clip-rule="evenodd" d="M8 3.5C7.72386 3.5 7.5 3.27614 7.5 3C7.5 2.72386 7.72386 2.5 8 2.5H16C16.2761 2.5 16.5 2.72386 16.5 3C16.5 3.27614 16.2761 3.5 16 3.5H15.5V6.14494C16.9457 6.57521 18 7.91449 18 9.5V17.5C18 18.6926 17.4035 19.7459 16.4926 20.3778C16.4975 20.4178 16.5 20.4586 16.5 20.5V21.5C16.5 22.0523 16.0523 22.5 15.5 22.5H8.5C7.94772 22.5 7.5 22.0523 7.5 21.5V20.5C7.5 20.4586 7.50251 20.4178 7.50739 20.3778C6.59648 19.7459 6 18.6926 6 17.5V9.5C6 7.91449 7.05426 6.57521 8.5 6.14494V3.5H8ZM11 5C10.7239 5 10.5 4.77614 10.5 4.5C10.5 4.22386 10.7239 4 11 4H13C13.2761 4 13.5 4.22386 13.5 4.5C13.5 4.77614 13.2761 5 13 5H12.5V6H14.5V3.5H9.5V6H11.5V5H11ZM9.5 7C8.11929 7 7 8.11929 7 9.5H17C17 8.11929 15.8807 7 14.5 7H9.5ZM14.5 21C14.8475 21 15.1831 20.9494 15.5 20.8551V21.5H8.5V20.8551C8.81685 20.9494 9.15251 21 9.5 21H14.5ZM7 17.5C7 18.8807 8.11929 20 9.5 20H14.5C15.8807 20 17 18.8807 17 17.5H7ZM17 10.5H7V16.5H17V10.5Z" fill="#00164E"/>
</svg>
