<svg width="24" height="24" viewBox="0 0 24 24" fill="none" xmlns="http://www.w3.org/2000/svg">
<path fill-rule="evenodd" clip-rule="evenodd" d="M9.49987 2.5C9.49987 1.94772 9.94759 1.5 10.4999 1.5H13.4999C14.0522 1.5 14.4999 1.94772 14.4999 2.5V4.92691C15.378 5.2373 16.1808 5.70637 16.8737 6.29934L18.9771 5.08495C19.4554 4.8088 20.067 4.97268 20.3431 5.45097L21.8431 8.04905C22.1193 8.52734 21.9554 9.13893 21.4771 9.41507L19.3747 10.6289C19.457 11.0737 19.4999 11.5321 19.4999 12C19.4999 12.4679 19.457 12.9263 19.3747 13.3711L21.4771 14.5849C21.9554 14.8611 22.1193 15.4727 21.8431 15.951L20.3431 18.549C20.067 19.0273 19.4554 19.1912 18.9771 18.9151L16.8737 17.7007C16.1808 18.2936 15.378 18.7627 14.4999 19.0731V21.5C14.4999 22.0523 14.0522 22.5 13.4999 22.5H10.4999C9.94759 22.5 9.49987 22.0523 9.49987 21.5V19.0731C8.62171 18.7627 7.81899 18.2936 7.12603 17.7007L5.02263 18.9151C4.54434 19.1912 3.93275 19.0273 3.6566 18.549L2.1566 15.951C1.88046 15.4727 2.04434 14.8611 2.52263 14.5849L4.62501 13.3711C4.54279 12.9263 4.49987 12.468 4.49987 12C4.49987 11.5321 4.54279 11.0737 4.62501 10.6289L2.52263 9.41507C2.04433 9.13893 1.88046 8.52734 2.1566 8.04904L3.6566 5.45097C3.93275 4.97267 4.54434 4.8088 5.02263 5.08494L7.12602 6.29934C7.81898 5.70637 8.62171 5.2373 9.49987 4.92691V2.5ZM11.9999 8.5C10.0669 8.5 8.49987 10.067 8.49987 12C8.49987 13.933 10.0669 15.5 11.9999 15.5C13.9329 15.5 15.4999 13.933 15.4999 12C15.4999 10.067 13.9329 8.5 11.9999 8.5Z" fill="#00164E"/>
</svg>
