<svg width="24" height="24" viewBox="0 0 24 24" fill="none" xmlns="http://www.w3.org/2000/svg">
<path fill-rule="evenodd" clip-rule="evenodd" d="M7.05739 7.15519C6.77809 6.72176 6.56445 6.17534 6.56445 5.5C6.56445 4.00802 7.60715 3.14528 8.09707 2.73992C8.15005 2.69608 8.19671 2.65747 8.23473 2.62412C8.4234 2.45863 8.70551 2.45863 8.89417 2.62412C8.95153 2.67444 9.01523 2.72767 9.0833 2.78457C9.66445 3.2703 10.5645 4.02252 10.5645 5.5C10.5645 6.18868 10.3689 6.71978 10.1013 7.13977C10.2806 7.04787 10.4693 6.96781 10.6664 6.90102L11.7559 6.53176C12.0175 6.44312 12.308 6.5809 12.4049 6.83949C12.8188 7.94427 12.6381 9.09809 12.0358 10.0183C12.1995 10.0563 12.3425 10.1728 12.4049 10.3395C12.8188 11.4443 12.6381 12.5981 12.0358 13.5183C12.1995 13.5563 12.3425 13.6728 12.4049 13.8395C13.1388 15.7986 12.003 17.9118 9.96254 18.6034L9.06445 18.9077V21C9.06445 21.2761 8.8406 21.5 8.56445 21.5C8.28831 21.5 8.06445 21.2761 8.06445 21V18.9077L7.16635 18.6034C5.12587 17.9118 3.99004 15.7986 4.72399 13.8395C4.78643 13.6728 4.92934 13.5563 5.09308 13.5183C4.49082 12.5981 4.31009 11.4443 4.72399 10.3395C4.78643 10.1728 4.92934 10.0563 5.09308 10.0183C4.49082 9.09809 4.31009 7.94427 4.72399 6.83949C4.82087 6.5809 5.11142 6.44312 5.37295 6.53176L6.46253 6.90102C6.67056 6.97152 6.86919 7.0568 7.05739 7.15519ZM9.56445 5.5C9.56445 6.42328 9.09693 6.88349 8.5642 7.3414C8.092 6.9307 7.56445 6.38901 7.56445 5.5C7.56445 4.61099 8.092 4.0693 8.5642 3.6586C9.09693 4.11651 9.56445 4.57672 9.56445 5.5ZM7.51718 17.6669C6.11931 17.1932 5.3446 15.8949 5.54313 14.6448L6.1117 14.8375C7.50957 15.3112 8.28428 16.6095 8.08576 17.8596L7.51718 17.6669ZM11.5858 14.6448C11.7843 15.8949 11.0096 17.1932 9.61171 17.6669L9.04313 17.8596C8.84461 16.6095 9.61932 15.3112 11.0172 14.8375L11.5858 14.6448ZM7.51718 14.1669C6.11931 13.6932 5.3446 12.3949 5.54313 11.1448L6.1117 11.3375C7.50957 11.8112 8.28428 13.1095 8.08576 14.3596L7.51718 14.1669ZM5.54313 7.64477C5.3446 8.8949 6.11931 10.1932 7.51718 10.6669L8.08576 10.8596C8.28428 9.60947 7.50957 8.31119 6.1117 7.83746L5.54313 7.64477ZM9.61171 14.1669C11.0096 13.6932 11.7843 12.3949 11.5858 11.1448L11.0172 11.3375C9.61932 11.8112 8.84461 13.1095 9.04313 14.3596L9.61171 14.1669ZM11.5858 7.64477C11.7843 8.8949 11.0096 10.1932 9.61171 10.6669L9.04313 10.8596C8.84461 9.60947 9.61932 8.31119 11.0172 7.83746L11.5858 7.64477Z" fill="#00164E"/>
<path fill-rule="evenodd" clip-rule="evenodd" d="M18.9293 12.4071C19.0307 12.465 19.1132 12.5567 19.1567 12.6727C19.4754 13.5235 19.3585 14.4071 18.9292 15.1295C19.0306 15.1873 19.1132 15.279 19.1567 15.3951C19.7515 16.983 18.829 18.6849 17.1908 19.2401L16.5645 19.4523V21C16.5645 21.2761 16.3406 21.5 16.0645 21.5C15.7883 21.5 15.5645 21.2761 15.5645 21V19.4523L14.9381 19.2401C13.2999 18.6849 12.3774 16.983 12.9722 15.3951C13.0157 15.279 13.0983 15.1873 13.1997 15.1295C12.7704 14.4071 12.6535 13.5235 12.9722 12.6727C13.0157 12.5567 13.0982 12.465 13.1996 12.4071C12.7704 11.6848 12.6535 10.8013 12.9722 9.95055C13.0691 9.69196 13.3597 9.55418 13.6212 9.64281L14.4687 9.93002C14.5235 9.94862 14.5776 9.9685 14.6309 9.98963C14.4916 9.69454 14.3977 9.34759 14.3977 8.94444C14.3977 7.72756 15.2529 7.0227 15.6314 6.71071L15.6463 6.69844C15.6505 6.69492 15.6547 6.69146 15.6589 6.68805C15.6878 6.66416 15.7133 6.64286 15.7347 6.62412C15.9233 6.45863 16.2054 6.45863 16.3941 6.62412C16.4371 6.66183 16.4856 6.70225 16.5379 6.74591C16.9897 7.12248 17.731 7.74037 17.731 8.94444C17.731 9.354 17.6453 9.69574 17.5143 9.98322C17.5623 9.96447 17.6109 9.94672 17.6602 9.93002L18.5077 9.64281C18.7692 9.55418 19.0598 9.69196 19.1567 9.95055C19.4754 10.8013 19.3585 11.6848 18.9293 12.4071ZM16.731 8.94444C16.731 9.57265 16.44 9.89851 16.0649 10.2283C15.7271 9.92435 15.3977 9.54501 15.3977 8.94444C15.3977 8.34387 15.7271 7.96453 16.0649 7.66054C16.44 7.99038 16.731 8.31624 16.731 8.94444ZM15.2889 18.3036C14.2982 17.9679 13.7371 17.0813 13.8094 16.2065L14.1178 16.311C15.1085 16.6468 15.6696 17.5334 15.5974 18.4082L15.2889 18.3036ZM18.3195 16.2065C18.3918 17.0813 17.8307 17.9679 16.84 18.3036L16.5315 18.4082C16.4593 17.5334 17.0204 16.6468 18.0111 16.311L18.3195 16.2065ZM15.2889 15.5812C14.2982 15.2455 13.7371 14.3589 13.8094 13.4841L14.1178 13.5886C15.1085 13.9244 15.6696 14.8109 15.5974 15.6858L15.2889 15.5812ZM13.8094 10.7619C13.7371 11.6367 14.2982 12.5233 15.2889 12.8591L15.5974 12.9636C15.6696 12.0888 15.1085 11.2022 14.1178 10.8665L13.8094 10.7619ZM16.84 15.5812C17.8307 15.2455 18.3918 14.3589 18.3195 13.4841L18.0111 13.5886C17.0204 13.9244 16.4593 14.8109 16.5315 15.6858L16.84 15.5812ZM18.3195 10.7619C18.3918 11.6367 17.8307 12.5233 16.84 12.8591L16.5315 12.9636C16.4593 12.0888 17.0204 11.2022 18.0111 10.8665L18.3195 10.7619Z" fill="#00164E"/>
</svg>
