<svg width="24" height="24" viewBox="0 0 24 24" fill="none" xmlns="http://www.w3.org/2000/svg">
<path d="M8.5 11.5C8.77614 11.5 9 11.7239 9 12V14C9 14.2761 8.77614 14.5 8.5 14.5C8.22386 14.5 8 14.2761 8 14V12C8 11.7239 8.22386 11.5 8.5 11.5Z" fill="#00164E"/>
<path d="M19 12C19 11.7239 18.7761 11.5 18.5 11.5C18.2239 11.5 18 11.7239 18 12V14C18 14.2761 18.2239 14.5 18.5 14.5C18.7761 14.5 19 14.2761 19 14V12Z" fill="#00164E"/>
<path fill-rule="evenodd" clip-rule="evenodd" d="M13.5 10.5C12.1193 10.5 11 11.6193 11 13C11 14.3807 12.1193 15.5 13.5 15.5C14.8807 15.5 16 14.3807 16 13C16 11.6193 14.8807 10.5 13.5 10.5ZM12 13C12 12.1716 12.6716 11.5 13.5 11.5C14.3284 11.5 15 12.1716 15 13C15 13.8284 14.3284 14.5 13.5 14.5C12.6716 14.5 12 13.8284 12 13Z" fill="#00164E"/>
<path fill-rule="evenodd" clip-rule="evenodd" d="M5 8.5C5 7.94772 5.44772 7.5 6 7.5H21C21.5523 7.5 22 7.94772 22 8.5V17.5C22 18.0523 21.5523 18.5 21 18.5H6C5.44772 18.5 5 18.0523 5 17.5V8.5ZM19.5858 9.91421C19.9609 10.2893 20.4696 10.5 21 10.5V8.5H19C19 9.03043 19.2107 9.53914 19.5858 9.91421ZM8.12132 10.6213C8.68393 10.0587 9 9.29565 9 8.5H18C18 9.29565 18.3161 10.0587 18.8787 10.6213C19.4413 11.1839 20.2044 11.5 21 11.5V14.5C20.2044 14.5 19.4413 14.8161 18.8787 15.3787C18.3161 15.9413 18 16.7044 18 17.5H9C9 16.7044 8.68393 15.9413 8.12132 15.3787C7.55871 14.8161 6.79565 14.5 6 14.5V11.5C6.79565 11.5 7.55871 11.1839 8.12132 10.6213ZM19.5858 16.0858C19.9609 15.7107 20.4696 15.5 21 15.5V17.5H19C19 16.9696 19.2107 16.4609 19.5858 16.0858ZM7.41422 16.0858C7.78929 16.4609 8 16.9696 8 17.5H6V15.5C6.53043 15.5 7.03914 15.7107 7.41422 16.0858ZM7.41422 9.91421C7.03914 10.2893 6.53043 10.5 6 10.5V8.5L8 8.5C8 9.03043 7.78929 9.53914 7.41422 9.91421Z" fill="#00164E"/>
<path d="M0 10.5C0 10.2239 0.223858 10 0.5 10H3.5C3.77614 10 4 10.2239 4 10.5C4 10.7761 3.77614 11 3.5 11H0.5C0.223858 11 0 10.7761 0 10.5Z" fill="#00164E"/>
<path d="M1 12.5C1 12.2239 1.22386 12 1.5 12H3.5C3.77614 12 4 12.2239 4 12.5C4 12.7761 3.77614 13 3.5 13H1.5C1.22386 13 1 12.7761 1 12.5Z" fill="#00164E"/>
<path d="M2.5 14C2.22386 14 2 14.2239 2 14.5C2 14.7761 2.22386 15 2.5 15H3.5C3.77614 15 4 14.7761 4 14.5C4 14.2239 3.77614 14 3.5 14H2.5Z" fill="#00164E"/>
</svg>
