<svg width="24" height="24" viewBox="0 0 24 24" fill="none" xmlns="http://www.w3.org/2000/svg">
<path fill-rule="evenodd" clip-rule="evenodd" d="M9.5 10C9.5 8.61929 10.6193 7.5 12 7.5C13.3807 7.5 14.5 8.61929 14.5 10C14.5 11.3807 13.3807 12.5 12 12.5C10.6193 12.5 9.5 11.3807 9.5 10ZM12 8.5C11.1716 8.5 10.5 9.17157 10.5 10C10.5 10.8284 11.1716 11.5 12 11.5C12.8284 11.5 13.5 10.8284 13.5 10C13.5 9.17157 12.8284 8.5 12 8.5Z" fill="#00164E"/>
<path d="M10.5 14C10.2239 14 10 14.2239 10 14.5C10 14.7761 10.2239 15 10.5 15H13.5C13.7761 15 14 14.7761 14 14.5C14 14.2239 13.7761 14 13.5 14H10.5Z" fill="#00164E"/>
<path fill-rule="evenodd" clip-rule="evenodd" d="M20 6.5C20 7.32843 19.3284 8 18.5 8H18V18C18 18.5523 17.5523 19 17 19H7C6.44772 19 6 18.5523 6 18V8H5.5C4.67166 8 4 7.32864 4 6.50013V4.4997C4 3.67107 4.67177 3 5.5 3H18.5C19.3284 3 20 3.67157 20 4.5V6.5ZM5.5 7C5.22377 7 5 6.77619 5 6.50013V4.4997C5 4.22375 5.22366 4 5.5 4H18.5C18.7761 4 19 4.22386 19 4.5V6.5C19 6.77614 18.7761 7 18.5 7H18V5H6V7H5.5ZM9.12132 15.8787C8.55871 15.3161 7.79565 15 7 15V6H17V15C16.2044 15 15.4413 15.3161 14.8787 15.8787C14.3161 16.4413 14 17.2044 14 18H10C10 17.2044 9.68393 16.4413 9.12132 15.8787ZM8.41422 16.5858C8.78929 16.9609 9 17.4696 9 18H7V16C7.53043 16 8.03914 16.2107 8.41422 16.5858ZM15.5858 16.5858C15.2107 16.9609 15 17.4696 15 18H17V16C16.4696 16 15.9609 16.2107 15.5858 16.5858Z" fill="#00164E"/>
<path d="M7 20C6.72386 20 6.5 20.2239 6.5 20.5C6.5 20.7761 6.72386 21 7 21H17C17.2761 21 17.5 20.7761 17.5 20.5C17.5 20.2239 17.2761 20 17 20H7Z" fill="#00164E"/>
</svg>
