<svg width="24" height="24" viewBox="0 0 24 24" fill="none" xmlns="http://www.w3.org/2000/svg">
<path fill-rule="evenodd" clip-rule="evenodd" d="M6.06301 6.5C6.28503 7.36261 7.06808 8 8 8C9.10457 8 10 7.10457 10 6C10 4.89543 9.10457 4 8 4C7.06808 4 6.28503 4.63739 6.06301 5.5H2.5C2.22386 5.5 2 5.72386 2 6C2 6.27614 2.22386 6.5 2.5 6.5H6.06301ZM7 6C7 5.44772 7.44772 5 8 5C8.55228 5 9 5.44772 9 6C9 6.55228 8.55228 7 8 7C7.44772 7 7 6.55228 7 6Z" fill="#00164E"/>
<path d="M11.5 5.5C11.2239 5.5 11 5.72386 11 6C11 6.27614 11.2239 6.5 11.5 6.5H21.5C21.7761 6.5 22 6.27614 22 6C22 5.72386 21.7761 5.5 21.5 5.5H11.5Z" fill="#00164E"/>
<path d="M2.5 11.5C2.22386 11.5 2 11.7239 2 12C2 12.2761 2.22386 12.5 2.5 12.5H13.5C13.7761 12.5 14 12.2761 14 12C14 11.7239 13.7761 11.5 13.5 11.5H2.5Z" fill="#00164E"/>
<path fill-rule="evenodd" clip-rule="evenodd" d="M18.937 11.5C18.715 10.6374 17.9319 10 17 10C15.8954 10 15 10.8954 15 12C15 13.1046 15.8954 14 17 14C17.9319 14 18.715 13.3626 18.937 12.5H21.5C21.7761 12.5 22 12.2761 22 12C22 11.7239 21.7761 11.5 21.5 11.5H18.937ZM17 11C16.4477 11 16 11.4477 16 12C16 12.5523 16.4477 13 17 13C17.5523 13 18 12.5523 18 12C18 11.4477 17.5523 11 17 11Z" fill="#00164E"/>
<path d="M15.5 17.5C15.2239 17.5 15 17.7239 15 18C15 18.2761 15.2239 18.5 15.5 18.5H21.5C21.7761 18.5 22 18.2761 22 18C22 17.7239 21.7761 17.5 21.5 17.5H15.5Z" fill="#00164E"/>
<path fill-rule="evenodd" clip-rule="evenodd" d="M12 20C11.0681 20 10.285 19.3626 10.063 18.5H2.5C2.22386 18.5 2 18.2761 2 18C2 17.7239 2.22386 17.5 2.5 17.5H10.063C10.285 16.6374 11.0681 16 12 16C13.1046 16 14 16.8954 14 18C14 19.1046 13.1046 20 12 20ZM11 18C11 17.4477 11.4477 17 12 17C12.5523 17 13 17.4477 13 18C13 18.5523 12.5523 19 12 19C11.4477 19 11 18.5523 11 18Z" fill="#00164E"/>
</svg>
