<svg width="24" height="24" viewBox="0 0 24 24" fill="none" xmlns="http://www.w3.org/2000/svg">
<path fill-rule="evenodd" clip-rule="evenodd" d="M10.117 2C9.54412 2 9.00319 2.24495 8.60799 2.66695L8.60674 2.66829C8.41209 2.87767 8.25958 3.12472 8.15617 3.39413C8.05278 3.66352 8 3.95124 8 4.24094C8 4.53065 8.05278 4.81831 8.15617 5.08768C8.25958 5.35709 8.41209 5.60414 8.60674 5.81352C8.61069 5.81777 8.61472 5.82196 8.61882 5.82607L11.636 8.85298C11.831 9.04855 12.1475 9.04906 12.3431 8.85413L15.38 5.82722C15.3845 5.82274 15.3889 5.81817 15.3933 5.81352C15.5879 5.60414 15.7404 5.35709 15.8438 5.08768C15.9472 4.81831 16 4.53065 16 4.24094C16 3.95124 15.9472 3.66352 15.8438 3.39413C15.7404 3.12472 15.5879 2.87767 15.3933 2.66829L15.392 2.66695C14.9968 2.24496 14.4559 2 13.883 2C13.3105 2 12.7699 2.24462 12.3748 2.66611L12 3.06282L11.6253 2.66609C11.2301 2.24462 10.6895 2 10.117 2ZM9.08977 3.75247C9.14861 3.59917 9.23379 3.46266 9.33852 3.34983C9.55392 3.12017 9.83437 3 10.117 3C10.4 3 10.6807 3.12041 10.8962 3.3505L11.6365 4.13429C11.731 4.23428 11.8625 4.29094 12 4.29094C12.1376 4.29094 12.269 4.23428 12.3635 4.13429L13.1024 3.35208L13.1039 3.3505C13.3194 3.1204 13.6001 3 13.883 3C14.1656 3 14.4461 3.12016 14.6615 3.34981C14.7662 3.46265 14.8514 3.59916 14.9102 3.75247C14.9692 3.90609 15 4.07224 15 4.24094C15 4.40961 14.9692 4.5757 14.9102 4.72934C14.8524 4.88006 14.7691 5.01455 14.6667 5.12627L11.9913 7.7929L9.33376 5.12681C9.23121 5.01499 9.14771 4.88031 9.08977 4.72934C9.0308 4.5757 9 4.40961 9 4.24094C9 4.07224 9.0308 3.90609 9.08977 3.75247Z" fill="#00164E"/>
<path fill-rule="evenodd" clip-rule="evenodd" d="M11 11.5C11 12.6909 10.4052 13.7429 9.49644 14.3751C10.1994 14.649 10.8453 15.0671 11.3891 15.6109C11.6148 15.8366 11.8189 16.08 12 16.3377C12.1811 16.08 12.3852 15.8366 12.6109 15.6109C13.1547 15.0671 13.8006 14.649 14.5036 14.3751C13.5948 13.7429 13 12.6909 13 11.5C13 9.567 14.567 8 16.5 8C18.433 8 20 9.567 20 11.5C20 12.6909 19.4052 13.7429 18.4964 14.3751C19.1994 14.649 19.8453 15.0671 20.3891 15.6109C21.4205 16.6424 22 18.0413 22 19.5V20C22 20.5304 21.7893 21.0391 21.4142 21.4142C21.0391 21.7893 20.5304 22 20 22H13C12.6459 22 12.3015 21.9061 12 21.7321C11.6985 21.9061 11.3541 22 11 22H4C3.46957 22 2.96086 21.7893 2.58579 21.4142C2.21071 21.0391 2 20.5304 2 20V19.5C2 18.0413 2.57946 16.6424 3.61091 15.6109C4.15469 15.0671 4.8006 14.649 5.50356 14.3751C4.59481 13.7429 4 12.6909 4 11.5C4 9.567 5.567 8 7.5 8C9.433 8 11 9.567 11 11.5ZM5 11.5C5 10.1193 6.11929 9 7.5 9C8.88071 9 10 10.1193 10 11.5C10 12.8807 8.88071 14 7.5 14C6.11929 14 5 12.8807 5 11.5ZM4.31802 16.318C5.16193 15.4741 6.30653 15 7.5 15C8.69347 15 9.83807 15.4741 10.682 16.318C11.5259 17.1619 12 18.3065 12 19.5V20C12 20.2652 11.8946 20.5196 11.7071 20.7071C11.5196 20.8946 11.2652 21 11 21H4C3.73478 21 3.48043 20.8946 3.29289 20.7071C3.10536 20.5196 3 20.2652 3 20V19.5C3 18.3065 3.47411 17.1619 4.31802 16.318ZM19 11.5C19 12.8807 17.8807 14 16.5 14C15.1193 14 14 12.8807 14 11.5C14 10.1193 15.1193 9 16.5 9C17.8807 9 19 10.1193 19 11.5ZM13.318 16.318C14.1619 15.4741 15.3065 15 16.5 15C17.6935 15 18.8381 15.4741 19.682 16.318C20.5259 17.1619 21 18.3065 21 19.5V20C21 20.2652 20.8946 20.5196 20.7071 20.7071C20.5196 20.8946 20.2652 21 20 21H13C12.9149 21 12.831 20.9892 12.75 20.9682C12.9125 20.6745 13 20.3417 13 20V19.5C13 18.7481 12.846 18.0121 12.5556 17.334C12.7586 16.9643 13.0144 16.6217 13.318 16.318Z" fill="#00164E"/>
</svg>
