<svg width="24" height="24" viewBox="0 0 24 24" fill="none" xmlns="http://www.w3.org/2000/svg">
<path fill-rule="evenodd" clip-rule="evenodd" d="M7.56266 10.7301L10.0529 9.70077V8.71287C10.0529 8.53475 10.0637 8.35775 10.0864 8.18026L10.6224 3.89629C10.6907 3.18397 11.2434 2.55261 12.0002 2.55261C12.757 2.55261 13.3098 3.18396 13.378 3.89629L13.914 8.17963C13.9367 8.35718 13.9476 8.53569 13.9476 8.71287V9.71013L16.2357 10.7352C16.2497 10.7415 16.2633 10.7484 16.2765 10.7561C16.4308 10.8451 16.5786 10.943 16.721 11.0514L20.163 13.6576C20.7458 14.0729 21.0162 14.8673 20.6378 15.5227C20.2594 16.1781 19.4362 16.3411 18.7852 16.044L14.8078 14.3665C14.6426 14.2974 14.4826 14.2176 14.3291 14.129C14.3096 14.1178 14.291 14.105 14.2734 14.091L13.0313 13.0976L13.9437 19.9408C13.9464 19.9607 13.9477 19.9805 13.9477 20H18.5001C18.7763 20 19.0001 20.2238 19.0001 20.5C19.0001 20.7761 18.7763 21 18.5001 21H5.50012C5.22398 21 5.00012 20.7761 5.00012 20.5C5.00012 20.2238 5.22398 20 5.50012 20H10.0529C10.0529 19.9805 10.0542 19.9607 10.0568 19.9408L10.9736 13.0655L9.4908 14.1076C9.47993 14.1152 9.46874 14.1224 9.45724 14.129C9.3038 14.2176 9.14373 14.2974 8.97863 14.3665L5.00116 16.044C4.35015 16.3411 3.527 16.1781 3.14861 15.5227C2.77022 14.8673 3.04061 14.0729 3.62339 13.6576L7.06538 11.0514C7.20775 10.943 7.35561 10.8451 7.50987 10.7561C7.52687 10.7463 7.54451 10.7376 7.56266 10.7301ZM11.5128 3.98517C11.544 3.63954 11.7894 3.44735 12.0002 3.44735C12.211 3.44735 12.4564 3.63954 12.4877 3.98517L12.4893 4.00042L13.0263 8.29197L13.0265 8.29322C13.0442 8.43191 13.0529 8.57203 13.0529 8.71287V9.36162C12.7413 9.16142 12.3764 9.05261 12.0002 9.05261C11.6241 9.05261 11.2592 9.16142 10.9476 9.36162V8.71287C10.9476 8.5712 10.9562 8.43196 10.974 8.29322L10.9741 8.29197L11.5111 4.00042L11.5128 3.98517ZM13.049 20L12.1082 12.9444C12.0723 12.9463 12.0363 12.9473 12.0002 12.9473C11.9642 12.9473 11.9282 12.9463 11.8924 12.9444L10.9516 20H13.049ZM10.0529 10.6689L7.93253 11.5454C7.8189 11.6122 7.71078 11.6846 7.607 11.7636L7.606 11.7644L4.1579 14.3752L4.14552 14.3843C3.86183 14.5841 3.81808 14.8928 3.92348 15.0753C4.02887 15.2579 4.31802 15.3743 4.63297 15.2285L4.64699 15.2223L8.63209 13.5416L8.63325 13.5411C8.75633 13.4896 8.8764 13.4303 8.99311 13.3638L10.5336 12.2811C10.2246 11.9274 10.0529 11.4725 10.0529 11V10.6689ZM13.457 12.2923C13.7722 11.9371 13.9476 11.4776 13.9476 11V10.6906L15.8484 11.5421C15.964 11.6099 16.0739 11.6833 16.1794 11.7636L16.1804 11.7644L19.6285 14.3752L19.6409 14.3843C19.9246 14.5841 19.9683 14.8928 19.8629 15.0753C19.7575 15.2579 19.4684 15.3743 19.1534 15.2285L19.1394 15.2223L15.1543 13.5416L15.1531 13.5411C15.0342 13.4914 14.918 13.4343 14.805 13.3704L13.457 12.2923ZM13.0529 11C13.0529 10.7208 12.942 10.4531 12.7445 10.2557C12.5471 10.0583 12.2794 9.94735 12.0002 9.94735C11.7211 9.94735 11.4533 10.0583 11.2559 10.2557C11.0585 10.4531 10.9476 10.7208 10.9476 11C10.9476 11.2792 11.0585 11.5469 11.2559 11.7443C11.4533 11.9417 11.7211 12.0526 12.0002 12.0526C12.2794 12.0526 12.5471 11.9417 12.7445 11.7443C12.942 11.5469 13.0529 11.2792 13.0529 11Z" fill="#00164E"/>
</svg>
