<svg width="24" height="24" viewBox="0 0 24 24" fill="none" xmlns="http://www.w3.org/2000/svg">
<path fill-rule="evenodd" clip-rule="evenodd" d="M4.5 4C3.11929 4 2 5.11929 2 6.5V14.5C2 15.8807 3.11929 17 4.5 17H11C11.2761 17 11.5 16.7761 11.5 16.5C11.5 16.2239 11.2761 16 11 16H4.5C3.67157 16 3 15.3284 3 14.5V11H20V11.5C20 11.7761 20.2239 12 20.5 12C20.7761 12 21 11.7761 21 11.5V6.5C21 5.11929 19.8807 4 18.5 4H4.5ZM3 6.5C3 5.67157 3.67157 5 4.5 5H18.5C19.3284 5 20 5.67157 20 6.5V8H3V6.5Z" fill="#00164E"/>
<path d="M4.5 13C4.5 12.7239 4.72386 12.5 5 12.5H9C9.27614 12.5 9.5 12.7239 9.5 13C9.5 13.2761 9.27614 13.5 9 13.5H5C4.72386 13.5 4.5 13.2761 4.5 13Z" fill="#00164E"/>
<path fill-rule="evenodd" clip-rule="evenodd" d="M17.5 12.0908C14.7888 12.0908 12.5909 14.2887 12.5909 16.9999C12.5909 19.7111 14.7888 21.909 17.5 21.909C20.2113 21.909 22.4091 19.7111 22.4091 16.9999C22.4091 14.2887 20.2113 12.0908 17.5 12.0908ZM14.1782 15.4585C13.9791 15.5309 13.7914 15.6117 13.6196 15.7011C14.0259 14.4866 14.9866 13.5259 16.2011 13.1195C16.1117 13.2913 16.0309 13.479 15.9585 13.6781C15.8083 14.0911 15.6872 14.5727 15.6013 15.1014C15.0727 15.1872 14.5911 15.3084 14.1782 15.4585ZM15.4979 15.9502C15.1091 16.024 14.7586 16.1181 14.4579 16.2274C14.0767 16.366 13.7971 16.5214 13.6204 16.6733C13.4423 16.8264 13.4091 16.9381 13.4091 16.9999C13.4091 17.0618 13.4423 17.1737 13.6204 17.3268C13.7971 17.4787 14.0767 17.6341 14.4579 17.7727C14.7586 17.882 15.1091 17.9761 15.4979 18.0499C15.4695 17.7111 15.4546 17.3596 15.4546 16.9999C15.4546 16.6404 15.4695 16.289 15.4979 15.9502ZM16.3306 18.1695C16.2931 17.7994 16.2728 17.4072 16.2728 16.9999C16.2728 16.5928 16.2931 16.2006 16.3306 15.8306C16.7007 15.7931 17.0928 15.7728 17.5 15.7728C17.9072 15.7728 18.2994 15.7931 18.6695 15.8306C18.707 16.2006 18.7273 16.5928 18.7273 16.9999C18.7273 17.4072 18.707 17.7994 18.6695 18.1695C18.2994 18.207 17.9072 18.2273 17.5 18.2273C17.0928 18.2273 16.7007 18.207 16.3306 18.1695ZM15.6014 18.8987C15.0727 18.8129 14.5912 18.6917 14.1782 18.5416C13.9792 18.4692 13.7915 18.3884 13.6197 18.299C14.0261 19.5134 14.9867 20.474 16.2011 20.8803C16.1117 20.7085 16.0309 20.5208 15.9585 20.3217C15.8084 19.9088 15.6872 19.4273 15.6014 18.8987ZM17.5 21.0908C17.4382 21.0908 17.3264 21.0576 17.1733 20.8796C17.0214 20.7029 16.866 20.4232 16.7274 20.0421C16.6181 19.7414 16.524 19.3909 16.4502 19.0022C16.789 19.0306 17.1404 19.0455 17.5 19.0455C17.8596 19.0455 18.2111 19.0306 18.5498 19.0022C18.4761 19.3909 18.382 19.7414 18.2727 20.0421C18.1341 20.4232 17.9787 20.7029 17.8268 20.8796C17.6737 21.0576 17.5619 21.0908 17.5 21.0908ZM18.799 20.8803C18.8884 20.7085 18.9692 20.5208 19.0416 20.3217C19.1917 19.9088 19.3129 19.4273 19.3987 18.8987C19.9274 18.8129 20.4089 18.6917 20.8218 18.5416C21.0209 18.4692 21.2086 18.3884 21.3804 18.299C20.974 19.5134 20.0134 20.4739 18.799 20.8803ZM19.5022 18.0499C19.891 17.9761 20.2414 17.882 20.5422 17.7727C20.9233 17.6341 21.203 17.4787 21.3797 17.3268C21.5578 17.1737 21.5909 17.0618 21.5909 16.9999C21.5909 16.9381 21.5578 16.8264 21.3797 16.6733C21.203 16.5214 20.9233 16.366 20.5422 16.2274C20.2415 16.1181 19.891 16.024 19.5022 15.9502C19.5306 16.289 19.5455 16.6404 19.5455 16.9999C19.5455 17.3596 19.5306 17.7111 19.5022 18.0499ZM19.3988 15.1014C19.9274 15.1872 20.4089 15.3084 20.8218 15.4585C21.0209 15.5309 21.2087 15.6117 21.3805 15.7011C20.9741 14.4866 20.0135 13.5259 18.799 13.1195C18.8884 13.2913 18.9692 13.479 19.0416 13.6781C19.1917 14.0911 19.3129 14.5727 19.3988 15.1014ZM18.5499 14.9979C18.2111 14.9695 17.8597 14.9546 17.5 14.9546C17.1404 14.9546 16.789 14.9695 16.4502 14.9979C16.5239 14.6091 16.618 14.2585 16.7274 13.9577C16.866 13.5766 17.0214 13.297 17.1733 13.1202C17.3264 12.9422 17.4382 12.909 17.5 12.909C17.5619 12.909 17.6737 12.9422 17.8268 13.1202C17.9787 13.297 18.1341 13.5766 18.2727 13.9577C18.382 14.2585 18.4761 14.6091 18.5499 14.9979Z" fill="#00164E"/>
</svg>
