<svg width="24" height="24" viewBox="0 0 24 24" fill="none" xmlns="http://www.w3.org/2000/svg">
<path fill-rule="evenodd" clip-rule="evenodd" d="M6.08398 18.2227L7.56575 16H6.5C4.567 16 3 14.433 3 12.5C3 10.567 4.567 9 6.5 9H7C7 7.61054 7.56823 6.47088 8.49497 5.68639C9.41378 4.90862 10.6591 4.5 12 4.5C13.3409 4.5 14.5862 4.90862 15.505 5.68639C16.4318 6.47088 17 7.61054 17 9H17.5C19.433 9 21 10.567 21 12.5C21 14.433 19.433 16 17.5 16H16.7676L14.916 18.7774C14.7629 19.0071 14.4524 19.0692 14.2227 18.916C13.9929 18.7628 13.9308 18.4524 14.084 18.2227L15.5658 16H12.7676L10.916 18.7774C10.7629 19.0071 10.4524 19.0692 10.2227 18.916C9.99289 18.7628 9.93081 18.4524 10.084 18.2227L11.5658 16H8.7676L6.91603 18.7774C6.76286 19.0071 6.45242 19.0692 6.22266 18.916C5.99289 18.7628 5.93081 18.4524 6.08398 18.2227ZM8 9C8 7.90417 8.43913 7.04384 9.14107 6.44965C9.85094 5.84874 10.8556 5.5 12 5.5C13.1444 5.5 14.1491 5.84874 14.8589 6.44965C15.5609 7.04384 16 7.90417 16 9C16 9.15061 15.9917 9.2991 15.9756 9.44506L15.9142 10H17.5C18.8807 10 20 11.1193 20 12.5C20 13.8807 18.8807 15 17.5 15H6.5C5.11929 15 4 13.8807 4 12.5C4 11.1193 5.11929 10 6.5 10H8.08578L8.02444 9.44506C8.0083 9.2991 8 9.15061 8 9Z" fill="#00164E"/>
</svg>
