<svg width="24" height="24" viewBox="0 0 24 24" fill="none" xmlns="http://www.w3.org/2000/svg">
<path d="M19.6464 3.64645C19.8417 3.45118 20.1583 3.45118 20.3536 3.64645C20.5488 3.84171 20.5488 4.15829 20.3536 4.35355L3.35355 21.3536C3.15829 21.5488 2.84171 21.5488 2.64645 21.3536C2.45118 21.1583 2.45118 20.8417 2.64645 20.6464L19.6464 3.64645Z" fill="#00164E"/>
<path d="M14.5822 5.6263L15.4664 6.41227L14.7581 7.1206L14.0599 6.5H10.1754L7.81235 8.39043C7.72369 8.46136 7.61354 8.5 7.5 8.5H4.5C4.22386 8.5 4 8.72386 4 9V17C4 17.2386 4.16711 17.4381 4.39067 17.488L3.64562 18.2331C3.25546 17.9622 3 17.5109 3 17V9C3 8.17157 3.67157 7.5 4.5 7.5H7.32461L9.68765 5.60957C9.77631 5.53864 9.88646 5.5 10 5.5H14.25C14.3725 5.5 14.4907 5.54494 14.5822 5.6263Z" fill="#00164E"/>
<path d="M18.6213 7.5L17.6213 8.5H19.5C19.7761 8.5 20 8.72386 20 9V17C20 17.2761 19.7761 17.5 19.5 17.5H16.2428C17.0282 16.5491 17.5 15.3296 17.5 14C17.5 12.5121 16.9092 11.1621 15.9493 10.172L15.2421 10.8793C16.021 11.6883 16.5 12.7882 16.5 14C16.5 16.4853 14.4853 18.5 12 18.5C10.7882 18.5 9.6883 18.021 8.87925 17.2421L7.62132 18.5H8.5C8.58968 18.5 8.67385 18.4764 8.74663 18.435C9.65773 19.1045 10.7827 19.5 12 19.5C13.2173 19.5 14.3423 19.1045 15.2534 18.435C15.3261 18.4764 15.4103 18.5 15.5 18.5H19.5C20.3284 18.5 21 17.8284 21 17V9C21 8.17157 20.3284 7.5 19.5 7.5H18.6213Z" fill="#00164E"/>
<path d="M13.2386 8.64004C12.8405 8.54841 12.4259 8.5 12 8.5C8.96243 8.5 6.5 10.9624 6.5 14C6.5 14.4259 6.54841 14.8405 6.64004 15.2386L7.51452 14.3642C7.5049 14.244 7.5 14.1226 7.5 14C7.5 11.5147 9.51472 9.5 12 9.5C12.1226 9.5 12.244 9.5049 12.3642 9.51452L13.2386 8.64004Z" fill="#00164E"/>
<path d="M11.3109 10.5678C9.93069 10.8434 8.84342 11.9307 8.56783 13.3109L11.3109 10.5678Z" fill="#00164E"/>
<path d="M9.58653 16.5348C10.2145 17.1329 11.0644 17.5 12 17.5C13.933 17.5 15.5 15.933 15.5 14C15.5 13.0644 15.1329 12.2145 14.5348 11.5865L13.8274 12.2939C14.2446 12.7407 14.5 13.3405 14.5 14C14.5 15.3807 13.3807 16.5 12 16.5C11.3405 16.5 10.7407 16.2446 10.2939 15.8274L9.58653 16.5348Z" fill="#00164E"/>
</svg>
