<svg width="24" height="24" viewBox="0 0 24 24" fill="none" xmlns="http://www.w3.org/2000/svg">
<path d="M5.85355 4.14645C6.04882 4.34171 6.04882 4.65829 5.85355 4.85355L3.70711 7H7.51383C8.03009 7.01428 8.53082 7.17986 8.95402 7.47588C9.36297 7.76194 9.68216 8.15783 9.87505 8.61734L10.9195 10.228C11.0698 10.4596 11.0037 10.7693 10.772 10.9195C10.5404 11.0698 10.2307 11.0037 10.0805 10.772L9.01049 9.12205C8.99255 9.09439 8.9774 9.06503 8.96524 9.03439C8.84693 8.73617 8.64374 8.47921 8.38084 8.29531C8.11971 8.11266 7.81105 8.01006 7.49263 8H3.70711L5.85355 10.1464C6.04882 10.3417 6.04882 10.6583 5.85355 10.8536C5.65829 11.0488 5.34171 11.0488 5.14645 10.8536L2.14645 7.85355C1.95118 7.65829 1.95118 7.34171 2.14645 7.14645L5.14645 4.14645C5.34171 3.95118 5.65829 3.95118 5.85355 4.14645Z" fill="#00164E"/>
<path d="M18.1464 4.14645C18.3417 3.95118 18.6583 3.95118 18.8536 4.14645L21.8536 7.14645C22.0488 7.34171 22.0488 7.65829 21.8536 7.85355L18.8536 10.8536C18.6583 11.0488 18.3417 11.0488 18.1464 10.8536C17.9512 10.6583 17.9512 10.3417 18.1464 10.1464L20.2929 8H17.0024C16.6011 8.00403 16.2071 8.10823 15.8562 8.30316C15.5072 8.49707 15.2118 8.77463 14.9967 9.11087L9.93247 17.7509L9.93195 17.7518C9.8851 17.8326 9.83475 17.9229 9.78101 18.0193C9.59161 18.3591 9.36001 18.7746 9.0905 19.1144C8.7362 19.5612 8.22519 20 7.5 20H2.5C2.22386 20 2 19.7761 2 19.5C2 19.2239 2.22386 19 2.5 19H7.5C7.77481 19 8.0288 18.8438 8.307 18.4931C8.52097 18.2233 8.69587 17.9101 8.87832 17.5835C8.93993 17.4732 9.0024 17.3613 9.06753 17.2491L9.06864 17.2472L14.1386 8.59717C14.1416 8.59205 14.1447 8.58699 14.1479 8.58198C14.4529 8.10167 14.8732 7.70531 15.3706 7.429C15.8679 7.15269 16.4265 7.00522 16.9954 7.00002L17 7H20.2929L18.1464 4.85355C17.9512 4.65829 17.9512 4.34171 18.1464 4.14645Z" fill="#00164E"/>
<path d="M13.9472 16.2764C13.8237 16.0294 13.5234 15.9293 13.2764 16.0528C13.0294 16.1763 12.9293 16.4766 13.0528 16.7236L14.0526 18.7237L14.0587 18.735C14.2958 19.1803 14.6656 19.5407 15.1168 19.7664C15.5559 19.9859 16.0508 20.0672 16.5364 20H21.5C21.7761 20 22 19.7761 22 19.5C22 19.2239 21.7761 19 21.5 19H16.5C16.4743 19 16.4486 19.002 16.4232 19.0059C16.1298 19.0515 15.8296 19.0047 15.564 18.8719C15.3003 18.7401 15.0838 18.5299 14.9441 18.2702L13.9472 16.2764Z" fill="#00164E"/>
</svg>
