<svg width="24" height="24" viewBox="0 0 24 24" fill="none" xmlns="http://www.w3.org/2000/svg">
<path d="M16.8633 8.16157C17.061 8.33101 17.0839 8.62861 16.9144 8.82629L10.8964 15.8474C10.8109 15.9471 10.6878 16.0066 10.5565 16.0116C10.4253 16.0167 10.298 15.9668 10.2051 15.8739L7.19609 12.8649C7.01199 12.6808 7.01199 12.3823 7.19609 12.1982C7.38019 12.0141 7.67867 12.0141 7.86277 12.1982L10.5118 14.8473L16.1986 8.21271C16.368 8.01503 16.6656 7.99214 16.8633 8.16157Z" fill="#00164E"/>
<path fill-rule="evenodd" clip-rule="evenodd" d="M2.04297 12.03C2.04297 6.50718 6.52012 2.03003 12.043 2.03003C17.5658 2.03003 22.043 6.50718 22.043 12.03C22.043 17.5529 17.5658 22.03 12.043 22.03C6.52012 22.03 2.04297 17.5529 2.04297 12.03ZM12.043 2.97286C7.04083 2.97286 2.9858 7.02789 2.9858 12.03C2.9858 17.0322 7.04083 21.0872 12.043 21.0872C17.0451 21.0872 21.1001 17.0322 21.1001 12.03C21.1001 7.02789 17.0451 2.97286 12.043 2.97286Z" fill="#00164E"/>
</svg>
