<svg width="24" height="24" viewBox="0 0 24 24" fill="none" xmlns="http://www.w3.org/2000/svg">
<path d="M10 19.5C10 19.2239 10.2239 19 10.5 19H13.5C13.7761 19 14 19.2239 14 19.5C14 19.7761 13.7761 20 13.5 20H10.5C10.2239 20 10 19.7761 10 19.5Z" fill="#00164E"/>
<path fill-rule="evenodd" clip-rule="evenodd" d="M5.5 2C4.11929 2 3 3.11929 3 4.5V19.5C3 20.8807 4.11929 22 5.5 22H18.5C19.8807 22 21 20.8807 21 19.5V4.5C21 3.11929 19.8807 2 18.5 2H5.5ZM4 4.5C4 3.67157 4.67157 3 5.5 3H18.5C19.3284 3 20 3.67157 20 4.5V19.5C20 20.3284 19.3284 21 18.5 21H5.5C4.67157 21 4 20.3284 4 19.5V4.5Z" fill="#00164E"/>
</svg>
