<svg width="24" height="24" viewBox="0 0 24 24" fill="none" xmlns="http://www.w3.org/2000/svg">
<path d="M13 5C13 5.55228 12.5523 6 12 6C11.4477 6 11 5.55228 11 5C11 4.44772 11.4477 4 12 4C12.5523 4 13 4.44772 13 5Z" fill="#00164E"/>
<path fill-rule="evenodd" clip-rule="evenodd" d="M11.7465 2.06903C11.903 1.97699 12.097 1.97699 12.2535 2.06903L20.7535 7.06903C20.9479 7.18339 21.0417 7.41375 20.9824 7.63137C20.9232 7.84899 20.7255 8 20.5 8H20V9.5C20 9.77614 19.7761 10 19.5 10H19V17H19.5C19.7761 17 20 17.2239 20 17.5V19H20.5C20.7761 19 21 19.2239 21 19.5V21H21.5C21.7761 21 22 21.2239 22 21.5C22 21.7761 21.7761 22 21.5 22H2.5C2.22386 22 2 21.7761 2 21.5C2 21.2239 2.22386 21 2.5 21H3V19.5C3 19.2239 3.22386 19 3.5 19H4V17.5C4 17.2239 4.22386 17 4.5 17H5V10H4.5C4.22386 10 4 9.77614 4 9.5V8H3.5C3.27445 8 3.07683 7.84899 3.01757 7.63137C2.95831 7.41375 3.05208 7.18339 3.24649 7.06903L11.7465 2.06903ZM12 3.08009L18.6638 7H5.33615L12 3.08009ZM5 9V8H19V9H5ZM13.5 10H16V17H13.5V10ZM11.5 17V10H12.5V17H11.5ZM8 10H10.5V17H8V10ZM6 10H7V17H6V10ZM17 10H18V17H17V10ZM4 20V21H20V20H4ZM19 19V18H5V19H19Z" fill="#00164E"/>
</svg>
