<svg width="24" height="24" viewBox="0 0 24 24" fill="none" xmlns="http://www.w3.org/2000/svg">
<path d="M6.5 6.00003C6.77614 6.00003 7 6.22389 7 6.50003V9.50003C7 9.77617 6.77614 10 6.5 10C6.22386 10 6 9.77617 6 9.50003V6.50003C6 6.22389 6.22386 6.00003 6.5 6.00003Z" fill="#00164E"/>
<path fill-rule="evenodd" clip-rule="evenodd" d="M3.70142 3.0324C3.71757 3.03082 3.73379 3.03003 3.75002 3.03003H12.25C12.2662 3.03003 12.2825 3.03082 12.2986 3.0324C12.7931 3.08069 13.2488 3.32179 13.5669 3.7035C13.8801 4.07942 14.0352 4.56194 14 5.04943V6.50731L20.6187 11.449C21.0472 11.7682 21.3955 12.1834 21.6353 12.6609C21.8751 13.1385 22 13.6656 22 14.2V21.5C22 21.7762 21.7762 22 21.5 22C21.2239 22 21 21.7762 21 21.5V14.2C21 13.8214 20.9115 13.448 20.7416 13.1096C20.5717 12.7712 20.3251 12.4772 20.0214 12.2511L14 7.75529V16.0106C14.0352 16.4981 13.8801 16.9806 13.5669 17.3566C13.2488 17.7383 12.7931 17.9794 12.2986 18.0277L12.1577 17.9194C12.152 17.9157 12.1464 17.9119 12.1409 17.908L8.09088 15.038C8.07203 15.0246 8.05412 15.01 8.0373 14.9941C7.85735 14.8248 7.62163 14.7273 7.37479 14.7201C7.10747 14.7224 6.85142 14.8285 6.66085 15.0162C6.57072 15.1047 6.49842 15.2109 6.44954 15.3273C6.40066 15.4437 6.37549 15.5688 6.37549 15.695C6.37549 15.8213 6.40066 15.9463 6.44954 16.0627C6.49842 16.1792 6.57002 16.2847 6.66015 16.3731L6.66392 16.3768L11.4239 21.1468C11.619 21.3423 11.6186 21.6589 11.4232 21.854C11.2277 22.049 10.9111 22.0487 10.716 21.8532L6.90088 18.03H3.75002C3.73379 18.03 3.71757 18.0292 3.70142 18.0277C3.20689 17.9794 2.75128 17.7383 2.43318 17.3566C2.11992 16.9806 1.96485 16.4981 2.00002 16.0106V5.04942C1.96485 4.56194 2.11992 4.07942 2.43318 3.7035C2.75128 3.32179 3.20689 3.08069 3.70142 3.0324ZM5.90412 17.03C5.74515 16.8608 5.61753 16.6643 5.52749 16.4498C5.42716 16.2108 5.37549 15.9542 5.37549 15.695C5.37549 15.4358 5.42716 15.1792 5.52749 14.9402C5.62775 14.7014 5.7746 14.4849 5.95944 14.3035C6.33798 13.9308 6.84754 13.7213 7.37877 13.72L7.39152 13.7202C7.87498 13.7313 8.33776 13.9164 8.69535 14.2407L9 14.4566V4.03003H3.77709C3.55255 4.05748 3.34657 4.16949 3.2014 4.34368C3.05161 4.52343 2.97863 4.75494 2.99826 4.98809C2.99943 5.00204 3.00002 5.01603 3.00002 5.03003V16.03C3.00002 16.044 2.99943 16.058 2.99826 16.072C2.97863 16.3051 3.05161 16.5366 3.2014 16.7164C3.34657 16.8906 3.55255 17.0026 3.77709 17.03H5.90412ZM11 15.8739L12.5102 16.944C12.6201 16.8896 12.7186 16.8124 12.7986 16.7164C12.9484 16.5366 13.0214 16.3051 13.0018 16.072C13.0006 16.058 13 16.044 13 16.03V5.03003C13 5.01603 13.0006 5.00204 13.0018 4.98809C13.0214 4.75494 12.9484 4.52343 12.7986 4.34368C12.6535 4.16949 12.4475 4.05748 12.223 4.03003H11V15.8739Z" fill="#00164E"/>
<path d="M12.25 18.03C12.2662 18.03 12.2825 18.0292 12.2986 18.0277L12.25 18.03Z" fill="#00164E"/>
</svg>
