<svg width="24" height="24" viewBox="0 0 24 24" fill="none" xmlns="http://www.w3.org/2000/svg">
<path d="M4.98001 12C5.5323 12 5.98001 11.5523 5.98001 11C5.98001 10.4477 5.5323 10 4.98001 10C4.42773 10 3.98001 10.4477 3.98001 11C3.98001 11.5523 4.42773 12 4.98001 12Z" fill="#00164E"/>
<path d="M19.3536 13.8536C19.5488 13.6583 19.5488 13.3417 19.3536 13.1464C19.1583 12.9512 18.8417 12.9512 18.6464 13.1464L17 14.7929L16.3536 14.1464C16.1583 13.9512 15.8417 13.9512 15.6464 14.1464C15.4512 14.3417 15.4512 14.6583 15.6464 14.8536L16.6464 15.8536C16.8417 16.0488 17.1583 16.0488 17.3536 15.8536L19.3536 13.8536Z" fill="#00164E"/>
<path fill-rule="evenodd" clip-rule="evenodd" d="M13 5C16.0561 5 18.5785 7.28485 18.9523 10.2395C20.7249 10.8436 22 12.5229 22 14.5C22 16.9853 19.9853 19 17.5 19C15.921 19 14.5319 18.1867 13.7288 16.9562C13.4899 16.9851 13.2467 17 13 17H8C4.68629 17 2 14.3137 2 11C2 7.68629 4.68629 5 8 5H13ZM3 11C3 8.23858 5.23858 6 8 6H13C15.4253 6 17.4472 7.72672 17.9036 10.0179C17.7706 10.006 17.636 10 17.5 10C16.974 10 16.4692 10.0902 16 10.2561V9.8C16 9.35817 15.6418 9 15.2 9H7.8C7.35817 9 7 9.35817 7 9.8V12.2C7 12.6418 7.35817 13 7.8 13H13.2561C13.0902 13.4692 13 13.974 13 14.5C13 15.0236 13.0894 15.5263 13.2538 15.9937C13.1698 15.9979 13.0851 16 13 16H8C5.23858 16 3 13.7614 3 11ZM15 10.7578C14.5091 11.0864 14.0864 11.5091 13.7578 12H8V10H15V10.7578ZM17.5 11C15.567 11 14 12.567 14 14.5C14 16.433 15.567 18 17.5 18C19.433 18 21 16.433 21 14.5C21 12.567 19.433 11 17.5 11Z" fill="#00164E"/>
</svg>
