<svg width="24" height="24" viewBox="0 0 24 24" fill="none" xmlns="http://www.w3.org/2000/svg">
<path d="M12.3203 7.85C11.3891 7.85 10.818 8.31774 10.3792 8.91371L10.35 8.95339V9.06343C10.35 9.37554 10.6783 9.57863 10.9576 9.43925L10.9917 9.42222L11.0135 9.39097C11.3251 8.94526 11.691 8.65133 12.289 8.65133C12.6288 8.65133 12.8798 8.73697 13.0433 8.87392C13.2034 9.0081 13.2953 9.2045 13.2953 9.46419C13.2953 9.73541 13.2346 9.9022 13.1149 10.047C12.9866 10.202 12.7838 10.3411 12.4685 10.5379C12.2129 10.6917 11.9926 10.835 11.8396 11.0197C11.6792 11.2132 11.6 11.442 11.6 11.75V12.5003L11.6 12.5014L11.6 12.5031L11.6001 12.5078L11.6008 12.5214C11.6016 12.5323 11.6031 12.5467 11.6059 12.5637C11.6115 12.597 11.6228 12.6436 11.6471 12.6921C11.6716 12.7411 11.7107 12.7947 11.7722 12.8357C11.8347 12.8774 11.9112 12.9 12 12.9C12.0887 12.9 12.1653 12.8774 12.2277 12.8357C12.2892 12.7947 12.3284 12.7411 12.3529 12.6921C12.3771 12.6436 12.3885 12.597 12.394 12.5637C12.3969 12.5467 12.3983 12.5323 12.3991 12.5214L12.3998 12.5078L12.3999 12.5031L12.4 12.5014L12.4 12.5C12.4 12.4131 12.3994 12.3329 12.3988 12.2592C12.3974 12.0615 12.3964 11.9152 12.4066 11.7951C12.4167 11.6772 12.4368 11.5953 12.4718 11.5262C12.5431 11.3855 12.6931 11.2613 13.0766 11.0335C13.3609 10.8646 13.6312 10.6799 13.8289 10.4282C14.0305 10.1715 14.15 9.85391 14.15 9.43236C14.15 8.96857 13.9662 8.56844 13.639 8.28627C13.3135 8.00562 12.8565 7.85 12.3203 7.85Z" fill="#00164E"/>
<path d="M12 13.35C11.71 13.35 11.475 13.5851 11.475 13.875C11.475 14.1649 11.71 14.4 12 14.4C12.2899 14.4 12.525 14.1649 12.525 13.875C12.525 13.5851 12.2899 13.35 12 13.35Z" fill="#00164E"/>
<path fill-rule="evenodd" clip-rule="evenodd" d="M2 11C2 14.3137 4.68629 17 8 17H9V18.5C9 18.6659 9.0823 18.821 9.21969 18.914C9.35707 19.007 9.53165 19.0259 9.6857 18.9642L14.5963 17H16C19.3137 17 22 14.3137 22 11C22 7.68629 19.3137 5 16 5H8C4.68629 5 2 7.68629 2 11ZM8 6C5.23858 6 3 8.23858 3 11C3 13.7614 5.23858 16 8 16H9.5C9.77614 16 10 16.2239 10 16.5V17.7615L14.3038 16.04C14.3351 16.0266 14.3681 16.0163 14.4024 16.0095C14.4387 16.0022 14.4752 15.9992 14.5114 16H16C18.7614 16 21 13.7614 21 11C21 8.23858 18.7614 6 16 6H8Z" fill="#00164E"/>
</svg>
