<svg width="24" height="24" viewBox="0 0 24 24" fill="none" xmlns="http://www.w3.org/2000/svg">
<path fill-rule="evenodd" clip-rule="evenodd" d="M16.4637 14.2212L20.3278 15.2275C20.4704 15.2647 20.5894 15.3629 20.6529 15.4959C20.7165 15.6289 20.7181 15.7832 20.6573 15.9175C20.1997 16.9293 19.5558 17.8769 18.7265 18.7084C17.2809 20.158 15.4821 21.0437 13.606 21.3639C13.46 21.3889 13.3104 21.3477 13.1976 21.2516C13.0848 21.1555 13.0205 21.0143 13.0219 20.8661L13.0607 16.9432C13.0571 16.9338 13.0537 16.9242 13.0506 16.9144C12.9665 16.6514 13.1115 16.37 13.3746 16.2859C14.037 16.0742 14.6601 15.7051 15.1862 15.1776C15.4274 14.9358 15.635 14.674 15.8093 14.3976C15.9493 14.1756 16.2352 14.1015 16.4637 14.2212ZM16.4392 15.2482L19.481 16.0404C19.1005 16.7442 18.6131 17.406 18.0185 18.0023C16.8767 19.1471 15.4908 19.8981 14.028 20.2558L14.0592 17.1013C14.7278 16.8317 15.354 16.4256 15.8943 15.8838C16.0945 15.683 16.2762 15.4704 16.4392 15.2482Z" fill="#00164E"/>
<path fill-rule="evenodd" clip-rule="evenodd" d="M20.8693 13.2749C21.0086 13.3024 21.153 13.2693 21.2665 13.184C21.3799 13.0986 21.4518 12.9691 21.4641 12.8277C21.6991 10.1253 20.7804 7.33976 18.7085 5.2734C17.2621 3.83087 15.4656 2.95066 13.5931 2.63373C13.4502 2.60955 13.3038 2.64855 13.1919 2.74064C13.08 2.83272 13.0136 2.96883 13.0098 3.11371L12.9077 7.03529C12.9041 7.17594 12.9588 7.30453 13.05 7.39779C13.0994 7.54255 13.2144 7.66283 13.3714 7.71287C14.0312 7.92329 14.6524 8.28976 15.1777 8.81366C16.0047 9.6384 16.4436 10.7037 16.4949 11.7854C16.479 11.8202 16.4669 11.8574 16.4592 11.8967C16.4058 12.1676 16.5822 12.4305 16.8531 12.4839L20.8693 13.2749ZM17.4847 11.5891L20.4981 12.1826C20.5251 10.9161 20.2709 9.64522 19.7356 8.47137L17.3751 10.8319C17.4292 11.0819 17.4658 11.335 17.4847 11.5891ZM17.0272 9.76561C16.7596 9.16311 16.3784 8.59886 15.8838 8.1056C15.6652 7.88756 15.4327 7.69165 15.1891 7.51792L17.3296 5.37741C17.5617 5.56473 17.7864 5.76607 18.0023 5.98146C18.4911 6.46893 18.9082 7.00106 19.2535 7.56476C19.2152 7.5865 19.1791 7.61371 19.1464 7.6464L17.0272 9.76561ZM13.994 3.73579C14.8695 3.94609 15.718 4.29706 16.5039 4.78893L14.2934 6.99939C14.1683 6.94201 14.0414 6.88957 13.9131 6.84207L13.994 3.73579Z" fill="#00164E"/>
<path fill-rule="evenodd" clip-rule="evenodd" d="M10.4344 21.3708C10.5777 21.3946 10.7243 21.3549 10.836 21.2621C10.9477 21.1693 11.0135 21.0324 11.0163 20.8872L11.0924 16.9613C11.0947 16.8423 11.0552 16.7321 10.9874 16.645C10.945 16.4841 10.8234 16.3479 10.6529 16.2946C9.984 16.0855 9.35403 15.7165 8.82229 15.1862C7.06257 13.4312 7.05874 10.5819 8.81373 8.82222C9.34858 8.28593 9.9838 7.91341 10.6586 7.70344C10.8407 7.64676 10.9673 7.49547 11.0011 7.32041C11.0523 7.24014 11.0811 7.14441 11.079 7.04212L11.0006 3.11501C10.9977 2.96969 10.9317 2.83283 10.8198 2.74007C10.7079 2.6473 10.5611 2.60783 10.4178 2.63192C8.53313 2.94867 6.72526 3.83576 5.27346 5.29147C1.56847 9.00644 1.57656 15.0215 5.29153 18.7265C6.74504 20.1761 8.55201 21.0578 10.4344 21.3708ZM10.0127 3.73421L10.0749 6.84652C9.35593 7.11464 8.68203 7.53815 8.10567 8.11606C5.96068 10.2668 5.96537 13.7492 8.11614 15.8942C8.69392 16.4705 9.3688 16.8921 10.0883 17.1583L10.0281 20.2694C8.55188 19.9189 7.15136 19.169 5.99768 18.0184C2.67376 14.7034 2.66652 9.32155 5.98151 5.99763C7.13387 4.84217 8.53493 4.08792 10.0127 3.73421Z" fill="#00164E"/>
</svg>
