<svg width="24" height="24" viewBox="0 0 24 24" fill="none" xmlns="http://www.w3.org/2000/svg">
<path fill-rule="evenodd" clip-rule="evenodd" d="M2 6.5C2 5.94772 2.44772 5.5 3 5.5H18C18.5523 5.5 19 5.94772 19 6.5V10C19 10.2761 18.7761 10.5 18.5 10.5C18.2239 10.5 18 10.2761 18 10V9.5C17.2044 9.5 16.4413 9.18393 15.8787 8.62132C15.3161 8.05871 15 7.29565 15 6.5H6C6 7.29565 5.68393 8.05871 5.12132 8.62132C4.55871 9.18393 3.79565 9.5 3 9.5V12.5C3.79565 12.5 4.55871 12.8161 5.12132 13.3787C5.68393 13.9413 6 14.7044 6 15.5H11C11.2761 15.5 11.5 15.7239 11.5 16C11.5 16.2761 11.2761 16.5 11 16.5H3C2.44772 16.5 2 16.0523 2 15.5V6.5ZM16.5858 7.91421C16.2107 7.53914 16 7.03043 16 6.5H18V8.5C17.4696 8.5 16.9609 8.28929 16.5858 7.91421ZM3 6.5L5 6.5C5 7.03043 4.78929 7.53914 4.41422 7.91421C4.03914 8.28929 3.53043 8.5 3 8.5V6.5ZM4.41422 14.0858C4.78929 14.4609 5 14.9696 5 15.5H3V13.5C3.53043 13.5 4.03914 13.7107 4.41422 14.0858Z" fill="#00164E"/>
<path d="M5.5 9.5C5.77614 9.5 6 9.72386 6 10V12C6 12.2761 5.77614 12.5 5.5 12.5C5.22386 12.5 5 12.2761 5 12V10C5 9.72386 5.22386 9.5 5.5 9.5Z" fill="#00164E"/>
<path d="M15.5 9.5C15.7761 9.5 16 9.72386 16 10V10.5C16 10.7761 15.7761 11 15.5 11C15.2239 11 15 10.7761 15 10.5V10C15 9.72386 15.2239 9.5 15.5 9.5Z" fill="#00164E"/>
<path fill-rule="evenodd" clip-rule="evenodd" d="M10.5 8.5C9.11929 8.5 8 9.61929 8 11C8 12.3807 9.11929 13.5 10.5 13.5C11.8807 13.5 13 12.3807 13 11C13 9.61929 11.8807 8.5 10.5 8.5ZM9 11C9 10.1716 9.67157 9.5 10.5 9.5C11.3284 9.5 12 10.1716 12 11C12 11.8284 11.3284 12.5 10.5 12.5C9.67157 12.5 9 11.8284 9 11Z" fill="#00164E"/>
<path d="M16.5 16C16.5 16.1326 16.5527 16.2598 16.6464 16.3536L17.6464 17.3536C17.8417 17.5488 18.1583 17.5488 18.3536 17.3536C18.5488 17.1583 18.5488 16.8417 18.3536 16.6464L17.5 15.7929V13.5C17.5 13.2239 17.2761 13 17 13C16.7239 13 16.5 13.2239 16.5 13.5V16Z" fill="#00164E"/>
<path fill-rule="evenodd" clip-rule="evenodd" d="M12 16C12 13.2386 14.2386 11 17 11C19.7614 11 22 13.2386 22 16C22 18.7614 19.7614 21 17 21C14.2386 21 12 18.7614 12 16ZM17 12C14.7909 12 13 13.7909 13 16C13 18.2091 14.7909 20 17 20C19.2091 20 21 18.2091 21 16C21 13.7909 19.2091 12 17 12Z" fill="#00164E"/>
</svg>
