<svg width="24" height="24" viewBox="0 0 24 24" fill="none" xmlns="http://www.w3.org/2000/svg">
<path fill-rule="evenodd" clip-rule="evenodd" d="M12.0002 1.97925C10.9578 1.97925 9.92679 2.19656 8.97304 2.61731C8.02083 3.03738 7.1665 3.65103 6.46436 4.41919L6.27771 4.61563L6.27478 4.61877C4.80487 6.19289 3.9873 8.26631 3.9873 10.42C3.9873 12.5737 4.80486 14.6472 6.27477 16.2213L11.5735 21.8205L11.5802 21.8271C11.6924 21.937 11.8431 21.9986 12.0002 21.9986C12.1573 21.9986 12.3081 21.937 12.4202 21.8271L12.4269 21.8205L17.7234 16.2237L17.7257 16.2213C19.1956 14.6472 20.0131 12.5737 20.0131 10.42C20.0131 8.26631 19.1956 6.19288 17.7257 4.61876L17.5361 4.41919C16.8339 3.65103 15.9796 3.03738 15.0274 2.61731C14.0737 2.19656 13.0427 1.97925 12.0002 1.97925ZM12.0002 14.5C14.4855 14.5 16.5002 12.4853 16.5002 10C16.5002 7.51472 14.4855 5.5 12.0002 5.5C9.51496 5.5 7.50024 7.51472 7.50024 10C7.50024 12.4853 9.51496 14.5 12.0002 14.5Z" fill="#00164E"/>
</svg>
