<svg width="24" height="24" viewBox="0 0 24 24" fill="none" xmlns="http://www.w3.org/2000/svg">
<path fill-rule="evenodd" clip-rule="evenodd" d="M16.9089 5.5589C17.3627 6.01274 17.6177 6.62827 17.6177 7.2701V10.8501H21.1177C21.2503 10.8501 21.3775 10.9028 21.4712 10.9965C21.565 11.0903 21.6177 11.2175 21.6177 11.3501C21.6177 11.4827 21.565 11.6099 21.4712 11.7037C21.3775 11.7974 21.2503 11.8501 21.1177 11.8501H2.11768C1.98507 11.8501 1.85789 11.7974 1.76412 11.7037C1.67035 11.6099 1.61768 11.4827 1.61768 11.3501C1.61768 11.2175 1.67035 11.0903 1.76412 10.9965C1.85789 10.9028 1.98507 10.8501 2.11768 10.8501H5.61768V7.2701C5.61768 6.62827 5.87264 6.01274 6.32648 5.5589C6.78032 5.10506 7.39585 4.8501 8.03768 4.8501H15.1977C15.8395 4.8501 16.455 5.10506 16.9089 5.5589ZM6.72306 6.72512C6.65217 6.898 6.61635 7.08325 6.61768 7.2701V10.8501H16.6177V7.2701C16.619 7.08325 16.5832 6.898 16.5123 6.72512C16.4414 6.55223 16.3369 6.39517 16.2047 6.26304C16.0726 6.13092 15.9155 6.02637 15.7427 5.95548C15.5698 5.88459 15.3845 5.84877 15.1977 5.8501H8.03768C7.85083 5.84877 7.66558 5.88459 7.4927 5.95548C7.31981 6.02637 7.16274 6.13092 7.03062 6.26304C6.89849 6.39517 6.79395 6.55223 6.72306 6.72512Z" fill="#00164E"/>
<path d="M7.61768 14.8501C7.21768 14.8501 5.61768 14.8501 5.61768 15.3501C5.61768 16.1501 6.61768 16.8501 7.61768 16.8501C8.61768 16.8501 9.61768 16.6501 9.61768 15.8501C9.61768 15.0501 8.61768 14.8501 7.61768 14.8501Z" fill="#00164E"/>
<path d="M13.6177 15.8501C13.6177 16.8001 14.6177 16.8501 15.6177 16.8501C16.6177 16.8501 17.6177 16.1501 17.6177 15.3501C17.6177 14.8501 16.0177 14.8501 15.6177 14.8501C14.6177 14.8501 13.6177 14.9001 13.6177 15.8501Z" fill="#00164E"/>
<path fill-rule="evenodd" clip-rule="evenodd" d="M11.6177 17.3601C12.3886 18.1806 13.4209 18.7074 14.5377 18.8501C17.9877 18.8501 19.2077 17.7501 20.3477 15.5901C20.4922 15.3704 20.5734 15.115 20.5822 14.8521C20.591 14.5893 20.5272 14.329 20.3977 14.1001C19.6977 12.9201 17.1277 12.8501 16.6177 12.8501H6.61768C6.06768 12.8501 3.49768 12.9201 2.84768 14.1001C2.71073 14.3245 2.63828 14.5822 2.63828 14.8451C2.63828 15.108 2.71073 15.3657 2.84768 15.5901C4.02768 17.7501 5.24768 18.8501 8.69768 18.8501C9.81445 18.7074 10.8468 18.1806 11.6177 17.3601ZM12.1377 16.4801C12.0468 16.3987 11.9297 16.3526 11.8077 16.3501H11.4277C11.3302 16.3673 11.2399 16.4125 11.1677 16.4801C10.5333 17.1799 9.69279 17.6597 8.76768 17.8501C5.76768 17.8501 4.76768 17.0101 3.76768 15.1101C3.63007 14.8511 3.66937 14.7165 3.68934 14.6482C3.69404 14.6321 3.69768 14.6196 3.69768 14.6101C3.99768 14.1001 5.61768 13.8501 6.61768 13.8501H16.6177C17.6177 13.8501 19.2777 14.1001 19.6177 14.6101C19.6477 14.6601 19.7177 14.7901 19.5477 15.1101C18.4777 17.0101 17.5477 17.8501 14.5477 17.8501C13.6182 17.6637 12.7733 17.1834 12.1377 16.4801Z" fill="#00164E"/>
</svg>
