<svg width="24" height="24" viewBox="0 0 24 24" fill="none" xmlns="http://www.w3.org/2000/svg">
<path fill-rule="evenodd" clip-rule="evenodd" d="M3.5 3C3.77614 3 4 3.22386 4 3.5V14.7041L7.81728 10.5814C7.6165 10.2696 7.5 9.89841 7.5 9.5C7.5 8.39543 8.39543 7.5 9.5 7.5C10.6046 7.5 11.5 8.39543 11.5 9.5C11.5 9.8709 11.399 10.2182 11.2231 10.516L14.484 13.7769C14.7818 13.601 15.1291 13.5 15.5 13.5C15.6123 13.5 15.7225 13.5093 15.8297 13.527L18.2566 8.0666C17.7956 7.70021 17.5 7.13462 17.5 6.5C17.5 5.39543 18.3954 4.5 19.5 4.5C20.6046 4.5 21.5 5.39543 21.5 6.5C21.5 7.60457 20.6046 8.5 19.5 8.5C19.3877 8.5 19.2776 8.49074 19.1703 8.47295L16.7434 13.9334C17.2044 14.2998 17.5 14.8654 17.5 15.5C17.5 16.6046 16.6046 17.5 15.5 17.5C14.3954 17.5 13.5 16.6046 13.5 15.5C13.5 15.1291 13.601 14.7818 13.7769 14.484L10.516 11.2231C10.2182 11.399 9.8709 11.5 9.5 11.5C9.15655 11.5 8.83332 11.4134 8.55094 11.2609L4 16.1759V20H21.5C21.7761 20 22 20.2239 22 20.5C22 20.7761 21.7761 21 21.5 21H3.5C3.22386 21 3 20.7761 3 20.5V3.5C3 3.22386 3.22386 3 3.5 3ZM18.5 6.5C18.5 5.94772 18.9477 5.5 19.5 5.5C20.0523 5.5 20.5 5.94772 20.5 6.5C20.5 7.05228 20.0523 7.5 19.5 7.5C18.9477 7.5 18.5 7.05228 18.5 6.5ZM15.5 14.5C14.9477 14.5 14.5 14.9477 14.5 15.5C14.5 16.0523 14.9477 16.5 15.5 16.5C16.0523 16.5 16.5 16.0523 16.5 15.5C16.5 14.9477 16.0523 14.5 15.5 14.5ZM8.5 9.5C8.5 8.94772 8.94772 8.5 9.5 8.5C10.0523 8.5 10.5 8.94772 10.5 9.5C10.5 10.0523 10.0523 10.5 9.5 10.5C8.94772 10.5 8.5 10.0523 8.5 9.5Z" fill="#00164E"/>
</svg>
