<svg width="24" height="24" viewBox="0 0 24 24" fill="none" xmlns="http://www.w3.org/2000/svg">
<path d="M11.4998 2.5C11.2097 2.5 10.9745 2.72386 10.9745 3C10.9745 3.27614 11.2097 3.5 11.4998 3.5C16.4324 3.5 20.4745 7.50598 20.4745 12.5C20.4745 12.7761 20.7097 13 20.9998 13C21.2898 13 21.525 12.7761 21.525 12.5C21.525 7.00061 17.0606 2.5 11.4998 2.5Z" fill="#00164E"/>
<path fill-rule="evenodd" clip-rule="evenodd" d="M6.3492 3.38475C6.66378 3.33217 6.98581 3.34621 7.29409 3.42548C7.60212 3.50468 7.88872 3.64689 8.13574 3.84218C8.38269 4.03741 8.584 4.28095 8.7284 4.55528L8.72987 4.55808L10.4503 7.87809C10.6774 8.33677 10.7403 8.85721 10.6305 9.3546C10.5206 9.85201 10.2432 10.3022 9.83813 10.6273L9.83338 10.6312L9.03259 11.2586C9.49808 12.031 10.059 12.7413 10.7021 13.373L10.7119 13.3827C11.3115 14.0042 11.9851 14.5478 12.7169 15.001L13.3201 14.2312C13.6403 13.8239 14.0966 13.5339 14.6141 13.4197C15.1319 13.3053 15.6724 13.3751 16.1418 13.6135L16.1444 13.6148L19.3252 15.252C19.3821 15.2621 19.4376 15.2812 19.4893 15.3093C19.761 15.4571 19.9978 15.6579 20.186 15.8983C20.3743 16.1388 20.5101 16.4141 20.5865 16.7061C20.663 16.9983 20.6788 17.3025 20.633 17.6007C20.5888 17.8891 20.4877 18.1666 20.3348 18.4175L19.665 19.8184C19.6557 19.838 19.645 19.857 19.633 19.8753C19.3816 20.2604 19.0365 20.5799 18.6266 20.8025C18.2165 21.0252 17.7558 21.1428 17.2864 21.1441L17.2849 21.1441H17.1373C17.1288 21.1441 17.1202 21.1439 17.1116 21.1435C16.4048 21.1106 15.7023 21.0166 15.0119 20.8631L15.0066 20.8619C14.9944 20.859 14.9822 20.8557 14.9702 20.8521C12.1774 19.995 9.63884 18.4695 7.5745 16.4101C5.51029 14.3508 3.98257 11.82 3.12207 9.03929C3.1183 9.0271 3.11501 9.01478 3.11223 9.00236C2.95815 8.31507 2.86488 7.61583 2.8335 6.91235C2.80344 6.43084 2.89979 5.94909 3.11428 5.51432C3.32954 5.07799 3.65713 4.70262 4.06705 4.42812C4.08588 4.4155 4.10557 4.40408 4.12598 4.39393L5.50167 3.70959C5.75833 3.54592 6.04659 3.43533 6.3492 3.38475ZM19.0885 16.2525C19.0508 16.2426 19.0141 16.2286 18.9789 16.2105L15.6473 14.4957L15.6462 14.4951C15.3987 14.3698 15.1185 14.3348 14.8514 14.3938C14.5836 14.4529 14.3386 14.6047 14.1618 14.8294L13.2711 15.9661C13.111 16.1704 12.8151 16.2273 12.5842 16.0983C11.608 15.5526 10.7182 14.8669 9.94286 14.0641C9.13379 13.2684 8.44505 12.3605 7.89773 11.3685C7.78201 11.1587 7.83679 10.9005 8.02892 10.7499L9.16319 9.86109C9.38253 9.68422 9.53959 9.43381 9.60251 9.14888C9.66534 8.86436 9.62921 8.5675 9.50186 8.30822L7.7886 5.00198C7.70773 4.84878 7.59683 4.71599 7.46466 4.61149C7.33219 4.50676 7.18067 4.43215 7.02018 4.39088C6.85993 4.34967 6.6934 4.34252 6.53083 4.36969C6.36766 4.39696 6.211 4.458 6.07093 4.55035C6.05305 4.56214 6.03442 4.57286 6.01515 4.58245L4.64511 5.26398C4.40041 5.43432 4.19993 5.66605 4.06506 5.93942C3.92537 6.22259 3.86189 6.53883 3.88227 6.85624L3.88288 6.86571C3.91131 7.50844 3.99574 8.14721 4.13536 8.77504C4.95062 11.3989 6.39265 13.7826 8.33443 15.7197C10.2755 17.6562 12.6571 19.0879 15.2718 19.8939C15.89 20.0302 16.5184 20.1139 17.1503 20.1441L17.2834 20.1441C17.5695 20.1432 17.8525 20.0716 18.1061 19.9339C18.3516 19.8006 18.564 19.6088 18.7239 19.3729L19.3902 17.9794C19.3983 17.9625 19.4074 17.946 19.4174 17.93C19.5073 17.7867 19.5676 17.6256 19.5936 17.4561C19.6197 17.2865 19.6106 17.1135 19.5673 16.9479C19.5239 16.782 19.4473 16.6281 19.3438 16.496C19.2702 16.4019 19.184 16.3201 19.0885 16.2525Z" fill="#00164E"/>
<path d="M10.9745 6C10.9745 5.72386 11.2097 5.5 11.4998 5.5C15.4037 5.5 18.525 8.65747 18.525 12.5C18.525 12.7761 18.2898 13 17.9998 13C17.7097 13 17.4745 12.7761 17.4745 12.5C17.4745 9.16283 14.7755 6.5 11.4998 6.5C11.2097 6.5 10.9745 6.27614 10.9745 6Z" fill="#00164E"/>
</svg>
