<svg width="24" height="24" viewBox="0 0 24 24" fill="none" xmlns="http://www.w3.org/2000/svg">
<path fill-rule="evenodd" clip-rule="evenodd" d="M5.02472 6.55683C5.44774 5.04515 6.82549 4 8.39525 4H13.6051C15.1749 4 16.5526 5.04514 16.9756 6.55683L17.4313 8.18526C18.4722 8.56991 19.2492 9.51684 19.3746 10.678L19.5655 12.4463C19.5951 12.7209 19.3966 12.9675 19.122 12.9971C18.8475 13.0268 18.6009 12.8282 18.5712 12.5537L18.3803 10.7853C18.2707 9.76976 17.4134 9 16.3919 9H5.60845C4.58697 9 3.72964 9.76976 3.62 10.7853L3.11683 15.4463C3.08491 15.742 3.31656 16 3.61394 16H13.5002C13.7763 16 14.0002 16.2239 14.0002 16.5C14.0002 16.7761 13.7763 17 13.5002 17H6.50017V17.5C6.50017 18.3284 5.8286 19 5.00017 19H4.00017C3.17175 19 2.50017 18.3284 2.50017 17.5V16.5048C2.22539 16.2001 2.07459 15.7838 2.1226 15.339L2.62578 10.678C2.75113 9.51684 3.5281 8.56991 4.56904 8.18526L5.02472 6.55683ZM16.0126 6.82631L16.3411 8H5.6593L5.98773 6.82631C6.28988 5.74653 7.27399 5 8.39525 5H13.6051C14.7264 5 15.7105 5.74653 16.0126 6.82631ZM5.00017 18C5.27632 18 5.50017 17.7761 5.50017 17.5V17H3.50017V17.5C3.50017 17.7761 3.72403 18 4.00017 18H5.00017Z" fill="#00164E"/>
<path fill-rule="evenodd" clip-rule="evenodd" d="M18.5002 14C17.5896 14 16.742 14.2383 16.1069 14.6499C15.4767 15.0584 15.0002 15.6817 15.0002 16.4444C15.0002 16.5314 15.0064 16.6164 15.0183 16.6996C15.0065 16.7422 15.0002 16.787 15.0002 16.8333V19.9448C15.0002 20.6563 15.5462 21.1762 16.1487 21.4886C16.7762 21.814 17.6084 22.0004 18.5002 22.0004C19.392 22.0004 20.2241 21.814 20.8517 21.4886C21.4542 21.1762 22.0002 20.6563 22.0002 19.9448V16.833C22.0002 16.7867 21.9939 16.7419 21.9821 16.6994C21.994 16.6163 22.0002 16.5313 22.0002 16.4444C22.0002 15.6817 21.5237 15.0584 20.8934 14.6499C20.2583 14.2383 19.4108 14 18.5002 14ZM16.0002 16.4444C16.0002 16.1333 16.1953 15.7844 16.6508 15.4891C17.1015 15.197 17.7539 15 18.5002 15C19.2464 15 19.8989 15.197 20.3495 15.4891C20.8051 15.7844 21.0002 16.1333 21.0002 16.4444C21.0002 16.7555 20.8051 17.1045 20.3495 17.3998C19.8989 17.6919 19.2464 17.8889 18.5002 17.8889C17.7539 17.8889 17.1015 17.6919 16.6508 17.3998C16.1953 17.1045 16.0002 16.7555 16.0002 16.4444ZM21.0002 18.1667C20.9651 18.1914 20.9295 18.2156 20.8934 18.239C20.2583 18.6506 19.4108 18.8889 18.5002 18.8889C17.5896 18.8889 16.742 18.6506 16.1069 18.239C16.0708 18.2156 16.0352 18.1914 16.0002 18.1667V18.3885C16.0002 18.5362 16.1258 18.794 16.609 19.0446C17.0673 19.2822 17.7351 19.4441 18.5002 19.4441C19.2652 19.4441 19.9331 19.2822 20.3913 19.0446C20.8746 18.794 21.0002 18.5362 21.0002 18.3885V18.1667ZM21.0002 19.8503C20.9512 19.8791 20.9016 19.9064 20.8517 19.9323C20.2241 20.2577 19.392 20.4441 18.5002 20.4441C17.6084 20.4441 16.7762 20.2577 16.1487 19.9323C16.0987 19.9064 16.0491 19.8791 16.0002 19.8503V19.9448C16.0002 20.0925 16.1258 20.3503 16.609 20.6009C17.0673 20.8385 17.7351 21.0004 18.5002 21.0004C19.2652 21.0004 19.9331 20.8385 20.3913 20.6009C20.8746 20.3503 21.0002 20.0925 21.0002 19.9448V19.8503Z" fill="#00164E"/>
<path fill-rule="evenodd" clip-rule="evenodd" d="M6.00017 11C5.17175 11 4.50017 11.6716 4.50017 12.5C4.50017 13.3284 5.17175 14 6.00017 14C6.65328 14 7.2089 13.5826 7.41482 13H14.5855C14.7914 13.5826 15.3471 14 16.0002 14C16.8286 14 17.5002 13.3284 17.5002 12.5C17.5002 11.6716 16.8286 11 16.0002 11C15.3471 11 14.7914 11.4174 14.5855 12H7.41482C7.2089 11.4174 6.65328 11 6.00017 11ZM5.50017 12.5C5.50017 12.2239 5.72403 12 6.00017 12C6.27632 12 6.50017 12.2239 6.50017 12.5C6.50017 12.7761 6.27632 13 6.00017 13C5.72403 13 5.50017 12.7761 5.50017 12.5ZM16.0002 12C15.724 12 15.5002 12.2239 15.5002 12.5C15.5002 12.7761 15.724 13 16.0002 13C16.2763 13 16.5002 12.7761 16.5002 12.5C16.5002 12.2239 16.2763 12 16.0002 12Z" fill="#00164E"/>
</svg>
