<svg width="24" height="24" viewBox="0 0 24 24" fill="none" xmlns="http://www.w3.org/2000/svg">
<path fill-rule="evenodd" clip-rule="evenodd" d="M8.29995 15.5C8.29995 16.4941 7.49406 17.3 6.49995 17.3C5.50584 17.3 4.69995 16.4941 4.69995 15.5C4.69995 14.5058 5.50584 13.7 6.49995 13.7C7.49406 13.7 8.29995 14.5058 8.29995 15.5ZM7.29995 15.5C7.29995 15.9418 6.94178 16.3 6.49995 16.3C6.05812 16.3 5.69995 15.9418 5.69995 15.5C5.69995 15.0581 6.05812 14.7 6.49995 14.7C6.94178 14.7 7.29995 15.0581 7.29995 15.5Z" fill="#00164E"/>
<path fill-rule="evenodd" clip-rule="evenodd" d="M18.3 17.8C19.1285 17.8 19.8 17.1285 19.8 16.3C19.8 15.4716 19.1285 14.8 18.3 14.8C17.4716 14.8 16.8 15.4716 16.8 16.3C16.8 17.1285 17.4716 17.8 18.3 17.8ZM18.3 16.8C18.5762 16.8 18.8 16.5762 18.8 16.3C18.8 16.0239 18.5762 15.8 18.3 15.8C18.0239 15.8 17.8 16.0239 17.8 16.3C17.8 16.5762 18.0239 16.8 18.3 16.8Z" fill="#00164E"/>
<path fill-rule="evenodd" clip-rule="evenodd" d="M4.46562 4.18715C5.02164 3.74234 5.71248 3.5 6.42453 3.5H11.1803C11.5176 3.5 11.841 3.63398 12.0795 3.87247C12.3487 4.14166 12.4999 4.50676 12.4999 4.88746V5.80131C12.4999 6.03738 12.3829 6.24611 12.2036 6.37259L13.3502 9.04795L14.5 9.22484V6.63152C14.5 6.45996 14.588 6.30039 14.733 6.20878L15.733 5.5772C15.9665 5.42974 16.2753 5.49947 16.4227 5.73295C16.5702 5.96642 16.5005 6.27523 16.267 6.42269L15.5 6.90711V9.37869L18.8512 9.89425C19.4983 9.99381 20.0061 10.5016 20.1056 11.1487L20.4199 13.1912C21.3761 13.8708 22 14.9875 22 16.25C22 18.3211 20.3211 20 18.25 20C16.1789 20 14.5 18.3211 14.5 16.25C14.5 16.166 14.5028 16.0826 14.5082 16H10.9725C10.7238 18.25 8.81628 20 6.5 20C4.01472 20 2 17.9853 2 15.5C2 14.104 2.63564 12.8565 3.63328 12.0311L4.42344 6.5C3.479 6.49954 3.06194 5.31009 3.79959 4.71997L4.46562 4.18715ZM14.5 10.9999C14.5 11.2761 14.7239 11.4999 15 11.4999C15.2761 11.4999 15.5 11.2761 15.5 10.9999V10.3905L18.6991 10.8826C18.9148 10.9158 19.0841 11.0851 19.1173 11.3008L19.3259 12.6566C18.9851 12.5547 18.6239 12.5 18.25 12.5C16.6172 12.5 15.2282 13.5435 14.7134 15H10.9725C10.8669 14.0446 10.4622 13.1794 9.85416 12.5H13C13.2761 12.5 13.5 12.2761 13.5 12V10.0828L14.5 10.2366V10.9999ZM8.5636 11.5C8.38255 11.4064 8.19434 11.3247 8 11.2561V6.5L11.1702 6.5L12.5 9.60275V11.5H8.5636ZM7 11.0275C6.83583 11.0093 6.669 11 6.5 11C5.87533 11 5.28039 11.1273 4.73969 11.3573L5.41347 6.64088C5.42024 6.59345 5.42359 6.54641 5.4237 6.5H7V11.0275ZM4.43348 5.50004C4.44524 5.50015 4.45695 5.50046 4.4686 5.50097C4.47898 5.50033 4.48945 5.5 4.5 5.5L11.5 5.5L11.4999 4.88746C11.4999 4.77198 11.4541 4.66123 11.3724 4.57958C11.3215 4.52863 11.2524 4.5 11.1803 4.5H6.42453C5.93955 4.5 5.46902 4.66505 5.09032 4.96802L4.42534 5.5C4.42806 5.5 4.43077 5.50002 4.43348 5.50004ZM6.5 19C8.433 19 10 17.433 10 15.5C10 13.567 8.433 12 6.5 12C4.567 12 3 13.567 3 15.5C3 17.433 4.567 19 6.5 19ZM15.5 16.25C15.5 14.7312 16.7312 13.5 18.25 13.5C19.7688 13.5 21 14.7312 21 16.25C21 17.7688 19.7688 19 18.25 19C16.7312 19 15.5 17.7688 15.5 16.25Z" fill="#00164E"/>
</svg>
