<svg width="24" height="24" viewBox="0 0 24 24" fill="none" xmlns="http://www.w3.org/2000/svg">
<path fill-rule="evenodd" clip-rule="evenodd" d="M4.5 5C4.5 4.72386 4.72386 4.5 5 4.5H17C17.2761 4.5 17.5 4.72386 17.5 5V6.5H18.847C19.7598 6.5 20.461 7.30848 20.3319 8.21213L19.7605 12.2121C19.6549 12.9511 19.022 13.5 18.2756 13.5H17.4725C17.2238 15.75 15.3163 17.5 13 17.5H9C6.51472 17.5 4.5 15.4853 4.5 13V5ZM19.342 8.07071C19.385 7.76949 19.1513 7.5 18.847 7.5H17.5V12.5H18.2756C18.5244 12.5 18.7353 12.317 18.7705 12.0707L19.342 8.07071ZM11.5 8C11.5 7.72386 11.2761 7.5 11 7.5H10V5.5H16.5V13C16.5 14.933 14.933 16.5 13 16.5H9C7.067 16.5 5.5 14.933 5.5 13V5.5H9V7.5H8C7.72386 7.5 7.5 7.72386 7.5 8V11C7.5 11.1672 7.58355 11.3233 7.72265 11.416L9.22265 12.416C9.3906 12.528 9.6094 12.528 9.77735 12.416L11.2774 11.416C11.4164 11.3233 11.5 11.1672 11.5 11V8ZM9.5 11.3991L8.5 10.7324V8.5H10.5V10.7324L9.5 11.3991Z" fill="#00164E"/>
<path d="M2 19.5C2 19.2239 2.22386 19 2.5 19H20C20.2761 19 20.5 19.2239 20.5 19.5C20.5 19.7761 20.2761 20 20 20H2.5C2.22386 20 2 19.7761 2 19.5Z" fill="#00164E"/>
</svg>
