<svg width="24" height="24" viewBox="0 0 24 24" fill="none" xmlns="http://www.w3.org/2000/svg">
<path fill-rule="evenodd" clip-rule="evenodd" d="M13 14.5C13 13.6716 13.6716 13 14.5 13H16.5C17.3284 13 18 13.6716 18 14.5V16.5C18 17.3285 17.3284 18 16.5 18H14.5C13.6716 18 13 17.3285 13 16.5V14.5ZM14.5 14C14.2239 14 14 14.2239 14 14.5V16.5C14 16.7762 14.2239 17 14.5 17H16.5C16.7761 17 17 16.7762 17 16.5V14.5C17 14.2239 16.7761 14 16.5 14H14.5Z" fill="#00164E"/>
<path fill-rule="evenodd" clip-rule="evenodd" d="M4.99999 3C4.84261 3 4.69442 3.0741 4.59999 3.2L1.60093 7.19875C1.53758 7.28253 1.5 7.38689 1.5 7.50003V8.00003C1.5 9.11046 2.1033 10.08 3 10.5987V19.5C3 20.3285 3.67157 21 4.5 21H19.5C20.3284 21 21 20.3285 21 19.5V10.5987C21.8967 10.08 22.5 9.11046 22.5 8.00003V7.50003C22.5 7.38614 22.4619 7.28114 22.3978 7.19707L19.4 3.2C19.3056 3.0741 19.1574 3 19 3H4.99999ZM21 7.00003L18.75 4L5.24999 4L2.99997 7.00003H21ZM9.5 11C8.45651 11 7.53746 10.4673 7 9.65893C6.46254 10.4673 5.54349 11 4.5 11C4.32964 11 4.1626 10.9858 4 10.9586V19.5C4 19.7762 4.22386 20 4.5 20H6V14.5C6 14.1539 6.09035 13.7989 6.27924 13.5156C6.46831 13.232 6.77685 13 7.16667 13H9.83333C10.2232 13 10.5317 13.232 10.7208 13.5156C10.9097 13.7989 11 14.1539 11 14.5V20H19.5C19.7761 20 20 19.7762 20 19.5V10.9586C19.8374 10.9858 19.6704 11 19.5 11C18.4565 11 17.5375 10.4673 17 9.65893C16.4625 10.4673 15.5435 11 14.5 11C13.4565 11 12.5375 10.4673 12 9.65893C11.4625 10.4673 10.5435 11 9.5 11ZM4.5 10C3.39543 10 2.5 9.1046 2.5 8.00003H6.5C6.5 9.1046 5.60457 10 4.5 10ZM9.5 10C10.6046 10 11.5 9.1046 11.5 8.00003H7.5C7.5 9.1046 8.39543 10 9.5 10ZM12.5 8.00003C12.5 9.1046 13.3954 10 14.5 10C15.6046 10 16.5 9.1046 16.5 8.00003H12.5ZM19.5 10C18.3954 10 17.5 9.1046 17.5 8.00003H21.5C21.5 9.1046 20.6046 10 19.5 10ZM7.11129 14.0703C7.05013 14.162 7 14.3157 7 14.5V20H10V14.5C10 14.3157 9.94987 14.162 9.88871 14.0703C9.85948 14.0264 9.83504 14.0074 9.82458 14.0009L9.82323 14H7.17677L7.17542 14.0009C7.16496 14.0074 7.14052 14.0264 7.11129 14.0703Z" fill="#00164E"/>
</svg>
