<svg width="24" height="24" viewBox="0 0 24 24" fill="none" xmlns="http://www.w3.org/2000/svg">
<path fill-rule="evenodd" clip-rule="evenodd" d="M12 2C12.2761 2 12.5 2.22386 12.5 2.5V3.01215C16.9884 3.23085 20.5934 6.3781 20.9976 10.4506C21.0115 10.5911 20.9654 10.731 20.8706 10.8356C20.7758 10.9403 20.6412 11 20.5 11H12.5V19.6C12.5 19.6026 12.5 19.6052 12.4999 19.6078C12.4999 19.6135 12.4997 19.6193 12.4994 19.625C12.4673 20.2661 12.1898 20.8704 11.7244 21.3125C11.2591 21.7545 10.6417 22.0006 10 22C9.35828 22.0006 8.74088 21.7545 8.27563 21.3125C7.81022 20.8704 7.53272 20.2661 7.50063 19.625C7.50021 19.6167 7.5 19.6083 7.5 19.6V18.5C7.5 18.2239 7.72386 18 8 18C8.27614 18 8.5 18.2239 8.5 18.5V19.5866C8.52199 19.967 8.68794 20.3249 8.96438 20.5875C9.24362 20.8528 9.61421 21.0005 9.99938 21L10 21.5L10.0006 21C10.3858 21.0005 10.7564 20.8528 11.0356 20.5875C11.3121 20.3249 11.478 19.967 11.5 19.5866V19.6H12L11.5006 19.575L11.5 19.5866V11H3.5C3.3588 11 3.22419 10.9403 3.1294 10.8356C3.03462 10.731 2.9885 10.5911 3.00245 10.4506C3.40659 6.3781 7.01165 3.23085 11.5 3.01215V2.5C11.5 2.22386 11.7239 2 12 2ZM4.07569 10C4.70284 6.62323 7.93604 4 12 4C16.064 4 19.2972 6.62323 19.9243 10H4.07569Z" fill="#00164E"/>
</svg>
