<svg width="24" height="24" viewBox="0 0 24 24" fill="none" xmlns="http://www.w3.org/2000/svg">
<path d="M14.5748 5.20659C14.8828 4.52764 15.3837 3.9271 16.0592 3.49451C16.1598 3.43012 16.2621 3.37082 16.3658 3.31653C15.8456 4.73357 15.9703 6.36925 16.8477 7.73938C17.725 9.10955 19.1584 9.90728 20.6632 10.0277C20.5704 10.0992 20.4738 10.1673 20.3732 10.2317C20.1846 10.3525 19.99 10.4553 19.7914 10.5407C19.6486 10.6021 19.5036 10.6545 19.3571 10.6982C19.0925 10.7771 18.9419 11.0555 19.0208 11.3202C19.0997 11.5848 19.3781 11.7354 19.6428 11.6565C19.8262 11.6018 20.0077 11.5362 20.1863 11.4594C20.4349 11.3525 20.6777 11.2242 20.9124 11.0739C21.4701 10.7168 21.9338 10.2667 22.2955 9.75649C22.4552 9.5312 22.402 9.21912 22.1767 9.05943C22.1158 9.01627 22.0486 8.98866 21.9797 8.97579C21.9205 8.96467 21.8583 8.96413 21.7956 8.97587C20.2401 9.26682 18.5946 8.61319 17.6898 7.20014C16.7863 5.78915 16.8796 4.02425 17.791 2.73372C17.8694 2.6263 17.905 2.48803 17.8786 2.347C17.8496 2.19188 17.7519 2.06698 17.6228 1.9979C17.5886 1.9796 17.553 1.96564 17.5167 1.9559C17.4528 1.9387 17.3846 1.93401 17.3153 1.94411C17.3074 1.94525 17.2996 1.94658 17.2918 1.94809C16.6783 2.0633 16.0766 2.29596 15.52 2.65236C14.6769 3.19221 14.0494 3.94397 13.6641 4.79347C13.5026 5.14936 13.3837 5.52232 13.3091 5.90406C13.256 6.17507 13.4328 6.43773 13.7038 6.49073C13.9748 6.54373 14.2375 6.367 14.2905 6.09599C14.3503 5.79012 14.4456 5.49141 14.5748 5.20659Z" fill="#00164E"/>
<path fill-rule="evenodd" clip-rule="evenodd" d="M5.08398 20.2227L6.56575 18H5.5C3.567 18 2 16.433 2 14.5C2 12.567 3.567 11 5.5 11H6C6 9.61057 6.56823 8.4709 7.49497 7.68641C8.41378 6.90864 9.65907 6.50002 11 6.50002C12.3409 6.50002 13.5862 6.90864 14.505 7.68641C15.4318 8.4709 16 9.61057 16 11H16.5C18.433 11 20 12.567 20 14.5C20 16.433 18.433 18 16.5 18H15.7676L13.916 20.7774C13.7629 21.0071 13.4524 21.0692 13.2227 20.916C12.9929 20.7629 12.9308 20.4524 13.084 20.2227L14.5657 18H11.7676L9.91603 20.7774C9.76286 21.0071 9.45242 21.0692 9.22266 20.916C8.99289 20.7629 8.93081 20.4524 9.08398 20.2227L10.5657 18H7.7676L5.91603 20.7774C5.76286 21.0071 5.45242 21.0692 5.22266 20.916C4.99289 20.7629 4.93081 20.4524 5.08398 20.2227ZM7 11C7 9.90419 7.43913 9.04386 8.14107 8.44967C8.85094 7.84876 9.85565 7.50002 11 7.50002C12.1444 7.50002 13.1491 7.84876 13.8589 8.44967C14.5609 9.04386 15 9.90419 15 11C15 11.1506 14.9917 11.2991 14.9756 11.4451L14.9142 12H16.5C17.8807 12 19 13.1193 19 14.5C19 15.8807 17.8807 17 16.5 17H5.5C4.11929 17 3 15.8807 3 14.5C3 13.1193 4.11929 12 5.5 12H7.08578L7.02444 11.4451C7.0083 11.2991 7 11.1506 7 11Z" fill="#00164E"/>
</svg>
