<svg width="24" height="24" viewBox="0 0 24 24" fill="none" xmlns="http://www.w3.org/2000/svg">
<path d="M17.902 4.00956C17.6312 4.06372 17.4556 4.32713 17.5097 4.59791L17.6533 5.31583C17.0663 4.77127 16.4063 4.33267 15.6906 4.03762C15.4353 3.93238 15.143 4.05403 15.0378 4.30933C14.9325 4.56464 15.0542 4.85691 15.3095 4.96215C17.6998 5.94747 19.4934 8.95679 19.5 11.9832C19.4999 11.9853 19.4999 11.9873 19.4998 11.9893C19.4997 11.9982 19.4997 12.007 19.5 12.0158C19.4937 15.0425 17.7 18.0522 15.3095 19.0376C15.0542 19.1429 14.9325 19.4351 15.0378 19.6904C15.1391 19.9362 15.4138 20.0582 15.6619 19.973C15.671 19.97 15.6811 19.9661 15.6924 19.9614L21.6924 17.4614C21.9473 17.3552 22.0679 17.0625 21.9617 16.8076C21.8555 16.5527 21.5627 16.4321 21.3078 16.5383L19.1819 17.4241L21.9001 13.7999C22.0658 13.579 22.021 13.2656 21.8001 13.0999C21.5792 12.9342 21.2658 12.979 21.1001 13.1999L20.1589 14.4548C20.3683 13.6997 20.4862 12.9182 20.4989 12.14L21.9286 9.7572C22.0706 9.52041 21.9938 9.21328 21.7571 9.07121C21.5203 8.92913 21.2131 9.00592 21.0711 9.24271L20.3596 10.4286C20.2758 9.95653 20.1558 9.4901 20.0026 9.03605L20.4902 6.59803C20.5443 6.32725 20.3687 6.06384 20.098 6.00968C19.8272 5.95553 19.5638 6.13114 19.5096 6.40192L19.301 7.44484C19.2044 7.27043 19.1025 7.09969 18.9956 6.93313C18.9942 6.92271 18.9924 6.91226 18.9903 6.90179L18.4903 4.40179C18.4362 4.13101 18.1728 3.95541 17.902 4.00956Z" fill="#00164E"/>
<path d="M6.0978 4.00968C6.36858 4.06384 6.54419 4.32725 6.49003 4.59803L6.34645 5.31596C6.93344 4.77139 7.59344 4.33279 8.3092 4.03774C8.56451 3.9325 8.85678 4.05415 8.96202 4.30946C9.06726 4.56476 8.94561 4.85704 8.69031 4.96228C6.30001 5.94759 4.50634 8.95691 4.49977 11.9833C4.50013 11.9942 4.50013 12.0051 4.49977 12.0159C4.50604 15.0426 6.29981 18.0523 8.69031 19.0377C8.94561 19.143 9.06726 19.4353 8.96202 19.6906C8.8607 19.9364 8.58599 20.0583 8.33784 19.9731C8.3288 19.9701 8.31865 19.9663 8.30734 19.9615L2.30733 17.4615C2.05243 17.3553 1.9319 17.0626 2.0381 16.8077C2.14431 16.5528 2.43705 16.4323 2.69195 16.5385L4.81785 17.4243L2.09967 13.8C1.93399 13.5791 1.97876 13.2657 2.19967 13.1C2.42059 12.9343 2.73399 12.9791 2.89967 13.2L3.84087 14.455C3.63143 13.6998 3.51358 12.9183 3.5009 12.1401L2.07122 9.75732C1.92914 9.52053 2.00593 9.2134 2.24272 9.07133C2.47951 8.92926 2.78664 9.00604 2.92871 9.24283L3.64022 10.4287C3.72396 9.95665 3.84398 9.49022 3.99719 9.03617L3.50958 6.59815C3.45543 6.32737 3.63103 6.06396 3.90181 6.00981C4.17259 5.95565 4.43601 6.13126 4.49016 6.40204L4.69875 7.44496C4.79542 7.27055 4.89732 7.09982 5.00419 6.93325C5.00561 6.92283 5.00736 6.91238 5.00945 6.90192L5.50945 4.40192C5.56361 4.13114 5.82702 3.95553 6.0978 4.00968Z" fill="#00164E"/>
<path d="M14.7499 12.75C15.1641 12.75 15.4999 12.4142 15.4999 12C15.4999 11.5858 15.1641 11.25 14.7499 11.25C14.4989 11.25 14.2768 11.3732 14.1406 11.5625H9.85913C9.72299 11.3732 9.50083 11.25 9.24989 11.25C8.83567 11.25 8.49989 11.5858 8.49989 12C8.49989 12.4142 8.83567 12.75 9.24989 12.75C9.4401 12.75 9.61377 12.6792 9.74598 12.5625H14.2538C14.386 12.6792 14.5597 12.75 14.7499 12.75Z" fill="#00164E"/>
<path fill-rule="evenodd" clip-rule="evenodd" d="M10.0433 6.5C9.0193 6.5 8.13233 7.21036 7.90863 8.20963L7.62443 9.47917C7.02375 9.74895 6.58416 10.3216 6.5094 11.0141L6.22636 13.636C6.1958 13.9191 6.27896 14.1859 6.43739 14.3937V15.4375C6.43739 16.0243 6.91309 16.5 7.49989 16.5H8.62489C9.21169 16.5 9.68739 16.0243 9.68739 15.4375V14.8125H14.3124V15.4375C14.3124 16.0243 14.7881 16.5 15.3749 16.5H16.4999C17.0867 16.5 17.5624 16.0243 17.5624 15.4375V14.394C17.7209 14.1862 17.8042 13.9192 17.7736 13.636L17.4906 11.0142C17.4158 10.3213 16.9759 9.74853 16.3749 9.47887L16.0907 8.20963C15.867 7.21036 14.9801 6.5 13.9561 6.5H10.0433ZM8.40463 10.3125C7.94177 10.3125 7.5533 10.6613 7.50362 11.1215L7.22058 13.7433C7.21659 13.7802 7.24555 13.8125 7.28272 13.8125H16.7172C16.7544 13.8125 16.7834 13.7802 16.7794 13.7433L16.4963 11.1215C16.4467 10.6613 16.0582 10.3125 15.5953 10.3125H8.40463ZM15.3129 9.3125L15.1149 8.42808C14.9935 7.88562 14.512 7.5 13.9561 7.5H10.0433C9.48741 7.5 9.00592 7.88562 8.88448 8.42808L8.68649 9.3125H15.3129ZM16.5624 15.4375C16.5624 15.472 16.5344 15.5 16.4999 15.5H15.3749C15.3404 15.5 15.3124 15.472 15.3124 15.4375V14.8125H16.5624V15.4375ZM8.68739 15.4375C8.68739 15.472 8.65941 15.5 8.62489 15.5H7.49989C7.46537 15.5 7.43739 15.472 7.43739 15.4375V14.8125H8.68739V15.4375Z" fill="#00164E"/>
</svg>
