<svg width="24" height="24" viewBox="0 0 24 24" fill="none" xmlns="http://www.w3.org/2000/svg">
<path d="M6.5 6C6.22386 6 6 6.22386 6 6.5V7.5C6 7.77614 6.22386 8 6.5 8H7.5C7.77614 8 8 7.77614 8 7.5V6.5C8 6.22386 7.77614 6 7.5 6H6.5Z" fill="#00164E"/>
<path fill-rule="evenodd" clip-rule="evenodd" d="M3.5 3C3.22386 3 3 3.22386 3 3.5V10.5C3 10.7761 3.22386 11 3.5 11H10.5C10.7761 11 11 10.7761 11 10.5V3.5C11 3.22386 10.7761 3 10.5 3H3.5ZM4 10V4H10V10H4Z" fill="#00164E"/>
<path fill-rule="evenodd" clip-rule="evenodd" d="M5 15.5C5 15.2239 5.22386 15 5.5 15H8.5C8.77614 15 9 15.2239 9 15.5V18.5C9 18.7761 8.77614 19 8.5 19H5.5C5.22386 19 5 18.7761 5 18.5V15.5ZM6 16V18H8V16H6Z" fill="#00164E"/>
<path fill-rule="evenodd" clip-rule="evenodd" d="M3.5 13C3.22386 13 3 13.2239 3 13.5V20.5C3 20.7761 3.22386 21 3.5 21H10.5C10.7761 21 11 20.7761 11 20.5V13.5C11 13.2239 10.7761 13 10.5 13H3.5ZM4 20V14H10V20H4Z" fill="#00164E"/>
<path d="M13 13.5C13 13.2239 13.2239 13 13.5 13H20.5C20.7761 13 21 13.2239 21 13.5C21 13.7761 20.7761 14 20.5 14H14V20.5C14 20.7761 13.7761 21 13.5 21C13.2239 21 13 20.7761 13 20.5V13.5Z" fill="#00164E"/>
<path d="M15.5 15C15.2239 15 15 15.2239 15 15.5V16.5C15 16.7761 15.2239 17 15.5 17C15.7761 17 16 16.7761 16 16.5V16H17.5C17.7761 16 18 15.7761 18 15.5C18 15.2239 17.7761 15 17.5 15H15.5Z" fill="#00164E"/>
<path d="M20.5 15C20.7761 15 21 15.2239 21 15.5V17.5C21 17.7761 20.7761 18 20.5 18H18.5C18.2239 18 18 17.7761 18 17.5C18 17.2239 18.2239 17 18.5 17H20V15.5C20 15.2239 20.2239 15 20.5 15Z" fill="#00164E"/>
<path fill-rule="evenodd" clip-rule="evenodd" d="M15 5.5C15 5.22386 15.2239 5 15.5 5H18.5C18.7761 5 19 5.22386 19 5.5V8.5C19 8.77614 18.7761 9 18.5 9H15.5C15.2239 9 15 8.77614 15 8.5V5.5ZM16 6V8H18V6H16Z" fill="#00164E"/>
<path fill-rule="evenodd" clip-rule="evenodd" d="M13.5 3C13.2239 3 13 3.22386 13 3.5V10.5C13 10.7761 13.2239 11 13.5 11H20.5C20.7761 11 21 10.7761 21 10.5V3.5C21 3.22386 20.7761 3 20.5 3H13.5ZM14 10V4H20V10H14Z" fill="#00164E"/>
<path d="M16 18.5C16 18.2239 15.7761 18 15.5 18C15.2239 18 15 18.2239 15 18.5V20.5C15 20.7761 15.2239 21 15.5 21H20.5C20.7761 21 21 20.7761 21 20.5V19.5C21 19.2239 20.7761 19 20.5 19C20.2239 19 20 19.2239 20 19.5V20H16V18.5Z" fill="#00164E"/>
</svg>
