<svg width="24" height="24" viewBox="0 0 24 24" fill="none" xmlns="http://www.w3.org/2000/svg">
<path fill-rule="evenodd" clip-rule="evenodd" d="M3 5.5C2.44772 5.5 2 5.94772 2 6.5V15.5C2 16.0523 2.44771 16.5 3 16.5H12C12.2761 16.5 12.5 16.2761 12.5 16C12.5 15.7239 12.2761 15.5 12 15.5H6C6 14.7044 5.68393 13.9413 5.12132 13.3787C4.55871 12.8161 3.79565 12.5 3 12.5V9.5C3.79565 9.5 4.55871 9.18393 5.12132 8.62132C5.68393 8.05871 6 7.29565 6 6.5H15C15 7.29565 15.3161 8.05871 15.8787 8.62132C16.4413 9.18393 17.2044 9.5 18 9.5V10C18 10.2761 18.2239 10.5 18.5 10.5C18.7761 10.5 19 10.2761 19 10V6.5C19 5.94772 18.5523 5.5 18 5.5H3ZM16 6.5C16 7.03043 16.2107 7.53914 16.5858 7.91421C16.9609 8.28929 17.4696 8.5 18 8.5V6.5H16ZM5 6.5L3 6.5V8.5C3.53043 8.5 4.03914 8.28929 4.41422 7.91421C4.78929 7.53914 5 7.03043 5 6.5ZM5 15.5C5 14.9696 4.78929 14.4609 4.41422 14.0858C4.03914 13.7107 3.53043 13.5 3 13.5V15.5H5Z" fill="#00164E"/>
<path d="M6 10C6 9.72386 5.77614 9.5 5.5 9.5C5.22386 9.5 5 9.72386 5 10V12C5 12.2761 5.22386 12.5 5.5 12.5C5.77614 12.5 6 12.2761 6 12V10Z" fill="#00164E"/>
<path d="M15.5 9.5C15.7761 9.5 16 9.72386 16 10V10.5C16 10.7761 15.7761 11 15.5 11C15.2239 11 15 10.7761 15 10.5V10C15 9.72386 15.2239 9.5 15.5 9.5Z" fill="#00164E"/>
<path fill-rule="evenodd" clip-rule="evenodd" d="M8 11C8 9.61929 9.11929 8.5 10.5 8.5C11.8807 8.5 13 9.61929 13 11C13 12.3807 11.8807 13.5 10.5 13.5C9.11929 13.5 8 12.3807 8 11ZM10.5 9.5C9.67157 9.5 9 10.1716 9 11C9 11.8284 9.67157 12.5 10.5 12.5C11.3284 12.5 12 11.8284 12 11C12 10.1716 11.3284 9.5 10.5 9.5Z" fill="#00164E"/>
<path fill-rule="evenodd" clip-rule="evenodd" d="M17.7495 14C16.355 14 15.2062 15.1092 15.2062 16.5C15.2062 17.8908 16.355 19 17.7495 19C19.144 19 20.2928 17.8908 20.2928 16.5C20.2928 15.1092 19.144 14 17.7495 14ZM16.2062 16.5C16.2062 15.6816 16.887 15 17.7495 15C18.612 15 19.2928 15.6816 19.2928 16.5C19.2928 17.3184 18.612 18 17.7495 18C16.887 18 16.2062 17.3184 16.2062 16.5Z" fill="#00164E"/>
<path fill-rule="evenodd" clip-rule="evenodd" d="M17.2319 11C16.6797 11 16.2319 11.4477 16.2319 12V12.2091C16.2319 12.5588 16.0114 12.8668 15.7078 13.04C15.4106 13.2095 15.047 13.2415 14.7492 13.0732L14.5298 12.9493C14.049 12.6776 13.4318 12.8429 13.1512 13.3186L12.6376 14.1893C12.357 14.665 12.5193 15.2709 13.0001 15.5426L13.2336 15.6746C13.5248 15.8392 13.6778 16.1655 13.6778 16.5C13.6778 16.8345 13.5248 17.1608 13.2336 17.3254L13.0001 17.4573C12.5193 17.7291 12.357 18.335 12.6376 18.8106L13.1512 19.6814C13.4318 20.1571 14.049 20.3224 14.5298 20.0507L14.7492 19.9268C15.047 19.7584 15.4106 19.7905 15.7078 19.96C16.0114 20.1332 16.2319 20.4413 16.2319 20.7909V21C16.2319 21.5523 16.6797 22 17.2319 22H18.2753C18.8275 22 19.2753 21.5523 19.2753 21V20.7909C19.2753 20.4413 19.4958 20.1332 19.7994 19.96C20.0966 19.7905 20.4602 19.7584 20.7581 19.9267L20.9773 20.0507C21.4581 20.3224 22.0754 20.157 22.356 19.6813L22.8696 18.8106C23.1502 18.3349 22.9879 17.729 22.507 17.4573L22.2736 17.3253C21.9824 17.1608 21.8294 16.8345 21.8294 16.5C21.8294 16.1655 21.9824 15.8392 22.2736 15.6746L22.507 15.5427C22.9878 15.271 23.1502 14.6651 22.8696 14.1894L22.356 13.3187C22.0754 12.843 21.4581 12.6776 20.9773 12.9493L20.758 13.0732C20.4602 13.2416 20.0966 13.2095 19.7994 13.04C19.4958 12.8668 19.2753 12.5587 19.2753 12.2091V12C19.2753 11.4477 18.8275 11 18.2753 11H17.2319ZM17.2319 12.2091C17.2319 12.9957 16.7448 13.5997 16.2033 13.9086C15.6659 14.2152 14.9221 14.3196 14.2572 13.9438L14.0379 13.8199L14.0342 13.8186C14.0342 13.8186 14.0287 13.8184 14.0242 13.8196L14.0225 13.8201L14.0197 13.8213C14.017 13.8225 14.015 13.8238 14.015 13.8238L14.0125 13.8267L13.5084 14.6813L13.7256 14.804C14.3948 15.1822 14.6778 15.8852 14.6778 16.5C14.6778 17.1148 14.3948 17.8178 13.7256 18.196L13.5084 18.3187L14.0125 19.1733L14.015 19.1762C14.015 19.1762 14.017 19.1775 14.0197 19.1787L14.0225 19.1799L14.0242 19.1804L14.0294 19.1812L14.0322 19.1814L14.0342 19.1814L14.0378 19.1801L14.2572 19.0561C14.922 18.6804 15.6659 18.7848 16.2033 19.0914C16.7448 19.4003 17.2319 20.0043 17.2319 20.7909V21H18.2753V20.7909C18.2753 20.0043 18.7624 19.4003 19.3039 19.0914C19.8413 18.7848 20.5852 18.6804 21.25 19.0561L21.4693 19.1801L21.4713 19.181L21.4729 19.1813C21.4729 19.1813 21.4747 19.1814 21.4771 19.1812L21.4803 19.1808L21.483 19.1803L21.4882 19.1783C21.4905 19.1772 21.4921 19.1762 21.4921 19.1762L21.4947 19.1733L21.9987 18.3187L21.7816 18.1959C21.1124 17.8178 20.8294 17.1148 20.8294 16.5C20.8294 15.8852 21.1124 15.1822 21.7816 14.804L21.9987 14.6813L21.4946 13.8267L21.4921 13.8238C21.4921 13.8238 21.4875 13.8209 21.483 13.8197C21.4784 13.8184 21.4729 13.8187 21.4729 13.8187L21.4693 13.8199L21.25 13.9439C20.5852 14.3196 19.8413 14.2152 19.3039 13.9086C18.7624 13.5997 18.2753 12.9957 18.2753 12.2091V12H17.2319V12.2091Z" fill="#00164E"/>
</svg>
