<svg width="24" height="24" viewBox="0 0 24 24" fill="none" xmlns="http://www.w3.org/2000/svg">
<path d="M3.16782 8.87388C2.96143 8.69042 2.94284 8.37438 3.1263 8.16799L6.37889 4.50883C6.97558 3.83755 8.02443 3.83755 8.62112 4.50883L11.8737 8.16799C12.0572 8.37438 12.0386 8.69042 11.8322 8.87388C11.6258 9.05734 11.3098 9.03874 11.1263 8.83235L7.91035 5.21441C7.96686 5.29541 8 5.39392 8 5.50017L8.00001 20.0002C8.00001 20.2763 7.77615 20.5002 7.50001 20.5002C7.22386 20.5002 7.00001 20.2763 7.00001 20.0002L7 5.50017C7 5.39392 7.03314 5.29542 7.08965 5.21442L3.87371 8.83235C3.69025 9.03874 3.37421 9.05733 3.16782 8.87388Z" fill="#00164E"/>
<path d="M20.8737 16.8324C21.0572 16.626 21.0386 16.3099 20.8322 16.1265C20.6258 15.943 20.3098 15.9616 20.1263 16.168L16.9103 19.786C16.9669 19.705 17 19.6064 17 19.5002L17 5.00017C17 4.72403 16.7761 4.50017 16.5 4.50017C16.2239 4.50017 16 4.72403 16 5.00017L16 19.5002C16 19.6064 16.0331 19.7049 16.0897 19.7859L12.8737 16.168C12.6903 15.9616 12.3742 15.943 12.1678 16.1265C11.9614 16.3099 11.9428 16.626 12.1263 16.8324L15.3789 20.4915C15.9756 21.1628 17.0244 21.1628 17.6211 20.4915L20.8737 16.8324Z" fill="#00164E"/>
</svg>
