<svg width="24" height="24" viewBox="0 0 24 24" fill="none" xmlns="http://www.w3.org/2000/svg">
<path d="M14.5 1.35205C14.2239 1.35205 14 1.56516 14 1.82805C14 2.09094 14.2239 2.30405 14.5 2.30405C16.2239 2.30405 17.8772 2.956 19.0962 4.11647C20.3152 5.27695 21 6.85089 21 8.49205C21 8.75494 21.2239 8.96805 21.5 8.96805C21.7761 8.96805 22 8.75494 22 8.49205C22 6.5984 21.2098 4.78232 19.8033 3.44331C18.3968 2.1043 16.4891 1.35205 14.5 1.35205Z" fill="#00164E"/>
<path fill-rule="evenodd" clip-rule="evenodd" d="M9.48324 7.06432L9.49999 7.06405H13.5L13.5167 7.06432C14.1962 7.08592 14.839 7.36299 15.3044 7.83484C15.7681 8.3049 16.0179 8.9301 16 9.57446V18.8442C16.015 19.487 15.7636 20.1097 15.3 20.5774C14.835 21.0467 14.1941 21.3222 13.5167 21.3438L13.5 21.344H9.70182L8.85465 22.1556C8.65999 22.342 8.34341 22.343 8.14755 22.1577C7.95168 21.9724 7.9507 21.671 8.14535 21.4845L11.3539 18.4109C11.4449 18.322 11.4959 18.2028 11.4959 18.0787C11.4959 17.9541 11.4445 17.8345 11.3529 17.7455C11.3462 17.739 11.3397 17.7323 11.3334 17.7254C11.2383 17.6218 11.1073 17.5544 10.9646 17.5354C10.8271 17.5348 10.6924 17.5733 10.5778 17.6462L10.5704 17.6509L7.77674 19.3605C7.76985 19.3649 7.76284 19.3691 7.75572 19.3732C7.74006 19.3822 7.7261 19.3893 7.71363 19.3945C7.64885 19.4237 7.57643 19.4401 7.49999 19.4401C7.22385 19.4401 6.99999 19.2269 6.99999 18.9641V14.4753L4.65849 16.9058C4.6532 16.9113 4.64778 16.9166 4.64222 16.9219C4.27793 17.2661 4.051 17.7201 4 18.2059V21.8105C4 22.0734 3.77614 22.2865 3.5 22.2865C3.22386 22.2865 3 22.0734 3 21.8105V18.1834C3 18.1691 3.00067 18.1549 3.00202 18.1406C3.06956 17.4278 3.39773 16.7603 3.92911 16.2544L6.99999 13.0668V9.56386C6.98501 8.92109 7.2364 8.29843 7.69996 7.83065C8.165 7.36136 8.80593 7.08594 9.48324 7.06432ZM14.5726 19.9242C14.2903 20.2091 13.9019 20.377 13.491 20.392H10.6956L12.0647 19.0806L12.0671 19.0783C12.3419 18.8113 12.4959 18.4525 12.4959 18.0787C12.4959 17.7095 12.3457 17.3548 12.0772 17.089C11.8134 16.8066 11.4488 16.6275 11.0539 16.5868C11.0414 16.5855 11.0288 16.5847 11.0163 16.5843C10.665 16.5734 10.3189 16.667 10.0262 16.8521L8.00001 18.0922L8.00014 9.55829L7.99984 9.54653C7.98961 9.15252 8.14326 8.77062 8.42735 8.48393C8.70966 8.19905 9.09807 8.03111 9.50895 8.01605H13.4911C13.9033 8.0311 14.2929 8.20004 14.5754 8.4865C14.8597 8.77475 15.0125 9.15851 15.0002 9.55375L15 9.56781L14.9998 18.8498L15.0001 18.8616C15.0104 19.2556 14.8567 19.6375 14.5726 19.9242Z" fill="#00164E"/>
<path d="M14 3.73205C14 3.46916 14.2239 3.25605 14.5 3.25605C15.9587 3.25605 17.3576 3.8077 18.3891 4.78964C19.4205 5.77158 20 7.10338 20 8.49205C20 8.75494 19.7761 8.96805 19.5 8.96805C19.2239 8.96805 19 8.75494 19 8.49205C19 7.35586 18.5259 6.26621 17.682 5.46281C16.8381 4.6594 15.6935 4.20805 14.5 4.20805C14.2239 4.20805 14 3.99494 14 3.73205Z" fill="#00164E"/>
<path d="M14.0051 5.616C14.0443 5.35578 14.2977 5.17512 14.5711 5.21249C15.4225 5.32889 16.2114 5.70475 16.8196 6.28378C17.4278 6.86281 17.8227 7.61384 17.9449 8.4244C17.9842 8.68461 17.7944 8.92586 17.5211 8.96322C17.2477 9.00059 16.9943 8.81994 16.9551 8.55972C16.8635 7.95282 16.5679 7.39049 16.1125 6.95694C15.6571 6.5234 15.0664 6.24198 14.4289 6.15482C14.1556 6.11746 13.9658 5.87621 14.0051 5.616Z" fill="#00164E"/>
</svg>
