<svg width="24" height="24" viewBox="0 0 24 24" fill="none" xmlns="http://www.w3.org/2000/svg">
<path fill-rule="evenodd" clip-rule="evenodd" d="M9.20307 3.04309C9.07379 2.98564 8.92621 2.98564 8.79693 3.04309L4.89079 4.77916C4.3491 5.01991 4 5.55709 4 6.14987V16C4 16.1264 4.04694 16.2419 4.12434 16.33C4.14264 16.3508 4.16276 16.3702 4.1846 16.388C4.21582 16.4134 4.25018 16.4351 4.28699 16.4525L4.5 16.559V20H1.5C1.22386 20 1 20.2239 1 20.5C1 20.7761 1.22386 21 1.5 21H22.5C22.7761 21 23 20.7761 23 20.5C23 20.2239 22.7761 20 22.5 20H19.5L19.5 17.0831L19.7506 16.9328C19.7645 16.9247 19.7779 16.916 19.7908 16.9068C19.8428 16.8697 19.8861 16.8238 19.9196 16.772C19.957 16.7144 19.9829 16.6486 19.994 16.5778C19.9985 16.5492 20.0006 16.52 20 16.4907V8.6594C20 8.05935 19.6424 7.51705 19.0909 7.28068L16.197 6.04043C16.0712 5.98652 15.9288 5.98652 15.803 6.04043L14 6.81316V6.14987C14 5.55709 13.6509 5.01991 13.1092 4.77916L9.20307 3.04309ZM17.6949 17L16.7428 17.5713C16.5922 17.6616 16.5 17.8244 16.5 18V18.5H15.5V18C15.5 17.8244 15.4079 17.6616 15.2573 17.5713L14.3052 17H17.6949ZM13.0001 16L13 15.9903V14.5H14.5C14.7761 14.5 15 14.2761 15 14C15 13.7239 14.7761 13.5 14.5 13.5H13V12.5H15.5C15.7761 12.5 16 12.2761 16 12C16 11.7239 15.7761 11.5 15.5 11.5H13V8.6594C13 8.45938 13.1192 8.27861 13.303 8.19982L16 7.04398L18.697 8.19982C18.8808 8.27861 19 8.45938 19 8.6594V16H13.0001ZM12 8.6594C12 8.05935 12.3576 7.51705 12.9091 7.28068L13 7.24173V6.14987C13 5.95228 12.8836 5.77322 12.7031 5.69297L9 4.04716L5.29693 5.69297C5.11637 5.77322 5 5.95228 5 6.14987V9.5H7.5C7.77614 9.5 8 9.72386 8 10C8 10.2761 7.77614 10.5 7.5 10.5H5V11.5H6.5C6.77614 11.5 7 11.7239 7 12C7 12.2761 6.77614 12.5 6.5 12.5H5V15.5H12V8.6594ZM6.61808 16.5L7.72366 17.0528C7.89305 17.1375 8.00005 17.3106 8.00005 17.5V18H9.00005V17.5C9.00005 17.3106 9.10705 17.1375 9.27644 17.0528L10.382 16.5H6.61808ZM18.5 17.6831L17.5 18.2831V19C17.5 19.2761 17.2762 19.5 17 19.5H15C14.7239 19.5 14.5 19.2761 14.5 19V18.2831L13 17.3831V20H18.5V17.6831ZM12 16.809L10 17.809V18.5C10 18.7761 9.77619 19 9.50005 19H7.50005C7.22391 19 7.00005 18.7761 7.00005 18.5V17.809L5.5 17.059V20H12V16.809Z" fill="#00164E"/>
</svg>
