<svg width="24" height="24" viewBox="0 0 24 24" fill="none" xmlns="http://www.w3.org/2000/svg">
<path fill-rule="evenodd" clip-rule="evenodd" d="M17 3C16.005 3 15.1797 3.72658 15.0258 4.6781L12.8034 5.78928L10.1474 6.73784C9.66169 6.91132 9.14973 7 8.63393 7H7C4.79086 7 3 8.79086 3 11C3 12.8638 4.27477 14.4299 6 14.874V18.5C6 19.6046 6.89543 20.5 8 20.5C9.10457 20.5 10 19.6046 10 18.5V15.392C10.1195 15.4474 10.2366 15.5086 10.351 15.5753L15.0224 18.3002C15.1672 19.2624 15.9975 20 17 20C18.1046 20 19 19.1046 19 18V13.95C20.1411 13.7184 21 12.7095 21 11.5C21 10.2905 20.1411 9.28164 19 9.05001V5C19 3.89543 18.1046 3 17 3ZM19 12.9146C19.5826 12.7087 20 12.1531 20 11.5C20 10.8469 19.5826 10.2913 19 10.0854V12.9146ZM17 19C16.4477 19 16 18.5523 16 18V5C16 4.44772 16.4477 4 17 4C17.5523 4 18 4.44772 18 5V18C18 18.5523 17.5523 19 17 19ZM13.2236 6.69721L15 5.80902V17.1295L10.8549 14.7115C10.0561 14.2455 9.14789 14 8.22311 14H7C5.34315 14 4 12.6569 4 11C4 9.34315 5.34315 8 7 8H8.63393C9.26435 8 9.89009 7.89161 10.4838 7.67958L13.1682 6.72087C13.1871 6.71411 13.2056 6.70621 13.2236 6.69721ZM8 19.5C7.44772 19.5 7 19.0523 7 18.5V15H8.22311C8.48479 15 8.74482 15.0243 9 15.0721V18.5C9 19.0523 8.55228 19.5 8 19.5Z" fill="#00164E"/>
</svg>
